<?xml version="1.0" encoding="utf-8"?>
<!-- Generator: Adobe Illustrator 14.0.0, SVG Export Plug-In . SVG Version: 6.00 Build 43363)  -->
<!DOCTYPE svg PUBLIC "-//W3C//DTD SVG 1.1//EN" "http://www.w3.org/Graphics/SVG/1.1/DTD/svg11.dtd">
<svg version="1.1" id="Layer_1" xmlns="http://www.w3.org/2000/svg" xmlns:xlink="http://www.w3.org/1999/xlink" x="0px" y="0px"
	 width="183.507px" height="183.506px" viewBox="0 0 183.507 183.506" enable-background="new 0 0 183.507 183.506"
	 xml:space="preserve">
<g>
	<path fill-rule="evenodd" clip-rule="evenodd" fill="#C88E40" d="M53.99,66.559c0.646,0.546,0.646,3.745,0,4.291
		C53.99,69.419,53.99,67.99,53.99,66.559z"/>
	<path fill-rule="evenodd" clip-rule="evenodd" fill="#EAB654" d="M34.484,70.07c0.649,2.089,0.649,6.885,0,8.973
		c0-0.52,0-1.04,0-1.561c0-2.211,0-4.421,0-6.632C34.484,70.59,34.484,70.331,34.484,70.07z"/>
	<path fill-rule="evenodd" clip-rule="evenodd" fill="#EAB654" d="M45.018,70.46c0,0.26,0,0.52,0,0.78c0,2.079,0,4.161,0,6.241
		C44.369,76.041,44.369,71.902,45.018,70.46z"/>
	<path fill-rule="evenodd" clip-rule="evenodd" fill="#D9A762" d="M15.759,71.241c2.217-0.648,7.146-0.648,9.362,0
		C22,71.241,18.88,71.241,15.759,71.241z"/>
	<path fill-rule="evenodd" clip-rule="evenodd" fill="#EAB654" d="M34.484,70.85c0,2.211,0,4.421,0,6.632
		C33.836,76.169,33.836,72.164,34.484,70.85z"/>
	<path fill-rule="evenodd" clip-rule="evenodd" fill="#EAB654" d="M43.066,71.241c0.819-0.285,0.195,4.215,0.39,5.852
		C42.637,77.377,43.262,72.878,43.066,71.241z"/>
	<path fill-rule="evenodd" clip-rule="evenodd" fill="#EAB654" d="M45.018,71.241c0.647,1.184,0.647,5.057,0,6.241
		C45.018,75.402,45.018,73.32,45.018,71.241z"/>
	<path fill-rule="evenodd" clip-rule="evenodd" fill="#C88E40" d="M75.446,78.653c-1.698,0.904-5.067,0.135-7.412,0.39
		C69.73,78.14,73.101,78.908,75.446,78.653z"/>
	<path fill-rule="evenodd" clip-rule="evenodd" fill="#EAB654" d="M56.331,79.433c2.605-0.65,7.926-0.65,10.532,0
		C63.354,79.433,59.842,79.433,56.331,79.433z"/>
	<path fill-rule="evenodd" clip-rule="evenodd" fill="#EAB654" d="M53.6,79.823c0-0.131,0-0.261,0-0.39c0.78,0,1.561,0,2.341,0
		c0.13,0,0.26,0,0.391,0c3.511,0,7.022,0,10.532,0c0.13,0,0.261,0,0.391,0c0,0.129,0,0.259,0,0.39
		C62.702,79.823,58.151,79.823,53.6,79.823z"/>
	<path fill-rule="evenodd" clip-rule="evenodd" fill="#D9A762" d="M23.171,57.977c0.484-0.816,1.134-1.467,1.95-1.951
		c-0.044,0.476-0.116,0.924-0.779,0.781c-0.193,1.224,1.344,1.029,0.39,1.949c-0.946,0.983,0.657-1.361-0.78-1.17
		C23.559,57.585,23.487,57.902,23.171,57.977z"/>
	<path fill-rule="evenodd" clip-rule="evenodd" fill="#D9A762" d="M14.979,66.95c1.545-2.228,3.361-4.181,5.462-5.852
		c-1.315,2.324-3.726,3.556-5.072,5.852C15.238,66.95,15.108,66.95,14.979,66.95z"/>
	<path fill-rule="evenodd" clip-rule="evenodd" fill="#EAD3B9" d="M6.396,75.533c1.138-1.464,2.438-2.766,3.901-3.902
		c-0.539,1.152-1.801,1.579-2.341,2.731C7.161,74.476,7.191,75.417,6.396,75.533z"/>
	<path fill-rule="evenodd" clip-rule="evenodd" fill="#C88E40" d="M41.116,41.982c-0.883,0.218,0.473,0.608-0.39,1.171
		c0.81-0.437,0.826-0.421,0.39,0.39c0.862-0.814,0.578,1.693,1.95,2.341c-0.189,0.694-0.415-0.169-0.78-0.391
		c-0.237,0.022-0.462,0.058-0.391,0.391c-0.588-0.339,0.108-0.584-0.39-1.56c-0.835,1.537-1.107-2.106-0.779-2.731
		C41.058,41.521,41.095,41.745,41.116,41.982z"/>
	<path fill-rule="evenodd" clip-rule="evenodd" fill="#B98339" d="M40.727,41.592c-0.328,0.625-0.056,4.269,0.779,2.731
		c0.498,0.976-0.198,1.221,0.39,1.56c-0.071-0.333,0.153-0.368,0.391-0.391c0.365,0.222,0.591,1.085,0.78,0.391
		c-1.372-0.647-1.088-3.155-1.95-2.341c0.437-0.811,0.42-0.826-0.39-0.39c0.862-0.563-0.493-0.953,0.39-1.171
		c4.083,3.979,8.023,8.1,11.703,12.484c-0.073,0.315-0.392,0.388-0.39,0.779c-1.36-0.114,0.032-1.056-0.781-1.17
		c-0.789,1.668,1.192,1.022,1.951,1.95c-0.113,1.89-0.154,3.159,1.17,1.171c-0.774,0.242-1.678-1.532,0-0.78
		c7.029,7.145,13.965,14.385,20.677,21.846c0.082,0.437,0.433,0.608,0.78,0.78c-2.216,0.906-6.108,0.135-8.973,0.391
		c0-2.73,0-5.462,0-8.192c-4.293-0.258-9.621,0.519-13.264-0.391c0.646-0.546,0.646-3.745,0-4.291
		c0.063-0.453-0.087-0.694-0.391-0.78c-4.681,0-9.362,0-14.044,0c0.642-6.641,0.655-15.987,0-22.626
		c0.451-1.059,0.188-0.973,0-2.341C39.671,39.883,40.611,41.246,40.727,41.592z M46.577,48.615c0.771,0.729,0.507,3.07,2.342,1.95
		C47.278,50.762,47.282,48.328,46.577,48.615z M62.962,65.779c0.846,1.265-0.047,0.729-0.39,1.171
		c0.899-0.119,0.434,1.127,1.17,1.17c-0.896-2.587,1.047,0.245,1.171-0.39C64.668,66.97,62.242,64.989,62.962,65.779z
		 M44.237,48.615c-0.088-0.303-0.012-0.77-0.391-0.78c-0.21,1.808,2.558,1.618,1.95,1.17c-0.596-0.252-1.284-2.517-1.17-1.562
		C45.063,48.005,45.047,48.395,44.237,48.615z M68.034,79.042c2.345-0.255,5.714,0.515,7.412-0.39
		C73.101,78.908,69.73,78.14,68.034,79.042z"/>
	<path fill-rule="evenodd" clip-rule="evenodd" fill="#C88E40" d="M48.919,50.565c-1.835,1.12-1.571-1.222-2.342-1.95
		C47.282,48.328,47.278,50.762,48.919,50.565z"/>
	<path fill-rule="evenodd" clip-rule="evenodd" fill="#C88E40" d="M54.77,56.417c-1.678-0.752-0.774,1.022,0,0.78
		c-1.324,1.988-1.283,0.719-1.17-1.171c-0.759-0.928-2.74-0.282-1.951-1.95c0.813,0.114-0.579,1.056,0.781,1.17
		c-0.002-0.392,0.316-0.464,0.39-0.779C53.635,54.95,54.285,55.6,54.77,56.417z"/>
	<path fill-rule="evenodd" clip-rule="evenodd" fill="#C88E40" d="M64.913,67.73c-0.124,0.635-2.067-2.197-1.171,0.39
		c-0.736-0.043-0.271-1.289-1.17-1.17c0.343-0.441,1.235,0.094,0.39-1.171C62.242,64.989,64.668,66.97,64.913,67.73z"/>
	<path fill-rule="evenodd" clip-rule="evenodd" fill="#EAB654" d="M55.94,79.433c0.065-0.847-1.384-0.177-1.95-0.391
		c0.302-4.854-0.527-8.576-0.391-13.264c0.304,0.086,0.453,0.327,0.391,0.78c0,1.431,0,2.86,0,4.291
		c3.643,0.909,8.971,0.133,13.264,0.391c0,2.73,0,5.462,0,8.192c-0.13,0-0.261,0-0.391,0c-2.606-0.65-7.927-0.65-10.532,0
		C56.2,79.433,56.07,79.433,55.94,79.433z"/>
	<path fill-rule="evenodd" clip-rule="evenodd" fill="#EAB654" d="M39.556,40.812c0.188,1.368,0.451,1.282,0,2.341
		c0,7.412,0,14.824,0,22.235c-4.682,0-9.363,0-14.044,0c0,0.261,0,0.521,0,0.78c0,0.521,0,1.041,0,1.562
		c-0.241,1.058,0.495,3.096-0.391,3.511c-2.217-0.648-7.146-0.648-9.362,0c-1.226,0.334-4.032-0.912-3.511,1.17
		c-0.903,1.567-0.136,4.806-0.391,7.022c-0.727,0.373-1.305-1.169-1.561,0c-0.131,0-0.26,0-0.39,0c-0.201-0.426-2.548,0.286-3.901,0
		c-0.131,0-0.26,0-0.391,0c-0.124-1.077-1.207-0.676-1.561,0c-0.903-1.313,2.286-1.862,2.341-3.511c0-0.131,0-0.262,0-0.39
		c0.796-0.116,0.766-1.057,1.561-1.171c1.264-0.846,0.729,0.048,1.171,0.39c-0.247-1.536,2.047-2.744,3.511-5.462
		c0.615-0.945,1.396-1.726,2.341-2.34c0.13,0,0.26,0,0.39,0c1.347-2.296,3.757-3.527,5.072-5.852
		c0.749-1.201,1.864-2.036,2.73-3.121c0.316-0.075,0.388-0.392,0.78-0.391c1.438-0.191-0.166,2.153,0.78,1.17
		c0.954-0.92-0.583-0.726-0.39-1.949c0.663,0.143,0.735-0.306,0.779-0.781C29.841,50.862,34.668,45.807,39.556,40.812z"/>
	<path fill-rule="evenodd" clip-rule="evenodd" fill="#D9A762" d="M39.556,43.153c0.655,6.639,0.642,15.985,0,22.626
		c-4.569,0.243-10.12-0.497-14.044,0.39c0-0.259,0-0.52,0-0.78c4.681,0,9.362,0,14.044,0C39.556,57.977,39.556,50.565,39.556,43.153
		z"/>
	<path fill-rule="evenodd" clip-rule="evenodd" fill="#EAB654" d="M25.512,67.73c0.855,3.071-0.511,7.287,0,11.313
		c-4.163,0.258-9.36-0.519-12.874,0.391c-0.13,0-0.26,0-0.39,0c0-2.341,0-4.682,0-7.022c-0.521-2.082,2.285-0.836,3.511-1.17
		c3.121,0,6.241,0,9.362,0C26.007,70.826,25.271,68.788,25.512,67.73z"/>
	<path fill-rule="evenodd" clip-rule="evenodd" fill="#D9A762" d="M7.956,74.362c0.54-1.152,1.802-1.579,2.341-2.731
		c0.615-0.945,1.396-1.727,2.341-2.341c-1.464,2.718-3.758,3.926-3.511,5.462C8.686,74.41,9.22,73.516,7.956,74.362z"/>
	<path fill-rule="evenodd" clip-rule="evenodd" fill="#C88E40" d="M44.627,47.443c-0.114-0.955,0.574,1.31,1.17,1.562
		c0.607,0.448-2.16,0.638-1.95-1.17c0.379,0.011,0.303,0.478,0.391,0.78C45.047,48.395,45.063,48.005,44.627,47.443z"/>
	<path fill-rule="evenodd" clip-rule="evenodd" fill="#EAB654" d="M48.528,79.433c0-3.642,0-7.282,0-10.923
		c-1.743,0.077-4.348-0.708-3.511,1.95c-0.648,1.441-0.648,5.58,0,7.021c0,0.65,0,1.3,0,1.951c-0.78,0-1.562,0-2.341,0
		c0-3.511,0-7.022,0-10.533c-1.18-0.901-4.024-0.139-5.852-0.39c0,3.641,0,7.281,0,10.923c-0.781,0-1.562,0-2.341,0
		c0-0.131,0-0.261,0-0.391c0.649-2.088,0.649-6.884,0-8.973c0-0.52,0-1.041,0-1.56c-1.041,0-2.081,0-3.121,0
		c-0.906,2.733-0.133,7.149-0.391,10.532c-0.554-0.034-1.104-0.065-1.17,0.391c-5.721,0-11.443,0-17.165,0
		c3.514-0.909,8.711-0.133,12.874-0.391c-0.511-4.025,0.855-8.241,0-11.313c0-0.521,0-1.041,0-1.562
		c3.924-0.887,9.475-0.146,14.044-0.39c4.682,0,9.363,0,14.044,0c-0.137,4.688,0.692,8.41,0.391,13.264
		c0.566,0.214,2.016-0.456,1.95,0.391c-0.78,0-1.561,0-2.341,0C51.909,79.433,50.219,79.433,48.528,79.433z M43.456,77.092
		c-0.194-1.637,0.43-6.137-0.39-5.852C43.262,72.878,42.637,77.377,43.456,77.092z"/>
	<path fill-rule="evenodd" clip-rule="evenodd" fill="#EAB886" d="M5.615,79.433c-0.168,0.872-1.922,0.157-2.73,0.39
		c0.757-1.714,2.145-2.798,3.511-3.9c-0.055,1.648-3.244,2.198-2.341,3.511C4.408,78.757,5.491,78.356,5.615,79.433z"/>
	<path fill-rule="evenodd" clip-rule="evenodd" fill="#D9A762" d="M12.248,79.823c-0.566-0.213-2.017,0.456-1.951-0.39
		c0.256-1.169,0.834,0.373,1.561,0c0.255-2.217-0.513-5.455,0.391-7.022c0,2.341,0,4.682,0,7.022
		C12.248,79.562,12.248,79.692,12.248,79.823z"/>
	<path fill-rule="evenodd" clip-rule="evenodd" fill="#EAB654" d="M12.638,79.433c5.722,0,11.444,0,17.165,0
		c1.561,0,3.121,0,4.682,0c0,0.129,0,0.259,0,0.39c-7.412,0-14.824,0-22.236,0c0-0.131,0-0.261,0-0.39
		C12.378,79.433,12.508,79.433,12.638,79.433z"/>
	<path fill-rule="evenodd" clip-rule="evenodd" fill="#EAB654" d="M34.484,79.433c0.779,0,1.56,0,2.341,0c1.95,0,3.901,0,5.852,0
		c0,0.129,0,0.259,0,0.39c-2.731,0-5.462,0-8.192,0C34.484,79.692,34.484,79.562,34.484,79.433z"/>
	<path fill-rule="evenodd" clip-rule="evenodd" fill="#D9A762" d="M67.254,79.433c2.864-0.256,6.757,0.516,8.973-0.391
		c-0.348-0.172-0.698-0.344-0.78-0.78c3.415,2.657-5.612,1.196-8.192,1.561C67.254,79.692,67.254,79.562,67.254,79.433z"/>
	<path fill-rule="evenodd" clip-rule="evenodd" fill="#EAB886" d="M9.907,79.433c-0.421,0.645-3.48,0.645-3.901,0
		C7.359,79.719,9.706,79.007,9.907,79.433z"/>
	<path fill-rule="evenodd" clip-rule="evenodd" fill="#EAB654" d="M48.528,79.433c1.69,0,3.381,0,5.071,0c0,0.129,0,0.259,0,0.39
		c-3.642,0-7.282,0-10.923,0c0-0.131,0-0.261,0-0.39c0.779,0,1.561,0,2.341,0C46.188,79.433,47.357,79.433,48.528,79.433z"/>
	<path fill-rule="evenodd" clip-rule="evenodd" fill="#EAB654" d="M29.803,79.433c0.066-0.456,0.616-0.425,1.17-0.391
		c0.258-3.383-0.516-7.799,0.391-10.532c1.04,0,2.08,0,3.121,0c0,0.519,0,1.04,0,1.56c0,0.261,0,0.521,0,0.78
		c-0.648,1.313-0.648,5.319,0,6.632c0,0.521,0,1.041,0,1.561c0,0.13,0,0.26,0,0.391C32.924,79.433,31.363,79.433,29.803,79.433z"/>
	<path fill-rule="evenodd" clip-rule="evenodd" fill="#EAB654" d="M36.825,79.433c0-3.642,0-7.282,0-10.923
		c1.827,0.251,4.672-0.512,5.852,0.39c0,3.511,0,7.022,0,10.533C40.727,79.433,38.775,79.433,36.825,79.433z"/>
	<path fill-rule="evenodd" clip-rule="evenodd" fill="#EAB654" d="M45.018,70.46c-0.837-2.658,1.768-1.873,3.511-1.95
		c0,3.641,0,7.281,0,10.923c-1.171,0-2.341,0-3.511,0c0-0.651,0-1.301,0-1.951c0.647-1.185,0.647-5.058,0-6.241
		C45.018,70.98,45.018,70.72,45.018,70.46z"/>
</g>
<g>
	<path fill-rule="evenodd" clip-rule="evenodd" fill="#C88E40" d="M84.909,87.512c1.048,0.886,1.048,6.075,0,6.962
		C84.909,92.153,84.909,89.833,84.909,87.512z"/>
	<path fill-rule="evenodd" clip-rule="evenodd" fill="#EAB654" d="M53.265,93.208c1.053,3.389,1.053,11.17,0,14.558
		c0-0.845,0-1.688,0-2.532c0-3.588,0-7.173,0-10.759C53.265,94.051,53.265,93.63,53.265,93.208z"/>
	<path fill-rule="evenodd" clip-rule="evenodd" fill="#EAB654" d="M70.353,93.841c0,0.421,0,0.844,0,1.266c0,3.374,0,6.751,0,10.126
		C69.301,102.894,69.301,96.18,70.353,93.841z"/>
	<path fill-rule="evenodd" clip-rule="evenodd" fill="#D9A762" d="M22.886,95.107c3.597-1.053,11.592-1.053,15.188,0
		C33.012,95.107,27.949,95.107,22.886,95.107z"/>
	<path fill-rule="evenodd" clip-rule="evenodd" fill="#EAB654" d="M53.265,94.474c0,3.586,0,7.171,0,10.759
		C52.213,103.103,52.213,96.604,53.265,94.474z"/>
	<path fill-rule="evenodd" clip-rule="evenodd" fill="#EAB654" d="M67.188,95.107c1.33-0.462,0.317,6.837,0.633,9.493
		C66.491,105.062,67.505,97.763,67.188,95.107z"/>
	<path fill-rule="evenodd" clip-rule="evenodd" fill="#EAB654" d="M70.353,95.107c1.051,1.921,1.051,8.204,0,10.126
		C70.353,101.858,70.353,98.481,70.353,95.107z"/>
	<path fill-rule="evenodd" clip-rule="evenodd" fill="#C88E40" d="M119.719,107.131c-2.754,1.467-8.221,0.22-12.025,0.634
		C110.446,106.299,115.913,107.546,119.719,107.131z"/>
	<path fill-rule="evenodd" clip-rule="evenodd" fill="#EAB654" d="M88.707,108.398c4.228-1.055,12.859-1.055,17.088,0
		C100.1,108.398,94.402,108.398,88.707,108.398z"/>
	<path fill-rule="evenodd" clip-rule="evenodd" fill="#EAB654" d="M84.275,109.03c0-0.212,0-0.423,0-0.632c1.266,0,2.532,0,3.798,0
		c0.211,0,0.422,0,0.634,0c5.695,0,11.393,0,17.088,0c0.21,0,0.421,0,0.633,0c0,0.209,0,0.42,0,0.632
		C99.044,109.03,91.66,109.03,84.275,109.03z"/>
	<path fill-rule="evenodd" clip-rule="evenodd" fill="#D9A762" d="M34.911,73.589c0.786-1.324,1.84-2.381,3.163-3.166
		c-0.071,0.772-0.188,1.498-1.265,1.267c-0.313,1.986,2.182,1.671,0.633,3.164c-1.536,1.595,1.067-2.208-1.266-1.898
		C35.541,72.954,35.424,73.467,34.911,73.589z"/>
	<path fill-rule="evenodd" clip-rule="evenodd" fill="#D9A762" d="M21.62,88.146c2.506-3.614,5.453-6.783,8.86-9.494
		c-2.134,3.772-6.044,5.769-8.229,9.494C22.042,88.146,21.831,88.146,21.62,88.146z"/>
	<path fill-rule="evenodd" clip-rule="evenodd" fill="#EAD3B9" d="M7.696,102.07c1.845-2.375,3.955-4.486,6.329-6.33
		c-0.875,1.868-2.922,2.562-3.798,4.43C8.938,100.356,8.986,101.882,7.696,102.07z"/>
	<path fill-rule="evenodd" clip-rule="evenodd" fill="#C88E40" d="M64.023,47.64c-1.431,0.354,0.768,0.986-0.633,1.899
		c1.314-0.708,1.342-0.684,0.633,0.632c1.399-1.321,0.939,2.748,3.164,3.798c-0.307,1.127-0.674-0.274-1.265-0.634
		c-0.386,0.037-0.75,0.094-0.634,0.634c-0.954-0.551,0.175-0.948-0.632-2.531c-1.355,2.495-1.798-3.417-1.267-4.431
		C63.93,46.892,63.988,47.253,64.023,47.64z"/>
	<path fill-rule="evenodd" clip-rule="evenodd" fill="#B98339" d="M63.391,47.007c-0.531,1.014-0.089,6.926,1.267,4.431
		c0.807,1.583-0.322,1.98,0.632,2.531c-0.116-0.54,0.248-0.597,0.634-0.634c0.591,0.359,0.958,1.761,1.265,0.634
		c-2.225-1.05-1.765-5.119-3.164-3.798c0.709-1.315,0.682-1.34-0.633-0.632c1.4-0.913-0.798-1.546,0.633-1.899
		c6.624,6.454,13.018,13.14,18.986,20.253c-0.119,0.512-0.635,0.629-0.632,1.265c-2.206-0.186,0.053-1.713-1.267-1.897
		c-1.28,2.706,1.934,1.657,3.164,3.163c-0.184,3.066-0.25,5.125,1.899,1.9c-1.257,0.392-2.722-2.487,0-1.267
		c11.403,11.591,22.655,23.336,33.544,35.442c0.133,0.708,0.701,0.985,1.266,1.266c-3.595,1.47-9.91,0.217-14.557,0.633
		c0-4.431,0-8.86,0-13.291c-6.965-0.419-15.608,0.841-21.519-0.633c1.048-0.887,1.048-6.076,0-6.962
		c0.102-0.735-0.141-1.126-0.634-1.267c-7.594,0-15.188,0-22.783,0c1.041-10.773,1.063-25.937,0-36.706
		c0.731-1.717,0.306-1.577,0-3.798C61.679,44.236,63.204,46.445,63.391,47.007z M72.884,58.4c1.25,1.183,0.823,4.98,3.798,3.164
		C74.021,61.883,74.027,57.934,72.884,58.4z M99.466,86.246c1.372,2.052-0.077,1.184-0.634,1.9c1.46-0.194,0.704,1.827,1.899,1.897
		c-1.455-4.196,1.697,0.398,1.898-0.632C102.232,88.18,98.297,84.964,99.466,86.246z M69.087,58.4
		c-0.143-0.491-0.018-1.249-0.633-1.266c-0.34,2.934,4.148,2.625,3.164,1.897c-0.967-0.408-2.084-4.082-1.898-2.532
		C70.428,57.412,70.401,58.043,69.087,58.4z M107.693,107.765c3.805-0.414,9.271,0.833,12.025-0.634
		C115.913,107.546,110.446,106.299,107.693,107.765z"/>
	<path fill-rule="evenodd" clip-rule="evenodd" fill="#C88E40" d="M76.682,61.564c-2.975,1.816-2.548-1.981-3.798-3.164
		C74.027,57.934,74.021,61.883,76.682,61.564z"/>
	<path fill-rule="evenodd" clip-rule="evenodd" fill="#C88E40" d="M86.175,71.057c-2.722-1.221-1.257,1.658,0,1.267
		c-2.149,3.225-2.083,1.166-1.899-1.9c-1.23-1.506-4.444-0.457-3.164-3.163c1.319,0.185-0.939,1.712,1.267,1.897
		c-0.003-0.636,0.513-0.753,0.632-1.265C84.334,68.677,85.388,69.733,86.175,71.057z"/>
	<path fill-rule="evenodd" clip-rule="evenodd" fill="#C88E40" d="M102.63,89.412c-0.201,1.03-3.354-3.564-1.898,0.632
		c-1.195-0.07-0.439-2.092-1.899-1.897c0.557-0.717,2.006,0.151,0.634-1.9C98.297,84.964,102.232,88.18,102.63,89.412z"/>
	<path fill-rule="evenodd" clip-rule="evenodd" fill="#EAB654" d="M88.073,108.398c0.106-1.374-2.245-0.286-3.164-0.633
		c0.489-7.875-0.854-13.914-0.634-21.52c0.493,0.141,0.735,0.531,0.634,1.267c0,2.32,0,4.641,0,6.962
		c5.91,1.474,14.554,0.214,21.519,0.633c0,4.431,0,8.86,0,13.291c-0.212,0-0.423,0-0.633,0c-4.229-1.055-12.86-1.055-17.088,0
		C88.495,108.398,88.284,108.398,88.073,108.398z"/>
	<path fill-rule="evenodd" clip-rule="evenodd" fill="#EAB654" d="M61.492,45.742c0.306,2.221,0.731,2.081,0,3.798
		c0,12.024,0,24.05,0,36.073c-7.595,0-15.189,0-22.784,0c0,0.422,0,0.845,0,1.267c0,0.844,0,1.687,0,2.532
		c-0.392,1.717,0.804,5.022-0.634,5.695c-3.597-1.053-11.592-1.053-15.188,0c-1.988,0.542-6.543-1.479-5.696,1.898
		c-1.465,2.543-0.22,7.796-0.633,11.393c-1.179,0.605-2.115-1.896-2.531,0c-0.212,0-0.422,0-0.633,0
		c-0.326-0.691-4.135,0.464-6.329,0c-0.212,0-0.421,0-0.633,0c-0.202-1.747-1.959-1.097-2.532,0
		c-1.467-2.129,3.708-3.021,3.798-5.696c0-0.212,0-0.423,0-0.632c1.29-0.188,1.241-1.714,2.531-1.9
		c2.051-1.372,1.184,0.078,1.899,0.634c-0.401-2.492,3.321-4.452,5.695-8.861c0.998-1.533,2.265-2.799,3.798-3.796
		c0.211,0,0.422,0,0.632,0c2.185-3.726,6.095-5.722,8.229-9.494c1.216-1.947,3.025-3.303,4.431-5.063
		c0.513-0.122,0.63-0.636,1.266-0.634c2.333-0.31-0.271,3.493,1.266,1.898c1.549-1.493-0.945-1.178-0.633-3.164
		c1.076,0.231,1.193-0.494,1.265-1.267C45.731,62.046,53.563,53.845,61.492,45.742z"/>
	<path fill-rule="evenodd" clip-rule="evenodd" fill="#D9A762" d="M61.492,49.54c1.063,10.77,1.041,25.933,0,36.706
		c-7.412,0.396-16.418-0.807-22.784,0.634c0-0.422,0-0.845,0-1.267c7.595,0,15.189,0,22.784,0
		C61.492,73.589,61.492,61.564,61.492,49.54z"/>
	<path fill-rule="evenodd" clip-rule="evenodd" fill="#EAB654" d="M38.708,89.412c1.388,4.982-0.829,11.822,0,18.354
		c-6.754,0.418-15.186-0.842-20.886,0.633c-0.211,0-0.422,0-0.633,0c0-3.798,0-7.595,0-11.393c-0.847-3.378,3.708-1.356,5.696-1.898
		c5.063,0,10.126,0,15.188,0C39.512,94.434,38.316,91.128,38.708,89.412z"/>
	<path fill-rule="evenodd" clip-rule="evenodd" fill="#D9A762" d="M10.228,100.169c0.876-1.868,2.923-2.562,3.798-4.43
		c0.998-1.534,2.265-2.801,3.797-3.798c-2.374,4.409-6.097,6.369-5.695,8.861C11.411,100.248,12.278,98.797,10.228,100.169z"/>
	<path fill-rule="evenodd" clip-rule="evenodd" fill="#C88E40" d="M69.72,56.5c-0.186-1.55,0.932,2.124,1.898,2.532
		c0.984,0.728-3.504,1.036-3.164-1.897c0.615,0.017,0.49,0.774,0.633,1.266C70.401,58.043,70.428,57.412,69.72,56.5z"/>
	<path fill-rule="evenodd" clip-rule="evenodd" fill="#EAB654" d="M76.049,108.398c0-5.908,0-11.814,0-17.721
		c-2.828,0.124-7.054-1.148-5.696,3.164c-1.052,2.339-1.052,9.053,0,11.392c0,1.055,0,2.108,0,3.165c-1.266,0-2.532,0-3.797,0
		c0-5.696,0-11.393,0-17.089c-1.915-1.461-6.528-0.224-9.494-0.632c0,5.906,0,11.813,0,17.721c-1.267,0-2.532,0-3.797,0
		c0-0.212,0-0.423,0-0.633c1.053-3.388,1.053-11.169,0-14.558c0-0.844,0-1.688,0-2.53c-1.688,0-3.376,0-5.063,0
		c-1.471,4.435-0.215,11.599-0.633,17.088c-0.898-0.056-1.792-0.106-1.898,0.633c-9.282,0-18.566,0-27.848,0
		c5.7-1.475,14.132-0.215,20.886-0.633c-0.829-6.531,1.388-13.371,0-18.354c0-0.846,0-1.688,0-2.532
		c6.366-1.44,15.372-0.238,22.784-0.634c7.595,0,15.189,0,22.783,0c-0.221,7.605,1.123,13.645,0.634,21.52
		c0.919,0.347,3.271-0.741,3.164,0.633c-1.266,0-2.532,0-3.798,0C81.533,108.398,78.792,108.398,76.049,108.398z M67.82,104.6
		c-0.315-2.656,0.697-9.955-0.633-9.493C67.505,97.763,66.491,105.062,67.82,104.6z"/>
	<path fill-rule="evenodd" clip-rule="evenodd" fill="#EAB886" d="M6.431,108.398c-0.273,1.415-3.119,0.255-4.431,0.632
		c1.229-2.78,3.479-4.538,5.696-6.328c-0.09,2.675-5.265,3.567-3.798,5.696C4.472,107.301,6.229,106.651,6.431,108.398z"/>
	<path fill-rule="evenodd" clip-rule="evenodd" fill="#D9A762" d="M17.189,109.03c-0.919-0.345-3.271,0.74-3.164-0.632
		c0.416-1.896,1.353,0.605,2.531,0c0.413-3.597-0.832-8.85,0.633-11.393c0,3.798,0,7.595,0,11.393
		C17.189,108.607,17.189,108.818,17.189,109.03z"/>
	<path fill-rule="evenodd" clip-rule="evenodd" fill="#EAB654" d="M17.822,108.398c9.281,0,18.565,0,27.848,0
		c2.531,0,5.063,0,7.595,0c0,0.209,0,0.42,0,0.632c-12.024,0-24.05,0-36.075,0c0-0.212,0-0.423,0-0.632
		C17.4,108.398,17.611,108.398,17.822,108.398z"/>
	<path fill-rule="evenodd" clip-rule="evenodd" fill="#EAB654" d="M53.265,108.398c1.265,0,2.53,0,3.797,0c3.165,0,6.329,0,9.494,0
		c0,0.209,0,0.42,0,0.632c-4.432,0-8.861,0-13.291,0C53.265,108.818,53.265,108.607,53.265,108.398z"/>
	<path fill-rule="evenodd" clip-rule="evenodd" fill="#D9A762" d="M106.428,108.398c4.646-0.416,10.962,0.837,14.557-0.633
		c-0.564-0.28-1.133-0.558-1.266-1.266c5.539,4.31-9.104,1.939-13.291,2.53C106.428,108.818,106.428,108.607,106.428,108.398z"/>
	<path fill-rule="evenodd" clip-rule="evenodd" fill="#EAB886" d="M13.393,108.398c-0.683,1.046-5.646,1.046-6.329,0
		C9.258,108.862,13.066,107.707,13.393,108.398z"/>
	<path fill-rule="evenodd" clip-rule="evenodd" fill="#EAB654" d="M76.049,108.398c2.743,0,5.484,0,8.227,0c0,0.209,0,0.42,0,0.632
		c-5.907,0-11.813,0-17.72,0c0-0.212,0-0.423,0-0.632c1.265,0,2.531,0,3.797,0C72.252,108.398,74.149,108.398,76.049,108.398z"/>
	<path fill-rule="evenodd" clip-rule="evenodd" fill="#EAB654" d="M45.67,108.398c0.106-0.739,1-0.688,1.898-0.633
		c0.418-5.489-0.838-12.653,0.633-17.088c1.688,0,3.376,0,5.063,0c0,0.842,0,1.687,0,2.53c0,0.423,0,0.844,0,1.267
		c-1.052,2.13-1.052,8.629,0,10.759c0,0.845,0,1.688,0,2.532c0,0.21,0,0.421,0,0.633C50.732,108.398,48.201,108.398,45.67,108.398z"
		/>
	<path fill-rule="evenodd" clip-rule="evenodd" fill="#EAB654" d="M57.062,108.398c0-5.908,0-11.814,0-17.721
		c2.966,0.408,7.579-0.829,9.494,0.632c0,5.696,0,11.393,0,17.089C63.391,108.398,60.227,108.398,57.062,108.398z"/>
	<path fill-rule="evenodd" clip-rule="evenodd" fill="#EAB654" d="M70.353,93.841c-1.357-4.313,2.868-3.04,5.696-3.164
		c0,5.906,0,11.813,0,17.721c-1.899,0-3.797,0-5.696,0c0-1.057,0-2.11,0-3.165c1.051-1.922,1.051-8.205,0-10.126
		C70.353,94.685,70.353,94.262,70.353,93.841z"/>
</g>
<g>
	<path fill-rule="evenodd" clip-rule="evenodd" fill="#C88E40" d="M128.487,109.434c1.535,1.298,1.535,8.9,0,10.199
		C128.487,116.233,128.487,112.833,128.487,109.434z"/>
	<path fill-rule="evenodd" clip-rule="evenodd" fill="#934B23" d="M82.13,117.778c1.543,4.964,1.543,16.363,0,21.326
		c0-1.237,0-2.473,0-3.709c0-5.256,0-10.508,0-15.762C82.13,119.014,82.13,118.397,82.13,117.778z"/>
	<path fill-rule="evenodd" clip-rule="evenodd" fill="#934B23" d="M107.163,118.707c0,0.617,0,1.235,0,1.854
		c0,4.942,0,9.89,0,14.834C105.622,131.968,105.622,122.132,107.163,118.707z"/>
	<path fill-rule="evenodd" clip-rule="evenodd" fill="#D9A762" d="M37.627,120.561c5.27-1.543,16.981-1.543,22.251,0
		C52.461,120.561,45.044,120.561,37.627,120.561z"/>
	<path fill-rule="evenodd" clip-rule="evenodd" fill="#541407" d="M82.13,119.633c0,5.254,0,10.506,0,15.762
		C80.589,132.275,80.589,122.753,82.13,119.633z"/>
	<path fill-rule="evenodd" clip-rule="evenodd" fill="#934B23" d="M102.527,120.561c1.948-0.677,0.464,10.016,0.927,13.906
		C101.507,135.144,102.991,124.452,102.527,120.561z"/>
	<path fill-rule="evenodd" clip-rule="evenodd" fill="#541407" d="M107.163,120.561c1.54,2.813,1.54,12.019,0,14.834
		C107.163,130.451,107.163,125.503,107.163,120.561z"/>
	<path fill-rule="evenodd" clip-rule="evenodd" fill="#C88E40" d="M179.481,138.176c-4.034,2.147-12.042,0.321-17.616,0.928
		C165.898,136.957,173.906,138.784,179.481,138.176z"/>
	<path fill-rule="evenodd" clip-rule="evenodd" fill="#6D3720" d="M134.051,140.031c6.193-1.545,18.839-1.545,25.034,0
		C150.74,140.031,142.395,140.031,134.051,140.031z"/>
	<path fill-rule="evenodd" clip-rule="evenodd" fill="#AF875F" d="M127.56,140.957c0-0.31,0-0.619,0-0.926c1.854,0,3.709,0,5.563,0
		c0.31,0,0.618,0,0.928,0c8.344,0,16.689,0,25.034,0c0.307,0,0.616,0,0.926,0c0,0.307,0,0.616,0,0.926
		C149.194,140.957,138.377,140.957,127.56,140.957z"/>
	<path fill-rule="evenodd" clip-rule="evenodd" fill="#D9A762" d="M55.243,89.039c1.151-1.94,2.695-3.488,4.635-4.638
		c-0.104,1.131-0.276,2.194-1.854,1.854c-0.458,2.911,3.196,2.448,0.927,4.636c-2.249,2.336,1.564-3.234-1.854-2.781
		C56.167,88.108,55.994,88.86,55.243,89.039z"/>
	<path fill-rule="evenodd" clip-rule="evenodd" fill="#D9A762" d="M35.772,110.363c3.671-5.294,7.989-9.937,12.98-13.908
		c-3.126,5.526-8.854,8.451-12.054,13.908C36.391,110.363,36.082,110.363,35.772,110.363z"/>
	<path fill-rule="evenodd" clip-rule="evenodd" fill="#EAD3B9" d="M15.375,130.76c2.702-3.479,5.794-6.571,9.271-9.272
		c-1.281,2.736-4.28,3.753-5.563,6.489C17.193,128.25,17.266,130.486,15.375,130.76z"/>
	<path fill-rule="evenodd" clip-rule="evenodd" fill="#C88E40" d="M97.892,51.024c-2.096,0.519,1.124,1.445-0.927,2.783
		c1.926-1.038,1.965-1.001,0.927,0.926c2.05-1.936,1.376,4.025,4.636,5.563c-0.449,1.65-0.988-0.402-1.854-0.929
		c-0.565,0.054-1.099,0.138-0.928,0.929c-1.398-0.808,0.255-1.389-0.927-3.709c-1.985,3.655-2.634-5.005-1.854-6.49
		C97.754,49.928,97.84,50.458,97.892,51.024z"/>
	<path fill-rule="evenodd" clip-rule="evenodd" fill="#B98339" d="M96.965,50.097c-0.779,1.485-0.131,10.146,1.854,6.49
		c1.182,2.32-0.472,2.901,0.927,3.709c-0.171-0.791,0.362-0.875,0.928-0.929c0.865,0.526,1.404,2.579,1.854,0.929
		c-3.26-1.538-2.586-7.499-4.636-5.563c1.038-1.927,0.999-1.964-0.927-0.926c2.051-1.338-1.169-2.265,0.927-2.783
		c9.704,9.456,19.07,19.25,27.814,29.67c-0.175,0.75-0.931,0.922-0.927,1.853c-3.231-0.272,0.078-2.509-1.854-2.78
		c-1.876,3.965,2.832,2.429,4.635,4.635c-0.269,4.491-0.367,7.507,2.782,2.783c-1.842,0.574-3.986-3.644,0-1.854
		c16.705,16.979,33.188,34.185,49.14,51.92c0.195,1.038,1.028,1.443,1.854,1.854c-5.266,2.153-14.518,0.317-21.325,0.927
		c0-6.49,0-12.979,0-19.47c-10.202-0.614-22.865,1.231-31.523-0.928c1.535-1.299,1.535-8.901,0-10.199
		c0.149-1.077-0.205-1.649-0.928-1.854c-11.125,0-22.251,0-33.377,0c1.525-15.783,1.559-37.996,0-53.772
		c1.072-2.516,0.448-2.311,0-5.564C94.456,46.038,96.691,49.274,96.965,50.097z M110.871,66.787
		c1.831,1.733,1.207,7.297,5.563,4.635C112.536,71.889,112.547,66.104,110.871,66.787z M149.813,107.58
		c2.01,3.006-0.113,1.733-0.928,2.783c2.138-0.284,1.031,2.678,2.782,2.78c-2.132-6.147,2.486,0.584,2.781-0.926
		C153.865,110.414,148.101,105.702,149.813,107.58z M105.309,66.787c-0.208-0.72-0.025-1.829-0.927-1.854
		c-0.498,4.298,6.077,3.846,4.636,2.78c-1.416-0.598-3.054-5.98-2.781-3.709C107.273,65.339,107.235,66.265,105.309,66.787z
		 M161.865,139.104c5.574-0.606,13.582,1.22,17.616-0.928C173.906,138.784,165.898,136.957,161.865,139.104z"/>
	<path fill-rule="evenodd" clip-rule="evenodd" fill="#C88E40" d="M116.435,71.421c-4.356,2.662-3.732-2.901-5.563-4.635
		C112.547,66.104,112.536,71.889,116.435,71.421z"/>
	<path fill-rule="evenodd" clip-rule="evenodd" fill="#C88E40" d="M130.342,85.33c-3.986-1.789-1.842,2.429,0,1.854
		c-3.149,4.724-3.051,1.708-2.782-2.783c-1.803-2.206-6.511-0.67-4.635-4.635c1.933,0.271-1.377,2.508,1.854,2.78
		c-0.004-0.931,0.752-1.103,0.927-1.853C127.646,81.843,129.189,83.389,130.342,85.33z"/>
	<path fill-rule="evenodd" clip-rule="evenodd" fill="#C88E40" d="M154.448,112.217c-0.295,1.51-4.913-5.222-2.781,0.926
		c-1.751-0.103-0.645-3.064-2.782-2.78c0.814-1.05,2.938,0.223,0.928-2.783C148.101,105.702,153.865,110.414,154.448,112.217z"/>
	<path fill-rule="evenodd" clip-rule="evenodd" fill="#934B23" d="M133.123,140.031c0.156-2.013-3.289-0.419-4.636-0.927
		c0.718-11.536-1.251-20.384-0.928-31.524c0.723,0.205,1.077,0.777,0.928,1.854c0,3.399,0,6.799,0,10.199
		c8.658,2.159,21.321,0.313,31.523,0.928c0,6.49,0,12.979,0,19.47c-0.31,0-0.619,0-0.926,0c-6.195-1.545-18.841-1.545-25.034,0
		C133.741,140.031,133.433,140.031,133.123,140.031z"/>
	<path fill-rule="evenodd" clip-rule="evenodd" fill="#EAB654" d="M94.183,48.243c0.448,3.254,1.072,3.049,0,5.564
		c0,17.614,0,35.231,0,52.846c-11.125,0-22.251,0-33.377,0c0,0.617,0,1.236,0,1.855c0,1.235,0,2.471,0,3.709
		c-0.574,2.515,1.177,7.357-0.928,8.344c-5.27-1.543-16.981-1.543-22.251,0c-2.912,0.794-9.585-2.168-8.345,2.781
		c-2.146,3.725-0.322,11.42-0.927,16.688c-1.728,0.887-3.099-2.778-3.709,0c-0.31,0-0.617,0-0.927,0
		c-0.478-1.013-6.058,0.68-9.271,0c-0.31,0-0.617,0-0.927,0c-0.296-2.56-2.87-1.605-3.709,0c-2.149-3.118,5.432-4.426,5.563-8.345
		c0-0.31,0-0.619,0-0.926c1.891-0.274,1.818-2.511,3.709-2.783c3.004-2.011,1.733,0.114,2.781,0.929
		c-0.587-3.651,4.866-6.522,8.345-12.982c1.462-2.245,3.317-4.1,5.563-5.561c0.31,0,0.618,0,0.927,0
		c3.199-5.457,8.928-8.382,12.054-13.908c1.781-2.853,4.433-4.838,6.49-7.416c0.751-0.179,0.924-0.931,1.854-0.929
		c3.418-0.453-0.396,5.117,1.854,2.781c2.27-2.188-1.385-1.725-0.927-4.636c1.577,0.34,1.749-0.724,1.854-1.854
		C71.095,72.128,82.566,60.115,94.183,48.243z"/>
	<path fill-rule="evenodd" clip-rule="evenodd" fill="#D9A762" d="M94.183,53.807c1.559,15.776,1.525,37.989,0,53.772
		c-10.857,0.579-24.051-1.183-33.377,0.929c0-0.619,0-1.238,0-1.855c11.126,0,22.252,0,33.377,0
		C94.183,89.039,94.183,71.421,94.183,53.807z"/>
	<path fill-rule="evenodd" clip-rule="evenodd" fill="#934B23" d="M60.806,112.217c2.033,7.299-1.214,17.319,0,26.887
		c-9.895,0.612-22.246-1.232-30.596,0.927c-0.31,0-0.618,0-0.928,0c0-5.563,0-11.125,0-16.688c-1.24-4.949,5.433-1.987,8.345-2.781
		c7.417,0,14.834,0,22.251,0C61.982,119.575,60.231,114.732,60.806,112.217z"/>
	<path fill-rule="evenodd" clip-rule="evenodd" fill="#D9A762" d="M19.084,127.977c1.282-2.736,4.281-3.753,5.563-6.489
		c1.463-2.248,3.318-4.103,5.563-5.564c-3.479,6.46-8.932,9.331-8.345,12.982C20.817,128.091,22.088,125.966,19.084,127.977z"/>
	<path fill-rule="evenodd" clip-rule="evenodd" fill="#C88E40" d="M106.236,64.003c-0.272-2.271,1.365,3.111,2.781,3.709
		c1.441,1.065-5.134,1.518-4.636-2.78c0.901,0.025,0.719,1.135,0.927,1.854C107.235,66.265,107.273,65.339,106.236,64.003z"/>
	<path fill-rule="evenodd" clip-rule="evenodd" fill="#6D3720" d="M115.508,140.031c0-8.654,0-17.308,0-25.959
		c-4.144,0.182-10.333-1.683-8.345,4.635c-1.541,3.426-1.541,13.262,0,16.688c0,1.545,0,3.088,0,4.636c-1.854,0-3.709,0-5.563,0
		c0-8.345,0-16.688,0-25.033c-2.805-2.141-9.563-0.328-13.908-0.926c0,8.651,0,17.305,0,25.959c-1.854,0-3.709,0-5.563,0
		c0-0.31,0-0.619,0-0.927c1.543-4.963,1.543-16.362,0-21.326c0-1.235,0-2.473,0-3.706c-2.472,0-4.945,0-7.417,0
		c-2.155,6.496-0.314,16.991-0.927,25.032c-1.317-0.081-2.626-0.155-2.782,0.927c-13.597,0-27.197,0-40.794,0
		c8.35-2.159,20.701-0.314,30.596-0.927c-1.214-9.567,2.033-19.588,0-26.887c0-1.238,0-2.474,0-3.709
		c9.326-2.111,22.52-0.35,33.377-0.929c11.126,0,22.252,0,33.377,0c-0.323,11.141,1.646,19.988,0.928,31.524
		c1.347,0.508,4.792-1.086,4.636,0.927c-1.854,0-3.709,0-5.563,0C123.542,140.031,119.526,140.031,115.508,140.031z
		 M103.454,134.467c-0.463-3.891,1.021-14.583-0.927-13.906C102.991,124.452,101.507,135.144,103.454,134.467z"/>
	<path fill-rule="evenodd" clip-rule="evenodd" fill="#EAB886" d="M13.521,140.031c-0.4,2.073-4.569,0.374-6.491,0.926
		c1.801-4.072,5.096-6.647,8.345-9.271c-0.131,3.919-7.712,5.227-5.563,8.345C10.651,138.425,13.226,137.471,13.521,140.031z"/>
	<path fill-rule="evenodd" clip-rule="evenodd" fill="#D9A762" d="M29.282,140.957c-1.347-0.505-4.791,1.085-4.636-0.926
		c0.61-2.778,1.981,0.887,3.709,0c0.604-5.269-1.219-12.964,0.927-16.688c0,5.563,0,11.125,0,16.688
		C29.282,140.337,29.282,140.647,29.282,140.957z"/>
	<path fill-rule="evenodd" clip-rule="evenodd" fill="#AF875F" d="M30.21,140.031c13.597,0,27.197,0,40.794,0
		c3.709,0,7.417,0,11.126,0c0,0.307,0,0.616,0,0.926c-17.615,0-35.231,0-52.848,0c0-0.31,0-0.619,0-0.926
		C29.592,140.031,29.9,140.031,30.21,140.031z"/>
	<path fill-rule="evenodd" clip-rule="evenodd" fill="#666A62" d="M82.13,140.031c1.854,0,3.708,0,5.563,0c4.637,0,9.272,0,13.908,0
		c0,0.307,0,0.616,0,0.926c-6.491,0-12.98,0-19.471,0C82.13,140.647,82.13,140.337,82.13,140.031z"/>
	<path fill-rule="evenodd" clip-rule="evenodd" fill="#D9A762" d="M160.011,140.031c6.808-0.609,16.06,1.227,21.325-0.927
		c-0.826-0.411-1.659-0.816-1.854-1.854c8.115,6.313-13.337,2.842-19.471,3.707C160.011,140.647,160.011,140.337,160.011,140.031z"
		/>
	<path fill-rule="evenodd" clip-rule="evenodd" fill="#EAB886" d="M23.72,140.031c-1,1.533-8.271,1.533-9.271,0
		C17.662,140.71,23.242,139.018,23.72,140.031z"/>
	<path fill-rule="evenodd" clip-rule="evenodd" fill="#92704C" d="M115.508,140.031c4.019,0,8.034,0,12.052,0
		c0,0.307,0,0.616,0,0.926c-8.653,0-17.305,0-25.959,0c0-0.31,0-0.619,0-0.926c1.854,0,3.708,0,5.563,0
		C109.945,140.031,112.726,140.031,115.508,140.031z"/>
	<path fill-rule="evenodd" clip-rule="evenodd" fill="#1F0B05" d="M71.004,140.031c0.156-1.082,1.465-1.008,2.782-0.927
		c0.612-8.041-1.229-18.536,0.927-25.032c2.472,0,4.945,0,7.417,0c0,1.233,0,2.471,0,3.706c0,0.619,0,1.236,0,1.855
		c-1.541,3.12-1.541,12.642,0,15.762c0,1.236,0,2.472,0,3.709c0,0.308,0,0.617,0,0.927
		C78.421,140.031,74.713,140.031,71.004,140.031z"/>
	<path fill-rule="evenodd" clip-rule="evenodd" fill="#1F0B05" d="M87.692,140.031c0-8.654,0-17.308,0-25.959
		c4.345,0.598,11.104-1.215,13.908,0.926c0,8.345,0,16.688,0,25.033C96.965,140.031,92.329,140.031,87.692,140.031z"/>
	<path fill-rule="evenodd" clip-rule="evenodd" fill="#1F0B05" d="M107.163,118.707c-1.988-6.317,4.201-4.453,8.345-4.635
		c0,8.651,0,17.305,0,25.959c-2.782,0-5.563,0-8.345,0c0-1.548,0-3.091,0-4.636c1.54-2.815,1.54-12.021,0-14.834
		C107.163,119.942,107.163,119.324,107.163,118.707z"/>
</g>
</svg>
