<?xml version="1.0" encoding="utf-8"?>
<!-- Generator: Adobe Illustrator 14.0.0, SVG Export Plug-In . SVG Version: 6.00 Build 43363)  -->
<!DOCTYPE svg PUBLIC "-//W3C//DTD SVG 1.1//EN" "http://www.w3.org/Graphics/SVG/1.1/DTD/svg11.dtd">
<svg version="1.1" id="Layer_1" xmlns="http://www.w3.org/2000/svg" xmlns:xlink="http://www.w3.org/1999/xlink" x="0px" y="0px"
	 width="183.507px" height="183.506px" viewBox="0 0 183.507 183.506" enable-background="new 0 0 183.507 183.506"
	 xml:space="preserve">
<g>
	<path fill-rule="evenodd" clip-rule="evenodd" fill="#EAB886" d="M20.793,80.901c1.793,2.098,0.276,7.506,0.778,10.895
		C19.777,89.698,21.295,84.29,20.793,80.901z"/>
	<path fill-rule="evenodd" clip-rule="evenodd" fill="#AF875F" d="M105.618,88.683c-9.856,0-19.715,0-29.572,0
		c-1.687,0.131-0.353-2.76-0.778-3.891c7.302-3.593,21.243-0.547,31.129-1.556C105.167,85.433,107.292,86.541,105.618,88.683z"/>
	<path fill-rule="evenodd" clip-rule="evenodd" fill="#AF875F" d="M62.038,89.461c0-0.519,0-1.038,0-1.556
		c2.537-0.756,7.141,0.458,11.674,0C71.67,90.627,67.348,88.818,62.038,89.461z"/>
	<path fill-rule="evenodd" clip-rule="evenodd" fill="#AF875F" d="M119.626,87.905c0,0.519,0,1.038,0,1.556
		c-4.242-0.167-9.355,0.536-12.451-0.778C109.478,86.222,114.506,88.737,119.626,87.905z"/>
	<path fill-rule="evenodd" clip-rule="evenodd" fill="#EAD3B9" d="M167.098,87.905c0.26,0,0.518,0,0.777,0c0,2.594,0,5.188,0,7.783
		C166.101,94.608,167.585,90.271,167.098,87.905z"/>
	<path fill-rule="evenodd" clip-rule="evenodd" fill="#EAB886" d="M69.82,95.688c-1.297,0-2.595,0-3.891,0
		c-0.506-2.841,0.524-4.146,1.556-5.448c0.995,0.042,1.078,0.998,2.335,0.778C69.82,92.575,69.82,94.131,69.82,95.688z"/>
	<path fill-rule="evenodd" clip-rule="evenodd" fill="#EAB886" d="M115.735,95.688c-1.297,0-2.595,0-3.892,0
		C110.041,89.693,117.538,89.693,115.735,95.688z"/>
	<path fill-rule="evenodd" clip-rule="evenodd" fill="#EAB886" d="M147.642,91.018c0.261,0,0.519,0,0.778,0
		c0,3.372,0,6.744,0,10.117C146.63,99.293,148.142,94.151,147.642,91.018z"/>
	<path fill-rule="evenodd" clip-rule="evenodd" fill="#F1EFEA" d="M38.691,92.575c1.794,2.098,0.277,7.506,0.778,10.895
		c-0.474-0.044-0.921-0.116-0.778-0.777C38.691,99.319,38.691,95.947,38.691,92.575z"/>
	<path fill-rule="evenodd" clip-rule="evenodd" fill="#EAD3B9" d="M13.789,98.022c1.288,0.839,1.288,6.943,0,7.782
		C13.789,103.209,13.789,100.616,13.789,98.022z"/>
	<path fill-rule="evenodd" clip-rule="evenodd" fill="#EAB886" d="M167.098,99.579c1.785,1.586,0.281,6.463,0.777,9.338
		C166.09,107.331,167.595,102.454,167.098,99.579z"/>
	<path fill-rule="evenodd" clip-rule="evenodd" fill="#EAB886" d="M57.369,114.364c-1.557,0-3.113,0-4.67,0
		c-1.524-3.377-1.336-10.979,1.557-12.451C59.312,101.708,58.748,110.663,57.369,114.364z"/>
	<path fill-rule="evenodd" clip-rule="evenodd" fill="#EAB886" d="M128.965,102.692c0.94,2.721,1.448,9.047,0,11.672
		c-1.557,0-3.113,0-4.669,0C122.486,110.178,122.794,98.987,128.965,102.692z"/>
	<path fill-rule="evenodd" clip-rule="evenodd" fill="#D9A762" d="M118.069,104.248c1.782,1.332,0.286,5.94,0.778,8.561
		C117.066,111.476,118.563,106.868,118.069,104.248z"/>
	<path fill-rule="evenodd" clip-rule="evenodd" fill="#D9A762" d="M62.816,112.808c0.488-2.366-0.996-6.703,0.778-7.782
		C63.106,107.391,64.591,111.729,62.816,112.808z"/>
	<path fill-rule="evenodd" clip-rule="evenodd" fill="#EAD3B9" d="M159.315,125.26c0-3.373,0-6.745,0-10.117
		c0.474,0.043,0.921,0.115,0.778,0.777C159.597,118.796,161.102,123.672,159.315,125.26z"/>
	<path fill-rule="evenodd" clip-rule="evenodd" fill="#EAB886" d="M58.147,128.372c-2.075,0-4.151,0-6.226,0
		c0.047-5.141-0.994-11.369,3.112-12.451C59.276,116.868,58.003,123.329,58.147,128.372z"/>
	<path fill-rule="evenodd" clip-rule="evenodd" fill="#EAB886" d="M129.743,128.372c-2.075,0-4.151,0-6.226,0
		c-0.092-5.02-0.488-10.344,2.334-12.451C130.877,116.342,129.602,123.066,129.743,128.372z"/>
	<path fill-rule="evenodd" clip-rule="evenodd" fill="#F1EFEA" d="M13.789,117.477c-0.502,3.389,1.016,8.797-0.778,10.895
		C13.513,124.983,11.995,119.575,13.789,117.477z"/>
	<path fill-rule="evenodd" clip-rule="evenodd" fill="#EAB886" d="M38.691,119.034c-0.143-0.662,0.305-0.734,0.778-0.778
		c0,2.595,0,5.188,0,7.782C37.704,125.209,39.174,121.145,38.691,119.034z"/>
	<path fill-rule="evenodd" clip-rule="evenodd" fill="#B0B1B1" d="M22.35,128.372c3.372,0,6.744,0,10.116,0c0,0.26,0,0.52,0,0.779
		C29.334,128.651,24.191,130.163,22.35,128.372z"/>
	<path fill-rule="evenodd" clip-rule="evenodd" fill="#B0B1B1" d="M39.47,128.372c3.632,0,7.265,0,10.896,0
		C48.515,129.665,41.32,129.665,39.47,128.372z"/>
	<path fill-rule="evenodd" clip-rule="evenodd" fill="#B0B1B1" d="M132.078,128.372c3.372,0,6.743,0,10.116,0
		C140.599,129.663,133.674,129.663,132.078,128.372z"/>
	<path fill-rule="evenodd" clip-rule="evenodd" fill="#B0B1B1" d="M149.198,128.372c3.373,0,6.744,0,10.117,0
		C157.719,129.663,150.794,129.663,149.198,128.372z"/>
	<path fill-rule="evenodd" clip-rule="evenodd" fill="#EAD3B9" d="M38.691,105.804c0.758-0.021,0.604-0.952,0.778-1.557
		c0.853,1.665-0.572,7.702,0,11.673c-0.474-0.043-0.921-0.115-0.778-0.777C38.691,112.03,38.691,108.917,38.691,105.804z"/>
	<path fill-rule="evenodd" clip-rule="evenodd" fill="#F1EFEA" d="M148.42,105.804c0.662,0.144,0.734-0.304,0.778-0.778
		c0.095,0.398,0.604,7.833-0.778,9.338C148.42,111.511,148.42,108.657,148.42,105.804z"/>
	<path fill-rule="evenodd" clip-rule="evenodd" fill="#EAD3B9" d="M128.965,89.461c0-1.556,0-3.113,0-4.669
		c2.792,0.062,0.618,5.088,2.335,6.226C130.188,90.832,129.987,89.736,128.965,89.461z"/>
	<path fill-rule="evenodd" clip-rule="evenodd" fill="#EAD3B9" d="M126.63,92.575c0-1.816,0-3.632,0-5.448
		c2.149-0.333,0.73,2.901,2.335,3.113c-0.07,1.227-1.985,0.609-1.557,2.335C127.148,92.575,126.89,92.575,126.63,92.575z"/>
	<path fill-rule="evenodd" clip-rule="evenodd" fill="#F1EFEA" d="M121.183,88.683c3.716-0.603-0.192,6.419,2.335,7.005
		c-0.044,0.475-0.116,0.921-0.778,0.777c-0.26,0-0.519,0-0.778,0c0-2.075,0-4.15,0-6.226
		C121.813,89.609,121.18,89.464,121.183,88.683z"/>
	<path fill-rule="evenodd" clip-rule="evenodd" fill="#D9A762" d="M86.163,55.22c0.655-2.198,3.563-2.145,3.891-4.669
		c2.875,1.795,5.438,3.902,7.782,6.226C96.888,55.51,84.466,58.823,86.163,55.22z"/>
	<path fill-rule="evenodd" clip-rule="evenodd" fill="#AF875F" d="M83.05,57.555c1.587-0.229,1.526-2.105,3.113-2.334
		c-1.697,3.603,10.725,0.29,11.673,1.556c0.662-0.143,0.734,0.304,0.778,0.778C96.571,57.63,85.093,57.63,83.05,57.555z"/>
	<path fill-rule="evenodd" clip-rule="evenodd" fill="#AF875F" d="M72.155,77.01c12.065-0.211,30.21,0.304,37.354,0
		c0,0.778,0,1.556,0,2.334c-12.191,0-24.385,0-36.576,0C72.521,78.719,72.122,78.081,72.155,77.01z"/>
	<path fill-rule="evenodd" clip-rule="evenodd" fill="#AF875F" d="M15.346,73.897c-2.093-3.723,1.265-5.743,2.334-8.561
		c1.816,1.399,4.23,5.125,3.113,7.004c-1.557,0-3.113,0-4.669,0c0,0.519,0,1.038,0,1.557C15.863,73.897,15.605,73.897,15.346,73.897
		z"/>
	<path fill-rule="evenodd" clip-rule="evenodd" fill="#D9A762" d="M160.871,72.341c2.075,0,4.151,0,6.227,0c0,1.816,0,3.631,0,5.447
		c-1.131-1.203-3.984-0.685-6.227-0.778C160.871,75.454,160.871,73.897,160.871,72.341z"/>
	<path fill-rule="evenodd" clip-rule="evenodd" fill="#AF875F" d="M20.793,77.01c3.117,1-0.215,1.609,0,3.891
		c-0.637-1.958-3.551-1.638-6.226-1.557c-0.26,0-0.519,0-0.778,0c-0.034-1.331,0.578-2.016,1.557-2.334
		C17.162,77.01,18.977,77.01,20.793,77.01z"/>
	<path fill-rule="evenodd" clip-rule="evenodd" fill="#D9A762" d="M160.871,79.345c2.436-0.159,5.714,0.525,7.004-0.778
		c0,0.26,0,0.519,0,0.778c-1.781,1.332-0.285,5.94-0.777,8.561c0.487,2.365-0.997,6.703,0.777,7.783c0,0.259,0,0.518,0,0.777
		c-1.29-1.303-4.568-0.619-7.004-0.777C158.756,90.645,161.605,85.431,160.871,79.345z"/>
	<path fill-rule="evenodd" clip-rule="evenodd" fill="#AF875F" d="M160.871,79.345c-1.815-0.229-1.815-2.105,0-2.334
		c2.242,0.093,5.096-0.425,6.227,0.778c0.661-0.143,0.733,0.304,0.777,0.778C166.585,79.87,163.307,79.186,160.871,79.345z"/>
	<path fill-rule="evenodd" clip-rule="evenodd" fill="#D9A762" d="M14.567,79.345c2.675-0.082,5.589-0.401,6.226,1.557
		c0.502,3.389-1.016,8.797,0.778,10.895c-0.103,1.919-0.118,3.749,0.778,4.669c-1.594-1.205-6.967-1.205-8.561,0
		c0-0.26,0-0.519,0-0.777c1.798-2.612,0.271-8.548,0.778-12.452C14.105,80.753,16.028,80.829,14.567,79.345z"/>
	<path fill-rule="evenodd" clip-rule="evenodd" fill="#D9A762" d="M34.022,89.461c0-1.297,0-2.594,0-3.891
		c0.996,1.064,3.674,1.064,4.669,0c0,1.557,0,3.113,0,4.669C37.772,89.344,35.94,89.359,34.022,89.461z"/>
	<path fill-rule="evenodd" clip-rule="evenodd" fill="#D9A762" d="M73.712,95.688c1.623-3.26,26.725-3.93,35.02,0
		c-2.138,10.398-1.084,25.002-0.778,31.906c-2.847-0.83-1.557-9.084-1.557-14.786c0-6.179,0.619-13.249-0.778-17.12
		c-1.813,8.304-0.262,19.971-0.778,29.572c-3.346-7.096-0.874-22.166-1.557-29.572c-6.545-1.756-16.297-0.305-24.124-0.779
		c-1.774,8.343-0.29,19.943-0.778,29.572c-3.587-6.529-0.552-19.682-1.557-28.793c-4.613,7.319,1.5,25.364-3.112,32.684
		C75.631,120.905,73.143,104.312,73.712,95.688z"/>
	<path fill-rule="evenodd" clip-rule="evenodd" fill="#D9A762" d="M38.691,91.018c0,0.519,0,1.038,0,1.557c0,3.372,0,6.744,0,10.117
		c-1.038,1.295-4.409,0.26-5.447,1.556c-0.606-5.017,1.157-7.663,0.778-12.451C37.033,91.276,36.791,91.794,38.691,91.018z"/>
	<path fill-rule="evenodd" clip-rule="evenodd" fill="#D9A762" d="M131.3,91.796c0,1.556,0,3.112,0,4.669
		c-0.103,6.982,0.033,24.168,0,31.129c0,0.26,0,0.518,0,0.777c-0.519,0-1.038,0-1.557,0c-0.142-5.306,1.134-12.029-3.892-12.451
		c-2.822,2.107-2.426,7.432-2.334,12.451c-3.452-8.734-0.829-22.199-1.557-31.906c0.26,0,0.519,0,0.778,0
		c1.962,1.547,3.363-0.599,7.782,0C130.969,95.098,129.58,91.893,131.3,91.796z M124.296,114.364c1.556,0,3.112,0,4.669,0
		c1.448-2.625,0.94-8.951,0-11.672C122.794,98.987,122.486,110.178,124.296,114.364z"/>
	<path fill-rule="evenodd" clip-rule="evenodd" fill="#D9A762" d="M13.789,97.244c1.594,1.204,6.967,1.204,8.561,0
		c0,0.26,0,0.519,0,0.778c-1.802,3.127-0.271,9.588-0.778,14.008c-1.901,2.086-6.717-0.473-7.782,0.778c0-2.335,0-4.669,0-7.004
		c1.288-0.839,1.288-6.943,0-7.782C13.789,97.762,13.789,97.503,13.789,97.244z"/>
	<path fill-rule="evenodd" clip-rule="evenodd" fill="#D9A762" d="M86.941,101.913c1.882-3.527,7.77-2.27,9.338,0.779
		C93.544,100.772,90.001,99.518,86.941,101.913z"/>
	<path fill-rule="evenodd" clip-rule="evenodd" fill="#D9A762" d="M81.494,108.139c0,6.484,0,12.97,0,19.455
		c6.049-2.615,14.974,3.703,18.677,0c3.71-3.711-2.611-13.756,0-20.234c1.809,5.455,0.265,14.264,0.778,21.012
		c-6.486,0-12.97,0-19.455,0C80.271,123.36,80.146,113.131,81.494,108.139z"/>
	<path fill-rule="evenodd" clip-rule="evenodd" fill="#EAB886" d="M96.279,102.692c2.368,0.484,3.979,1.729,3.892,4.668
		c-2.611,6.479,3.71,16.523,0,20.234c-3.703,3.703-12.628-2.615-18.677,0c0-6.485,0-12.971,0-19.455
		c0.064-3.827,2.127-5.655,5.447-6.227C90.001,99.518,93.544,100.772,96.279,102.692z"/>
	<path fill-rule="evenodd" clip-rule="evenodd" fill="#AF875F" d="M108.731,95.688c0.778,0,1.556,0,2.334,0c0.261,0,0.519,0,0.778,0
		c1.297,0,2.595,0,3.892,0c0.26,0,0.519,0,0.778,0c1.038,0,2.074,0,3.112,0c3.552,0.957-0.073-5.261,2.335-5.448
		c0,2.075,0,4.15,0,6.226c0.728,9.707-1.896,23.172,1.557,31.906c2.074,0,4.15,0,6.226,0c0.519,0,1.038,0,1.557,0
		c0.26,0,0.518,0,0.778,0c1.596,1.291,8.521,1.291,10.116,0c2.075,0,4.151,0,6.226,0c0.26,0,0.519,0,0.778,0
		c1.596,1.291,8.521,1.291,10.117,0c3.085,0.287,7.457-0.713,9.338,0.779c1.324-0.287,1.469,0.607,1.557,1.557
		c-46.728-0.006-113.201-0.098-157.978,0c-0.126-0.906,0.172-1.385,0.778-1.557c1.881-1.492,6.253-0.492,9.339-0.779
		c1.842,1.791,6.984,0.279,10.116,0.779c1.291-1.303,4.569-0.619,7.004-0.779c1.851,1.293,9.045,1.293,10.896,0
		c0.519,0,1.038,0,1.557,0c2.074,0,4.15,0,6.226,0c0.778,0,1.557,0,2.334,0c0-10.635,0-21.271,0-31.906
		c0.662,0.144,0.734-0.303,0.778-0.777c1.297,0,2.595,0,3.892,0c0.26,0,0.519,0,0.778,0c1.296,0,2.594,0,3.891,0
		c0.26,0,0.519,0,0.778,0c1.038,0,2.075,0,3.113,0c-0.569,8.624,1.919,25.217,0,32.684c4.612-7.319-1.501-25.364,3.112-32.684
		c1.005,9.111-2.03,22.264,1.557,28.793c0.488-9.629-0.996-21.229,0.778-29.572c7.827,0.475,17.579-0.977,24.124,0.779
		c0.683,7.406-1.789,22.477,1.557,29.572c0.517-9.602-1.034-21.269,0.778-29.572c1.397,3.871,0.778,10.941,0.778,17.12
		c0,5.702-1.29,13.956,1.557,14.786C107.647,120.69,106.594,106.086,108.731,95.688z M96.279,102.692
		c-1.568-3.049-7.456-4.307-9.338-0.779c-3.32,0.571-5.383,2.399-5.447,6.227c-1.349,4.992-1.224,15.221,0,20.232
		c6.485,0,12.969,0,19.455,0c-0.514-6.748,1.03-15.557-0.778-21.012C100.258,104.42,98.647,103.176,96.279,102.692z M62.816,112.808
		c0.095,3.277,5.972,0.772,8.561,1.556c2.573-8.051-3.778-17.383-7.782-9.338C61.82,106.105,63.305,110.442,62.816,112.808z
		 M118.069,104.248c-0.916-2.351-3.858-2.673-6.226-1.556c-2.563,1.846-1.249,7.569-1.557,11.672
		c2.589-0.783,8.466,1.722,8.561-1.556C118.355,110.188,119.852,105.58,118.069,104.248z M63.595,117.477
		c-1.197,2.693-0.688,7.094-0.778,10.895c2.854,0,5.707,0,8.561,0C72.794,120.372,69.94,113.164,63.595,117.477z M110.287,128.372
		c2.854,0,5.708,0,8.561,0C122.528,113.331,106.271,112.774,110.287,128.372z"/>
	<path fill-rule="evenodd" clip-rule="evenodd" fill="#EAB886" d="M63.595,105.026c4.004-8.045,10.355,1.287,7.782,9.338
		c-2.589-0.783-8.466,1.722-8.561-1.556C64.591,111.729,63.106,107.391,63.595,105.026z"/>
	<path fill-rule="evenodd" clip-rule="evenodd" fill="#D9A762" d="M13.789,117.477c0-0.777,0-1.557,0-2.334
		c2.237,0.934,5.601-0.617,7.782,0.777c0,0.26,0,0.52,0,0.779c-0.032,0.59-0.646,8.396,0.778,10.115c0,0.52,0,1.039,0,1.557
		c-3.086,0.287-7.458-0.713-9.339,0.779c0-0.26,0-0.52,0-0.779C14.805,126.274,13.287,120.866,13.789,117.477z"/>
	<path fill-rule="evenodd" clip-rule="evenodd" fill="#AF875F" d="M159.315,115.143c-0.26,0-0.519,0-0.778,0
		c-0.067-1.105-0.129-2.205,0.778-2.335c0.26,0,0.518,0,0.778,0c2.594,0,5.188,0,7.781,0c0.693,0.345,1.393,0.683,1.557,1.556
		c-0.781-0.002-0.926,0.631-1.557,0.779c-2.642,0.211-6.309-0.604-7.781,0.777C160.236,115.258,159.789,115.186,159.315,115.143z"/>
	<path fill-rule="evenodd" clip-rule="evenodd" fill="#D9A762" d="M167.875,115.143c0.508,4.162-1.021,10.359,0.778,13.229
		c0,0.26,0,0.52,0,0.779c-1.881-1.492-6.253-0.492-9.338-0.779c0-1.037,0-2.074,0-3.111c1.786-1.588,0.281-6.464,0.778-9.34
		C161.566,114.54,165.233,115.354,167.875,115.143z"/>
	<path fill-rule="evenodd" clip-rule="evenodd" fill="#EAB886" d="M71.377,128.372c-2.854,0-5.707,0-8.561,0
		c0.091-3.801-0.419-8.201,0.778-10.895C69.94,113.164,72.794,120.372,71.377,128.372z"/>
	<path fill-rule="evenodd" clip-rule="evenodd" fill="#AF875F" d="M142.973,119.034c-1.816-0.229-1.816-2.105,0-2.334
		c1.816,0,3.631,0,5.447,0c0.757,0.021,0.604,0.952,0.778,1.556c-0.474,0.044-0.921,0.116-0.778,0.778
		C146.123,118.368,145.27,118.368,142.973,119.034z"/>
	<path fill-rule="evenodd" clip-rule="evenodd" fill="#D9A762" d="M38.691,119.034c0.482,2.111-0.987,6.176,0.778,7.004
		c0,0.777,0,1.557,0,2.334c-2.435,0.16-5.713-0.523-7.004,0.779c0-0.26,0-0.52,0-0.779c1.786-1.586,0.281-6.462,0.778-9.338
		C34.833,118.628,36.426,117.779,38.691,119.034z"/>
	<path fill-rule="evenodd" clip-rule="evenodd" fill="#AF875F" d="M92.389,45.104c0,0.519,0,1.038,0,1.556
		c-0.662-0.143-0.734,0.304-0.778,0.778c-0.519,0-1.038,0-1.557,0c0.144-0.662-0.304-0.734-0.778-0.778c0-0.519,0-1.038,0-1.556
		c0.662,0.143,0.734-0.304,0.778-0.778c0.519,0,1.038,0,1.557,0C91.468,44.987,91.914,45.059,92.389,45.104z"/>
	<path fill-rule="evenodd" clip-rule="evenodd" fill="#AF875F" d="M160.871,72.341c-1.283-2.249,1.356-6.104,3.892-7.004
		c0.178,2.824,3.816,4.954,2.335,7.004C165.022,72.341,162.946,72.341,160.871,72.341z"/>
	<path fill-rule="evenodd" clip-rule="evenodd" fill="#D9A762" d="M15.346,77.01c0-1.038,0-2.075,0-3.113c0.26,0,0.518,0,0.778,0
		c0-0.519,0-1.038,0-1.557c1.556,0,3.112,0,4.669,0c-0.872,2.451-0.07,1.762,0,4.669C18.977,77.01,17.162,77.01,15.346,77.01z"/>
	<path fill-rule="evenodd" clip-rule="evenodd" fill="#D9A762" d="M72.934,79.345c12.191,0,24.385,0,36.576,0
		c-0.456,1.619-1.636,2.515-2.335,3.891c1.959,1.391,4.341-1.997,6.226-3.113c2.45,2.219,6.8,2.539,6.226,7.782
		c-5.12,0.832-10.148-1.683-12.451,0.778c3.096,1.314,8.209,0.611,12.451,0.778c0,1.038,0,2.075,0,3.113
		c-1.669-3.75-3.898-1.521-3.112,3.113c-0.26,0-0.519,0-0.778,0c1.803-5.995-5.694-5.995-3.892,0c-0.26,0-0.518,0-0.778,0
		c0.452-2.527-0.53-3.621-0.778-5.448c-1.714,2.92-3.106-2.996-3.112,0.778c-0.727-0.57-1.18-1.415-1.557-2.335
		c1.674-2.142-0.451-3.25,0.778-5.447c-9.886,1.009-23.827-2.037-31.129,1.556c0.426,1.131-0.908,4.022,0.778,3.891
		c-1.357,1.587,0.579,1.526-0.778,3.113c-0.912-0.126-0.656-1.419-0.777-2.335c-1.125,0.928-1.181,3.834-2.335,0.778
		c-2.227,0.109-1.423,3.246-1.557,5.448c-0.26,0-0.519,0-0.778,0c0-1.557,0-3.113,0-4.67c-1.257,0.219-1.34-0.736-2.335-0.778
		c-1.031,1.303-2.062,2.607-1.556,5.448c-0.26,0-0.519,0-0.778,0c0.841-6.147-2.313-6.058-3.113-1.557c0-1.557,0-3.113,0-4.67
		c5.31-0.643,9.632,1.166,11.674-1.556c-4.533,0.458-9.137-0.756-11.674,0c-0.853-5.263,4.234-4.585,5.447-7.782
		c2.911,0.461,4.023,2.721,6.227,3.891C74.273,81.636,72.916,81.178,72.934,79.345z"/>
	<path fill-rule="evenodd" clip-rule="evenodd" fill="#AF875F" d="M34.022,85.57c-0.26,0-0.519,0-0.778,0
		c-0.421-2.755,2.756-1.914,2.335-4.669c1.569,1.024,2.633,2.555,3.112,4.669C37.696,86.635,35.019,86.635,34.022,85.57z"/>
	<path fill-rule="evenodd" clip-rule="evenodd" fill="#D9A762" d="M143.751,89.461c0-1.038,0-2.075,0-3.113
		c1.104,0.067,2.204,0.128,2.335-0.778c2.112-0.557-0.557,3.67,1.556,3.113c0,0.26,0,0.519,0,0.778
		C146.346,89.461,145.047,89.461,143.751,89.461z"/>
	<path fill-rule="evenodd" clip-rule="evenodd" fill="#F1EFEA" d="M167.098,87.905c0.492-2.62-1.004-7.229,0.777-8.561
		c0,2.854,0,5.707,0,8.561C167.615,87.905,167.357,87.905,167.098,87.905z"/>
	<path fill-rule="evenodd" clip-rule="evenodd" fill="#D4DBDB" d="M121.961,90.24c-2.408,0.187,1.217,6.405-2.335,5.448
		c0-1.039,0-2.076,0-3.113c0-1.038,0-2.076,0-3.113c0-0.519,0-1.038,0-1.556c0.904-0.127,1.385,0.171,1.557,0.778
		C121.18,89.464,121.813,89.609,121.961,90.24z"/>
	<path fill-rule="evenodd" clip-rule="evenodd" fill="#AF875F" d="M38.691,90.24c0.884,0.148,0.432,0.781,0,0.778
		c-1.9,0.776-1.658,0.258-4.669,0.778c-1.386-0.571-0.112-1.416,0-2.335C35.94,89.359,37.772,89.344,38.691,90.24z"/>
	<path fill-rule="evenodd" clip-rule="evenodd" fill="#AF875F" d="M147.642,89.461c0.757,0.021,0.604,0.953,0.778,1.557
		c-0.26,0-0.518,0-0.778,0c-1.454,1.523-2.85,0.24-4.669,0c-1.09-0.275-0.066-1.37,0.778-1.557
		C145.047,89.461,146.346,89.461,147.642,89.461z"/>
	<path fill-rule="evenodd" clip-rule="evenodd" fill="#AF875F" d="M51.144,91.018c0.411-0.626,0.812-1.264,0.778-2.335
		c0.912,0.126,0.656,1.419,0.777,2.335c0.958-0.34,1.599-0.996,1.557-2.335c0.856,3.035,1.651,6.132,3.892,7.782
		c-3.181,0.764-3.146-0.086-7.004,0C51.144,94.649,51.144,92.834,51.144,91.018z"/>
	<path fill-rule="evenodd" clip-rule="evenodd" fill="#D9A762" d="M58.147,96.465c1.599,2.295,1.805-3.322,1.557-5.447
		c1.302-2.242,0.619,3.977,0.777,5.447c0,10.636,0,21.271,0,31.906c-0.777,0-1.556,0-2.334,0
		c-0.145-5.043,1.129-11.504-3.113-12.451c-4.106,1.082-3.065,7.311-3.112,12.451c-0.519,0-1.038,0-1.557,0
		c0.517-12.193-1.035-26.457,0.778-37.354c0,1.816,0,3.631,0,5.447C55.002,96.379,54.967,97.229,58.147,96.465z M54.256,101.913
		c-2.893,1.473-3.081,9.074-1.557,12.451c1.557,0,3.113,0,4.67,0C58.748,110.663,59.312,101.708,54.256,101.913z"/>
	<path fill-rule="evenodd" clip-rule="evenodd" fill="#D9A762" d="M142.973,103.469c0-4.15,0-8.301,0-12.451
		c1.819,0.24,3.215,1.523,4.669,0c0.5,3.133-1.012,8.275,0.778,10.117c0,1.037,0,2.074,0,3.112
		C147.417,103.175,145.04,103.477,142.973,103.469z"/>
	<path fill-rule="evenodd" clip-rule="evenodd" fill="#F1EFEA" d="M14.567,83.236c-0.507,3.904,1.02,9.84-0.778,12.452
		C14.295,91.783,12.77,85.848,14.567,83.236z"/>
	<path fill-rule="evenodd" clip-rule="evenodd" fill="#EAB886" d="M119.626,92.575c0,1.037,0,2.074,0,3.113
		c-1.038,0-2.074,0-3.112,0C115.728,91.054,117.957,88.824,119.626,92.575z"/>
	<path fill-rule="evenodd" clip-rule="evenodd" fill="#EAB886" d="M65.151,95.688c-1.297,0-2.595,0-3.892,0
		c0.147-0.631,0.781-0.776,0.778-1.557C62.839,89.63,65.992,89.541,65.151,95.688z"/>
	<path fill-rule="evenodd" clip-rule="evenodd" fill="#AF875F" d="M13.789,96.465c1.594-1.205,6.967-1.205,8.561,0
		c0.883,0.148,0.432,0.781,0,0.778c-1.594,1.204-6.967,1.204-8.561,0C12.906,97.096,13.357,96.463,13.789,96.465z"/>
	<path fill-rule="evenodd" clip-rule="evenodd" fill="#AF875F" d="M159.315,98.022c-0.935-1.022-0.304-1.225,0-2.334
		c0.518,0,1.038,0,1.556,0c2.436,0.158,5.714-0.525,7.004,0.777c1.321,0.506,0.487,1.789-0.777,1.557c-2.335,0-4.67,0-7.004,0
		C159.833,98.022,159.575,98.022,159.315,98.022z"/>
	<path fill-rule="evenodd" clip-rule="evenodd" fill="#EAB886" d="M118.848,112.808c-0.095,3.277-5.972,0.772-8.561,1.556
		c0.308-4.103-1.006-9.826,1.557-11.672c2.367-1.117,5.31-0.795,6.226,1.556C118.563,106.868,117.066,111.476,118.848,112.808z"/>
	<path fill-rule="evenodd" clip-rule="evenodd" fill="#AF875F" d="M39.47,104.248c-0.175,0.604-0.021,1.535-0.778,1.557
		c-1.816,0-3.631,0-5.447,0c-0.479-0.692-0.94-1.392,0-1.557c1.038-1.296,4.409-0.261,5.447-1.556
		c-0.143,0.661,0.305,0.733,0.778,0.777C39.47,103.729,39.47,103.989,39.47,104.248z"/>
	<path fill-rule="evenodd" clip-rule="evenodd" fill="#AF875F" d="M148.42,104.248c0.662-0.144,0.734,0.304,0.778,0.778
		c-0.044,0.475-0.116,0.922-0.778,0.778c-2.675,0.341-4.362-0.308-6.226-0.778c-0.126-0.904,0.172-1.385,0.778-1.557
		C145.04,103.477,147.417,103.175,148.42,104.248z"/>
	<path fill-rule="evenodd" clip-rule="evenodd" fill="#F1EFEA" d="M22.35,98.022c0,4.929,0,9.857,0,14.786
		c-0.475-0.044-0.922-0.116-0.778-0.778C22.079,107.61,20.548,101.149,22.35,98.022z"/>
	<path fill-rule="evenodd" clip-rule="evenodd" fill="#F1EFEA" d="M159.315,112.808c0-4.929,0-9.857,0-14.786
		c0.26,0,0.518,0,0.778,0c0.484,2.57-0.331,9.849,0,14.786C159.833,112.808,159.575,112.808,159.315,112.808z"/>
	<path fill-rule="evenodd" clip-rule="evenodd" fill="#AF875F" d="M22.35,112.808c0.26,0,0.518,0,0.778,0
		c0.329,1.626-0.534,2.061-0.778,3.112c-0.26,0-0.519,0-0.778,0c-2.182-1.395-5.545,0.156-7.782-0.777
		c-0.631-0.148-0.775-0.781-1.557-0.779c0.345-0.691,0.684-1.391,1.557-1.556c1.065-1.251,5.881,1.308,7.782-0.778
		C21.428,112.692,21.875,112.764,22.35,112.808z"/>
	<path fill-rule="evenodd" clip-rule="evenodd" fill="#AF875F" d="M39.47,115.92c0.54,0.629,1.212,2.133,0,2.335
		c-0.474,0.044-0.921,0.116-0.778,0.778c-2.266-1.255-3.858-0.405-5.447,0c-0.539-0.628-1.211-2.132,0-2.334c1.557,0,3.113,0,4.67,0
		c0-0.52,0-1.039,0-1.557c0.26,0,0.518,0,0.777,0C38.549,115.805,38.996,115.877,39.47,115.92z"/>
	<path fill-rule="evenodd" clip-rule="evenodd" fill="#D9A762" d="M142.194,128.372c-0.611-3.982,1.092-5.652,0.778-9.338
		c2.297-0.666,3.15-0.666,5.447,0c0,3.113,0,6.227,0,9.338C146.346,128.372,144.27,128.372,142.194,128.372z"/>
	<path fill-rule="evenodd" clip-rule="evenodd" fill="#F1EFEA" d="M169.432,114.364c-1.401,3.527-0.552,9.306-0.778,14.008
		c-1.799-2.869-0.271-9.066-0.778-13.229C168.506,114.995,168.65,114.362,169.432,114.364z"/>
	<path fill-rule="evenodd" clip-rule="evenodd" fill="#EAD3B9" d="M148.42,128.372c0-3.111,0-6.225,0-9.338
		c-0.143-0.662,0.305-0.734,0.778-0.778c0,3.372,0,6.745,0,10.116C148.938,128.372,148.68,128.372,148.42,128.372z"/>
	<path fill-rule="evenodd" clip-rule="evenodd" fill="#D9A762" d="M170.21,130.708c0,2.334,0,4.668,0,7.004
		c-50.071,0.779-108.326,2.316-157.978-0.779c0-2.074,0-4.15,0-6.225C57.009,130.61,123.482,130.702,170.21,130.708z"/>
	<path fill-rule="evenodd" clip-rule="evenodd" fill="#AF875F" d="M143.751,86.349c-2.431-1.735,1.53-3.595,1.557-5.447
		c2.573,1.668,3.606,4.149,2.334,7.782c-2.112,0.557,0.557-3.669-1.556-3.113C145.955,86.477,144.855,86.416,143.751,86.349z"/>
	<path fill-rule="evenodd" clip-rule="evenodd" fill="#AF875F" d="M128.965,89.461c1.022,0.275,1.224,1.37,2.335,1.557
		c0,0.259,0,0.519,0,0.778c-1.72,0.097-0.331,3.302-0.778,4.669c-4.419-0.599-5.82,1.547-7.782,0
		c0.662,0.144,0.734-0.303,0.778-0.777c1.372-0.703,2.409-1.742,3.112-3.113c0.26,0,0.519,0,0.778,0
		c-0.429-1.726,1.486-1.108,1.557-2.335C128.965,89.98,128.965,89.721,128.965,89.461z"/>
	<path fill-rule="evenodd" clip-rule="evenodd" fill="#D9A762" d="M83.05,57.555c2.043,0.075,13.521,0.075,15.564,0
		c5.554,4.049,12.702,10.638,10.896,19.456c-7.145,0.304-25.289-0.211-37.354,0C70.738,68.514,77.55,61.708,83.05,57.555z"/>
	<path fill-rule="evenodd" clip-rule="evenodd" fill="#EAB886" d="M111.065,95.688c-0.778,0-1.556,0-2.334,0
		c-8.295-3.93-33.396-3.26-35.02,0c-1.038,0-2.075,0-3.113,0c0.134-2.202-0.67-5.339,1.557-5.448
		c1.154,3.056,1.21,0.149,2.335-0.778c0.121,0.916-0.135,2.209,0.777,2.335c1.357-1.587-0.579-1.526,0.778-3.113
		c9.857,0,19.716,0,29.572,0c0.377,0.92,0.83,1.765,1.557,2.335c0.006-3.774,1.398,2.142,3.112-0.778
		C110.535,92.067,111.518,93.161,111.065,95.688z"/>
	<path fill-rule="evenodd" clip-rule="evenodd" fill="#D9A762" d="M160.094,98.022c2.334,0,4.669,0,7.004,0c0,0.519,0,1.037,0,1.557
		c0.497,2.875-1.008,7.752,0.777,9.338c0,1.297,0,2.595,0,3.892c-2.594,0-5.188,0-7.781,0
		C159.763,107.871,160.578,100.592,160.094,98.022z"/>
	<path fill-rule="evenodd" clip-rule="evenodd" fill="#D9A762" d="M142.194,105.026c1.863,0.471,3.551,1.119,6.226,0.778
		c0,2.853,0,5.707,0,8.56c0,0.779,0,1.557,0,2.336c-1.816,0-3.631,0-5.447,0C142.614,112.907,143.787,107.583,142.194,105.026z"/>
	<path fill-rule="evenodd" clip-rule="evenodd" fill="#D9A762" d="M33.244,105.804c1.816,0,3.631,0,5.447,0c0,3.112,0,6.226,0,9.339
		c-0.26,0-0.518,0-0.777,0c0,0.518,0,1.037,0,1.557c-1.557,0-3.113,0-4.67,0C33.244,113.067,33.244,109.436,33.244,105.804z"/>
	<path fill-rule="evenodd" clip-rule="evenodd" fill="#EAB886" d="M118.848,128.372c-2.853,0-5.707,0-8.561,0
		C106.271,112.774,122.528,113.331,118.848,128.372z"/>
	<path fill-rule="evenodd" clip-rule="evenodd" fill="#EAB886" d="M131.3,96.465c1.263,8.599,1.32,22.539,0,31.129
		C131.333,120.633,131.197,103.448,131.3,96.465z"/>
	<path fill-rule="evenodd" clip-rule="evenodd" fill="#EAB886" d="M21.571,116.7c1.79,1.842,0.278,6.984,0.778,10.115
		C20.925,125.096,21.539,117.29,21.571,116.7z"/>
</g>
</svg>
