<?xml version="1.0" encoding="utf-8"?>
<!-- Generator: Adobe Illustrator 14.0.0, SVG Export Plug-In . SVG Version: 6.00 Build 43363)  -->
<!DOCTYPE svg PUBLIC "-//W3C//DTD SVG 1.1//EN" "http://www.w3.org/Graphics/SVG/1.1/DTD/svg11.dtd">
<svg version="1.1" id="Layer_1" xmlns="http://www.w3.org/2000/svg" xmlns:xlink="http://www.w3.org/1999/xlink" x="0px" y="0px"
	 width="183.507px" height="183.506px" viewBox="0 0 183.507 183.506" enable-background="new 0 0 183.507 183.506"
	 xml:space="preserve">
<g>
	<path fill-rule="evenodd" clip-rule="evenodd" fill="#B0B1B1" d="M85.147,69.754c1.66-1.343,8.863-1.343,10.524,0
		C92.163,69.754,88.656,69.754,85.147,69.754z"/>
	<path fill-rule="evenodd" clip-rule="evenodd" fill="#919890" d="M85.147,69.754c3.509,0,7.016,0,10.524,0c0.271,0,0.538,0,0.809,0
		c3.176,4.246-8.855-1.812-11.333,2.429C85.147,71.374,85.147,70.564,85.147,69.754z"/>
	<path fill-rule="evenodd" clip-rule="evenodd" fill="#D4DBDB" d="M153.96,89.184c7.831,2.327-6.27,1.619-11.334,1.619
		c-37.486,0-83.524,0-117.386,0c0.686-1.203,2.606-1.172,4.047-1.619C68.956,90.533,114.291,90.533,153.96,89.184z"/>
	<path fill-rule="evenodd" clip-rule="evenodd" fill="#D4DBDB" d="M13.907,104.566c-1.342-0.874-1.342-7.224,0-8.096
		C13.907,99.168,13.907,101.867,13.907,104.566z"/>
	<path fill-rule="evenodd" clip-rule="evenodd" fill="#D4DBDB" d="M15.525,123.995c-0.058-5.338,0.381-11.175-0.81-15.382
		c2.968,0,5.938,0,8.905,0c-0.032,2.442-2.177,6.935,0,8.905c0,6.477,0,12.953,0,19.43c0.526,4.062-1.061,10.236,0.81,12.953
		c0.856,3.89-1.743,8.098,0.81,8.904c-3.509,0-7.016,0-10.524,0c0-5.666,0-11.333,0-17
		C16.594,137.477,14.994,129.669,15.525,123.995z"/>
	<path fill-rule="evenodd" clip-rule="evenodd" fill="#D4DBDB" d="M35.765,108.613c2.968,0,5.938,0,8.904,0
		c-0.984,3.604-0.879,8.296-0.81,12.953c0.535,7.021-1.071,16.185,0.81,21.858c0.528,4.598-1.063,11.318,0.81,14.572
		c0,0.27,0,0.539,0,0.809c-3.776,0-7.556,0-11.333,0c2.47-1.095,0.259-2.248,0.81-5.666c1.876-3.791,0.278-11.055,0.81-16.191
		c0-6.477,0-12.953,0-19.43C37.942,115.547,35.798,111.055,35.765,108.613z"/>
	<path fill-rule="evenodd" clip-rule="evenodd" fill="#D4DBDB" d="M56.003,108.613c2.968,0,5.938,0,8.906,0
		c-0.982,5.774-1.607,16.19,0,21.858c0,5.667,0,11.334,0,17.001c0.352,3.695-0.82,8.914,0.81,11.333c-3.509,0-7.017,0-10.524,0
		c1.594-2.184,0.482-7.074,0.809-10.523c0-5.938,0-11.873,0-17.811c1.348-4.602,1.348-14.828,0-19.43
		C56.003,110.233,56.003,109.422,56.003,108.613z"/>
	<path fill-rule="evenodd" clip-rule="evenodd" fill="#D4DBDB" d="M77.052,123.995c-0.059-5.338,0.381-11.175-0.81-15.382
		c3.238,0,6.477,0,9.715,0c0,0.271,0,0.54,0,0.81c-1.892,0.584-2.471,6.643-0.81,8.096c0,5.667,0,11.334,0,17
		c0.532,5.945-1.07,14.023,0.81,18.621c0,1.619,0,3.238,0,4.857c0,0.27,0,0.539,0,0.809c-3.777,0-7.556,0-11.334,0
		c0-0.27,0-0.539,0-0.809c3.611-1.787,0.662-10.133,1.619-14.572C78.122,138.558,76.52,130.208,77.052,123.995z"/>
	<path fill-rule="evenodd" clip-rule="evenodd" fill="#FFFFFF" d="M85.957,109.422c0-0.27,0-0.539,0-0.81c3.509,0,7.016,0,10.523,0
		c0.399,2.84,1.207,5.271,0.81,8.905c0,6.477,0,12.953,0,19.43c-1.879,4.866-0.276,13.217-0.81,19.43c0,0.539,0,1.079,0,1.619
		c-3.508,0-7.015,0-10.523,0c0-1.619,0-3.238,0-4.857c-0.533-5.944,1.071-14.023-0.81-18.621c0-5.666,0-11.333,0-17
		C84.988,114.391,85.119,111.552,85.957,109.422z"/>
	<path fill-rule="evenodd" clip-rule="evenodd" fill="#D4DBDB" d="M97.29,108.613c2.969,0,5.938,0,8.905,0
		c-1.062,3.796-0.832,8.884-0.81,13.763c0.532,5.675-1.068,13.482,0.81,17.811c0,5.666,0,11.334,0,17
		c-0.003,0.813,0.656,0.964,0.81,1.619c-3.509,0-7.016,0-10.524,0c0-0.27,0-0.539,0-0.809c0-0.54,0-1.08,0-1.619
		c1.881-4.866,0.277-13.217,0.81-19.43c0-6.477,0-12.953,0-19.43C99.469,115.547,97.324,111.055,97.29,108.613z"/>
	<path fill-rule="evenodd" clip-rule="evenodd" fill="#D4DBDB" d="M117.53,108.613c2.967,0,5.937,0,8.904,0c0,0.81,0,1.62,0,2.429
		c-1.348,4.602-1.348,14.828,0,19.43c0,5.127,0,10.254,0,15.381c0.389,4.199-0.871,10.048,0.81,12.953c-3.508,0-7.016,0-10.523,0
		c1.5-1.738,0.545-5.93,0.81-8.904c0-5.938,0-11.873,0-17.811c1.879-4.866,0.276-13.217,0.81-19.43
		C118.671,110.711,116.86,110.901,117.53,108.613z"/>
	<path fill-rule="evenodd" clip-rule="evenodd" fill="#D4DBDB" d="M137.769,108.613c3.238,0,6.477,0,9.715,0
		c-3.208,5.597,0.446,15.549-0.81,24.287c0.531,5.405-1.068,12.942,0.81,17.001c0.855,3.89-1.743,8.098,0.81,8.904
		c-3.509,0-7.016,0-10.524,0c0-0.27,0-0.539,0-0.809c0-4.857,0-9.715,0-14.572c1.879-4.059,0.278-11.596,0.81-17
		C138.425,120.37,139.104,113.485,137.769,108.613z"/>
	<path fill-rule="evenodd" clip-rule="evenodd" fill="#D4DBDB" d="M158.817,108.613c2.968,0,5.938,0,8.904,0
		c-0.796,3.252-0.992,7.104-0.809,11.334c0.531,5.405-1.069,12.942,0.809,17.001c0.878,6.949-1.88,17.531,1.62,21.857
		c-3.778,0-7.557,0-11.335,0c0.498-0.721,0.979-1.447,0-1.619c0-0.27,0-0.539,0-0.809c1.881-4.866,0.277-13.217,0.811-19.43
		c0-5.127,0-10.254,0-15.382C160.712,118.559,159.352,111.881,158.817,108.613z"/>
	<path fill-rule="evenodd" clip-rule="evenodd" fill="#F1EFEA" d="M56.003,111.042c1.348,4.602,1.348,14.828,0,19.43
		C56.003,123.995,56.003,117.518,56.003,111.042z"/>
	<path fill-rule="evenodd" clip-rule="evenodd" fill="#F1EFEA" d="M126.435,111.042c0,6.477,0,12.953,0,19.43
		C125.087,125.87,125.087,115.643,126.435,111.042z"/>
	<path fill-rule="evenodd" clip-rule="evenodd" fill="#F1EFEA" d="M118.34,112.661c-0.533,6.213,1.069,14.563-0.81,19.43
		C118.063,125.877,116.459,117.527,118.34,112.661z"/>
	<path fill-rule="evenodd" clip-rule="evenodd" fill="#F1EFEA" d="M166.913,119.947c1.878,4.06,0.277,11.596,0.809,17.001
		C165.844,132.889,167.444,125.352,166.913,119.947z"/>
	<path fill-rule="evenodd" clip-rule="evenodd" fill="#F1EFEA" d="M43.859,121.566c1.883,5.674,0.275,14.837,0.81,21.858
		C42.788,137.75,44.395,128.587,43.859,121.566z"/>
	<path fill-rule="evenodd" clip-rule="evenodd" fill="#F1EFEA" d="M105.386,122.375c1.879,4.328,0.277,12.137,0.81,17.811
		C104.317,135.858,105.918,128.05,105.386,122.375z"/>
	<path fill-rule="evenodd" clip-rule="evenodd" fill="#F1EFEA" d="M15.525,123.995c-0.531,5.675,1.068,13.482-0.81,17.811
		C15.248,136.13,13.646,128.323,15.525,123.995z"/>
	<path fill-rule="evenodd" clip-rule="evenodd" fill="#F1EFEA" d="M77.052,123.995c-0.532,6.213,1.07,14.563-0.81,19.43
		C76.775,137.211,75.171,128.861,77.052,123.995z"/>
	<path fill-rule="evenodd" clip-rule="evenodd" fill="#F1EFEA" d="M138.578,126.424c-0.531,5.404,1.069,12.941-0.81,17
		C138.3,138.019,136.7,130.482,138.578,126.424z"/>
	<path fill-rule="evenodd" clip-rule="evenodd" fill="#F1EFEA" d="M146.674,132.9c1.879,4.06,0.278,11.596,0.81,17.001
		C145.605,145.842,147.205,138.305,146.674,132.9z"/>
	<path fill-rule="evenodd" clip-rule="evenodd" fill="#F1EFEA" d="M85.147,134.518c1.881,4.598,0.276,12.677,0.81,18.621
		C84.077,148.542,85.68,140.463,85.147,134.518z"/>
	<path fill-rule="evenodd" clip-rule="evenodd" fill="#F1EFEA" d="M23.621,136.948c1.87,2.717,0.283,8.891,0.81,12.953
		C22.561,147.184,24.147,141.009,23.621,136.948z"/>
	<path fill-rule="evenodd" clip-rule="evenodd" fill="#F1EFEA" d="M35.765,136.948c-0.531,5.137,1.066,12.4-0.81,16.191
		C35.485,148.002,33.888,140.738,35.765,136.948z"/>
	<path fill-rule="evenodd" clip-rule="evenodd" fill="#F1EFEA" d="M97.29,136.948c-0.532,6.213,1.071,14.563-0.81,19.43
		C97.014,150.165,95.411,141.814,97.29,136.948z"/>
	<path fill-rule="evenodd" clip-rule="evenodd" fill="#F1EFEA" d="M158.817,136.948c-0.533,6.213,1.07,14.563-0.811,19.43
		C158.54,150.165,156.938,141.814,158.817,136.948z"/>
	<path fill-rule="evenodd" clip-rule="evenodd" fill="#F1EFEA" d="M85.957,158.805c0-0.27,0-0.539,0-0.809c3.509,0,7.016,0,10.523,0
		c0,0.27,0,0.539,0,0.809C92.973,158.805,89.466,158.805,85.957,158.805z"/>
	<path fill-rule="evenodd" clip-rule="evenodd" fill="#D4DBDB" d="M5.002,168.52c57.478,0,114.956,0,172.436,0
		C121.847,169.87,60.593,169.87,5.002,168.52z"/>
	<path fill-rule="evenodd" clip-rule="evenodd" fill="#B0B1B1" d="M96.48,69.754c0.153-0.919,0.813-0.449,0.81,0
		c4.581,4.888,12.159,4.937,18.621,6.477c18.465,4.402,40.292,9.417,59.097,14.572c0.725,2.827-2.64,1.383-3.238,0.81
		c-20.657-4.318-39.678-8.732-61.525-13.763c-6.622-1.525-13.556-4.908-19.43-4.857c-5.971,0.052-13.649,3.3-20.239,4.857
		c-19.703,4.657-39.822,9.24-59.907,14.572c0.347-2.272-3.018,2.028-3.238-0.81c24.04-8.343,51.726-13.04,77.718-19.43
		C87.625,67.942,99.656,74,96.48,69.754z"/>
	<path fill-rule="evenodd" clip-rule="evenodd" fill="#919890" d="M10.668,92.422c20.085-5.333,40.204-9.915,59.907-14.572
		c6.59-1.558,14.269-4.806,20.239-4.857c5.874-0.051,12.808,3.333,19.43,4.857c21.848,5.031,40.868,9.444,61.525,13.763
		c0.629,2.787-0.45,3.866-3.237,3.237c-51.542,0-103.084,0-154.625,0c-1.283-0.066-3.089,0.391-3.239-0.809
		C10.668,93.501,10.668,92.961,10.668,92.422z M153.96,89.184c-10.645-2.181-20.809-4.73-31.573-7.286
		c-10.125-2.403-21.438-7.396-31.572-7.286C72.836,74.808,46.49,87.97,29.287,89.184c-1.44,0.447-3.361,0.416-4.047,1.619
		c33.861,0,79.899,0,117.386,0C147.69,90.803,161.791,91.511,153.96,89.184z M166.103,94.042
		c-44.503-3.889-110.771-0.34-154.625-1.619C55.555,95.102,118.333,91.487,166.103,94.042z"/>
	<path fill-rule="evenodd" clip-rule="evenodd" fill="#666A62" d="M11.478,92.422c43.854,1.279,110.122-2.27,154.625,1.619
		C118.333,91.487,55.555,95.102,11.478,92.422z"/>
	<path fill-rule="evenodd" clip-rule="evenodd" fill="#F1EFEA" d="M23.621,108.613c0.271,0,0.539,0,0.81,0
		c-0.399,2.84-1.206,5.271-0.81,8.905C21.444,115.547,23.589,111.055,23.621,108.613z"/>
	<path fill-rule="evenodd" clip-rule="evenodd" fill="#F1EFEA" d="M34.146,108.613c0.538,0,1.08,0,1.619,0
		c0.033,2.442,2.178,6.935,0,8.905C36.011,113.764,35.757,110.51,34.146,108.613z"/>
	<path fill-rule="evenodd" clip-rule="evenodd" fill="#F1EFEA" d="M56.003,148.282c-0.326,3.449,0.785,8.34-0.809,10.523
		c-3.239,0-6.477,0-9.716,0c0-0.27,0-0.539,0-0.809C58.222,160.408,53.99,154.546,56.003,148.282z"/>
	<path fill-rule="evenodd" clip-rule="evenodd" fill="#F1EFEA" d="M64.909,108.613c0.538,0,1.079,0,1.618,0
		c-3.128,4.698-0.995,14.657-1.618,21.858C63.302,124.803,63.927,114.387,64.909,108.613z"/>
	<path fill-rule="evenodd" clip-rule="evenodd" fill="#F1EFEA" d="M64.909,147.472c0.881,5.864-0.193,13.686,9.714,10.524
		c0,0.27,0,0.539,0,0.809c-2.968,0-5.938,0-8.904,0C64.089,156.386,65.261,151.167,64.909,147.472z"/>
	<path fill-rule="evenodd" clip-rule="evenodd" fill="#F1EFEA" d="M85.957,109.422c-0.838,2.13-0.969,4.969-0.81,8.096
		C83.486,116.065,84.065,110.006,85.957,109.422z"/>
	<path fill-rule="evenodd" clip-rule="evenodd" fill="#F1EFEA" d="M96.48,108.613c0.271,0,0.54,0,0.81,0
		c0.034,2.442,2.179,6.935,0,8.905C97.688,113.883,96.88,111.453,96.48,108.613z"/>
	<path fill-rule="evenodd" clip-rule="evenodd" fill="#F1EFEA" d="M106.195,157.186c7.639,2.782,11.94,0.652,11.335-7.285
		c-0.265,2.975,0.69,7.166-0.81,8.904c-3.239,0-6.477,0-9.716,0C106.852,158.15,106.192,157.999,106.195,157.186z"/>
	<path fill-rule="evenodd" clip-rule="evenodd" fill="#F1EFEA" d="M126.435,145.852c1.42,8.377-1.452,14.894,11.334,12.145
		c0,0.27,0,0.539,0,0.809c-3.509,0-7.016,0-10.524,0C125.563,155.9,126.823,150.051,126.435,145.852z"/>
	<path fill-rule="evenodd" clip-rule="evenodd" fill="#F1EFEA" d="M157.197,108.613c0.54,0,1.08,0,1.62,0
		c0.534,3.269,1.895,9.946,0,12.953C158.66,116.866,159.582,111.086,157.197,108.613z"/>
	<path fill-rule="evenodd" clip-rule="evenodd" fill="#F1EFEA" d="M149.911,158.805c0.873-2.365,7.224,0.746,8.096-1.619
		c0.979,0.172,0.498,0.898,0,1.619C155.308,158.805,152.61,158.805,149.911,158.805z"/>
	<path fill-rule="evenodd" clip-rule="evenodd" fill="#F1EFEA" d="M29.287,89.184C46.49,87.97,72.836,74.808,90.814,74.612
		c10.134-0.11,21.447,4.883,31.572,7.286c10.765,2.556,20.929,5.105,31.573,7.286C114.291,90.533,68.956,90.533,29.287,89.184z"/>
	<path fill-rule="evenodd" clip-rule="evenodd" fill="#B0B1B1" d="M168.532,94.85c-0.527,4.331,1.063,10.778-0.811,13.763
		c-2.967,0-5.937,0-8.904,0c-0.54,0-1.08,0-1.62,0c-3.237,0-6.476,0-9.714,0s-6.477,0-9.715,0c-3.777,0-7.557,0-11.334,0
		c-2.968,0-5.938,0-8.904,0c-3.778,0-7.557,0-11.335,0c-2.967,0-5.937,0-8.905,0c-0.27,0-0.538,0-0.81,0c-3.508,0-7.015,0-10.523,0
		c-3.238,0-6.477,0-9.715,0c-3.237,0-6.477,0-9.715,0c-0.539,0-1.08,0-1.618,0c-2.969,0-5.938,0-8.906,0c-3.776,0-7.556,0-11.334,0
		c-2.967,0-5.937,0-8.904,0c-0.539,0-1.081,0-1.619,0c-3.238,0-6.477,0-9.715,0c-0.271,0-0.539,0-0.81,0c-2.968,0-5.938,0-8.905,0
		c-0.271,0-0.539,0-0.809,0c0-1.349,0-2.698,0-4.047c0-2.699,0-5.397,0-8.096c0-0.54,0-1.08,0-1.62
		C65.448,94.85,116.99,94.85,168.532,94.85z"/>
	<path fill-rule="evenodd" clip-rule="evenodd" fill="#FFFFFF" d="M44.669,108.613c3.778,0,7.558,0,11.334,0c0,0.81,0,1.62,0,2.429
		c0,6.477,0,12.953,0,19.43c0,5.938,0,11.873,0,17.811c-2.013,6.265,2.219,12.126-10.524,9.715
		c-1.873-3.254-0.281-9.975-0.81-14.572c-0.534-7.021,1.073-16.185-0.81-21.858C43.79,116.909,43.685,112.216,44.669,108.613z"/>
	<path fill-rule="evenodd" clip-rule="evenodd" fill="#FFFFFF" d="M66.527,108.613c3.238,0,6.478,0,9.715,0
		c1.19,4.207,0.751,10.044,0.81,15.382c-1.881,4.866-0.276,13.217-0.81,19.43c-0.957,4.439,1.992,12.785-1.619,14.572
		c-9.907,3.161-8.833-4.66-9.714-10.524c0-5.667,0-11.334,0-17.001C65.532,123.27,63.399,113.311,66.527,108.613z"/>
	<path fill-rule="evenodd" clip-rule="evenodd" fill="#FFFFFF" d="M34.955,153.139c-0.551,3.418,1.66,4.571-0.81,5.666
		c-2.969,0-5.938,0-8.905,0c-2.553-0.807,0.047-5.015-0.81-8.904c-0.526-4.063,1.061-10.236-0.81-12.953c0-6.477,0-12.953,0-19.43
		c-0.396-3.635,0.41-6.065,0.81-8.905c3.238,0,6.477,0,9.715,0c1.611,1.897,1.865,5.151,1.619,8.905c0,6.477,0,12.953,0,19.43
		C33.888,140.738,35.485,148.002,34.955,153.139z"/>
	<path fill-rule="evenodd" clip-rule="evenodd" fill="#FFFFFF" d="M148.293,158.805c-2.553-0.807,0.046-5.015-0.81-8.904
		c-0.531-5.405,1.069-12.941-0.81-17.001c1.256-8.738-2.398-18.69,0.81-24.287c3.238,0,6.477,0,9.714,0
		c2.385,2.474,1.463,8.253,1.62,12.953c0,5.128,0,10.255,0,15.382c-1.88,4.866-0.277,13.217-0.811,19.43c0,0.27,0,0.539,0,0.809
		c-0.872,2.365-7.223-0.746-8.096,1.619C149.373,158.805,148.832,158.805,148.293,158.805z"/>
	<path fill-rule="evenodd" clip-rule="evenodd" fill="#FFFFFF" d="M106.195,108.613c3.778,0,7.557,0,11.335,0
		c-0.67,2.288,1.141,2.099,0.81,4.048c-1.881,4.866-0.277,13.217-0.81,19.43c0,5.938,0,11.873,0,17.811
		c0.605,7.938-3.696,10.067-11.335,7.285c0-5.666,0-11.334,0-17c-0.532-5.674,1.069-13.482-0.81-17.811
		C105.363,117.497,105.134,112.409,106.195,108.613z"/>
	<path fill-rule="evenodd" clip-rule="evenodd" fill="#FFFFFF" d="M126.435,108.613c3.777,0,7.557,0,11.334,0
		c1.335,4.872,0.656,11.757,0.81,17.812c-1.878,4.058-0.278,11.595-0.81,17c0,4.857,0,9.715,0,14.572
		c-12.786,2.749-9.914-3.768-11.334-12.145c0-5.127,0-10.254,0-15.381c0-6.477,0-12.953,0-19.43
		C126.435,110.233,126.435,109.422,126.435,108.613z"/>
	<path fill-rule="evenodd" clip-rule="evenodd" fill="#919890" d="M5.002,168.52c-0.63-7.105,6.156-6.796,9.714-9.715
		c3.509,0,7.016,0,10.524,0c2.968,0,5.937,0,8.905,0c3.777,0,7.557,0,11.333,0c3.239,0,6.477,0,9.716,0c3.508,0,7.016,0,10.524,0
		c2.967,0,5.937,0,8.904,0c3.778,0,7.557,0,11.334,0c3.509,0,7.016,0,10.523,0c3.509,0,7.016,0,10.524,0c3.239,0,6.477,0,9.716,0
		c3.508,0,7.016,0,10.523,0c3.509,0,7.016,0,10.524,0s7.016,0,10.524,0c0.539,0,1.08,0,1.618,0c2.699,0,5.396,0,8.096,0
		c3.778,0,7.557,0,11.335,0c1.695,4.241,9.457,2.416,8.096,9.715C119.958,168.52,62.479,168.52,5.002,168.52z"/>
</g>
</svg>
