<?xml version="1.0" encoding="utf-8"?>
<!-- Generator: Adobe Illustrator 14.0.0, SVG Export Plug-In . SVG Version: 6.00 Build 43363)  -->
<!DOCTYPE svg PUBLIC "-//W3C//DTD SVG 1.1//EN" "http://www.w3.org/Graphics/SVG/1.1/DTD/svg11.dtd">
<svg version="1.1" id="Layer_1" xmlns="http://www.w3.org/2000/svg" xmlns:xlink="http://www.w3.org/1999/xlink" x="0px" y="0px"
	 width="222px" height="222px" viewBox="0 0 222 222" enable-background="new 0 0 222 222" xml:space="preserve">
<g>
	<path fill-rule="evenodd" clip-rule="evenodd" fill="#F47E14" d="M66.611,66.674c0.394,0,0.787,0,1.181,0
		c28.348,0,56.696,0,85.045,0c-26.283,2.877-64.765-0.225-87.407,2.362C65.425,67.852,66.386,67.631,66.611,66.674z"/>
	<path fill-rule="evenodd" clip-rule="evenodd" fill="#F47E14" d="M67.792,70.218c27.955,0.786,59.058-1.573,85.045,1.181
		C124.88,70.613,93.779,72.972,67.792,70.218z"/>
	<path fill-rule="evenodd" clip-rule="evenodd" fill="#F47E14" d="M171.735,74.942c-4.14,4.821-4.996-3.587-9.45-2.362
		C165.195,66.34,167.466,75.345,171.735,74.942z"/>
	<path fill-rule="evenodd" clip-rule="evenodd" fill="#042628" d="M38.263,90.297c0.394,0,0.787,0,1.181,0
		c2.037,3.475,12.137-1.112,14.174,2.363c-5.119,0-10.236,0-15.355,0C38.263,91.873,38.263,91.084,38.263,90.297z"/>
	<path fill-rule="evenodd" clip-rule="evenodd" fill="#04243C" d="M39.444,90.297c5.906,0,11.812,0,17.718,0
		c-0.225,0.957-1.186,1.177-1.181,2.363c-0.788,0-1.576,0-2.363,0C51.581,89.185,41.48,93.772,39.444,90.297z"/>
	<path fill-rule="evenodd" clip-rule="evenodd" fill="#042628" d="M57.162,90.297c0.394,0,0.787,0,1.181,0
		c38.192,3.542,84.649-1.18,122.842,2.363c-41.734,0-83.469,0-125.204,0C55.976,91.475,56.937,91.254,57.162,90.297z"/>
	<path fill-rule="evenodd" clip-rule="evenodd" fill="#094D6F" d="M98.502,96.203c1.273-1.955,10.539-1.955,11.812,0
		C106.377,96.203,102.44,96.203,98.502,96.203z"/>
	<path fill-rule="evenodd" clip-rule="evenodd" fill="#094D6F" d="M112.677,96.203c1.653-1.957,11.339-1.957,12.992,0
		C121.338,96.203,117.008,96.203,112.677,96.203z"/>
	<path fill-rule="evenodd" clip-rule="evenodd" fill="#094D6F" d="M128.031,96.203c1.655-1.957,11.34-1.957,12.993,0
		C136.693,96.203,132.363,96.203,128.031,96.203z"/>
	<path fill-rule="evenodd" clip-rule="evenodd" fill="#3D3533" d="M53.618,97.384c0-0.394,0-0.787,0-1.181c0.787,0,1.575,0,2.363,0
		c1.575,0,3.149,0,4.724,0c1.576,0,3.15,0,4.725,0C63.792,98.896,57.208,96.644,53.618,97.384z"/>
	<path fill-rule="evenodd" clip-rule="evenodd" fill="#3D3533" d="M68.973,96.203c3.938,0,7.875,0,11.812,0
		C79.511,98.159,70.247,98.159,68.973,96.203z"/>
	<path fill-rule="evenodd" clip-rule="evenodd" fill="#3D3533" d="M96.14,97.384c-3.976-0.748-10.971,1.522-12.993-1.181
		c4.331,0,8.663,0,12.993,0C96.14,96.597,96.14,96.99,96.14,97.384z"/>
	<path fill-rule="evenodd" clip-rule="evenodd" fill="#3D3533" d="M143.387,97.384c0-0.394,0-0.787,0-1.181
		c4.332,0,8.662,0,12.992,0C154.357,98.907,147.364,96.636,143.387,97.384z"/>
	<path fill-rule="evenodd" clip-rule="evenodd" fill="#3D3533" d="M170.555,96.203c-1.274,1.956-10.539,1.956-11.813,0
		C162.68,96.203,166.617,96.203,170.555,96.203z"/>
	<path fill-rule="evenodd" clip-rule="evenodd" fill="#8B0303" d="M65.43,109.196c0.74-3.59-1.512-10.174,1.181-11.812
		C65.87,100.975,68.123,107.559,65.43,109.196z"/>
	<path fill-rule="evenodd" clip-rule="evenodd" fill="#8B0303" d="M128.031,98.566c0-0.394,0-0.788,0-1.182c0.394,0,0.789,0,1.182,0
		c0,3.938,0,7.875,0,11.812C126.532,107.939,128.764,101.771,128.031,98.566z"/>
	<path fill-rule="evenodd" clip-rule="evenodd" fill="#BABA32" d="M39.444,113.921c49.216,0,98.431,0,147.647,0
		c0,0.787,0,1.575,0,2.362c-0.394,0-0.788,0-1.182,0C139.842,112.741,85.511,117.463,39.444,113.921z"/>
	<path fill-rule="evenodd" clip-rule="evenodd" fill="#EF8021" d="M86.691,119.826c9.449,0,18.899,0,28.348,0
		C108.326,121.793,93.404,121.793,86.691,119.826z"/>
	<path fill-rule="evenodd" clip-rule="evenodd" fill="#042628" d="M202.445,128.095c-23.232,1.968-54.725,1.968-77.957,0
		C150.475,128.095,176.459,128.095,202.445,128.095z"/>
	<path fill-rule="evenodd" clip-rule="evenodd" fill="#094D6F" d="M22.907,131.639c0.199-1.376,1.867-1.283,3.543-1.181
		c1.182,0,2.363,0,3.544,0c25.198,0,50.396,0,75.595,0c0,0.393,0,0.788,0,1.181C82.918,132.673,48.808,134.018,22.907,131.639z"/>
	<path fill-rule="evenodd" clip-rule="evenodd" fill="#295471" d="M124.488,131.639c22.295,2.479,57.847,0.369,74.414,1.182
		C177.227,134.017,144.2,136.34,124.488,131.639z"/>
	<path fill-rule="evenodd" clip-rule="evenodd" fill="#094D6F" d="M21.727,134.001c23.562,0.514,58.538-1.383,83.863,1.182
		c-27.955,0-55.909,0-83.863,0C21.727,134.788,21.727,134.395,21.727,134.001z"/>
	<path fill-rule="evenodd" clip-rule="evenodd" fill="#094D6F" d="M21.727,137.544c27.955,0,55.909,0,83.863,0
		c-23.25,5.492-56.682,0.803-83.863,2.362C21.727,139.119,21.727,138.332,21.727,137.544z"/>
	<path fill-rule="evenodd" clip-rule="evenodd" fill="#094D6F" d="M200.083,139.906c-22.292-1.642-60.431,3.175-82.682-2.362
		c27.56,0,55.121,0,82.682,0C200.083,138.332,200.083,139.119,200.083,139.906z"/>
	<path fill-rule="evenodd" clip-rule="evenodd" fill="#B3151F" d="M117.401,142.269c0-0.393,0-0.788,0-1.181
		c27.56,0,55.121,0,82.682,0c0,0.393,0,0.788,0,1.181C172.522,142.269,144.961,142.269,117.401,142.269z"/>
	<path fill-rule="evenodd" clip-rule="evenodd" fill="#E47E6B" d="M200.083,143.45c0.395,0,0.788,0,1.182,0
		c0,5.118,0,10.237,0,15.355c-0.394,0-0.787,0-1.182,0C200.083,153.688,200.083,148.568,200.083,143.45z"/>
	<path fill-rule="evenodd" clip-rule="evenodd" fill="#B3151F" d="M46.531,146.994c1.273-1.955,10.539-1.955,11.812,0
		c-1.969,0-3.938,0-5.906,0c0,3.149,0,6.299,0,9.448c-2.096,3.152-0.861-6.92-1.181-9.448c-1.181,0-2.362,0-3.543,0
		C47.318,146.994,46.925,146.994,46.531,146.994z"/>
	<path fill-rule="evenodd" clip-rule="evenodd" fill="#8B0303" d="M171.735,158.806c-1.97,0-3.937,0-5.906,0
		c-0.788,0-1.574,0-2.362,0c2.096-2.235,0.861-7.801,1.182-11.812c2.362,0,4.725,0,7.087,0
		C171.735,150.931,171.735,154.868,171.735,158.806z"/>
	<path fill-rule="evenodd" clip-rule="evenodd" fill="#8A7E71" d="M132.757,168.255c0-0.393,0-0.788,0-1.181
		c0.393,0,0.787,0,1.181,0c27.955,0,55.908,0,83.863,0c0,0.393,0,0.788,0,1.181c-0.394,0-0.787,0-1.182,0
		c-27.561,0-55.121,0-82.682,0C133.544,168.255,133.149,168.255,132.757,168.255z"/>
	<path fill-rule="evenodd" clip-rule="evenodd" fill="#898A89" d="M4.008,168.255c0.394,0,0.788,0,1.181,0c0,0.394,0,0.787,0,1.182
		c0,5.118,0,10.237,0,15.355c-0.394,0-0.787,0-1.181,0C4.008,179.279,4.008,173.768,4.008,168.255z"/>
	<path fill-rule="evenodd" clip-rule="evenodd" fill="#7B7D7E" d="M132.757,168.255c0.393,0,0.787,0,1.181,0
		c24.808,1.968,57.875,1.968,82.682,0c0.395,0,0.788,0,1.182,0c0,0.787,0,1.574,0,2.362c-1.716,0.646-6.105-1.381-5.905,1.182
		c-0.788,0-1.575,0-2.362,0c-21.363-6.709-57.229,4.928-77.958-1.182C131.25,170.521,132.789,168.341,132.757,168.255z"/>
	<path fill-rule="evenodd" clip-rule="evenodd" fill="#767676" d="M133.938,168.255c27.561,0,55.121,0,82.682,0
		C191.813,170.223,158.745,170.223,133.938,168.255z"/>
	<path fill-rule="evenodd" clip-rule="evenodd" fill="#767676" d="M8.733,171.799c24.019-2.755,53.151-0.396,79.138-1.182
		C63.853,173.372,34.72,171.012,8.733,171.799z"/>
	<path fill-rule="evenodd" clip-rule="evenodd" fill="#807B78" d="M87.872,170.617c0.394,0,0.788,0,1.181,0
		c-0.051,1.627,0.556,2.594,1.182,3.543c-1.182,0-2.363,0-3.543,0c-3.586-1.961-15.313-1.961-18.899,0
		c-17.532,0.835-31.752-1.897-47.247,0c-0.88-2.662-6.625-0.461-9.449-1.18c-1.655,0.088-4.518-0.265-2.362-1.182
		C34.72,171.012,63.853,173.372,87.872,170.617z"/>
	<path fill-rule="evenodd" clip-rule="evenodd" fill="#807B78" d="M133.938,174.16c0.12-1.325-1.718-1.838,0-2.361
		c25.198,0,50.397,0,75.596,0c0.787,0,1.574,0,2.362,0c-0.028,4.874-9.134-1.884-11.813,2.361c-3.149,0-6.299,0-9.449,0
		c-13-1.967-34.246-1.967-47.247,0C140.237,174.16,137.088,174.16,133.938,174.16z"/>
	<path fill-rule="evenodd" clip-rule="evenodd" fill="#767676" d="M67.792,174.16c3.585-1.961,15.313-1.961,18.899,0
		C80.391,174.16,74.092,174.16,67.792,174.16z"/>
	<path fill-rule="evenodd" clip-rule="evenodd" fill="#767676" d="M143.387,174.16c13.001-1.967,34.247-1.967,47.247,0
		C174.885,174.16,159.136,174.16,143.387,174.16z"/>
	<path fill-rule="evenodd" clip-rule="evenodd" fill="#536956" d="M54.799,180.066c0.067-0.721,0.177-1.397,1.182-1.181
		c2.362,0,4.724,0,7.087,0c1.39,0.185,3.352-0.204,3.543,1.181c0,0.788,0,1.574,0,2.362
		C65.489,178.827,59.257,180.333,54.799,180.066z"/>
	<path fill-rule="evenodd" clip-rule="evenodd" fill="#767676" d="M156.379,178.886c0,0.394,0,0.788,0,1.181
		c-1.375,0.198-1.282,1.867-1.18,3.544c-7.088,0-14.175,0-21.262,0c3.151-6.158,12.192,0.803,18.899-1.182
		c0.946-4.49-5.585-1.501-8.269-2.362C142.001,177.802,153.205,179.321,156.379,178.886z"/>
	<path fill-rule="evenodd" clip-rule="evenodd" fill="#FBD9B2" d="M105.59,187.154c0-1.182,0-2.362,0-3.544
		c4.674,0.051,10.604-1.156,10.63,3.544C112.677,187.154,109.133,187.154,105.59,187.154z"/>
	<path fill-rule="evenodd" clip-rule="evenodd" fill="#DCDDDD" d="M190.634,184.792c-3.585,1.962-15.313,1.962-18.898,0
		C178.035,184.792,184.335,184.792,190.634,184.792z"/>
	<path fill-rule="evenodd" clip-rule="evenodd" fill="#FCE9CF" d="M104.409,188.335c0-0.394,0-0.788,0-1.181
		c0.394,0,0.787,0,1.181,0c3.543,0,7.087,0,10.63,0c0.394,0,0.788,0,1.182,0c-1.638,2.692-8.222,0.439-11.812,1.181
		C105.196,188.335,104.802,188.335,104.409,188.335z"/>
	<path fill-rule="evenodd" clip-rule="evenodd" fill="#EF8021" d="M61.886,66.674c3.208,0.845-0.845-5.569,2.363-4.725
		c3.552-1.19,2.093,2.632,2.362,4.725c-0.225,0.957-1.186,1.178-1.181,2.362c22.643-2.587,61.124,0.515,87.407-2.362
		c2.231-0.523,7.117,1.606,5.905-2.362c-0.434-2.01,0.921-2.229,2.362-2.363c2.924,5.738,6.323,11.001,12.993,12.993
		c0.394,0,0.787,0,1.182,0c0.376,2.773,3.655,2.644,4.724,4.725c-2.155,3.636-6.62-2.373-8.268,1.181
		c8.262-0.638,18.881,7.148,22.442,3.544c2.058,1.091,6.339-0.041,5.905,3.543c-5.118,0-10.237,0-15.354,0
		C141.289,83.863,84.573,89.24,35.9,85.573c0.267,1.701,3.525,0.411,3.543,2.362c-3.938,0-7.875,0-11.812,0
		c7.467-4.738,17.448-6.962,30.71-5.906c-2.773-4.94-9.481,1.026-14.174-2.362C50.439,75.701,57.709,72.733,61.886,66.674z
		 M152.837,71.399c-25.987-2.754-57.09-0.396-85.045-1.181C93.779,72.972,124.88,70.613,152.837,71.399z M162.285,72.58
		c4.454-1.225,5.311,7.183,9.45,2.362C167.466,75.345,165.195,66.34,162.285,72.58z M96.14,82.029
		c-0.12-0.12,33.336,1.181,25.986,1.181c-14.434,0,1.043,0-12.993,0c-3.781,0-11.229-1.764-12.993,0
		c0.827-0.827,32.575-0.089,31.892,0c11.095-1.447-0.329-0.399-7.087-2.362C115.138,77.991,98.404,84.294,96.14,82.029z"/>
	<path fill-rule="evenodd" clip-rule="evenodd" fill="#F47E14" d="M194.178,84.392c-3.562,3.604-14.181-4.182-22.442-3.544
		c1.647-3.554,6.112,2.455,8.268-1.181C184.966,81.004,189.054,83.216,194.178,84.392z"/>
	<path fill-rule="evenodd" clip-rule="evenodd" fill="#F47E14" d="M39.444,87.935c-0.018-1.951-3.277-0.661-3.543-2.362
		c48.672,3.667,105.389-1.71,148.828,2.362C136.301,87.935,87.872,87.935,39.444,87.935z"/>
	<path fill-rule="evenodd" clip-rule="evenodd" fill="#F47E14" d="M35.9,82.029c3.346-0.197,4.922-2.166,8.268-2.362
		c4.693,3.389,11.401-2.578,14.174,2.362c-13.263-1.057-23.244,1.167-30.71,5.906c-1.576,0-3.15,0-4.725,0c-0.787,0-1.575,0-2.362,0
		c-1.667-5.21,7.068-0.019,7.087-3.543C31.871,85.087,33.347,83.019,35.9,82.029z"/>
	<path fill-rule="evenodd" clip-rule="evenodd" fill="#F47E14" d="M120.944,80.848c6.758,1.963,18.182,0.916,7.087,2.362
		c0.684-0.089-31.064-0.827-31.892,0c1.764-1.764,9.212,0,12.993,0c14.036,0-1.441,0,12.993,0c7.35,0-26.106-1.301-25.986-1.181
		C98.404,84.294,115.138,77.991,120.944,80.848z"/>
	<path fill-rule="evenodd" clip-rule="evenodd" fill="#042628" d="M187.091,90.297c2.446,0.703,7.76-1.459,8.269,1.182
		c-1.374-0.192-2.102,0.26-2.362,1.181c-1.182,0-2.363,0-3.544,0c-0.788,0-1.574,0-2.362,0
		C187.091,91.873,187.091,91.084,187.091,90.297z"/>
	<path fill-rule="evenodd" clip-rule="evenodd" fill="#295471" d="M60.705,96.203c-0.032-1.149-1.445-0.917-2.362-1.181
		c23.682-2.095,64.925-1.181,96.856-1.181c8.274,0,34.68-1.216,27.166,2.362c-0.393,0-0.788,0-1.181,0c-0.787,0-1.574,0-2.362,0
		c-1.768,3.278-4.831-2.05-5.905,1.181c-0.395,0-0.788,0-1.182,0c0.217-1.004-0.461-1.114-1.181-1.181c-3.938,0-7.875,0-11.813,0
		c-0.787,0-1.574,0-2.363,0c-4.33,0-8.66,0-12.992,0c-0.393,0-0.787,0-1.181,0s-0.788,0-1.182,0c-1.653-1.957-11.338-1.957-12.993,0
		c-0.788,0-1.574,0-2.362,0c-1.653-1.957-11.339-1.957-12.992,0c-0.394,0-0.787,0-1.182,0c-0.394,0-0.787,0-1.181,0
		c-1.273-1.955-10.539-1.955-11.812,0c-0.394,0-0.787,0-1.181,0s-0.788,0-1.182,0c-4.33,0-8.662,0-12.993,0
		c-0.787,0-1.575,0-2.362,0c-3.937,0-7.874,0-11.812,0c-1.181,0-2.362,0-3.543,0C63.854,96.203,62.28,96.203,60.705,96.203z"/>
	<path fill-rule="evenodd" clip-rule="evenodd" fill="#630203" d="M68.973,96.203c1.274,1.956,10.539,1.956,11.812,0
		c0.787,0,1.575,0,2.362,0c2.022,2.704,9.017,0.433,12.993,1.181c0,3.938,0,7.875,0,11.812c-4.33,0-8.662,0-12.993,0
		c-0.741-3.59,1.513-10.174-1.181-11.812c-2.693,1.638-0.44,8.222-1.181,11.812c-4.331,0-8.662,0-12.993,0c0-3.937,0-7.874,0-11.812
		c-0.394,0-0.788,0-1.181,0c-2.693,1.638-0.441,8.222-1.181,11.812c-4.331,0-8.662,0-12.993,0
		c-0.232-4.563-0.042-8.705,1.181-11.812c3.59-0.74,10.174,1.512,11.812-1.181C66.611,96.203,67.792,96.203,68.973,96.203z"/>
	<path fill-rule="evenodd" clip-rule="evenodd" fill="#630203" d="M97.321,97.384c3.977-0.748,10.971,1.522,12.993-1.181
		c0.394,0,0.787,0,1.181,0c0,0.394,0,0.787,0,1.181c-2.693,1.638-0.44,8.222-1.181,11.812c-3.938,0-7.875,0-11.812,0
		C98.735,104.633,98.544,100.492,97.321,97.384z"/>
	<path fill-rule="evenodd" clip-rule="evenodd" fill="#630203" d="M143.387,97.384c3.978-0.748,10.971,1.522,12.992-1.181
		c0.789,0,1.576,0,2.363,0c1.273,1.956,10.538,1.956,11.813,0c0.72,0.067,1.397,0.177,1.181,1.181
		c-2.694,1.638-0.44,8.222-1.181,11.812c-3.938,0-7.875,0-11.813,0c0-3.937,0-7.874,0-11.812c-4.892-0.167-1.229,8.219-2.363,11.812
		c-4.33,0-8.66,0-12.992,0C143.387,105.259,143.387,101.322,143.387,97.384z"/>
	<path fill-rule="evenodd" clip-rule="evenodd" fill="#FBFCF9" d="M181.185,109.196c0-4.331,0-8.662,0-12.993
		c0.393,0,0.788,0,1.181,0c0.788,0,1.574,0,2.363,0c0,4.331,0,8.663,0,12.993C183.547,109.196,182.365,109.196,181.185,109.196z"/>
	<path fill-rule="evenodd" clip-rule="evenodd" fill="#536956" d="M37.082,116.283c48.822,0,97.643,0,146.465,0
		c-46.46,2.756-98.037,0.394-146.465,1.182c47.642,2.756,100.4,0.394,150.009,1.182c0,0.394,0,0.786,0,1.18c-1.97,0-3.938,0-5.906,0
		c-22.049,0-44.097,0-66.146,0c-9.449,0-18.899,0-28.348,0c-15.749,0-31.498,0-47.247,0c-1.181,0-2.362,0-3.543,0
		C36.085,118.437,35.697,116.475,37.082,116.283z"/>
	<path fill-rule="evenodd" clip-rule="evenodd" fill="#F47E14" d="M39.444,119.826c15.749,0,31.498,0,47.247,0
		c6.713,1.967,21.635,1.967,28.348,0c22.049,0,44.097,0,66.146,0c-42.856,6.968-105.686-2.224-146.465,4.726
		c-3.765,1.009-4.484-1.029-5.906-2.363c-0.969,3.361-7.051,1.612-8.269,4.726c-1.87-0.099-4.506,0.567-4.725-1.182
		c3.025-0.912,6.696-1.179,8.268-3.544c2.119,0.15,2.492-1.445,4.725-1.181C30.217,122.064,39.995,124.335,39.444,119.826z"/>
	<path fill-rule="evenodd" clip-rule="evenodd" fill="#EF8021" d="M181.185,119.826c1.969,0,3.937,0,5.906,0
		c0.393,0,0.788,0,1.181,0c-15.117,7.325-43.039,1.847-63.783,3.544c13.823,6.257,40.915-0.754,56.696,3.544
		c-47.247,0-94.494,0-141.741,0c22.445-3.541,53.149,1.178,75.595-2.362c-23.138-0.693-59.825-4.706-79.139,2.362
		c-7.097,0.659-10.079-1.694-15.355,0c1.217-3.113,7.299-1.364,8.269-4.726c1.422,1.334,2.141,3.372,5.906,2.363
		C75.499,117.603,138.328,126.794,181.185,119.826z"/>
	<path fill-rule="evenodd" clip-rule="evenodd" fill="#F47E14" d="M188.271,119.826c5.982-0.863,8.668,1.569,11.812,3.544
		c-8.663,2.002-11.221-1.877-17.718,0c-0.286,5.8,11.435-0.409,12.994,3.544c-4.726,0-9.45,0-14.175,0
		c-15.781-4.298-42.873,2.713-56.696-3.544C145.232,121.673,173.154,127.151,188.271,119.826z"/>
	<path fill-rule="evenodd" clip-rule="evenodd" fill="#EF8021" d="M195.359,126.914c-1.56-3.953-13.28,2.256-12.994-3.544
		c6.497-1.877,9.055,2.002,17.718,0c1.908-0.331,2.034,1.116,3.544,1.182c0.198,1.376,1.867,1.282,3.544,1.181
		C203.368,128.904,199.397,124.883,195.359,126.914z"/>
	<path fill-rule="evenodd" clip-rule="evenodd" fill="#F47E14" d="M35.9,126.914c19.313-7.068,56-3.056,79.139-2.362
		c-22.446,3.54-53.15-1.179-75.595,2.362C38.263,126.914,37.082,126.914,35.9,126.914z"/>
	<path fill-rule="evenodd" clip-rule="evenodd" fill="#04243C" d="M17.001,128.095c2.756,0,5.512,0,8.268,0
		c0.225,0.956,1.186,1.179,1.181,2.363c-1.676-0.103-3.345-0.195-3.543,1.181c-0.394,0-0.787,0-1.181,0c-0.394,0-0.788,0-1.182,0
		c0.152-2.121-1.173-2.764-3.543-2.362C17.001,128.884,17.001,128.488,17.001,128.095z"/>
	<path fill-rule="evenodd" clip-rule="evenodd" fill="#536956" d="M117.401,136.364c-2.313-2.208-0.364-4.326,0-7.088
		c1.005-0.217,1.114,0.46,1.182,1.182c-5.175,7.637,9.948,3.865,15.354,4.725c7.48,0,14.962,0,22.441,0c14.568,0,29.138,0,43.704,0
		c0,0.393,0,0.787,0,1.182C172.522,136.364,144.961,136.364,117.401,136.364z"/>
	<path fill-rule="evenodd" clip-rule="evenodd" fill="#295471" d="M21.727,134.001c0-0.788,0-1.575,0-2.362c0.394,0,0.787,0,1.181,0
		c25.901,2.379,60.011,1.034,82.683,0c1.384,0.19,0.996,2.153,1.181,3.544c-0.394,0-0.787,0-1.181,0
		C80.264,132.618,45.289,134.515,21.727,134.001z"/>
	<path fill-rule="evenodd" clip-rule="evenodd" fill="#E69243" d="M117.401,129.276c-0.364,2.762-2.313,4.88,0,7.088
		c-1.005-0.219-1.114,0.459-1.182,1.18c-0.102,1.677-0.194,3.346,1.182,3.544c0,0.393,0,0.788,0,1.181
		c-1.495,1.354-9.313,2.373-10.631,0c0-0.393,0-0.788,0-1.181c0-1.182,0-2.362,0-3.544c0.394,0,0.788,0,1.181,0
		c0,0.395,0,0.788,0,1.182c0,1.181,0,2.362,0,3.543c2.363,0,4.725,0,7.087,0c0.031-3.642,0.703-13.999-2.362-10.63
		c-1.149-0.032-0.917-1.446-1.182-2.362C113.465,129.276,115.433,129.276,117.401,129.276z"/>
	<path fill-rule="evenodd" clip-rule="evenodd" fill="#536956" d="M112.677,131.639c2.734,2.625-0.401,4.606,0,8.268
		c-2.119,0.15-2.491-1.446-4.725-1.181c0-0.394,0-0.787,0-1.182c-0.767-4.31,0.796-6.291,2.363-8.268c0.394,0,0.787,0,1.181,0
		C111.76,130.192,111.527,131.606,112.677,131.639z"/>
	<path fill-rule="evenodd" clip-rule="evenodd" fill="#295471" d="M105.59,137.544c0.394,0,0.787,0,1.181,0c0,1.182,0,2.362,0,3.544
		c-28.348,0-56.696,0-85.044,0c0-0.394,0-0.787,0-1.182C48.908,138.347,82.34,143.036,105.59,137.544z"/>
	<path fill-rule="evenodd" clip-rule="evenodd" fill="#8B0303" d="M141.024,158.806c-1.574,0-3.149,0-4.724,0
		c-6.296-1.569-7.754,1.696-10.632,3.543c1.242-4.822-0.581-8.333,0-15.354c5.118,0,10.237,0,15.355,0
		c0.321,4.011-0.914,9.576,1.182,11.812C141.813,158.806,141.418,158.806,141.024,158.806z"/>
	<path fill-rule="evenodd" clip-rule="evenodd" fill="#B3151F" d="M97.321,156.442c1.585,0.778,2.2,2.525,2.362,4.726
		c1.968,0,3.937,0,5.906,0c-0.147,2.609-5.011,0.501-7.087,1.181c0.102-1.675,0.195-3.344-1.181-3.543
		C97.321,158.019,97.321,157.231,97.321,156.442z"/>
	<path fill-rule="evenodd" clip-rule="evenodd" fill="#D20305" d="M21.727,159.986c0-5.905,0-11.812,0-17.718
		c28.348,0,56.696,0,85.044,0c1.317,2.373,9.136,1.354,10.631,0c27.56,0,55.121,0,82.682,0c0,0.394,0,0.789,0,1.182
		c0,5.118,0,10.237,0,15.355c-5.118,0-10.237,0-15.354,0c-1.575,0-3.151,0-4.726,0c-0.416-4.702,1.474-11.711-2.362-12.993
		c-6.762-0.856-4.331,7.48-4.724,12.993c-0.395,0-0.788,0-1.182,0c0-3.938,0-7.875,0-11.812c-2.362,0-4.725,0-7.087,0
		c-0.32,4.011,0.914,9.576-1.182,11.812c-0.787,0-1.574,0-2.362,0c0-3.938,0-7.875,0-11.812c-5.118,0-10.237,0-15.355,0
		c-2.692,1.638-0.44,8.222-1.181,11.812c-0.394,0-0.787,0-1.182,0c-0.393,0-0.787,0-1.181,0c-2.096-2.235-0.86-7.801-1.182-11.812
		c-5.118,0-10.237,0-15.355,0c-0.581,7.021,1.242,10.532,0,15.354c-0.393,0-0.788,0-1.181,0c-1.182,0-2.362,0-3.544,0
		c-0.032-1.148-1.445-0.916-2.361-1.181c-2.499-2.404,2.327-9.577-1.182-12.993c-0.607-1.289-7.718,0.867-11.812,0
		c0,4.331,0,8.662,0,12.993c-1.969,0-3.938,0-5.906,0c-0.163-2.2-0.777-3.947-2.362-4.726c0-3.149,0-6.299,0-9.448
		c-4.331,0-8.662,0-12.993,0c-3.592,1.92,2.069,13.094-4.725,11.812c-1.606-1.954,0.964-6.891,0-11.812
		c-6.008,1.129-12.329-1.872-15.355,0c-2.694,1.638-0.44,8.222-1.181,11.812c-0.787,0-1.575,0-2.363,0
		c-2.937-1.788,0.725-10.174-2.362-11.812c-1.273-1.955-10.539-1.955-11.812,0c-0.787,0-1.575,0-2.362,0
		c-0.267,4.458,1.24,10.689-2.362,11.812c-0.953,1.017-3.235,0.701-3.543,2.362c1.181,0,2.362,0,3.543,0
		c-0.479,2.611-6.923,1.58-4.725-2.362c-1.968,0-3.938,0-5.906,0c-5.546-2.317-9.277,3.217-9.449,2.362
		C21.727,160.774,21.727,160.381,21.727,159.986z"/>
	<path fill-rule="evenodd" clip-rule="evenodd" fill="#630203" d="M105.59,161.168c0-4.331,0-8.662,0-12.993
		c4.094,0.867,11.204-1.289,11.812,0c3.509,3.416-1.317,10.589,1.182,12.993c0.916,0.265,2.329,0.032,2.361,1.181
		c-1.574,0-3.15,0-4.725,0c-0.263-1.688-5.878,1.097-9.449,0C106.987,161.344,106.31,161.234,105.59,161.168z"/>
	<path fill-rule="evenodd" clip-rule="evenodd" fill="#FCE9CF" d="M8.733,162.349c-0.333-1.907,1.117-2.032,1.181-3.543
		c3.176-0.813,2.283,2.442,3.543,3.543c3.048-0.101,1.243-5.057,5.906-3.543c0,1.181,0,2.362,0,3.543
		c-1.574-1.537-3.565-0.727-4.725,1.182C11.678,162.307,10.903,158.175,8.733,162.349z"/>
	<path fill-rule="evenodd" clip-rule="evenodd" fill="#FBD9B2" d="M8.733,162.349c2.169-4.174,2.945-0.042,5.906,1.182
		c1.16-1.908,3.151-2.719,4.725-1.182c1.185,0.004,1.406-0.956,2.363-1.181c0.172,0.854,3.903-4.68,9.449-2.362
		c-0.524,2.231,1.606,7.118-2.362,5.906c-6.093,2.568-16.793,0.53-24.805,1.181c0-1.574,0-3.15,0-4.725
		C5.06,162.085,6.676,162.438,8.733,162.349z"/>
	<path fill-rule="evenodd" clip-rule="evenodd" fill="#FCE9CF" d="M208.352,162.349c0.226-8.129,6.238,2.198,7.087-3.543
		c0.788,0,1.575,0,2.362,0c0.46,2.166,1.874,3.999,0,5.906C216.979,160.573,210.678,161.921,208.352,162.349z"/>
	<path fill-rule="evenodd" clip-rule="evenodd" fill="#FBD9B2" d="M208.352,162.349c2.326-0.428,8.627-1.775,9.449,2.363
		c0,0.393,0,0.788,0,1.181c-15.492-0.662-20.399,0.037-37.798,0c-3.257-4.844,7.001-2.243,4.726-7.087c5.117,0,10.236,0,15.354,0
		c0.395,0,0.788,0,1.182,0c-0.053,2.021,0.878,3.059,2.362,3.543c-0.401-2.369,0.241-3.695,2.362-3.543
		C205.588,161.176,206.23,162.501,208.352,162.349z"/>
	<path fill-rule="evenodd" clip-rule="evenodd" fill="#F6D0A4" d="M31.176,158.806c1.968,0,3.938,0,5.906,0
		c-2.198,3.942,4.246,4.974,4.725,2.362c-1.182,0-2.362,0-3.543,0c0.308-1.661,2.591-1.346,3.543-2.362c3.938,0,7.875,0,11.812,0
		c1.191,3.553-2.631,2.093-4.724,2.362c0.365,1.604,2.957,0.98,4.724,1.181c0.333,1.908-1.117,2.034-1.181,3.544
		c-10.035-0.724-16.563,1.011-23.623-1.181C32.782,165.924,30.652,161.037,31.176,158.806z"/>
	<path fill-rule="evenodd" clip-rule="evenodd" fill="#8F432E" d="M59.523,158.806c0.566,3.716-1.682,4.617-2.362,7.087
		c-1.575,0-3.15,0-4.725,0c0.064-1.51,1.514-1.636,1.181-3.544c-1.767-0.2-4.359,0.423-4.724-1.181
		c2.093-0.27,5.915,1.19,4.724-2.362C55.586,158.806,57.555,158.806,59.523,158.806z"/>
	<path fill-rule="evenodd" clip-rule="evenodd" fill="#FBD9B2" d="M78.422,158.806c2.045,6.375-7.525,1.137-5.906,7.087
		c-5.119,0-10.236,0-15.355,0c0.68-2.47,2.928-3.371,2.362-7.087c0.394,0,0.788,0,1.181,0c0.788,0,1.576,0,2.363,0
		C67.891,157.564,71.401,159.388,78.422,158.806z"/>
	<path fill-rule="evenodd" clip-rule="evenodd" fill="#F6D0A4" d="M72.517,165.893c-1.619-5.95,7.951-0.712,5.906-7.087
		c1.384,0.19,0.996,2.153,1.181,3.543c1.181,0,2.362,0,3.543,0c2.668-0.66-1.432-1.842,1.182-3.543c1.968,0,3.937,0,5.906,0
		c2.044,6.375-7.525,1.137-5.906,7.087C80.391,165.893,76.454,165.893,72.517,165.893z"/>
	<path fill-rule="evenodd" clip-rule="evenodd" fill="#FBD9B2" d="M84.329,165.893c-1.619-5.95,7.95-0.712,5.906-7.087
		c2.362,0,4.725,0,7.087,0c1.376,0.199,1.283,1.868,1.181,3.543c0.938,9.994-2.605,15.507-2.363,24.806
		c-1.569,1.533-4.395,1.557-4.724-1.182c0-0.393,0-0.788,0-1.181c1.149-0.033,0.917-1.445,1.181-2.363
		c-0.056-5.569,2.075-8.949,2.362-14.174C95.417,163.466,87.598,166.954,84.329,165.893z"/>
	<path fill-rule="evenodd" clip-rule="evenodd" fill="#898A89" d="M98.502,162.349c2.076-0.68,6.94,1.429,7.087-1.181
		c0.72,0.066,1.397,0.176,1.181,1.181c0,2.363,0,4.726,0,7.088c0.217,1.004-0.461,1.114-1.181,1.181
		c-0.646-1.717,1.38-6.104-1.181-5.905c-1.139,0.836,0.773,8.608,0,12.992c-1.182,0-2.363,0-3.544,0
		c0.267,1.506,3.525,1.548,3.544,0c0.394,0,0.787,0,1.181,0c0,1.97,0,3.937,0,5.906c0,1.182,0,2.362,0,3.544
		c-0.394,0-0.788,0-1.181,0c-0.03-3.121,1.101-7.401-3.544-5.906c1.489,1.578,3.55,2.319,1.181,4.725
		c-1.341-0.226-0.656-1.185,0-1.181c-0.015-2.775-3.223,0.431-2.362,2.362c-1.181,0-2.362,0-3.544,0
		C95.897,177.855,99.44,172.343,98.502,162.349z"/>
	<path fill-rule="evenodd" clip-rule="evenodd" fill="#FBD9B2" d="M116.22,162.349c0,1.182,0,2.363,0,3.544c0,0.394,0,0.788,0,1.182
		c-1.717,2.22-7.731,0.143-9.449,2.362c0-2.362,0-4.725,0-7.088C110.342,163.445,115.957,160.661,116.22,162.349z"/>
	<path fill-rule="evenodd" clip-rule="evenodd" fill="#F6D0A4" d="M117.401,169.437c-1.604,0.366-0.98,2.958-1.182,4.724
		c-1.2-0.766-1.221-2.715-3.543-2.361c-1.285,4.828,4.064,3.021,4.725,5.905c1.826,1.718,1.04,6.047,1.182,9.45
		c-0.394,0-0.789,0-1.182,0c-0.394,0-0.788,0-1.182,0c-0.025-4.7-5.956-3.493-10.63-3.544c0-1.97,0-3.937,0-5.906
		c0-2.362,0-4.724,0-7.087c0.72-0.066,1.397-0.177,1.181-1.181c1.718-2.22,7.732-0.143,9.449-2.362c0-0.394,0-0.788,0-1.182
		C117.604,166.082,117.217,168.047,117.401,169.437z"/>
	<path fill-rule="evenodd" clip-rule="evenodd" fill="#898A89" d="M120.944,162.349c1.182,0,2.362,0,3.544,0
		c-0.698,5.029,0.85,7.813,1.181,11.812c-3.358-3.715-7.462,3.377,0,3.544c1.867,2.069,1.582,6.294,2.362,9.45
		c-3.15,0-6.299,0-9.448,0c-0.142-3.403,0.645-7.732-1.182-9.45c0-2.756,0-5.512,0-8.268c-0.185-1.39,0.203-3.354-1.182-3.544
		c0-1.181,0-2.362,0-3.544C117.794,162.349,119.37,162.349,120.944,162.349z"/>
	<path fill-rule="evenodd" clip-rule="evenodd" fill="#7B7D7E" d="M125.669,177.704c-7.462-0.167-3.358-7.259,0-3.544
		C125.669,175.342,125.669,176.522,125.669,177.704z"/>
	<path fill-rule="evenodd" clip-rule="evenodd" fill="#FBD9B2" d="M125.669,162.349c2.878-1.847,4.336-5.112,10.632-3.543
		c-2.324,5.045,7.048,5.045,4.724,0c0.394,0,0.788,0,1.182,0s0.788,0,1.181,0c-3.688,4.931,5.188,2.476,1.182,7.087
		c-3.205,0.731-9.374-1.499-10.631,1.182c-0.394,0-0.788,0-1.181,0c-1.182,0-2.362,0-3.544,0c0,1.574,0,3.149,0,4.725
		c-0.976,3.339,1.665,3.06,1.182,5.905c0.124,3.025,0.669,5.632,2.362,7.088c0.393,0,0.787,0,1.181,0c0,0.393,0,0.788,0,1.181
		c-1.005-0.217-1.114,0.46-1.181,1.182c-2.2-1.13-3.947,3.537-4.726,0c-0.78-3.156-0.495-7.381-2.362-9.45c0-1.182,0-2.362,0-3.544
		c-0.331-3.998-1.879-6.782-1.181-11.812C124.881,162.349,125.276,162.349,125.669,162.349z"/>
	<path fill-rule="evenodd" clip-rule="evenodd" fill="#D2AE91" d="M149.293,158.806c-1.237,4.498,4.752,3.626,1.182,7.087
		c-1.97,0-3.938,0-5.906,0c4.007-4.611-4.869-2.156-1.182-7.087c0.395,0,0.788,0,1.182,0
		C146.143,158.806,147.719,158.806,149.293,158.806z"/>
	<path fill-rule="evenodd" clip-rule="evenodd" fill="#F6D0A4" d="M165.829,158.806c-1.532,2.772,0.601,2.644-2.362,4.725
		c4.685,1.817,7.965,0.296,15.355-1.182c0.376-3.133-6.616,1.105-4.725-3.543c1.969,0,3.938,0,5.905,0c1.574,0,3.15,0,4.726,0
		c2.275,4.844-7.982,2.243-4.726,7.087c-10.366,0.442-22.497-0.684-29.528,0c3.57-3.461-2.419-2.589-1.182-7.087
		c3.937,0,7.875,0,11.812,0c0.788,0,1.575,0,2.362,0C164.255,158.806,165.041,158.806,165.829,158.806z"/>
	<path fill-rule="evenodd" clip-rule="evenodd" fill="#7B7D7E" d="M105.59,170.617c0,2.363,0,4.725,0,7.087
		c-0.394,0-0.788,0-1.181,0c-0.019,1.548-3.277,1.506-3.544,0c1.181,0,2.362,0,3.544,0c0.773-4.384-1.139-12.156,0-12.992
		C106.97,164.513,104.943,168.9,105.59,170.617z"/>
	<path fill-rule="evenodd" clip-rule="evenodd" fill="#807B78" d="M99.684,187.154c-0.861-1.932,2.347-5.138,2.362-2.362
		c-0.656-0.004-1.341,0.955,0,1.181c2.369-2.405,0.308-3.146-1.181-4.725c4.645-1.495,3.514,2.785,3.544,5.906
		C102.833,187.154,101.259,187.154,99.684,187.154z"/>
	<path fill-rule="evenodd" clip-rule="evenodd" fill="#767676" d="M211.896,171.799c-0.2-2.563,4.189-0.536,5.905-1.182
		c0,1.575,0,3.15,0,4.725c-6.207,4.087-9.617-3.374-17.718-1.182C202.762,169.915,211.867,176.673,211.896,171.799z"/>
	<path fill-rule="evenodd" clip-rule="evenodd" fill="#767676" d="M9.915,184.792c0.321-4.012-0.915-9.576,1.181-11.812
		c2.824,0.719,8.569-1.482,9.449,1.18c-3.149,0-6.299,0-9.449,0c1.14,2.404,4.536,2.553,8.268,2.362
		c-0.19,1.385-2.154,0.997-3.543,1.182c0.191,1.385,2.153,0.997,3.543,1.182c-0.225,0.956-1.185,1.178-1.181,2.362
		c-4.055,0.93-6.088-1.104-3.543-3.544c-6.997,0.006-0.46,4.802-3.543,7.088C10.702,184.792,10.308,184.792,9.915,184.792z"/>
	<path fill-rule="evenodd" clip-rule="evenodd" fill="#536956" d="M18.183,181.248c-0.004-1.185,0.957-1.406,1.181-2.362
		c3.543,0,7.087,0,10.631,0c0,0.394,0,0.788,0,1.181c-4.416,0.704-12.861-2.624-10.631,4.726c-0.394,0-0.788,0-1.181,0
		C18.183,183.61,18.183,182.429,18.183,181.248z"/>
	<path fill-rule="evenodd" clip-rule="evenodd" fill="#7B7D7E" d="M19.364,178.886c-1.39-0.185-3.353,0.203-3.543-1.182
		c1.39-0.185,3.353,0.203,3.543-1.182c-3.732,0.19-7.128,0.042-8.268-2.362c3.15,0,6.3,0,9.449,0
		c15.495-1.897,29.715,0.835,47.247,0c6.3,0,12.599,0,18.899,0c1.181,0,2.362,0,3.543,0c-1.732,1.873-2.438,9.378,2.362,8.269
		c-0.265,0.918-0.032,2.33-1.181,2.363c-0.787,0-1.576,0-2.363,0c0.26-3.804-2.089-4.999-1.181-9.45
		c-7.495,0.379-16.749-1-22.442,1.181c3.401,1.001,14.245-0.687,21.261,0c-3,7.139-16.81-3.593-20.08,3.544
		c-0.191-1.385-2.154-0.996-3.543-1.181c-0.333-1.908,1.116-2.033,1.181-3.544c-1.465,2.481-12.593-3.056-8.268,3.544
		c-1.005-0.217-1.115,0.46-1.182,1.181c-0.575-0.092-15.888,7.163-17.717-2.362c2.235-2.096,7.802-0.86,11.812-1.182
		c0.721,4.659-6.485,1.392-9.45,2.363c1.991,2.294,11.282,1.901,11.812-1.182c-1.661-4.638-11.202-1.398-16.536-2.362
		c-2.787,1.002,3.254,2.909,1.181,7.087c4.489,2.204,13.651-0.264,17.717,2.363c-7.087,0-14.174,0-21.261,0
		c2.857-3.987-3.609-5.258,0-9.45c-3.59,0.741-10.173-1.512-11.812,1.181c1.888,3.313,5.316-1.658,9.45,0c0,0.788,0,1.575,0,2.363
		C26.451,178.886,22.907,178.886,19.364,178.886z"/>
	<path fill-rule="evenodd" clip-rule="evenodd" fill="#767676" d="M66.611,180.066c3.27-7.137,17.08,3.595,20.08-3.544
		c-7.016-0.687-17.86,1.001-21.261,0c5.693-2.181,14.947-0.802,22.442-1.181c-0.908,4.451,1.441,5.646,1.181,9.45
		c-0.787,0-1.575,0-2.362,0c-0.191-1.385-2.154-0.997-3.544-1.182c-3.869-0.513-16.087,1.193-14.174-1.182
		c5.906,0,11.812,0,17.718,0c-1.872-5.215-13.171-1.004-18.899-2.362c0.192,1.374-0.26,2.102-1.181,2.362
		C66.611,181.641,66.611,180.854,66.611,180.066z"/>
	<path fill-rule="evenodd" clip-rule="evenodd" fill="#767676" d="M55.98,178.886c-4.325-6.6,6.803-1.063,8.268-3.544
		c-0.065,1.511-1.514,1.636-1.181,3.544C60.705,178.886,58.343,178.886,55.98,178.886z"/>
	<path fill-rule="evenodd" clip-rule="evenodd" fill="#767676" d="M53.618,184.792c-4.066-2.627-13.228-0.159-17.717-2.363
		c2.073-4.178-3.968-6.085-1.181-7.087c5.334,0.964,14.875-2.275,16.536,2.362c-0.529,3.083-9.82,3.476-11.812,1.182
		c2.964-0.972,10.171,2.296,9.45-2.363c-4.01,0.321-9.577-0.914-11.812,1.182c1.83,9.525,17.142,2.271,17.717,2.362
		c0,1.574,0,3.15,0,4.726C54.405,184.792,54.012,184.792,53.618,184.792z"/>
	<path fill-rule="evenodd" clip-rule="evenodd" fill="#767676" d="M204.808,183.61c5.999-5.479-11.28-6.939-11.811-2.362
		c2.762,4.129-17.754,2.247-7.088,1.181c9.556-0.955,1.27-3.2-3.544-2.362c-1.271-3.25,18.991,2.068,8.269-3.544
		c-19.314-1.527,3.539,0.241,9.449-1.181c4.421,3.388,9.552,4.248,16.536,2.362c0.948,4.49-5.585,1.502-8.268,2.362
		c-0.081,5.809,7.427-0.463,8.268,2.362c0.194,3.344-7.28-0.98-7.086,2.363c-1.87,0.098-4.506-0.567-4.726,1.181
		c-0.393,0-0.788,0-1.181,0C203.624,184.788,204.583,184.566,204.808,183.61z"/>
	<path fill-rule="evenodd" clip-rule="evenodd" fill="#7B7D7E" d="M192.997,181.248c0,1.181,0,2.362,0,3.544
		c-0.788,0-1.575,0-2.363,0c-6.299,0-12.599,0-18.898,0c-0.788,0-1.575,0-2.362,0c0.377-2.74-0.19-4.535-1.182-5.906
		c-3.937,0-7.874,0-11.813,0c-3.174,0.436-14.378-1.084-11.811,1.181c2.684,0.861,9.215-2.128,8.269,2.362
		c-6.707,1.984-15.748-4.977-18.899,1.182c7.087,0,14.174,0,21.262,0c-0.103-1.677-0.195-3.346,1.18-3.544c0,1.574,0,3.15,0,4.726
		c-7.479,0-14.961,0-22.441,0c-0.394,0-0.788,0-1.181,0c-0.857-3.613,2.038-3.476,1.181-7.088c7.477,1.214,14.194-3.425,20.08,0
		c-3.84-5.069-19.241-2.171-23.623,0c0.483-2.846-2.157-2.566-1.182-5.905c1.854,0.507,1.01,3.715,4.725,2.361c3.15,0,6.3,0,9.449,0
		c15.749,0,31.498,0,47.247,0c3.15,0,6.3,0,9.449,0c8.101-2.192,11.511,5.269,17.718,1.182c1.242,7.148-0.3,11.512-8.268,9.45
		c-0.194-3.344,7.28,0.98,7.086-2.363c-0.841-2.825-8.349,3.446-8.268-2.362c2.683-0.86,9.216,2.128,8.268-2.362
		c-6.984,1.886-12.115,1.025-16.536-2.362c-5.91,1.422-28.764-0.347-9.449,1.181c10.723,5.612-9.54,0.294-8.269,3.544
		c4.813-0.838,13.1,1.407,3.544,2.362C175.243,183.495,195.759,185.377,192.997,181.248z"/>
	<path fill-rule="evenodd" clip-rule="evenodd" fill="#767676" d="M130.395,177.704c4.382-2.171,19.783-5.069,23.623,0
		c-5.886-3.425-12.604,1.214-20.08,0c0.857,3.612-2.038,3.475-1.181,7.088C131.063,183.336,130.519,180.729,130.395,177.704z"/>
	<path fill-rule="evenodd" clip-rule="evenodd" fill="#767676" d="M32.356,184.792c-1.373-0.193-2.101,0.26-2.362,1.181
		c-0.394,0-0.788,0-1.181,0c0.991-1.372,1.558-3.166,1.181-5.906c0-0.393,0-0.787,0-1.181c0-0.788,0-1.575,0-2.363
		c-4.133-1.658-7.562,3.313-9.45,0c1.638-2.692,8.222-0.439,11.812-1.181C28.748,179.534,35.214,180.805,32.356,184.792z"/>
	<path fill-rule="evenodd" clip-rule="evenodd" fill="#7B7D7E" d="M65.43,184.792c-0.004-1.185,0.957-1.407,1.181-2.363
		c0.921-0.261,1.373-0.988,1.181-2.362c5.728,1.358,17.027-2.853,18.899,2.362c-5.906,0-11.812,0-17.718,0
		c-1.913,2.375,10.306,0.669,14.174,1.182c1.39,0.185,3.353-0.203,3.544,1.182C79.604,184.792,72.517,184.792,65.43,184.792z"/>
	<path fill-rule="evenodd" clip-rule="evenodd" fill="#536956" d="M192.997,181.248c0.53-4.577,17.81-3.117,11.811,2.362
		c1.581-6.306-6.919-2.529-10.63-3.544c-0.854,3.609,1.208,4.305,1.182,7.088c-1.283-0.292-0.802-2.35-2.362-2.362
		C192.997,183.61,192.997,182.429,192.997,181.248z"/>
	<path fill-rule="evenodd" clip-rule="evenodd" fill="#536956" d="M156.379,180.066c0-0.393,0-0.787,0-1.181
		c3.938,0,7.876,0,11.813,0c0.991,1.371,1.559,3.166,1.182,5.906c-0.394,0-0.788,0-1.182,0c3.407-7.127-14.038-7.127-10.631,0
		c-0.393,0-0.787,0-1.182,0C156.379,183.217,156.379,181.641,156.379,180.066z"/>
	<path fill-rule="evenodd" clip-rule="evenodd" fill="#3D3533" d="M19.364,184.792c-2.23-7.35,6.215-4.021,10.631-4.726
		c0.376,2.74-0.19,4.534-1.181,5.906c-0.625,0.951-1.233,1.917-1.181,3.544c-4.988,1.051-6.671-1.204-8.269-3.544
		C19.364,185.58,19.364,185.185,19.364,184.792z"/>
	<path fill-rule="evenodd" clip-rule="evenodd" fill="#3D3533" d="M54.799,180.066c4.458,0.267,10.69-1.239,11.812,2.362
		c-0.225,0.956-1.186,1.179-1.181,2.363c0,0.393,0,0.788,0,1.181c-0.324,4.266-9.47,5.3-9.449,0
		c-0.067-0.722-0.177-1.398-1.182-1.181C54.799,183.217,54.799,181.641,54.799,180.066z"/>
	<path fill-rule="evenodd" clip-rule="evenodd" fill="#F4AA85" d="M66.611,66.674c-0.27-2.093,1.19-5.915-2.362-4.725
		c-3.208-0.845,0.845,5.57-2.363,4.725c0-0.394,0-0.787,0-1.181c0.646-1.717-1.379-6.105,1.182-5.906
		c2.057-0.088,3.673,0.264,4.725,1.181c0,0.394,0,0.787,0,1.181s0,0.787,0,1.181c0,0.788,0,1.575,0,2.363c0,0.394,0,0.787,0,1.181
		C67.398,66.674,67.004,66.674,66.611,66.674z"/>
	<path fill-rule="evenodd" clip-rule="evenodd" fill="#FBF6E8" d="M21.727,83.21c1.37,0.992,3.167,1.558,5.906,1.182
		c-0.02,3.524-8.754-1.667-7.087,3.543c-3.553,1.19-2.093-2.631-2.362-4.725C19.364,83.21,20.545,83.21,21.727,83.21z"/>
	<path fill-rule="evenodd" clip-rule="evenodd" fill="#C36C34" d="M184.729,87.935c5.117,0,10.236,0,15.354,0
		c-0.066,0.721-0.176,1.398-1.181,1.181c-58.272,0-116.542,0-174.814,0c-0.72-0.066-1.398-0.177-1.181-1.181
		c1.575,0,3.149,0,4.725,0c3.937,0,7.874,0,11.812,0C87.872,87.935,136.301,87.935,184.729,87.935z"/>
	<path fill-rule="evenodd" clip-rule="evenodd" fill="#3D3533" d="M26.451,91.479c-0.013-1.562-2.07-1.08-2.362-2.363
		c58.271,0,116.542,0,174.814,0c0,0.394,0,0.787,0,1.181c-1.908-0.333-2.033,1.117-3.543,1.182
		c-0.509-2.641-5.822-0.479-8.269-1.182c-42.916,0-85.833,0-128.748,0c-0.394,0-0.788,0-1.181,0c-5.906,0-11.812,0-17.718,0
		c-0.394,0-0.788,0-1.181,0c-2.824,0.72-8.57-1.483-9.449,1.182c-0.394,0-0.787,0-1.181,0
		C27.238,91.479,26.845,91.479,26.451,91.479z"/>
	<path fill-rule="evenodd" clip-rule="evenodd" fill="#04243C" d="M28.813,91.479c0.879-2.665,6.625-0.462,9.449-1.182
		c0,0.787,0,1.576,0,2.363c-1.005-0.217-1.114,0.46-1.181,1.181C34.847,92.532,31.501,92.334,28.813,91.479z"/>
	<path fill-rule="evenodd" clip-rule="evenodd" fill="#04243C" d="M58.343,90.297c42.916,0,85.832,0,128.748,0
		c0,0.787,0,1.576,0,2.363c0.788,0,1.574,0,2.362,0c-0.261,0.92-0.988,1.373-2.362,1.181c-1.372-0.992-3.167-1.558-5.906-1.181
		C142.992,89.117,96.535,93.84,58.343,90.297z"/>
	<path fill-rule="evenodd" clip-rule="evenodd" fill="#FFFFFF" d="M26.451,91.479c0.394,0,0.787,0,1.182,0
		c2.125,2.309,0.441,7.154-3.544,3.543C24.201,93.166,23.931,90.927,26.451,91.479z"/>
	<path fill-rule="evenodd" clip-rule="evenodd" fill="#295471" d="M47.712,96.203c-1.575,0-3.149,0-4.725,0c-1.575,0-3.15,0-4.725,0
		c-0.394,0-0.787,0-1.181,0c0-0.787,0-1.575,0-2.362c3.543,0,7.087,0,10.63,0C47.712,94.628,47.712,95.416,47.712,96.203z"/>
	<path fill-rule="evenodd" clip-rule="evenodd" fill="#295471" d="M55.98,96.203c-0.788,0-1.576,0-2.363,0
		c-1.004-0.217-1.114,0.461-1.181,1.181c-1.676,0.102-3.345,0.195-3.543-1.181C47.328,91.942,60.882,93.219,55.98,96.203z"/>
	<path fill-rule="evenodd" clip-rule="evenodd" fill="#094D6F" d="M187.091,93.841c0,0.787,0,1.575,0,2.362
		c-0.394,0-0.788,0-1.182,0c-0.393,0-0.788,0-1.181,0c-0.789,0-1.575,0-2.363,0c7.514-3.578-18.892-2.362-27.166-2.362
		c-31.932,0-73.175-0.915-96.856,1.181c0.917,0.265,2.33,0.032,2.362,1.181c-1.575,0-3.149,0-4.724,0
		c4.901-2.984-8.653-4.261-7.087,0c-0.395,0-0.788,0-1.182,0c0-0.787,0-1.575,0-2.362c-3.543,0-7.087,0-10.63,0
		c0.067-0.721,0.176-1.398,1.181-1.181c5.119,0,10.236,0,15.355,0c0.787,0,1.575,0,2.363,0c41.735,0,83.47,0,125.204,0
		C183.924,92.283,185.719,92.85,187.091,93.841z"/>
	<path fill-rule="evenodd" clip-rule="evenodd" fill="#3D3533" d="M42.987,106.834c0-3.543,0-7.087,0-10.631
		c1.575,0,3.149,0,4.725,0c-0.19,1.385-2.154,0.996-3.543,1.181C43.449,100.209,45.651,105.955,42.987,106.834z"/>
	<path fill-rule="evenodd" clip-rule="evenodd" fill="#630203" d="M113.857,97.384c4.726,0,9.449,0,14.174,0
		c0,0.394,0,0.788,0,1.182c-5.804,0.745,0.618,6.372-1.181,10.63c-4.331,0-8.661,0-12.993,0
		C113.857,105.259,113.857,101.322,113.857,97.384z"/>
	<path fill-rule="evenodd" clip-rule="evenodd" fill="#630203" d="M129.213,97.384c4.331,0,8.662,0,12.993,0
		c-2.096,2.236-0.86,7.802-1.182,11.812c-3.937,0-7.875,0-11.812,0C129.213,105.259,129.213,101.322,129.213,97.384z"/>
	<path fill-rule="evenodd" clip-rule="evenodd" fill="#8B0303" d="M171.735,97.384c0.394,0,0.787,0,1.182,0
		c2.692,1.638,0.439,8.222,1.181,11.812c-2.682-1.257-0.45-7.425-1.181-10.63c-3.435,0.897,1.07,9.734-2.362,10.63
		C171.295,105.606,169.041,99.022,171.735,97.384z"/>
	<path fill-rule="evenodd" clip-rule="evenodd" fill="#FBFCF9" d="M38.263,97.384c1.181,0,2.362,0,3.543,0c0,1.182,0,2.363,0,3.544
		c-4.256,0.858-0.768,3.682-2.362,8.268c-0.394,0-0.788,0-1.181,0C38.263,105.259,38.263,101.322,38.263,97.384z"/>
	<path fill-rule="evenodd" clip-rule="evenodd" fill="#FFFFFF" d="M39.444,109.196c1.594-4.586-1.894-7.41,2.362-8.268
		c0,2.756,0,5.512,0,8.268C41.019,109.196,40.231,109.196,39.444,109.196z"/>
	<path fill-rule="evenodd" clip-rule="evenodd" fill="#DEC5AD" d="M41.806,109.196c0-2.756,0-5.512,0-8.268c0-1.181,0-2.362,0-3.544
		c-1.182,0-2.362,0-3.543,0c0-0.394,0-0.787,0-1.181c1.575,0,3.15,0,4.725,0c0,3.544,0,7.087,0,10.631c0,0.787,0,1.575,0,2.362
		C42.594,109.196,42.2,109.196,41.806,109.196z"/>
	<path fill-rule="evenodd" clip-rule="evenodd" fill="#630203" d="M52.437,97.384c-2.096,2.236-0.861,7.802-1.181,11.812
		c-2.756,0-5.512,0-8.268,0c0-0.787,0-1.575,0-2.362c2.664-0.879,0.462-6.625,1.181-9.45c1.39-0.185,3.353,0.204,3.543-1.181
		c0.394,0,0.787,0,1.182,0C49.091,97.58,50.76,97.486,52.437,97.384z"/>
	<path fill-rule="evenodd" clip-rule="evenodd" fill="#EF8021" d="M35.9,119.826c1.181,0,2.362,0,3.543,0
		c0.551,4.509-9.227,2.238-10.63,1.182c-0.217-1.004,0.46-1.113,1.181-1.182C31.963,119.826,33.932,119.826,35.9,119.826z"/>
	<path fill-rule="evenodd" clip-rule="evenodd" fill="#04243C" d="M96.14,128.095c9.45,0,18.899,0,28.349,0
		c23.232,1.968,54.725,1.968,77.957,0c0.788,0,1.574,0,2.362,0c-0.777,1.585-2.524,2.2-4.725,2.363c-27.166,0-54.334,0-81.5,0
		c-0.067-0.722-0.177-1.398-1.182-1.182c-1.969,0-3.937,0-5.906,0c-0.394,0-0.787,0-1.181,0c-1.871,0.098-4.506-0.567-4.725,1.182
		c-25.199,0-50.397,0-75.595,0C49.291,126.918,76.843,131.634,96.14,128.095z"/>
	<path fill-rule="evenodd" clip-rule="evenodd" fill="#042628" d="M204.808,128.095c1.97,0,3.938,0,5.906,0
		c2.574,2.271-5.895,3.487-9.449,3.544c-0.394,0-0.787,0-1.182,0c0-0.393,0-0.788,0-1.181
		C202.283,130.295,204.03,129.68,204.808,128.095z"/>
	<path fill-rule="evenodd" clip-rule="evenodd" fill="#042628" d="M20.545,131.639c-4.701,0.764-4.748-3.127-9.449-2.362
		c0-0.393,0-0.788,0-1.182c1.968,0,3.938,0,5.906,0c0,0.394,0,0.789,0,1.182C19.372,128.875,20.697,129.518,20.545,131.639z"/>
	<path fill-rule="evenodd" clip-rule="evenodd" fill="#094D6F" d="M118.583,130.458c27.166,0,54.334,0,81.5,0
		c0,0.393,0,0.788,0,1.181c0,1.182,0,2.362,0,3.544c-14.566,0-29.136,0-43.704,0c-7.479,0-14.961,0-22.441,0
		C128.531,134.323,113.408,138.095,118.583,130.458z M198.902,132.82c-16.567-0.813-52.119,1.297-74.414-1.182
		C144.2,136.34,177.227,134.017,198.902,132.82z"/>
	<path fill-rule="evenodd" clip-rule="evenodd" fill="#A7612E" d="M106.771,135.183c-0.185-1.391,0.203-3.354-1.181-3.544
		c0-0.393,0-0.788,0-1.181c0.219-1.749,2.854-1.084,4.725-1.182c-1.567,1.977-3.129,3.958-2.363,8.268c-0.394,0-0.787,0-1.181,0
		c0-0.393,0-0.787,0-1.18C106.771,135.97,106.771,135.575,106.771,135.183z"/>
	<path fill-rule="evenodd" clip-rule="evenodd" fill="#536956" d="M105.59,135.183c0.394,0,0.787,0,1.181,0c0,0.393,0,0.787,0,1.182
		c-28.348,0-56.696,0-85.044,0c0-0.395,0-0.789,0-1.182C49.681,135.183,77.635,135.183,105.59,135.183z"/>
	<path fill-rule="evenodd" clip-rule="evenodd" fill="#A7B3B6" d="M200.083,136.364c0-0.395,0-0.789,0-1.182
		c0-1.182,0-2.362,0-3.544c0.395,0,0.788,0,1.182,0c0,3.937,0,7.875,0,11.812c-0.394,0-0.787,0-1.182,0c0-0.393,0-0.788,0-1.182
		c0-0.393,0-0.788,0-1.181c0-0.394,0-0.787,0-1.182c0-0.787,0-1.574,0-2.362C200.083,137.151,200.083,136.757,200.083,136.364z"/>
	<path fill-rule="evenodd" clip-rule="evenodd" fill="#F2C308" d="M21.727,136.364c28.348,0,56.696,0,85.044,0
		c0,0.393,0,0.787,0,1.18c-0.394,0-0.787,0-1.181,0c-27.955,0-55.909,0-83.863,0C21.727,137.151,21.727,136.757,21.727,136.364z"/>
	<path fill-rule="evenodd" clip-rule="evenodd" fill="#295471" d="M112.677,131.639c3.065-3.369,2.394,6.988,2.362,10.63
		c-2.362,0-4.725,0-7.087,0c0-1.181,0-2.362,0-3.543c2.234-0.266,2.606,1.331,4.725,1.181
		C112.275,136.245,115.411,134.264,112.677,131.639z"/>
	<path fill-rule="evenodd" clip-rule="evenodd" fill="#295471" d="M117.401,141.088c-1.376-0.198-1.283-1.867-1.182-3.544
		c0.394,0,0.788,0,1.182,0c22.251,5.537,60.39,0.721,82.682,2.362c0,0.395,0,0.788,0,1.182
		C172.522,141.088,144.961,141.088,117.401,141.088z"/>
	<path fill-rule="evenodd" clip-rule="evenodd" fill="#B3151F" d="M21.727,141.088c28.348,0,56.696,0,85.044,0
		c0,0.393,0,0.788,0,1.181c-28.348,0-56.696,0-85.044,0C21.727,141.876,21.727,141.48,21.727,141.088z"/>
	<path fill-rule="evenodd" clip-rule="evenodd" fill="#F4AA85" d="M21.727,142.269c0,5.906,0,11.813,0,17.718
		c-1.385-0.189-0.996-2.152-1.182-3.544c0.759-4.753-1.536-12.56,1.182-15.354C21.727,141.48,21.727,141.876,21.727,142.269z"/>
	<path fill-rule="evenodd" clip-rule="evenodd" fill="#8B0303" d="M46.531,146.994c0.394,0,0.787,0,1.181,0c1.182,0,2.362,0,3.543,0
		c0.32,2.528-0.915,12.601,1.181,9.448c0-3.149,0-6.299,0-9.448c1.968,0,3.938,0,5.906,0c3.087,1.638-0.575,10.023,2.362,11.812
		c-0.394,0-0.787,0-1.181,0c-1.968,0-3.937,0-5.906,0c-3.937,0-7.874,0-11.812,0c3.603-1.122,2.096-7.354,2.362-11.812
		C44.956,146.994,45.744,146.994,46.531,146.994z"/>
	<path fill-rule="evenodd" clip-rule="evenodd" fill="#8B0303" d="M161.104,158.806c-3.937,0-7.875,0-11.812,0
		c-1.574,0-3.15,0-4.725,0c0.74-3.59-1.512-10.174,1.181-11.812c5.118,0,10.237,0,15.355,0
		C161.104,150.931,161.104,154.868,161.104,158.806z"/>
	<path fill-rule="evenodd" clip-rule="evenodd" fill="#8B0303" d="M172.917,158.806c0.393-5.513-2.038-13.85,4.724-12.993
		c3.836,1.282,1.946,8.291,2.362,12.993c-1.968,0-3.937,0-5.905,0C173.704,158.806,173.31,158.806,172.917,158.806z"/>
	<path fill-rule="evenodd" clip-rule="evenodd" fill="#8F432E" d="M141.024,158.806c2.324,5.045-7.048,5.045-4.724,0
		C137.875,158.806,139.45,158.806,141.024,158.806z"/>
	<path fill-rule="evenodd" clip-rule="evenodd" fill="#8B0303" d="M90.234,158.806c-1.969,0-3.938,0-5.906,0
		c-2.613,1.701,1.486,2.883-1.182,3.543c-1.181,0-2.362,0-3.543,0c-0.185-1.39,0.203-3.353-1.181-3.543
		c-7.021,0.582-10.532-1.241-15.355,0c0.741-3.59-1.513-10.174,1.181-11.812c3.026-1.872,9.347,1.129,15.355,0
		c0.964,4.921-1.606,9.857,0,11.812c6.794,1.282,1.133-9.892,4.725-11.812c4.331,0,8.662,0,12.993,0c0,3.149,0,6.299,0,9.448
		c0,0.789,0,1.576,0,2.363C94.959,158.806,92.597,158.806,90.234,158.806z"/>
	<path fill-rule="evenodd" clip-rule="evenodd" fill="#FBD9B2" d="M174.098,158.806c-1.892,4.648,5.101,0.41,4.725,3.543
		c-7.391,1.478-10.671,2.999-15.355,1.182c2.963-2.081,0.83-1.952,2.362-4.725c1.97,0,3.937,0,5.906,0c0.394,0,0.787,0,1.182,0
		C173.31,158.806,173.704,158.806,174.098,158.806z"/>
	<path fill-rule="evenodd" clip-rule="evenodd" fill="#DEC5AD" d="M84.329,165.893c3.27,1.062,11.088-2.427,10.63,2.362
		c-1.522-1.627-5.131-1.168-8.268-1.181c-27.561,0-55.122,0-82.683,0c0-0.394,0-0.788,0-1.182c8.012-0.65,18.712,1.388,24.805-1.181
		c7.061,2.191,13.588,0.457,23.623,1.181c1.575,0,3.15,0,4.725,0c5.119,0,10.236,0,15.355,0
		C76.454,165.893,80.391,165.893,84.329,165.893z"/>
	<path fill-rule="evenodd" clip-rule="evenodd" fill="#DEC5AD" d="M180.003,165.893c17.398,0.037,22.306-0.662,37.798,0
		c0,0.394,0,0.788,0,1.182c-27.955,0-55.908,0-83.863,0c1.257-2.681,7.426-0.45,10.631-1.182c1.969,0,3.937,0,5.906,0
		C157.506,165.209,169.637,166.335,180.003,165.893z"/>
	<path fill-rule="evenodd" clip-rule="evenodd" fill="#767676" d="M89.053,170.617c-25.593-2.754-56.301-0.395-83.863-1.181
		c0-0.395,0-0.788,0-1.182c26.775-0.787,56.695,1.573,81.501-1.181c3.137,0.013,6.746-0.446,8.268,1.181
		c-0.288,5.225-2.418,8.604-2.362,14.174c-4.8,1.109-4.094-6.396-2.362-8.269C89.609,173.211,89.002,172.244,89.053,170.617z"/>
	<path fill-rule="evenodd" clip-rule="evenodd" fill="#7B7D7E" d="M8.733,171.799c-2.155,0.917,0.708,1.27,2.362,1.182
		c-2.096,2.235-0.86,7.8-1.181,11.812c-1.575,0-3.149,0-4.725,0c0-5.118,0-10.237,0-15.355c27.562,0.786,58.271-1.573,83.863,1.181
		c-0.394,0-0.787,0-1.181,0C61.885,171.403,32.752,169.044,8.733,171.799z"/>
	<path fill-rule="evenodd" clip-rule="evenodd" fill="#767676" d="M209.533,171.799c-25.198,0-50.397,0-75.596,0
		c-1.718,0.523,0.12,1.036,0,2.361c-3.715,1.354-2.87-1.854-4.725-2.361c0-1.575,0-3.15,0-4.725c1.182,0,2.362,0,3.544,0
		c0,0.393,0,0.788,0,1.181c0.032,0.086-1.507,2.267-1.182,2.362C152.304,176.727,188.17,165.09,209.533,171.799z"/>
	<path fill-rule="evenodd" clip-rule="evenodd" fill="#DCDDDD" d="M4.008,184.792c-1.961-3.197-1.961-14.521,0-17.718
		c0,0.393,0,0.788,0,1.181C4.008,173.768,4.008,179.279,4.008,184.792z"/>
	<path fill-rule="evenodd" clip-rule="evenodd" fill="#7B7D7E" d="M18.183,184.792c-2.362,0-4.725,0-7.087,0
		c3.083-2.286-3.454-7.082,3.543-7.088c-2.544,2.439-0.512,4.474,3.543,3.544C18.183,182.429,18.183,183.61,18.183,184.792z"/>
	<path fill-rule="evenodd" clip-rule="evenodd" fill="#DCDDDD" d="M18.183,184.792c0.394,0,0.787,0,1.181,0c0,0.393,0,0.788,0,1.181
		c-4.365-0.754-11.766,1.529-14.174-1.181c1.576,0,3.15,0,4.725,0c0.394,0,0.787,0,1.181,0
		C13.458,184.792,15.82,184.792,18.183,184.792z"/>
	<path fill-rule="evenodd" clip-rule="evenodd" fill="#DCDDDD" d="M32.356,184.792c7.087,0,14.174,0,21.261,0
		c0.394,0,0.787,0,1.181,0c1.005-0.218,1.114,0.459,1.182,1.181c-8.663,0-17.324,0-25.986,0
		C30.255,185.052,30.983,184.599,32.356,184.792z"/>
	<path fill-rule="evenodd" clip-rule="evenodd" fill="#DCDDDD" d="M89.053,184.792c0.787,0,1.576,0,2.363,0c0,0.393,0,0.788,0,1.181
		c-1.576,0-3.15,0-4.725,0c-7.087,0-14.174,0-21.261,0c0-0.393,0-0.788,0-1.181c7.087,0,14.174,0,21.261,0
		C87.478,184.792,88.266,184.792,89.053,184.792z"/>
	<path fill-rule="evenodd" clip-rule="evenodd" fill="#DCDDDD" d="M156.379,184.792c0.395,0,0.789,0,1.182,0
		c0,0.393,0,0.788,0,1.181c-7.874,0-15.748,0-23.623,0c0-0.393,0-0.788,0-1.181C141.418,184.792,148.899,184.792,156.379,184.792z"
		/>
	<path fill-rule="evenodd" clip-rule="evenodd" fill="#3D3533" d="M168.191,184.792c-0.91,3.419-2.92,5.742-8.269,4.725
		c-1.016-0.953-0.7-3.236-2.362-3.544c0-0.393,0-0.788,0-1.181C154.153,177.665,171.599,177.665,168.191,184.792z"/>
	<path fill-rule="evenodd" clip-rule="evenodd" fill="#3D3533" d="M203.627,185.973c0.334,1.908-1.116,2.033-1.182,3.544
		c-1.968,0-3.937,0-5.906,0c-0.224-0.956-1.184-1.179-1.18-2.362c0.026-2.783-2.035-3.479-1.182-7.088
		c3.711,1.015,12.211-2.762,10.63,3.544C204.583,184.566,203.624,184.788,203.627,185.973z"/>
	<path fill-rule="evenodd" clip-rule="evenodd" fill="#A7612E" d="M20.545,126.914c5.277-1.694,8.258,0.659,15.355,0
		c1.181,0,2.362,0,3.543,0c47.247,0,94.494,0,141.741,0c4.725,0,9.449,0,14.175,0c4.038-2.031,8.009,1.99,11.812-1.182
		c0.949,0.626,1.917,1.232,3.543,1.182c0,0.393,0,0.788,0,1.181c-1.969,0-3.937,0-5.906,0c-0.788,0-1.574,0-2.362,0
		c-25.986,0-51.971,0-77.957,0c-9.449,0-18.898,0-28.349,0c-23.623,0-47.246,0-70.87,0c-2.756,0-5.512,0-8.268,0
		c-1.968,0-3.938,0-5.906,0c0.177-2.185,4-0.725,4.725-2.362C16.039,127.481,18.675,126.815,20.545,126.914z"/>
	<path fill-rule="evenodd" clip-rule="evenodd" fill="#FBD9B2" d="M117.401,169.437c0,2.756,0,5.512,0,8.268
		c-0.66-2.884-6.01-1.077-4.725-5.905c2.322-0.354,2.343,1.596,3.543,2.361C116.421,172.395,115.798,169.803,117.401,169.437z"/>
	<path fill-rule="evenodd" clip-rule="evenodd" fill="#AB978B" d="M181.185,96.203c0,4.331,0,8.663,0,12.993
		c-0.394,0-0.787,0-1.182,0c-0.384-4.341,1.009-10.457-1.181-12.993C179.61,96.203,180.397,96.203,181.185,96.203z"/>
	<path fill-rule="evenodd" clip-rule="evenodd" fill="#8A7E71" d="M4.008,167.074c27.561,0,55.122,0,82.683,0
		c-24.807,2.754-54.727,0.394-81.501,1.181c-0.394,0-0.787,0-1.181,0C4.008,167.862,4.008,167.467,4.008,167.074z"/>
	<path fill-rule="evenodd" clip-rule="evenodd" fill="#D4C125" d="M37.082,113.921c0.787,0,1.575,0,2.362,0
		c46.067,3.542,100.398-1.18,146.465,2.362c-0.788,0-1.574,0-2.362,0c-48.822,0-97.644,0-146.465,0
		C37.201,114.958,35.364,114.445,37.082,113.921z"/>
	<path fill-rule="evenodd" clip-rule="evenodd" fill="#094D6F" d="M187.091,118.646c-49.609-0.788-102.368,1.574-150.009-1.182
		c48.429-0.788,100.005,1.574,146.465-1.182c0.788,0,1.574,0,2.362,0c0.394,0,0.788,0,1.182,0
		C187.091,117.07,187.091,117.858,187.091,118.646z"/>
	<path fill-rule="evenodd" clip-rule="evenodd" fill="#630203" d="M172.917,97.384c1.074-3.231,4.138,2.097,5.905-1.181
		c2.189,2.536,0.797,8.652,1.181,12.993c-1.968,0-3.937,0-5.905,0C173.356,105.606,175.609,99.022,172.917,97.384z"/>
	<path fill-rule="evenodd" clip-rule="evenodd" fill="#D20305" d="M53.618,97.384c-1.223,3.107-1.414,7.249-1.181,11.812
		c4.331,0,8.662,0,12.993,0c2.693-1.638,0.44-8.222,1.181-11.812c0.394,0,0.787,0,1.181,0c0,3.938,0,7.875,0,11.812
		c4.331,0,8.662,0,12.993,0c0.741-3.59-1.512-10.174,1.181-11.812c2.694,1.638,0.44,8.222,1.181,11.812c4.331,0,8.663,0,12.993,0
		c0-3.937,0-7.874,0-11.812c0-0.394,0-0.787,0-1.181c0.394,0,0.788,0,1.182,0c0,0.394,0,0.787,0,1.181
		c1.223,3.107,1.414,7.249,1.181,11.812c3.938,0,7.875,0,11.812,0c2.642-0.509,0.479-5.821,1.181-8.268
		c1.979-3.402,0.94,6.036,1.182,8.268c0.394,0,0.788,0,1.181,0c4.332,0,8.662,0,12.993,0c1.799-4.259-4.623-9.886,1.181-10.63
		c0.732,3.205-1.499,9.374,1.182,10.63c3.937,0,7.875,0,11.812,0c0.321-4.01-0.914-9.576,1.182-11.812c0-0.394,0-0.787,0-1.181
		c0.394,0,0.788,0,1.181,0c0,0.394,0,0.787,0,1.181c0,3.938,0,7.875,0,11.812c4.332,0,8.662,0,12.992,0
		c1.134-3.593-2.528-11.979,2.363-11.812c0,3.938,0,7.875,0,11.812c3.938,0,7.875,0,11.813,0c3.433-0.896-1.072-9.733,2.362-10.63
		c0.73,3.205-1.501,9.374,1.181,10.63c1.969,0,3.938,0,5.905,0c0.395,0,0.788,0,1.182,0c1.181,0,2.362,0,3.544,0
		c2.702-2.021,0.434-9.016,1.181-12.993c0.394,0,0.788,0,1.182,0c0,5.119,0,10.237,0,15.355
		c-47.648,2.75-100.396,0.398-150.009,1.182c-0.102-1.677-0.195-3.345,1.181-3.544c0.394,0,0.787,0,1.181,0c0.787,0,1.575,0,2.362,0
		c0.394,0,0.788,0,1.181,0c2.756,0,5.512,0,8.268,0c0.32-4.01-0.915-9.576,1.181-11.812c0.067-0.72,0.177-1.398,1.181-1.181
		C53.618,96.597,53.618,96.99,53.618,97.384z"/>
	<path fill-rule="evenodd" clip-rule="evenodd" fill="#DF463C" d="M35.9,99.747c0-1.181,0-2.363,0-3.544c0.394,0,0.787,0,1.181,0
		s0.787,0,1.181,0c0,0.394,0,0.787,0,1.181c0,3.938,0,7.875,0,11.812c-1.376,0.199-1.283,1.867-1.181,3.544
		C34.378,110.718,36.648,103.723,35.9,99.747z"/>
	<path fill-rule="evenodd" clip-rule="evenodd" fill="#DF463C" d="M185.909,96.203c-0.747,3.977,1.521,10.972-1.181,12.993
		c0-4.331,0-8.662,0-12.993C185.121,96.203,185.517,96.203,185.909,96.203z"/>
	<path fill-rule="evenodd" clip-rule="evenodd" fill="#042628" d="M25.27,128.095c23.624,0,47.247,0,70.87,0
		c-19.296,3.539-46.849-1.177-66.145,2.363c-1.181,0-2.362,0-3.544,0C26.455,129.273,25.494,129.051,25.27,128.095z"/>
	<path fill-rule="evenodd" clip-rule="evenodd" fill="#F2C308" d="M117.401,136.364c27.56,0,55.121,0,82.682,0
		c0,0.393,0,0.787,0,1.18c-27.561,0-55.122,0-82.682,0c-0.394,0-0.788,0-1.182,0C116.287,136.823,116.396,136.146,117.401,136.364z"
		/>
	<path fill-rule="evenodd" clip-rule="evenodd" fill="#3D3533" d="M98.502,96.203c3.938,0,7.875,0,11.812,0
		c-2.022,2.704-9.017,0.433-12.993,1.181c0-0.394,0-0.787,0-1.181C97.715,96.203,98.109,96.203,98.502,96.203z"/>
	<path fill-rule="evenodd" clip-rule="evenodd" fill="#3D3533" d="M112.677,96.203c4.331,0,8.661,0,12.992,0
		c0.788,0,1.574,0,2.362,0c4.332,0,8.662,0,12.993,0c0.394,0,0.788,0,1.182,0c0,0.394,0,0.787,0,1.181c-4.331,0-8.662,0-12.993,0
		c-0.393,0-0.788,0-1.182,0c-4.725,0-9.448,0-14.174,0c-0.787,0-1.574,0-2.362,0c0-0.394,0-0.787,0-1.181
		C111.89,96.203,112.283,96.203,112.677,96.203z"/>
	<path fill-rule="evenodd" clip-rule="evenodd" fill="#8B0303" d="M111.495,97.384c0.788,0,1.575,0,2.362,0
		c0,3.938,0,7.875,0,11.812c-0.393,0-0.787,0-1.181,0c-0.241-2.232,0.797-11.67-1.182-8.268c-0.702,2.447,1.461,7.759-1.181,8.268
		C111.055,105.606,108.802,99.022,111.495,97.384z"/>
	<path fill-rule="evenodd" clip-rule="evenodd" fill="#8F432E" d="M37.082,113.921c0-0.394,0-0.787,0-1.181
		c49.614-0.783,102.361,1.568,150.009-1.182c0,0.394,0,0.787,0,1.182c0,0.394,0,0.787,0,1.181c-49.216,0-98.431,0-147.647,0
		C38.656,113.921,37.869,113.921,37.082,113.921z"/>
</g>
</svg>
