<?xml version="1.0" encoding="utf-8"?>
<!-- Generator: Adobe Illustrator 14.0.0, SVG Export Plug-In . SVG Version: 6.00 Build 43363)  -->
<!DOCTYPE svg PUBLIC "-//W3C//DTD SVG 1.1//EN" "http://www.w3.org/Graphics/SVG/1.1/DTD/svg11.dtd">
<svg version="1.1" id="Layer_1" xmlns="http://www.w3.org/2000/svg" xmlns:xlink="http://www.w3.org/1999/xlink" x="0px" y="0px"
	 width="183.507px" height="183.506px" viewBox="0 0 183.507 183.506" enable-background="new 0 0 183.507 183.506"
	 xml:space="preserve">
<g>
	<path fill-rule="evenodd" clip-rule="evenodd" fill="#EAB654" d="M123.341,14.581c1.323-1.566,9.073-1.566,10.397,0
		c-0.631,0-1.262,0-1.892,0C129.014,14.581,126.178,14.581,123.341,14.581z"/>
	<path fill-rule="evenodd" clip-rule="evenodd" fill="#35332B" d="M70.411,14.581c-5.687,1.573-17.942,1.573-23.629,0
		c0.314,0,0.63,0,0.945,0C55.289,14.581,62.851,14.581,70.411,14.581z"/>
	<path fill-rule="evenodd" clip-rule="evenodd" fill="#35332B" d="M131.847,14.581c-5.687,1.573-17.942,1.573-23.628,0
		c5.039,0,10.081,0,15.122,0C126.178,14.581,129.014,14.581,131.847,14.581z"/>
	<path fill-rule="evenodd" clip-rule="evenodd" fill="#35332B" d="M72.302,16.471c-8.829,1.574-24.252,1.574-33.081,0
		C50.248,16.471,61.273,16.471,72.302,16.471z"/>
	<path fill-rule="evenodd" clip-rule="evenodd" fill="#B98339" d="M75.138,62.785c0.626-11.345-1.257-25.201,0.946-34.971
		c0,0.315,0,0.629,0,0.944c0,11.657,0,23.314,0,34.971c-0.316,0-0.632,0-0.946,0C75.138,63.415,75.138,63.1,75.138,62.785z"/>
	<path fill-rule="evenodd" clip-rule="evenodd" fill="#D9A762" d="M104.439,63.729c0.624-11.659-1.258-25.83,0.944-35.916
		c0,11.972,0,23.944,0,35.916C105.067,63.729,104.752,63.729,104.439,63.729z"/>
	<path fill-rule="evenodd" clip-rule="evenodd" fill="#B98339" d="M143.19,62.785c0.626-11.345-1.258-25.201,0.945-34.971
		c0,0.315,0,0.629,0,0.944c0,11.657,0,23.314,0,34.971c-0.316,0-0.631,0-0.945,0C143.19,63.415,143.19,63.1,143.19,62.785z"/>
	<path fill-rule="evenodd" clip-rule="evenodd" fill="#C88E40" d="M36.385,61.839c-1.573-8.83-1.573-24.251,0-33.082
		C36.385,39.785,36.385,50.813,36.385,61.839z"/>
	<path fill-rule="evenodd" clip-rule="evenodd" fill="#F1EFEA" d="M102.548,28.758c0,0.315,0,0.63,0,0.945
		c0,10.712,0,21.424,0,32.136c0,0.63,0,1.26,0,1.89c-0.314,0-0.632,0-0.945,0C102.229,52.384,100.346,38.53,102.548,28.758z"/>
	<path fill-rule="evenodd" clip-rule="evenodd" fill="#C88E40" d="M102.548,29.703c1.573,8.515,1.573,23.622,0,32.136
		C102.548,51.127,102.548,40.415,102.548,29.703z"/>
	<path fill-rule="evenodd" clip-rule="evenodd" fill="#541407" d="M59.069,31.594c0.055-0.577,0.141-1.119,0.946-0.945
		c4.228,6.482,0.76,20.662,1.889,30.245C56.939,55.147,62.476,38.897,59.069,31.594z"/>
	<path fill-rule="evenodd" clip-rule="evenodd" fill="#1F0B05" d="M47.728,32.539c2.199,8.197,0.319,20.475,0.946,30.246
		c-0.316,0-0.632,0-0.946,0C47.728,52.702,47.728,42.621,47.728,32.539z"/>
	<path fill-rule="evenodd" clip-rule="evenodd" fill="#1F0B05" d="M127.122,32.539c3.72,7.622-2.949,25.634,3.781,30.246
		c-1.262,0-2.521,0-3.781,0C127.122,52.702,127.122,42.621,127.122,32.539z"/>
	<path fill-rule="evenodd" clip-rule="evenodd" fill="#C88E40" d="M52.454,33.484c1.573,7.572,1.573,21.729,0,29.301
		C52.454,53.017,52.454,43.251,52.454,33.484z"/>
	<path fill-rule="evenodd" clip-rule="evenodd" fill="#C88E40" d="M115.78,62.785c-1.574-7.572-1.574-21.729,0-29.301
		c0,9.452,0,18.903,0,28.355C115.78,62.154,115.78,62.469,115.78,62.785z"/>
	<path fill-rule="evenodd" clip-rule="evenodd" fill="#D9A762" d="M131.847,33.484c1.574,7.572,1.574,21.729,0,29.301
		c0-0.315,0-0.63,0-0.945c0-8.191,0-16.383,0-24.575C131.847,36.004,131.847,34.745,131.847,33.484z"/>
	<path fill-rule="evenodd" clip-rule="evenodd" fill="#D9A762" d="M124.286,38.21c2.104,2.01,0.39,15.98,0.945,22.684
		C123.128,58.885,124.841,44.914,124.286,38.21z"/>
	<path fill-rule="evenodd" clip-rule="evenodd" fill="#6D3720" d="M130.903,38.21c0.054-0.577,0.141-1.119,0.943-0.946
		c0,8.192,0,16.384,0,24.575c-0.576-0.054-1.119-0.141-0.943-0.945C130.903,53.333,130.903,45.771,130.903,38.21z"/>
	<path fill-rule="evenodd" clip-rule="evenodd" fill="#1F0B05" d="M130.903,38.21c0,7.562,0,15.123,0,22.684
		C129.328,55.522,129.328,43.582,130.903,38.21z"/>
	<path fill-rule="evenodd" clip-rule="evenodd" fill="#D9A762" d="M44.892,65.62c0.315,0,0.63,0,0.946,0c0,7.247,0,14.493,0,21.739
		c-0.946,0-1.891,0-2.835,0C46.983,83.466,43.939,72.544,44.892,65.62z"/>
	<path fill-rule="evenodd" clip-rule="evenodd" fill="#EAB654" d="M47.728,88.304c1.172-7.019-2.402-18.784,1.891-22.684
		c0,7.561,0,15.123,0,22.684C48.986,88.304,48.357,88.304,47.728,88.304z"/>
	<path fill-rule="evenodd" clip-rule="evenodd" fill="#D9A762" d="M95.932,83.579c0.871-4.817-1.983-18.339,1.89-17.013
		C95.012,70.058,98.739,80.085,95.932,83.579z"/>
	<path fill-rule="evenodd" clip-rule="evenodd" fill="#EAB654" d="M102.548,65.62c0.313,0,0.63,0,0.945,0
		c2.488,2.462-0.895,19.571,1.891,21.739c0,0.314,0,0.629,0,0.945C99.145,86.034,104.161,72.512,102.548,65.62z"/>
	<path fill-rule="evenodd" clip-rule="evenodd" fill="#C88E40" d="M126.178,83.579c0-5.986,0-11.972,0-17.958
		c0.313,0,0.629,0,0.944,0C126.502,71.303,128.366,79.467,126.178,83.579z"/>
	<path fill-rule="evenodd" clip-rule="evenodd" fill="#92704C" d="M94.986,87.359c-1.572-4.745-1.572-16.049,0-20.794
		C94.986,73.497,94.986,80.428,94.986,87.359z"/>
	<path fill-rule="evenodd" clip-rule="evenodd" fill="#D9A762" d="M112.001,67.51c2.006-0.397,0.457,10.858,0.944,15.123
		C110.937,83.032,112.485,71.775,112.001,67.51z"/>
	<path fill-rule="evenodd" clip-rule="evenodd" fill="#D9A762" d="M123.341,66.565c-0.617,5.369,1.243,13.215-0.944,17.013
		C123.013,78.21,121.152,70.363,123.341,66.565z"/>
	<path fill-rule="evenodd" clip-rule="evenodd" fill="#D9A762" d="M128.067,67.51c2.025-0.103,0.445,11.503,0.946,16.069
		C126.986,83.683,128.565,72.075,128.067,67.51z"/>
	<path fill-rule="evenodd" clip-rule="evenodd" fill="#D9A762" d="M132.793,66.565c1.571,3.492,1.571,13.52,0,17.013
		C132.793,77.907,132.793,72.236,132.793,66.565z"/>
	<path fill-rule="evenodd" clip-rule="evenodd" fill="#934B23" d="M68.522,67.51c1.57,4.745,1.57,16.05,0,20.794
		C68.522,81.373,68.522,74.441,68.522,67.51z"/>
	<path fill-rule="evenodd" clip-rule="evenodd" fill="#666A62" d="M144.136,112.878c0-8.19,0-16.384,0-24.574
		c0.313,0,0.63,0,0.944,0c0,8.507,0,17.013,0,25.521C144.504,113.77,143.96,113.682,144.136,112.878z"/>
	<path fill-rule="evenodd" clip-rule="evenodd" fill="#6D3720" d="M40.167,91.14c0-0.315,0-0.63,0-0.946c0.313,0,0.629,0,0.945,0
		c0,7.877,0,15.753,0,23.631c-1.063-0.201-1.474-1.05-1.892-1.892C41.414,106.88,39.544,97.764,40.167,91.14z"/>
	<path fill-rule="evenodd" clip-rule="evenodd" fill="#D9A762" d="M67.577,90.194c0.313,0,0.628,0,0.945,0c0,3.781,0,7.563,0,11.343
		C65.371,101.819,68.811,94.113,67.577,90.194z"/>
	<path fill-rule="evenodd" clip-rule="evenodd" fill="#6D3720" d="M74.192,91.14c0-0.315,0-0.63,0-0.946c0.314,0,0.63,0,0.945,0
		c0,7.877,0,15.753,0,23.631c-0.578-0.055-1.12-0.143-0.945-0.946c0-0.945,0-1.891,0-2.835
		C74.192,103.743,74.192,97.44,74.192,91.14z"/>
	<path fill-rule="evenodd" clip-rule="evenodd" fill="#35332B" d="M34.495,91.14c1.57,5.058,1.57,16.68,0,21.739
		C34.495,105.631,34.495,98.385,34.495,91.14z"/>
	<path fill-rule="evenodd" clip-rule="evenodd" fill="#934B23" d="M47.728,119.495c-1.566-1.63-1.566-9.712,0-11.342
		c0,3.465,0,6.932,0,10.396C47.728,118.865,47.728,119.18,47.728,119.495z"/>
	<path fill-rule="evenodd" clip-rule="evenodd" fill="#934B23" d="M117.671,119.495c-1.567-1.63-1.567-9.712,0-11.342
		c0,3.465,0,6.932,0,10.396C117.671,118.865,117.671,119.18,117.671,119.495z"/>
	<path fill-rule="evenodd" clip-rule="evenodd" fill="#D9A762" d="M128.067,108.153c0,3.78,0,7.561,0,11.342
		C126.501,117.865,126.501,109.783,128.067,108.153z"/>
	<path fill-rule="evenodd" clip-rule="evenodd" fill="#1F0B05" d="M63.796,133.672c-1.014-0.703-1.105-4.688,0.944-6.616
		C64.178,129.014,65.908,133.265,63.796,133.672z"/>
	<path fill-rule="evenodd" clip-rule="evenodd" fill="#6D3720" d="M79.863,134.618c2.132-0.704,0.37-5.301,0.945-7.562
		c0.737,0.209,1.099,0.792,0.944,1.89c0,2.207,0,4.412,0,6.617c-0.63,0-1.26,0-1.89,0C79.863,135.247,79.863,134.933,79.863,134.618
		z"/>
	<path fill-rule="evenodd" clip-rule="evenodd" fill="#F1EFEA" d="M34.495,174.315c-1.574-10.402-1.574-27.404,0-37.807
		C34.495,149.11,34.495,161.712,34.495,174.315z"/>
	<path fill-rule="evenodd" clip-rule="evenodd" fill="#D9A762" d="M41.112,136.508c0.313,0,0.63,0,0.944,0
		c-0.603,3.492,1.225,9.415-0.944,11.342C41.112,144.069,41.112,140.29,41.112,136.508z"/>
	<path fill-rule="evenodd" clip-rule="evenodd" fill="#AF875F" d="M144.136,136.508c0.313,0,0.63,0,0.944,0
		c-0.627,12.92,1.256,28.352-0.944,39.697c0-0.315,0-0.63,0-0.945C144.136,162.342,144.136,149.425,144.136,136.508z"/>
	<path fill-rule="evenodd" clip-rule="evenodd" fill="#C46936" d="M103.493,174.315c0-8.822,0-17.643,0-26.465
		C105.065,154.479,105.065,167.686,103.493,174.315z"/>
	<path fill-rule="evenodd" clip-rule="evenodd" fill="#92704C" d="M63.796,156.356c-1.404-2.771,1.068-3.51-1.892-4.726
		c0.246-1.471,2.073-0.655,2.836,0c0.577,0.054,1.119,0.142,0.946,0.945c-3.344,1.031,3.341,4.64,0,5.671
		C64.437,158.236,64.822,156.59,63.796,156.356z"/>
	<path fill-rule="evenodd" clip-rule="evenodd" fill="#1F0B05" d="M84.59,162.027c3.686-6.364,2.906,6.828,2.835,10.397
		c-1.112-0.148-2.684,0.162-2.835-0.945c3.914,0.135,0.983-6.576,1.891-9.452c0.001-0.524-0.767-1.072-0.945,0
		C85.22,162.027,84.903,162.027,84.59,162.027z"/>
	<path fill-rule="evenodd" clip-rule="evenodd" fill="#6D3720" d="M118.616,171.479c0.593-2.873-1.211-8.141,0.944-9.452
		c0,3.466,0,6.932,0,10.397C118.984,172.371,118.44,172.284,118.616,171.479z"/>
	<path fill-rule="evenodd" clip-rule="evenodd" fill="#6D3720" d="M129.014,162.027c2.16,1.618,0.345,7.216,0.944,10.397
		c-0.316,0-0.632,0-0.944,0C129.014,168.958,129.014,165.493,129.014,162.027z"/>
	<path fill-rule="evenodd" clip-rule="evenodd" fill="#F1EFEA" d="M106.328,13.635c2.292-4.018,19.871-0.913,28.355-1.89
		C127.425,14.57,113.585,10.81,106.328,13.635z"/>
	<path fill-rule="evenodd" clip-rule="evenodd" fill="#F1EFEA" d="M43.947,7.964c2.343,8.368,20.646,0.777,27.41,4.726
		c-9.138,0-18.274,0-27.41,0C43.947,11.115,43.945,9.54,43.947,7.964z"/>
	<path fill-rule="evenodd" clip-rule="evenodd" fill="#B98339" d="M40.167,8.91c-0.122-1.696,1.155-1.994,0.945-3.781
		C43.29,4.84,42.16,7.86,43.947,7.964c-0.002,1.575,0,3.151,0,4.726c-1.262,0-2.522,0-3.78,0C40.167,11.43,40.167,10.17,40.167,8.91
		z"/>
	<path fill-rule="evenodd" clip-rule="evenodd" fill="#C88E40" d="M135.629,8.91c0.397-1.808,0.341-4.068,2.836-3.781
		c0.371,3.409,1.222,6.338,1.89,9.452c-1.89,0-3.78,0-5.671,0C135.771,13.464,135.752,11.239,135.629,8.91z"/>
	<path fill-rule="evenodd" clip-rule="evenodd" fill="#D9A762" d="M106.328,13.635c7.257-2.825,21.097,0.935,28.355-1.89
		c-0.081-1.342-0.156-2.676,0.945-2.835c0.123,2.33,0.142,4.554-0.945,5.671c-0.315,0-0.631,0-0.945,0
		c-1.324-1.566-9.074-1.566-10.397,0c-5.041,0-10.083,0-15.122,0c-0.631,0-1.261,0-1.891,0
		C106.328,14.265,106.328,13.95,106.328,13.635z"/>
	<path fill-rule="evenodd" clip-rule="evenodd" fill="#D9A762" d="M37.331,22.143c-0.67-3.506,1.614-4.057,0.945-7.562
		c0.313,0,0.63,0,0.944,0c0,0.63,0,1.26,0,1.89c8.829,1.574,24.252,1.574,33.081,0c0.348-1.608-0.738-1.783-1.891-1.89
		c-7.561,0-15.122,0-22.684,0c0.677-2.566-4.458,0.676-3.78-1.891c9.136,0,18.272,0,27.41,0c0.63,0,1.26,0,1.89,0
		c-0.269,4.995,0.053,9.399,1.891,12.287c-0.315,0-0.631,0-0.945,0C67.189,18.747,48.951,23.752,37.331,22.143z"/>
	<path fill-rule="evenodd" clip-rule="evenodd" fill="#D9A762" d="M106.328,17.416c11.343,0,22.686,0,34.026,0
		c0.313,0,0.629,0,0.945,0c-0.548,3.069,0.643,4.398,0.944,6.616c-5.961-2.167-36.402-4.987-36.86,1.89
		c-0.767,0.18-0.943,0.948-1.891,0.946C105.249,24.528,104.468,19.653,106.328,17.416z"/>
	<path fill-rule="evenodd" clip-rule="evenodd" fill="#934B23" d="M47.728,63.729c0-0.314,0-0.629,0-0.944c0.314,0,0.63,0,0.946,0
		c1.257,0,2.519,0,3.78,0c0.175,1.399,2.283,0.867,3.78,0.944c0,0.316,0,0.631,0,0.946c0,0.315,0,0.63,0,0.945
		c-0.315,0-0.632,0-0.945,0c-0.945,0-1.891,0-2.835,0C53.423,62.444,49.513,64.148,47.728,63.729z"/>
	<path fill-rule="evenodd" clip-rule="evenodd" fill="#EAB654" d="M52.454,33.484c0.303-3.2-4.669-5.983-4.727-0.945
		c-1.575,7.886-1.575,22.36,0,30.246c0,0.315,0,0.63,0,0.944c-3.78,0-7.561,0-11.343,0c0-0.629,0-1.26,0-1.89
		c0-11.027,0-22.054,0-33.082c0.08-1.341,0.156-2.676-0.943-2.835c1.309-0.58,0.141-3.639,1.89-3.78
		c11.62,1.609,29.858-3.396,36.861,2.835c0.626,12.29-1.258,27.091,0.945,37.807c0,0.315,0,0.63,0,0.944c-1.261,0-2.521,0-3.78,0
		c-2.522,0-5.041,0-7.562,0c-0.781-6.467,1.365-23.19-0.945-31.19c0.041-1.617-0.704-2.448-1.89-2.835
		c-0.806-0.173-0.893,0.369-0.945,0.946c-0.806-0.174-0.892,0.368-0.946,0.945c0,0.315,0,0.63,0,0.945
		c-3.416,7.929,2.138,24.823-2.835,31.19c-1.497-0.078-3.605,0.455-3.78-0.944C54.027,55.213,54.027,41.056,52.454,33.484z"/>
	<path fill-rule="evenodd" clip-rule="evenodd" fill="#B98339" d="M34.495,27.813c0.18-0.766,0.947-0.943,0.946-1.891
		c1.1,0.159,1.023,1.495,0.943,2.835c-1.573,8.83-1.573,24.252,0,33.082c0,0.63,0,1.26,0,1.89c-0.631,0-1.261,0-1.89,0
		C34.495,51.758,34.495,39.785,34.495,27.813z"/>
	<path fill-rule="evenodd" clip-rule="evenodd" fill="#541407" d="M47.728,32.539c0.058-5.038,5.029-2.254,4.727,0.945
		c0,9.768,0,19.533,0,29.301c-1.262,0-2.523,0-3.78,0C48.047,53.013,49.927,40.736,47.728,32.539z"/>
	<path fill-rule="evenodd" clip-rule="evenodd" fill="#1F0B05" d="M60.016,30.649c0.053-0.577,0.14-1.119,0.945-0.946
		c1.186,0.388,1.931,1.219,1.89,2.835c-0.626,9.771,1.253,22.049-0.946,30.246c-5.826,0.155-1.507-9.836-2.835-14.178
		c0-5.355,0-10.712,0-16.068c0-0.315,0-0.63,0-0.945c3.406,7.304-2.13,23.554,2.835,29.3C60.775,51.311,64.243,37.131,60.016,30.649
		z"/>
	<path fill-rule="evenodd" clip-rule="evenodd" fill="#541407" d="M127.122,32.539c-0.043-1.3,0.445-2.075,0.945-2.835
		c2.403,0.116,3.664,1.376,3.779,3.781c0,1.261,0,2.521,0,3.78c-0.803-0.173-0.89,0.369-0.943,0.946
		c-1.575,5.372-1.575,17.313,0,22.684c-0.176,0.804,0.367,0.892,0.943,0.945c0,0.315,0,0.63,0,0.945c-0.314,0-0.63,0-0.943,0
		C124.173,58.173,130.842,40.161,127.122,32.539z"/>
	<path fill-rule="evenodd" clip-rule="evenodd" fill="#541407" d="M115.78,33.484c1.309-0.58,0.142-3.638,1.891-3.781
		c3.384-0.55,2.873,2.797,2.836,5.671c0,0.945,0,1.89,0,2.835c-3.271,5.552,1.938,19.583-2.836,23.629c-0.631,0-1.261,0-1.891,0
		C115.78,52.387,115.78,42.936,115.78,33.484z"/>
	<path fill-rule="evenodd" clip-rule="evenodd" fill="#6D3720" d="M59.069,32.539c0,5.356,0,10.713,0,16.068
		c1.328,4.342-2.991,14.333,2.835,14.178c2.199-8.197,0.32-20.475,0.946-30.246c2.311,8,0.164,24.723,0.945,31.19
		c0,0.316,0,0.631,0,0.946c-0.805-0.174-0.893,0.369-0.945,0.945c-0.316,0-0.631,0-0.946,0c-1.261,0-2.521,0-3.779,0
		c-0.027-0.919-1.157-0.734-1.891-0.945c0-0.315,0-0.629,0-0.946C61.207,57.361,55.653,40.467,59.069,32.539z"/>
	<path fill-rule="evenodd" clip-rule="evenodd" fill="#6D3720" d="M87.425,64.675c0.576-0.053,1.119-0.142,0.945-0.946
		c0.63,0,1.26,0,1.891,0c0.053,0.577,0.141,1.119,0.945,0.946c1.486,6.088,1.635,18.51,0,24.575c0-7.876,0-15.753,0-23.629
		c-2.196,5.681-0.323,15.43-0.945,22.684c-2.819-5.059,0.926-16.68-1.891-21.739c0.174-0.804-0.369-0.892-0.945-0.945
		C87.425,65.305,87.425,64.99,87.425,64.675z"/>
	<path fill-rule="evenodd" clip-rule="evenodd" fill="#6D3720" d="M101.603,64.675c0.576-0.053,1.119-0.142,0.945-0.946
		c0.63,0,1.259,0,1.892,0c0.313,0,0.628,0,0.944,0c-0.427,2.632,5.15-0.74,4.726,1.891c0,7.561,0,15.123,0,22.684
		c-2.192-0.301-3.629,0.152-4.726,0.945c0-0.315,0-0.63,0-0.945c0-0.315,0-0.63,0-0.945c-1.167-6.71,2.39-18.146-1.891-21.739
		c-0.315,0-0.632,0-0.945,0c-0.314,0-0.632,0-0.945,0C101.603,65.305,101.603,64.99,101.603,64.675z"/>
	<path fill-rule="evenodd" clip-rule="evenodd" fill="#6D3720" d="M46.782,88.304C46.228,81.6,47.94,67.629,45.838,65.62
		c-0.316,0-0.631,0-0.946,0c-1.576,0-3.149,0-4.725,0c-0.316,0-0.631,0-0.946,0c0,7.561,0,15.123,0,22.684c-1.575,0-3.15,0-4.726,0
		c0-8.191,0-16.383,0-24.575c0.629,0,1.259,0,1.89,0c3.782,0,7.563,0,11.343,0c1.785,0.419,5.695-1.285,4.727,1.891
		c-0.316,0-0.632,0-0.945,0c-0.182-1.073-0.948-0.525-0.945,0c-0.315,0-0.633,0-0.945,0c-4.293,3.9-0.719,15.666-1.891,22.684
		c0,0.315,0,0.63,0,0.945C46.922,89.423,46.836,88.88,46.782,88.304z"/>
	<path fill-rule="evenodd" clip-rule="evenodd" fill="#1F0B05" d="M78.919,64.675c2.834,0,5.671,0,8.506,0c0,0.315,0,0.63,0,0.945
		c-0.804-0.174-0.891,0.369-0.944,0.945c1.172,7.018-2.402,18.784,1.89,22.684c0.803-0.174,0.891,0.368,0.944,0.944
		c-4.095,0-8.191,0-12.286,0c-0.632,0-1.261,0-1.891,0c-0.315,0-0.631,0-0.945,0c-1.891,0-3.781,0-5.67,0c-0.317,0-0.633,0-0.945,0
		c-8.822,0-17.646,0-26.465,0c-0.316,0-0.633,0-0.945,0c-3.533,0.085-2.695,1.06-5.672,0c0-0.629,0-1.26,0-1.89
		c1.575,0,3.15,0,4.726,0c0.128,1.557,6.487,1.557,6.617,0c0.313,0,0.63,0,0.944,0c0.054,0.576,0.14,1.119,0.945,0.945
		c6.261-2.561,1.201-16.441,2.836-23.629c-0.003-0.525,0.764-1.073,0.945,0c1.673,6.842-4.196,26.235,4.726,22.684
		c0-7.562,0-15.123,0-22.684c0-0.315,0-0.63,0-0.945c0.733,0.211,1.863,0.026,1.891,0.945c-0.806-0.174-0.892,0.369-0.945,0.945
		c0,7.561,0,15.122,0,22.684c1.575,0,3.149,0,4.725,0c2.196-5.996,0.321-16.062,0.946-23.629c0.053-0.576,0.141-1.119,0.945-0.945
		c0,0.315,0,0.63,0,0.945c0,0.315,0,0.63,0,0.945c0,6.301,0,12.602,0,18.903c0,0.945,0,1.891,0,2.836
		c2.573,3.277,7.901-2.074,10.396,0.945c1.575,0,3.149,0,4.727,0c1.572-5.686,1.572-17.944,0-23.629
		C78.919,65.305,78.919,64.99,78.919,64.675z M85.535,67.51c0-0.629,0-1.26,0-1.89C81.85,69.51,83.576,83.81,84.59,89.25
		C86.783,83.883,84.913,74.45,85.535,67.51z M82.699,68.456c0-0.946,0-1.89,0-2.835c-4.293,3.9-0.718,15.666-1.891,22.684
		C84.792,88.802,81.747,74.135,82.699,68.456z"/>
	<path fill-rule="evenodd" clip-rule="evenodd" fill="#1F0B05" d="M93.097,64.675c2.519,0,5.039,0,7.561,0c0,0.315,0,0.63,0,0.945
		c-0.315,0-0.631,0-0.945,0c-2.19,4.425-0.325,12.906-0.944,18.904c0.516,1.373-1.106,4.885,0.944,4.726c0,0.315,0,0.63,0,0.944
		c-1.261,0-2.521,0-3.78,0c0.174-0.803-0.369-0.891-0.945-0.944c0-0.63,0-1.261,0-1.89c0-6.932,0-13.863,0-20.794
		c-0.028-0.92-1.157-0.734-1.89-0.945C93.097,65.305,93.097,64.99,93.097,64.675z M97.821,66.565
		c-3.873-1.326-1.019,12.196-1.89,17.013c0.571,1.948-1.527,6.565,1.89,5.671C97.821,81.688,97.821,74.126,97.821,66.565z"/>
	<path fill-rule="evenodd" clip-rule="evenodd" fill="#1F0B05" d="M114.834,65.62c0.18-1.073,0.948-0.525,0.946,0
		c0,0.315,0,0.63,0,0.945c0.622,7.254-1.251,17.003,0.944,22.684c0.631,0,1.261,0,1.892,0c1.572-5.686,1.572-17.944,0-23.629
		c0.232-1.189,1.879-0.954,1.891,0c0,0.315,0,0.63,0,0.945c0,7.246,0,14.493,0,21.739c0.291,1.282,2.365,0.784,3.779,0.945
		c0.804,0.174,0.892-0.369,0.945-0.945c0.315,0,0.63,0,0.946,0c-0.177,0.804,0.367,0.891,0.944,0.945c0,0.315,0,0.63,0,0.944
		c-5.357,0-10.712,0-16.067,0c-2.196,5.682-0.324,15.431-0.945,22.685c-0.842-0.419-1.691-0.829-1.891-1.891
		c0.688-0.504,1.343-12.514,0.944-19.848c-1.154-2.881-3.608,1.382-4.724-0.946c-0.317,0-0.633,0-0.946,0c0-0.314,0-0.629,0-0.944
		c0.629,0,1.259,0,1.891,0c1.097-0.793,2.533-1.246,4.726-0.945c0.291,1.282,2.365,0.784,3.781,0.945
		C116.084,83.254,114.211,73.188,114.834,65.62z"/>
	<path fill-rule="evenodd" clip-rule="evenodd" fill="#541407" d="M124.286,65.62c0.026-0.919,1.156-0.734,1.892-0.945
		c0,0.315,0,0.63,0,0.945c0,5.986,0,11.972,0,17.958c-0.001,1.575,0,3.15,0,4.726c-0.316,0-0.631,0-0.946,0
		C124.608,81.05,126.481,71.301,124.286,65.62z"/>
	<path fill-rule="evenodd" clip-rule="evenodd" fill="#6D3720" d="M126.178,65.62c0-0.315,0-0.63,0-0.945
		c0.802,0.173,0.889-0.369,0.944-0.946c0-0.314,0-0.629,0-0.944c1.261,0,2.52,0,3.781,0c0,0.63,0,1.261,0,1.89
		c1.479,5.78,1.641,17.875,0,23.629c0-7.562,0-15.123,0-22.684c-1.262,0-2.521,0-3.781,0C126.807,65.62,126.491,65.62,126.178,65.62
		z"/>
	<path fill-rule="evenodd" clip-rule="evenodd" fill="#EAB654" d="M52.454,65.62c0.944,0,1.89,0,2.835,0c0,7.561,0,15.123,0,22.684
		C49.051,86.034,54.067,72.512,52.454,65.62z"/>
	<path fill-rule="evenodd" clip-rule="evenodd" fill="#92704C" d="M52.454,65.62c1.613,6.892-3.403,20.414,2.835,22.684
		c0.313,0,0.63,0,0.945,0c-8.922,3.551-3.053-15.842-4.726-22.684C51.822,65.62,52.138,65.62,52.454,65.62z"/>
	<path fill-rule="evenodd" clip-rule="evenodd" fill="#EAB654" d="M58.125,65.62c1.259,0,2.519,0,3.779,0c0,7.561,0,15.123,0,22.684
		c-8.38-0.441-0.758-16.885-4.725-21.739C57.233,65.989,57.319,65.446,58.125,65.62z"/>
	<path fill-rule="evenodd" clip-rule="evenodd" fill="#6D3720" d="M74.192,65.62c-1.643,5.754-1.48,17.85,0,23.629
		c-2.495-3.019-7.823,2.332-10.396-0.945c1.574,0,3.15,0,4.727,0c1.57-4.745,1.57-16.049,0-20.794c0-0.629,0-1.26,0-1.89
		c0.212-1.362,2.82-0.33,2.835-1.891c1.26,0,2.52,0,3.78,0c0.314,0,0.63,0,0.946,0c0.158,1.102,1.492,1.027,2.835,0.946
		c0,0.315,0,0.63,0,0.945C77.342,65.62,75.768,65.62,74.192,65.62z"/>
	<path fill-rule="evenodd" clip-rule="evenodd" fill="#92704C" d="M115.78,66.565c3.369,4.822-2.08,18.462,2.836,21.739
		c0,0.315,0,0.63,0,0.945c-0.631,0-1.261,0-1.892,0C114.529,83.568,116.402,73.819,115.78,66.565z"/>
	<path fill-rule="evenodd" clip-rule="evenodd" fill="#EAB654" d="M120.507,65.62c1.258,0,2.519,0,3.779,0
		c0,7.561,0,15.123,0,22.684c-6.86-1.647,0.029-17.044-3.779-21.739C120.507,66.25,120.507,65.935,120.507,65.62z M122.396,83.579
		c2.188-3.798,0.327-11.645,0.944-17.013C121.152,70.363,123.013,78.21,122.396,83.579z"/>
	<path fill-rule="evenodd" clip-rule="evenodd" fill="#541407" d="M132.793,65.62c0,0.315,0,0.63,0,0.945c0,5.671,0,11.342,0,17.013
		c-0.001,1.575,0,3.15,0,4.726c-0.174,0.804,0.368,0.891,0.945,0.945c0,0.315,0,0.63,0,0.944c-2.206,0-4.412,0-6.616,0
		c0-0.314,0-0.629,0-0.944c1.496-0.079,3.604,0.454,3.781-0.945c1.641-5.754,1.479-17.85,0-23.629
		C132.002,64.521,132.585,64.883,132.793,65.62z"/>
	<path fill-rule="evenodd" clip-rule="evenodd" fill="#6D3720" d="M144.136,65.62c0,7.561,0,15.123,0,22.684
		c-2.308,0.513-5.359,0.994-10.397,0.945c-0.577-0.054-1.119-0.142-0.945-0.945c2.205,0,4.411,0,6.617,0
		c1.572-5.373,1.572-17.313,0-22.684c-0.162-2.05,3.352-0.428,4.726-0.945C144.136,64.99,144.136,65.305,144.136,65.62z"/>
	<path fill-rule="evenodd" clip-rule="evenodd" fill="#92704C" d="M57.18,66.565c3.967,4.854-3.655,21.298,4.725,21.739
		c0,0.315,0,0.63,0,0.945c-1.575,0-3.149,0-4.725,0C57.18,81.688,57.18,74.126,57.18,66.565z"/>
	<path fill-rule="evenodd" clip-rule="evenodd" fill="#92704C" d="M86.48,66.565c2.814,4.745-0.928,16.049,1.89,20.794
		c0,0.629,0,1.26,0,1.89C84.078,85.35,87.652,73.583,86.48,66.565z"/>
	<path fill-rule="evenodd" clip-rule="evenodd" fill="#EAB654" d="M78.919,65.62c-1.174,7.019,2.399,18.784-1.891,22.684
		c-6.237-2.271-1.223-15.792-2.836-22.684C75.768,65.62,77.342,65.62,78.919,65.62z"/>
	<path fill-rule="evenodd" clip-rule="evenodd" fill="#541407" d="M91.206,89.25c1.635-6.064,1.486-18.487,0-24.575
		c0.63,0,1.26,0,1.891,0c0,0.315,0,0.63,0,0.945c1.178,7.328-2.412,19.423,1.89,23.629c0.576,0.054,1.119,0.141,0.945,0.944
		c-0.945,0-1.89,0-2.835,0c-0.631,0-1.261,0-1.891,0c-0.632,0-1.262,0-1.892,0c-0.054-0.576-0.142-1.119-0.944-0.944
		c0-0.63,0-1.261,0-1.89c0-6.932,0-13.863,0-20.794c2.816,5.059-0.929,16.68,1.891,21.739C90.084,89.108,90.628,89.195,91.206,89.25
		z"/>
	<path fill-rule="evenodd" clip-rule="evenodd" fill="#1F0B05" d="M40.167,91.14c-0.623,6.625,1.247,15.741-0.946,20.793
		c0-0.315,0-0.63,0-0.945C39.204,106.615,38.372,96.491,40.167,91.14z"/>
	<path fill-rule="evenodd" clip-rule="evenodd" fill="#1F0B05" d="M74.192,91.14c0,6.3,0,12.603,0,18.904
		C72.04,108.463,73.002,95.485,74.192,91.14z"/>
	<path fill-rule="evenodd" clip-rule="evenodd" fill="#D9A762" d="M77.028,90.194c4.095,0,8.191,0,12.286,0c0.63,0,1.26,0,1.892,0
		C88.923,94.618,81.329,90.787,77.028,90.194z"/>
	<path fill-rule="evenodd" clip-rule="evenodd" fill="#D9A762" d="M93.097,90.194c0.945,0,1.89,0,2.835,0c1.259,0,2.52,0,3.78,0
		c0.84-0.58,1.688-1.142,1.891,0C101.606,92.95,95.069,91.141,93.097,90.194z"/>
	<path fill-rule="evenodd" clip-rule="evenodd" fill="#EAB654" d="M75.138,90.194c0.63,0,1.259,0,1.891,0
		c4.301,0.593,11.895,4.424,14.178,0c0.63,0,1.26,0,1.891,0c1.973,0.947,8.51,2.756,8.506,0c0.631,0,1.259,0,1.891,0
		c0,8.191,0,16.384,0,24.575c-1.136,1.241-0.369,1.485,0,2.835c0,1.891,0,3.781,0,5.672c-9.451,0-18.903,0-28.355,0
		c0-2.205,0-4.411,0-6.617c0.88-0.277,0.88-2.557,0-2.834C75.138,105.947,75.138,98.071,75.138,90.194z M84.59,96.811
		c-2.498,0.701-7.007,4.271-4.727,6.615c-0.16-2.365,1.451-2.959,2.836-3.78c-0.042,1.301,0.445,2.075,0.945,2.835
		c-1.114,0.148-2.685-0.162-2.836,0.945c1.682,0.459-0.411,1.009-0.945,1.891c1.47,0.246,0.654,2.074,0,2.836
		c1.111,0.148,2.684-0.162,2.836,0.945c-1.486,0.09-3.278-0.127-2.836,1.89c-1.536-7.154-1.928-9.015-1.89,0.945
		c1.309,0.374,2.676,5.366,3.779,2.836c-0.737-0.208-1.099-0.792-0.944-1.891c1.857-0.282,1.874,1.276,2.836,1.891
		c0.385-1.188,1.219-1.933,2.836-1.891c-0.901,2.937-3.4,3.599-4.728,3.78c1.997,0.841,2.794,2.877,5.672,2.836
		c-4.478,5.141-0.91,0.323,4.726,0.945c0.095,1.061-1.375,1.471,0,1.891c0.259-3.316,3.521,2.371,3.781-0.945
		c-1.762-0.13-3.161-0.621-3.781-1.891c4.95-0.721,6.609-4.733,9.452-7.562c0.564-3.473-0.702-12.946-0.945-4.726
		c-0.315,0-0.631,0-0.945,0c-1.471-0.246-0.656-2.072,0-2.836c-1.769,0.051-2.001-0.728-0.944-1.891c0.313,0,0.63,0,0.944,0
		c2.585,0.354-2.985-6.084-5.67-6.615C90.555,95.191,86.819,94.198,84.59,96.811z"/>
	<path fill-rule="evenodd" clip-rule="evenodd" fill="#D9A762" d="M68.522,113.825c2.486-1.582,3.182-3.854,5.67-0.946
		c-0.175,0.804,0.367,0.892,0.945,0.946c0.88,0.277,0.88,2.557,0,2.834c-0.315,0-0.631,0-0.945,0c-0.593-2.019-5.818-0.885-6.615,0
		c0.172-0.803-0.37-0.891-0.946-0.945C67.049,114.874,67.46,114.024,68.522,113.825z"/>
	<path fill-rule="evenodd" clip-rule="evenodd" fill="#541407" d="M138.465,113.825c0-2.521,0-5.043,0-7.563
		c0-5.041,0-10.081,0-15.123c0.758-0.501,1.533-0.986,2.835-0.946c4.654,4.344,0.129,16.734,1.891,21.739
		c-1.667-1.751-2.928,0.243-3.78,1.892C139.094,113.825,138.777,113.825,138.465,113.825z"/>
	<path fill-rule="evenodd" clip-rule="evenodd" fill="#541407" d="M39.221,110.988c-2.968-0.446-2.497,2.544-4.726,2.837
		c0-0.316,0-0.631,0-0.946c1.57-5.059,1.57-16.681,0-21.739c0-0.315,0-0.63,0-0.946c2.977,1.06,2.139,0.085,5.672,0
		c0,0.315,0,0.631,0,0.946C38.372,96.491,39.204,106.615,39.221,110.988z"/>
	<path fill-rule="evenodd" clip-rule="evenodd" fill="#D9A762" d="M92.15,119.495c0.62,1.27,2.02,1.761,3.781,1.891
		c-0.26,3.316-3.522-2.371-3.781,0.945c-1.375-0.42,0.095-0.83,0-1.891c-5.636-0.622-9.203,4.195-4.726-0.945
		C89,119.495,90.574,119.495,92.15,119.495z"/>
	<path fill-rule="evenodd" clip-rule="evenodd" fill="#6D3720" d="M50.563,93.975c2.778,2.842-4.631,3.516-4.726,6.616
		C43.044,97.737,49.831,96.441,50.563,93.975z"/>
	<path fill-rule="evenodd" clip-rule="evenodd" fill="#EAB654" d="M68.522,113.825c-1.063,0.199-1.474,1.049-1.892,1.889
		c0.576,0.055,1.118,0.143,0.946,0.945c0,2.206,0,4.412,0,6.617c-8.508,0-17.014,0-25.521,0c0-1.891,0-3.781,0-5.672
		c-0.079-1.496,0.455-3.604-0.944-3.779c0-7.878,0-15.754,0-23.631c8.818,0,17.643,0,26.465,0
		c1.233,3.919-2.206,11.625,0.945,11.343C68.522,105.631,68.522,109.727,68.522,113.825z M59.069,100.591
		c0.354-2.632-3.232-6.118-4.726-3.78c2.237,0.912,4.644,1.657,3.781,5.67c-0.429,2.971-9.051-1.059-5.671,0.945
		c0.392,2.129,5.182-0.142,4.726,2.836c-0.818,2.031,0.226,11.584,0,13.232c7.11,5.531,8.288-7.217,5.671-11.342
		c0.424-1.544-5.152-1.544-4.726,0c-2.109-0.139,1.225-2.381,0-4.727c1.666,0.655,2.927,1.045,3.779,0
		C60.118,103.323,61.247,100.301,59.069,100.591z M45.838,100.591c0.095-3.101,7.504-3.774,4.726-6.616
		C49.831,96.441,43.044,97.737,45.838,100.591z M47.728,108.153c-1.566,1.63-1.566,9.712,0,11.342c1.259,0,2.521,0,3.781,0
		c1.566-1.63,1.566-9.712,0-11.342C52.184,106.62,47.051,106.62,47.728,108.153z"/>
	<path fill-rule="evenodd" clip-rule="evenodd" fill="#92704C" d="M84.59,96.811c2.229-2.613,5.965-1.62,9.452-0.945
		c0,0.315,0,0.629,0,0.945c-1.262,0-2.522,0-3.781,0c0,0.629,0,1.26,0,1.891c0.02,4.125-1.629,0.16-0.946-1.891
		c-1.261,0-2.521,0-3.779,0C85.22,96.811,84.903,96.811,84.59,96.811z"/>
	<path fill-rule="evenodd" clip-rule="evenodd" fill="#6D3720" d="M112.945,105.317c-1.332-3.876,3.606-9.605,8.507-10.396
		C118.11,97.881,114.307,100.38,112.945,105.317z"/>
	<path fill-rule="evenodd" clip-rule="evenodd" fill="#EAB654" d="M137.52,90.194c-0.819,3.63,1.888,14.638-1.891,12.287
		c0.397,1.808,0.341,4.068,2.836,3.781c0,2.52,0,5.041,0,7.563c-2.219,2.419-3.526,5.42-0.945,8.506
		c-6.94,2.197-17.952,0.32-26.465,0.945c0-1.891,0-3.781,0-5.672c2.895-0.925-0.424-3.186-0.945-3.779
		c2.194-5.996,0.321-16.063,0.945-23.631c5.355,0,10.71,0,16.067,0c2.204,0,4.41,0,6.616,0
		C134.998,90.194,136.259,90.194,137.52,90.194z M129.014,100.591c0.354-4.19-3.842-4.587-5.673-3.78
		C114.632,100.639,128.218,109.934,129.014,100.591z M121.452,94.92c-4.9,0.791-9.839,6.521-8.507,10.396
		C114.307,100.38,118.11,97.881,121.452,94.92z M117.671,108.153c-1.567,1.63-1.567,9.712,0,11.342c1.258,0,2.521,0,3.781,0
		c1.565-1.63,1.565-9.712,0-11.342c-0.057-0.576-0.144-1.119-0.945-0.945C119.392,107.356,117.822,107.044,117.671,108.153z
		 M129.014,94.92c0.917,3.807,4.127,5.322,6.615,7.561C134.71,98.674,131.499,97.16,129.014,94.92z M128.067,108.153
		c-1.566,1.63-1.566,9.712,0,11.342c0.946,0,1.891,0,2.836,0c3.622,3.864,3.768-8.758,1.89-10.396
		C132.697,106.694,129.272,106.864,128.067,108.153z"/>
	<path fill-rule="evenodd" clip-rule="evenodd" fill="#D9A762" d="M57.18,119.495c0.226-1.648-0.818-11.201,0-13.232
		c0.456-2.978-4.334-0.707-4.726-2.836c-3.38-2.004,5.242,2.025,5.671-0.945c0.737-0.207,1.099-0.791,0.944-1.89
		c2.178-0.29,1.049,2.731,2.835,2.835c-0.853,1.045-2.113,0.655-3.779,0c1.225,2.346-2.109,4.588,0,4.727c0,3.465,0,6.932,0,10.396
		C57.319,118.375,57.233,118.918,57.18,119.495z"/>
	<path fill-rule="evenodd" clip-rule="evenodd" fill="#934B23" d="M58.125,102.481c0.862-4.013-1.544-4.758-3.781-5.67
		c1.493-2.338,5.079,1.148,4.726,3.78C59.224,101.69,58.862,102.274,58.125,102.481z"/>
	<path fill-rule="evenodd" clip-rule="evenodd" fill="#6D3720" d="M82.699,99.646c-1.385,0.821-2.996,1.415-2.836,3.78
		c-2.28-2.344,2.229-5.914,4.727-6.615c0.313,0,0.63,0,0.945,0C85.429,98.596,82.409,97.466,82.699,99.646z"/>
	<path fill-rule="evenodd" clip-rule="evenodd" fill="#D9A762" d="M90.261,98.702c0-0.631,0-1.262,0-1.891c1.259,0,2.52,0,3.781,0
		c1.878,1.902,4.47,3.09,5.67,5.67c-0.314,0-0.631,0-0.944,0c-0.735,0.213-1.865,0.027-1.892,0.945
		c-3.192-0.384,2.515-3.664-1.89-2.835c-0.107-3.34-1.733,0.099-2.836-2.835C91.202,97.752,91.026,98.522,90.261,98.702z"/>
	<path fill-rule="evenodd" clip-rule="evenodd" fill="#6D3720" d="M94.042,95.866c2.685,0.531,8.255,6.969,5.67,6.615
		c-1.2-2.58-3.792-3.768-5.67-5.67C94.042,96.495,94.042,96.181,94.042,95.866z"/>
	<path fill-rule="evenodd" clip-rule="evenodd" fill="#D9A762" d="M123.341,96.811c1.831-0.807,6.026-0.41,5.673,3.78
		C128.218,109.934,114.632,100.639,123.341,96.811z"/>
	<path fill-rule="evenodd" clip-rule="evenodd" fill="#6D3720" d="M135.629,102.481c-2.488-2.238-5.698-3.754-6.615-7.561
		C131.499,97.16,134.71,98.674,135.629,102.481z"/>
	<path fill-rule="evenodd" clip-rule="evenodd" fill="#C88E40" d="M79.863,110.988c-0.442-2.017,1.35-1.8,2.836-1.89
		c-0.152-1.107-1.725-0.797-2.836-0.945c0.654-0.762,1.47-2.59,0-2.836c0.534-0.882,2.627-1.432,0.945-1.891
		c0.151-1.107,1.722-0.797,2.836-0.945c-0.5-0.76-0.987-1.534-0.945-2.835c-0.29-2.18,2.729-1.05,2.836-2.835
		c1.259,0,2.519,0,3.779,0c-0.683,2.051,0.966,6.016,0.946,1.891c0.766-0.18,0.941-0.949,1.89-0.945
		c1.103,2.934,2.729-0.505,2.836,2.835c-0.268,1.108-4.165,3.929,0,3.78c-0.181,0.766-0.948,0.942-0.944,1.891
		c-0.633,0-1.262,0-1.892,0c-1.945-2.79-6.615-0.389-4.726,3.781c0.079,1.342,0.155,2.676-0.944,2.835
		c-1.617-0.042-2.451,0.702-2.836,1.891c-0.962-0.614-0.979-2.173-2.836-1.891C79.89,112.852,80.074,111.721,79.863,110.988z"/>
	<path fill-rule="evenodd" clip-rule="evenodd" fill="#C88E40" d="M132.793,109.098c1.878,1.639,1.732,14.261-1.89,10.396
		C134.883,119.379,131.841,112.242,132.793,109.098z"/>
	<path fill-rule="evenodd" clip-rule="evenodd" fill="#1F0B05" d="M47.728,108.153c-0.677-1.533,4.456-1.533,3.781,0
		c0,0.314,0,0.629,0,0.945c-5.372-4.199-0.974,8.09-3.781,9.451C47.728,115.084,47.728,111.618,47.728,108.153z"/>
	<path fill-rule="evenodd" clip-rule="evenodd" fill="#541407" d="M58.125,108.153c-0.427-1.544,5.149-1.544,4.726,0
		c-0.604,3.492,1.224,9.415-0.946,11.342c-1.414-0.16-3.487,0.338-3.779-0.945C58.125,115.084,58.125,111.618,58.125,108.153z"/>
	<path fill-rule="evenodd" clip-rule="evenodd" fill="#1F0B05" d="M117.671,108.153c0.151-1.108,1.721-0.797,2.836-0.945
		c-3.967,0.762-0.14,9.314-2.836,11.342C117.671,115.084,117.671,111.618,117.671,108.153z"/>
	<path fill-rule="evenodd" clip-rule="evenodd" fill="#541407" d="M117.671,118.549c2.696-2.027-1.131-10.58,2.836-11.342
		c0.802-0.174,0.889,0.369,0.945,0.945c0,3.78,0,7.561,0,11.342c-1.261,0-2.523,0-3.781,0
		C117.671,119.18,117.671,118.865,117.671,118.549z"/>
	<path fill-rule="evenodd" clip-rule="evenodd" fill="#541407" d="M128.067,108.153c1.205-1.289,4.63-1.459,4.726,0.945
		c-0.952,3.144,2.09,10.281-1.89,10.396c-0.945,0-1.89,0-2.836,0C128.067,115.713,128.067,111.933,128.067,108.153z"/>
	<path fill-rule="evenodd" clip-rule="evenodd" fill="#EAB654" d="M92.15,106.262c0,1.261,0,2.52,0,3.781c-1.576,0-3.15,0-4.726,0
		C85.535,105.874,90.205,103.472,92.15,106.262z"/>
	<path fill-rule="evenodd" clip-rule="evenodd" fill="#D9A762" d="M39.221,111.933c0.418,0.842,0.829,1.69,1.892,1.892
		c1.399,0.175,0.865,2.283,0.944,3.779c-1.375-1.461-4.84-0.832-7.562-0.945c0-0.945,0-1.89,0-2.834
		c2.229-0.293,1.758-3.283,4.726-2.837C39.221,111.303,39.221,111.618,39.221,111.933z"/>
	<path fill-rule="evenodd" clip-rule="evenodd" fill="#C88E40" d="M67.577,116.659c0.797-0.885,6.022-2.019,6.615,0
		c-1.891,0-3.781,0-5.67,0c-0.564,1.959,1.166,6.21-0.945,6.617C67.577,121.071,67.577,118.865,67.577,116.659z"/>
	<path fill-rule="evenodd" clip-rule="evenodd" fill="#D9A762" d="M105.384,113.825c0.528-1.361,1.474-2.307,2.835-2.837
		c0.199,1.062,1.049,1.472,1.891,1.891c0,0.315,0,0.63,0,0.946c0.521,0.594,3.84,2.854,0.945,3.779
		c-0.815-1.951-6.579-0.997-7.562,0c-0.369-1.35-1.136-1.594,0-2.835C104.592,114.922,105.175,114.561,105.384,113.825z"/>
	<path fill-rule="evenodd" clip-rule="evenodd" fill="#D9A762" d="M138.465,113.825c0.313,0,0.629,0,0.945,0
		c0.853-1.648,2.113-3.643,3.78-1.892c-0.176,0.804,0.367,0.892,0.945,0.945c-0.176,0.804,0.368,0.892,0.944,0.946
		c0,7.561,0,15.121,0,22.684c-0.314,0-0.631,0-0.944,0c0-0.316,0-0.631,0-0.945c0-3.467,0-6.932,0-10.396c0-2.521,0-5.042,0-7.563
		c-2.773-2.708-9.031-0.885-6.616,4.727C134.938,119.245,136.246,116.244,138.465,113.825z"/>
	<path fill-rule="evenodd" clip-rule="evenodd" fill="#934B23" d="M122.396,127.056c0.947,0.003,1.124-0.766,1.89-0.945
		c0.586,2.565-1.198,7.501,0.945,8.507c2.144-1.006,0.358-5.941,0.946-8.507c0.947-0.003,1.123,0.766,1.89,0.945
		c0,2.521,0,5.04,0,7.562c0,0.315,0,0.629,0,0.945c-2.836,0-5.671,0-8.507,0c0-0.63,0-1.26,0-1.891
		c0.765,0.18,0.942,0.949,1.892,0.945C123.582,133.914,121.821,129.317,122.396,127.056z"/>
	<path fill-rule="evenodd" clip-rule="evenodd" fill="#934B23" d="M112.945,134.618c2.144-1.006,0.357-5.941,0.945-8.507
		c0.947-0.003,1.123,0.766,1.89,0.945c0.44,3.527-1.546,9.478,2.836,6.616c0,0.631,0,1.261,0,1.891c-1.892,0-3.782,0-5.671,0
		C112.945,135.247,112.945,134.933,112.945,134.618z"/>
	<path fill-rule="evenodd" clip-rule="evenodd" fill="#934B23" d="M97.821,127.056c0.948,0.003,1.125-0.766,1.891-0.945
		c0.586,2.565-1.2,7.501,0.945,8.507c2.143-1.006,0.358-5.941,0.945-8.507c0.946-0.003,1.125,0.766,1.891,0.945
		c0,2.521,0,5.04,0,7.562c0.764-0.18,0.941-0.949,1.891-0.945c1.105-0.152,0.795-1.723,0.944-2.836c0.314,0,0.63,0,0.945,0
		c-0.448,2.949,1.178,4.576,2.836,2.836c0,0.631,0,1.261,0,1.891c-6.932,0-13.864,0-20.795,0c0-0.316,0-0.63,0-0.945
		c0-2.836,0-5.672,0-8.507c0.948-0.003,1.125,0.766,1.892,0.945c0.112,2.723-0.518,6.188,0.944,7.562
		c2.396-2.549,0.744-3.67,1.892-6.616c0.313,0,0.63,0,0.944,0c-0.301,3.136-0.144,5.814,1.89,6.616
		C99.008,133.914,97.246,129.317,97.821,127.056z"/>
	<path fill-rule="evenodd" clip-rule="evenodd" fill="#934B23" d="M66.631,126.111c0.193,2.958-0.638,6.938,0.946,8.507
		c2.144-1.006,0.357-5.941,0.945-8.507c0.945-0.003,1.123,0.766,1.889,0.945c0,2.521,0,5.04,0,7.562
		c2.495-0.34,3.399-2.271,2.836-5.672c0.314,0,0.63,0,0.945,0c2.021,2.14-1.229,4.157,1.892,5.672
		c2.13-0.704,0.368-5.301,0.944-7.562c0.63,0,1.258,0,1.891,0c0.573,2.261-1.187,6.857,0.944,7.562c0,0.315,0,0.629,0,0.945
		c-5.356,0-10.712,0-16.067,0c0-0.316,0-0.63,0-0.945c0-0.314,0-0.63,0-0.945c2.112-0.407,0.382-4.658,0.944-6.616
		C65.688,127.059,65.865,126.291,66.631,126.111z"/>
	<path fill-rule="evenodd" clip-rule="evenodd" fill="#934B23" d="M52.454,127.056c0.947,0.003,1.124-0.766,1.89-0.945
		c0.586,2.565-1.199,7.501,0.945,8.507c2.144-1.006,0.358-5.941,0.945-8.507c0.947-0.003,1.124,0.766,1.891,0.945
		c0,2.521,0,5.04,0,7.562c0,0.315,0,0.629,0,0.945c-2.263,0.574-6.858-1.187-7.562,0.945c-0.315,0-0.633,0-0.945,0
		c0-0.316,0-0.631,0-0.945c0-0.63,0-1.26,0-1.891c0.758,0.5,1.534,0.986,2.836,0.945C52.454,132.096,52.454,129.577,52.454,127.056z
		"/>
	<path fill-rule="evenodd" clip-rule="evenodd" fill="#934B23" d="M42.057,127.056c0,2.521,0,5.04,0,7.562
		c3.133-0.332,1.483-5.448,1.891-8.507c0.946-0.003,1.124,0.766,1.891,0.945c0.112,2.723-0.517,6.188,0.944,7.562
		c0,0.315,0,0.629,0,0.945c-3.15,0-6.303,0-9.451,0c0-0.63,0-1.26,0-1.891c1.525-0.267,1.626,0.894,2.836,0.945
		c0-1.891,0-3.781,0-5.672c0.736-0.207,1.098-0.791,0.945-1.89C41.425,127.056,41.742,127.056,42.057,127.056z"/>
	<path fill-rule="evenodd" clip-rule="evenodd" fill="#541407" d="M45.838,127.056c0-0.315,0-0.63,0-0.945
		c4.273-0.875,3.123,6.802,1.89,8.507c-0.315,0-0.631,0-0.945,0C45.321,133.244,45.95,129.779,45.838,127.056z"/>
	<path fill-rule="evenodd" clip-rule="evenodd" fill="#541407" d="M52.454,127.056c0,2.521,0,5.04,0,7.562
		c-1.302,0.041-2.078-0.445-2.836-0.945c0.289-3.175-1.263-8.193,2.836-7.562C52.454,126.426,52.454,126.741,52.454,127.056z"/>
	<path fill-rule="evenodd" clip-rule="evenodd" fill="#541407" d="M63.796,134.618c-3.606,0.153-2.095-11.669,0.944-7.562
		c-2.05,1.929-1.958,5.913-0.944,6.616C63.796,133.988,63.796,134.303,63.796,134.618z"/>
	<path fill-rule="evenodd" clip-rule="evenodd" fill="#541407" d="M77.028,127.056c-0.576,2.261,1.186,6.857-0.944,7.562
		c-3.12-1.515,0.13-3.532-1.892-5.672c1.625-0.291-1.229-3.281,2.836-2.835C77.028,126.426,77.028,126.741,77.028,127.056z"/>
	<path fill-rule="evenodd" clip-rule="evenodd" fill="#1F0B05" d="M78.919,127.056c0.008-0.954,1.655-1.188,1.89,0
		c-0.575,2.261,1.187,6.857-0.945,7.562C77.732,133.914,79.492,129.317,78.919,127.056z"/>
	<path fill-rule="evenodd" clip-rule="evenodd" fill="#541407" d="M82.699,128.946c0-0.944,0-1.89,0-2.835
		c4.097-0.632,2.544,4.387,2.836,7.562C83.1,136.122,82.251,132.159,82.699,128.946z"/>
	<path fill-rule="evenodd" clip-rule="evenodd" fill="#1F0B05" d="M91.206,127.056c0.922-3.132,1.868,1.056,2.836,0.945
		c-1.147,2.946,0.504,4.067-1.892,6.616C90.688,133.244,91.318,129.779,91.206,127.056z"/>
	<path fill-rule="evenodd" clip-rule="evenodd" fill="#541407" d="M103.493,127.056c1.361-2.792,3.806,1.126,2.835,3.78
		c-0.149,1.113,0.161,2.684-0.944,2.836C103.006,131.965,107.382,127.868,103.493,127.056z"/>
	<path fill-rule="evenodd" clip-rule="evenodd" fill="#541407" d="M107.273,130.836c-0.186-2.706-0.118-5.158,2.836-4.726
		c0,2.521,0,5.042,0,7.562C108.451,135.413,106.825,133.786,107.273,130.836z"/>
	<path fill-rule="evenodd" clip-rule="evenodd" fill="#541407" d="M122.396,127.056c-0.575,2.261,1.186,6.857-0.944,7.562
		c-0.949,0.004-1.127-0.766-1.892-0.945c0.29-3.175-1.263-8.193,2.836-7.562C122.396,126.426,122.396,126.741,122.396,127.056z"/>
	<path fill-rule="evenodd" clip-rule="evenodd" fill="#541407" d="M128.067,127.056c3.385-3.963,4.584,8.677,0,7.562
		C128.067,132.096,128.067,129.577,128.067,127.056z"/>
	<path fill-rule="evenodd" clip-rule="evenodd" fill="#541407" d="M131.847,133.672c-0.484-3.068,0.072-9.926,2.837-6.616
		c-0.114,2.723,0.515,6.188-0.945,7.562C132.972,134.438,132.795,133.668,131.847,133.672z"/>
	<path fill-rule="evenodd" clip-rule="evenodd" fill="#1F0B05" d="M137.52,134.618c-1.462-1.374-0.833-4.839-0.945-7.562
		c0.01-0.954,1.655-1.188,1.891,0C137.888,129.317,139.65,133.914,137.52,134.618z"/>
	<path fill-rule="evenodd" clip-rule="evenodd" fill="#541407" d="M73.247,128.946c0.563,3.4-0.341,5.332-2.836,5.672
		c0-2.521,0-5.041,0-7.562C70.796,124.702,74.073,127,73.247,128.946z"/>
	<path fill-rule="evenodd" clip-rule="evenodd" fill="#1F0B05" d="M89.314,134.618c-4.051,1.239-2.592-7.988,0-8.507
		C89.314,128.946,89.314,131.782,89.314,134.618z"/>
	<path fill-rule="evenodd" clip-rule="evenodd" fill="#1F0B05" d="M105.384,133.672c-0.949-0.004-1.127,0.766-1.891,0.945
		c0-2.521,0-5.041,0-7.562C107.382,127.868,103.006,131.965,105.384,133.672z"/>
	<path fill-rule="evenodd" clip-rule="evenodd" fill="#934B23" d="M136.574,127.056c0.112,2.723-0.517,6.188,0.945,7.562
		c0,0.315,0,0.629,0,0.945c-1.891,0-3.781,0-5.673,0c0-0.63,0-1.26,0-1.891c0.948-0.004,1.125,0.766,1.892,0.945
		c1.46-1.374,0.831-4.839,0.945-7.562C135.313,127.056,135.943,127.056,136.574,127.056z"/>
	<path fill-rule="evenodd" clip-rule="evenodd" fill="#6D3720" d="M140.354,128.001c0.273,2.561-1.331,7.001,2.836,5.671
		c-1.331,1.402-3.019,2.032,0.945,1.891c0,0.314,0,0.629,0,0.945c0,12.917,0,25.834,0,38.752
		c-4.599-8.189,4.897-39.977-5.671-38.752c-0.317,0-0.632,0-0.945,0c0-0.316,0-0.631,0-0.945c0-0.316,0-0.63,0-0.945
		c2.131-0.704,0.368-5.301,0.945-7.562C139.411,127.052,139.588,127.822,140.354,128.001z"/>
	<path fill-rule="evenodd" clip-rule="evenodd" fill="#D9A762" d="M48.674,136.508c0.313,0,0.63,0,0.944,0c0.313,0,0.63,0,0.945,0
		c0.313,0,0.629,0,0.945,0c-0.42,0.841-0.832,1.689-1.891,1.89c0.18,0.766,0.947,0.942,0.945,1.892
		c0.764-0.18,0.941-0.949,1.891-0.946c-0.53,1.361-1.476,2.307-2.836,2.835c-0.656-1.666-1.044-2.926,0-3.78
		C49.437,137.633,48.669,137.457,48.674,136.508z"/>
	<path fill-rule="evenodd" clip-rule="evenodd" fill="#EAB654" d="M42.057,136.508c2.204,0,4.411,0,6.617,0
		c-0.005,0.948,0.763,1.125,0.944,1.89c-1.044,0.854-0.656,2.114,0,3.78c-2.874,3.113-5.26,6.715-8.506,9.452
		c0-1.261,0-2.521,0-3.78C43.281,145.923,41.454,140,42.057,136.508z"/>
	<path fill-rule="evenodd" clip-rule="evenodd" fill="#EAB654" d="M69.467,150.685c-4.807-4.017-9.218-8.427-13.232-13.231
		c-2.579-0.689-1.903,1.878-3.78,1.89c-0.949-0.003-1.127,0.767-1.891,0.946c0.002-0.949-0.766-1.126-0.945-1.892
		c1.059-0.2,1.471-1.049,1.891-1.89c5.671,0,11.342,0,17.014,0c0.604,3.804-1.23,10.05,0.944,12.287
		C69.467,149.425,69.467,150.055,69.467,150.685z"/>
	<path fill-rule="evenodd" clip-rule="evenodd" fill="#934B23" d="M68.522,152.576c-0.183-0.765-0.949-0.942-0.945-1.891
		c0.839,0.581,1.688,1.144,1.89,0c0-0.63,0-1.26,0-1.89c0-4.096,0-8.191,0-12.287c2.204,0,4.41,0,6.617,0
		c0.069,10.877,0.238,9.893,0,17.958c1.802-1.976,3.048-4.513,3.779-7.562c1.027-0.234,0.642-1.879,1.89-1.891
		c-1.129,5.172-4.541,8.061-5.669,13.232c0,2.521,0,5.041,0,7.562c-2.164,1.618-0.349,7.215-0.946,10.397c-1.891,0-3.78,0-5.671,0
		C68.844,168.637,70.716,158.571,68.522,152.576z"/>
	<path fill-rule="evenodd" clip-rule="evenodd" fill="#EAB654" d="M76.084,136.508c2.835,0,5.669,0,8.506,0
		c-1.685,3.04-6.22,3.232-6.616,7.561c1.609-0.973,3.5-6.495,5.671-3.779c-2.196,0.639-2.531,3.14-4.726,3.779
		c-0.268,1.527,0.892,1.627,0.944,2.836c-0.731,3.049-1.978,5.586-3.779,7.562C76.322,146.401,76.153,147.385,76.084,136.508z"/>
	<path fill-rule="evenodd" clip-rule="evenodd" fill="#EAB654" d="M110.109,136.508c9.137,0,18.273,0,27.41,0
		c0.604,3.804-1.23,10.05,0.945,12.287c-0.056,0.576-0.142,1.119-0.945,0.945c-4.491-3.701-8.588-7.797-12.288-12.287
		c-5.099,2.148-7.817,6.675-11.341,10.396c-1.878,2.18,0.235,1.05,0.943,2.835c-0.491,1.398-1.397,2.383-1.889,3.781
		c-0.182,0.767-0.949,0.942-0.944,1.89c-0.767,0.18-0.945,0.949-1.892,0.945c-1.584-4.288,2.754-4.834,2.836-7.561
		c0-0.004-2.417,1.327-1.891,1.89C108.558,148.958,110.902,142.875,110.109,136.508z"/>
	<path fill-rule="evenodd" clip-rule="evenodd" fill="#6D3720" d="M52.454,139.343c1.877-0.012,1.201-2.579,3.78-1.89
		c4.015,4.805,8.426,9.215,13.232,13.231c-0.201,1.144-1.051,0.581-1.89,0c-2.197-0.64-2.531-3.141-4.727-3.78
		c-1.63-3.097-4.987-4.465-6.616-7.562c-5.099,2.148-7.817,6.676-11.343,10.397c-1.361,0.529-2.307,1.475-2.835,2.835
		c-0.579-0.054-1.12-0.141-0.944-0.945c3.246-2.737,5.632-6.339,8.506-9.452C50.979,141.65,51.924,140.705,52.454,139.343z"/>
	<path fill-rule="evenodd" clip-rule="evenodd" fill="#B98339" d="M44.892,149.741c3.525-3.722,6.244-8.249,11.343-10.397
		c1.629,3.097,4.986,4.465,6.616,7.562c0.403,1.8,2.036,2.375,1.89,4.726c-0.763-0.655-2.59-1.471-2.836,0
		c2.96,1.216,0.487,1.955,1.892,4.726c-2.074-3.648-5.691-6.24-5.671-9.451c-2.027,1.125-5.282,1.021-6.616,2.836
		c-2.563,0.509-2.354,0.758-5.671,1.89C45.624,150.897,45.81,149.766,44.892,149.741z"/>
	<path fill-rule="evenodd" clip-rule="evenodd" fill="#934B23" d="M92.15,143.124c-1.055-1.162-0.822-1.94,0.946-1.89
		c-1.851-3.327-4.744-0.692-8.507-0.944c-0.315,0-0.631,0-0.945,0c-2.171-2.716-4.062,2.807-5.671,3.779
		c0.396-4.328,4.932-4.521,6.616-7.561c-0.153-1.107-1.725-0.797-2.837-0.945c0-2.205,0-4.41,0-6.617c0.315,0,0.63,0,0.946,0
		c-0.448,3.213,0.4,7.176,2.836,4.727c0,0.631,0,1.261,0,1.891c0,0.314,0,0.629,0,0.945c2.835,0,5.671,0,8.507,0
		c-0.209,0.736-0.793,1.099-1.892,0.945c2.229,0.581,4.919,0.636,7.562,2.836c-0.288,2.203-2.018,4.071,0.945,4.725
		c-0.823,2.792-1.416-2.192-3.781-0.945c-1.168,3.059,3.058,0.723,1.892,3.781c-0.738,0.209-1.1,0.791-0.946,1.891
		C96.156,147.308,93.71,145.659,92.15,143.124z"/>
	<path fill-rule="evenodd" clip-rule="evenodd" fill="#6D3720" d="M131.847,146.905c-2.123-2.918-4.643-5.438-7.561-7.562
		c-4.167,2.136-5.451,7.15-10.396,8.507c3.523-3.722,6.242-8.248,11.341-10.396c3.7,4.49,7.797,8.586,12.288,12.287
		c-0.202,1.143-1.051,0.58-1.891,0C133.701,149.461,133.774,147.183,131.847,146.905z"/>
	<path fill-rule="evenodd" clip-rule="evenodd" fill="#D9A762" d="M62.851,146.905c2.195,0.64,2.529,3.141,4.727,3.78
		c-0.004,0.948,0.763,1.126,0.945,1.891c-0.952,2.67-0.896-3-2.836,0c0.173-0.804-0.369-0.892-0.946-0.945
		C64.887,149.28,63.254,148.705,62.851,146.905z"/>
	<path fill-rule="evenodd" clip-rule="evenodd" fill="#B98339" d="M113.891,147.85c4.944-1.356,6.229-6.371,10.396-8.507
		c2.918,2.124,5.438,4.644,7.561,7.562c0.18,0.766,0.948,0.942,0.946,1.891c-1.735,3.012-3.256-0.63-1.89,3.78
		c-1.363-0.529-2.308-1.474-2.836-2.835c-0.742-2.072-0.304-5.251-3.781-6.617c0.179,0.766,0.947,0.943,0.945,1.891
		c-0.315,0-0.631,0-0.945,0c-0.804,0.174-0.891-0.369-0.945-0.945c-3.13-1.141-1.914,5.409-6.616,6.616
		c0.854,2.562,2.114-2.16,3.782-1.89c2.819,1.115-3.459,0.818-1.891,3.78c-0.201,1.061-1.051,1.472-1.892,1.891
		c-1.779-1.667,1.294-2.927-1.891-3.781C114.126,148.9,112.013,150.03,113.891,147.85z"/>
	<path fill-rule="evenodd" clip-rule="evenodd" fill="#92704C" d="M45.838,151.63c3.317-1.132,3.107-1.381,5.671-1.89
		c-0.278,1.928-2.56,1.854-2.835,3.78c-2.741-0.529,1.449-1.475,0.944-2.836c-3.869,1.546-1.29,3.695-3.78,6.616
		c-4.521,2.988,1.319-4.629-0.946-4.726C44.946,151.999,45.033,151.458,45.838,151.63z"/>
	<path fill-rule="evenodd" clip-rule="evenodd" fill="#C88E40" d="M92.15,143.124c-9.948-3.034-12.604,11.5-14.177,17.014
		c-1.25-0.012-0.865-1.656-1.89-1.891c1.128-5.172,4.54-8.061,5.669-13.232c0.293-2.229,3.283-1.758,2.837-4.725
		c3.763,0.252,6.656-2.383,8.507,0.944C91.328,141.183,91.096,141.961,92.15,143.124z"/>
	<path fill-rule="evenodd" clip-rule="evenodd" fill="#EAB886" d="M88.37,172.424c3.891,0.466-0.91-3.258,2.836-0.945
		c-0.176,0.805,0.367,0.892,0.944,0.945c0.946,0,1.892,0,2.836,0c0.314,0,0.629,0,0.945,0c0.732,0.213,1.862,0.025,1.89,0.945
		c-4.429-0.611-11.317,1.236-14.177-0.945c0.054-0.576,0.141-1.119,0.945-0.945c0.151,1.107,1.723,0.797,2.835,0.945
		C87.739,172.424,88.054,172.424,88.37,172.424z"/>
	<path fill-rule="evenodd" clip-rule="evenodd" fill="#934B23" d="M103.493,147.85c-0.947-1.26-1.561-2.854-2.836-3.781
		c0.945-2.916,1.559,2.051,2.836,1.891c1.032-0.486-0.695-6.176,0-9.451c2.203,0,4.41,0,6.616,0
		c0.793,6.367-1.552,12.449,0.945,15.122c-0.526-0.563,1.891-1.894,1.891-1.89c-0.082,2.727-4.42,3.272-2.836,7.561
		c-0.002,3.15,0,6.301,0,9.453c0,0.314,0,0.629,0,0.944c-0.194,2.957,0.637,6.938-0.946,8.507c-1.662-0.545-5.553,1.143-5.67-0.945
		c0-0.315,0-0.63,0-0.945C105.065,167.686,105.065,154.479,103.493,147.85z"/>
	<path fill-rule="evenodd" clip-rule="evenodd" fill="#92704C" d="M120.507,148.795c-1.668-0.271-2.929,4.451-3.782,1.89
		c4.702-1.207,3.486-7.757,6.616-6.616c-0.84,0.42-1.689,0.83-1.889,1.891c0.803,0.174,0.89-0.369,0.944-0.945
		C124.956,145.868,120.235,147.129,120.507,148.795z"/>
	<path fill-rule="evenodd" clip-rule="evenodd" fill="#D9A762" d="M125.231,145.014c0.002-0.947-0.767-1.125-0.945-1.891
		c3.478,1.366,3.039,4.545,3.781,6.617c-0.948,0.003-1.126-0.766-1.89-0.945c-0.956,0.012-1.188,1.656,0,1.89
		C123.675,152.915,124.663,147.331,125.231,145.014z"/>
	<path fill-rule="evenodd" clip-rule="evenodd" fill="#D9A762" d="M84.59,140.29c0.446,2.967-2.544,2.496-2.837,4.725
		c-1.248,0.012-0.862,1.656-1.89,1.891c-0.053-1.209-1.212-1.309-0.944-2.836c2.194-0.64,2.529-3.141,4.726-3.779
		C83.959,140.29,84.274,140.29,84.59,140.29z"/>
	<path fill-rule="evenodd" clip-rule="evenodd" fill="#D9A762" d="M120.507,148.795c-0.271-1.666,4.449-2.928,1.89-3.781
		c-0.055,0.576-0.142,1.119-0.944,0.945c0.199-1.061,1.049-1.471,1.889-1.891c0.055,0.576,0.142,1.119,0.945,0.945
		c-1.479,2.934-2.622,6.199-5.67,7.562C117.048,149.614,123.326,149.911,120.507,148.795z"/>
	<path fill-rule="evenodd" clip-rule="evenodd" fill="#EAB654" d="M132.793,148.795c0.002-0.948-0.767-1.125-0.946-1.891
		c1.928,0.278,1.854,2.557,3.782,2.836c0.226,1.348,1.557,1.594,1.891,2.835c-0.003,1.575,0,3.151,0,4.726c-0.315,0-0.631,0-0.945,0
		c-0.132-1.76-0.623-3.158-1.891-3.78c-0.181-0.766-0.949-0.942-0.945-1.891c-1.188,0.234-0.954,1.88,0,1.891
		C130.052,155.429,134.04,149.436,132.793,148.795z"/>
	<path fill-rule="evenodd" clip-rule="evenodd" fill="#D9A762" d="M41.112,165.808c7.196,1.32-1.951,0.906,0.944,9.452
		c0.174,0.805-0.37,0.892-0.944,0.945C41.112,172.74,41.112,169.274,41.112,165.808z"/>
	<path fill-rule="evenodd" clip-rule="evenodd" fill="#EAB654" d="M51.509,149.741c1.334-1.815,4.589-1.711,6.616-2.836
		c-0.021,3.211,3.597,5.803,5.671,9.451c1.026,0.234,0.641,1.88,1.891,1.891c-0.122,1.695,1.154,1.994,0.944,3.78
		c2.021,3.019,2.082,7.999,1.892,13.233c-1.762-0.131-3.162-0.622-3.782-1.891c3.057-1.088-2.538-1.07-3.779-0.945
		c-0.6-3.182,1.215-8.779-0.945-10.397c-0.632,0-1.261,0-1.891,0c-2.156,1.312-0.353,6.579-0.945,9.452
		c-0.805-0.174-0.892,0.369-0.945,0.945c-0.945,0-1.891,0-2.836,0c-0.917-3.809,2.681-12.133-3.78-10.397
		c0.173-0.804-0.369-0.891-0.944-0.944c0,3.78,0,7.562,0,11.342c-1.677,0.216-4.735-0.953-3.782,1.891
		c-0.76,0.5-1.536,0.985-2.835,0.945c-2.896-8.546,6.252-8.132-0.944-9.452c0.409-4.315-0.956-10.407,0.944-13.232
		c0.528-1.36,1.474-2.306,2.835-2.835c0.918,0.025,0.732,1.156,0.946,1.89c-0.805-0.173-0.892,0.368-0.946,0.945
		c-1.918,3.124-3.534,6.547-2.835,12.287c1.654-2.126,2.245-5.314,3.781-7.562c2.49-2.921-0.089-5.07,3.78-6.616
		c0.505,1.361-3.686,2.307-0.944,2.836C48.949,151.594,51.23,151.668,51.509,149.741z"/>
	<path fill-rule="evenodd" clip-rule="evenodd" fill="#EAB654" d="M92.15,143.124c1.56,2.535,4.006,4.185,5.671,6.617
		c-0.153-1.1,0.208-1.682,0.946-1.891c1.166-3.059-3.06-0.723-1.892-3.781c2.365-1.247,2.958,3.737,3.781,0.945
		c-2.963-0.653-1.233-2.521-0.945-4.725c-2.643-2.2-5.332-2.255-7.562-2.836c1.099,0.153,1.683-0.209,1.892-0.945
		c3.148,0,6.3,0,9.451,0c-0.695,3.275,1.032,8.965,0,9.451c-1.277,0.16-1.891-4.807-2.836-1.891
		c1.275,0.928,1.889,2.521,2.836,3.781c0,8.822,0,17.643,0,26.465c0,0.315,0,0.63,0,0.945c-2.975,0.453-3.695-1.347-5.672-1.891
		c-0.027-0.92-1.157-0.732-1.89-0.945c-0.607-3.805,1.229-10.05-0.945-12.287c-0.153-1.107-1.724-0.797-2.836-0.945
		c-2.173,2.238-0.339,8.483-0.944,12.287c-3.746-2.313,1.055,1.411-2.836,0.945c-0.774-4.27,1.82-11.903-1.89-13.232
		c-1.527-0.267-1.629,0.894-2.836,0.945c0.077,1.498-0.457,3.605,0.945,3.781c0,2.52,0,5.04,0,7.561
		c-0.805-0.174-0.892,0.369-0.945,0.945c-2.29,1.178-4.594,2.34-7.561,2.836c0-3.151-0.003-6.302,0-9.452c0-2.521,0-5.04,0-7.562
		c1.024,0.234,0.64,1.879,1.89,1.891C79.546,154.624,82.202,140.089,92.15,143.124z M98.768,147.85
		c1.729,1.733-0.851,6.65,0.944,4.726c0.905-3.483,1.931,5.374,2.836,1.891C100.777,152.77,101.417,148.665,98.768,147.85z"/>
	<path fill-rule="evenodd" clip-rule="evenodd" fill="#C88E40" d="M136.574,164.863c0.764,0.179,0.941,0.949,1.891,0.945
		c0,3.466,0,6.932,0,10.397c-0.806,0.174-0.892-0.369-0.945-0.945C137.211,171.788,138.324,166.892,136.574,164.863z"/>
	<path fill-rule="evenodd" clip-rule="evenodd" fill="#EAB654" d="M125.231,145.014c-0.568,2.316-1.557,7.9,0.946,5.671
		c-1.188-0.233-0.956-1.878,0-1.89c0.764,0.18,0.941,0.948,1.89,0.945c0.528,1.361,1.473,2.306,2.836,2.835
		c1.215,2.249,2.422,4.509,3.78,6.616c0.404,1.8,2.036,2.375,1.891,4.727c0,0.314,0,0.629,0,0.944
		c1.75,2.029,0.637,6.925,0.945,10.397c-1.527,0.266-1.629-0.893-2.836-0.945c0.969-3.176-2.94-1.471-4.726-1.891
		c-0.6-3.182,1.216-8.779-0.944-10.397c-1.344-0.081-2.678-0.155-2.836,0.945c0,2.206,0,4.411,0,6.617c0,0.944,0,1.89,0,2.835
		c-0.946,0-1.892,0-2.837,0c-0.599-3.182,1.218-8.779-0.944-10.397c-0.944,0-1.89,0-2.836,0c-2.155,1.312-0.352,6.579-0.944,9.452
		c-0.765,0.813-2.591,0.563-2.836,1.891c-0.316,0-0.631,0-0.946,0c3.729-4.737-0.732-0.989-2.833,0.945
		c-2.71-0.129,0.814-6.488-1.892-6.616c0-0.315,0-0.63,0-0.944c0.882-0.693,1.43-1.72,1.892-2.836
		c1.032-2.117,1.563-4.737,2.833-6.617c0.332-1.242,1.665-1.486,1.891-2.835c0.841-0.419,1.69-0.83,1.892-1.891
		c3.048-1.362,4.191-4.628,5.67-7.562C124.601,145.014,124.916,145.014,125.231,145.014z"/>
	<path fill-rule="evenodd" clip-rule="evenodd" fill="#D9A762" d="M110.109,167.699c2.706,0.128-0.818,6.487,1.892,6.616
		c2.101-1.935,6.563-5.683,2.833-0.945c-1.327,1.51-3.255,2.415-5.671,2.836C110.746,174.637,109.915,170.656,110.109,167.699z"/>
	<path fill-rule="evenodd" clip-rule="evenodd" fill="#934B23" d="M102.548,154.466c-0.905,3.483-1.931-5.374-2.836-1.891
		c-1.795,1.925,0.785-2.992-0.944-4.726C101.417,148.665,100.777,152.77,102.548,154.466z"/>
	<path fill-rule="evenodd" clip-rule="evenodd" fill="#934B23" d="M135.629,149.741c0.84,0.58,1.688,1.143,1.891,0
		c0.804,0.174,0.89-0.369,0.945-0.945c0-4.096,0-8.191,0-12.287c10.568-1.225,1.072,30.563,5.671,38.752c0,0.315,0,0.63,0,0.945
		c-1.892,0-3.781,0-5.671,0c0-3.466,0-6.932,0-10.397c-0.61-4.116,1.23-10.685-0.945-13.232
		C137.186,151.334,135.854,151.088,135.629,149.741z"/>
	<path fill-rule="evenodd" clip-rule="evenodd" fill="#934B23" d="M65.687,152.576c0.369,3.937,4.143,5.515,1.891,9.451
		c-0.316,0-0.631,0-0.946,0c0.21-1.786-1.066-2.085-0.944-3.78C69.027,157.215,62.343,153.607,65.687,152.576z"/>
	<path fill-rule="evenodd" clip-rule="evenodd" fill="#934B23" d="M112.945,154.466c2.829,0.622-0.904,2.021,0,3.78
		c0.765-0.18,0.94-0.949,1.889-0.945c-1.271,1.88-1.801,4.5-2.833,6.617c-1.096-1.945-0.188-4.929,0-7.563
		C111.996,155.409,112.764,155.233,112.945,154.466z"/>
	<path fill-rule="evenodd" clip-rule="evenodd" fill="#92704C" d="M134.684,159.192c-1.358-2.107-2.565-4.367-3.78-6.616
		c-1.366-4.41,0.154-0.769,1.89-3.78c1.247,0.641-2.741,6.634,0.945,4.726c-0.954-0.011-1.188-1.656,0-1.891
		c-0.004,0.948,0.765,1.125,0.945,1.891C134.212,156.495,136.744,157.215,134.684,159.192z"/>
	<path fill-rule="evenodd" clip-rule="evenodd" fill="#934B23" d="M44.892,152.576c2.266,0.097-3.574,7.714,0.946,4.726
		c-1.536,2.247-2.127,5.436-3.781,7.562C41.357,159.123,42.974,155.7,44.892,152.576z"/>
	<path fill-rule="evenodd" clip-rule="evenodd" fill="#D9A762" d="M110.109,157.301c0.946,0.004,1.125-0.766,1.892-0.945
		c-0.188,2.634-1.096,5.617,0,7.563c-0.462,1.116-1.01,2.143-1.892,2.836C110.109,163.602,110.107,160.452,110.109,157.301z"/>
	<path fill-rule="evenodd" clip-rule="evenodd" fill="#934B23" d="M84.59,163.918c-1.402-0.176-0.868-2.283-0.945-3.781
		c1.207-0.052,1.309-1.212,2.836-0.945c3.71,1.329,1.115,8.963,1.89,13.232c-0.316,0-0.631,0-0.945,0
		c0.071-3.569,0.851-16.762-2.835-10.397C84.59,162.659,84.59,163.288,84.59,163.918z"/>
	<path fill-rule="evenodd" clip-rule="evenodd" fill="#541407" d="M92.15,172.424c0.606-3.805-1.229-10.05,0.946-12.287
		c0.629,0,1.258,0,1.89,0c0,4.096,0,8.191,0,12.287C94.042,172.424,93.097,172.424,92.15,172.424z"/>
	<path fill-rule="evenodd" clip-rule="evenodd" fill="#541407" d="M49.618,162.027c6.461-1.735,2.863,6.589,3.78,10.397
		C46.882,172.486,51.453,167.54,49.618,162.027z"/>
	<path fill-rule="evenodd" clip-rule="evenodd" fill="#92704C" d="M56.234,172.424c0.054-0.576,0.141-1.119,0.945-0.945
		c0.151,1.107,1.723,0.797,2.836,0.945c0.313,0,0.628,0,0.945,0c1.241-0.125,6.836-0.143,3.779,0.945c-2.521,0-5.042,0-7.561,0
		C57.124,172.793,57.037,172.25,56.234,172.424z"/>
	<path fill-rule="evenodd" clip-rule="evenodd" fill="#1F0B05" d="M126.178,172.424c0-0.945,0-1.891,0-2.835
		c2.282,0.517,3.424-7.39,0-6.617c0.158-1.101,1.492-1.026,2.836-0.945c0,3.466,0,6.932,0,10.397
		C128.067,172.424,127.122,172.424,126.178,172.424z"/>
	<path fill-rule="evenodd" clip-rule="evenodd" fill="#EAB654" d="M43.947,12.69c-0.678,2.566,4.457-0.676,3.78,1.891
		c-0.315,0-0.631,0-0.945,0c-2.521,0-5.04,0-7.562,0c-0.314,0-0.631,0-0.944,0c0.862-1.657,0.324-4.717,1.891-5.671
		c0,1.26,0,2.521,0,3.781C41.425,12.69,42.686,12.69,43.947,12.69z"/>
	<path fill-rule="evenodd" clip-rule="evenodd" fill="#C88E40" d="M75.138,24.978c0.498,0.76,0.986,1.535,0.946,2.836
		c-2.203,9.771-0.32,23.626-0.946,34.971c-2.203-10.716-0.319-25.517-0.945-37.807C74.507,24.978,74.822,24.978,75.138,24.978z"/>
	<path fill-rule="evenodd" clip-rule="evenodd" fill="#C88E40" d="M143.19,24.978c0.498,0.76,0.985,1.535,0.945,2.836
		c-2.203,9.771-0.319,23.626-0.945,34.971C141.616,52.381,141.616,35.381,143.19,24.978z"/>
	<path fill-rule="evenodd" clip-rule="evenodd" fill="#EAB654" d="M120.507,35.375c0.037-2.874,0.548-6.221-2.836-5.671
		c-1.749,0.143-0.582,3.201-1.891,3.781c-1.574,7.572-1.574,21.729,0,29.301c0,0.315,0,0.63,0,0.944c-3.467,0-6.932,0-10.396,0
		c0-11.971,0-23.944,0-35.916c0-0.63,0-1.261,0-1.891c0.458-6.877,30.899-4.057,36.86-1.89c0.804-0.174,0.89,0.369,0.946,0.945
		c-1.574,10.403-1.574,27.403,0,37.807c0,0.315,0,0.63,0,0.944c-3.494-0.603-9.417,1.224-11.344-0.944
		c1.574-7.572,1.574-21.729,0-29.301c-0.115-2.405-1.376-3.665-3.779-3.781c-0.5,0.761-0.988,1.535-0.945,2.835
		c-1.574,7.886-1.574,22.36,0,30.246c0,0.315,0,0.63,0,0.944C114.818,64.376,125.381,42.154,120.507,35.375z M125.231,60.894
		c-0.556-6.704,1.158-20.674-0.945-22.684C124.841,44.914,123.128,58.885,125.231,60.894z"/>
	<path fill-rule="evenodd" clip-rule="evenodd" fill="#F1EFEA" d="M88.37,49.552c0.485-5.5-1.063-13.035,0.944-17.014
		c2.087,0.118,0.401,4.01,0.946,5.671c-2.17,1.926-0.343,7.849-0.946,11.342C89,49.552,88.684,49.552,88.37,49.552z"/>
	<path fill-rule="evenodd" clip-rule="evenodd" fill="#EAB886" d="M89.314,49.552c-0.606,3.804,1.228,10.05-0.944,12.287
		c0-4.096,0-8.191,0-12.287C88.684,49.552,89,49.552,89.314,49.552z"/>
	<path fill-rule="evenodd" clip-rule="evenodd" fill="#1F0B05" d="M115.78,61.839c0.63,0,1.26,0,1.891,0
		c4.773-4.047-0.436-18.078,2.836-23.629c0,8.191,0,16.383,0,24.575c-1.578,0-3.151,0-4.727,0
		C115.78,62.469,115.78,62.154,115.78,61.839z"/>
	<path fill-rule="evenodd" clip-rule="evenodd" fill="#B98339" d="M47.728,62.785c-1.575-7.886-1.575-22.36,0-30.246
		C47.728,42.621,47.728,52.702,47.728,62.785z"/>
	<path fill-rule="evenodd" clip-rule="evenodd" fill="#EAB886" d="M76.084,63.729c0-11.657,0-23.314,0-34.971
		c2.199,9.772,0.317,23.626,0.944,34.971C76.712,63.729,76.396,63.729,76.084,63.729z"/>
	<path fill-rule="evenodd" clip-rule="evenodd" fill="#934B23" d="M127.122,62.785c-1.574-7.886-1.574-22.36,0-30.246
		C127.122,42.621,127.122,52.702,127.122,62.785z"/>
	<path fill-rule="evenodd" clip-rule="evenodd" fill="#D9A762" d="M144.136,28.758c2.2,10.401,0.317,24.887,0.944,36.862
		c-0.314,0-0.631,0-0.944,0c0-0.315,0-0.63,0-0.945c0-0.315,0-0.629,0-0.946C144.136,52.072,144.136,40.415,144.136,28.758z"/>
	<path fill-rule="evenodd" clip-rule="evenodd" fill="#B98339" d="M120.507,35.375c4.874,6.78-5.688,29.001,6.615,28.354
		c-0.056,0.577-0.143,1.119-0.944,0.946c-0.735,0.211-1.865,0.026-1.892,0.945c-1.261,0-2.521,0-3.779,0
		c-0.012-0.954-1.658-1.189-1.891,0c-0.631,0-1.261,0-1.892,0c0.153-1.099-0.208-1.682-0.944-1.891c0-0.314,0-0.629,0-0.944
		c1.575,0,3.148,0,4.727,0c0-8.191,0-16.383,0-24.575C120.507,37.264,120.507,36.32,120.507,35.375z"/>
	<path fill-rule="evenodd" clip-rule="evenodd" fill="#919890" d="M91.206,64.675c-0.805,0.173-0.893-0.369-0.945-0.946
		c0-0.629,0-1.26,0-1.89c1.185,3.225,7.363,1.456,11.342,1.89c0.313,0,0.631,0,0.945,0c0.174,0.804-0.369,0.893-0.945,0.946
		c-0.315,0-0.631,0-0.945,0c-2.521,0-5.042,0-7.561,0C92.466,64.675,91.836,64.675,91.206,64.675z"/>
	<path fill-rule="evenodd" clip-rule="evenodd" fill="#934B23" d="M143.19,63.729c0.314,0,0.629,0,0.945,0c0,0.316,0,0.631,0,0.946
		c-1.374,0.517-4.888-1.104-4.726,0.945c1.572,5.372,1.572,17.312,0,22.684c0-7.246,0-14.493,0-21.739
		c-0.408-2.114-4.66-0.383-6.617-0.945c-0.208-0.737-0.791-1.099-1.89-0.945c0-0.629,0-1.26,0-1.89c0.313,0,0.629,0,0.943,0
		C133.773,64.953,139.696,63.126,143.19,63.729z"/>
	<path fill-rule="evenodd" clip-rule="evenodd" fill="#934B23" d="M63.796,65.62c0-0.315,0-0.63,0-0.945c0-0.315,0-0.629,0-0.946
		c2.521,0,5.039,0,7.562,0c-0.015,1.562-2.623,0.529-2.835,1.891C66.946,65.62,65.37,65.62,63.796,65.62z"/>
	<path fill-rule="evenodd" clip-rule="evenodd" fill="#92704C" d="M113.891,65.62c-0.945,0-1.89,0-2.836,0c-0.315,0-0.632,0-0.945,0
		c0.425-2.631-5.152,0.741-4.726-1.891c3.465,0,6.93,0,10.396,0c0.736,0.209,1.098,0.792,0.944,1.891c-0.314,0-0.631,0-0.944,0
		c0.002-0.525-0.767-1.073-0.946,0C114.52,65.62,114.204,65.62,113.891,65.62z"/>
	<path fill-rule="evenodd" clip-rule="evenodd" fill="#EAB654" d="M87.425,65.62c0.576,0.053,1.119,0.141,0.945,0.945
		c0,6.931,0,13.862,0,20.794c-2.817-4.745,0.925-16.049-1.89-20.794C86.534,65.989,86.621,65.446,87.425,65.62z"/>
	<path fill-rule="evenodd" clip-rule="evenodd" fill="#EAB654" d="M93.097,65.62c0.732,0.211,1.861,0.025,1.89,0.945
		c-1.572,4.745-1.572,16.049,0,20.794c0,0.629,0,1.26,0,1.89C90.685,85.043,94.274,72.948,93.097,65.62z"/>
	<path fill-rule="evenodd" clip-rule="evenodd" fill="#541407" d="M99.712,89.25c2.195-5.996,0.321-16.062,0.945-23.629
		c0-0.315,0-0.63,0-0.945c0.314,0,0.63,0,0.945,0c0,0.315,0,0.63,0,0.945c1.179,7.328-2.411,19.423,1.891,23.629
		c0,0.315,0,0.63,0,0.944c-0.632,0-1.26,0-1.891,0c-0.202-1.142-1.051-0.58-1.891,0C99.712,89.879,99.712,89.564,99.712,89.25z"/>
	<path fill-rule="evenodd" clip-rule="evenodd" fill="#934B23" d="M74.192,65.62c1.613,6.892-3.401,20.414,2.836,22.684
		c4.29-3.9,0.717-15.666,1.891-22.684c1.572,5.685,1.572,17.943,0,23.629c-1.577,0-3.151,0-4.727,0
		C72.712,83.47,72.55,71.374,74.192,65.62z"/>
	<path fill-rule="evenodd" clip-rule="evenodd" fill="#D9A762" d="M80.809,88.304c1.173-7.019-2.402-18.784,1.891-22.684
		c0,0.945,0,1.89,0,2.835C79.884,72.887,83.621,83.873,80.809,88.304z"/>
	<path fill-rule="evenodd" clip-rule="evenodd" fill="#C88E40" d="M84.59,89.25c-1.014-5.44-2.74-19.74,0.945-23.629
		c0,0.63,0,1.26,0,1.89C83.34,72.877,85.21,82.31,84.59,89.25z"/>
	<path fill-rule="evenodd" clip-rule="evenodd" fill="#C88E40" d="M95.932,83.579c2.808-3.493-0.92-13.521,1.89-17.013
		c0,7.561,0,15.122,0,22.684C94.404,90.144,96.503,85.527,95.932,83.579z"/>
	<path fill-rule="evenodd" clip-rule="evenodd" fill="#B98339" d="M98.768,84.524c0.619-5.998-1.246-14.479,0.944-18.904
		C99.092,71.617,100.959,80.099,98.768,84.524z"/>
	<path fill-rule="evenodd" clip-rule="evenodd" fill="#EAB654" d="M132.793,65.62c1.957,0.562,6.209-1.168,6.617,0.945
		c0,7.246,0,14.493,0,21.739c-2.206,0-4.412,0-6.617,0c0-1.575-0.001-3.151,0-4.726c1.571-3.493,1.571-13.521,0-17.013
		C132.793,66.25,132.793,65.935,132.793,65.62z"/>
	<path fill-rule="evenodd" clip-rule="evenodd" fill="#C88E40" d="M63.796,85.468c0-6.301,0-12.602,0-18.903
		C65.367,70.684,65.367,81.351,63.796,85.468z"/>
	<path fill-rule="evenodd" clip-rule="evenodd" fill="#EAB654" d="M63.796,88.304c0-0.945,0-1.891,0-2.836
		c1.571-4.118,1.571-14.785,0-18.903c0-0.315,0-0.63,0-0.945c1.574,0,3.15,0,4.727,0c0,0.63,0,1.26,0,1.89
		c0,6.932,0,13.863,0,20.794C66.946,88.304,65.37,88.304,63.796,88.304z"/>
	<path fill-rule="evenodd" clip-rule="evenodd" fill="#B98339" d="M80.809,88.304c2.813-4.432-0.925-15.417,1.891-19.849
		C81.747,74.135,84.792,88.802,80.809,88.304z"/>
	<path fill-rule="evenodd" clip-rule="evenodd" fill="#EAB654" d="M126.178,88.304c0-1.575-0.001-3.151,0-4.726
		c2.188-4.112,0.324-12.276,0.944-17.958c1.261,0,2.52,0,3.781,0c0,7.561,0,15.123,0,22.684c-0.178,1.399-2.285,0.866-3.781,0.945
		C126.545,89.195,126.001,89.108,126.178,88.304z M129.014,83.579c-0.501-4.565,1.079-16.172-0.946-16.069
		C128.565,72.075,126.986,83.683,129.014,83.579z"/>
	<path fill-rule="evenodd" clip-rule="evenodd" fill="#B98339" d="M50.563,65.62c-1.635,7.188,3.425,21.068-2.836,23.629
		c0-0.315,0-0.63,0-0.945c0.63,0,1.259,0,1.891,0c0-7.562,0-15.123,0-22.684C49.931,65.62,50.248,65.62,50.563,65.62z"/>
	<path fill-rule="evenodd" clip-rule="evenodd" fill="#934B23" d="M61.904,89.25c0-0.315,0-0.63,0-0.945c0-7.562,0-15.123,0-22.684
		c0.315,0,0.63,0,0.946,0C62.226,73.188,64.101,83.254,61.904,89.25z"/>
	<path fill-rule="evenodd" clip-rule="evenodd" fill="#D9A762" d="M84.59,89.25c0.62-6.939-1.25-16.373,0.945-21.74
		C84.913,74.45,86.783,83.883,84.59,89.25z"/>
	<path fill-rule="evenodd" clip-rule="evenodd" fill="#EAB654" d="M91.206,89.25c-0.578-0.054-1.122-0.142-0.945-0.945
		c0.622-7.254-1.251-17.003,0.945-22.684C91.206,73.497,91.206,81.373,91.206,89.25z"/>
	<path fill-rule="evenodd" clip-rule="evenodd" fill="#934B23" d="M103.493,89.25c-4.302-4.207-0.712-16.302-1.891-23.629
		c0.313,0,0.631,0,0.945,0c1.613,6.892-3.403,20.414,2.836,22.684c0,0.315,0,0.63,0,0.945
		C104.752,89.25,104.122,89.25,103.493,89.25z"/>
	<path fill-rule="evenodd" clip-rule="evenodd" fill="#934B23" d="M118.616,89.25c0-0.315,0-0.63,0-0.945c0-7.562,0-15.123,0-22.684
		C120.188,71.305,120.188,83.563,118.616,89.25z"/>
	<path fill-rule="evenodd" clip-rule="evenodd" fill="#C88E40" d="M120.507,66.565c3.809,4.694-3.081,20.092,3.779,21.739
		c0,0.315,0,0.63,0,0.945c-1.414-0.161-3.488,0.337-3.779-0.945C120.507,81.058,120.507,73.811,120.507,66.565z"/>
	<path fill-rule="evenodd" clip-rule="evenodd" fill="#C88E40" d="M138.465,91.14c0,5.042,0,10.082,0,15.123
		c-2.495,0.287-2.438-1.974-2.836-3.781c3.778,2.351,1.071-8.657,1.891-12.287C138.323,90.021,138.409,90.563,138.465,91.14z"/>
	<path fill-rule="evenodd" clip-rule="evenodd" fill="#6D3720" d="M110.109,112.878c0.621-7.254-1.251-17.003,0.945-22.685
		c-0.624,7.568,1.249,17.635-0.945,23.631C110.109,113.508,110.109,113.194,110.109,112.878z"/>
	<path fill-rule="evenodd" clip-rule="evenodd" fill="#92704C" d="M99.712,107.208c-1.261,2.688-4.203-0.729-5.67-0.945
		c-0.004-0.948,0.764-1.125,0.944-1.891c-4.165,0.148-0.268-2.672,0-3.78c4.404-0.829-1.303,2.451,1.89,2.835
		c0.026-0.918,1.156-0.732,1.892-0.945c-1.057,1.163-0.824,1.941,0.944,1.891C99.056,105.135,98.241,106.961,99.712,107.208z"/>
	<path fill-rule="evenodd" clip-rule="evenodd" fill="#C88E40" d="M103.493,114.769c0-8.191,0-16.384,0-24.575
		c0.313,0,0.629,0,0.946,0c0.621,7.568-1.253,17.635,0.944,23.631C105.175,114.561,104.592,114.922,103.493,114.769z"/>
	<path fill-rule="evenodd" clip-rule="evenodd" fill="#D9A762" d="M100.657,107.208c0,1.26,0,2.52,0,3.78
		c-1.484-0.405-0.809-2.973-3.781-1.89c0.246,1.328,2.072,1.077,2.836,1.89c-0.607,2.858-1.477,5.455-4.726,5.671
		c0.21-1.786-1.067-2.085-0.944-3.78c1.348,0.226,1.593,1.556,2.834,1.891c0.576-5.815-4.984,0.379-4.726-4.726
		c0-1.262,0-2.521,0-3.781c0.63,0,1.259,0,1.892,0c1.467,0.217,4.409,3.633,5.67,0.945
		C100.026,107.208,100.342,107.208,100.657,107.208z"/>
	<path fill-rule="evenodd" clip-rule="evenodd" fill="#541407" d="M51.509,109.098c0,3.465,0,6.932,0,10.396
		c-1.261,0-2.522,0-3.781,0c0-0.314,0-0.63,0-0.945C50.535,117.188,46.137,104.899,51.509,109.098z"/>
	<path fill-rule="evenodd" clip-rule="evenodd" fill="#541407" d="M105.384,113.825c-2.197-5.996-0.323-16.063-0.944-23.631
		c1.115,2.328,3.569-1.935,4.724,0.946c0.398,7.334-0.257,19.344-0.944,19.848C106.857,111.518,105.912,112.463,105.384,113.825z"/>
	<path fill-rule="evenodd" clip-rule="evenodd" fill="#541407" d="M74.192,112.878c-2.488-2.907-3.184-0.636-5.67,0.946
		c0-4.098,0-8.193,0-12.288c0-3.78,0-7.562,0-11.343c1.889,0,3.779,0,5.67,0c0,0.315,0,0.631,0,0.946
		c-1.19,4.345-2.152,17.324,0,18.904C74.192,110.988,74.192,111.933,74.192,112.878z"/>
	<path fill-rule="evenodd" clip-rule="evenodd" fill="#6D3720" d="M80.809,112.878c-0.154,1.099,0.207,1.683,0.944,1.891
		c-1.104,2.53-2.471-2.462-3.779-2.836c-0.038-9.96,0.354-8.1,1.89-0.945C80.074,111.721,79.89,112.852,80.809,112.878z"/>
	<path fill-rule="evenodd" clip-rule="evenodd" fill="#C88E40" d="M58.125,118.549c0.292,1.283,2.365,0.785,3.779,0.945
		c2.17-1.927,0.342-7.85,0.946-11.342c2.617,4.125,1.439,16.873-5.671,11.342C57.233,118.918,57.319,118.375,58.125,118.549z"/>
	<path fill-rule="evenodd" clip-rule="evenodd" fill="#6D3720" d="M87.425,119.495c-2.878,0.041-3.675-1.995-5.672-2.836
		c1.327-0.182,3.826-0.844,4.728-3.78c1.1-0.159,1.023-1.493,0.944-2.835c1.575,0,3.149,0,4.726,0
		c-0.259,5.104,5.302-1.09,4.726,4.726c-1.241-0.335-1.486-1.665-2.834-1.891c-0.123,1.695,1.154,1.994,0.944,3.78
		c3.249-0.216,4.118-2.813,4.726-5.671c-0.764-0.813-2.59-0.562-2.836-1.89c2.973-1.083,2.297,1.484,3.781,1.89
		c0-1.261,0-2.521,0-3.78c0.243-8.221,1.51,1.253,0.945,4.726c-2.843,2.828-4.502,6.841-9.452,7.562
		C90.574,119.495,89,119.495,87.425,119.495z"/>
	<path fill-rule="evenodd" clip-rule="evenodd" fill="#934B23" d="M42.057,117.604c0,1.891,0,3.781,0,5.672
		c8.507,0,17.013,0,25.521,0c2.111-0.407,0.381-4.658,0.945-6.617c1.889,0,3.779,0,5.67,0c0.314,0,0.63,0,0.945,0
		c0,2.206,0,4.412,0,6.617c9.452,0,18.904,0,28.355,0c0-1.891,0-3.781,0-5.672c0.982-0.997,6.746-1.951,7.562,0
		c0,1.891,0,3.781,0,5.672c8.513-0.625,19.524,1.252,26.465-0.945c-2.415-5.611,3.843-7.435,6.616-4.727c0,2.521,0,5.041,0,7.563
		c-2.768-0.85-2.906-0.85-5.671,0c-33.926-2.466-71.007-0.668-103.97-0.945c0-2.521,0-5.041,0-7.563
		C37.217,116.772,40.682,116.143,42.057,117.604z"/>
	<path fill-rule="evenodd" clip-rule="evenodd" fill="#541407" d="M34.495,124.221c32.963,0.277,70.044-1.521,103.97,0.945
		c-36.115,0.074-72.218-0.168-103.97,0C34.495,124.851,34.495,124.536,34.495,124.221z"/>
	<path fill-rule="evenodd" clip-rule="evenodd" fill="#C46936" d="M143.19,133.672c-0.113-2.723,0.514-6.188-0.946-7.562
		c-1.606-0.348-1.782,0.737-1.89,1.891c-0.767-0.18-0.943-0.949-1.89-0.945c-0.235-1.188-1.881-0.954-1.891,0
		c-0.631,0-1.261,0-1.891,0c-2.765-3.31-3.321,3.548-2.837,6.616c0,0.631,0,1.261,0,1.891c-1.26,0-2.521,0-3.779,0
		c0-0.316,0-0.63,0-0.945c4.584,1.115,3.385-11.524,0-7.562c-0.767-0.18-0.942-0.948-1.89-0.945c-0.631,0-1.262,0-1.892,0
		c-0.766,0.18-0.942,0.948-1.89,0.945c0-0.315,0-0.63,0-0.945c-4.099-0.632-2.546,4.387-2.836,7.562c0,0.631,0,1.261,0,1.891
		c-0.314,0-0.632,0-0.944,0c0-0.63,0-1.26,0-1.891c0.483-3.068-0.072-9.926-2.836-6.616c-0.767-0.18-0.942-0.948-1.89-0.945
		c-0.316,0-0.633,0-0.945,0c-1.563,0.718-1.563,7.789,0,8.507c0,0.315,0,0.629,0,0.945c-0.944,0-1.891,0-2.836,0
		c0-0.63,0-1.26,0-1.891c0-2.52,0-5.041,0-7.562c-2.954-0.433-3.021,2.02-2.836,4.726c-0.315,0-0.631,0-0.945,0
		c0.971-2.654-1.474-6.572-2.835-3.78c-0.766-0.18-0.944-0.948-1.891-0.945c-0.631,0-1.261,0-1.891,0
		c-0.766,0.18-0.942,0.948-1.891,0.945c-0.104-2.313-3.125-0.2-2.835,0.945c-0.314,0-0.632,0-0.944,0
		c-0.968,0.11-1.914-4.077-2.836-0.945c-0.767-0.18-0.943-0.948-1.892-0.945c-2.592,0.519-4.051,9.746,0,8.507
		c0,0.315,0,0.629,0,0.945c-1.261,0-2.521,0-3.779,0c0-0.63,0-1.26,0-1.891c-0.292-3.175,1.261-8.193-2.836-7.562
		c0,0.945,0,1.891,0,2.835c-0.316,0-0.631,0-0.946,0c0.154-1.098-0.207-1.681-0.944-1.89c-0.234-1.188-1.882-0.954-1.89,0
		c-0.633,0-1.261,0-1.891,0c0-0.315,0-0.63,0-0.945c-4.064-0.446-1.211,2.544-2.836,2.835c-0.315,0-0.631,0-0.945,0
		c0.826-1.945-2.451-4.244-2.836-1.89c-0.766-0.18-0.943-0.948-1.889-0.945c-0.633,0-1.262,0-1.892,0
		c-0.766,0.18-0.942,0.948-1.891,0.945c-3.039-4.107-4.551,7.715-0.944,7.562c0,0.315,0,0.629,0,0.945c-1.892,0-3.78,0-5.671,0
		c0-0.316,0-0.63,0-0.945c3.72,0.322,3.487-6.437,1.891-8.507c-1.101-0.153-1.684,0.209-1.891,0.945
		c-0.767-0.18-0.943-0.948-1.891-0.945c-0.632,0-1.261,0-1.891,0c-0.766,0.18-0.942,0.948-1.89,0.945c0-0.315,0-0.63,0-0.945
		c-4.099-0.632-2.547,4.387-2.836,7.562c0,0.631,0,1.261,0,1.891c-0.944,0-1.891,0-2.836,0c0-0.316,0-0.63,0-0.945
		c0.314,0,0.63,0,0.945,0c1.233-1.705,2.384-9.382-1.89-8.507c0,0.315,0,0.63,0,0.945c-0.767-0.18-0.944-0.948-1.891-0.945
		c-1.101-0.153-1.684,0.209-1.891,0.945c-0.314,0-0.632,0-0.944,0c0.152,1.099-0.209,1.683-0.945,1.89c0-0.944,0-1.89,0-2.835
		c-4.098-0.632-2.546,4.387-2.836,7.562c0,0.631,0,1.261,0,1.891c-0.946,0-1.89,0-2.836,0c0-3.467,0-6.932,0-10.396
		c31.752-0.168,67.854,0.074,103.97,0c2.765-0.85,2.903-0.85,5.671,0c0,3.465,0,6.93,0,10.396
		C140.172,135.705,141.859,135.075,143.19,133.672z"/>
	<path fill-rule="evenodd" clip-rule="evenodd" fill="#1F0B05" d="M43.947,126.111c-0.407,3.059,1.242,8.175-1.891,8.507
		c0-2.521,0-5.041,0-7.562C42.264,126.32,42.847,125.958,43.947,126.111z"/>
	<path fill-rule="evenodd" clip-rule="evenodd" fill="#541407" d="M97.821,127.056c-0.575,2.261,1.187,6.857-0.945,7.562
		c-2.033-0.802-2.19-3.48-1.89-6.616C94.696,126.856,97.718,124.743,97.821,127.056z"/>
	<path fill-rule="evenodd" clip-rule="evenodd" fill="#1F0B05" d="M126.178,126.111c-0.588,2.565,1.197,7.501-0.946,8.507
		c-2.144-1.006-0.359-5.941-0.945-8.507C124.916,126.111,125.547,126.111,126.178,126.111z"/>
	<path fill-rule="evenodd" clip-rule="evenodd" fill="#541407" d="M37.331,133.672c0.29-3.175-1.262-8.193,2.836-7.562
		c0,0.945,0,1.891,0,2.835c0,1.891,0,3.781,0,5.672C38.957,134.566,38.856,133.406,37.331,133.672z"/>
	<path fill-rule="evenodd" clip-rule="evenodd" fill="#541407" d="M58.125,134.618c0-2.521,0-5.041,0-7.562
		c0.207-0.736,0.79-1.099,1.891-0.945C61.612,128.181,61.845,134.94,58.125,134.618z"/>
	<path fill-rule="evenodd" clip-rule="evenodd" fill="#541407" d="M143.19,133.672c-4.167,1.33-2.563-3.11-2.836-5.671
		c0.107-1.153,0.283-2.238,1.89-1.891C143.704,127.485,143.077,130.95,143.19,133.672z"/>
	<path fill-rule="evenodd" clip-rule="evenodd" fill="#541407" d="M118.616,133.672c-4.382,2.861-2.396-3.089-2.836-6.616
		C118.544,123.747,119.1,130.604,118.616,133.672z"/>
	<path fill-rule="evenodd" clip-rule="evenodd" fill="#1F0B05" d="M37.331,135.563c3.148,0,6.301,0,9.451,0c0.945,0,1.892,0,2.836,0
		c0,0.314,0,0.629,0,0.945c-0.314,0-0.632,0-0.944,0c-2.206,0-4.413,0-6.617,0c-0.314,0-0.632,0-0.944,0c-2.206,0-4.412,0-6.617,0
		c0-0.316,0-0.631,0-0.945C35.441,135.563,36.385,135.563,37.331,135.563z"/>
	<path fill-rule="evenodd" clip-rule="evenodd" fill="#1F0B05" d="M50.563,136.508c0.703-2.132,5.299-0.371,7.562-0.945
		c1.891,0,3.779,0,5.671,0c5.355,0,10.711,0,16.067,0c0.63,0,1.26,0,1.89,0c1.112,0.148,2.684-0.162,2.837,0.945
		c-2.837,0-5.671,0-8.506,0c-2.207,0-4.413,0-6.617,0c-0.315,0-0.632,0-0.944,0c-5.672,0-11.343,0-17.014,0
		C51.192,136.508,50.877,136.508,50.563,136.508z"/>
	<path fill-rule="evenodd" clip-rule="evenodd" fill="#1F0B05" d="M119.561,135.563c2.836,0,5.671,0,8.507,0c1.259,0,2.52,0,3.779,0
		c1.892,0,3.782,0,5.673,0c0,0.314,0,0.629,0,0.945c-9.137,0-18.273,0-27.41,0c-2.206,0-4.413,0-6.616,0c-3.151,0-6.303,0-9.451,0
		c-2.836,0-5.672,0-8.507,0c0-0.316,0-0.631,0-0.945c1.259,0,2.519,0,3.779,0c6.931,0,13.863,0,20.795,0c0.945,0,1.892,0,2.836,0
		c1.889,0,3.779,0,5.671,0C118.929,135.563,119.246,135.563,119.561,135.563z"/>
	<path fill-rule="evenodd" clip-rule="evenodd" fill="#C88E40" d="M69.467,148.795c-2.175-2.237-0.34-8.483-0.944-12.287
		c0.313,0,0.629,0,0.944,0C69.467,140.604,69.467,144.7,69.467,148.795z"/>
	<path fill-rule="evenodd" clip-rule="evenodd" fill="#C88E40" d="M138.465,148.795c-2.176-2.237-0.341-8.483-0.945-12.287
		c0.313,0,0.628,0,0.945,0C138.465,140.604,138.465,144.7,138.465,148.795z"/>
	<path fill-rule="evenodd" clip-rule="evenodd" fill="#934B23" d="M41.112,151.63c-0.176,0.805,0.365,0.892,0.944,0.945
		c-1.9,2.825-0.535,8.917-0.944,13.232c0,3.466,0,6.932,0,10.397c-2.15-0.689-7.376,1.703-6.617-1.891c0-12.603,0-25.205,0-37.807
		c2.205,0,4.411,0,6.617,0c0,3.781,0,7.561,0,11.342C41.112,149.11,41.112,150.37,41.112,151.63z"/>
	<path fill-rule="evenodd" clip-rule="evenodd" fill="#C88E40" d="M68.522,152.576c2.193,5.995,0.321,16.062,0.944,23.63
		c-0.805,0.174-0.892-0.369-0.944-0.945c0.19-5.234,0.13-10.215-1.892-13.233c0.315,0,0.63,0,0.946,0
		c2.252-3.937-1.521-5.515-1.891-9.451C67.626,149.576,67.57,155.246,68.522,152.576z"/>
	<path fill-rule="evenodd" clip-rule="evenodd" fill="#92704C" d="M116.725,154.466c-0.226,1.349-1.559,1.593-1.891,2.835
		c-0.948-0.004-1.124,0.766-1.889,0.945c-0.904-1.76,2.829-3.158,0-3.78c0.491-1.398,1.397-2.383,1.889-3.781
		C118.019,151.54,114.945,152.799,116.725,154.466z"/>
	<path fill-rule="evenodd" clip-rule="evenodd" fill="#B98339" d="M136.574,157.301c0.314,0,0.63,0,0.945,0
		c0-1.574-0.003-3.15,0-4.726c2.176,2.548,0.335,9.116,0.945,13.232c-0.949,0.004-1.127-0.767-1.891-0.945c0-0.315,0-0.63,0-0.944
		C138.045,161.811,137.23,159.55,136.574,157.301z"/>
	<path fill-rule="evenodd" clip-rule="evenodd" fill="#6D3720" d="M91.206,171.479c0.605-3.804-1.229-10.049,0.944-12.287
		c1.112,0.148,2.683-0.162,2.836,0.945c-0.632,0-1.261,0-1.89,0c-2.176,2.237-0.34,8.482-0.946,12.287
		C91.573,172.371,91.03,172.284,91.206,171.479z"/>
	<path fill-rule="evenodd" clip-rule="evenodd" fill="#934B23" d="M136.574,163.918c0.146-2.352-1.486-2.927-1.891-4.727
		c2.061-1.977-0.472-2.697,0-5.671c1.268,0.622,1.759,2.021,1.891,3.78C137.23,159.55,138.045,161.811,136.574,163.918z"/>
	<path fill-rule="evenodd" clip-rule="evenodd" fill="#C88E40" d="M94.986,160.137c2.174,2.237,0.338,8.482,0.945,12.287
		c-0.316,0-0.631,0-0.945,0C94.986,168.329,94.986,164.233,94.986,160.137z"/>
	<path fill-rule="evenodd" clip-rule="evenodd" fill="#934B23" d="M60.016,162.027c2.16,1.618,0.346,7.216,0.945,10.397
		c-0.317,0-0.632,0-0.945,0C60.016,168.958,60.016,165.493,60.016,162.027z"/>
	<path fill-rule="evenodd" clip-rule="evenodd" fill="#C88E40" d="M122.396,172.424c0-3.466,0-6.932,0-10.397
		c2.162,1.618,0.346,7.216,0.944,10.397C123.025,172.424,122.71,172.424,122.396,172.424z"/>
	<path fill-rule="evenodd" clip-rule="evenodd" fill="#1F0B05" d="M57.18,171.479c0.593-2.873-1.211-8.141,0.945-9.452
		c0.63,0,1.259,0,1.891,0c0,3.466,0,6.932,0,10.397C58.902,172.276,57.331,172.586,57.18,171.479z"/>
	<path fill-rule="evenodd" clip-rule="evenodd" fill="#541407" d="M84.59,171.479c0-2.521,0-5.041,0-7.561c0-0.631,0-1.26,0-1.892
		c0.313,0,0.63,0,0.945,0c0.179-1.072,0.946-0.524,0.945,0C85.573,164.903,88.504,171.614,84.59,171.479z"/>
	<path fill-rule="evenodd" clip-rule="evenodd" fill="#541407" d="M126.178,169.589c0-2.206,0-4.411,0-6.617
		C129.602,162.2,128.46,170.106,126.178,169.589z"/>
	<path fill-rule="evenodd" clip-rule="evenodd" fill="#D9A762" d="M49.618,162.027c1.835,5.513-2.736,10.459,3.78,10.397
		c0.945,0,1.891,0,2.836,0c0.803-0.174,0.89,0.369,0.945,0.945c-4.03,0.383-9.738-0.914-12.288,0.945
		c-0.953-2.844,2.105-1.675,3.782-1.891c0-3.78,0-7.562,0-11.342C49.249,161.136,49.791,161.223,49.618,162.027z"/>
	<path fill-rule="evenodd" clip-rule="evenodd" fill="#EAB886" d="M119.561,172.424c0.946,0,1.892,0,2.836,0
		c0.313,0,0.629,0,0.944,0c0.945,0,1.891,0,2.837,0c0.944,0,1.89,0,2.836,0c0.313,0,0.628,0,0.944,0
		c1.785,0.42,5.694-1.285,4.726,1.891c-4.576-2.041-12.799-0.436-18.903-0.945c0.245-1.328,2.071-1.077,2.836-1.891
		C118.44,172.284,118.984,172.371,119.561,172.424z"/>
	<path fill-rule="evenodd" clip-rule="evenodd" fill="#C46936" d="M75.138,176.206c0.598-3.183-1.218-8.779,0.946-10.397
		c-0.003,3.15,0,6.301,0,9.452C76.257,176.065,75.714,176.152,75.138,176.206z"/>
	<path fill-rule="evenodd" clip-rule="evenodd" fill="#B98339" d="M102.548,28.758c0.18-0.765,0.947-0.941,0.945-1.89
		c0.947,0.002,1.124-0.766,1.891-0.946c0,0.63,0,1.261,0,1.891c-2.202,10.085-0.32,24.256-0.944,35.916c-0.633,0-1.262,0-1.892,0
		c0-0.629,0-1.26,0-1.89c1.573-8.515,1.573-23.621,0-32.136C102.548,29.388,102.548,29.073,102.548,28.758z"/>
	<path fill-rule="evenodd" clip-rule="evenodd" fill="#B98339" d="M90.261,38.21c0,7.876,0,15.753,0,23.629c0,0.63,0,1.26,0,1.89
		c-0.631,0-1.261,0-1.891,0c0-0.629,0-1.26,0-1.89c2.172-2.237,0.338-8.483,0.944-12.287C89.918,46.059,88.091,40.136,90.261,38.21z
		"/>
	<path fill-rule="evenodd" clip-rule="evenodd" fill="#B98339" d="M39.221,88.304c0-7.562,0-15.123,0-22.684c0.315,0,0.63,0,0.946,0
		c0,7.247,0,14.493,0,21.739c0.116,2.087,4.007,0.401,5.671,0.945C45.708,89.861,39.349,89.861,39.221,88.304z"/>
	<path fill-rule="evenodd" clip-rule="evenodd" fill="#B98339" d="M114.834,65.62c-0.623,7.568,1.25,17.634-0.943,23.629
		c-1.416-0.161-3.49,0.337-3.781-0.945c0-7.562,0-15.123,0-22.684c0.313,0,0.63,0,0.945,0c0.621,7.254-1.251,17.002,0.946,22.684
		c4.289-3.9,0.715-15.666,1.89-22.684C114.204,65.62,114.52,65.62,114.834,65.62z"/>
	<path fill-rule="evenodd" clip-rule="evenodd" fill="#F1EFEA" d="M34.495,63.729c0,8.192,0,16.384,0,24.575c0,0.63,0,1.26,0,1.89
		c0,0.315,0,0.631,0,0.946c0,7.246,0,14.492,0,21.739c0,0.315,0,0.63,0,0.946c0,0.944,0,1.889,0,2.834
		c-1.577-27.411-1.577-61.434,0-88.845C34.495,39.785,34.495,51.758,34.495,63.729z"/>
	<path fill-rule="evenodd" clip-rule="evenodd" fill="#92704C" d="M145.08,65.62c0,7.561,0,15.123,0,22.684
		c-0.314,0-0.631,0-0.944,0c0-7.562,0-15.123,0-22.684C144.449,65.62,144.766,65.62,145.08,65.62z"/>
	<path fill-rule="evenodd" clip-rule="evenodd" fill="#D9A762" d="M103.493,65.62c4.28,3.593,0.724,15.029,1.891,21.739
		C102.599,85.191,105.981,68.083,103.493,65.62z"/>
	<path fill-rule="evenodd" clip-rule="evenodd" fill="#D9A762" d="M100.657,65.62c-0.624,7.568,1.25,17.634-0.945,23.629
		c-2.051,0.159-0.429-3.353-0.944-4.726c2.191-4.425,0.324-12.907,0.944-18.904C100.026,65.62,100.342,65.62,100.657,65.62z"/>
	<path fill-rule="evenodd" clip-rule="evenodd" fill="#EAB654" d="M45.838,88.304c-1.664-0.544-5.555,1.143-5.671-0.945
		c0-7.247,0-14.493,0-21.739c1.575,0,3.148,0,4.725,0c-0.952,6.924,2.092,17.846-1.889,21.739c0.944,0,1.889,0,2.835,0
		C45.838,87.674,45.838,87.989,45.838,88.304z"/>
	<path fill-rule="evenodd" clip-rule="evenodd" fill="#EAB654" d="M111.055,65.62c0.946,0,1.891,0,2.836,0
		c-1.175,7.019,2.399,18.784-1.89,22.684C109.804,82.623,111.676,72.874,111.055,65.62z M112.945,82.633
		c-0.487-4.265,1.062-15.521-0.944-15.123C112.485,71.775,110.937,83.032,112.945,82.633z"/>
	<path fill-rule="evenodd" clip-rule="evenodd" fill="#EAB654" d="M116.725,65.62c0.631,0,1.261,0,1.892,0
		c0,7.561,0,15.123,0,22.684c-4.916-3.276,0.533-16.917-2.836-21.739c0-0.315,0-0.63,0-0.945
		C116.094,65.62,116.41,65.62,116.725,65.62z"/>
	<path fill-rule="evenodd" clip-rule="evenodd" fill="#6D3720" d="M124.286,65.62c2.195,5.681,0.322,15.43,0.945,22.684
		c-0.054,0.576-0.142,1.119-0.945,0.945c0-0.315,0-0.63,0-0.945C124.286,80.743,124.286,73.181,124.286,65.62z"/>
	<path fill-rule="evenodd" clip-rule="evenodd" fill="#919890" d="M77.028,63.729c3.78,0,7.562,0,11.342,0
		c0.174,0.804-0.369,0.893-0.945,0.946c-2.835,0-5.672,0-8.506,0c-1.343,0.081-2.677,0.156-2.835-0.946
		C76.396,63.729,76.712,63.729,77.028,63.729z"/>
	<path fill-rule="evenodd" clip-rule="evenodd" fill="#B98339" d="M56.234,65.62c0,7.561,0,15.123,0,22.684
		c-0.315,0-0.632,0-0.945,0c0-7.562,0-15.123,0-22.684C55.603,65.62,55.919,65.62,56.234,65.62z"/>
	<path fill-rule="evenodd" clip-rule="evenodd" fill="#934B23" d="M51.509,119.495c0-3.465,0-6.932,0-10.396
		c0-0.316,0-0.631,0-0.945C53.075,109.783,53.075,117.865,51.509,119.495z"/>
	<path fill-rule="evenodd" clip-rule="evenodd" fill="#934B23" d="M121.452,108.153c1.565,1.63,1.565,9.712,0,11.342
		C121.452,115.713,121.452,111.933,121.452,108.153z"/>
	<path fill-rule="evenodd" clip-rule="evenodd" fill="#1F0B05" d="M39.221,16.471c0-0.63,0-1.26,0-1.89c2.521,0,5.04,0,7.562,0
		c5.687,1.573,17.942,1.573,23.629,0c1.152,0.107,2.238,0.282,1.891,1.89C61.273,16.471,50.248,16.471,39.221,16.471z"/>
	<path fill-rule="evenodd" clip-rule="evenodd" fill="#1F0B05" d="M106.328,16.471c0-0.63,0-1.26,0-1.89c0.63,0,1.26,0,1.891,0
		c5.686,1.573,17.941,1.573,23.628,0c0.63,0,1.261,0,1.892,0c0.314,0,0.63,0,0.945,0c1.891,0,3.781,0,5.671,0c0,0.63,0,1.26,0,1.89
		C129.014,16.471,117.671,16.471,106.328,16.471z"/>
	<path fill-rule="evenodd" clip-rule="evenodd" fill="#541407" d="M45.838,65.62c2.103,2.009,0.39,15.979,0.944,22.684
		c-0.314,0-0.631,0-0.944,0c0-0.315,0-0.63,0-0.945C45.838,80.113,45.838,72.867,45.838,65.62z"/>
	<path fill-rule="evenodd" clip-rule="evenodd" fill="#1F0B05" d="M133.738,90.194c0-0.314,0-0.629,0-0.944
		c5.038,0.048,8.09-0.432,10.397-0.945c0,8.19,0,16.384,0,24.574c-0.578-0.054-1.121-0.142-0.945-0.945
		c-1.762-5.005,2.764-17.396-1.891-21.739c-1.302-0.04-2.077,0.445-2.835,0.946c-0.056-0.577-0.142-1.119-0.945-0.946
		C136.259,90.194,134.998,90.194,133.738,90.194z"/>
	<path fill-rule="evenodd" clip-rule="evenodd" fill="#1F0B05" d="M56.234,126.111c-0.587,2.565,1.198,7.501-0.945,8.507
		c-2.145-1.006-0.359-5.941-0.945-8.507C54.974,126.111,55.603,126.111,56.234,126.111z"/>
	<path fill-rule="evenodd" clip-rule="evenodd" fill="#1F0B05" d="M68.522,126.111c-0.588,2.565,1.198,7.501-0.945,8.507
		c-1.584-1.568-0.753-5.549-0.946-8.507C67.261,126.111,67.89,126.111,68.522,126.111z"/>
	<path fill-rule="evenodd" clip-rule="evenodd" fill="#1F0B05" d="M101.603,126.111c-0.587,2.565,1.197,7.501-0.945,8.507
		c-2.146-1.006-0.359-5.941-0.945-8.507C100.342,126.111,100.972,126.111,101.603,126.111z"/>
	<path fill-rule="evenodd" clip-rule="evenodd" fill="#1F0B05" d="M112.945,134.618c-1.563-0.718-1.563-7.789,0-8.507
		c0.313,0,0.629,0,0.945,0C113.303,128.676,115.089,133.612,112.945,134.618z"/>
	<path fill-rule="evenodd" clip-rule="evenodd" fill="#541407" d="M119.561,162.027c0.946,0,1.892,0,2.836,0
		c0,3.466,0,6.932,0,10.397c-0.944,0-1.89,0-2.836,0C119.561,168.958,119.561,165.493,119.561,162.027z"/>
	<path fill-rule="evenodd" clip-rule="evenodd" fill="#35332B" d="M106.328,16.471c11.343,0,22.686,0,34.026,0
		c0,0.315,0,0.629,0,0.945c-11.341,0-22.684,0-34.026,0C106.328,17.101,106.328,16.787,106.328,16.471z"/>
</g>
</svg>
