<?xml version="1.0" encoding="utf-8"?>
<!-- Generator: Adobe Illustrator 14.0.0, SVG Export Plug-In . SVG Version: 6.00 Build 43363)  -->
<!DOCTYPE svg PUBLIC "-//W3C//DTD SVG 1.1//EN" "http://www.w3.org/Graphics/SVG/1.1/DTD/svg11.dtd">
<svg version="1.1" id="Layer_1" xmlns="http://www.w3.org/2000/svg" xmlns:xlink="http://www.w3.org/1999/xlink" x="0px" y="0px"
	 width="160px" height="160px" viewBox="0 0 160 160" enable-background="new 0 0 160 160" xml:space="preserve">
<path fill="#E5842A" d="M156,94.855c0.723,0,1.307-0.586,1.307-1.308V86.14c0-2.649-0.867-4.808-2.572-6.414
	c-3.325-3.125-8.681-2.953-9.267-2.923h-16.184c-0.723,0-1.309,0.585-1.309,1.307c0,0.723,0.586,1.307,1.309,1.307h16.22
	c0.028,0,0.054,0,0.08-0.001c0.046,0,4.753-0.243,7.367,2.223c1.172,1.107,1.741,2.58,1.741,4.502v7.408
	C154.693,94.27,155.277,94.855,156,94.855z"/>
<path fill="#FFCA32" d="M153,100.674c0,1.656,1.343,3.001,3.001,3.001l0,0c1.655,0,3-1.345,3-3.001V86.274
	c0-1.659-1.345-3.002-3-3.002l0,0c-1.658,0-3.001,1.343-3.001,3.002V100.674z"/>
<path fill="#EA9D2B" d="M155.206,96.876c0,1.177,0.605,2.13,1.356,2.13l0,0c0.747,0,1.353-0.953,1.353-2.13V86.663
	c0-1.175-0.605-2.13-1.353-2.13l0,0c-0.751,0-1.356,0.956-1.356,2.13V96.876z"/>
<path d="M47.002,142.813c0,0.863,0.7,1.565,1.564,1.565h62.556c0.864,0,1.564-0.702,1.564-1.565v-2.811
	c0-0.863-0.7-1.563-1.564-1.563H48.567c-0.864,0-1.564,0.699-1.564,1.563V142.813z"/>
<path fill="#404043" d="M45.129,143.913c0,0.65,0.686,1.178,1.532,1.178h66.476c0.847,0,1.532-0.527,1.532-1.178l0,0
	c0-0.648-0.685-1.175-1.532-1.175H46.661C45.814,142.738,45.129,143.265,45.129,143.913L45.129,143.913z"/>
<path opacity="0.8" fill="#B6B6B6" d="M45.259,143.44c0.237-0.413,0.776-0.702,1.402-0.702h66.476c0.627,0,1.166,0.289,1.403,0.702
	H45.259z"/>
<path fill="#FFCA32" d="M2.908,113.57l113.535-2.234c0,0,19.375,2.964,36.688,11.504c1.385,1.188,1.552,2.256,1.769,3.592
	c0.07,0.438,0.128,0.882,0.182,1.327c0.477,2.153,1.519,6.917-0.438,9.021c-2.871,3.09-1.012,1.205-4.553,5.33
	c-0.111,0.129-0.299,0.127-0.45,0.183l-133.81-0.355l-11.703-3.747l-1.872-5.613v-4.896L2.908,113.57z"/>
<path fill="#FAA434" d="M155.787,132.718c0.019,1.574-0.247,3.1-1.144,4.062c-2.871,3.09-1.012,1.205-4.553,5.33
	c-0.111,0.129-0.299,0.127-0.45,0.183l-133.81-0.355l-11.703-3.747l-1.824-5.472H155.787z"/>
<path fill="#FFCA32" d="M5.57,80.216c0.231-0.561,1.634-5.154,8.666-5.708c26.419-2.077,84.622-1.498,106.337,0.105
	c19.009,1.405,21.021,6.637,21.061,6.683c15.266,18.412,12.757,43.544,12.757,43.544L2.85,115.712
	C2.85,115.712,4.119,83.736,5.57,80.216z"/>
<path fill="#ADAFB2" d="M141.371,136.928c0-7.12-6.071-12.893-13.562-12.893c-7.489,0-13.561,5.772-13.561,12.893
	c0,1.915,0.439,3.73,1.228,5.364h-2.48c-0.972-2.092-1.52-4.424-1.52-6.883c0-9.02,7.313-16.331,16.333-16.331
	c9.021,0,16.333,7.312,16.333,16.331c0,2.459-0.546,4.791-1.519,6.883h-2.48C140.932,140.658,141.371,138.843,141.371,136.928z"/>
<path fill="#ADAFB2" d="M111.477,135.409c0-9.02,7.313-16.331,16.333-16.331c9.021,0,16.333,7.312,16.333,16.331
	c0,2.459-0.546,4.791-1.519,6.883h-0.379c0.812-1.894,1.262-3.979,1.262-6.169c0-8.669-7.027-15.695-15.697-15.695
	c-8.667,0-15.694,7.026-15.694,15.695c0,2.19,0.449,4.275,1.26,6.169h-0.378C112.024,140.2,111.477,137.868,111.477,135.409z"/>
<path d="M127.809,124.035c7.49,0,13.562,5.772,13.562,12.893c0,1.915-0.438,3.73-1.228,5.364h-24.667
	c-0.788-1.634-1.228-3.449-1.228-5.364C114.249,129.808,120.32,124.035,127.809,124.035z"/>
<circle fill="#292928" cx="127.811" cy="138.288" r="11.532"/>
<circle fill="#3A3939" cx="127.811" cy="138.288" r="11.532"/>
<circle cx="127.81" cy="138.288" r="7.825"/>
<circle fill="#CAC8BE" cx="127.809" cy="138.288" r="7.142"/>
<path fill="#3B3B39" d="M124.226,134.033c-0.008-0.085-0.002-0.168,0.032-0.248c0.761-0.686,1.743-1.127,2.823-1.209
	c0.102,0.023,0.193,0.064,0.272,0.128c0.038,0.055,0.07,0.111,0.096,0.174v3.973c-0.02,0.053-0.046,0.104-0.077,0.15
	c-0.022,0.012-0.044,0.022-0.07,0.034c-0.063-0.005-0.127-0.02-0.188-0.039l-2.85-2.852
	C124.249,134.106,124.237,134.071,124.226,134.033z"/>
<path fill="#3B3B39" d="M122.138,137.957c-0.065-0.054-0.119-0.116-0.153-0.198c0.054-1.021,0.435-2.025,1.142-2.85
	c0.088-0.057,0.182-0.092,0.285-0.103c0.063,0.012,0.128,0.028,0.189,0.055l2.809,2.808c0.024,0.052,0.04,0.105,0.052,0.162
	c-0.008,0.024-0.016,0.049-0.025,0.074c-0.05,0.042-0.104,0.077-0.161,0.105h-4.031
	C122.207,137.995,122.172,137.976,122.138,137.957z"/>
<path fill="#3B3B39" d="M123.503,142.082c-0.086,0.011-0.17,0.005-0.247-0.027c-0.699-0.75-1.157-1.722-1.262-2.803
	c0.021-0.101,0.063-0.194,0.126-0.275c0.052-0.038,0.109-0.069,0.171-0.099l3.973-0.07c0.052,0.023,0.103,0.048,0.149,0.078
	c0.015,0.022,0.026,0.045,0.038,0.068c-0.006,0.065-0.018,0.128-0.038,0.189l-2.799,2.9
	C123.577,142.061,123.54,142.07,123.503,142.082z"/>
<path fill="#3B3B39" d="M127.354,143.851c-0.052,0.066-0.115,0.119-0.197,0.151c-1.021-0.07-2.021-0.466-2.837-1.183
	c-0.054-0.089-0.085-0.184-0.098-0.286c0.015-0.063,0.032-0.127,0.061-0.19l2.847-2.768c0.054-0.022,0.107-0.037,0.163-0.047
	c0.024,0.007,0.048,0.016,0.074,0.023c0.039,0.053,0.075,0.106,0.102,0.165l-0.056,4.03
	C127.394,143.782,127.376,143.817,127.354,143.851z"/>
<path fill="#3B3B39" d="M131.391,134.033c0.012-0.085,0.002-0.168-0.03-0.248c-0.761-0.686-1.741-1.127-2.825-1.209
	c-0.1,0.023-0.193,0.064-0.272,0.128c-0.034,0.055-0.068,0.111-0.096,0.174v3.973c0.021,0.053,0.048,0.104,0.079,0.15
	c0.024,0.012,0.048,0.022,0.07,0.034c0.063-0.005,0.127-0.02,0.189-0.039l2.851-2.852
	C131.371,134.106,131.383,134.071,131.391,134.033z"/>
<path fill="#3B3B39" d="M133.481,137.957c0.067-0.054,0.119-0.116,0.151-0.198c-0.052-1.021-0.435-2.025-1.14-2.85
	c-0.088-0.057-0.182-0.092-0.287-0.103c-0.062,0.012-0.125,0.028-0.189,0.055l-2.807,2.808c-0.022,0.052-0.038,0.105-0.052,0.162
	c0.006,0.024,0.016,0.049,0.023,0.074c0.052,0.042,0.105,0.077,0.164,0.105h4.03C133.413,137.995,133.447,137.976,133.481,137.957z"
	/>
<path fill="#3B3B39" d="M132.116,142.082c0.086,0.011,0.17,0.005,0.249-0.027c0.697-0.75,1.158-1.722,1.258-2.803
	c-0.019-0.101-0.058-0.194-0.122-0.275c-0.054-0.038-0.109-0.069-0.173-0.099l-3.971-0.07c-0.054,0.023-0.104,0.048-0.151,0.078
	c-0.015,0.022-0.026,0.045-0.036,0.068c0.004,0.065,0.016,0.128,0.036,0.189l2.799,2.9
	C132.042,142.061,132.081,142.07,132.116,142.082z"/>
<path fill="#3B3B39" d="M128.263,143.851c0.054,0.066,0.117,0.119,0.199,0.151c1.02-0.07,2.021-0.466,2.835-1.183
	c0.054-0.089,0.09-0.184,0.098-0.286c-0.012-0.063-0.03-0.127-0.056-0.19l-2.852-2.768c-0.052-0.022-0.105-0.037-0.161-0.047
	c-0.024,0.007-0.048,0.016-0.073,0.023c-0.04,0.053-0.074,0.106-0.104,0.165l0.059,4.03
	C128.223,143.782,128.243,143.817,128.263,143.851z"/>
<polygon fill="#3B3B39" points="127.8,138.353 127.8,138.353 127.8,138.353 "/>
<polygon fill="#3B3B39" points="127.8,138.353 127.8,138.353 127.8,138.353 "/>
<circle fill="#CAC8BE" cx="127.81" cy="138.288" r="2.099"/>
<circle fill="#3B3B39" cx="126.713" cy="137.257" r="0.261"/>
<path fill="#3B3B39" d="M127.538,136.884c0,0.143,0.117,0.261,0.263,0.261c0.142,0,0.262-0.118,0.262-0.261
	c0-0.146-0.12-0.262-0.262-0.262C127.655,136.622,127.538,136.738,127.538,136.884z"/>
<circle fill="#3B3B39" cx="128.907" cy="137.297" r="0.262"/>
<circle fill="#3B3B39" cx="126.713" cy="139.539" r="0.261"/>
<circle fill="#3B3B39" cx="126.201" cy="138.449" r="0.261"/>
<circle fill="#3B3B39" cx="129.418" cy="138.449" r="0.261"/>
<path fill="#3B3B39" d="M127.538,139.913c0-0.144,0.117-0.262,0.263-0.262c0.142,0,0.262,0.118,0.262,0.262
	c0,0.146-0.12,0.262-0.262,0.262C127.655,140.175,127.538,140.059,127.538,139.913z"/>
<circle fill="#3B3B39" cx="128.907" cy="139.5" r="0.262"/>
<path fill="#181717" d="M141.813,136.319c-0.063-0.803-0.132-1.607-0.18-2.411h14.761c0.172,0.021,0.333,0.051,0.463,0.119
	c0.247,0.127,0.36,0.313,0.452,0.511l-0.062,3.215c0,0-3.051,4.579-5.152,5.253c-2.098,0.673-3.495,0.48-3.495,0.48l-6.09,0.025
	C142.5,143.142,141.898,137.387,141.813,136.319z"/>
<path opacity="0.6" fill="#1A1A1A" d="M145.134,133.908h11.26c0.172,0.021,0.333,0.051,0.463,0.119
	c0.247,0.127,0.36,0.313,0.452,0.511l-0.056,2.842C157.253,137.38,145.188,134.712,145.134,133.908z"/>
<path fill="#CAC8BE" d="M144.885,120.919c1.636-0.086,3.088-0.125,4.6,0.582c1.429,0.67,3.534,1.488,4.266,2.248
	c0.253,0.326,0.469,0.699,0.64,1.092c0.345,1.171,0.538,2.397,0.58,3.619c-0.046,0.377-0.134,0.702-0.253,0.951
	c-0.44,0.902-5.264,0.188-8.502-2.455C145.184,126.354,143.239,121.026,144.885,120.919z"/>
<path opacity="0.6" fill="#DCE8E9" d="M146.301,124.975c0.231,1.641,1.253,2.851,2.283,2.705c1.028-0.145,1.676-1.591,1.446-3.23
	c-0.232-1.639-1.255-2.849-2.287-2.703C146.718,121.891,146.07,123.338,146.301,124.975z"/>
<ellipse transform="matrix(-0.9994 0.0339 -0.0339 -0.9994 308.9722 248.6744)" fill="#DBCEB4" cx="152.378" cy="126.957" rx="1.138" ry="1.811"/>
<path fill="#FFFFFF" d="M145.184,120.903c1.514-0.074,2.881-0.066,4.301,0.598c1.429,0.67,3.534,1.488,4.266,2.248
	c0.253,0.326,0.469,0.699,0.64,1.092c0.345,1.171,0.538,2.397,0.58,3.619c-0.038,0.282-0.094,0.538-0.17,0.752
	C152.551,125.465,149.341,122.244,145.184,120.903z"/>
<path fill="#1A1A1A" d="M147.782,137.345c-1.492-0.117-2.616,0.937-2.513,2.354c0.107,1.419,1.403,2.664,2.897,2.78
	c1.488,0.119,4.871-0.755,4.766-2.176C152.825,138.886,149.272,137.464,147.782,137.345z"/>
<path d="M148.084,137.659c-1.408-0.112-2.467,0.882-2.367,2.22s1.323,2.512,2.729,2.623c1.407,0.11,4.593-0.716,4.495-2.053
	C152.842,139.113,149.489,137.77,148.084,137.659z"/>
<path fill="#ADAFB2" d="M45.134,136.928c0-7.12-6.071-12.893-13.561-12.893c-7.489,0-13.56,5.772-13.56,12.893
	c0,1.915,0.438,3.73,1.225,5.364h-2.479c-0.973-2.092-1.519-4.424-1.519-6.883c0-9.02,7.313-16.331,16.333-16.331
	c9.02,0,16.332,7.312,16.332,16.331c0,2.459-0.544,4.791-1.519,6.883h-2.479C44.696,140.658,45.134,138.843,45.134,136.928z"/>
<path d="M31.573,124.035c7.49,0,13.561,5.772,13.561,12.893c0,1.915-0.438,3.73-1.226,5.364H19.239
	c-0.787-1.634-1.225-3.449-1.225-5.364C18.014,129.808,24.084,124.035,31.573,124.035z"/>
<circle fill="#292928" cx="31.574" cy="138.288" r="11.531"/>
<circle fill="#3A3939" cx="31.574" cy="138.288" r="11.531"/>
<circle cx="31.574" cy="138.288" r="7.824"/>
<circle fill="#CAC8BE" cx="31.574" cy="138.288" r="7.143"/>
<g>
	<path fill="#3B3B39" d="M27.992,134.033c-0.01-0.085-0.004-0.168,0.031-0.248c0.761-0.686,1.741-1.127,2.823-1.209
		c0.102,0.023,0.194,0.064,0.274,0.128c0.036,0.055,0.067,0.111,0.096,0.174v3.973c-0.022,0.053-0.048,0.104-0.08,0.15
		c-0.022,0.012-0.046,0.022-0.069,0.034c-0.064-0.005-0.129-0.02-0.19-0.039l-2.851-2.852C28.012,134.106,28,134.071,27.992,134.033
		z"/>
	<path fill="#3B3B39" d="M25.903,137.957c-0.066-0.054-0.121-0.116-0.153-0.198c0.053-1.021,0.434-2.025,1.14-2.85
		c0.088-0.057,0.184-0.092,0.286-0.103c0.062,0.012,0.126,0.028,0.188,0.055l2.81,2.808c0.021,0.052,0.038,0.105,0.05,0.162
		c-0.007,0.024-0.015,0.049-0.024,0.074c-0.051,0.042-0.104,0.077-0.163,0.105h-4.031C25.97,137.995,25.935,137.976,25.903,137.957z
		"/>
	<path fill="#3B3B39" d="M27.266,142.082c-0.084,0.011-0.168,0.005-0.249-0.027c-0.697-0.75-1.156-1.722-1.258-2.803
		c0.02-0.101,0.06-0.194,0.125-0.275c0.05-0.038,0.11-0.069,0.17-0.099l3.972-0.07c0.053,0.023,0.104,0.048,0.152,0.078
		c0.013,0.022,0.025,0.045,0.036,0.068c-0.005,0.065-0.018,0.128-0.037,0.189l-2.801,2.9
		C27.341,142.061,27.303,142.07,27.266,142.082z"/>
	<path fill="#3B3B39" d="M31.12,143.851c-0.054,0.066-0.117,0.119-0.199,0.151c-1.021-0.07-2.021-0.466-2.834-1.183
		c-0.055-0.089-0.089-0.184-0.099-0.286c0.013-0.063,0.032-0.127,0.058-0.19l2.848-2.768c0.053-0.022,0.107-0.037,0.163-0.047
		c0.024,0.007,0.048,0.016,0.072,0.023c0.042,0.053,0.077,0.106,0.105,0.165l-0.057,4.03
		C31.159,143.782,31.14,143.817,31.12,143.851z"/>
	<path fill="#3B3B39" d="M35.156,134.033c0.01-0.085,0.002-0.168-0.032-0.248c-0.761-0.686-1.74-1.127-2.823-1.209
		c-0.102,0.023-0.193,0.064-0.274,0.128c-0.036,0.055-0.068,0.111-0.095,0.174v3.973c0.021,0.053,0.048,0.104,0.077,0.15
		c0.024,0.012,0.047,0.022,0.071,0.034c0.065-0.005,0.127-0.02,0.189-0.039l2.851-2.852
		C35.133,134.106,35.145,134.071,35.156,134.033z"/>
	<path fill="#3B3B39" d="M37.244,137.957c0.067-0.054,0.121-0.116,0.153-0.198c-0.053-1.021-0.435-2.025-1.14-2.85
		c-0.09-0.057-0.184-0.092-0.287-0.103c-0.061,0.012-0.126,0.028-0.189,0.055l-2.809,2.808c-0.022,0.052-0.038,0.105-0.05,0.162
		c0.006,0.024,0.014,0.049,0.023,0.074c0.052,0.042,0.105,0.077,0.163,0.105h4.031C37.176,137.995,37.211,137.976,37.244,137.957z"
		/>
	<path fill="#3B3B39" d="M35.88,142.082c0.084,0.011,0.168,0.005,0.248-0.027c0.699-0.75,1.158-1.722,1.259-2.803
		c-0.021-0.101-0.062-0.194-0.125-0.275c-0.051-0.038-0.109-0.069-0.17-0.099l-3.97-0.07c-0.055,0.023-0.104,0.048-0.152,0.078
		c-0.014,0.022-0.026,0.045-0.037,0.068c0.004,0.065,0.018,0.128,0.038,0.189l2.799,2.9C35.806,142.061,35.843,142.07,35.88,142.082
		z"/>
	<path fill="#3B3B39" d="M32.027,143.851c0.053,0.066,0.118,0.119,0.199,0.151c1.021-0.07,2.022-0.466,2.835-1.183
		c0.054-0.089,0.088-0.184,0.098-0.286c-0.013-0.063-0.032-0.127-0.058-0.19l-2.849-2.768c-0.052-0.022-0.108-0.037-0.162-0.047
		c-0.025,0.007-0.05,0.016-0.073,0.023c-0.042,0.053-0.076,0.106-0.104,0.165l0.057,4.03
		C31.987,143.782,32.006,143.817,32.027,143.851z"/>
	<polygon fill="#3B3B39" points="31.564,138.353 31.564,138.353 31.564,138.353 	"/>
	<polygon fill="#3B3B39" points="31.564,138.353 31.564,138.353 31.564,138.353 	"/>
</g>
<circle fill="#CAC8BE" cx="31.573" cy="138.288" r="2.098"/>
<circle fill="#3B3B39" cx="30.476" cy="137.257" r="0.261"/>
<circle fill="#3B3B39" cx="31.563" cy="136.884" r="0.261"/>
<circle fill="#3B3B39" cx="32.671" cy="137.297" r="0.261"/>
<circle fill="#3B3B39" cx="30.476" cy="139.539" r="0.261"/>
<circle fill="#3B3B39" cx="29.964" cy="138.449" r="0.26"/>
<circle fill="#3B3B39" cx="33.183" cy="138.449" r="0.261"/>
<circle fill="#3B3B39" cx="31.563" cy="139.913" r="0.261"/>
<circle fill="#3B3B39" cx="32.671" cy="139.5" r="0.261"/>
<path fill="#ADAFB2" d="M15.241,135.409c0-9.02,7.313-16.331,16.333-16.331c9.02,0,16.332,7.312,16.332,16.331
	c0,2.459-0.544,4.791-1.519,6.883h-0.379c0.811-1.894,1.262-3.979,1.262-6.169c0-8.669-7.027-15.695-15.696-15.695
	c-8.668,0-15.696,7.026-15.696,15.695c0,2.19,0.45,4.275,1.261,6.169h-0.379C15.787,140.2,15.241,137.868,15.241,135.409z"/>
<path fill="#450808" d="M3.918,126.715l-1.398,0.163c0,0-0.386,0.036-0.403,0.551l-0.011,1.959c0,0,0.031,0.307,0.256,0.251
	c0.226-0.053,1.346-0.32,1.346-0.32s0.219-0.025,0.323-0.306c0.103-0.278,0.164-2.023,0.164-2.023S4.19,126.634,3.918,126.715z"/>
<path fill="#D31616" d="M3.367,127.227l-0.953,0.111c0,0-0.262,0.024-0.274,0.376l-0.007,1.332c0,0,0.02,0.209,0.174,0.173
	c0.154-0.038,0.916-0.22,0.916-0.22s0.15-0.016,0.219-0.207c0.071-0.189,0.112-1.378,0.112-1.378S3.525,127.134,3.367,127.227z"/>
<path fill="#DA4C00" d="M142.833,121.3l-4.747-0.217c0,0,0.071,0.517,0.56,0.957c0.488,0.442,2.812,0.332,2.812,0.332
	s1.046,0.055,1.376-0.277C143.164,121.765,143.219,121.317,142.833,121.3z"/>
<path opacity="0.5" fill="#DA4C00" d="M142.737,121.499l-3.155-0.142c0,0,0.048,0.341,0.37,0.634
	c0.325,0.294,1.869,0.222,1.869,0.222s0.695,0.036,0.916-0.186C142.957,121.81,142.992,121.513,142.737,121.499z"/>
<path fill="#450808" d="M4.905,112.886c0.38,0.381,0.753,0.964,0.963,1.68c0.214,0.737,0.255,1.57,0.228,2.386
	c-0.022,0.688-0.078,1.375-0.123,2.056c-0.045,0.694-0.095,1.39-0.16,2.078c-0.056,0.626-0.118,1.259-0.223,1.863
	c-0.069,0.395-0.152,0.797-0.328,1.068c-0.222,0.343-0.506,0.546-0.768,0.761c-0.339,0.274-0.683,0.53-1.029,0.769
	c-0.317,0.219-1.104,0.97-1.111,0.629l0.767-14.53l0.218-0.359c0.027,0.022,0.052,0.044,0.074,0.063
	c0.174,0.146,0.341,0.312,0.508,0.484C4.249,112.175,4.571,112.551,4.905,112.886z"/>
<path fill="#CC370C" d="M4.617,112.89c0.343,0.384,0.68,0.966,0.869,1.684c0.196,0.739,0.234,1.571,0.21,2.385
	c-0.019,0.69-0.066,1.378-0.107,2.058c-0.038,0.694-0.082,1.388-0.136,2.078c-0.051,0.625-0.104,1.259-0.197,1.862
	c-0.063,0.395-0.135,0.795-0.293,1.068c-0.199,0.341-0.453,0.545-0.689,0.759c-0.303,0.273-0.611,0.527-0.922,0.767
	c-0.285,0.217-0.99,0.966-0.997,0.625l0.66-14.527l0.193-0.36c0.023,0.022,0.046,0.047,0.066,0.063
	c0.156,0.146,0.307,0.313,0.458,0.487C4.027,112.18,4.317,112.558,4.617,112.89z"/>
<g>
	<path fill="#CC370C" d="M5.634,118.273c-0.015,0.246-0.03,0.495-0.045,0.742c-0.038,0.694-0.082,1.388-0.136,2.078
		c-0.051,0.625-0.104,1.259-0.197,1.862c-0.063,0.395-0.135,0.795-0.293,1.068c-0.199,0.341-0.453,0.545-0.689,0.759
		c-0.303,0.273-0.611,0.527-0.922,0.767c-0.285,0.217-0.99,0.966-0.997,0.625l0.355-7.839L5.634,118.273z"/>
</g>
<path fill="#FFFFFF" d="M3.252,111.692c0,0,2.091,1.883,2.171,3.796c0.079,1.912-0.483,7.7-0.483,7.7s-0.031,0.555-0.385,0.856
	l0.498-6.609c0,0,0.243-2.387-0.482-3.477C3.848,112.871,3.252,111.692,3.252,111.692z"/>
<path fill="#1A1718" d="M140.783,109.13V87.57c0-1.864,0.818-3.534,2.109-4.682c8.345,10.976,10.811,23.935,11.45,32.516h-7.286
	C143.592,115.404,140.783,112.595,140.783,109.13z"/>
<path fill="#AEE2FA" d="M141.457,108.39V88.132c0-1.752,0.776-3.319,2.006-4.4c7.93,10.31,10.175,22.426,10.782,30.491l-6.825,0.063
	C144.127,114.285,141.457,111.645,141.457,108.39z"/>
<path fill="#AEE2FA" d="M147.517,105.556c-1.984-1.032-4.007-1.977-6.061-2.852V88.132c0-1.752,0.776-3.319,2.006-4.4
	c6.423,8.354,9.117,17.891,10.23,25.498C151.716,107.843,149.601,106.639,147.517,105.556z"/>
<path fill="#194C66" d="M63.781,102.332V88.486c0-3.091,2.422-5.598,5.412-5.598h7.215c2.988,0,5.412,2.507,5.412,5.598v13.846
	H63.781z"/>
<path fill="#1A1718" d="M62.42,109.13c0,3.465,2.81,6.274,6.274,6.274h8.365c3.466,0,6.273-2.81,6.273-6.274V87.57
	c0-3.464-2.808-6.274-6.273-6.274h-8.365c-3.464,0-6.274,2.81-6.274,6.274V109.13z"/>
<path fill="#AEE2FA" d="M63.857,107.727c0,3.091,2.423,5.6,5.413,5.6h7.216c2.988,0,5.411-2.509,5.411-5.6v-19.24
	c0-3.091-2.422-5.598-5.411-5.598H69.27c-2.99,0-5.413,2.507-5.413,5.598V107.727z"/>
<path opacity="0.5" fill="#AEE2FA" d="M63.857,89.191v-0.705c0-3.091,2.423-5.598,5.413-5.598h7.216
	c2.988,0,5.411,2.507,5.411,5.598v0.593C75.888,88.813,69.864,88.854,63.857,89.191z"/>
<path fill="#671A00" d="M69.166,101.345c2.214,0,4.01,1.796,4.01,4.011l0.804,7.971H69.27c-1.648,0-3.122-0.766-4.114-1.968v-6.003
	C65.156,103.141,66.952,101.345,69.166,101.345z"/>
<path fill="#80251A" d="M69.265,103.571c1.671,0,3.025,1.357,3.025,3.028l0.608,6.016h-3.556c-1.244,0-2.356-0.577-3.104-1.483
	V106.6C66.238,104.929,67.592,103.571,69.265,103.571z"/>
<rect x="63.857" y="99.006" fill="#4A4647" width="18.039" height="2.021"/>
<path fill="#194C66" d="M37.363,102.332V88.486c0-3.091,2.423-5.598,5.412-5.598h7.215c2.991,0,5.413,2.507,5.413,5.598v13.846
	H37.363z"/>
<path fill="#1A1718" d="M36.003,109.13c0,3.465,2.808,6.274,6.273,6.274h8.366c3.464,0,6.272-2.81,6.272-6.274V87.57
	c0-3.464-2.808-6.274-6.272-6.274h-8.366c-3.465,0-6.273,2.81-6.273,6.274V109.13z"/>
<path fill="#AEE2FA" d="M37.44,107.727c0,3.091,2.422,5.6,5.411,5.6h7.216c2.989,0,5.412-2.509,5.412-5.6v-19.24
	c0-3.091-2.422-5.598-5.412-5.598h-7.216c-2.989,0-5.411,2.507-5.411,5.598V107.727z"/>
<path opacity="0.5" fill="#AEE2FA" d="M52.487,89.919c-5.036,0.531-10.066,1.221-15.047,2.147v-3.58
	c0-3.091,2.422-5.598,5.411-5.598h7.216c2.989,0,5.412,2.507,5.412,5.598v1.144C54.481,89.719,53.484,89.813,52.487,89.919z"/>
<path fill="#671A00" d="M42.748,101.345c2.215,0,4.01,1.796,4.01,4.011l0.804,7.971h-4.71c-1.647,0-3.12-0.766-4.114-1.968v-6.003
	C38.737,103.141,40.533,101.345,42.748,101.345z"/>
<path fill="#80251A" d="M42.847,103.571c1.672,0,3.027,1.357,3.027,3.028l0.606,6.016h-3.554c-1.245,0-2.358-0.577-3.106-1.483
	V106.6C39.82,104.929,41.175,103.571,42.847,103.571z"/>
<rect x="37.44" y="99.72" fill="#4A4647" width="18.038" height="2.612"/>
<path fill="#194C66" d="M10.946,102.332V88.486c0-3.091,2.423-5.598,5.411-5.598h7.216c2.99,0,5.412,2.507,5.412,5.598v13.846
	H10.946z"/>
<path fill="#1A1718" d="M9.585,109.13c0,3.465,2.809,6.274,6.274,6.274h8.365c3.466,0,6.274-2.81,6.274-6.274V87.57
	c0-3.464-2.808-6.274-6.274-6.274h-8.365c-3.465,0-6.274,2.81-6.274,6.274V109.13z"/>
<path fill="#AEE2FA" d="M11.022,107.727c0,3.091,2.423,5.6,5.411,5.6h7.217c2.989,0,5.412-2.509,5.412-5.6v-19.24
	c0-3.091-2.423-5.598-5.412-5.598h-7.217c-2.988,0-5.411,2.507-5.411,5.598V107.727z"/>
<path opacity="0.5" fill="#AEE2FA" d="M11.263,98.94c-0.08,0.034-0.16,0.069-0.24,0.103V88.486c0-3.091,2.423-5.598,5.411-5.598
	h7.217c2.989,0,5.412,2.507,5.412,5.598v4.845C22.997,94.732,17.035,96.546,11.263,98.94z"/>
<path fill="#671A00" d="M16.33,101.345c2.215,0,4.01,1.796,4.01,4.011l0.805,7.971h-4.712c-1.647,0-3.12-0.766-4.113-1.968v-6.003
	C12.32,103.141,14.116,101.345,16.33,101.345z"/>
<path fill="#80251A" d="M16.429,103.571c1.672,0,3.028,1.357,3.028,3.028l0.608,6.016h-3.558c-1.243,0-2.354-0.577-3.104-1.483
	V106.6C13.402,104.929,14.758,103.571,16.429,103.571z"/>
<rect x="11.022" y="99.72" fill="#4A4647" width="18.04" height="2.612"/>
<path fill="#194C66" d="M116.616,102.332V88.486c0-3.091,2.423-5.598,5.409-5.598h7.218c2.989,0,5.411,2.507,5.411,5.598v13.846
	H116.616z"/>
<path fill="#1A1718" d="M115.256,109.13c0,3.465,2.808,6.274,6.272,6.274h8.364c3.466,0,6.275-2.81,6.275-6.274V87.57
	c0-3.464-2.81-6.274-6.275-6.274h-8.364c-3.465,0-6.272,2.81-6.272,6.274V109.13z"/>
<path fill="#AEE2FA" d="M116.693,107.727c0,3.091,2.421,5.6,5.41,5.6h7.218c2.988,0,5.409-2.509,5.409-5.6v-19.24
	c0-3.091-2.421-5.598-5.409-5.598h-7.218c-2.989,0-5.41,2.507-5.41,5.598V107.727z"/>
<path opacity="0.5" fill="#AEE2FA" d="M131.292,98.915c-4.802-1.577-9.677-2.935-14.599-4.105v-6.323
	c0-3.091,2.421-5.598,5.41-5.598h7.218c2.988,0,5.409,2.507,5.409,5.598v11.607C133.588,99.688,132.441,99.293,131.292,98.915z"/>
<path fill="#671A00" d="M122.001,101.345c2.213,0,4.008,1.796,4.008,4.011l0.806,7.971h-4.712c-1.648,0-3.12-0.766-4.112-1.968
	v-6.003C117.991,103.141,119.786,101.345,122.001,101.345z"/>
<path fill="#80251A" d="M122.099,103.571c1.671,0,3.025,1.357,3.025,3.028l0.608,6.016h-3.557c-1.243,0-2.356-0.577-3.106-1.483
	V106.6C119.07,104.929,120.425,103.571,122.099,103.571z"/>
<rect x="116.693" y="99.72" fill="#4A4647" width="18.037" height="2.612"/>
<path fill="#194C66" d="M90.198,102.332V88.486c0-3.091,2.423-5.598,5.411-5.598h7.217c2.989,0,5.411,2.507,5.411,5.598v13.846
	H90.198z"/>
<path fill="#1A1718" d="M88.837,109.13c0,3.465,2.809,6.274,6.275,6.274h8.366c3.464,0,6.272-2.81,6.272-6.274V87.57
	c0-3.464-2.808-6.274-6.272-6.274h-8.366c-3.466,0-6.275,2.81-6.275,6.274V109.13z"/>
<path fill="#AEE2FA" d="M90.275,107.727c0,3.091,2.422,5.6,5.413,5.6h7.215c2.988,0,5.411-2.509,5.411-5.6v-19.24
	c0-3.091-2.423-5.598-5.411-5.598h-7.215c-2.991,0-5.413,2.507-5.413,5.598V107.727z"/>
<path opacity="0.5" fill="#AEE2FA" d="M104.873,98.915c-4.801-1.577-9.677-2.935-14.598-4.105v-6.323
	c0-3.091,2.422-5.598,5.413-5.598h7.215c2.988,0,5.411,2.507,5.411,5.598v11.607C107.171,99.688,106.023,99.293,104.873,98.915z"/>
<path fill="#671A00" d="M95.584,101.345c2.213,0,4.01,1.796,4.01,4.011l0.804,7.971h-4.71c-1.649,0-3.122-0.766-4.116-1.968v-6.003
	C91.572,103.141,93.368,101.345,95.584,101.345z"/>
<path fill="#80251A" d="M95.681,103.571c1.672,0,3.027,1.357,3.027,3.028l0.607,6.016h-3.557c-1.242,0-2.355-0.577-3.104-1.483
	V106.6C92.655,104.929,94.009,103.571,95.681,103.571z"/>
<rect x="90.275" y="99.72" fill="#4A4647" width="18.039" height="2.612"/>
<path fill="#FFCA32" d="M14.235,74.509c26.419-2.077,84.622-1.498,106.337,0.105c3.104,0.229,5.752,0.561,8.015,0.956l-97.559-1.01
	c0,0-22.512,0-24.254,6.68c-0.839,3.215-2.181,13.02-3.35,22.33C3.93,94.123,4.718,82.281,5.57,80.216
	C5.801,79.655,7.204,75.062,14.235,74.509z"/>
</svg>
