<?xml version="1.0" encoding="utf-8"?>
<!-- Generator: Adobe Illustrator 14.0.0, SVG Export Plug-In . SVG Version: 6.00 Build 43363)  -->
<!DOCTYPE svg PUBLIC "-//W3C//DTD SVG 1.1//EN" "http://www.w3.org/Graphics/SVG/1.1/DTD/svg11.dtd">
<svg version="1.1" id="Layer_1" xmlns="http://www.w3.org/2000/svg" xmlns:xlink="http://www.w3.org/1999/xlink" x="0px" y="0px"
	 width="183.507px" height="183.506px" viewBox="0 0 183.507 183.506" enable-background="new 0 0 183.507 183.506"
	 xml:space="preserve">
<g>
	<path fill-rule="evenodd" clip-rule="evenodd" fill="#F1EFEA" d="M138.947,41.258c0.948-1.457,7.851-1.457,8.801,0
		C144.813,41.258,141.881,41.258,138.947,41.258z"/>
	<path fill-rule="evenodd" clip-rule="evenodd" fill="#EAD3B9" d="M17.499,122.222c2.672-1.462,11.41-1.462,14.082,0
		C26.886,122.222,22.194,122.222,17.499,122.222z"/>
	<path fill-rule="evenodd" clip-rule="evenodd" fill="#EAD3B9" d="M172.39,142.463c-51.044,1.467-108.246,1.467-159.29,0
		C66.197,142.463,119.292,142.463,172.39,142.463z"/>
	<path fill-rule="evenodd" clip-rule="evenodd" fill="#D9A762" d="M164.469,49.178c-1.172,0.131-2.657-3.578-3.52-0.88
		c1.689,1.59-2.078-0.27,0-2.64c-1.829,0.984-1.865,0.949-0.88-0.88C163.065,44.715,163.347,47.367,164.469,49.178z"/>
	<path fill-rule="evenodd" clip-rule="evenodd" fill="#EAB654" d="M138.947,41.258c2.934,0,5.866,0,8.801,0
		c4.61,0.67,9.937,0.624,12.321,3.52c-0.985,1.829-0.949,1.865,0.88,0.88c-2.078,2.371,1.689,4.23,0,2.64
		c0.862-2.698,2.348,1.011,3.52,0.88c2.943,4.228,7.896,10.702,5.281,17.601c3.108,6.87,8.495,13.111,6.16,22.881
		c-2.101,1.42-5.638,1.402-7.921,2.641c-0.143-1.032-1.605-0.742-2.641-0.88c-1.22-2.007-6.125-0.329-8.8-0.88
		c-0.708-0.465-1.431-0.918-2.64-0.88c-3.222-2.059-7.295-3.266-11.442-4.4c-0.597,1.516,2.953,6.405,5.281,7.92
		c0.311,2.918,2.635,3.818,4.4,5.281c1.452,3.534,3.646,6.326,6.16,8.801c1.805,7.875,5.939,13.422,11.441,17.601
		c0.279,2.04-0.144,3.379-0.88,4.4c-2.979-2.704-2.916-0.04-3.521,0c-46.815,3.097-104.174-1.601-151.369-0.88
		c-0.346-3.572,0.321-6.133,3.52-6.161c4.695,0,9.387,0,14.082,0c1.839,0.373,2.33-0.603,3.52-0.88
		c34.619,1.47,75.385,1.463,110.007,0c0-0.293,0-0.586,0-0.88s0-0.587,0-0.88c-0.821-4.166-2.907-7.066-3.521-11.44
		c-0.559-2.962-0.624-6.417-2.64-7.921c-1.905-3.668-3.84-7.308-6.161-10.561c-0.69-4.003-4.251-5.137-4.399-9.68
		c4.551,2.716,9.921-0.374,10.561-4.4c0.749,0.161,0.829-0.344,0.879-0.88c1.754-2.354,5.871-2.343,7.042-5.28
		c0.638-2.691-1.519-2.589-0.88-5.28c-2.145-1.799-1.984,6.193-6.162,5.28c-1.311-1.036-2.483-2.209-3.52-3.52
		c0-2.347,0-4.694,0-7.041c1.195-0.272,0.73-2.204,0.88-3.52c3.322-0.389,4.133,1.735,6.16,2.64c1.832-1.892-3.97-3.613-5.279-5.281
		c0-2.346,0-4.693,0-7.04C136.569,42.376,138.586,44.265,138.947,41.258z M156.549,60.619c3.157-0.518,4.256,1.023,6.16,1.76
		c-1.502-2.02-1.364-5.677-2.64-7.92C159.122,56.739,156.886,57.73,156.549,60.619z"/>
	<path fill-rule="evenodd" clip-rule="evenodd" fill="#C88E40" d="M132.786,63.259c-0.986,0.186-1.369,0.977-1.76,1.76
		c-3.001-1.11,3.371-4.68,0-6.16c2.674,1.802,3.715-16.178,5.28-9.681c0.466,3.692-1.536,4.917-1.76,7.92c0,0.294,0,0.587,0,0.88
		C133.844,59.623,133.076,61.202,132.786,63.259z"/>
	<path fill-rule="evenodd" clip-rule="evenodd" fill="#C88E40" d="M122.227,77.34c-0.881,0-1.761,0-2.641,0
		c-0.377-1.296,8.878-0.48,7.92-5.28c0.986,0.186,1.37,0.976,1.761,1.76c0,0.293,0,0.587,0,0.88c-0.855-0.024-0.683-1.077-0.88-1.76
		c-1.221,1.42-2.495,2.786-3.521,4.4C123.985,77.34,123.106,77.34,122.227,77.34z"/>
	<path fill-rule="evenodd" clip-rule="evenodd" fill="#B98339" d="M115.187,50.938c6.486-4.661,15.418-6.875,23.761-9.681
		c-0.361,3.007-2.378,1.118-0.88,4.4c-1.195,0.272-0.731,2.204-0.881,3.52c-0.293,0-0.586,0-0.88,0
		c-1.565-6.498-2.606,11.483-5.28,9.681c3.371,1.48-3.001,5.05,0,6.16c0.391-0.783,0.773-1.574,1.76-1.76
		c-0.885,3.809-1.922,7.465-3.52,10.561c-0.391-0.784-0.774-1.574-1.761-1.76c0.958,4.799-8.297,3.983-7.92,5.28
		c0.88,0,1.76,0,2.641,0c-6.972,2.123-15.98,2.207-23.762,3.521c1.935-1.849,1.938-3.431,0-5.28c-1.658,0.33,3.468,4.679-1.76,4.4
		c0.466-0.708,0.917-1.429,0.88-2.641c-1.662,0.098-0.611,2.91-2.641,2.641c3.768-8.847,8.321-16.907,14.08-23.761
		c1.507-0.039,2.279,0.653,2.641,1.76c3.317-1.419,0.741-6.391,4.4-4.4C115.601,52.871,115.147,52.15,115.187,50.938z"/>
	<path fill-rule="evenodd" clip-rule="evenodd" fill="#C88E40" d="M94.944,79.98c2.029,0.269,0.979-2.543,2.641-2.641
		c0.037,1.211-0.414,1.933-0.88,2.641c5.228,0.278,0.102-4.071,1.76-4.4c1.938,1.849,1.935,3.431,0,5.28
		c-3.323-0.39-4.132,1.736-6.161,2.64C93.188,82.331,93.137,80.226,94.944,79.98z"/>
	<path fill-rule="evenodd" clip-rule="evenodd" fill="#C88E40" d="M109.024,56.219c1.439-2.375,3.44-4.188,6.162-5.281
		c-0.039,1.211,0.414,1.932,0.879,2.64c-3.659-1.99-1.083,2.981-4.4,4.4C111.304,56.873,110.531,56.18,109.024,56.219z"/>
	<path fill-rule="evenodd" clip-rule="evenodd" fill="#1F0B05" d="M134.547,57.979c0-0.293,0-0.586,0-0.88
		c0.784,0.39,1.574,0.773,1.76,1.76c0,2.347,0,4.693,0,7.041C133.747,65.231,137.106,58.647,134.547,57.979z"/>
	<path fill-rule="evenodd" clip-rule="evenodd" fill="#541407" d="M138.067,45.658c0,2.347,0,4.694,0,7.04
		c1.31,1.667,7.111,3.389,5.279,5.281c-2.027-0.905-2.838-3.029-6.16-2.64c-0.149,1.316,0.315,3.248-0.88,3.52
		c-0.186-0.987-0.976-1.37-1.76-1.76c0.224-3.004,2.226-4.228,1.76-7.92c0.294,0,0.587,0,0.88,0
		C137.336,47.862,136.872,45.931,138.067,45.658z"/>
	<path fill-rule="evenodd" clip-rule="evenodd" fill="#541407" d="M160.069,54.458c1.275,2.244,1.138,5.901,2.64,7.92
		c-1.904-0.737-3.003-2.278-6.16-1.76C156.886,57.73,159.122,56.739,160.069,54.458z"/>
	<path fill-rule="evenodd" clip-rule="evenodd" fill="#541407" d="M136.307,65.899c1.036,1.311,2.209,2.484,3.52,3.52
		c4.178,0.913,4.018-7.08,6.162-5.28c-0.639,2.691,1.518,2.589,0.88,5.28c-1.171,2.938-5.288,2.926-7.042,5.28
		c2.214-2.663-2.206-3.027-2.64-3.52c-3.114,2.625,1.549,4.342-2.64,7.041c2.762,0.416,2.325-2.369,4.4-2.64
		c-0.64,4.027-6.01,7.117-10.561,4.4c0-0.294,0-0.586,0-0.88c-0.728-2.487,1.241-2.28,0.88-4.4c0-0.293,0-0.586,0-0.88
		c1.598-3.096,2.635-6.751,3.52-10.561c0.29-2.058,1.058-3.636,1.761-5.28C137.106,58.647,133.747,65.231,136.307,65.899z"/>
	<path fill-rule="evenodd" clip-rule="evenodd" fill="#B98339" d="M124.866,77.34c1.025-1.614,2.3-2.979,3.521-4.4
		c0.197,0.683,0.024,1.735,0.88,1.76c0.361,2.121-1.607,1.914-0.88,4.4C125.538,80.188,127.714,76.252,124.866,77.34z"/>
	<path fill-rule="evenodd" clip-rule="evenodd" fill="#6D3720" d="M147.748,93.18c-2.328-1.515-5.878-6.404-5.281-7.92
		c4.147,1.134,8.221,2.341,11.442,4.4c-0.714,0.167-0.879,0.883-1.761,0.88c0.959,0.884,4.319,3.781,5.28,1.761
		c2.607,2.383-1.255,4.639-2.641,1.76c0.791,1.556,2.124,2.568,2.641,4.4c-0.258-0.711,4.636-9.254-1.761-6.16
		c0.167-0.713,0.883-0.878,0.881-1.761c2.675,0.552,7.58-1.126,8.8,0.88c-1.467,0-2.934,0-4.399,0
		c0.141,1.031,1.604,0.742,2.64,0.88c-0.865,1.421-2.35,2.024-3.52,0.879c0.309,1.01,1.548,2.231,1.76,0.881c0.292,0,0.586,0,0.88,0
		c-2.734,3.133-5.03,6.703-4.4,13.201c-2.514-2.475-4.708-5.267-6.16-8.801c0.024-0.856,1.076-0.683,1.761-0.881
		c-0.492-2.148-3.407-1.875-2.641-5.279C149.688,92.189,149.412,93.378,147.748,93.18z"/>
	<path fill-rule="evenodd" clip-rule="evenodd" fill="#35332B" d="M156.549,90.541c0.002,0.883-0.714,1.048-0.881,1.761
		c6.396-3.094,1.503,5.449,1.761,6.16c-0.517-1.832-1.85-2.845-2.641-4.4c1.386,2.879,5.248,0.623,2.641-1.76
		c-0.961,2.021-4.321-0.877-5.28-1.761c0.882,0.003,1.047-0.713,1.761-0.88C155.118,89.623,155.841,90.075,156.549,90.541z"/>
	<path fill-rule="evenodd" clip-rule="evenodd" fill="#35332B" d="M147.748,93.18c1.664,0.198,1.94-0.991,3.521-0.879
		c-0.767,3.404,2.148,3.131,2.641,5.279c-0.685,0.198-1.736,0.024-1.761,0.881C150.383,96.999,148.059,96.098,147.748,93.18z"/>
	<path fill-rule="evenodd" clip-rule="evenodd" fill="#1F0B05" d="M138.947,100.221c2.016,1.504,2.081,4.959,2.64,7.921
		c-0.856,0.023-0.683,1.077-0.881,1.76C140.14,107.799,139.89,104.076,138.947,100.221z"/>
	<path fill-rule="evenodd" clip-rule="evenodd" fill="#35332B" d="M162.709,94.061c-0.294,0-0.588,0-0.88,0
		c-0.212,1.351-1.451,0.129-1.76-0.881c1.17,1.146,2.654,0.542,3.52-0.879c-1.036-0.138-2.499,0.151-2.64-0.88
		c1.466,0,2.933,0,4.399,0c1.035,0.138,2.498-0.151,2.641,0.88C164.701,91.359,165.479,94.487,162.709,94.061z"/>
	<path fill-rule="evenodd" clip-rule="evenodd" fill="#B98339" d="M98.465,108.142c6.108,3.866,15.073,4.872,22.001,7.921
		c-1.022-0.144-1.565,0.193-1.76,0.879c2.351-0.508,5.498,2.604,7.04,0c5.016,1.145,10.919,1.404,14.96,3.521
		c-31.98,1.462-70.106,1.471-102.085,0c8.445-2.116,17.382-3.739,28.161-3.521c7.041,0,14.082,0,21.122,0c2.054,0,4.105,0,6.16,0
		C96.069,114.548,95.207,109.284,98.465,108.142z M117.825,119.583c-1.545,0.646-1.613-0.866-1.76-0.881
		C103.511,117.532,113.813,121.261,117.825,119.583z"/>
	<path fill-rule="evenodd" clip-rule="evenodd" fill="#C88E40" d="M125.746,116.942c-1.542,2.604-4.689-0.508-7.04,0
		c0.194-0.686,0.737-1.022,1.76-0.879C123.156,115.426,123.673,116.961,125.746,116.942z"/>
	<path fill-rule="evenodd" clip-rule="evenodd" fill="#C88E40" d="M116.065,118.702c0.146,0.015,0.215,1.527,1.76,0.881
		C113.813,121.261,103.511,117.532,116.065,118.702z"/>
	<path fill-rule="evenodd" clip-rule="evenodd" fill="#D9A762" d="M169.75,124.863c0.876,5.454,9.809,5.554,8.8,12.321
		c-0.298,1.984-1.817,4.986-6.16,5.279c-53.098,0-106.192,0-159.29,0c-9.452-0.337-6.516-13.848,0.88-14.08
		c47.195-0.721,104.554,3.977,151.369,0.88c0.605-0.04,0.542-2.704,3.521,0C169.606,128.242,170.029,126.903,169.75,124.863z"/>
	<path fill-rule="evenodd" clip-rule="evenodd" fill="#111224" d="M138.947,75.58c-2.075,0.271-1.639,3.056-4.4,2.64
		c4.188-2.698-0.475-4.416,2.64-7.041c0.434,0.493,4.854,0.857,2.64,3.52C139.776,75.236,139.696,75.741,138.947,75.58z"/>
	<path fill-rule="evenodd" clip-rule="evenodd" fill="#C88E40" d="M140.706,120.462c1.467,0,2.935,0,4.401,0c0,0.294,0,0.587,0,0.88
		c-34.622,1.463-75.388,1.47-110.007,0c1.578,0.111,1.856-1.076,3.521-0.88C70.6,121.933,108.726,121.924,140.706,120.462z"/>
	<path fill-rule="evenodd" clip-rule="evenodd" fill="#D9A762" d="M66.782,116.942c5.003-1.465,16.12-1.465,21.122,0
		C80.864,116.942,73.823,116.942,66.782,116.942z"/>
	<path fill-rule="evenodd" clip-rule="evenodd" fill="#6D3720" d="M98.465,80.86c7.781-1.313,16.79-1.397,23.762-3.521
		c0.88,0,1.759,0,2.64,0c2.848-1.087,0.672,2.848,3.521,1.76c0,0.294,0,0.586,0,0.88c0.148,4.543,3.709,5.677,4.399,9.68
		c1.587,11.241,6.415,16.601,4.4,26.402c2.97,1.548,2.051,3.724,7.921,3.52c0,0.293,0,0.586,0,0.88c-1.467,0-2.935,0-4.401,0
		c-4.041-2.116-9.944-2.376-14.96-3.521c-2.073,0.02-2.59-1.516-5.28-0.879c-6.928-3.049-15.893-4.055-22.001-7.921
		c4.503-9.046-2.372-18.405-6.161-24.642C94.333,82.596,95.142,80.471,98.465,80.86z"/>
	<path fill-rule="evenodd" clip-rule="evenodd" fill="#111224" d="M132.786,89.661c2.321,3.253,4.256,6.893,6.161,10.561
		c0.942,3.854,1.192,7.578,1.759,9.681c0.198-0.683,0.024-1.736,0.881-1.76c0.613,4.374,2.699,7.274,3.521,11.44
		c-5.87,0.204-4.951-1.972-7.921-3.52C139.201,106.261,134.373,100.902,132.786,89.661z"/>
</g>
</svg>
