<?xml version="1.0" encoding="utf-8"?>
<!-- Generator: Adobe Illustrator 14.0.0, SVG Export Plug-In . SVG Version: 6.00 Build 43363)  -->
<!DOCTYPE svg PUBLIC "-//W3C//DTD SVG 1.1//EN" "http://www.w3.org/Graphics/SVG/1.1/DTD/svg11.dtd">
<svg version="1.1" id="Layer_1" xmlns="http://www.w3.org/2000/svg" xmlns:xlink="http://www.w3.org/1999/xlink" x="0px" y="0px"
	 width="183.507px" height="183.506px" viewBox="0 0 183.507 183.506" enable-background="new 0 0 183.507 183.506"
	 xml:space="preserve">
<g>
	<path fill-rule="evenodd" clip-rule="evenodd" fill="#D9A762" d="M84.713,37.626c0-0.26,0-0.52,0-0.778c4.669,0,9.339,0,14.008,0
		c0,0.259,0,0.519,0,0.778C94.052,37.626,89.382,37.626,84.713,37.626z"/>
	<path fill-rule="evenodd" clip-rule="evenodd" fill="#EAD3B9" d="M108.06,74.202c1.295,3.906,1.295,13.213,0,17.121
		C108.06,85.615,108.06,79.908,108.06,74.202z"/>
	<path fill-rule="evenodd" clip-rule="evenodd" fill="#D9A762" d="M83.156,76.537c0.098-1.72,3.302-0.332,4.669-0.778
		c-1.313,2.577-4.112,3.669-4.669,7.004c0-1.557,0-3.113,0-4.67C83.156,77.573,83.156,77.055,83.156,76.537z"/>
	<path fill-rule="evenodd" clip-rule="evenodd" fill="#EAD3B9" d="M104.946,75.759c0.26,0,0.519,0,0.778,0
		c0,5.705,0,11.413,0,17.121c-0.757-0.021-0.604-0.953-0.778-1.557C104.946,86.134,104.946,80.946,104.946,75.759z"/>
	<path fill-rule="evenodd" clip-rule="evenodd" fill="#F1EFEA" d="M75.374,78.093c0,4.149,0,8.301,0,12.453
		C74.081,88.183,74.081,80.455,75.374,78.093z"/>
	<path fill-rule="evenodd" clip-rule="evenodd" fill="#B98339" d="M106.503,78.093c1.293,2.876,1.293,11.133,0,14.007
		C106.503,87.432,106.503,82.763,106.503,78.093z"/>
	<path fill-rule="evenodd" clip-rule="evenodd" fill="#EAD3B9" d="M92.495,85.097c-0.099,1.396,0.953,1.642,0.778,3.113
		c-1.455-0.622-2.851-1.301-4.67-1.557C89.265,85.498,90.563,84.979,92.495,85.097z"/>
	<path fill-rule="evenodd" clip-rule="evenodd" fill="#B98339" d="M90.16,92.879c1.557,0,3.113,0,4.669,0
		C95.945,95.307,89.045,95.307,90.16,92.879z"/>
	<path fill-rule="evenodd" clip-rule="evenodd" fill="#EAD3B9" d="M106.503,174.592c0.519-24.127-1.037-50.324,0.778-73.152
		C106.763,125.565,108.317,151.764,106.503,174.592z"/>
	<path fill-rule="evenodd" clip-rule="evenodd" fill="#EAD3B9" d="M76.931,174.592c-1.297-22.053-1.297-49.547,0-71.596
		C76.931,126.86,76.931,150.725,76.931,174.592z"/>
	<path fill-rule="evenodd" clip-rule="evenodd" fill="#934B23" d="M88.604,173.036c0.519-23.088-1.036-48.25,0.778-70.039
		c0.519,0,1.038,0,1.557,0c0,0.258,0,0.518,0,0.777c-0.625,18.365-4.446,47.438-1.557,66.926c0.186,1.256,0.245,1.521,1.557,1.557
		c-0.044,0.475-0.116,0.922-0.778,0.779C89.642,173.036,89.122,173.036,88.604,173.036z"/>
	<path fill-rule="evenodd" clip-rule="evenodd" fill="#934B23" d="M99.499,103.774c0.044-0.475,0.116-0.92,0.778-0.777
		c0.904-0.127,1.385,0.172,1.556,0.777c-0.518,22.828,1.037,47.73-0.777,69.262c-0.261,0-0.519,0-0.778,0
		c-1.815-19.975-0.26-43.32-0.778-64.592c1.814,19.715,0.26,42.801,0.778,63.813c1.814-21.012,0.26-45.396,0.778-67.703
		C101.034,103.795,100.103,103.95,99.499,103.774z"/>
	<path fill-rule="evenodd" clip-rule="evenodd" fill="#AF875F" d="M104.946,171.479c0-22.828,0-45.656,0-68.482
		C106.243,124.008,106.243,150.465,104.946,171.479z"/>
	<path fill-rule="evenodd" clip-rule="evenodd" fill="#C46936" d="M80.043,120.895c0,5.705,0,11.414,0,17.121
		c0,11.412,0,22.826,0,34.24c-0.253-15.064-2.243-47.141-0.777-64.592c0.446-5.318,0.6-1.74,0.777,2.336
		C80.069,110.583,80.025,116.829,80.043,120.895z"/>
	<path fill-rule="evenodd" clip-rule="evenodd" fill="#C46936" d="M87.047,120.895c0,5.705,0,11.414,0,17.121
		c0,11.412,0,22.826,0,34.24c-0.253-15.064-2.243-47.141-0.777-64.592c0.446-5.318,0.6-1.74,0.777,2.336
		C87.073,110.583,87.029,116.829,87.047,120.895z"/>
	<path fill-rule="evenodd" clip-rule="evenodd" fill="#C46936" d="M94.052,120.895c0,5.705,0,11.414,0,17.121
		c0,11.412,0,22.826,0,34.24c-0.254-15.064-2.244-47.141-0.778-64.592c0.446-5.318,0.6-1.74,0.778,2.336
		C94.077,110.583,94.033,116.829,94.052,120.895z"/>
	<path fill-rule="evenodd" clip-rule="evenodd" fill="#C46936" d="M96.386,104.553c1.808,17.646,0.267,45.389,0.778,66.926
		C95.357,153.829,96.898,126.09,96.386,104.553z"/>
	<path fill-rule="evenodd" clip-rule="evenodd" fill="#C88E40" d="M78.487,173.036c-1.297-21.014-1.297-47.471,0-68.482
		C78.487,127.379,78.487,150.208,78.487,173.036z"/>
	<path fill-rule="evenodd" clip-rule="evenodd" fill="#934B23" d="M90.938,107.665c0,21.271,0,42.543,0,63.814
		C89.642,152.022,89.642,127.122,90.938,107.665z"/>
	<path fill-rule="evenodd" clip-rule="evenodd" fill="#B98339" d="M92.495,107.665c0,21.791,0,43.58,0,65.371
		C91.198,153.061,91.198,127.641,92.495,107.665z"/>
	<path fill-rule="evenodd" clip-rule="evenodd" fill="#6D3720" d="M90.938,42.295c0.009-0.785,1.363-0.979,1.557,0
		c0,1.297,0,2.594,0,3.892C89.881,46.984,91.283,43.765,90.938,42.295z"/>
	<path fill-rule="evenodd" clip-rule="evenodd" fill="#6D3720" d="M95.607,42.295c0-0.26,0-0.52,0-0.778
		c2.813-0.736,1.086,3.064,1.557,4.67C94.55,46.984,95.953,43.765,95.607,42.295z"/>
	<path fill-rule="evenodd" clip-rule="evenodd" fill="#D9A762" d="M84.713,46.965c2.958,0.623,0.989-3.68,1.557-5.448
		c2.322,1.114,2.646-0.635,4.669,0.778c0.345,1.47-1.058,4.689,1.557,3.892c0-1.298,0-2.595,0-3.892c0.26,0,0.519,0,0.778,0
		c-1.04,4.729,2.596,4.729,1.556,0c0.261,0,0.519,0,0.778,0c0.346,1.47-1.058,4.689,1.557,3.892c0,0.518,0,1.036,0,1.557
		c-4.15,0-8.301,0-12.451,0C84.713,47.482,84.713,47.223,84.713,46.965z"/>
	<path fill-rule="evenodd" clip-rule="evenodd" fill="#919890" d="M79.266,60.973c1.306-4.92,3.485-8.967,5.447-13.229
		c4.15,0,8.301,0,12.451,0c0.519,0,1.038,0,1.557,0c0.26,0,0.519,0,0.778,0c1.051,5.174,3.51,8.941,5.447,13.229
		C96.386,60.973,87.825,60.973,79.266,60.973z"/>
	<path fill-rule="evenodd" clip-rule="evenodd" fill="#C46936" d="M78.487,65.642c8.82,0,17.639,0,26.459,0c0,1.814,0,3.631,0,5.447
		c-2.335,0-4.669,0-7.004,0c0-1.556,0-3.112,0-4.669c-2.812-0.737-1.085,3.064-1.557,4.669c-1.296,0-2.595,0-3.891,0
		c-0.448-1.368,0.94-4.571-0.778-4.669c-1.719,0.098-0.331,3.301-0.778,4.669c-1.297,0-2.595,0-3.892,0
		c-0.447-1.368,0.941-4.571-0.777-4.669c-1.72,0.098-0.331,3.301-0.778,4.669c-2.075,0-4.151,0-6.226,0
		c0.126-0.904-0.172-1.385-0.778-1.556C78.487,68.234,78.487,66.938,78.487,65.642z"/>
	<path fill-rule="evenodd" clip-rule="evenodd" fill="#B98339" d="M83.935,74.202c6.686,1.361,23.368-3.144,22.568,3.112
		c0.33-1.497-0.534-2.809-0.778-1.556c-0.26,0-0.519,0-0.778,0c0.131-1.689-2.76-0.353-3.891-0.778
		c-2.621,0.492-7.229-1.004-8.561,0.778c-0.26,0-0.519,0-0.778,0C90.878,73.484,84.773,76.476,83.935,74.202z"/>
	<path fill-rule="evenodd" clip-rule="evenodd" fill="#B98339" d="M76.931,74.98c1.327-2.446,5.46,0.872,6.226-0.778
		c0.164,1.33-1.327,2.016,0,2.335c0,0.518,0,1.036,0,1.556c-2.248,0.346,0.691,5.88-1.557,6.226
		c-0.497-2.875,1.008-7.753-0.778-9.338c-1.806,4.16-0.267,11.665-0.778,17.12c-0.518,0-1.038,0-1.556,0
		c-0.511-5.196,1.027-12.44-0.778-16.341C77.852,75.096,77.404,75.024,76.931,74.98z"/>
	<path fill-rule="evenodd" clip-rule="evenodd" fill="#92704C" d="M83.156,76.537c-1.327-0.319,0.164-1.005,0-2.335
		c0.26,0,0.519,0,0.778,0c0.839,2.273,6.943-0.718,7.782,1.557c-1.297,0-2.595,0-3.892,0C86.458,76.205,83.254,74.817,83.156,76.537
		z"/>
	<path fill-rule="evenodd" clip-rule="evenodd" fill="#92704C" d="M92.495,75.759c1.331-1.782,5.939-0.286,8.561-0.778
		c0.994,1.383,1.498,7.261,0,8.561c0.099-1.397-0.953-1.642-0.778-3.113c0.653-0.904,1.025-2.087,0.778-3.891
		c-0.336-1.741-3.835-0.316-5.448-0.778C94.569,75.759,93.533,75.759,92.495,75.759z"/>
	<path fill-rule="evenodd" clip-rule="evenodd" fill="#934B23" d="M101.056,83.541c1.498-1.3,0.994-7.178,0-8.561
		c1.131,0.426,4.021-0.911,3.891,0.778c0,5.188,0,10.375,0,15.564c-1.804-3.643-0.269-10.627-0.778-15.564
		c-3.974,1.484,0.345,15.373-2.335,15.564C101.987,88.316,101.861,85.588,101.056,83.541z"/>
	<path fill-rule="evenodd" clip-rule="evenodd" fill="#EAB886" d="M87.825,75.759c1.297,0,2.595,0,3.892,0c0.26,0,0.519,0,0.778,0
		c1.038,0,2.074,0,3.112,0c1.239,1.874,3.647,2.577,4.67,4.669c-0.175,1.472,0.877,1.716,0.778,3.113
		c0.806,2.047,0.932,4.775,0.777,7.782c-0.757,0.021-0.603,0.953-0.777,1.557c-1.688,0.131-0.353-2.76-0.778-3.891
		c-1.854,1.257-3.431,2.795-5.448,3.891c-1.556,0-3.112,0-4.669,0c-3.923-0.746-5.511-3.829-7.004-7.004c0-1.038,0-2.076,0-3.112
		C83.713,79.428,86.513,78.336,87.825,75.759z M88.604,86.653c1.819,0.256,3.215,0.935,4.67,1.557
		c0.175-1.472-0.877-1.718-0.778-3.113C90.563,84.979,89.265,85.498,88.604,86.653z M94.829,86.653
		c1.106-2.393,0.35-3.5-0.777-5.447c-2.998,1.002-5.157-1.19-5.448,3.112C92.842,83.659,93.663,82.876,94.829,86.653z
		 M95.607,90.545c0.986-0.644,4.438-2.728,2.335-3.892c0.819,3.655-2.625-1.279-3.113,1.557
		C98.361,88.211,93.484,92.45,95.607,90.545z"/>
	<path fill-rule="evenodd" clip-rule="evenodd" fill="#EAD3B9" d="M94.829,88.21c0.488-2.836,3.933,2.099,3.113-1.557
		c2.103,1.164-1.349,3.248-2.335,3.892C93.484,92.45,98.361,88.211,94.829,88.21z"/>
	<path fill-rule="evenodd" clip-rule="evenodd" fill="#1F0B05" d="M95.607,95.993c0,1.557,0,3.111,0,4.668
		c-2.907-0.068-2.217-0.871-4.669,0c0-1.297,0-2.594,0-3.891C93.316,97.333,93.774,95.973,95.607,95.993z"/>
	<path fill-rule="evenodd" clip-rule="evenodd" fill="#1F0B05" d="M80.043,95.993c1.753-0.367,2.4,4.223,0.778,4.668
		C77.957,101.377,79.406,96.555,80.043,95.993z"/>
	<path fill-rule="evenodd" clip-rule="evenodd" fill="#1F0B05" d="M88.604,95.993c2.341,0.033,2.261,5.523-0.778,4.668
		C87.723,98.743,87.708,96.911,88.604,95.993z"/>
	<path fill-rule="evenodd" clip-rule="evenodd" fill="#6D3720" d="M101.056,100.661c0-1.037,0-2.076,0-3.111
		c1.12,0.414,1.898-3.033,2.334-0.779c-1.687-0.133-0.353,2.76-0.778,3.891C102.094,100.661,101.573,100.661,101.056,100.661z"/>
	<path fill-rule="evenodd" clip-rule="evenodd" fill="#92704C" d="M80.821,105.331c1.761-0.316-0.41-4.561,3.113-3.113
		c0,0.26,0,0.52,0,0.779c-1.324-0.287-1.469,0.605-1.557,1.557c0,1.035,0,2.074,0,3.111c-0.519,21.012,1.037,44.1-0.778,63.814
		c-0.518-21.271,1.037-44.617-0.778-64.592C80.821,106.368,80.821,105.848,80.821,105.331z"/>
	<path fill-rule="evenodd" clip-rule="evenodd" fill="#B98339" d="M87.047,102.997c0.177-0.992,2.323-1.021,2.335,0
		c-1.814,21.789-0.26,46.951-0.778,70.039c-1.022,0.998-2.868,0.998-3.891,0c-0.519-23.088,1.036-48.25-0.778-70.039
		c0-0.26,0-0.52,0-0.779c0.631,0.148,0.775,0.779,1.557,0.779c0.518,23.086-1.037,48.248,0.778,70.039
		C89.332,153.479,87.838,122.85,87.047,102.997z"/>
	<path fill-rule="evenodd" clip-rule="evenodd" fill="#92704C" d="M98.721,102.217c0.904-0.125,1.385,0.172,1.557,0.779
		c-0.662-0.143-0.734,0.303-0.778,0.777c0,1.557,0,3.113,0,4.67c0.519,21.271-1.037,44.617,0.778,64.592c0,0.258,0,0.518,0,0.777
		c-1.038,0-2.075,0-3.113,0c0-0.26,0-0.52,0-0.777c0.26,0,0.519,0,0.778,0C99.757,150.985,98.202,125.565,98.721,102.217z"/>
	<path fill-rule="evenodd" clip-rule="evenodd" fill="#B98339" d="M101.833,103.774c0.261,0,0.519,0,0.778,0
		c1.021,21.996-2.043,48.676,1.557,69.262c-1.167,1.668-1.902-0.559-3.891,0.777c0-0.26,0-0.52,0-0.777c0.26,0,0.518,0,0.778,0
		C102.87,151.504,101.315,126.602,101.833,103.774z"/>
	<path fill-rule="evenodd" clip-rule="evenodd" fill="#934B23" d="M78.487,104.553c-0.126-0.904,0.172-1.385,0.778-1.557
		c1.66-0.365,1.481,1.111,1.556,2.334c0,0.518,0,1.037,0,1.557c-0.518,21.789,1.037,45.654-0.778,66.148c-0.518,0-1.038,0-1.556,0
		C78.487,150.208,78.487,127.379,78.487,104.553z M80.043,110c-0.178-4.076-0.331-7.654-0.777-2.336
		c-1.466,17.451,0.524,49.527,0.777,64.592c0-11.414,0-22.828,0-34.24c0-5.707,0-11.416,0-17.121
		C80.025,116.829,80.069,110.583,80.043,110z"/>
	<path fill-rule="evenodd" clip-rule="evenodd" fill="#934B23" d="M82.378,107.665c1.303,19.723,1.289,44.867,0,64.592
		c3.589-19.291,0.552-45.41,1.557-67.703c-0.345-1.131-0.684,0.078-1.557,0c0.088-0.951,0.232-1.844,1.557-1.557
		c1.814,21.789,0.26,46.951,0.778,70.039c-1.038,0-2.075,0-3.113,0c0-0.52,0-1.039,0-1.557
		C83.415,151.764,81.859,128.676,82.378,107.665z"/>
	<path fill-rule="evenodd" clip-rule="evenodd" fill="#934B23" d="M85.491,102.997c0.518,0,1.038,0,1.556,0
		c0.791,19.854,2.285,50.482-0.777,70.039C84.454,151.245,86.009,126.083,85.491,102.997z M87.047,110
		c-0.178-4.076-0.331-7.654-0.777-2.336c-1.466,17.451,0.524,49.527,0.777,64.592c0-11.414,0-22.828,0-34.24
		c0-5.707,0-11.416,0-17.121C87.029,116.829,87.073,110.583,87.047,110z"/>
	<path fill-rule="evenodd" clip-rule="evenodd" fill="#92704C" d="M90.938,103.774c0-0.26,0-0.52,0-0.777
		c0.193-0.979,1.547-0.787,1.557,0c-0.501,1.709-1.024,2.584,0,4.668c-1.297,19.977-1.297,45.396,0,65.371c0.26,0,0.519,0,0.778,0
		c0,0.258,0,0.518,0,0.777c-1.233-0.064-2.969,0.375-3.113-0.777c0.662,0.143,0.734-0.305,0.778-0.779c0-0.26,0-0.52,0-0.777
		c0-21.271,0-42.543,0-63.814C90.938,106.368,90.938,105.071,90.938,103.774z"/>
	<path fill-rule="evenodd" clip-rule="evenodd" fill="#934B23" d="M92.495,102.997c3.962,1.029,1.484,1.029,5.447,0
		c0,23.346,0,46.691,0,70.039c-0.26,0-0.519,0-0.778,0c-3.585-17.969-0.553-42.83-1.557-63.814
		c-2.845,19.203,1.806,45.904-2.334,63.814c-0.26,0-0.519,0-0.778,0c0-21.791,0-43.58,0-65.371
		C91.471,105.581,91.994,104.706,92.495,102.997z M94.052,110c-0.179-4.076-0.332-7.654-0.778-2.336
		c-1.466,17.451,0.524,49.527,0.778,64.592c0-11.414,0-22.828,0-34.24c0-5.707,0-11.416,0-17.121
		C94.033,116.829,94.077,110.583,94.052,110z M97.164,171.479c-0.512-21.537,1.029-49.279-0.778-66.926
		C96.898,126.09,95.357,153.829,97.164,171.479z"/>
	<path fill-rule="evenodd" clip-rule="evenodd" fill="#B98339" d="M93.273,173.036c4.14-17.91-0.511-44.611,2.334-63.814
		c1.004,20.984-2.028,45.846,1.557,63.814c0,0.258,0,0.518,0,0.777c-2.396-0.545-1.495-0.545-3.891,0
		C93.273,173.553,93.273,173.293,93.273,173.036z"/>
	<path fill-rule="evenodd" clip-rule="evenodd" fill="#934B23" d="M102.611,103.774c0.127-0.912,1.419-0.656,2.335-0.777
		c0,22.826,0,45.654,0,68.482c0.126,0.904-0.172,1.385-0.778,1.557C100.568,152.45,103.632,125.77,102.611,103.774z
		 M104.168,103.774c-1.813,9.6-0.262,22.566-0.778,33.463c0,5.707,0,11.414,0,17.121c0,5.967,0,11.932,0,17.898
		C105.205,150.985,103.649,126.342,104.168,103.774z"/>
	<path fill-rule="evenodd" clip-rule="evenodd" fill="#B98339" d="M80.821,106.887c1.815,19.975,0.261,43.32,0.778,64.592
		c0,0.518,0,1.037,0,1.557c-0.477,0.227-2.995,1.934-3.112,0c0.518,0,1.038,0,1.556,0C81.858,152.542,80.304,128.676,80.821,106.887
		z"/>
	<path fill-rule="evenodd" clip-rule="evenodd" fill="#B98339" d="M93.273,10.388c0,0.519,0,1.038,0,1.557
		c-1.546,1.296-0.99-0.07-3.113,0c0-0.519,0-1.038,0-1.557C92.283,10.458,91.728,9.092,93.273,10.388z"/>
	<path fill-rule="evenodd" clip-rule="evenodd" fill="#EAB886" d="M98.721,39.961c1.286,0.591,1.286,6.412,0,7.004
		C98.034,44.616,97.995,41.136,98.721,39.961z"/>
	<path fill-rule="evenodd" clip-rule="evenodd" fill="#541407" d="M94.829,42.295c1.04,4.729-2.596,4.729-1.556,0
		C93.791,42.295,94.312,42.295,94.829,42.295z"/>
	<path fill-rule="evenodd" clip-rule="evenodd" fill="#EAB654" d="M98.721,46.965c0,0.258,0,0.518,0,0.778c-0.519,0-1.038,0-1.557,0
		c0-0.521,0-1.039,0-1.557c-0.471-1.605,1.256-5.406-1.557-4.67c0,0.259,0,0.519,0,0.778c-0.26,0-0.518,0-0.778,0
		c-0.518,0-1.038,0-1.556,0c-0.26,0-0.519,0-0.778,0c-0.193-0.979-1.548-0.785-1.557,0c-2.023-1.413-2.347,0.336-4.669-0.778
		c-0.567,1.769,1.401,6.071-1.557,5.448c0-3.113,0-6.227,0-9.339c4.669,0,9.339,0,14.008,0c0,0.778,0,1.557,0,2.335
		C97.995,41.136,98.034,44.616,98.721,46.965z"/>
	<path fill-rule="evenodd" clip-rule="evenodd" fill="#EAB654" d="M104.946,65.642c-8.82,0-17.639,0-26.459,0
		c0-1.298,0-2.595,0-3.891c8.82,0,17.639,0,26.459,0C104.946,63.047,104.946,64.344,104.946,65.642z"/>
	<path fill-rule="evenodd" clip-rule="evenodd" fill="#1F0B05" d="M96.386,71.089c0.472-1.604-1.255-5.406,1.557-4.669
		c0,1.557,0,3.113,0,4.669C97.424,71.089,96.904,71.089,96.386,71.089z"/>
	<path fill-rule="evenodd" clip-rule="evenodd" fill="#1F0B05" d="M85.491,71.089c0.447-1.368-0.941-4.571,0.778-4.669
		c1.719,0.098,0.33,3.301,0.777,4.669C86.529,71.089,86.009,71.089,85.491,71.089z"/>
	<path fill-rule="evenodd" clip-rule="evenodd" fill="#1F0B05" d="M90.938,71.089c0.447-1.368-0.94-4.571,0.778-4.669
		c1.719,0.098,0.33,3.301,0.778,4.669C91.977,71.089,91.457,71.089,90.938,71.089z"/>
	<path fill-rule="evenodd" clip-rule="evenodd" fill="#D9A762" d="M78.487,69.533c0.606,0.171,0.904,0.651,0.778,1.556
		c2.074,0,4.15,0,6.226,0c0.518,0,1.038,0,1.556,0c1.297,0,2.595,0,3.892,0c0.519,0,1.038,0,1.557,0c1.296,0,2.595,0,3.891,0
		c0.519,0,1.038,0,1.557,0c2.335,0,4.669,0,7.004,0c0.437,1.758,1.215-0.943,2.335,0.778c-8.047,1.297-21.525,1.297-29.572,0
		C78.621,71.741,78.365,70.447,78.487,69.533z"/>
	<path fill-rule="evenodd" clip-rule="evenodd" fill="#C46936" d="M77.709,71.867c8.047,1.297,21.525,1.297,29.572,0
		c0.757,0.021,0.604,0.953,0.778,1.557c-10.636,0-21.272,0-31.907,0c0.147-0.631,0.781-0.776,0.778-1.557
		C77.19,71.867,77.449,71.867,77.709,71.867z"/>
	<path fill-rule="evenodd" clip-rule="evenodd" fill="#D9A762" d="M95.607,75.759c1.613,0.462,5.112-0.963,5.448,0.778
		c0.247,1.804-0.125,2.986-0.778,3.891C99.255,78.336,96.847,77.633,95.607,75.759z"/>
	<path fill-rule="evenodd" clip-rule="evenodd" fill="#EAD3B9" d="M88.604,84.318c0.291-4.303,2.45-2.11,5.448-3.112
		c1.127,1.947,1.884,3.055,0.777,5.447C93.663,82.876,92.842,83.659,88.604,84.318z"/>
	<path fill-rule="evenodd" clip-rule="evenodd" fill="#92704C" d="M83.156,91.323c-3.155,0.301-0.857-4.85-1.557-7.004
		c2.248-0.346-0.691-5.88,1.557-6.226c0,1.557,0,3.113,0,4.67c0,1.036,0,2.074,0,3.112C83.156,87.69,83.156,89.507,83.156,91.323z"
		/>
	<path fill-rule="evenodd" clip-rule="evenodd" fill="#6D3720" d="M81.6,84.318c0.699,2.154-1.599,7.305,1.557,7.004
		c0.997,2.146-2.268,3.807-2.335,2.334c0-6.225,0-12.451,0-18.676C82.607,76.565,81.103,81.443,81.6,84.318z"/>
	<path fill-rule="evenodd" clip-rule="evenodd" fill="#EAB886" d="M80.821,93.657c-0.757-0.021-0.604-0.953-0.778-1.557
		c0.512-5.455-1.027-12.959,0.778-17.12C80.821,81.206,80.821,87.432,80.821,93.657z"/>
	<path fill-rule="evenodd" clip-rule="evenodd" fill="#D9A762" d="M75.374,78.093c0.642-1.953-1.513-6.701,1.557-6.226
		c0.003,0.78-0.631,0.926-0.778,1.557c10.635,0,21.271,0,31.907,0c0,0.259,0,0.519,0,0.778c0,5.706,0,11.413,0,17.121
		c-0.501,3.131,1.012,8.275-0.778,10.117c-1.815,22.828-0.26,49.025-0.778,73.152c-9.857,0-19.716,0-29.572,0
		c0-23.867,0-47.732,0-71.596c-2.382-2.289-1.38-7.961-1.557-12.451C75.374,86.394,75.374,82.242,75.374,78.093z M80.821,100.661
		c1.622-0.445,0.975-5.035-0.778-4.668C79.406,96.555,77.957,101.377,80.821,100.661z M105.725,92.879
		c-0.318,2.805,1.421,1.064,0.778-0.779c1.293-2.875,1.293-11.131,0-14.007c0-0.26,0-0.52,0-0.778
		c0.8-6.256-15.883-1.751-22.568-3.112c-0.26,0-0.519,0-0.778,0c-0.766,1.65-4.898-1.668-6.226,0.778
		c0.512,5.972-1.029,13.998,0.778,18.676c0.606-0.172,0.904-0.652,0.778-1.557c0.518,0,1.038,0,1.556,0
		c0.175,0.604,0.021,1.535,0.778,1.557c0.067,1.473,3.332-0.188,2.335-2.334c0-1.816,0-3.632,0-5.448
		c1.493,3.176,3.081,6.258,7.004,7.004c-1.115,2.428,5.785,2.428,4.669,0c2.018-1.096,3.594-2.634,5.448-3.891
		c0.426,1.131-0.909,4.022,0.778,3.891c0.175-0.604,0.021-1.535,0.777-1.557c2.68-0.191-1.639-14.08,2.335-15.564
		c0.51,4.937-1.025,11.921,0.778,15.564C105.121,91.926,104.968,92.858,105.725,92.879z M85.491,96.77c-0.519,0-1.038,0-1.557,0
		c-2.392-1.191-2.392,5.082,0,3.891c0.519,0,1.038,0,1.557,0C87.883,101.852,87.883,95.579,85.491,96.77z M87.825,100.661
		c3.039,0.855,3.119-4.635,0.778-4.668C87.708,96.911,87.723,98.743,87.825,100.661z M76.931,96.77
		C75.479,103.918,81.438,97.959,76.931,96.77L76.931,96.77z M90.938,96.77c0,1.297,0,2.594,0,3.891c2.452-0.871,1.762-0.068,4.669,0
		c0-1.557,0-3.111,0-4.668C93.774,95.973,93.316,97.333,90.938,96.77z M97.164,95.993c-0.896,0.918-0.881,2.75-0.778,4.668
		C100.012,102.104,99.198,95.719,97.164,95.993z M105.725,95.993c-0.896,0.918-0.881,2.75-0.778,4.668
		C108.572,102.104,107.758,95.719,105.725,95.993z M103.39,96.77c-0.436-2.254-1.214,1.193-2.334,0.779
		c-1.316-3.537-3.151,4.469,0,3.111c0.518,0,1.038,0,1.556,0c0.519,0,1.038,0,1.557,0c0-1.297,0-2.594,0-3.891
		C103.908,96.77,103.649,96.77,103.39,96.77z M100.277,102.997c-0.172-0.607-0.652-0.904-1.557-0.779
		c-0.475,0.045-0.921,0.115-0.778,0.779c-3.963,1.029-1.485,1.029-5.447,0c-0.01-0.787-1.363-0.979-1.557,0
		c-0.519,0-1.038,0-1.557,0c-0.012-1.021-2.158-0.992-2.335,0c-0.518,0-1.038,0-1.556,0c-0.781,0-0.926-0.631-1.557-0.779
		c-3.523-1.447-1.353,2.797-3.113,3.113c-0.074-1.223,0.104-2.699-1.556-2.334c-0.606,0.172-0.904,0.652-0.778,1.557
		c-1.297,21.012-1.297,47.469,0,68.482c0.117,1.934,2.636,0.227,3.112,0c1.038,0,2.075,0,3.113,0c1.022,0.998,2.868,0.998,3.891,0
		c0.519,0,1.038,0,1.557,0c0.145,1.152,1.88,0.713,3.113,0.777c2.396-0.545,1.495-0.545,3.891,0c1.038,0,2.075,0,3.113,0
		c1.988-1.336,2.724,0.891,3.891-0.777c0.606-0.172,0.904-0.652,0.778-1.557c1.297-21.014,1.297-47.471,0-68.482
		c-0.916,0.121-2.208-0.135-2.335,0.777c-0.26,0-0.518,0-0.778,0C101.662,103.168,101.182,102.87,100.277,102.997z"/>
	<path fill-rule="evenodd" clip-rule="evenodd" fill="#1F0B05" d="M96.386,100.661c-0.103-1.918-0.117-3.75,0.778-4.668
		C99.198,95.719,100.012,102.104,96.386,100.661z"/>
	<path fill-rule="evenodd" clip-rule="evenodd" fill="#1F0B05" d="M104.946,100.661c-0.103-1.918-0.118-3.75,0.778-4.668
		C107.758,95.719,108.572,102.104,104.946,100.661z"/>
	<path fill-rule="evenodd" clip-rule="evenodd" fill="#1F0B05" d="M76.931,96.77C81.438,97.959,75.479,103.918,76.931,96.77
		L76.931,96.77z"/>
	<path fill-rule="evenodd" clip-rule="evenodd" fill="#1F0B05" d="M83.935,100.661c-2.392,1.191-2.392-5.082,0-3.891
		C83.935,98.067,83.935,99.364,83.935,100.661z"/>
	<path fill-rule="evenodd" clip-rule="evenodd" fill="#6D3720" d="M85.491,96.77c0,1.297,0,2.594,0,3.891c-0.519,0-1.038,0-1.557,0
		c0-1.297,0-2.594,0-3.891C84.453,96.77,84.973,96.77,85.491,96.77z"/>
	<path fill-rule="evenodd" clip-rule="evenodd" fill="#1F0B05" d="M85.491,100.661c0-1.297,0-2.594,0-3.891
		C87.883,95.579,87.883,101.852,85.491,100.661z"/>
	<path fill-rule="evenodd" clip-rule="evenodd" fill="#1F0B05" d="M101.056,100.661c-3.151,1.357-1.316-6.648,0-3.111
		C101.056,98.584,101.056,99.624,101.056,100.661z"/>
	<path fill-rule="evenodd" clip-rule="evenodd" fill="#1F0B05" d="M103.39,96.77c0.26,0,0.519,0,0.778,0c0,1.297,0,2.594,0,3.891
		c-0.519,0-1.038,0-1.557,0C103.037,99.53,101.703,96.637,103.39,96.77z"/>
	<path fill-rule="evenodd" clip-rule="evenodd" fill="#C46936" d="M82.378,107.665c0-1.037,0-2.076,0-3.111
		c0.873,0.078,1.212-1.131,1.557,0c-1.005,22.293,2.032,48.412-1.557,67.703C83.667,152.532,83.681,127.387,82.378,107.665z"/>
	<path fill-rule="evenodd" clip-rule="evenodd" fill="#C46936" d="M90.938,103.774c0,1.297,0,2.594,0,3.891
		c-1.297,19.457-1.297,44.357,0,63.814c0,0.258,0,0.518,0,0.777c-1.312-0.035-1.371-0.301-1.557-1.557
		C86.492,151.211,90.313,122.139,90.938,103.774z"/>
	<path fill-rule="evenodd" clip-rule="evenodd" fill="#C46936" d="M99.499,108.444c0-1.557,0-3.113,0-4.67
		c0.604,0.176,1.535,0.021,1.557,0.779c-0.519,22.307,1.036,46.691-0.778,67.703C99.759,151.245,101.313,128.159,99.499,108.444z"/>
	<path fill-rule="evenodd" clip-rule="evenodd" fill="#C46936" d="M103.39,172.256c0-5.967,0-11.932,0-17.898
		c0-5.707,0-11.414,0-17.121c0.517-10.896-1.035-23.863,0.778-33.463C103.649,126.342,105.205,150.985,103.39,172.256z"/>
	<path fill-rule="evenodd" clip-rule="evenodd" fill="#B98339" d="M98.721,102.217c-0.519,23.348,1.036,48.768-0.778,70.818
		c0-23.348,0-46.693,0-70.039C97.8,102.333,98.246,102.262,98.721,102.217z"/>
	<path fill-rule="evenodd" clip-rule="evenodd" fill="#919890" d="M84.713,36.848c3.549-6.31,5.594-14.122,7.004-22.568
		c1.501,8.356,3.493,16.221,7.004,22.568C94.052,36.848,89.382,36.848,84.713,36.848z"/>
	<path fill-rule="evenodd" clip-rule="evenodd" fill="#D9A762" d="M79.266,60.973c8.56,0,17.12,0,25.681,0c0,0.258,0,0.518,0,0.778
		c-8.82,0-17.639,0-26.459,0C78.344,61.088,78.791,61.017,79.266,60.973z"/>
	<path fill-rule="evenodd" clip-rule="evenodd" fill="#934B23" d="M77.709,75.759c0,5.966,0,11.932,0,17.898
		c-1.808-4.678-0.267-12.705-0.778-18.676C77.404,75.024,77.852,75.096,77.709,75.759z"/>
	<path fill-rule="evenodd" clip-rule="evenodd" fill="#934B23" d="M105.725,75.759c0.244-1.253,1.108,0.059,0.778,1.556
		c0,0.259,0,0.519,0,0.778c0,4.67,0,9.339,0,14.007c0.643,1.844-1.097,3.584-0.778,0.779
		C105.725,87.172,105.725,81.464,105.725,75.759z"/>
	<path fill-rule="evenodd" clip-rule="evenodd" fill="#EAB886" d="M77.709,75.759c1.806,3.901,0.268,11.146,0.778,16.341
		c0.126,0.904-0.172,1.385-0.778,1.557C77.709,87.69,77.709,81.725,77.709,75.759z"/>
</g>
</svg>
