<?xml version="1.0" encoding="utf-8"?>
<!-- Generator: Adobe Illustrator 14.0.0, SVG Export Plug-In . SVG Version: 6.00 Build 43363)  -->
<!DOCTYPE svg PUBLIC "-//W3C//DTD SVG 1.1//EN" "http://www.w3.org/Graphics/SVG/1.1/DTD/svg11.dtd">
<svg version="1.1" id="Layer_1" xmlns="http://www.w3.org/2000/svg" xmlns:xlink="http://www.w3.org/1999/xlink" x="0px" y="0px"
	 width="200px" height="200px" viewBox="0 0 200 200" enable-background="new 0 0 200 200" xml:space="preserve">
<g>
	<path fill-rule="evenodd" clip-rule="evenodd" fill="#64584D" d="M199.445,65.18c-1.838-0.317-4.953,0.644-5.966-0.497
		C195.316,65,198.432,64.039,199.445,65.18z"/>
	<path fill-rule="evenodd" clip-rule="evenodd" fill="#3CBDA9" d="M17.987,65.677c0.367,0.792,2.434-0.114,1.989,1.491
		c-1.542-0.169-2.375,1.151-3.48,0C16.299,65.977,18.76,67.444,17.987,65.677z"/>
	<path fill-rule="evenodd" clip-rule="evenodd" fill="#3CBDA9" d="M39.861,73.631c-0.061,1.492-2.821,1.595-3.479,0.994
		c-0.197-1.191,2.264,0.276,1.491-1.492C38.316,73.521,38.996,73.669,39.861,73.631z"/>
	<path fill-rule="evenodd" clip-rule="evenodd" fill="#117491" d="M33.896,73.631c0.498,0,0.995,0,1.492,0
		c-0.101,1.319-4.219,0.536-2.983,2.485c-0.42,1.171-2.181-0.413-2.982-0.497c0.452-1.36,1.742,0.882,2.486-0.498
		c-0.11-0.387-0.417-0.578-0.995-0.497C31.122,73.509,33.551,74.612,33.896,73.631z"/>
	<path fill-rule="evenodd" clip-rule="evenodd" fill="#117491" d="M9.039,77.608c2.903-0.416-0.394,1.455-0.995,1.989
		c0-0.166,0-0.332,0-0.498C9.198,78.372,7.073,77.524,9.039,77.608z"/>
	<path fill-rule="evenodd" clip-rule="evenodd" fill="#117491" d="M114.931,80.094c0.662,0,1.326,0,1.988,0
		C117.499,81.82,114.142,82.406,114.931,80.094z"/>
	<path fill-rule="evenodd" clip-rule="evenodd" fill="#117491" d="M56.765,85.563c-3.157,1.648-8.632,0.979-12.429,1.988
		c-0.331,0-0.662,0-0.994,0c-0.498,0-0.994,0-1.492,0c0-0.166,0-0.331,0-0.497C46.628,86.363,51.15,85.417,56.765,85.563z"/>
	<path fill-rule="evenodd" clip-rule="evenodd" fill="#AA9C87" d="M32.404,87.551c1.989,0,3.978,0,5.966,0
		C37.513,88.375,33.262,88.375,32.404,87.551z"/>
	<path fill-rule="evenodd" clip-rule="evenodd" fill="#AA9C87" d="M43.342,87.551c0.332,0,0.663,0,0.994,0
		c-0.081,1.408,3.065-0.413,2.983,0.994c-1.326,0-2.651,0-3.977,0c-0.166,0-0.332,0-0.498,0
		C42.843,88.047,43.247,87.954,43.342,87.551z"/>
	<path fill-rule="evenodd" clip-rule="evenodd" fill="#AA9C87" d="M60.244,88.545c0.857-0.824,5.108-0.824,5.966,0
		C64.222,88.545,62.233,88.545,60.244,88.545z"/>
	<path fill-rule="evenodd" clip-rule="evenodd" fill="#D4CDBB" d="M42.844,88.545c0.166,0,0.332,0,0.498,0
		c0,5.303,0,10.606,0,15.909c-0.166,0-0.332,0-0.498,0C42.844,99.151,42.844,93.849,42.844,88.545z"/>
	<path fill-rule="evenodd" clip-rule="evenodd" fill="#D4CDBB" d="M50.301,88.545c0.167,0,0.332,0,0.498,0
		c-0.319,2.001,0.646,5.287-0.498,6.463C50.301,92.854,50.301,90.7,50.301,88.545z"/>
	<path fill-rule="evenodd" clip-rule="evenodd" fill="#AA9C87" d="M75.656,89.043c0-0.166,0-0.332,0-0.498
		c2.595,3.371-0.276,12.207,1.491,16.406c-0.332,0-0.663,0-0.995,0c0-0.497,0-0.994,0-1.491c0-0.165,0-0.331,0-0.497
		c0-4.143,0-8.286,0-12.429C76.075,89.949,76.238,89.123,75.656,89.043z"/>
	<path fill-rule="evenodd" clip-rule="evenodd" fill="#AA9C87" d="M88.084,89.043c0-0.166,0-0.332,0-0.498
		c1.156,3.98,0.168,10.106,0.498,14.915c0,0.497,0,0.994,0,1.491c-0.166,0-0.331,0-0.498,0c0-1.16,0-2.32,0-3.48
		C88.084,97.329,88.084,93.186,88.084,89.043z"/>
	<path fill-rule="evenodd" clip-rule="evenodd" fill="#FFFFFF" d="M88.084,101.471c-1.6-0.108-2.104,0.88-3.977,0.498
		c0-4.309,0-8.617,0-12.926c1.326,0,2.651,0,3.977,0C88.084,93.186,88.084,97.329,88.084,101.471z"/>
	<path fill-rule="evenodd" clip-rule="evenodd" fill="#AA9C87" d="M168.622,89.54c1.155,3.318,0.169,8.779,0.497,12.925
		c-0.085,0.744,0.178,1.836-0.497,1.989C168.622,99.482,168.622,94.511,168.622,89.54z"/>
	<path fill-rule="evenodd" clip-rule="evenodd" fill="#ECEBE9" d="M76.153,90.534c0,4.143,0,8.286,0,12.429
		C75.325,99.972,75.325,93.525,76.153,90.534z"/>
	<path fill-rule="evenodd" clip-rule="evenodd" fill="#AA9C87" d="M155.696,92.025c0.542,2.375,1.428,9.375-0.497,10.938
		C155.396,99.348,154.726,94.866,155.696,92.025z"/>
	<path fill-rule="evenodd" clip-rule="evenodd" fill="#AA9C87" d="M69.193,92.522c1.156,3.319,0.169,8.78,0.497,12.926
		c-0.112,0.386-0.014,0.981-0.497,0.995C69.193,101.803,69.193,97.163,69.193,92.522z"/>
	<path fill-rule="evenodd" clip-rule="evenodd" fill="#A7775E" d="M62.233,102.963c0.326-3.154-0.655-7.616,0.498-9.943
		c0.866-0.038,1.546,0.111,1.988,0.497c0,2.983,0,5.966,0,8.948c0,0.166,0,0.332,0,0.498s0,0.332,0,0.497
		C63.314,103.871,63.431,102.76,62.233,102.963z"/>
	<path fill-rule="evenodd" clip-rule="evenodd" fill="#ECEBE9" d="M64.719,93.517c0-0.165,0-0.331,0-0.497
		c0.827,2.001,0.827,7.444,0,9.445C64.719,99.482,64.719,96.5,64.719,93.517z"/>
	<path fill-rule="evenodd" clip-rule="evenodd" fill="#AA9C87" d="M140.781,93.517c1.837,1.147-0.153,4.053,0.498,6.96
		C140.246,100.99,141.021,95.449,140.781,93.517z"/>
	<path fill-rule="evenodd" clip-rule="evenodd" fill="#A7775E" d="M47.816,104.454c0-0.994,0-1.989,0-2.983
		c2.009-0.352,2.837,0.477,2.485,2.486C49.104,103.754,49.221,104.865,47.816,104.454z"/>
	<path fill-rule="evenodd" clip-rule="evenodd" fill="#87614C" d="M147.245,101.969c0.577,0.416,1.332,0.656,2.485,0.496
		c0,0.664,0,1.326,0,1.989c-0.828,0-1.656,0-2.485,0C147.245,103.625,147.245,102.797,147.245,101.969z"/>
	<path fill-rule="evenodd" clip-rule="evenodd" fill="#AA9C87" d="M42.844,104.454c0.166,0,0.332,0,0.498,0c0,1.657,0,3.314,0,4.972
		c-1.122-0.371-0.194-2.789-0.498-3.978C42.844,105.117,42.844,104.786,42.844,104.454z"/>
	<path fill-rule="evenodd" clip-rule="evenodd" fill="#D4CDBB" d="M76.153,104.951c0.332,0,0.663,0,0.995,0
		c1.511,0.313,4.282-0.637,4.971,0.497C80.282,105.131,77.167,106.092,76.153,104.951z"/>
	<path fill-rule="evenodd" clip-rule="evenodd" fill="#D4CDBB" d="M88.084,104.951c0.167,0,0.332,0,0.498,0c1.823,0,3.646,0,5.468,0
		c0,0.166,0,0.332,0,0.497C92.213,105.131,89.098,106.092,88.084,104.951z"/>
	<path fill-rule="evenodd" clip-rule="evenodd" fill="#AA9C87" d="M156.69,107.438c2.983,0,5.966,0,8.949,0
		C163.803,108.264,158.528,108.264,156.69,107.438z"/>
	<path fill-rule="evenodd" clip-rule="evenodd" fill="#D4CDBB" d="M82.119,109.426c-2.33,0.826-8.109,0.826-10.439,0
		C75.159,109.426,78.639,109.426,82.119,109.426z"/>
	<path fill-rule="evenodd" clip-rule="evenodd" fill="#D4CDBB" d="M93.553,109.923c-3.154-0.325-7.615,0.655-9.942-0.497
		c3.48,0,6.959,0,10.439,0C94.022,109.729,93.976,110.014,93.553,109.923z"/>
	<path fill-rule="evenodd" clip-rule="evenodd" fill="#0077A2" d="M199.941,0c0.311,9.965-0.632,54.047,0.498,63.191
		c-6.442,2.705-14.586-1.46-21.377,0.995c-0.296-14.127-8.231-22.68-17.4-29.332c-8.257-2.84-20.272-3.44-28.338,0
		c-4.233,1.558-8.202,7.048-11.434,9.943c-0.345,0.309-1.597,0.136-1.491,0c-0.798,1.03-2.144,5.953-2.983,8.451
		c-3.341,9.944-2.668,23.517,2.983,29.829c-7.979,0.078-17.599,0.521-26.349-0.995c-1.307-0.227-2.679-1.387-3.977-1.491
		c-6.585-0.529-12.715,3.681-18.891,1.989c-2.897,2.737-10.125,1.144-13.92,2.983c-0.166,0-0.332,0-0.497,0
		c-5.614-0.146-10.137,0.8-14.915,1.491c-2.048,0.225-1.865-1.78-3.48-1.989c1.268-0.721,3.333-0.644,4.474-1.491
		c-0.98-0.551-2.321-1.24,0-1.492c-1.016-1.064-0.908-1.737-2.485-2.983c-2.053,0.289-1.124,1.238-2.486,1.492
		c1.084-1.029-1.479-3.729,1.492-3.48c-0.599-2.792-6.051-0.775-6.96-0.995c-1.236-1.949,2.882-1.167,2.983-2.485
		c-0.497,0-0.994,0-1.492,0c-0.62-1.899-2.037,0.083-3.479-0.994c-0.511-1.67,1.546-0.774,2.485-0.995
		c-0.689-1.398-2.568-1.604-3.977-0.994c1.651,1.491,0.283,0.552-1.491,0.497c-0.183,0.846,0.387,0.938,0.994,0.994
		c-0.938,0.605-2.007,0.057-3.977,0.498c0.422,0.737,1.251,1.068,2.485,0.994c-0.075,0.919-1.683,0.305-1.988,0.994
		c-2.178-0.362,0.401,0.988-0.994,0.995c-0.166,0-0.332,0-0.497,0c-1.719-1.913-0.782-4.553-5.469-3.978
		c0.299-0.425,2.976-1.28,0.497-1.491c0.135-1.025,2.202-0.119,1.989-1.491c-0.933,0.4-1.871-0.71-4.972-0.498
		c0.679,1.085-1.009,2.918-1.491,5.469c-0.803,0.14-0.856-0.47-1.492-0.498c-0.78,1.349-0.542,3.547-3.977,3.48
		c0.095,0.402,0.499,0.496,0.498,0.994c-1.966-0.084,0.159,0.764-0.995,1.491c-0.583,0.081-0.419,0.907-0.497,1.492
		c-1.04,0.21-1.316-0.341-1.989-0.497c-1.191,2.54-0.693,4.195-1.491,5.469c-1.356,0.362-1.001-0.988-1.989-0.995
		C2.051,67.566,0.039,15.381,0,0 M16.496,67.168c1.105,1.151,1.939-0.169,3.48,0c0.445-1.605-1.622-0.699-1.989-1.491
		C18.76,67.444,16.299,65.977,16.496,67.168z M37.873,73.134c0.773,1.768-1.688,0.3-1.491,1.492
		c0.659,0.601,3.418,0.498,3.479-0.994C38.996,73.669,38.316,73.521,37.873,73.134z M116.919,80.094c-0.662,0-1.326,0-1.988,0
		C114.142,82.406,117.499,81.82,116.919,80.094z"/>
	<path fill-rule="evenodd" clip-rule="evenodd" fill="#117491" d="M2.079,32.865c0.039,15.381-0.028,34.701,0,51.703
		c0.988,0.006,0.632,1.356,1.989,0.995c-0.095,0.402-0.499,0.495-0.498,0.994c-0.828,0-1.657,0-2.485,0c0-18.228,0-36.457,0-54.686"
		/>
	<path fill-rule="evenodd" clip-rule="evenodd" fill="#117491" d="M200.937,31.871c0,10.937,0,21.875,0,32.812
		c-0.636,0.027-0.688,0.637-1.491,0.497c-1.014-1.141-4.129-0.18-5.966-0.497c-6.09-0.465-11.857,0.711-15.411-0.497
		c-0.296-1.03,0.614-3.266-0.497-3.48c0-0.166,0-0.332,0-0.498c0.036-3.185-0.575-5.722-1.989-7.457
		c-0.539-3.271-3.339-4.285-3.977-7.457c-1.463-1.189-1.768-3.535-3.978-3.977c-3.32-3.971-8.695-5.888-14.417-7.457
		c-2.44-1.399-9.544-1.633-11.932,0c-20.284,2.288-31.625,27.538-20.88,47.229c0.211,0.948,1.42,0.9,0.994,2.486
		c-11.63,2.542-23.121-1.895-34.303-1.988c-9.843-0.083-19.366,5.062-29.829,3.977c3.796-1.839,11.023-0.246,13.92-2.983
		c6.176,1.692,12.306-2.518,18.891-1.989c1.298,0.104,2.67,1.265,3.977,1.491c8.75,1.516,18.37,1.072,26.349,0.995
		c-5.651-6.312-6.324-19.885-2.983-29.829c0.84-2.499,2.186-7.421,2.983-8.451c-0.105,0.136,1.146,0.309,1.491,0
		c3.231-2.895,7.2-8.385,11.434-9.943c8.065-3.44,20.081-2.84,28.338,0c9.169,6.652,17.104,15.204,17.4,29.332
		c6.791-2.455,14.935,1.71,21.377-0.995c-1.13-9.144-0.188-20.361-0.498-30.326"/>
	<path fill-rule="evenodd" clip-rule="evenodd" fill="#D4CDBB" d="M167.628,41.317c2.21,0.442,2.515,2.788,3.978,3.977
		C170.07,44.177,168.744,42.852,167.628,41.317z"/>
	<path fill-rule="evenodd" clip-rule="evenodd" fill="#A7775E" d="M178.068,64.186c3.554,1.208,9.321,0.032,15.411,0.497
		c1.013,1.141,4.128,0.18,5.966,0.497c0.803,0.14,0.855-0.47,1.491-0.497c0,7.125,0,14.251,0,21.377
		c-12.13,1.293-17.561,9.285-24.36,15.909c-1.037-0.146-5.754-0.286-7.457,0.496c-0.328-4.146,0.658-9.606-0.497-12.925
		c-0.826-0.832-1.654-1.66-2.485-2.486c-1.998-1.151-6.124-0.172-8.949-0.498c-0.674,0.154-0.412,1.245-0.497,1.989
		c0,5.966,0,11.932,0,17.898c-2.763,0.463-1.016,0.332-1.988-0.995c0-0.331,0-0.662,0-0.994c-0.328-4.312,0.658-9.938-0.497-13.423
		c0.091-0.423-0.193-0.469-0.497-0.497c-0.472-2.687-5.718-3.218-8.452-1.989c-0.442,0.22-0.889,0.437-0.993,0.995
		c-3.464,1.176-1.461,7.819-1.989,11.931c-0.917,1.709-0.713,3.771-0.497,5.469c-2.466-0.02,0.19-5.162-1.491-5.965
		c-0.326-3.154,0.655-7.616-0.497-9.943c-0.617-1.04-1.446-1.868-2.486-2.486c-7.704-1.516-10.248,0.417-9.445,8.949
		c-0.386,0.111-0.981,0.014-0.994,0.497c-0.657-0.005-0.455-0.871-0.995-0.994c0-0.663,0-1.326,0-1.989
		c0.76-2.39,1.112-5.185,1.492-7.954c-0.529-1.128-3.126-0.189-4.475-0.498c-0.39,2.594-1.233,4.732-1.491,7.458
		c-1.373,1.358-0.467-0.728-1.491-0.994c0.007-2.658-0.972-4.332-1.492-6.463c-2.85-0.86-1.707,2.27-2.485,3.48
		c-1.753-1.578,0.442,2.46-1.491,2.983c-0.065-0.728-1.139-1.317-0.995-3.48c0.92,0.075,0.306,1.684,0.995,1.989
		c1.65-0.162-1.309-2.169,0.497-2.486c-0.12-1.282-0.855,0.683-1.988,0c-0.675-0.154-0.413-1.245-0.497-1.989
		c0-0.166,0-0.332,0-0.498c-2.886,0.595-8.192-1.232-9.446,0.995c-0.157,1.997-0.898,3.411-2.486,3.978
		c-0.193-1.298-0.255-2.728-0.995-3.48c0-0.497,0-0.994,0-1.492c-1.688-0.134-4.03,0.385-4.971-0.497
		c0.041,0.787-0.24,1.896,0.497,1.988c1.01,3.961,3.223,6.72,3.977,10.938c0,2.817,0,5.633,0,8.452c-0.166,0-0.332,0-0.497,0
		c0-2.32,0-4.641,0-6.96c-3.585,0.723-6.005,2.612-9.943,2.983c-0.329-4.809,0.659-10.934-0.498-14.915c-1.491,0-2.982,0-4.474,0
		c0,5.469,0,10.937,0,16.406c-0.978-0.148-0.986,0.672-1.492,0.994c0-0.165,0-0.332,0-0.497c-0.689-1.134-3.46-0.185-4.971-0.497
		c-1.767-4.199,1.104-13.035-1.491-16.406c-1.326,0-2.652,0-3.977,0c0,5.634,0,11.269,0,16.903c-0.736,0.576-1.253,0.576-1.989,0
		c-0.328-4.146,0.659-9.607-0.497-12.926c0.172-2.492-1.235-3.405-2.983-3.977c-0.857-0.824-5.108-0.824-5.966,0
		c-1.451,0.703-2.518,1.79-2.982,3.48c0,3.812,0,7.623,0,11.435c-0.735,0.575-1.253,0.575-1.988,0c0-4.972,0-9.943,0-14.915
		c-0.753-0.606-4.283-0.976-4.972,0c0,2.154,0,4.309,0,6.463c0,0.166,0,0.332,0,0.497c-3.673,4.191-1.809-5.375-2.982-6.96
		c0.082-1.407-3.064,0.414-2.983-0.994c3.797-1.009,9.272-0.34,12.429-1.988c0.166,0,0.332,0,0.497,0
		c10.463,1.084,19.986-4.06,29.829-3.977c11.182,0.093,22.673,4.53,34.303,1.988c0.426-1.586-0.783-1.538-0.994-2.486
		c1.84-0.349,1.239,1.743,1.988,2.486c15.294-2.471,28.562-5.467,40.766-10.937c4.912-2.202,7.795-6.084,13.92-6.96
		c0.332,0,0.663,0,0.995,0C178.068,65.18,178.068,64.683,178.068,64.186z M141.279,100.477c-0.651-2.908,1.339-5.813-0.498-6.96
		C141.021,95.449,140.246,100.99,141.279,100.477z M155.199,102.963c1.925-1.563,1.039-8.563,0.497-10.938
		C154.726,94.866,155.396,99.348,155.199,102.963z"/>
	<path fill-rule="evenodd" clip-rule="evenodd" fill="#AA9C87" d="M153.708,90.534c-1.014-0.146-0.975-1.345-1.989-1.491
		c-1.176-1.144-4.462-0.178-6.463-0.498C147.99,87.316,153.236,87.848,153.708,90.534z"/>
	<path fill-rule="evenodd" clip-rule="evenodd" fill="#D4CDBB" d="M142.273,101.471c0.528-4.111-1.475-10.754,1.989-11.931
		c-0.153,1.172-1.728,0.924-1.491,2.485c-0.461,4.138,0.854,15.136-0.498,14.418C142.273,104.786,142.273,103.129,142.273,101.471z"
		/>
	<path fill-rule="evenodd" clip-rule="evenodd" fill="#87614C" d="M142.273,101.471c0,1.658,0,3.315,0,4.973
		c1.338,4.575,12.102,3.982,12.429-0.995c0.973,1.327-0.774,1.458,1.988,0.995c0,0.331,0,0.662,0,0.994
		c1.838,0.826,7.112,0.826,8.949,0c1.204-0.784,2.198-1.779,2.982-2.983c0.675-0.153,0.412-1.245,0.497-1.989
		c1.703-0.782,6.42-0.642,7.457-0.496c6.8-6.624,12.23-14.616,24.36-15.909c0,16.571,0,33.143,0,49.714
		c-13.802-4.796-36.803-3.705-45.24,5.469c-28.354,0.653-54.211,12.208-83.023,11.931c-11.85-0.112-23.983-3.005-35.795-4.474
		c-11.947-1.486-23.771-2.563-35.794-4.475c0-7.789,0-15.577,0-23.366c15.033-4.023,24.828-13.285,41.76-15.411
		c0.303,1.188-0.624,3.606,0.498,3.978c1.326,0,2.651,0,3.977,0c1.133-0.689,0.186-3.461,0.498-4.972
		c1.405,0.411,1.288-0.7,2.485-0.497c0,1.491,0,2.982,0,4.475c0,0.332,0,0.662,0,0.994c2.042-0.113,4.958,0.648,4.972-1.492
		c0-1.49,0-2.982,0-4.474c0.735,0.575,1.253,0.575,1.988,0c-0.102,2.091-0.179,4.156,1.491,4.474c2.13,2.755,9.883,1.879,10.44-1.49
		c0.483-0.014,0.385-0.609,0.497-0.995c0.735,0.576,1.253,0.576,1.989,0c0,1.326,0,2.651,0,3.978c2.331,0.826,8.109,0.826,10.439,0
		c0-1.16,0-2.32,0-3.48c0.506-0.322,0.514-1.143,1.492-0.994c0,1.492,0,2.982,0,4.475c2.327,1.152,6.788,0.172,9.942,0.497
		c1.169,1.615,1.539-4.377,0.498-4.972c-1.822,0-3.646,0-5.468,0c0-0.497,0-0.994,0-1.491c3.938-0.371,6.357-2.26,9.943-2.983
		c0,2.32,0,4.64,0,6.96c0.689,1.133,3.46,0.186,4.971,0.496c0-0.331,0-0.662,0-0.994c1.15-1.832,0.174-5.792,0.497-8.451
		c2.163,0.009,2.772-1.537,5.469-0.994c-0.081,0.579,0.109,0.885,0.497,0.994c0.356,3.124,1.208,5.752,1.491,8.949
		c0,0.165,0,0.331,0,0.496c2.003-0.482,6.382,1.411,5.469-1.988c0.653,0.597,0.782,0.194,1.491,0c0,0.166,0,0.332,0,0.498
		c-0.868,2.418,5.617,2.027,5.469,0.496c0.532-3.444,0.946-7.007,1.988-9.942c0.54,0.123,0.338,0.989,0.995,0.994
		c0.013-0.483,0.608-0.386,0.994-0.497c0.325,2.824-0.654,6.951,0.497,8.949c0.96,4.16,10.971,4.16,11.932,0
		c0-1.824,0-3.646,0-5.469c1.682,0.803-0.975,5.946,1.491,5.965C141.561,105.241,141.356,103.18,142.273,101.471z"/>
	<path fill-rule="evenodd" clip-rule="evenodd" fill="#AA9C87" d="M127.856,97.494c-0.803-8.532,1.741-10.464,9.445-8.949
		c-1.988,0-3.978,0-5.966,0c-1.168,1.152-3.01,1.629-2.982,3.977c0,0.498,0,0.994,0,1.492c0,4.143,0,8.286,0,12.429
		C127.202,104.445,128.182,100.318,127.856,97.494z"/>
	<path fill-rule="evenodd" clip-rule="evenodd" fill="#AA9C87" d="M112.942,89.043c1.133,0.683,1.868-1.282,1.988,0
		c-1.806,0.317,1.153,2.324-0.497,2.486c-0.689-0.305-0.075-1.914-0.995-1.989c-0.144,2.163,0.93,2.752,0.995,3.48
		c1.934-0.522-0.262-4.561,1.491-2.983c-0.024,2.461-0.587,4.384-0.994,6.462c-0.689,1.852-0.074-1.463-0.994-0.994
		C113.805,93.151,112.797,91.674,112.942,89.043z"/>
	<path fill-rule="evenodd" clip-rule="evenodd" fill="#AA9C87" d="M50.301,88.545c0.689-0.976,4.219-0.606,4.972,0
		c0,4.971,0,9.943,0,14.915c0,1.491,0,2.983,0,4.474c-0.484-0.014-0.386-0.607-0.498-0.994c0-5.965,0-11.931,0-17.896
		c-0.37-1.122-2.788-0.195-3.977-0.498C50.633,88.545,50.468,88.545,50.301,88.545z"/>
	<path fill-rule="evenodd" clip-rule="evenodd" fill="#D4CDBB" d="M50.301,95.505c1.584,0.985-1.001,1.934-2.485,1.492
		c-1.046-1.938-0.25-5.717-0.498-8.452C48.493,90.13,46.628,99.697,50.301,95.505z"/>
	<path fill-rule="evenodd" clip-rule="evenodd" fill="#117491" d="M24.947,74.625c0,0.497,0,0.995,0,1.491
		c-0.888-0.14-1.02,0.47-0.497,0.498c-0.847-0.323-1.161,2.064-2.485,0.994c0.013-0.483,0.608-0.386,0.994-0.497
		c-0.014-0.484-0.609-0.386-0.994-0.497c-0.356-1.35,2.344,0.355,1.988-0.994C25.348,75.613,22.77,74.263,24.947,74.625z"/>
	<path fill-rule="evenodd" clip-rule="evenodd" fill="#3CBDA9" d="M26.936,87.551c-1.359-0.794-3.285-1.023-5.468-0.995
		c-1.683-0.139-2.855-0.791-4.972-0.497c-1.742-0.896-6.684-0.732-8.451,0c-1.999-0.342-2.838,0.476-4.475,0.497
		c-0.001-0.499,0.403-0.591,0.498-0.994c0.798-1.274,0.3-2.929,1.491-5.469c0.672,0.156,0.949,0.708,1.989,0.497
		c0.078-0.585-0.085-1.411,0.497-1.492c0,0.166,0,0.332,0,0.498c0.601-0.534,3.898-2.404,0.995-1.989
		c0.001-0.499-0.403-0.592-0.498-0.994c3.436,0.066,3.197-2.132,3.977-3.48c0.636,0.027,0.688,0.638,1.492,0.498
		c0.482-2.551,2.17-4.383,1.491-5.469c3.101-0.212,4.039,0.898,4.972,0.498c0.213,1.373-1.854,0.466-1.989,1.491
		c2.479,0.211-0.198,1.066-0.497,1.491c4.687-0.575,3.75,2.064,5.469,3.978c0.166,0,0.331,0,0.497,0
		c0.355,1.35-2.344-0.356-1.988,0.994c0.385,0.111,0.98,0.013,0.994,0.497c-0.386,0.111-0.981,0.014-0.994,0.497
		c1.324,1.07,1.639-1.317,2.485-0.994c-0.523-0.027-0.391-0.637,0.497-0.498c0-0.497,0-0.994,0-1.491
		c0.305-0.689,1.914-0.075,1.988-0.994c-1.234,0.074-2.063-0.257-2.485-0.994c1.97-0.441,3.039,0.107,3.977-0.498
		c-0.607-0.056-1.177-0.148-0.994-0.994c1.774,0.055,3.142,0.994,1.491-0.497c1.409-0.61,3.288-0.404,3.977,0.994
		c-0.939,0.221-2.996-0.676-2.485,0.995c1.442,1.077,2.859-0.905,3.479,0.994c-0.345,0.98-2.773-0.123-2.982,0.994
		c0.578-0.081,0.885,0.11,0.995,0.497c-0.744,1.379-2.034-0.863-2.486,0.498c0.802,0.083,2.563,1.668,2.982,0.497
		c0.91,0.22,6.361-1.798,6.96,0.995c-2.971-0.249-0.408,2.451-1.492,3.48c1.362-0.253,0.433-1.203,2.486-1.492
		c1.578,1.246,1.469,1.918,2.485,2.983c-2.321,0.251-0.98,0.94,0,1.492c-1.141,0.848-3.207,0.77-4.474,1.491
		c1.615,0.208,1.432,2.214,3.48,1.989c0,0.166,0,0.332,0,0.497c-1.16,0-2.32,0-3.48,0c-1.988,0-3.977,0-5.966,0
		C30.582,87.551,28.759,87.551,26.936,87.551z"/>
	<path fill-rule="evenodd" clip-rule="evenodd" fill="#AA9C87" d="M21.467,86.557c2.184-0.029,4.109,0.2,5.468,0.995
		C24.898,87.435,22.871,87.308,21.467,86.557z"/>
	<path fill-rule="evenodd" clip-rule="evenodd" fill="#AA9C87" d="M8.044,86.06c1.768-0.732,6.709-0.896,8.451,0
		C14.44,86.555,10.253,86.045,8.044,86.06z"/>
	<path fill-rule="evenodd" clip-rule="evenodd" fill="#A7775E" d="M1.084,86.557c0.829,0,1.657,0,2.485,0
		c1.637-0.021,2.476-0.839,4.475-0.497c2.209-0.015,6.396,0.495,8.451,0c2.117-0.294,3.289,0.357,4.972,0.497
		c1.403,0.751,3.431,0.878,5.468,0.995c1.823,0,3.646,0,5.469,0c0.857,0.824,5.108,0.824,5.966,0c1.16,0,2.32,0,3.48,0
		c0.498,0,0.994,0,1.492,0c-0.095,0.403-0.499,0.496-0.498,0.994c0,5.303,0,10.606,0,15.909c0,0.332,0,0.663,0,0.994
		c-16.932,2.126-26.727,11.388-41.76,15.411C1.084,109.426,1.084,97.991,1.084,86.557z"/>
	<path fill-rule="evenodd" clip-rule="evenodd" fill="#ECEBE9" d="M69.193,106.443c-0.558,3.369-8.311,4.245-10.44,1.49
		c-0.22-0.441-0.436-0.889-0.994-0.994c0-0.165,0-0.331,0-0.496c1.252,0.266,6.387,0.326,6.462-1.492
		c0.583-0.08,0.419-0.906,0.497-1.491c0-0.165,0-0.331,0-0.497c1.163,0.128,0.287,2.184,0,2.485
		c1.708,0.218,2.787-0.196,3.977-0.497c0.328-3.981-0.658-9.275,0.498-12.429C69.193,97.163,69.193,101.803,69.193,106.443z"/>
	<path fill-rule="evenodd" clip-rule="evenodd" fill="#A7775E" d="M94.05,105.448c0-0.165,0-0.331,0-0.497
		c1.041,0.595,0.671,6.587-0.498,4.972c0.423,0.091,0.469-0.194,0.498-0.497C94.05,108.1,94.05,106.774,94.05,105.448z"/>
	<path fill-rule="evenodd" clip-rule="evenodd" fill="#A7775E" d="M107.473,88.048c0.166,0,0.332,0,0.498,0
		c0.575,3.236,0.768,6.855,1.988,9.446c0,0.332,0,0.663,0,0.994c-0.388-0.109-0.578-0.416-0.497-0.994
		c-2.696-0.543-3.306,1.003-5.469,0.994c-0.323,2.659,0.653,6.619-0.497,8.451c0.174-3.307-0.44-7.4,0.497-9.942
		C105.369,94.229,106.41,91.127,107.473,88.048z"/>
	<path fill-rule="evenodd" clip-rule="evenodd" fill="#D4CDBB" d="M95.045,88.048c-0.737-0.092-0.456-1.201-0.497-1.988
		c0.94,0.882,3.283,0.362,4.971,0.497c0,0.498,0,0.995,0,1.492C99.48,86.935,94.931,86.13,95.045,88.048z"/>
	<path fill-rule="evenodd" clip-rule="evenodd" fill="#D4CDBB" d="M102.999,87.551c1.254-2.227,6.561-0.4,9.446-0.995
		c0,0.166,0,0.332,0,0.498c-1.377,0.447-4.668-1.021-4.475,0.994c-0.166,0-0.332,0-0.498,0
		C107.706,86.151,103.59,87.107,102.999,87.551z"/>
	<path fill-rule="evenodd" clip-rule="evenodd" fill="#D4CDBB" d="M156.69,88.545c0.085-0.744-0.177-1.834,0.497-1.989
		c2.825,0.325,6.951-0.653,8.949,0.498c-0.166,0-0.332,0-0.497,0c-2.818,0-5.634,0-8.452,0c0,0.497,0,0.994,0,1.491
		C157.022,88.545,156.856,88.545,156.69,88.545z"/>
	<path fill-rule="evenodd" clip-rule="evenodd" fill="#FFFFFF" d="M99.519,88.048c0.739,0.752,0.801,2.182,0.995,3.48
		c1.587-0.567,2.329-1.981,2.486-3.978c0.591-0.444,4.707-1.4,4.474,0.497c-1.063,3.079-2.104,6.181-3.479,8.949
		c-0.904,1.29-2.785,3.559-4.971,1.989c-0.754-4.218-2.967-6.976-3.977-10.938C94.931,86.13,99.48,86.935,99.519,88.048z"/>
	<path fill-rule="evenodd" clip-rule="evenodd" fill="#FFFFFF" d="M157.188,88.545c0-0.497,0-0.994,0-1.491c2.818,0,5.634,0,8.452,0
		C166.51,87.896,159.305,89.324,157.188,88.545z"/>
	<path fill-rule="evenodd" clip-rule="evenodd" fill="#ECEBE9" d="M156.69,106.443c0-5.966,0-11.932,0-17.898
		c0.166,0,0.332,0,0.497,0c2.117,0.778,9.322-0.649,8.452-1.491c0.165,0,0.331,0,0.497,0c0.831,0.826,1.659,1.654,2.485,2.486
		c0,4.971,0,9.942,0,14.914c-0.784,1.204-1.778,2.199-2.982,2.983c-2.983,0-5.966,0-8.949,0
		C156.69,107.105,156.69,106.774,156.69,106.443z M164.148,92.025c0.457-1.831-2.623-0.903-2.983-0.497
		c0.327,3.65-0.658,8.611,0.497,11.434c0.828,0,1.657,0,2.486,0C164.148,99.317,164.148,95.671,164.148,92.025z"/>
	<path fill-rule="evenodd" clip-rule="evenodd" fill="#FFFFFF" d="M47.319,88.545c0.248,2.735-0.548,6.514,0.498,8.452
		c1.483,0.442,4.069-0.507,2.485-1.492c0-0.166,0-0.332,0-0.497c1.144-1.176,0.179-4.462,0.498-6.463
		c1.189,0.303,3.607-0.624,3.977,0.498c0,5.965,0,11.931,0,17.896c-0.483,0.014-0.386,0.609-0.498,0.994
		c-1.32,0.006-2.839-0.188-3.479,0.498c-0.43-2.388,0.994-6.629-0.994-7.458c-4.402-0.756-1.775,5.516-2.486,8.452
		c-1.326,0-2.651,0-3.977,0c0-1.657,0-3.314,0-4.972c0-5.303,0-10.605,0-15.909C44.667,88.545,45.993,88.545,47.319,88.545z"/>
	<path fill-rule="evenodd" clip-rule="evenodd" fill="#FFFFFF" d="M131.336,88.545c1.988,0,3.978,0,5.966,0
		c1.04,0.618,1.869,1.446,2.486,2.486c0,0.498,0,0.994,0,1.491c-1.874-0.382-2.376,0.606-3.978,0.498
		c0.006-0.988,1.356-0.632,0.994-1.989c-0.938,0.055-0.345,1.644-1.491,1.491c-0.706-0.042-1.407-0.082-1.491,0.498
		c-0.166,0-0.332,0-0.498,0c-0.211-0.312-3.742,2.25-4.971,0.994c0-0.498,0-0.994,0-1.492
		C129.167,91.261,129.989,90.292,131.336,88.545z"/>
	<path fill-rule="evenodd" clip-rule="evenodd" fill="#ECEBE9" d="M132.828,104.454c0.127,1.032,2.184,0.136,2.485,0.994
		c0.815-3.235,0.815-9.69,0-12.926c1.146,0.152,0.553-1.436,1.491-1.491c0.362,1.356-0.988,1.001-0.994,1.989
		c1.602,0.109,2.104-0.879,3.978-0.498c0.328,4.478-0.659,10.271,0.497,13.921c-0.961,4.16-10.972,4.16-11.932,0
		c0-4.144,0-8.287,0-12.429c1.229,1.256,4.76-1.306,4.971-0.994c-0.999,1.486-0.28,4.69-0.496,6.96
		C132.828,101.471,132.828,102.963,132.828,104.454z"/>
	<path fill-rule="evenodd" clip-rule="evenodd" fill="#ECEBE9" d="M131.336,88.545c-1.347,1.747-2.169,2.716-2.982,3.977
		C128.326,90.175,130.168,89.698,131.336,88.545z"/>
	<path fill-rule="evenodd" clip-rule="evenodd" fill="#FFFFFF" d="M145.256,88.545c2.001,0.32,5.287-0.646,6.463,0.498
		c-0.091,0.423,0.194,0.469,0.498,0.497c-2.982,2.09-6.206,1.125-9.445,2.485c-0.236-1.561,1.338-1.313,1.491-2.485
		C144.367,88.982,144.813,88.766,145.256,88.545z"/>
	<path fill-rule="evenodd" clip-rule="evenodd" fill="#ECEBE9" d="M151.719,89.043c1.015,0.146,0.976,1.345,1.989,1.491
		c0.304,0.028,0.588,0.074,0.497,0.497c0.328,4.312-0.659,9.938,0.497,13.423c0,0.332,0,0.663,0,0.994
		c-0.327,4.978-11.091,5.57-12.429,0.995c1.353,0.718,0.037-10.28,0.498-14.418c3.239-1.36,6.463-0.396,9.445-2.485
		C151.913,89.512,151.628,89.466,151.719,89.043z M149.73,102.465c0-3.148,0-6.296,0-9.445c-1.313,0.012-3.115-0.464-2.485,1.491
		c-1.153,2.493-0.171,7.122-0.497,10.44c0.873-0.285,2.92,0.602,2.982-0.497C149.73,103.791,149.73,103.129,149.73,102.465z"/>
	<path fill-rule="evenodd" clip-rule="evenodd" fill="#D4CDBB" d="M164.148,92.025c-0.4,0.263-0.808,0.519-1.492,0.497
		c0.014-0.483,0.608-0.386,0.994-0.497c-3.841-1.513-1.227,7.716-1.988,10.938c-1.155-2.823-0.17-7.784-0.497-11.434
		C161.525,91.122,164.605,90.195,164.148,92.025z"/>
	<path fill-rule="evenodd" clip-rule="evenodd" fill="#A7775E" d="M164.148,92.025c0,3.646,0,7.292,0,10.938
		c-0.829,0-1.658,0-2.486,0c0.762-3.221-1.853-12.45,1.988-10.938c-0.386,0.111-0.98,0.014-0.994,0.497
		C163.341,92.544,163.748,92.289,164.148,92.025z"/>
	<path fill-rule="evenodd" clip-rule="evenodd" fill="#AA9C87" d="M62.73,104.951c-2.258-2.051-0.377-8.24-0.994-11.931
		c0.587-0.573,1.757-0.563,2.982-0.498c0,0.166,0,0.332,0,0.498s0,0.332,0,0.497c-0.442-0.385-1.123-0.534-1.988-0.497
		c-1.153,2.327-0.172,6.789-0.498,9.943C62.022,104.002,62.574,104.279,62.73,104.951z"/>
	<path fill-rule="evenodd" clip-rule="evenodd" fill="#D4CDBB" d="M58.753,107.934c-1.67-0.317-1.593-2.383-1.491-4.474
		c0-3.812,0-7.623,0-11.435c1.156,3.815,0.168,9.774,0.498,14.418c0,0.165,0,0.331,0,0.496
		C58.317,107.045,58.533,107.492,58.753,107.934z"/>
	<path fill-rule="evenodd" clip-rule="evenodd" fill="#D4CDBB" d="M133.822,93.02c0.084-0.58,0.785-0.54,1.491-0.498
		c0.815,3.235,0.815,9.69,0,12.926c-0.302-0.858-2.358,0.038-2.485-0.994c0.828,0,1.656,0,2.485,0c0-1.491,0-2.983,0-4.474
		C134.795,97.682,136.607,93.052,133.822,93.02z"/>
	<path fill-rule="evenodd" clip-rule="evenodd" fill="#A7775E" d="M133.324,93.02c0.166,0,0.332,0,0.498,0
		c2.785,0.032,0.973,4.662,1.491,6.96c-1.236-0.055-1.539-0.932-2.485,0C133.044,97.71,132.325,94.506,133.324,93.02z"/>
	<path fill-rule="evenodd" clip-rule="evenodd" fill="#D4CDBB" d="M118.41,106.443c0.423,1.494,4.356,1.247,5.469,0.496
		C124.027,108.471,117.542,108.861,118.41,106.443z"/>
	<path fill-rule="evenodd" clip-rule="evenodd" fill="#D4CDBB" d="M116.919,105.945c0.913,3.399-3.466,1.506-5.469,1.988
		c0-0.165,0-0.331,0-0.496c1.657,0,3.315,0,4.972,0C116.379,106.732,116.34,106.029,116.919,105.945z"/>
	<path fill-rule="evenodd" clip-rule="evenodd" fill="#D4CDBB" d="M47.319,109.426c0.711-2.936-1.916-9.208,2.486-8.452
		c1.988,0.829,0.564,5.07,0.994,7.458c-0.166,0-0.331,0-0.498,0c0-1.492,0-2.983,0-4.475c0.353-2.01-0.476-2.838-2.485-2.486
		c0,0.994,0,1.989,0,2.983C47.504,105.965,48.452,108.736,47.319,109.426z"/>
	<path fill-rule="evenodd" clip-rule="evenodd" fill="#6A4E40" d="M200.937,199.933c0-1.16,0-56.012,0-57.171
		c-0.825-1.183-0.825-5.778,0-6.961c0-0.496,0-0.994,0-1.491c-13.802-4.796-36.803-3.705-45.24,5.469
		c-28.354,0.654-54.211,12.207-83.023,11.931c-11.85-0.113-23.983-3.005-35.795-4.474c-11.947-1.486-23.771-2.563-35.794-4.474
		c0,1.159,0,56.274,0,57.436L200.937,199.933z"/>
	<path fill-rule="evenodd" clip-rule="evenodd" fill="#AA9C87" d="M141.279,33.86c2.388-1.633,9.491-1.399,11.932,0
		C149.017,33.137,145.63,33.599,141.279,33.86z"/>
	<path fill-rule="evenodd" clip-rule="evenodd" fill="#FAF366" d="M153.211,33.86c5.722,1.569,11.097,3.486,14.417,7.457
		c1.116,1.535,2.442,2.86,3.978,3.977c0.638,3.172,3.438,4.186,3.977,7.457c0.722,2.427,1.191,5.105,1.989,7.457
		c0,0.166,0,0.332,0,0.498c0.01,2.558-0.083,3.907-0.498,4.972c-6.125,0.876-9.008,4.758-13.92,6.96
		c-12.204,5.47-25.472,8.466-40.766,10.937c-0.749-0.743-0.148-2.834-1.988-2.486c-10.745-19.691,0.596-44.941,20.88-47.229
		C145.63,33.599,149.017,33.137,153.211,33.86z"/>
	<path fill-rule="evenodd" clip-rule="evenodd" fill="#D4CDBB" d="M175.582,52.751c1.414,1.735,2.025,4.272,1.989,7.457
		C176.773,57.856,176.304,55.178,175.582,52.751z"/>
	<path fill-rule="evenodd" clip-rule="evenodd" fill="#AA9C87" d="M177.571,60.706c1.111,0.214,0.201,2.45,0.497,3.48
		c0,0.497,0,0.994,0,1.492c-0.332,0-0.663,0-0.995,0C177.488,64.613,177.581,63.263,177.571,60.706z"/>
	<path fill-rule="evenodd" clip-rule="evenodd" fill="#FFFFFF" d="M107.971,88.048c-0.193-2.016,3.098-0.547,4.475-0.994
		c0.084,0.744-0.178,1.834,0.497,1.989c-0.146,2.631,0.862,4.108,0.994,6.462c0,0.498,0,0.994,0,1.492
		c-1.601-0.109-2.104,0.879-3.978,0.497C108.738,94.904,108.546,91.285,107.971,88.048z"/>
	<path fill-rule="evenodd" clip-rule="evenodd" fill="#FFFFFF" d="M60.244,88.545c1.989,0,3.978,0,5.966,0
		c1.749,0.572,3.156,1.485,2.983,3.977c-1.156,3.153-0.169,8.448-0.498,12.429c-1.19,0.301-2.269,0.715-3.977,0.497
		c0.287-0.302,1.163-2.357,0-2.485c0-0.166,0-0.332,0-0.498c0.827-2.001,0.827-7.443,0-9.445c0-0.166,0-0.332,0-0.498
		c-1.226-0.065-2.395-0.075-2.982,0.498c0.617,3.691-1.264,9.88,0.994,11.931c0.497,0,0.995,0,1.491,0
		c-0.075,1.818-5.21,1.758-6.462,1.492c-0.329-4.644,0.659-10.603-0.498-14.418C57.727,90.335,58.793,89.249,60.244,88.545z"/>
	<path fill-rule="evenodd" clip-rule="evenodd" fill="#FFFFFF" d="M75.656,89.043c0.582,0.08,0.419,0.906,0.497,1.491
		c-0.828,2.991-0.828,9.438,0,12.429c0,0.166,0,0.332,0,0.497c-1.166,0.49-2.441,0.872-3.977,0.994c0-5.137,0-10.274,0-15.411
		C73.336,89.043,74.496,89.043,75.656,89.043z"/>
	<path fill-rule="evenodd" clip-rule="evenodd" fill="#AA9C87" d="M121.394,95.008c-0.582,0.08-0.42,0.907-0.497,1.491
		c-0.858,1.895,0.038-1.936-0.994-1.491c0-0.663,0-1.326,0-1.988c1.024,0.266,0.118,2.352,1.491,0.994
		C121.394,94.346,121.394,94.677,121.394,95.008z"/>
	<path fill-rule="evenodd" clip-rule="evenodd" fill="#ECEBE9" d="M103.993,96.997c-0.938,2.542-0.323,6.636-0.497,9.942
		c-0.825,0.833-2.918,0.396-4.474,0.498c0-2.818,0-5.635,0-8.452C101.208,100.556,103.089,98.287,103.993,96.997z"/>
	<path fill-rule="evenodd" clip-rule="evenodd" fill="#87614C" d="M132.828,104.454c0-1.491,0-2.983,0-4.474
		c0.946-0.932,1.249-0.055,2.485,0c0,1.491,0,2.983,0,4.474C134.484,104.454,133.656,104.454,132.828,104.454z"/>
	<path fill-rule="evenodd" clip-rule="evenodd" fill="#AA9C87" d="M116.919,105.945c0.275-4.584,1.061-3.898,1.491,0
		C117.701,106.14,117.572,106.542,116.919,105.945z"/>
	<path fill-rule="evenodd" clip-rule="evenodd" fill="#87614C" d="M62.73,104.951c-0.157-0.672-0.708-0.949-0.498-1.988
		c1.198-0.203,1.081,0.908,2.486,0.497c-0.078,0.585,0.085,1.411-0.497,1.491C63.725,104.951,63.228,104.951,62.73,104.951z"/>
	<path fill-rule="evenodd" clip-rule="evenodd" fill="#D4CDBB" d="M147.245,101.969c0,0.828,0,1.656,0,2.485
		c0.829,0,1.657,0,2.485,0c-0.063,1.099-2.109,0.212-2.982,0.497c0.326-3.318-0.656-7.947,0.497-10.44
		C147.245,96.997,147.245,99.482,147.245,101.969z"/>
	<path fill-rule="evenodd" clip-rule="evenodd" fill="#ECEBE9" d="M88.084,104.951c1.014,1.141,4.129,0.18,5.966,0.497
		c0,1.326,0,2.651,0,3.978c-3.48,0-6.959,0-10.439,0c0-1.492,0-2.982,0-4.475c0-5.469,0-10.937,0-16.406c1.491,0,2.982,0,4.474,0
		c0,0.166,0,0.332,0,0.498c-1.326,0-2.651,0-3.977,0c0,4.309,0,8.617,0,12.926c1.874,0.382,2.377-0.606,3.977-0.498
		C88.084,102.631,88.084,103.791,88.084,104.951z"/>
	<path fill-rule="evenodd" clip-rule="evenodd" fill="#D4CDBB" d="M98.525,107.438c0.166,0,0.331,0,0.497,0
		c1.556-0.102,3.649,0.335,4.474-0.498c0,0.332,0,0.663,0,0.994C101.985,107.623,99.214,108.57,98.525,107.438z"/>
	<path fill-rule="evenodd" clip-rule="evenodd" fill="#ECEBE9" d="M54.776,106.939c0.111,0.387,0.014,0.98,0.498,0.994
		c-0.015,2.141-2.93,1.379-4.972,1.492c0-0.332,0-0.662,0-0.994c0.167,0,0.332,0,0.498,0c0.641-0.686,2.159-0.492,3.479-0.498
		C54.39,107.549,54.292,106.953,54.776,106.939z"/>
	<path fill-rule="evenodd" clip-rule="evenodd" fill="#FFFFFF" d="M115.925,90.037c0.778-1.211-0.364-4.341,2.485-3.48
		c0.521,2.132,1.499,3.805,1.492,6.463c0,0.663,0,1.326,0,1.988c0,0.332,0,0.663,0,0.995c-2.171-0.349-2.801,0.845-4.972,0.497
		C115.338,94.421,115.9,92.499,115.925,90.037z"/>
	<path fill-rule="evenodd" clip-rule="evenodd" fill="#FFFFFF" d="M121.394,94.014c0.258-2.726,1.102-4.863,1.491-7.458
		c1.349,0.308,3.945-0.631,4.475,0.498c-0.38,2.769-0.732,5.564-1.492,7.954c-1.859-0.66-3.437,1.482-4.474,0
		C121.394,94.677,121.394,94.346,121.394,94.014z"/>
	<path fill-rule="evenodd" clip-rule="evenodd" fill="#ECEBE9" d="M125.867,95.008c0,0.663,0,1.326,0,1.989
		c-1.042,2.935-1.456,6.498-1.988,9.942c-1.112,0.751-5.046,0.998-5.469-0.496c0-0.166,0-0.332,0-0.498
		c-0.431-3.898-1.216-4.584-1.491,0c-0.579,0.084-0.54,0.787-0.497,1.492c-1.656,0-3.314,0-4.972,0
		c-0.283-3.197-1.135-5.825-1.491-8.949c0-0.332,0-0.663,0-0.994c1.873,0.382,2.377-0.606,3.978-0.497c0-0.498,0-0.994,0-1.492
		c0.92-0.469,0.305,2.846,0.994,0.994c2.171,0.349,2.801-0.845,4.972-0.497c0-0.332,0-0.663,0-0.995
		c1.032-0.444,0.136,3.386,0.994,1.491c0.077-0.584-0.085-1.411,0.497-1.491C122.431,96.491,124.008,94.348,125.867,95.008z"/>
	<path fill-rule="evenodd" clip-rule="evenodd" fill="#ECEBE9" d="M75.656,89.043c-1.16,0-2.32,0-3.48,0c0,5.137,0,10.274,0,15.411
		c1.536-0.122,2.811-0.504,3.977-0.994c0,0.497,0,0.994,0,1.491c1.014,1.141,4.129,0.18,5.966,0.497c0,0.165,0,0.332,0,0.497
		c0,1.16,0,2.32,0,3.48c-3.48,0-6.959,0-10.439,0c0-1.326,0-2.651,0-3.978c0-5.634,0-11.269,0-16.903c1.325,0,2.651,0,3.977,0
		C75.656,88.711,75.656,88.877,75.656,89.043z"/>
	<path fill-rule="evenodd" clip-rule="evenodd" fill="#D4CDBB" d="M139.788,91.031c1.152,2.327,0.171,6.789,0.497,9.943
		c0,1.823,0,3.645,0,5.469c-1.156-3.65-0.169-9.443-0.497-13.921C139.788,92.025,139.788,91.529,139.788,91.031z"/>
	<path fill-rule="evenodd" clip-rule="evenodd" fill="#D4CDBB" d="M154.205,91.031c1.155,3.484,0.169,9.111,0.497,13.423
		C153.546,100.97,154.533,95.343,154.205,91.031z"/>
	<path fill-rule="evenodd" clip-rule="evenodd" fill="#A7775E" d="M147.245,94.511c-0.63-1.955,1.172-1.479,2.485-1.491
		c0,3.148,0,6.297,0,9.445c-1.153,0.16-1.908-0.08-2.485-0.496C147.245,99.482,147.245,96.997,147.245,94.511z"/>
</g>
</svg>
