<?xml version="1.0" encoding="utf-8"?>
<!-- Generator: Adobe Illustrator 14.0.0, SVG Export Plug-In . SVG Version: 6.00 Build 43363)  -->
<!DOCTYPE svg PUBLIC "-//W3C//DTD SVG 1.1//EN" "http://www.w3.org/Graphics/SVG/1.1/DTD/svg11.dtd">
<svg version="1.1" id="Layer_1" xmlns="http://www.w3.org/2000/svg" xmlns:xlink="http://www.w3.org/1999/xlink" x="0px" y="0px"
	 width="183.507px" height="183.506px" viewBox="0 0 183.507 183.506" enable-background="new 0 0 183.507 183.506"
	 xml:space="preserve">
<g>
	<path fill-rule="evenodd" clip-rule="evenodd" fill="#C13A39" d="M92.276,72.925c0-3.799,0-7.595,0-11.393
		C93.992,62.982,93.992,71.475,92.276,72.925z"/>
	<path fill-rule="evenodd" clip-rule="evenodd" fill="#EAD3B9" d="M115.063,72.925c1.72,3.486,1.72,14.123,0,17.608
		C115.063,84.661,115.063,78.793,115.063,72.925z"/>
	<path fill-rule="evenodd" clip-rule="evenodd" fill="#EAB886" d="M60.17,82.247c0-0.346,0-0.692,0-1.035c7.593,0,15.189,0,22.786,0
		c0,0.343,0,0.688,0,1.035C75.359,82.247,67.763,82.247,60.17,82.247z"/>
	<path fill-rule="evenodd" clip-rule="evenodd" fill="#541407" d="M62.24,87.424c2.851,1.269-0.069,16.631,0,6.215
		C62.24,91.568,62.24,89.496,62.24,87.424z"/>
	<path fill-rule="evenodd" clip-rule="evenodd" fill="#541407" d="M71.562,87.424c1.715,1.118,1.715,9.241,0,10.359
		C71.562,94.331,71.561,90.876,71.562,87.424z"/>
	<path fill-rule="evenodd" clip-rule="evenodd" fill="#C46936" d="M111.956,91.568c-5.89,1.724-18.971,1.724-24.857,0
		C95.385,91.568,103.67,91.568,111.956,91.568z"/>
	<path fill-rule="evenodd" clip-rule="evenodd" fill="#E85052" d="M34.275,98.817c2.111-2.375,8.603-0.374,12.429-1.033
		C44.593,100.159,38.104,98.158,34.275,98.817z"/>
	<path fill-rule="evenodd" clip-rule="evenodd" fill="#6D3720" d="M102.634,103.999c1.717,1.45,1.717,9.942,0,11.394
		c0-2.072,0-4.144,0-6.216C102.634,107.448,102.631,105.721,102.634,103.999z"/>
	<path fill-rule="evenodd" clip-rule="evenodd" fill="#6D3720" d="M109.884,115.392c-1.717-1.451-1.717-9.943,0-11.394
		C109.884,107.793,109.884,111.591,109.884,115.392z"/>
	<path fill-rule="evenodd" clip-rule="evenodd" fill="#D9A762" d="M87.099,117.46c0.344,0,0.69,0,1.036,0
		c6.229,1.724,19.659,1.724,25.893,0c0.343,0,0.69,0,1.036,0c0,0.691,0,1.381,0,2.072c-9.321,0-18.643,0-27.965,0
		C87.099,118.841,87.099,118.152,87.099,117.46z"/>
	<path fill-rule="evenodd" clip-rule="evenodd" fill="#EAB886" d="M88.135,117.46c8.628,0,17.262,0,25.893,0
		C107.794,119.184,94.364,119.184,88.135,117.46z"/>
	<path fill-rule="evenodd" clip-rule="evenodd" fill="#C46936" d="M156.492,121.604c-6.229-0.679-15.174,1.365-19.678-1.034
		C143.04,121.246,151.985,119.206,156.492,121.604z"/>
	<path fill-rule="evenodd" clip-rule="evenodd" fill="#541407" d="M83.991,135.07c-4.068,2.783-1.226-8.706-2.071-12.428
		c1.038-0.005,1.231,0.837,2.071,1.033C84.783,128.191,82.708,133.268,83.991,135.07z"/>
	<path fill-rule="evenodd" clip-rule="evenodd" fill="#541407" d="M98.49,129.892c-0.158-2.579,1.628-3.208,2.072-5.18
		c1.006,0.026,0.804,1.267,1.036,2.07c0.308,1.899-1.452,16.351,1.035,16.573c0,0.343,0,0.688,0,1.035
		c-1.836-0.236-5.188,1.044-4.144-2.071C100.208,140.533,100.208,131.677,98.49,129.892z"/>
	<path fill-rule="evenodd" clip-rule="evenodd" fill="#E85052" d="M103.67,132.998c0.196-10.818,2.712,7.005,0,8.287
		C103.67,138.521,103.67,135.757,103.67,132.998z"/>
	<path fill-rule="evenodd" clip-rule="evenodd" fill="#E85052" d="M150.278,146.462c-3.647-4.091,1.431-10.161,1.035-17.608
		c2.573,6.86,3.572,10.064,4.144,17.608C153.729,146.462,152.004,146.462,150.278,146.462z"/>
	<path fill-rule="evenodd" clip-rule="evenodd" fill="#541407" d="M156.492,137.141c-3.738,0.697-2.618-8.744,0-8.287
		C156.492,131.617,156.492,134.378,156.492,137.141z"/>
	<path fill-rule="evenodd" clip-rule="evenodd" fill="#1F0B05" d="M98.49,142.32c0-4.145,0-8.285,0-12.428
		C100.208,131.677,100.208,140.533,98.49,142.32z"/>
	<path fill-rule="evenodd" clip-rule="evenodd" fill="#E85052" d="M97.456,141.285c-0.643,4.31-1.289-5.561-1.035-7.25
		C96.872,130.983,98.136,136.717,97.456,141.285z"/>
	<path fill-rule="evenodd" clip-rule="evenodd" fill="#6D3720" d="M102.634,132.998c0.345,0,0.69,0,1.036,0c0,2.76,0,5.523,0,8.287
		c0.087,1.469,0.171,2.933-1.036,3.106c0-0.347,0-0.692,0-1.035C102.631,139.902,102.634,136.449,102.634,132.998z"/>
	<path fill-rule="evenodd" clip-rule="evenodd" fill="#6D3720" d="M44.634,164.069c1.191,1.224,1.17,3.663,1.036,6.215
		c-1.728,0-3.454,0-5.18,0c-0.002-1.727,0-3.451,0-5.178C42.348,165.236,42.673,163.837,44.634,164.069z"/>
	<path fill-rule="evenodd" clip-rule="evenodd" fill="#6D3720" d="M114.027,164.069c1.036,0,2.071,0,3.107,0
		c2.336,2.643,0.975,7.862-4.143,6.215C112.854,167.732,112.834,165.292,114.027,164.069z"/>
	<path fill-rule="evenodd" clip-rule="evenodd" fill="#6D3720" d="M146.136,164.069c2.11,1.806,2.028-0.772,4.143,1.037
		c0.329,2.401-0.168,3.975-1.036,5.178c-1.382,0-2.763,0-4.143,0C144.962,167.732,144.941,165.292,146.136,164.069z"/>
	<path fill-rule="evenodd" clip-rule="evenodd" fill="#666A62" d="M22.883,172.356c43.501-1.729,94.25-1.729,137.752,0
		C114.718,172.356,68.799,172.356,22.883,172.356z"/>
	<path fill-rule="evenodd" clip-rule="evenodd" fill="#666A62" d="M53.954,178.571c5.887-1.724,18.97-1.724,24.858,0
		C70.526,178.571,62.24,178.571,53.954,178.571z"/>
	<path fill-rule="evenodd" clip-rule="evenodd" fill="#666A62" d="M120.241,178.571c10.71-1.727,28.647-1.727,39.357,0
		C146.479,178.571,133.361,178.571,120.241,178.571z"/>
	<path fill-rule="evenodd" clip-rule="evenodd" fill="#9ECBBA" d="M29.098,93.639c5.674,2.268,15.424,0.455,22.786,1.037
		c0,0.344,0,0.689,0,1.035c-7.25,0-14.5,0-21.75,0C29.935,94.872,29.094,94.676,29.098,93.639z"/>
	<path fill-rule="evenodd" clip-rule="evenodd" fill="#D4DBDB" d="M21.847,171.321c0.918-7.039-2.11-23.498,2.072-23.823
		c-0.809,0.229-1.205,0.867-1.036,2.071C22.202,156.484,24.248,166.127,21.847,171.321z"/>
	<path fill-rule="evenodd" clip-rule="evenodd" fill="#F1EFEA" d="M159.599,178.571c1.219-0.163,2.94,0.176,3.108-1.037
		c-3.162,4.444-23.189,0.972-33.145,2.072c-12.084,0-24.166,0-36.25,0c-23.823-0.689-50.405,1.379-72.501-1.035
		c11.047,0,22.095,0,33.143,0c8.286,0,16.572,0,24.858,0c13.809,0,27.62,0,41.429,0
		C133.361,178.571,146.479,178.571,159.599,178.571z"/>
	<path fill-rule="evenodd" clip-rule="evenodd" fill="#D4DBDB" d="M159.599,147.498c4.182,0.325,1.153,16.784,2.072,23.823
		c-2.403-5.193-0.355-14.837-1.036-21.752C160.402,148.766,160.605,147.526,159.599,147.498z"/>
	<path fill-rule="evenodd" clip-rule="evenodd" fill="#D81E07" d="M96.421,10.781c-0.597-5.084,1.343-7.635,5.178-8.286
		c0.956,2.766,5.092,5.782,2.071,9.322C100.917,11.808,97.752,12.208,96.421,10.781z"/>
	<path fill-rule="evenodd" clip-rule="evenodd" fill="#C13A39" d="M108.849,62.568c0.649,3.148-1.327,8.921,1.035,10.357
		c0,0.345,0,0.69,0,1.036c0.104,1.974,3.857-0.826,5.18-1.036c0,5.868,0,11.736,0,17.608c-10.015,0-20.024,0-30.037,0
		c0-4.144,0-8.287,0-12.43c1.212-0.167,0.873-1.888,1.036-3.106c0.88,0.189,0.975-0.406,1.036-1.036
		c4.203,0.291,2.336-0.378,2.071-3.107c1.125,0.254,0.702,2.06,2.07,2.071c1.119,1.713,9.239,1.713,10.358,0
		c1.212-0.167,0.871-1.889,1.035-3.107c1.357,0.017,1.32,2.873,0,3.107c-0.175,2.246,3.674,0.47,5.18,1.036
		c0.997-0.734-0.68-7.55,0-11.394C108.157,62.568,108.503,62.568,108.849,62.568z"/>
	<path fill-rule="evenodd" clip-rule="evenodd" fill="#9ECBBA" d="M60.17,81.212c-0.923-0.46-1.854-0.91-2.071-2.073
		c6.679,2.296,17.518,0.433,25.893,1.036c0.19,0.881-0.404,0.977-1.035,1.037C75.359,81.212,67.763,81.212,60.17,81.212z"/>
	<path fill-rule="evenodd" clip-rule="evenodd" fill="#0C94CA" d="M58.099,79.139c-8.714-15.487,11.086-17.022,12.428-29
		c2.86,10.603,17.358,9.569,15.536,24.859c-0.163,1.218,0.176,2.938-1.036,3.106c-1.006,0.029-0.805,1.269-1.035,2.071
		C75.616,79.572,64.777,81.436,58.099,79.139z M71.562,60.496c-6.596,1.702-12.535,9.542-9.321,17.607
		C63.442,70.33,68.277,66.189,71.562,60.496z M74.67,64.64c-2.617,2.589-7.57,8.273-5.178,12.428
		C70.278,72.648,75.229,66.962,74.67,64.64z M76.742,69.818c-1.46,1.995-2.741,4.167-3.108,7.25
		C76.175,76.777,78.406,70.886,76.742,69.818z"/>
	<path fill-rule="evenodd" clip-rule="evenodd" fill="#541407" d="M108.849,62.568c-0.047-1.426,0.487-2.273,1.035-3.107
		c2.333,2.59,2.686,8.929,1.036,13.465c-0.346,0-0.691,0-1.036,0C107.521,71.489,109.498,65.716,108.849,62.568z"/>
	<path fill-rule="evenodd" clip-rule="evenodd" fill="#FFFFFF" d="M62.24,78.104c-3.214-8.065,2.726-15.906,9.321-17.607
		C68.277,66.189,63.442,70.33,62.24,78.104z"/>
	<path fill-rule="evenodd" clip-rule="evenodd" fill="#1F0B05" d="M98.49,70.854c1.375-1.734,4.007-2.208,3.108-6.214
		c0.345,0,0.689,0,1.035,0c0,1.724-0.003,3.451,0,5.178c-0.164,1.218,0.177,2.94-1.035,3.107
		C99.97,72.827,98.006,73.063,98.49,70.854z"/>
	<path fill-rule="evenodd" clip-rule="evenodd" fill="#17AC45" d="M132.671,95.711c-12.198-12.901,6.711-20.383,9.321-31.071
		c3.782,9.861,19.422,12.78,13.465,28.999c-1.163,0.219-1.614,1.149-2.072,2.072C145.145,95.134,143.814,94.466,132.671,95.711z
		 M152.35,85.355c-0.831-6.093-7.024-12.288-11.394-11.394c5.475,3.156,7.692,9.569,10.357,15.535
		c0.142,1.929,0.68,3.462,2.071,4.143C152.754,91.165,154.685,86.125,152.35,85.355z M136.814,79.139
		c4.52,2.73,3.801,10.697,8.285,13.466C144.672,86.45,141.059,78.026,136.814,79.139z M133.707,83.284
		c1.501,3.675,2.287,8.066,5.178,10.355C138.912,88.433,136.868,85.298,133.707,83.284z"/>
	<path fill-rule="evenodd" clip-rule="evenodd" fill="#9ECBBA" d="M69.492,77.068c-2.393-4.154,2.561-9.839,5.178-12.428
		C75.229,66.962,70.278,72.648,69.492,77.068z"/>
	<path fill-rule="evenodd" clip-rule="evenodd" fill="#9ECBBA" d="M73.634,77.068c0.367-3.083,1.648-5.255,3.108-7.25
		C78.406,70.886,76.175,76.777,73.634,77.068z"/>
	<path fill-rule="evenodd" clip-rule="evenodd" fill="#1F0B05" d="M151.313,89.496c-2.665-5.966-4.883-12.379-10.357-15.535
		c4.369-0.895,10.563,5.3,11.394,11.394C152.263,86.993,152.848,89.304,151.313,89.496z"/>
	<path fill-rule="evenodd" clip-rule="evenodd" fill="#3F5751" d="M145.1,92.605c-4.484-2.769-3.766-10.735-8.285-13.466
		C141.059,78.026,144.672,86.45,145.1,92.605z"/>
	<path fill-rule="evenodd" clip-rule="evenodd" fill="#17AC45" d="M29.098,93.639c-1.074-2.724-1.239-6.355-1.036-10.355
		c3.089-5.887,11.079-6.875,12.429-14.502c4.356,8.722,19.189,12.209,12.428,25.895c-0.345,0-0.69,0-1.034,0
		C44.521,94.094,34.771,95.907,29.098,93.639z M33.239,92.605c0.525-8.107,5.608-11.656,9.322-16.572
		C35.992,77.416,30.025,84.882,33.239,92.605z M39.454,92.605c0.301-3.543,5.236-7.824,3.107-10.358
		C41.134,84.661,36.916,89.66,39.454,92.605z M44.634,92.605c-0.51-3.34,4.832-6.122,2.07-8.287
		C46.334,86.78,41.706,90.273,44.634,92.605z"/>
	<path fill-rule="evenodd" clip-rule="evenodd" fill="#EAB654" d="M42.562,82.247c2.129,2.535-2.807,6.815-3.107,10.358
		C36.916,89.66,41.134,84.661,42.562,82.247z"/>
	<path fill-rule="evenodd" clip-rule="evenodd" fill="#F1EFEA" d="M85.026,78.104c0,4.143,0,8.287,0,12.43c0,0.343,0,0.688,0,1.034
		c0,6.216,0,12.431,0,18.644c-1.206,0.169-1.844-0.229-2.07-1.035c0-8.979,0-17.954,0-26.93c0-0.346,0-0.692,0-1.035
		c0.631-0.06,1.226-0.156,1.035-1.037C84.222,79.372,84.021,78.132,85.026,78.104z"/>
	<path fill-rule="evenodd" clip-rule="evenodd" fill="#D9A762" d="M61.204,108.139c-0.921-0.457-1.852-0.909-2.07-2.072
		c0.68-7.603-1.37-17.938,1.036-23.82C60.771,90.619,58.907,101.461,61.204,108.139z"/>
	<path fill-rule="evenodd" clip-rule="evenodd" fill="#3F5751" d="M138.885,93.639c-2.891-2.29-3.677-6.68-5.178-10.355
		C136.868,85.298,138.912,88.433,138.885,93.639z"/>
	<path fill-rule="evenodd" clip-rule="evenodd" fill="#EAB654" d="M46.704,84.318c2.762,2.166-2.58,4.947-2.07,8.287
		C41.706,90.273,46.334,86.78,46.704,84.318z"/>
	<path fill-rule="evenodd" clip-rule="evenodd" fill="#C13A39" d="M62.24,93.639c-0.069,10.416,2.851-4.946,0-6.215
		c2.791-3,2.837,9.651,1.036,11.393c-2.266-0.152-2.226-2.609-2.072-5.178C61.549,93.639,61.895,93.639,62.24,93.639z"/>
	<path fill-rule="evenodd" clip-rule="evenodd" fill="#35332B" d="M152.35,85.355c2.335,0.77,0.404,5.81,1.035,8.284
		c-1.392-0.681-1.93-2.214-2.071-4.143C152.848,89.304,152.263,86.993,152.35,85.355z"/>
	<path fill-rule="evenodd" clip-rule="evenodd" fill="#C13A39" d="M85.026,110.211c0-6.213,0-12.428,0-18.644c0.69,0,1.38,0,2.072,0
		c5.887,1.724,18.968,1.724,24.857,0c1.036,0,2.071,0,3.107,0c0.614,2.146-1.28,6.803,1.035,7.249
		c-2.079,2.444-2.729,6.934-1.035,10.359c0,2.761,0,5.521,0,8.284c-0.346,0-0.693,0-1.036,0c-8.631,0-17.265,0-25.893,0
		c-0.346,0-0.692,0-1.036,0c0-0.69,0-1.38,0-2.068c0.344,0,0.69,0,1.036,0c1.035,0,2.071,0,3.105,0
		c-0.66-3.829,1.342-10.32-1.034-12.431c0-0.691,0-1.381,0-2.072c-0.922,0.46-1.854,0.91-2.071,2.072
		C84.93,103.211,89.753,111.488,85.026,110.211z M109.884,115.392c0.69,0,1.381,0,2.072,0c1.809-2.894,1.944-12.958-1.036-14.503
		c-0.059,1.323-1.328,1.435-1.036,3.109C108.167,105.449,108.167,113.941,109.884,115.392z M102.634,102.961
		c0-0.346,0-0.691,0-1.035c-3.321-3.018-4.683,2.204-4.144,6.213c0,0.346,0,0.691,0,1.037c-0.179,3.632-0.856,7.76,4.144,6.216
		c1.717-1.451,1.717-9.943,0-11.394C102.634,103.653,102.634,103.305,102.634,102.961z"/>
	<path fill-rule="evenodd" clip-rule="evenodd" fill="#D9A762" d="M133.707,120.57c-0.843-3.975,13.874-1.297,19.678-2.072
		C149.214,121.576,137.876,117.49,133.707,120.57z"/>
	<path fill-rule="evenodd" clip-rule="evenodd" fill="#C13A39" d="M31.168,99.855c0.804,0.231,2.042,0.029,2.071,1.034
		c-2.071,1.146,1.262,5.563,0,9.322c2.349-1.103,0.393-6.512,1.036-9.322c-0.171-1.696,6.385-1.696,6.215,0
		c-1.714,0.788-1.714,8.537,0,9.322c1.611-1.22,1.51-9.444,1.036-9.322c1.101-2.35,6.51-0.393,9.322-1.034c0,2.071,0,4.144,0,6.212
		c-2.992,1.535-7.478,6.979-4.145,11.394c-0.787,3.011-8.535-0.938-9.32,2.072c-1.382,0-2.764,0-4.145,0c-0.69,0-1.381,0-2.071,0
		C31.168,112.974,31.168,106.413,31.168,99.855z"/>
	<path fill-rule="evenodd" clip-rule="evenodd" fill="#541407" d="M98.49,108.139c-0.539-4.009,0.822-9.23,4.144-6.213
		c0,0.344,0,0.689,0,1.035c-3.697-2.324-0.124,0.728-1.035,4.144c-1.205-0.169-1.845,0.229-2.072,1.034
		C99.181,108.139,98.835,108.139,98.49,108.139z"/>
	<path fill-rule="evenodd" clip-rule="evenodd" fill="#1F0B05" d="M88.135,102.961c0.218-1.162,1.149-1.612,2.071-2.072
		c0,0.691,0,1.381,0,2.072c-2.007,1.557,1.81,4.362-2.071,5.178C88.132,106.413,88.135,104.688,88.135,102.961z"/>
	<path fill-rule="evenodd" clip-rule="evenodd" fill="#1F0B05" d="M98.49,108.139c0.345,0,0.69,0,1.036,0
		c0.228-0.806,0.867-1.203,2.072-1.034c0.911-3.416-2.662-6.468,1.035-4.144c0,0.344,0,0.691,0,1.037c-0.003,1.723,0,3.449,0,5.178
		c-1.533-1.2-2.611-1.2-4.144,0C98.49,108.831,98.49,108.485,98.49,108.139z"/>
	<path fill-rule="evenodd" clip-rule="evenodd" fill="#919890" d="M51.884,105.033c1.819-0.249,2.361-1.783,2.07-4.144
		c2.729,0.723,2.189,4.716,5.18,5.178c0.219,1.163,1.149,1.615,2.07,2.072c0.345,0,0.69,0,1.036,0
		c-0.045,1.771,0.77,2.683,2.072,3.109c0,0.343,0,0.688,0,1.034c0,0.691,0,1.38,0,2.072c0,0.688,0,1.38,0,2.071
		c-1.36,0.367-1.63,1.822-3.108,2.071c-4.487,0-8.977,0-13.464,0c0.19-0.881-0.403-0.977-1.036-1.037
		c-3.333-4.414,1.152-9.858,4.145-11.394C51.728,106.26,51.823,105.665,51.884,105.033z M50.849,111.249
		c0.525,2.578-0.035,6.249,3.105,6.212C54.004,114.305,53.012,112.189,50.849,111.249z"/>
	<path fill-rule="evenodd" clip-rule="evenodd" fill="#541407" d="M109.884,103.999c-0.292-1.675,0.978-1.786,1.036-3.109
		c2.98,1.545,2.845,11.609,1.036,14.503c-0.691,0-1.382,0-2.072,0C109.884,111.591,109.884,107.793,109.884,103.999z"/>
	<path fill-rule="evenodd" clip-rule="evenodd" fill="#666A62" d="M62.24,108.139c0.345,0,0.69,0,1.036,0
		c1.933,3.959,15.033,2.199,18.644,1.037c0.345,0,0.689,0,1.036,0c0.227,0.807,0.864,1.204,2.07,1.035c0,0.346,0,0.691,0,1.037
		c-6.906,0-13.811,0-20.714,0C63.01,110.822,62.195,109.91,62.24,108.139z"/>
	<path fill-rule="evenodd" clip-rule="evenodd" fill="#934B23" d="M64.313,114.355c4.979,2.269,13.583-2.597,17.607,2.071
		c-0.804-6.717-14.732-0.069-15.536-4.144c6.214,0,12.429,0,18.643,0c1.272,0.452,2.127,1.326,2.072,3.109c0,0.688,0,1.378,0,2.068
		c0,0.691,0,1.381,0,2.072c0,3.109,0,6.215,0,9.321c-2.656,4.221,1.305,9.358,0,15.537c0,1.034,0,2.071,0,3.106
		c-7.597,0-15.192,0-22.786,0c1.262-1.567,2.033-8.921,0-10.356c0-0.346,0-0.692,0-1.038c-0.753-2.968,2.617-13.862-2.072-14.499
		c0.168-1.203-0.228-1.843-1.036-2.071c0-0.346,0-0.691,0-1.035c1.479-0.249,1.748-1.704,3.108-2.071
		C64.313,115.735,64.313,115.043,64.313,114.355z M71.562,122.642c-1.719,2.123-1.719,11.339,0,13.461c0,0.346,0,0.692,0,1.038
		C77.7,139.79,75.387,119.275,71.562,122.642z M83.991,123.675c-3.712-7.033-5.015,12.811-1.035,13.466
		c-0.004-1.04,0.838-1.234,1.035-2.071C82.708,133.268,84.783,128.191,83.991,123.675z"/>
	<path fill-rule="evenodd" clip-rule="evenodd" fill="#6D3720" d="M62.24,122.642c0-0.346,0-0.694,0-1.038
		c4.689,0.637,1.319,11.531,2.072,14.499c-0.346,0-0.691,0-1.036,0c0-0.346,0-0.69,0-1.033
		C62.614,131.243,64.618,124.75,62.24,122.642z"/>
	<path fill-rule="evenodd" clip-rule="evenodd" fill="#6D3720" d="M66.384,112.283c0.804,4.074,14.732-2.573,15.536,4.144
		c-4.024-4.668-12.629,0.197-17.607-2.071c0-0.692,0-1.381,0-2.072C65.003,112.283,65.692,112.283,66.384,112.283z"/>
	<path fill-rule="evenodd" clip-rule="evenodd" fill="#C13A39" d="M47.74,120.57c0-0.346,0-0.691,0-1.037c4.487,0,8.977,0,13.464,0
		c0.809,0.229,1.204,0.868,1.036,2.071c0,0.344,0,0.692,0,1.038c0,4.141,0,8.283,0,12.428c-4.534-1.306-9.966-1.306-14.5,0
		c0.136-2.554,0.156-4.991-1.036-6.216c4.827,0.91-1.427-2.686,2.072-3.106c-0.17,1.203,0.227,1.844,1.036,2.072
		c2.663,0.158,0.561-8.568-1.036-4.145c-0.346,0-0.692,0-1.036,0c0-0.345,0-0.69,0-1.033c0-0.346,0-0.694,0-1.038
		C47.74,121.258,47.74,120.913,47.74,120.57z"/>
	<path fill-rule="evenodd" clip-rule="evenodd" fill="#C13A39" d="M87.099,119.533c9.322,0,18.644,0,27.965,0
		c0,3.798,0,7.596,0,11.393c0,0.344,0,0.691,0,1.037c-0.693,0-1.382,0-2.071,0c0.749-3.168-1.788-3.046-1.036-6.215
		c-1.273,0.453-2.128,1.326-2.072,3.106c-1.721,2.803-1.721,12.732,0,15.537c4.362-0.127,1.028-7.949,2.072-11.394
		c0.344,0,0.69,0,1.036,0c0,0.344,0,0.689,0,1.037c0.989,5.267-1.641,10.809,0,13.463c-8.632,0-17.265,0-25.894,0
		c0-1.035,0-2.072,0-3.106c0.344,0,0.69,0,1.036,0c1.035,0,2.071,0,3.105,0c-0.67-4.854,1.355-12.402-1.034-15.537
		c0-1.034,0-2.071,0-3.106c-1.275,0.453-2.129,1.326-2.071,3.106c-0.346,0-0.692,0-1.036,0
		C87.099,125.748,87.099,122.642,87.099,119.533z M101.599,126.783c-0.232-0.804-0.03-2.044-1.036-2.07
		c-0.444,1.972-2.23,2.601-2.072,5.18c0,4.143,0,8.283,0,12.428c-1.044,3.115,2.308,1.835,4.144,2.071
		c1.207-0.174,1.123-1.638,1.036-3.106c2.712-1.282,0.196-19.105,0-8.287c-0.346,0-0.691,0-1.036,0
		C102.77,130.446,102.79,128.006,101.599,126.783z M96.421,134.035c-0.254,1.689,0.393,11.56,1.035,7.25
		C98.136,136.717,96.872,130.983,96.421,134.035z"/>
	<path fill-rule="evenodd" clip-rule="evenodd" fill="#6D3720" d="M71.562,136.103c3.373-0.152,3.373-13.309,0-13.461
		c3.825-3.367,6.139,17.147,0,14.499C71.562,136.795,71.562,136.449,71.562,136.103z"/>
	<path fill-rule="evenodd" clip-rule="evenodd" fill="#6D3720" d="M83.991,135.07c-0.197,0.837-1.039,1.031-1.035,2.071
		c-3.979-0.655-2.677-20.499,1.035-13.466c-0.84-0.196-1.033-1.038-2.071-1.033C82.766,126.364,79.923,137.853,83.991,135.07z"/>
	<path fill-rule="evenodd" clip-rule="evenodd" fill="#C13A39" d="M136.814,120.57c4.504,2.399,13.449,0.355,19.678,1.034
		c0,2.415,0,4.833,0,7.25c-2.618-0.457-3.738,8.984,0,8.287c0,3.452-0.002,6.903,0,10.356c-3.798,0-7.596,0-11.393,0
		c4.899-4.528-3.147-11.315-2.071-18.644c-4.17,2.737-3.7,10.111-5.18,15.537c-2.315-0.447-0.42-5.105-1.034-7.25
		c2.334-0.772,0.404-5.81,1.034-8.287c-2.211-0.483-1.975,1.479-2.07,3.108c-0.348,0-0.693,0-1.036,0c-0.69,0-1.381,0-2.071,0
		c1.918-2.225,0.697-7.587,1.036-11.393C134.742,120.57,135.778,120.57,136.814,120.57z M155.457,146.462
		c-0.571-7.544-1.57-10.748-4.144-17.608c0.396,7.447-4.683,13.518-1.035,17.608C152.004,146.462,153.729,146.462,155.457,146.462z
		 M149.242,137.141c-1.921-2.479,2.198-6.886-2.072-8.287C148.022,131.454,145.155,137.773,149.242,137.141z"/>
	<path fill-rule="evenodd" clip-rule="evenodd" fill="#1F0B05" d="M101.599,126.783c1.191,1.224,1.171,3.663,1.035,6.215
		c0,3.451-0.003,6.904,0,10.358C100.146,143.133,101.906,128.682,101.599,126.783z"/>
	<path fill-rule="evenodd" clip-rule="evenodd" fill="#541407" d="M109.884,128.854c-0.056-1.78,0.799-2.653,2.072-3.106
		c-0.752,3.169,1.785,3.047,1.036,6.215c0,0.344,0,0.689,0,1.035c-0.346,0-0.692,0-1.036,0c-3.012,0.787,0.938,8.533-2.072,9.322
		C109.884,137.83,109.884,133.341,109.884,128.854z"/>
	<path fill-rule="evenodd" clip-rule="evenodd" fill="#541407" d="M35.312,128.854c1.43,0.508,2.513,9.338-1.036,8.287
		C34.399,134.157,33.709,130.359,35.312,128.854z"/>
	<path fill-rule="evenodd" clip-rule="evenodd" fill="#541407" d="M45.67,136.103c0.614-2.144-1.281-6.802,1.034-7.249
		c1.192,1.225,1.172,3.662,1.036,6.216c-0.882-0.19-0.977,0.402-1.036,1.033C46.358,136.103,46.013,136.103,45.67,136.103z"/>
	<path fill-rule="evenodd" clip-rule="evenodd" fill="#541407" d="M147.17,128.854c4.271,1.401,0.151,5.808,2.072,8.287
		C145.155,137.773,148.022,131.454,147.17,128.854z"/>
	<path fill-rule="evenodd" clip-rule="evenodd" fill="#919890" d="M22.883,149.569c48.245-0.099,93.872,0.205,137.752,0
		c0.681,6.915-1.367,16.559,1.036,21.752c0.88-0.191,0.975,0.4,1.036,1.035c-0.691,0-1.382,0-2.072,0
		c-43.502-1.729-94.251-1.729-137.752,0c-0.691,0-1.382,0-2.071,0c-0.192-0.881,0.402-0.979,1.035-1.035
		C24.248,166.127,22.202,156.484,22.883,149.569z M28.062,150.606c-2.341,0.687-5.19,3.111-3.107,5.178
		c-0.059,1.324-1.328,1.436-1.035,3.106c0,1.381,0,2.761,0,4.144c2.071,0,4.143,0,6.215,0
		C29.411,158.921,31.938,151.563,28.062,150.606z M33.239,151.641c-1.715,1.117-1.715,9.24,0,10.357c0.69,0,1.381,0,2.072,0
		c3.98,0.255,1.978-8.897,1.036-10.357C35.312,151.641,34.275,151.641,33.239,151.641z M44.634,151.641c-1.382,0-2.764,0-4.144,0
		c-0.293,5.45,1.096,6.14,0,10.357C47.73,162.339,44.185,156.522,44.634,151.641z M48.776,152.678
		c-2.362,1.435-0.388,7.208-1.036,10.355c2.072,0,4.144,0,6.214,0c-0.65-3.147,1.327-8.921-1.036-10.355
		C52.762,150.099,49.411,152.374,48.776,152.678z M60.17,151.641c-5.414-4.328-4.137,6.875-4.144,11.393c1.727,0,3.45,0,5.178,0
		c1.716-1.45,1.716-9.942,0-11.393C60.858,151.641,60.513,151.641,60.17,151.641z M65.349,161.999
		c0.047,4.612,9.576-3.077,4.144-7.252c0.186-2.258-0.851-3.293-3.108-3.105C64.021,153.078,65.997,158.851,65.349,161.999z
		 M76.742,151.641c-1.036,0-2.072,0-3.108,0c-1.604,4.572,0.447,6.712-1.036,10.357c1.727,0,3.452,0,5.179,0
		C76.673,157.778,78.522,155.972,76.742,151.641z M80.884,153.712c-0.346,0-0.691,0-1.036,0c0,3.106,0,6.216,0,9.321
		c2.072,0,4.144,0,6.215,0c-0.65-3.147,1.325-8.921-1.036-10.355c-0.156-2.579-3.508-0.305-4.143,0
		C80.884,153.021,80.884,153.367,80.884,153.712z M91.24,150.606c-0.691,0-1.382,0-2.07,0c-1.986,2.5-0.656,8.32-1.035,12.428
		c2.071,0,4.142,0,6.214,0C93.462,158.74,96.729,150.297,91.24,150.606z M96.421,152.678c0.606,3.876-0.785,9.758,4.142,9.32
		c2.033-1.437,1.263-8.79,0-10.357C98.759,151.563,97.34,151.872,96.421,152.678z M105.742,151.641
		c-1.564,5.24,0.905,5.495-1.036,10.357c1.502-0.565,5.353,1.21,5.178-1.036c-0.687-1.864-0.748-5.459,0-9.321
		C108.503,151.641,107.121,151.641,105.742,151.641z M126.457,161.999c-0.867-2.217-1.059-5.028-1.036-10.357
		c-1.552,0.177-3.824-0.369-4.145,1.037c-2.362,1.435-0.385,7.208-1.035,10.355C122.062,162.436,126.326,164.287,126.457,161.999z
		 M129.563,153.712c-0.406,4.845-0.63,3.442-1.036,8.286c1.727,0,3.453,0,5.181,0c0-1.036,0-2.07,0-3.108
		c-0.013-2.75,0.389-5.913-1.036-7.249C131.042,151.739,129.078,151.5,129.563,153.712z M140.956,151.641c-1.035,0-2.071,0-3.107,0
		c-0.28,3.517,0.803,8.396-1.034,10.357c1.725,0,3.45,0,5.178,0C141.711,158.48,142.793,153.601,140.956,151.641z M149.242,151.641
		c-0.691,0-1.382,0-2.072,0c-5.157,0.309,0.178,9.519-2.07,10.357c1.38,0,2.761,0,4.143,0
		C150.955,160.881,150.955,152.758,149.242,151.641z M154.421,151.641c-4.02-1.079-2.001,13.152-1.036,10.357
		c1.727,0,3.451,0,5.179,0C158.212,157.515,160.094,150.799,154.421,151.641z M24.954,164.069c0.301,2.808-1.458,7.671,3.107,6.215
		C30.505,168.765,29.233,162.291,24.954,164.069z M37.384,170.284c0.135-2.552,0.156-4.991-1.036-6.215c-1.036,0-2.072,0-3.108,0
		C30.901,166.711,32.264,171.931,37.384,170.284z M40.49,165.106c0,1.727-0.002,3.451,0,5.178c1.726,0,3.452,0,5.18,0
		c0.134-2.552,0.155-4.991-1.036-6.215C42.673,163.837,42.348,165.236,40.49,165.106z M48.776,164.069
		c-2.288,0.13-0.441,4.395-1.036,6.215c2.554,0.136,4.988,0.156,6.214-1.035c0.094-2.825-1.725-2.087,0-4.143
		C51.459,165.529,51.704,163.213,48.776,164.069z M59.134,164.069c-3.474-1.129-3.307,8.619,1.036,6.215
		C61.749,170.265,62.438,162.611,59.134,164.069z M69.492,170.284c0.135-2.552,0.153-4.991-1.036-6.215c-1.036,0-2.072,0-3.107,0
		C63.01,166.711,64.371,171.931,69.492,170.284z M72.598,170.284c1.727,0,3.452,0,5.179,0c0.041-3.15,0.602-6.815-3.106-6.215
		C72.021,164.185,72.612,167.536,72.598,170.284z M80.884,164.069c0,2.071,0,4.143,0,6.215c1.381,0,2.762,0,4.143,0
		c0.869-1.203,1.367-2.776,1.036-5.178C83.619,163.772,84.135,165.241,80.884,164.069z M89.17,164.069c0,2.071,0,4.143,0,6.215
		c1.379,0,2.761,0,4.143,0c-0.597-1.82,1.25-6.085-1.036-6.215C91.852,165.836,90.939,163.851,89.17,164.069z M96.421,165.106
		c1.17,3.252-0.301,2.734,1.035,5.178c1.725,0,3.451,0,5.178,0c0-2.072,0-4.144,0-6.215
		C99.481,165.615,98.606,163.73,96.421,165.106z M105.742,164.069c-1.195,1.224-1.174,3.663-1.036,6.215c1.727,0,3.451,0,5.178,0
		c-0.015-2.748,0.574-6.099-2.07-6.215C107.593,165.321,106.662,164.708,105.742,164.069z M112.992,170.284
		c5.117,1.647,6.479-3.572,4.143-6.215c-1.036,0-2.071,0-3.107,0C112.834,165.292,112.854,167.732,112.992,170.284z
		 M125.421,164.069c-4.405-0.949-4.425,2.481-4.145,6.215C126.276,171.831,125.6,167.7,125.421,164.069z M128.526,166.14
		c1.534,0.192,0.949,2.503,1.036,4.144c1.727,0,3.453,0,5.18,0c0-2.072,0-4.144,0-6.215
		C131.995,164.086,128.643,163.494,128.526,166.14z M137.849,164.069c-1.193,1.224-1.173,3.663-1.034,6.215
		c2.134-0.626,7.191,1.671,6.214-2.072C141.466,166.665,141.454,163.569,137.849,164.069z M145.1,170.284c1.38,0,2.761,0,4.143,0
		c0.868-1.203,1.365-2.776,1.036-5.178c-2.114-1.81-2.032,0.769-4.143-1.037C144.941,165.292,144.962,167.732,145.1,170.284z
		 M153.385,164.069c0,2.071,0,4.143,0,6.215c1.38,0,2.761,0,4.144,0C159.195,168.311,158.323,162.599,153.385,164.069z
		 M115.063,161.999c4.287,0.146,1.077-7.208,2.071-10.357c-1.036,0-2.071,0-3.107,0
		C113.085,153.101,111.082,162.253,115.063,161.999z"/>
	<path fill-rule="evenodd" clip-rule="evenodd" fill="#3F5751" d="M61.204,163.034c-1.728,0-3.451,0-5.178,0
		c0.007-4.518-1.271-15.721,4.144-11.393c-0.693,0-1.382,0-2.071,0c-2.363,1.437-0.388,7.21-1.036,10.357c1.378,0,2.761,0,4.142,0
		C61.204,162.342,61.204,162.688,61.204,163.034z"/>
	<path fill-rule="evenodd" clip-rule="evenodd" fill="#666A62" d="M69.492,154.747c5.433,4.175-4.097,11.864-4.144,7.252
		C70.909,163.762,69.376,158.43,69.492,154.747z"/>
	<path fill-rule="evenodd" clip-rule="evenodd" fill="#666A62" d="M94.349,163.034c-2.072,0-4.143,0-6.214,0
		c0.379-4.107-0.951-9.928,1.035-12.428c0.688,0,1.379,0,2.07,0C96.729,150.297,93.462,158.74,94.349,163.034z M89.17,151.641
		c0.991,3.149-2.219,10.504,2.07,10.357c4.29,0.146,1.079-7.208,2.072-10.357C91.931,151.641,90.549,151.641,89.17,151.641z"/>
	<path fill-rule="evenodd" clip-rule="evenodd" fill="#1F0B05" d="M24.954,155.784c-2.083-2.066,0.767-4.491,3.107-5.178
		c0.716,2.446,2.394,9.265,0,11.393c0-3.108,0-6.215,0-9.32C22.841,152.111,29.582,159.319,24.954,155.784z"/>
	<path fill-rule="evenodd" clip-rule="evenodd" fill="#541407" d="M48.776,152.678c0.635-0.305,3.985-2.579,4.142,0
		c-0.931,2.864,2.128,9.722-2.069,9.32C46.647,162.4,49.707,155.542,48.776,152.678z"/>
	<path fill-rule="evenodd" clip-rule="evenodd" fill="#541407" d="M65.349,161.999c0.648-3.147-1.328-8.921,1.035-10.357
		c2.258-0.188,3.294,0.848,3.108,3.105C69.376,158.43,70.909,163.762,65.349,161.999z"/>
	<path fill-rule="evenodd" clip-rule="evenodd" fill="#1F0B05" d="M80.884,153.712c0-0.346,0-0.691,0-1.034
		c0.635-0.305,3.986-2.579,4.143,0c0,0.343,0,0.688,0,1.034c-0.833-0.549-1.682-1.081-3.106-1.034
		c0.313,2.414,2.21,4.46-1.036,5.178C80.884,156.473,80.884,155.092,80.884,153.712z"/>
	<path fill-rule="evenodd" clip-rule="evenodd" fill="#541407" d="M93.313,151.641c-0.993,3.149,2.218,10.504-2.072,10.357
		c-4.289,0.146-1.079-7.208-2.07-10.357C90.549,151.641,91.931,151.641,93.313,151.641z"/>
	<path fill-rule="evenodd" clip-rule="evenodd" fill="#541407" d="M114.027,151.641c1.036,0,2.071,0,3.107,0
		c-0.994,3.149,2.216,10.504-2.071,10.357C111.082,162.253,113.085,153.101,114.027,151.641z"/>
	<path fill-rule="evenodd" clip-rule="evenodd" fill="#1F0B05" d="M129.563,153.712c-0.484-2.212,1.479-1.974,3.108-2.071
		c1.425,1.336,1.023,4.499,1.036,7.249c-2.887-1.037-1.328-4.18-1.036-6.212C131.245,152.631,130.395,153.164,129.563,153.712z"/>
	<path fill-rule="evenodd" clip-rule="evenodd" fill="#541407" d="M40.49,161.999c1.096-4.218-0.293-4.907,0-10.357
		c1.38,0,2.762,0,4.144,0C44.185,156.522,47.73,162.339,40.49,161.999z"/>
	<path fill-rule="evenodd" clip-rule="evenodd" fill="#541407" d="M77.776,161.999c-1.727,0-3.452,0-5.179,0
		c1.483-3.646-0.567-5.785,1.036-10.357c1.036,0,2.072,0,3.108,0C78.522,155.972,76.673,157.778,77.776,161.999z"/>
	<path fill-rule="evenodd" clip-rule="evenodd" fill="#6D3720" d="M33.239,164.069c1.036,0,2.072,0,3.108,0
		c1.192,1.224,1.171,3.663,1.036,6.215C32.264,171.931,30.901,166.711,33.239,164.069z"/>
	<path fill-rule="evenodd" clip-rule="evenodd" fill="#6D3720" d="M65.349,164.069c1.035,0,2.071,0,3.107,0
		c1.189,1.224,1.171,3.663,1.036,6.215C64.371,171.931,63.01,166.711,65.349,164.069z"/>
	<path fill-rule="evenodd" clip-rule="evenodd" fill="#6D3720" d="M74.67,164.069c3.708-0.601,3.147,3.064,3.106,6.215
		c-1.727,0-3.452,0-5.179,0C72.612,167.536,72.021,164.185,74.67,164.069z"/>
	<path fill-rule="evenodd" clip-rule="evenodd" fill="#6D3720" d="M134.742,164.069c0,2.071,0,4.143,0,6.215
		c-1.727,0-3.453,0-5.18,0c-0.087-1.641,0.498-3.951-1.036-4.144C128.643,163.494,131.995,164.086,134.742,164.069z"/>
	<path fill-rule="evenodd" clip-rule="evenodd" fill="#3F5751" d="M96.421,10.781c1.331,1.427,4.496,1.027,7.249,1.036
		c0,2.416,0,4.833,0,7.25c-1.226-1.194-3.661-1.173-6.214-1.036C98.054,14.67,96.749,13.212,96.421,10.781z"/>
	<path fill-rule="evenodd" clip-rule="evenodd" fill="#541407" d="M98.49,70.854c-0.713-5.203,0.617-8.361,2.072-11.394
		c2.265,0.152,2.224,2.61,2.071,5.18c-0.346,0-0.69,0-1.035,0C102.497,68.646,99.865,69.12,98.49,70.854z"/>
	<path fill-rule="evenodd" clip-rule="evenodd" fill="#541407" d="M92.276,61.532c0,3.798,0,7.594,0,11.393
		c-0.346,0-0.691,0-1.036,0c-1.368-0.012-0.945-1.817-2.07-2.071c0.347-4.143-1.333-10.309,3.106-10.358
		C92.276,60.841,92.276,61.187,92.276,61.532z"/>
	<path fill-rule="evenodd" clip-rule="evenodd" fill="#541407" d="M80.884,87.424c-0.993,3.15,2.217,10.505-2.071,10.359
		C79.803,94.632,76.593,87.279,80.884,87.424z"/>
	<path fill-rule="evenodd" clip-rule="evenodd" fill="#EAB886" d="M85.026,90.534c10.013,0,20.022,0,30.037,0
		c0,0.343,0,0.688,0,1.034c-1.036,0-2.071,0-3.107,0c-8.286,0-16.571,0-24.857,0c-0.692,0-1.382,0-2.072,0
		C85.026,91.222,85.026,90.876,85.026,90.534z"/>
	<path fill-rule="evenodd" clip-rule="evenodd" fill="#E85052" d="M153.385,95.711c0,7.594,0,15.191,0,22.786
		c-5.804,0.775-20.521-1.902-19.678,2.072c-0.339,3.806,0.882,9.168-1.036,11.393c-5.196-0.675-13.096,1.357-16.572-1.037
		c0.547-6.357-1.185-14.993,1.036-19.677c7.98-1.193,12.006,1.388,18.644-3.109c0.469-5.648-0.442-9.916-4.144-11.393
		c-0.192-0.883,0.402-0.975,1.036-1.035C143.814,94.466,145.145,95.134,153.385,95.711z M143.028,100.889
		c-4.363,0.128-1.029,7.949-2.072,11.394C145.318,112.156,141.984,104.336,143.028,100.889z M126.457,123.675
		c-0.486-3.659,1.69-9.978-3.108-9.32C123.832,118.011,121.655,124.333,126.457,123.675z"/>
	<path fill-rule="evenodd" clip-rule="evenodd" fill="#C13A39" d="M34.275,98.817c-1.036,0-2.069,0-3.107,0
		c2.012-3.407,17.668-3.407,19.681,0c-2.167,0.439-2.744-0.708-4.145-1.033C42.878,98.443,36.387,96.442,34.275,98.817z"/>
	<path fill-rule="evenodd" clip-rule="evenodd" fill="#D9A762" d="M51.884,95.711c0,3.105,0,6.215,0,9.321
		c-0.061,0.632-0.156,1.228-1.035,1.034c0-2.068,0-4.141,0-6.212c-2.813,0.642-8.222-1.315-9.322,1.034c-0.347,0-0.692,0-1.036,0
		c0.17-1.696-6.386-1.696-6.215,0c-0.346,0-0.69,0-1.036,0c-0.029-1.005-1.268-0.803-2.071-1.034c-0.346,0-0.691,0-1.034,0
		c0-1.384,0-2.763,0-4.144C37.384,95.711,44.634,95.711,51.884,95.711z M46.704,97.784c1.4,0.325,1.978,1.473,4.145,1.033
		c-2.013-3.407-17.669-3.407-19.681,0c1.038,0,2.071,0,3.107,0C38.104,98.158,44.593,100.159,46.704,97.784z"/>
	<path fill-rule="evenodd" clip-rule="evenodd" fill="#17AC45" d="M116.099,98.817c2.213-4,8.92-3.508,8.286-10.355
		c2.375,2.802,3.669,6.686,7.25,8.285c3.701,1.477,4.612,5.744,4.144,11.393c-6.638,4.497-10.663,1.916-18.644,3.109
		c-0.46-0.923-0.91-1.854-2.071-2.072C113.37,105.75,114.02,101.261,116.099,98.817z"/>
	<path fill-rule="evenodd" clip-rule="evenodd" fill="#541407" d="M33.239,100.889c0.346,0,0.69,0,1.036,0
		c-0.644,2.811,1.313,8.22-1.036,9.322C34.501,106.453,31.168,102.036,33.239,100.889z"/>
	<path fill-rule="evenodd" clip-rule="evenodd" fill="#541407" d="M41.526,100.889c0.474-0.122,0.575,8.103-1.036,9.322
		c-1.714-0.785-1.714-8.534,0-9.322C40.834,100.889,41.18,100.889,41.526,100.889z"/>
	<path fill-rule="evenodd" clip-rule="evenodd" fill="#541407" d="M140.956,112.283c1.043-3.444-2.291-11.266,2.072-11.394
		C141.984,104.336,145.318,112.156,140.956,112.283z"/>
	<path fill-rule="evenodd" clip-rule="evenodd" fill="#E85052" d="M81.92,109.176c-4.654-1.876-13.188-3.15-18.644-1.037
		c-0.346,0-0.691,0-1.036,0c-0.346,0-0.691,0-1.036,0c-2.297-6.678-0.434-17.52-1.034-25.893c7.593,0,15.189,0,22.786,0
		c0,8.976,0,17.951,0,26.93C82.609,109.176,82.265,109.176,81.92,109.176z M62.24,87.424c0,2.072,0,4.144,0,6.215
		c-0.346,0-0.691,0-1.036,0c-0.153,2.568-0.193,5.025,2.072,5.178C65.077,97.076,65.031,84.425,62.24,87.424z M71.562,87.424
		c-3.337-0.671-3.337,11.03,0,10.359C73.276,96.666,73.276,88.542,71.562,87.424z M78.813,97.784
		c4.288,0.146,1.078-7.209,2.071-10.359C76.593,87.279,79.803,94.632,78.813,97.784z"/>
	<path fill-rule="evenodd" clip-rule="evenodd" fill="#6D3720" d="M85.026,110.211c4.727,1.276-0.097-7,3.108-7.25
		c0,1.727-0.003,3.451,0,5.178c0,2.418,0,4.835,0,7.253c-0.346,0-0.692,0-1.036,0c0.055-1.783-0.8-2.657-2.072-3.109
		c0-0.346,0-0.691,0-1.034C85.026,110.903,85.026,110.557,85.026,110.211z"/>
	<path fill-rule="evenodd" clip-rule="evenodd" fill="#F1EFEA" d="M64.313,111.249c6.903,0,13.808,0,20.714,0
		c0,0.343,0,0.688,0,1.034c-6.214,0-12.429,0-18.643,0c-0.691,0-1.381,0-2.071,0C64.313,111.937,64.313,111.591,64.313,111.249z"/>
	<path fill-rule="evenodd" clip-rule="evenodd" fill="#541407" d="M102.634,109.176c0,2.072,0,4.144,0,6.216
		c-5,1.544-4.322-2.584-4.144-6.216C100.022,107.976,101.101,107.976,102.634,109.176z"/>
	<path fill-rule="evenodd" clip-rule="evenodd" fill="#541407" d="M88.135,115.392c0-2.418,0-4.835,0-7.253
		c3.881-0.815,0.064-3.621,2.071-5.178c2.376,2.11,0.374,8.602,1.034,12.431C90.206,115.392,89.17,115.392,88.135,115.392z"/>
	<path fill-rule="evenodd" clip-rule="evenodd" fill="#666A62" d="M53.954,117.46c-3.141,0.037-2.58-3.634-3.105-6.212
		C53.012,112.189,54.004,114.305,53.954,117.46z"/>
	<path fill-rule="evenodd" clip-rule="evenodd" fill="#C13A39" d="M123.349,114.355c4.799-0.657,2.622,5.661,3.108,9.32
		C121.655,124.333,123.832,118.011,123.349,114.355z"/>
	<path fill-rule="evenodd" clip-rule="evenodd" fill="#934B23" d="M47.74,118.498c0,0.344,0,0.689,0,1.035s0,0.691,0,1.037
		c-1.96-1.841-6.841-0.757-10.356-1.037c0.785-3.01,8.533,0.938,9.32-2.072C47.337,117.521,47.931,117.617,47.74,118.498z"/>
	<path fill-rule="evenodd" clip-rule="evenodd" fill="#D9A762" d="M47.74,118.498c4.487,0,8.977,0,13.464,0c0,0.344,0,0.689,0,1.035
		c-4.487,0-8.977,0-13.464,0C47.74,119.187,47.74,118.841,47.74,118.498z"/>
	<path fill-rule="evenodd" clip-rule="evenodd" fill="#AF875F" d="M31.168,99.855c0,6.558,0,13.119,0,19.678c0.69,0,1.381,0,2.071,0
		c-0.167,1.214-1.888,0.873-3.105,1.037c0-6.907,0-13.811,0-20.715C30.477,99.855,30.822,99.855,31.168,99.855z"/>
	<path fill-rule="evenodd" clip-rule="evenodd" fill="#EAB886" d="M115.063,130.925c0-3.797,0-7.595,0-11.393
		c0-0.691,0-1.381,0-2.072c0-2.763,0-5.523,0-8.284c1.161,0.218,1.611,1.149,2.071,2.072c-2.221,4.684-0.489,13.319-1.036,19.677
		C115.753,130.925,115.406,130.925,115.063,130.925z"/>
	<path fill-rule="evenodd" clip-rule="evenodd" fill="#EAB886" d="M28.062,122.642c6.559,0,13.118,0,19.679,0
		c0,0.343,0,0.688,0,1.033c-6.906,0-13.811,0-20.714,0C26.833,122.794,27.429,122.699,28.062,122.642z"/>
	<path fill-rule="evenodd" clip-rule="evenodd" fill="#6D3720" d="M48.776,123.675c1.597-4.424,3.699,4.303,1.036,4.145
		c-0.81-0.229-1.206-0.869-1.036-2.072C48.776,125.056,48.776,124.365,48.776,123.675z"/>
	<path fill-rule="evenodd" clip-rule="evenodd" fill="#541407" d="M71.562,122.642c3.373,0.152,3.373,13.309,0,13.461
		C69.843,133.981,69.843,124.765,71.562,122.642z"/>
	<path fill-rule="evenodd" clip-rule="evenodd" fill="#D9A762" d="M25.99,147.498c0.68-7.604-1.37-17.941,1.036-23.822
		c-0.002,1.727,0,3.453,0,5.179c0,2.763,0,5.524,0,8.287c-0.002,3.452,0,6.903,0,10.356
		C26.681,147.498,26.335,147.498,25.99,147.498z"/>
	<path fill-rule="evenodd" clip-rule="evenodd" fill="#E85052" d="M46.704,128.854c-2.315,0.447-0.42,5.105-1.034,7.249
		c0.028,1.01,1.265,0.804,2.07,1.038c-4.448,4.042-5.292-4.331-6.214-7.249c-4.05,3.891-1.388,14.493-7.251,16.57
		c0.332-6.548-2.66-9.769-2.069-16.57c-3.317,3.933-2.308,12.196-4.145,17.605c-0.346,0-0.691,0-1.035,0
		c0-3.453-0.002-6.904,0-10.356c3.736,0.697,2.616-8.744,0-8.287c0-1.726-0.002-3.452,0-5.179c6.903,0,13.808,0,20.714,0
		c0.344,0,0.69,0,1.036,0c0,0.689,0,1.381,0,2.072C45.277,126.168,51.531,129.764,46.704,128.854z M34.275,137.141
		c3.549,1.051,2.466-7.779,1.036-8.287C33.709,130.359,34.399,134.157,34.275,137.141z"/>
	<path fill-rule="evenodd" clip-rule="evenodd" fill="#6D3720" d="M87.099,144.391c1.305-6.179-2.656-11.316,0-15.537
		c0.344,0,0.69,0,1.036,0c0,4.144,0,8.287,0,12.431c0,1.035,0,2.071,0,3.106C87.789,144.391,87.442,144.391,87.099,144.391z"/>
	<path fill-rule="evenodd" clip-rule="evenodd" fill="#541407" d="M135.778,131.962c0.096-1.629-0.141-3.592,2.07-3.108
		c-0.63,2.478,1.3,7.515-1.034,8.287c0-1.038,0-2.071,0-3.106C136.614,133.196,135.774,133,135.778,131.962z"/>
	<path fill-rule="evenodd" clip-rule="evenodd" fill="#EAB886" d="M135.778,131.962c-0.004,1.038,0.836,1.233,1.036,2.072
		c-7.943,0-15.884,0-23.822,0c0-0.348,0-0.693,0-1.037c0-0.346,0-0.691,0-1.035c0.689,0,1.378,0,2.071,0
		c4.169,1.722,15.507,1.722,19.679,0C135.085,131.962,135.431,131.962,135.778,131.962z"/>
	<path fill-rule="evenodd" clip-rule="evenodd" fill="#541407" d="M27.026,137.141c0-2.763,0-5.524,0-8.287
		C29.643,128.397,30.763,137.838,27.026,137.141z"/>
	<path fill-rule="evenodd" clip-rule="evenodd" fill="#D9A762" d="M46.704,136.103c5.523,0,11.049,0,16.572,0
		c0.345,0,0.69,0,1.036,0c0,0.346,0,0.692,0,1.038c-5.524,0-11.05,0-16.572,0c-0.806-0.234-2.042-0.028-2.07-1.038
		C46.013,136.103,46.358,136.103,46.704,136.103z"/>
	<path fill-rule="evenodd" clip-rule="evenodd" fill="#C13A39" d="M47.74,137.141c5.522,0,11.048,0,16.572,0
		c2.033,1.436,1.262,8.789,0,10.356c-12.085,0-24.169,0-36.251,0c1.837-5.409,0.827-13.673,4.145-17.605
		c-0.591,6.802,2.401,10.022,2.069,16.57c5.863-2.077,3.201-12.68,7.251-16.57C42.448,132.81,43.292,141.183,47.74,137.141z"/>
	<path fill-rule="evenodd" clip-rule="evenodd" fill="#541407" d="M88.135,144.391c0-1.035,0-2.071,0-3.106
		c2.437-2.396-0.09-9.756,2.071-12.431c2.39,3.135,0.364,10.684,1.034,15.537C90.206,144.391,89.17,144.391,88.135,144.391z"/>
	<path fill-rule="evenodd" clip-rule="evenodd" fill="#1F0B05" d="M109.884,144.391c0-0.692,0-1.384,0-2.071
		c3.011-0.789-0.939-8.535,2.072-9.322C110.912,136.442,114.246,144.264,109.884,144.391z"/>
	<path fill-rule="evenodd" clip-rule="evenodd" fill="#E85052" d="M145.1,147.498c-10.702,0-21.407,0-32.107,0
		c-1.641-2.654,0.989-8.196,0-13.463c7.938,0,15.879,0,23.822,0c0,1.035,0,2.068,0,3.106c0.614,2.145-1.281,6.803,1.034,7.25
		c1.479-5.426,1.01-12.8,5.18-15.537C141.952,136.182,149.999,142.969,145.1,147.498z"/>
	<path fill-rule="evenodd" clip-rule="evenodd" fill="#EAD3B9" d="M156.492,147.498c-0.002-3.453,0-6.904,0-10.356
		c0-2.763,0-5.524,0-8.287c0-2.417,0-4.835,0-7.25c-4.507-2.398-13.452-0.358-19.678-1.034c-1.036,0-2.072,0-3.107,0
		c4.169-3.08,15.507,1.006,19.678-2.072c0-7.595,0-15.192,0-22.786c0.458-0.923,0.909-1.854,2.072-2.072
		c-4.442,18.997,4.932,33.006,2.071,53.858C157.182,147.498,156.836,147.498,156.492,147.498z"/>
	<path fill-rule="evenodd" clip-rule="evenodd" fill="#3F5751" d="M160.635,149.569c-43.88,0.205-89.507-0.099-137.752,0
		c-0.169-1.204,0.228-1.843,1.036-2.071c0.689,0,1.38,0,2.071,0c0.345,0,0.69,0,1.036,0c0.344,0,0.689,0,1.035,0
		c12.082,0,24.166,0,36.251,0c7.594,0,15.189,0,22.786,0c8.629,0,17.262,0,25.894,0c10.7,0,21.405,0,32.107,0
		c3.797,0,7.595,0,11.393,0c0.344,0,0.689,0,1.036,0c0.689,0,1.379,0,2.07,0C160.605,147.526,160.402,148.766,160.635,149.569z"/>
	<path fill-rule="evenodd" clip-rule="evenodd" fill="#35332B" d="M33.239,151.641c0,3.451,0,6.903,0,10.357
		C31.524,160.881,31.524,152.758,33.239,151.641z"/>
	<path fill-rule="evenodd" clip-rule="evenodd" fill="#35332B" d="M149.242,161.999c0-3.454-0.002-6.906,0-10.357
		C150.955,152.758,150.955,160.881,149.242,161.999z"/>
	<path fill-rule="evenodd" clip-rule="evenodd" fill="#666A62" d="M61.204,161.999c-0.001-3.454,0-6.906,0-10.357
		c1.716,1.45,1.716,9.942,0,11.393C61.204,162.688,61.204,162.342,61.204,161.999z"/>
	<path fill-rule="evenodd" clip-rule="evenodd" fill="#666A62" d="M48.776,152.678c0.931,2.864-2.129,9.722,2.072,9.32
		c4.197,0.401,1.139-6.456,2.069-9.32c2.363,1.435,0.386,7.208,1.036,10.355c-2.07,0-4.142,0-6.214,0
		C48.389,159.886,46.414,154.113,48.776,152.678z"/>
	<path fill-rule="evenodd" clip-rule="evenodd" fill="#541407" d="M85.026,153.712c0,2.761,0,5.524,0,8.286
		c-1.381,0-2.762,0-4.143,0c0-1.382,0-2.762,0-4.143c3.246-0.718,1.35-2.764,1.036-5.178
		C83.345,152.631,84.193,153.164,85.026,153.712z"/>
	<path fill-rule="evenodd" clip-rule="evenodd" fill="#541407" d="M28.062,161.999c-1.035,0-2.071,0-3.107,0
		c0.088-1.47,0.17-2.935-1.035-3.108c-0.293-1.671,0.977-1.782,1.035-3.106c4.628,3.535-2.113-3.673,3.107-3.105
		C28.062,155.784,28.062,158.89,28.062,161.999z"/>
	<path fill-rule="evenodd" clip-rule="evenodd" fill="#541407" d="M133.707,158.89c0,1.038,0,2.072,0,3.108
		c-1.728,0-3.454,0-5.181,0c0.406-4.844,0.63-3.441,1.036-8.286c0.832-0.549,1.683-1.081,3.108-1.034
		C132.379,154.71,130.82,157.853,133.707,158.89z"/>
	<path fill-rule="evenodd" clip-rule="evenodd" fill="#666A62" d="M23.919,158.89c1.205,0.174,1.123,1.639,1.035,3.108
		c1.036,0,2.072,0,3.107,0c2.394-2.128,0.716-8.946,0-11.393c3.876,0.957,1.35,8.315,2.072,12.428c-2.072,0-4.144,0-6.215,0
		C23.919,161.651,23.919,160.271,23.919,158.89z"/>
	<path fill-rule="evenodd" clip-rule="evenodd" fill="#666A62" d="M80.884,157.856c0,1.381,0,2.761,0,4.143c1.381,0,2.762,0,4.143,0
		c0-2.762,0-5.525,0-8.286c0-0.346,0-0.691,0-1.034c2.361,1.435,0.386,7.208,1.036,10.355c-2.071,0-4.143,0-6.215,0
		c0-3.105,0-6.215,0-9.321c0.345,0,0.69,0,1.036,0C80.884,155.092,80.884,156.473,80.884,157.856z"/>
	<path fill-rule="evenodd" clip-rule="evenodd" fill="#666A62" d="M121.276,152.678c0.203,4.626-1.876,11.542,5.181,9.32
		c-0.131,2.288-4.396,0.438-6.216,1.035C120.892,159.886,118.914,154.113,121.276,152.678z"/>
	<path fill-rule="evenodd" clip-rule="evenodd" fill="#666A62" d="M153.385,161.999c-0.965,2.795-2.983-11.437,1.036-10.357
		C152.583,153.601,153.665,158.48,153.385,161.999z"/>
	<path fill-rule="evenodd" clip-rule="evenodd" fill="#6D3720" d="M86.063,165.106c0.331,2.401-0.167,3.975-1.036,5.178
		c-1.381,0-2.762,0-4.143,0c0-2.072,0-4.144,0-6.215C84.135,165.241,83.619,163.772,86.063,165.106z"/>
	<path fill-rule="evenodd" clip-rule="evenodd" fill="#6D3720" d="M92.276,164.069c2.286,0.13,0.439,4.395,1.036,6.215
		c-1.382,0-2.764,0-4.143,0c0-2.072,0-4.144,0-6.215C90.939,163.851,91.852,165.836,92.276,164.069z"/>
	<path fill-rule="evenodd" clip-rule="evenodd" fill="#6D3720" d="M102.634,164.069c0,2.071,0,4.143,0,6.215
		c-1.727,0-3.453,0-5.178,0c-1.336-2.443,0.135-1.926-1.035-5.178C98.606,163.73,99.481,165.615,102.634,164.069z"/>
	<path fill-rule="evenodd" clip-rule="evenodd" fill="#6D3720" d="M107.813,164.069c2.645,0.116,2.056,3.467,2.07,6.215
		c-1.727,0-3.451,0-5.178,0c-0.138-2.552-0.159-4.991,1.036-6.215C106.662,164.708,107.593,165.321,107.813,164.069z"/>
	<path fill-rule="evenodd" clip-rule="evenodd" fill="#6D3720" d="M60.17,170.284c-4.343,2.404-4.51-7.344-1.036-6.215
		C62.438,162.611,61.749,170.265,60.17,170.284z"/>
	<path fill-rule="evenodd" clip-rule="evenodd" fill="#6D3720" d="M121.276,170.284c-0.28-3.733-0.261-7.164,4.145-6.215
		C125.6,167.7,126.276,171.831,121.276,170.284z"/>
	<path fill-rule="evenodd" clip-rule="evenodd" fill="#6D3720" d="M157.528,170.284c-1.383,0-2.764,0-4.144,0
		c0-2.072,0-4.144,0-6.215C158.323,162.599,159.195,168.311,157.528,170.284z"/>
	<path fill-rule="evenodd" clip-rule="evenodd" fill="#6D3720" d="M143.028,168.211c0.978,3.743-4.08,1.446-6.214,2.072
		c-0.139-2.552-0.159-4.991,1.034-6.215C141.454,163.569,141.466,166.665,143.028,168.211z"/>
	<path fill-rule="evenodd" clip-rule="evenodd" fill="#3F5751" d="M162.707,172.356c-0.003,1.726,0,3.451,0,5.178
		c-0.168,1.213-1.89,0.874-3.108,1.037c-10.71-1.727-28.647-1.727-39.357,0c-13.809,0-27.62,0-41.429,0
		c-5.889-1.724-18.972-1.724-24.858,0c-11.048,0-22.096,0-33.143,0c0-2.072,0-4.144,0-6.215c0.689,0,1.38,0,2.071,0
		c45.916,0,91.835,0,137.752,0C161.325,172.356,162.016,172.356,162.707,172.356z"/>
	<path fill-rule="evenodd" clip-rule="evenodd" fill="#919890" d="M28.062,122.642c0.458-0.923,0.909-1.854,2.072-2.072
		c3.816,2.395,12.066,0.359,17.606,1.034c0,0.344,0,0.692,0,1.038C41.18,122.642,34.62,122.642,28.062,122.642z"/>
	<path fill-rule="evenodd" clip-rule="evenodd" fill="#E85052" d="M87.099,73.961c0.443-21.652,7.65-36.541,10.357-55.929
		c2.553-0.138,4.988-0.159,6.214,1.036c3.007,18.742,7.587,35.914,11.394,53.857c-1.322,0.21-5.075,3.01-5.18,1.036
		c0-0.346,0-0.691,0-1.036c0.345,0,0.69,0,1.036,0c1.649-4.536,1.297-10.875-1.036-13.465c-0.548,0.834-1.082,1.682-1.035,3.107
		c-0.346,0-0.691,0-1.035,0c-0.68,3.843,0.997,10.659,0,11.394c-1.506-0.566-5.354,1.21-5.18-1.036c1.32-0.235,1.357-3.09,0-3.107
		c-0.003-1.727,0-3.454,0-5.178c0.152-2.57,0.193-5.027-2.071-5.18c-1.455,3.032-2.785,6.19-2.072,11.394
		c-0.484,2.209,1.479,1.973,3.108,2.071c-1.119,1.713-9.239,1.713-10.358,0c0.345,0,0.69,0,1.036,0c1.716-1.45,1.716-9.943,0-11.393
		c0-0.346,0-0.691,0-1.036c-4.439,0.049-2.76,6.215-3.106,10.358C89.435,73.583,91.302,74.252,87.099,73.961z"/>
	<path fill-rule="evenodd" clip-rule="evenodd" fill="#3F5751" d="M63.276,108.139c5.456-2.113,13.989-0.839,18.644,1.037
		C78.31,110.338,65.209,112.098,63.276,108.139z"/>
	<path fill-rule="evenodd" clip-rule="evenodd" fill="#3F5751" d="M33.239,119.533c1.381,0,2.763,0,4.145,0
		c3.516,0.28,8.396-0.804,10.356,1.037c0,0.343,0,0.688,0,1.034c-5.54-0.675-13.79,1.36-17.606-1.034
		C31.352,120.406,33.072,120.747,33.239,119.533z"/>
	<path fill-rule="evenodd" clip-rule="evenodd" fill="#3F5751" d="M47.74,135.07c4.534-1.306,9.966-1.306,14.5,0
		c0.345,0,0.69,0,1.036,0c0,0.343,0,0.688,0,1.033c-5.523,0-11.049,0-16.572,0C46.764,135.472,46.858,134.879,47.74,135.07z"/>
	<path fill-rule="evenodd" clip-rule="evenodd" fill="#EAB654" d="M42.562,76.033c-3.714,4.916-8.797,8.464-9.322,16.572
		C30.025,84.882,35.992,77.416,42.562,76.033z"/>
	<path fill-rule="evenodd" clip-rule="evenodd" fill="#6D3720" d="M109.884,128.854c0,4.487,0,8.976,0,13.466
		c0,0.688,0,1.379,0,2.071C108.163,141.586,108.163,131.657,109.884,128.854z"/>
	<path fill-rule="evenodd" clip-rule="evenodd" fill="#6D3720" d="M28.062,170.284c-4.565,1.456-2.807-3.407-3.107-6.215
		C29.233,162.291,30.505,168.765,28.062,170.284z"/>
	<path fill-rule="evenodd" clip-rule="evenodd" fill="#6D3720" d="M53.954,165.106c-1.725,2.056,0.094,1.317,0,4.143
		c-1.226,1.191-3.66,1.171-6.214,1.035c0.595-1.82-1.252-6.085,1.036-6.215C51.704,163.213,51.459,165.529,53.954,165.106z"/>
	<path fill-rule="evenodd" clip-rule="evenodd" fill="#666A62" d="M134.742,131.962c-4.172,1.722-15.51,1.722-19.679,0
		c0-0.346,0-0.693,0-1.037c0.343,0,0.689,0,1.035,0c3.477,2.395,11.376,0.362,16.572,1.037
		C133.361,131.962,134.052,131.962,134.742,131.962z"/>
	<path fill-rule="evenodd" clip-rule="evenodd" fill="#1F0B05" d="M71.562,97.784c-3.337,0.671-3.337-11.03,0-10.359
		C71.561,90.876,71.562,94.331,71.562,97.784z"/>
	<path fill-rule="evenodd" clip-rule="evenodd" fill="#1F0B05" d="M62.24,135.07c0-4.145,0-8.287,0-12.428
		c2.378,2.107,0.374,8.601,1.036,12.428C62.931,135.07,62.585,135.07,62.24,135.07z"/>
	<path fill-rule="evenodd" clip-rule="evenodd" fill="#1F0B05" d="M88.135,128.854c-0.058-1.78,0.796-2.653,2.071-3.106
		c0,1.035,0,2.072,0,3.106c-2.161,2.675,0.365,10.034-2.071,12.431C88.135,137.141,88.135,132.998,88.135,128.854z"/>
	<path fill-rule="evenodd" clip-rule="evenodd" fill="#541407" d="M33.239,151.641c1.036,0,2.072,0,3.108,0
		c0.941,1.46,2.944,10.612-1.036,10.357c-0.691,0-1.382,0-2.072,0C33.239,158.544,33.239,155.092,33.239,151.641z"/>
	<path fill-rule="evenodd" clip-rule="evenodd" fill="#541407" d="M61.204,161.999c-1.381,0-2.764,0-4.142,0
		c0.648-3.147-1.327-8.921,1.036-10.357c0.689,0,1.378,0,2.071,0c0.343,0,0.688,0,1.034,0
		C61.204,155.092,61.203,158.544,61.204,161.999z"/>
	<path fill-rule="evenodd" clip-rule="evenodd" fill="#541407" d="M100.563,151.641c1.263,1.567,2.033,8.921,0,10.357
		c-4.927,0.438-3.535-5.444-4.142-9.32C97.34,151.872,98.759,151.563,100.563,151.641z"/>
	<path fill-rule="evenodd" clip-rule="evenodd" fill="#541407" d="M109.884,151.641c-0.748,3.862-0.687,7.457,0,9.321
		c0.175,2.246-3.676,0.471-5.178,1.036c1.941-4.862-0.528-5.117,1.036-10.357C107.121,151.641,108.503,151.641,109.884,151.641z"/>
	<path fill-rule="evenodd" clip-rule="evenodd" fill="#541407" d="M121.276,152.678c0.32-1.406,2.593-0.86,4.145-1.037
		c-0.022,5.329,0.169,8.141,1.036,10.357C119.4,164.22,121.479,157.304,121.276,152.678z"/>
	<path fill-rule="evenodd" clip-rule="evenodd" fill="#541407" d="M141.992,161.999c-1.728,0-3.453,0-5.178,0
		c1.837-1.961,0.754-6.841,1.034-10.357c1.036,0,2.072,0,3.107,0C142.793,153.601,141.711,158.48,141.992,161.999z"/>
	<path fill-rule="evenodd" clip-rule="evenodd" fill="#541407" d="M149.242,161.999c-1.382,0-2.763,0-4.143,0
		c2.248-0.839-3.087-10.049,2.07-10.357c0.69,0,1.381,0,2.072,0C149.24,155.092,149.242,158.544,149.242,161.999z"/>
	<path fill-rule="evenodd" clip-rule="evenodd" fill="#541407" d="M153.385,161.999c0.28-3.519-0.802-8.397,1.036-10.357
		c5.673-0.842,3.791,5.874,4.143,10.357C156.836,161.999,155.111,161.999,153.385,161.999z"/>
</g>
</svg>
