<?xml version="1.0" encoding="utf-8"?>
<!-- Generator: Adobe Illustrator 14.0.0, SVG Export Plug-In . SVG Version: 6.00 Build 43363)  -->
<!DOCTYPE svg PUBLIC "-//W3C//DTD SVG 1.1//EN" "http://www.w3.org/Graphics/SVG/1.1/DTD/svg11.dtd">
<svg version="1.1" id="Layer_1" xmlns="http://www.w3.org/2000/svg" xmlns:xlink="http://www.w3.org/1999/xlink" x="0px" y="0px"
	 width="222px" height="222px" viewBox="0 0 222 222" enable-background="new 0 0 222 222" xml:space="preserve">
<g>
	<path fill-rule="evenodd" clip-rule="evenodd" fill="#24346E" d="M64.479,34.064c-0.097-1.238,0.598-1.686,1.869-1.558
		c-0.001,0.313,0.252,0.371,0.311,0.623c0,3.115,0,6.231,0,9.346c-0.807-1.023-1.438-0.295-2.18,0.312c0-0.312,0-0.623,0-0.935
		C64.479,39.256,64.479,36.66,64.479,34.064z"/>
	<path fill-rule="evenodd" clip-rule="evenodd" fill="#24346E" d="M157.628,42.787c0.563-3.279-1.278-8.963,1.246-10.281
		c2.524,1.318,0.684,7.001,1.246,10.281C159.263,41.778,158.486,41.778,157.628,42.787z"/>
	<path fill-rule="evenodd" clip-rule="evenodd" fill="#067C8B" d="M66.659,33.129c0.725,2.287,0.106,5.917,0.312,8.723
		c0,0.312,0,0.623,0,0.935c-0.19-0.018-0.369-0.047-0.312-0.312C66.659,39.36,66.659,36.245,66.659,33.129z"/>
	<path fill-rule="evenodd" clip-rule="evenodd" fill="#ECC117" d="M72.267,51.51c0,0.415,0,0.831,0,1.246c-2.7,0-5.4,0-8.1,0
		c0.135-3.812,2.083-5.81,3.739-8.1c1.205,0.042,1.229,1.264,2.181,1.558C70.736,48.056,72.116,49.169,72.267,51.51z"/>
	<path fill-rule="evenodd" clip-rule="evenodd" fill="#FFFFFF" d="M58.871,52.756c4.693-0.02,8.812,0.534,13.708,0.312
		c0,1.142,0,2.285,0,3.427c-0.104,0-0.208,0-0.312,0c-2.7,0-5.4,0-8.1,0c-1.869,0-3.738,0-5.607,0
		C58.674,55.26,58.273,53.509,58.871,52.756z"/>
	<path fill-rule="evenodd" clip-rule="evenodd" fill="#F4D474" d="M58.559,56.495c1.869,0,3.738,0,5.607,0
		c0,14.019,0,28.039,0,42.058c0.439,1.374-1.864,0.005-1.869,0.935c0,5.503,0,11.007,0,16.511c-0.19,0.018-0.369,0.047-0.312,0.313
		c-2.388,0-4.777,0-7.166,0c-0.018-0.19-0.046-0.369-0.312-0.313c-0.187-2.928,0.388-6.618-0.311-9.034
		c0.688-1.908,0.132-5.06,0.311-7.477c0.841-0.613,2.723-0.186,4.05-0.312C58.559,84.948,58.559,70.722,58.559,56.495z"/>
	<path fill-rule="evenodd" clip-rule="evenodd" fill="#ECC117" d="M64.167,56.495c2.7,0,5.4,0,8.1,0
		c0.207,4.466-0.415,9.76,0.312,13.708c0,2.907,0,5.815,0,8.723c-0.561,1.092-0.458,4.188,0,5.296c0,4.881,0,9.762,0,14.642
		c0.84,0.719,3.005,0.111,4.361,0.313c0,0.104,0,0.207,0,0.312c-0.518,1.771-0.518,5.706,0,7.477c0,3.012,0,6.023,0,9.034
		c-4.88,0-9.761,0-14.642,0c0-5.504,0-11.008,0-16.511c0.005-0.93,2.309,0.439,1.869-0.935
		C64.167,84.533,64.167,70.514,64.167,56.495z"/>
	<path fill-rule="evenodd" clip-rule="evenodd" fill="#F4D474" d="M72.267,56.495c0.104,0,0.208,0,0.312,0c0,4.569,0,9.139,0,13.708
		C71.852,66.255,72.474,60.961,72.267,56.495z"/>
	<path fill-rule="evenodd" clip-rule="evenodd" fill="#ECC117" d="M157.316,56.495c2.723,0.185,6.199-0.384,8.412,0.312
		c0,3.427,0,6.854,0,10.281c0,10.592,0,21.185,0,31.776c0.438,1.224,2.954,0.369,4.361,0.624c0,5.503,0,11.007,0,16.511
		c-4.984,0-9.97,0-14.954,0c0-5.296,0-10.592,0-15.888c-0.132-1.274,2.116-0.169,2.181-1.247
		C157.316,84.741,157.316,70.618,157.316,56.495z"/>
	<path fill-rule="evenodd" clip-rule="evenodd" fill="#C79B13" d="M72.578,70.203c1.214,0.655,3.583,0.156,5.296,0.311
		c0,0.104,0,0.208,0,0.312c0,2.7,0,5.4,0,8.1c-1.765,0-3.531,0-5.296,0C72.578,76.018,72.578,73.11,72.578,70.203z"/>
	<path fill-rule="evenodd" clip-rule="evenodd" fill="#ECC117" d="M77.875,70.826c24.612,0,49.223,0,73.834,0
		c0.511,2.027,0.511,6.073,0,8.1c-24.611,0-49.223,0-73.834,0C77.875,76.226,77.875,73.525,77.875,70.826z"/>
	<path fill-rule="evenodd" clip-rule="evenodd" fill="#FFFFFF" d="M72.578,78.925c1.765,0,3.531,0,5.296,0
		c24.612,0,49.223,0,73.834,0c0.72,1.046,0.109,3.422,0.312,4.985c-26.481,0-52.961,0-79.442,0
		C72.578,82.249,72.578,80.587,72.578,78.925z"/>
	<path fill-rule="evenodd" clip-rule="evenodd" fill="#C79B13" d="M72.578,84.221c1.765,0,3.531,0,5.296,0c0,4.985,0,9.97,0,14.955
		c-0.312,0-0.623,0-0.935,0c-1.356-0.201-3.521,0.406-4.361-0.313C72.578,93.983,72.578,89.102,72.578,84.221z"/>
	<path fill-rule="evenodd" clip-rule="evenodd" fill="#ECC117" d="M77.875,84.221c24.612,0,49.223,0,73.834,0
		c0.498,4.294,0.529,10.666,0,14.955c-1.454,0-2.907,0-4.361,0c-0.104,0-0.208,0-0.312,0c-22.224-0.52-46.627-0.52-68.85,0
		c-0.104,0-0.208,0-0.312,0C77.875,94.191,77.875,89.206,77.875,84.221z M133.017,92.01c2.516-0.415,5.584-0.415,8.101,0
		c0.597-0.753,0.196-2.503,0.311-3.739c-2.804,0-5.607,0-8.411,0C133.017,89.518,133.017,90.764,133.017,92.01z"/>
	<path fill-rule="evenodd" clip-rule="evenodd" fill="#C79B13" d="M133.017,88.271c2.804,0,5.607,0,8.411,0
		c-0.114,1.235,0.286,2.985-0.311,3.739c-2.517-0.415-5.585-0.415-8.101,0C133.017,90.764,133.017,89.518,133.017,88.271z"/>
	<path fill-rule="evenodd" clip-rule="evenodd" fill="#F4D474" d="M78.186,99.176c22.223-0.52,46.626-0.52,68.85,0
		C124.086,99.176,101.136,99.176,78.186,99.176z"/>
	<path fill-rule="evenodd" clip-rule="evenodd" fill="#24346E" d="M76.939,99.487c0-0.104,0-0.208,0-0.312c0.312,0,0.623,0,0.935,0
		c0.104,0,0.208,0,0.312,0c22.95,0,45.9,0,68.85,0c0.104,0,0.207,0,0.312,0c0,2.596,0,5.192,0,7.788c-0.728,0-1.454,0-2.182,0
		c0,3.115,0,6.23,0,9.347c-0.727,0-1.453,0-2.18,0c0-3.013,0-6.023,0-9.035c-0.534-0.713-2.378-0.114-3.428-0.312
		c0,0.208,0,0.415,0,0.623c0,2.907,0,5.815,0,8.724c-0.83,0-1.661,0-2.492,0c0-2.908,0-5.816,0-8.724
		c-0.038-1.312-2.391-0.31-3.427-0.623c0,3.115,0,6.23,0,9.347c-0.727,0-1.454,0-2.181,0c0-3.013,0-6.023,0-9.035
		c-0.437-0.517-2.991-0.517-3.427,0c0,2.908,0,5.815,0,8.723c-0.139,0.515-2.354,0.515-2.493,0c0-2.907,0-5.814,0-8.723
		c-0.533-0.713-2.378-0.114-3.427-0.312c0,3.115,0,6.23,0,9.347c-0.727,0-1.454,0-2.18,0c0-3.013,0-6.023,0-9.035
		c-0.534-0.713-2.379-0.114-3.428-0.312c0,0.208,0,0.415,0,0.623c0,2.907,0,5.815,0,8.724c-0.83,0-1.661,0-2.492,0
		c0-2.908,0-5.816,0-8.724c0-0.208,0-0.415,0-0.623c-1.038,0-2.077,0-3.115,0c-0.701,2.519-0.123,6.315-0.312,9.347
		c-0.727,0-1.454,0-2.181,0c0-3.013,0-6.023,0-9.035c-0.437-0.517-2.991-0.517-3.427,0c0,3.012,0,6.022,0,9.035
		c-0.745-0.19-2.261,0.391-2.493-0.313c0-2.907,0-5.814,0-8.723c-0.432-0.711-2.168-0.116-3.115-0.312
		c-0.702,2.519-0.123,6.315-0.312,9.347c-0.727,0-1.454,0-2.181,0c0-3.013,0-6.023,0-9.035c-0.533-0.713-2.378-0.114-3.427-0.312
		c0,0.312,0,0.623,0,0.935c0,2.804,0,5.607,0,8.412c-0.831,0-1.662,0-2.492,0c0-2.908,0-5.816,0-8.724
		c0.044-1.29-2.168-0.325-3.116-0.623c-0.701,2.519-0.123,6.315-0.311,9.347c-0.52,0-1.039,0-1.558,0
		c-1.422-1.591-0.231-5.793-0.623-8.412c0-0.312,0-0.623,0-0.935c-2.804,0-5.607,0-8.412,0
		C76.939,104.472,76.939,101.979,76.939,99.487z"/>
	<path fill-rule="evenodd" clip-rule="evenodd" fill="#F4D474" d="M76.939,99.487c0,2.492,0,4.984,0,7.477
		C76.421,105.193,76.421,101.258,76.939,99.487z"/>
	<path fill-rule="evenodd" clip-rule="evenodd" fill="#F4D474" d="M10.271,106.964c-0.715,4.165-0.112,9.649-0.311,14.331
		c-0.104,0-0.208,0-0.312,0c-2.7,0-5.4,0-8.1,0c0-4.777,0-9.555,0-14.331C4.456,106.964,7.363,106.964,10.271,106.964z"/>
	<path fill-rule="evenodd" clip-rule="evenodd" fill="#ECC117" d="M10.271,106.964c14.643,0,29.285,0,43.927,0
		c0.699,2.416,0.124,6.106,0.311,9.034c-0.822,1.151,0.199,4.146-0.623,5.297c-14.642,0-29.284,0-43.926,0
		C10.158,116.613,9.555,111.129,10.271,106.964z"/>
	<path fill-rule="evenodd" clip-rule="evenodd" fill="#C79B13" d="M104.979,107.275c0.436-0.517,2.99-0.517,3.427,0
		c0,3.012,0,6.022,0,9.035c-0.725-2.288-0.106-5.918-0.312-8.724c-0.331-0.707-1.958-0.118-2.804-0.312
		C105.186,107.275,105.082,107.275,104.979,107.275z"/>
	<path fill-rule="evenodd" clip-rule="evenodd" fill="#C79B13" d="M125.539,107.275c-0.104,0-0.207,0-0.311,0
		c-0.935,0-1.869,0-2.804,0c-0.207,2.909,0.412,6.644-0.313,9.035c0-3.116,0-6.231,0-9.347
		C123.161,107.161,125.006,106.563,125.539,107.275z"/>
	<path fill-rule="evenodd" clip-rule="evenodd" fill="#C79B13" d="M128.032,107.275c0.436-0.517,2.99-0.517,3.427,0
		c0,3.012,0,6.022,0,9.035c-0.725-2.288-0.105-5.918-0.312-8.724c-0.331-0.707-1.958-0.118-2.804-0.312
		C128.239,107.275,128.136,107.275,128.032,107.275z"/>
	<path fill-rule="evenodd" clip-rule="evenodd" fill="#C79B13" d="M147.348,106.964c0,0.104,0,0.208,0,0.312
		c-0.624,0-1.247,0-1.869,0c-0.207,2.909,0.412,6.644-0.313,9.035c0-3.116,0-6.231,0-9.347
		C145.894,106.964,146.62,106.964,147.348,106.964z"/>
	<path fill-rule="evenodd" clip-rule="evenodd" fill="#ECC117" d="M176.943,106.964c15.161,0,30.323,0,45.484,0
		c0.715,4.165,0.113,9.649,0.312,14.331c-15.265,0-30.53,0-45.796,0C176.943,116.518,176.943,111.74,176.943,106.964z
		 M206.851,115.998c2.804,0,5.608,0,8.412,0c0-1.246,0-2.492,0-3.738C211.652,112.552,204.375,110.637,206.851,115.998z"/>
	<path fill-rule="evenodd" clip-rule="evenodd" fill="#F4D474" d="M222.428,106.964c1.235,3.438,0.631,10.375,0.312,14.331
		C222.541,116.613,223.143,111.129,222.428,106.964z"/>
	<path fill-rule="evenodd" clip-rule="evenodd" fill="#F4D474" d="M102.174,107.275c0.104,0,0.208,0,0.312,0
		c0,2.908,0,5.815,0,8.723C101.761,113.712,102.38,110.081,102.174,107.275z"/>
	<path fill-rule="evenodd" clip-rule="evenodd" fill="#F4D474" d="M104.979,107.275c0.104,0,0.208,0,0.311,0
		c-0.206,2.909,0.414,6.644-0.311,9.035C104.979,113.298,104.979,110.287,104.979,107.275z"/>
	<path fill-rule="evenodd" clip-rule="evenodd" fill="#F4D474" d="M125.229,107.275c0.104,0,0.207,0,0.311,0
		c0,2.908,0,5.815,0,8.723C124.815,113.712,125.434,110.081,125.229,107.275z"/>
	<path fill-rule="evenodd" clip-rule="evenodd" fill="#F4D474" d="M128.032,107.275c0.104,0,0.207,0,0.312,0
		c-0.206,2.806,0.412,6.437-0.312,8.723C128.032,113.091,128.032,110.184,128.032,107.275z"/>
	<path fill-rule="evenodd" clip-rule="evenodd" fill="#C79B13" d="M215.263,112.26c0,1.246,0,2.492,0,3.738
		c-2.804,0-5.608,0-8.412,0C204.375,110.637,211.652,112.552,215.263,112.26z"/>
	<path fill-rule="evenodd" clip-rule="evenodd" fill="#24346E" d="M147.348,116.621c0.018-0.189,0.046-0.368,0.311-0.311
		c2.493,0,4.985,0,7.478,0c4.984,0,9.97,0,14.954,0c0,1.765,0,3.53,0,5.296c-0.104,0-0.208,0-0.312,0c-7.373,0-14.746,0-22.12,0
		c0.001-0.313-0.251-0.371-0.311-0.624C147.348,119.529,147.348,118.075,147.348,116.621z"/>
	<path fill-rule="evenodd" clip-rule="evenodd" fill="#F4D474" d="M147.348,116.621c0,1.454,0,2.908,0,4.361
		C146.83,120.242,146.83,117.362,147.348,116.621z"/>
	<path fill-rule="evenodd" clip-rule="evenodd" fill="#ECC117" d="M76.628,121.606c0.104,0,0.208,0,0.312,0c0,10.8,0,21.6,0,32.399
		c-4.88,0-9.761,0-14.642,0c0-10.696,0-21.393,0-32.089C66.972,121.711,72.473,122.332,76.628,121.606z"/>
	<path fill-rule="evenodd" clip-rule="evenodd" fill="#F4D474" d="M143.92,190.145c0.722-6.341,0.108-14.015,0.312-20.873
		c0.59-0.553,2.059-0.227,3.116-0.312c0.207-15.682-0.416-32.192,0.311-47.354c7.374,0,14.747,0,22.12,0
		c-4.155,0.726-9.657,0.104-14.331,0.311c-0.553,5.929-0.312,15.816-0.312,23.989c0,1.554-0.558,7.119,0,7.788
		c1.918,2.302,12.024-1.094,14.954,0.312c0,0.104,0,0.208,0,0.312c-7.373,0-14.746,0-22.119,0c-0.719,0.84-0.111,3.005-0.313,4.362
		c2.493,0,4.985,0,7.478,0c0.206,10.386-0.413,21.597,0.312,31.465c-0.104,0-0.208,0-0.312,0c-3.635,0-7.269,0-10.904,0
		C144.128,190.145,144.024,190.145,143.92,190.145z"/>
	<path fill-rule="evenodd" clip-rule="evenodd" fill="#ECC117" d="M169.778,121.606c0.104,0,0.208,0,0.312,0c0,10.8,0,21.6,0,32.399
		c-2.93-1.405-13.036,1.99-14.954-0.312c-0.558-0.669,0-6.234,0-7.788c0-8.173-0.241-18.061,0.312-23.989
		C160.121,121.711,165.623,122.332,169.778,121.606z M158.874,146.529c2.804,0,5.607,0,8.411,0c0-1.246,0-2.493,0-3.738
		c-2.804,0-5.607,0-8.411,0C158.874,144.036,158.874,145.283,158.874,146.529z"/>
	<path fill-rule="evenodd" clip-rule="evenodd" fill="#24346E" d="M222.739,121.606c0.518,0.74,0.518,3.62,0,4.361
		c-15.265,0-30.53,0-45.796,0c0-1.454,0-2.907,0-4.361C192.209,121.606,207.475,121.606,222.739,121.606z"/>
	<path fill-rule="evenodd" clip-rule="evenodd" fill="#C79B13" d="M9.959,126.279c0-0.104,0-0.208,0-0.312c14.85,0,29.7,0,44.549,0
		C40.282,126.694,24.705,126.071,9.959,126.279z"/>
	<path fill-rule="evenodd" clip-rule="evenodd" fill="#FFFFFF" d="M2.17,126.279c16.823,0.727,34.997,0.104,52.338,0.312
		c0,1.35,0,2.7,0,4.05c-17.55,0.207-35.93-0.414-52.961,0.312C1.9,129.539,0.804,126.678,2.17,126.279z"/>
	<path fill-rule="evenodd" clip-rule="evenodd" fill="#F4D474" d="M176.943,126.591c14.643-0.727,30.635-0.104,45.796-0.312
		c0.19,0.018,0.369,0.047,0.312,0.312C207.682,126.591,192.313,126.591,176.943,126.591z"/>
	<path fill-rule="evenodd" clip-rule="evenodd" fill="#C79B13" d="M101.24,129.083c-0.154,1.093-0.464,2.027-0.312,3.427
		c-2.804,0-5.608,0-8.412,0c0-1.143,0-2.284,0-3.427C93.937,128.836,99.887,129.057,101.24,129.083z"/>
	<path fill-rule="evenodd" clip-rule="evenodd" fill="#F4D474" d="M176.943,130.952c0-0.104,0-0.208,0-0.312
		c15.369,0,30.738,0,46.107,0c0,19.835,0,39.669,0,59.504c-0.104,0-0.208,0-0.312,0s-0.208,0-0.312,0
		c0.727-19.108,0.104-39.564,0.312-59.192C207.475,130.952,192.209,130.952,176.943,130.952z"/>
	<path fill-rule="evenodd" clip-rule="evenodd" fill="#24346E" d="M95.32,153.694c1.638-10.512,10.19-14.11,16.512-19.938
		c3.492,2.115,6.146,5.069,9.657,7.166c0.908,1.168,1.947,2.207,3.115,3.114c1.954,2.825,3.565,5.989,4.362,9.97
		c0,0.208,0,0.416,0,0.623c0.635,0.715,2.587,0.113,3.738,0.312c0,11.734,0,23.47,0,35.204c-13.086,0.52-28.348,0.518-41.435,0
		c0-11.631,0-23.262,0-34.893c0-0.104,0-0.208,0-0.312C92.733,154.638,95.671,155.811,95.32,153.694z"/>
	<path fill-rule="evenodd" clip-rule="evenodd" fill="#C79B13" d="M201.243,137.495c0.597,0.753,0.197,2.502,0.312,3.738
		c-2.7,0-5.4,0-8.1,0c-0.843,0.61,0.189,3.098-0.623,3.737c-2.455,0.063-6.348-0.085-7.789,0c-0.715-0.634-0.112-2.587-0.312-3.737
		c2.597,0,5.192,0,7.789,0C191.475,136.034,197.283,137.688,201.243,137.495z"/>
	<path fill-rule="evenodd" clip-rule="evenodd" fill="#C79B13" d="M25.848,144.971c0-1.245,0-2.491,0-3.737c2.804,0,5.607,0,8.412,0
		C36.163,147.223,28.268,144.243,25.848,144.971z"/>
	<path fill-rule="evenodd" clip-rule="evenodd" fill="#C79B13" d="M158.874,142.791c2.804,0,5.607,0,8.411,0
		c0,1.245,0,2.492,0,3.738c-2.804,0-5.607,0-8.411,0C158.874,145.283,158.874,144.036,158.874,142.791z"/>
	<path fill-rule="evenodd" clip-rule="evenodd" fill="#C79B13" d="M34.259,144.66c2.908,0,5.815,0,8.723,0c0,1.246,0,2.492,0,3.738
		c-2.804,0-5.608,0-8.412,0C34.271,147.753,34.241,146.376,34.259,144.66z"/>
	<path fill-rule="evenodd" clip-rule="evenodd" fill="#F4D474" d="M91.271,155.252c0,11.631,0,23.262,0,34.893
		c-0.104,0-0.208,0-0.312,0s-0.208,0-0.312,0C91.58,179.238,90.337,166.157,91.271,155.252z"/>
	<path fill-rule="evenodd" clip-rule="evenodd" fill="#24346E" d="M40.178,167.402c-6.75,0-13.5,0-20.25,0
		c0.912-5.423,6.215-6.455,9.969-9.035C34.005,160.698,39.095,162.047,40.178,167.402z"/>
	<path fill-rule="evenodd" clip-rule="evenodd" fill="#24346E" d="M209.967,167.402c-6.75,0-13.5,0-20.25,0
		c1.013-5.322,6.151-6.518,9.969-9.035C203.767,160.725,208.958,161.972,209.967,167.402z"/>
	<path fill-rule="evenodd" clip-rule="evenodd" fill="#ECC117" d="M62.297,158.68c4.673,0,9.346,0,14.02,0c0.208,0,0.415,0,0.623,0
		c0,3.322,0,6.646,0,9.969c0.432,0.71,2.168,0.116,3.116,0.312c0,7.062,0,14.123,0,21.185c-5.919,0-11.838,0-17.758,0
		C62.297,179.655,62.297,169.168,62.297,158.68z M65.724,170.829c2.804,0,5.608,0,8.412,0c-0.115-1.235,0.286-2.985-0.311-3.738
		c-2.7,0-5.4,0-8.101,0C65.724,168.337,65.724,169.583,65.724,170.829z"/>
	<path fill-rule="evenodd" clip-rule="evenodd" fill="#ECC117" d="M155.136,158.68c4.984,0,9.97,0,14.954,0c0,3.322,0,6.646,0,9.969
		c0.432,0.71,2.168,0.116,3.115,0.312c0,7.062,0,14.123,0,21.185c-5.92,0-11.839,0-17.758,0
		C154.723,180.276,155.342,169.065,155.136,158.68z"/>
	<path fill-rule="evenodd" clip-rule="evenodd" fill="#C79B13" d="M65.724,167.091c2.7,0,5.4,0,8.101,0
		c0.597,0.753,0.196,2.503,0.311,3.738c-2.804,0-5.607,0-8.412,0C65.724,169.583,65.724,168.337,65.724,167.091z"/>
	<path fill-rule="evenodd" clip-rule="evenodd" fill="#C79B13" d="M40.49,169.583c-6.75,0-13.5,0-20.25,0
		c-0.545,1.713-0.312,3.727-0.312,6.542c0,1.394-0.971,6.194,0,7.166c0.225,0.224,3.851,0,4.985,0c5.56,0,10.968,0,15.577,0
		c-6.335,0.726-14.019,0.104-20.873,0.312c0-4.777,0-9.555,0-14.331C26.471,169.479,34.155,168.856,40.49,169.583z"/>
	<path fill-rule="evenodd" clip-rule="evenodd" fill="#24346E" d="M40.49,169.583c0,4.569,0,9.138,0,13.708
		c-4.608,0-10.017,0-15.577,0c-1.134,0-4.76,0.224-4.985,0c-0.971-0.972,0-5.772,0-7.166c0-2.815-0.234-4.829,0.312-6.542
		C26.99,169.583,33.74,169.583,40.49,169.583z"/>
	<path fill-rule="evenodd" clip-rule="evenodd" fill="#24346E" d="M210.278,183.291c-6.854,0-13.708,0-20.562,0
		c0-4.57,0-9.139,0-13.708c6.854,0,13.707,0,20.562,0c0,0.104,0,0.208,0,0.312c0,4.258,0,8.516,0,12.773
		C210.278,182.875,210.278,183.083,210.278,183.291z"/>
	<path fill-rule="evenodd" clip-rule="evenodd" fill="#F4D474" d="M210.278,169.895c0.519,3.533,0.519,9.24,0,12.773
		C210.278,178.41,210.278,174.152,210.278,169.895z"/>
	<path fill-rule="evenodd" clip-rule="evenodd" fill="#C79B13" d="M9.959,190.456c0-0.104,0-0.208,0-0.312
		c13.708,0,27.415,0,41.123,0c0.104,0,0.208,0,0.312,0c0,0.104,0,0.208,0,0.312C37.583,190.456,23.771,190.456,9.959,190.456z"/>
	<path fill-rule="evenodd" clip-rule="evenodd" fill="#3EB6A1" d="M51.394,190.456c0-0.104,0-0.208,0-0.312c3.635,0,7.27,0,10.904,0
		c0,0.104,0,0.208,0,0.312C58.663,190.456,55.028,190.456,51.394,190.456z"/>
	<path fill-rule="evenodd" clip-rule="evenodd" fill="#3EB6A1" d="M144.231,190.456c0-0.104,0-0.208,0-0.312
		c3.636,0,7.27,0,10.904,0c0,0.104,0,0.208,0,0.312C151.501,190.456,147.867,190.456,144.231,190.456z"/>
	<path fill-rule="evenodd" clip-rule="evenodd" fill="#3EB6A1" d="M160.12,42.787c1.124,1.057,2.51,1.852,3.116,3.427
		c-0.966-0.176-0.82-1.465-1.87-1.558C161.173,43.812,160.065,43.881,160.12,42.787z"/>
	<path fill-rule="evenodd" clip-rule="evenodd" fill="#3EB6A1" d="M154.201,46.525c0.708-1.68,2.2-2.577,3.427-3.738
		C156.678,44.226,155.378,45.313,154.201,46.525z"/>
	<path fill-rule="evenodd" clip-rule="evenodd" fill="#3EB6A1" d="M1.548,125.968c-0.57-0.896-0.445-3.757,0-4.673
		c2.7,0,5.4,0,8.1,0c0,0.104,0,0.207,0,0.312c-2.596,0-5.192,0-7.788,0C1.141,122.445,1.749,124.61,1.548,125.968z"/>
	<path fill-rule="evenodd" clip-rule="evenodd" fill="#F4D474" d="M66.971,42.787c0.852,1.328,2.263,2.099,3.115,3.427
		c-0.952-0.294-0.976-1.516-2.181-1.558c-1.656,2.29-3.604,4.289-3.739,8.1c2.7,0,5.4,0,8.1,0c0-0.416,0-0.831,0-1.246
		c0.675-0.053,0.141,1.105,0.312,1.558c-4.896,0.222-9.015-0.331-13.708-0.312c-0.104,0-0.208,0-0.312,0
		c0.577-4.719,3.324-7.269,5.919-9.969c0.742-0.607,1.373-1.334,2.18-0.312C66.602,42.74,66.781,42.77,66.971,42.787z"/>
	<path fill-rule="evenodd" clip-rule="evenodd" fill="#F4D474" d="M72.578,78.925c0,1.662,0,3.323,0,4.985
		c26.481,0,52.961,0,79.442,0c-0.202-1.563,0.408-3.939-0.312-4.985c0.511-2.027,0.511-6.073,0-8.1c-24.611,0-49.223,0-73.834,0
		c0-0.104,0-0.208,0-0.312c24.611,0,49.223,0,73.834,0c0.693-4.083,0.128-9.426,0.312-14.019c1.765,0,3.53,0,5.296,0
		c0,14.123,0,28.246,0,42.369c-0.064,1.078-2.313-0.027-2.181,1.247c0,5.296,0,10.592,0,15.888c0,0.104,0,0.208,0,0.313
		c-2.492,0-4.984,0-7.478,0c-0.699-2.416-0.124-6.107-0.311-9.035c0-0.104,0-0.208,0-0.312c0-2.596,0-5.192,0-7.788
		c1.454,0,2.907,0,4.361,0c0.529-4.289,0.498-10.661,0-14.955c-24.611,0-49.223,0-73.834,0c-1.765,0-3.531,0-5.296,0
		C72.12,83.114,72.017,80.017,72.578,78.925z"/>
	<path fill-rule="evenodd" clip-rule="evenodd" fill="#F4D474" d="M165.729,98.863c0.931,0.627,2.938,0.177,4.361,0.313
		c0,0.104,0,0.207,0,0.312C168.683,99.232,166.166,100.087,165.729,98.863z"/>
	<path fill-rule="evenodd" clip-rule="evenodd" fill="#C79B13" d="M110.586,116.311c0.188-3.031-0.39-6.828,0.312-9.347
		c1.039,0,2.077,0,3.115,0c0,0.208,0,0.415,0,0.623c-0.517-0.521-1.829-0.248-2.804-0.312
		C110.302,109.588,111.499,114.004,110.586,116.311z"/>
	<path fill-rule="evenodd" clip-rule="evenodd" fill="#C79B13" d="M99.059,116.311c0.188-3.031-0.39-6.828,0.312-9.347
		c0.947,0.195,2.683-0.399,3.115,0.312c-0.104,0-0.208,0-0.312,0C96.835,105.985,100.683,113.884,99.059,116.311z"/>
	<path fill-rule="evenodd" clip-rule="evenodd" fill="#C79B13" d="M87.532,116.311c0.188-3.031-0.39-6.828,0.311-9.347
		c0.948,0.298,3.16-0.667,3.116,0.623c-0.517-0.521-1.829-0.248-2.804-0.312C87.248,109.588,88.445,114.004,87.532,116.311z"/>
	<path fill-rule="evenodd" clip-rule="evenodd" fill="#C79B13" d="M9.959,121.295c14.642,0,29.284,0,43.926,0
		c0.822-1.151-0.199-4.146,0.623-5.297c0.265-0.057,0.294,0.122,0.312,0.313c-0.72,1.147-0.108,3.629-0.312,5.296
		c-14.954,0-29.908,0-44.861,0c0-0.104,0-0.208,0-0.312C9.751,121.295,9.855,121.295,9.959,121.295z"/>
	<path fill-rule="evenodd" clip-rule="evenodd" fill="#F4D474" d="M76.939,154.006c0.497,0.969,0.497,3.705,0,4.674
		c-0.208,0-0.415,0-0.623,0c1.142-0.52,0.427-2.896,0.623-4.362c-7.373,0-14.746,0-22.119,0c-0.717,0.84-0.11,3.005-0.312,4.362
		c2.596,0,5.192,0,7.789,0c0,10.488,0,20.976,0,31.465c-3.634,0-7.269,0-10.904,0c-0.104,0-0.208,0-0.312,0
		c0.721-6.236,0.108-13.808,0.312-20.562c-0.044-1.29,2.168-0.325,3.115-0.623c-0.292-12.657,0.112-24.56,0-37.696
		c-14.228-0.726-29.803-0.104-44.549-0.312c0,19.73,0,39.461,0,59.192c-2.804,0-5.608,0-8.412,0c0-19.731,0-39.462,0-59.192
		c17.031-0.726,35.411-0.104,52.961-0.312c0-1.35,0-2.7,0-4.05c-17.342-0.207-35.515,0.415-52.338-0.312c2.596,0,5.193,0,7.789,0
		c14.746-0.208,30.323,0.415,44.549-0.312c0-1.454,0-2.907,0-4.361c7.374,0,14.746,0,22.119,0
		c-4.155,0.726-9.656,0.104-14.331,0.311c0,10.696,0,21.393,0,32.089C67.178,154.006,72.059,154.006,76.939,154.006z"/>
	<path fill-rule="evenodd" clip-rule="evenodd" fill="#C79B13" d="M128.967,154.006c0.376,1.285,3.222,0.102,4.05,0.935
		c0,11.631,0,23.262,0,34.893c3.031,0.707,7.358,0.118,10.903,0.312c0.104,0,0.208,0,0.312,0c0,0.104,0,0.208,0,0.312
		c-3.772-0.174-8.261,0.368-11.526-0.312c0-11.734,0-23.47,0-35.204c-1.151-0.198-3.104,0.403-3.738-0.312
		C128.967,154.422,128.967,154.214,128.967,154.006z"/>
	<path fill-rule="evenodd" clip-rule="evenodd" fill="#C79B13" d="M121.489,140.922c1.169,0.908,2.207,1.946,3.115,3.114
		C123.437,143.129,122.397,142.09,121.489,140.922z"/>
	<path fill-rule="evenodd" clip-rule="evenodd" fill="#C79B13" d="M95.32,153.694c0.351,2.116-2.587,0.943-4.05,1.246
		C92.126,154.031,95.31,155.449,95.32,153.694z"/>
	<path fill-rule="evenodd" clip-rule="evenodd" fill="#24346E" d="M9.647,121.606c14.954,0,29.908,0,44.861,0
		c0.203-1.667-0.409-4.148,0.312-5.296c2.389,0,4.777,0,7.166,0c4.985,0,9.97,0,14.954,0c0,1.765,0,3.53,0,5.296
		c-0.104,0-0.208,0-0.312,0c-7.373,0-14.746,0-22.119,0c0,1.454,0,2.907,0,4.361c-14.85,0-29.7,0-44.549,0c-2.804,0-5.608,0-8.412,0
		c0.201-1.357-0.407-3.522,0.312-4.361C4.456,121.606,7.051,121.606,9.647,121.606z"/>
	<path fill-rule="evenodd" clip-rule="evenodd" fill="#ECC117" d="M9.959,190.145c0-19.731,0-39.462,0-59.192
		c14.747,0.207,30.321-0.414,44.549,0.312c0.112,13.137-0.292,25.039,0,37.696c-0.947,0.298-3.159-0.667-3.115,0.623
		c-0.203,6.754,0.41,14.325-0.312,20.562C37.375,190.145,23.667,190.145,9.959,190.145z M29.897,158.367
		c-3.754,2.58-9.057,3.612-9.969,9.035c6.75,0,13.5,0,20.25,0C39.095,162.047,34.005,160.698,29.897,158.367z M34.571,148.398
		c2.804,0,5.607,0,8.412,0c0-1.246,0-2.492,0-3.738c-2.908,0-5.815,0-8.723,0C34.241,146.376,34.271,147.753,34.571,148.398z
		 M34.259,141.233c-2.804,0-5.608,0-8.412,0c0,1.246,0,2.492,0,3.737C28.268,144.243,36.163,147.223,34.259,141.233z M40.49,183.291
		c0-4.57,0-9.139,0-13.708c-6.335-0.727-14.019-0.104-20.873-0.312c0,4.776,0,9.554,0,14.331
		C26.471,183.395,34.155,184.017,40.49,183.291z"/>
	<path fill-rule="evenodd" clip-rule="evenodd" fill="#ECC117" d="M176.943,130.952c15.266,0,30.531,0,45.796,0
		c-0.207,19.628,0.415,40.084-0.312,59.192c-14.538,0-29.077,0-43.615,0c-0.698-0.696,0.914-1.078,1.246-2.492
		c1.055-4.494-0.79-13.201,0-18.381c-0.336-0.91-2.779,0.287-3.115-0.623C176.943,156.083,176.943,143.518,176.943,130.952z
		 M199.686,158.367c-3.817,2.518-8.956,3.713-9.969,9.035c6.75,0,13.5,0,20.25,0C208.958,161.972,203.767,160.725,199.686,158.367z
		 M192.521,141.233c-2.597,0-5.192,0-7.789,0c0.199,1.15-0.403,3.104,0.312,3.737c1.441-0.085,5.334,0.063,7.789,0
		c0.813-0.64-0.22-3.127,0.623-3.737c2.699,0,5.399,0,8.1,0c-0.114-1.236,0.285-2.985-0.312-3.738
		C197.283,137.688,191.475,136.034,192.521,141.233z M210.278,169.583c-2.895-0.556-6.164-0.312-10.281-0.312
		c-2.376,0-9.541-0.948-10.593,0.312c-0.928,1.113,0,5.435,0,6.854c0,2.911,0,4.925,0,7.166c6.854-0.208,14.539,0.414,20.874-0.312
		c0-0.208,0-0.416,0-0.623c0.519-3.533,0.519-9.24,0-12.773C210.278,169.791,210.278,169.687,210.278,169.583z"/>
	<path fill-rule="evenodd" clip-rule="evenodd" fill="#C79B13" d="M210.278,183.291c-6.335,0.726-14.02,0.104-20.874,0.312
		c0-2.241,0-4.255,0-7.166c0-1.419-0.928-5.74,0-6.854c1.052-1.26,8.217-0.312,10.593-0.312c4.117,0,7.387-0.244,10.281,0.312
		c-6.854,0-13.708,0-20.562,0c0,4.569,0,9.138,0,13.708C196.57,183.291,203.424,183.291,210.278,183.291z"/>
	<path fill-rule="evenodd" clip-rule="evenodd" fill="#ECC117" d="M161.366,44.656c1.05,0.092,0.904,1.381,1.87,1.558
		c1.18,1.52,1.996,3.404,2.492,5.608c-0.453,0.138,0.031,0.273,0,0.623c-2.213,0.695-5.689,0.127-8.412,0.312
		C157.583,48.972,159.424,46.764,161.366,44.656z"/>
	<path fill-rule="evenodd" clip-rule="evenodd" fill="#FFFFFF" d="M165.729,53.068c0,1.246,0,2.492,0,3.738
		c-2.213-0.695-5.689-0.127-8.412-0.312c-1.766,0-3.531,0-5.296,0c0-1.246,0-2.492,0-3.738
		C156.713,52.737,160.832,53.29,165.729,53.068z"/>
	<path fill-rule="evenodd" clip-rule="evenodd" fill="#C79B13" d="M76.939,106.964c2.804,0,5.608,0,8.412,0c0,0.312,0,0.623,0,0.935
		c-0.489-0.134-0.266-0.98-1.246-0.623c-0.727,19.834-0.104,41.019-0.311,61.373c0.431,0.71,2.168,0.116,3.115,0.312
		c0,2.305,0,6.212,0,10.592c0,3.103-1.01,9.117,0,10.281c0.895,1.029,2.919-0.134,3.739,0.312c0.104,0,0.208,0,0.312,0
		c-8.931,0.727-19.211,0.104-28.662,0.312c0-0.104,0-0.208,0-0.312c5.919,0,11.838,0,17.758,0c0-7.062,0-14.123,0-21.185
		c-0.947-0.195-2.684,0.398-3.116-0.312c0-3.323,0-6.646,0-9.969c0.497-0.969,0.497-3.705,0-4.674c0-10.8,0-21.6,0-32.399
		c0-1.766,0-3.531,0-5.296c-4.984,0-9.969,0-14.954,0c-0.057-0.266,0.122-0.295,0.312-0.313c4.881,0,9.762,0,14.642,0
		C76.939,112.987,76.939,109.976,76.939,106.964z"/>
	<path fill-rule="evenodd" clip-rule="evenodd" fill="#C79B13" d="M96.878,116.311c-0.724-2.288-0.105-5.918-0.311-8.724
		c-0.525-0.605-2.976-0.501-3.116,0.312c0-0.312,0-0.623,0-0.935c1.049,0.197,2.894-0.401,3.427,0.312
		C96.878,110.287,96.878,113.298,96.878,116.311z"/>
	<path fill-rule="evenodd" clip-rule="evenodd" fill="#C79B13" d="M116.505,107.587c0-0.208,0-0.415,0-0.623
		c1.049,0.197,2.894-0.401,3.428,0.312c0,3.012,0,6.022,0,9.035c-0.726-2.288-0.106-5.918-0.313-8.724
		C119.188,106.976,116.977,107.207,116.505,107.587z"/>
	<path fill-rule="evenodd" clip-rule="evenodd" fill="#C79B13" d="M133.64,116.311c0-3.116,0-6.231,0-9.347
		c1.036,0.313,3.389-0.688,3.427,0.623c-0.589-0.553-2.058-0.228-3.115-0.312C133.745,110.185,134.364,113.919,133.64,116.311z"/>
	<path fill-rule="evenodd" clip-rule="evenodd" fill="#C79B13" d="M139.559,107.587c0-0.208,0-0.415,0-0.623
		c1.05,0.197,2.894-0.401,3.428,0.312c0,3.012,0,6.022,0,9.035c-0.725-2.288-0.106-5.918-0.313-8.724
		C142.242,106.976,140.03,107.207,139.559,107.587z"/>
	<path fill-rule="evenodd" clip-rule="evenodd" fill="#ECC117" d="M147.348,120.982c0.06,0.253,0.312,0.312,0.311,0.624
		c-0.727,15.161-0.104,31.672-0.311,47.354c-1.058,0.085-2.526-0.241-3.116,0.312c-0.203,6.858,0.41,14.532-0.312,20.873
		c-3.545-0.193-7.872,0.396-10.903-0.312c0-11.631,0-23.262,0-34.893c-0.828-0.833-3.674,0.351-4.05-0.935
		c-0.797-3.98-2.408-7.145-4.362-9.97c-0.908-1.168-1.946-2.206-3.115-3.114c-3.511-2.097-6.165-5.051-9.657-7.166
		c-6.322,5.828-14.874,9.427-16.512,19.938c-0.011,1.755-3.194,0.337-4.05,1.246c0,0.104,0,0.208,0,0.312
		c-0.933,10.905,0.31,23.986-0.623,34.893c-0.819-0.445-2.844,0.718-3.739-0.312c-1.01-1.164,0-7.179,0-10.281
		c0-4.38,0-8.287,0-10.592c-0.947-0.195-2.684,0.398-3.115-0.312c0.208-20.354-0.416-41.539,0.311-61.373
		c0.98-0.357,0.757,0.489,1.246,0.623c0.392,2.619-0.799,6.821,0.623,8.412c0.52,0,1.039,0,1.558,0
		c0.913-2.307-0.284-6.723,0.623-9.035c0.975,0.063,2.287-0.21,2.804,0.312c0,2.907,0,5.815,0,8.724c0.831,0,1.662,0,2.492,0
		c0-2.805,0-5.608,0-8.412c0.14-0.813,2.59-0.917,3.116-0.312c0.206,2.806-0.413,6.436,0.311,8.724c0.728,0,1.454,0,2.181,0
		c1.624-2.427-2.224-10.325,3.115-9.035c0.206,2.806-0.413,6.437,0.312,8.723c0.232,0.703,1.748,0.122,2.493,0.313
		c0.725-2.392,0.105-6.126,0.311-9.035c0.845,0.193,2.473-0.396,2.804,0.312c0.206,2.806-0.413,6.436,0.312,8.724
		c0.727,0,1.454,0,2.181,0c0.913-2.307-0.284-6.723,0.623-9.035c0.975,0.063,2.287-0.21,2.804,0.312c0,2.907,0,5.815,0,8.724
		c0.831,0,1.662,0,2.492,0c0-2.908,0-5.816,0-8.724c0.472-0.38,2.684-0.611,3.115,0c0.206,2.806-0.413,6.436,0.313,8.724
		c0.726,0,1.453,0,2.18,0c0.725-2.392,0.105-6.126,0.313-9.035c0.935,0,1.869,0,2.804,0c0.205,2.806-0.413,6.437,0.311,8.723
		c0.139,0.515,2.354,0.515,2.493,0c0.724-2.286,0.105-5.917,0.312-8.723c0.846,0.193,2.473-0.396,2.804,0.312
		c0.206,2.806-0.413,6.436,0.312,8.724c0.727,0,1.454,0,2.181,0c0.725-2.392,0.105-6.126,0.312-9.035
		c1.058,0.084,2.526-0.241,3.115,0.312c0,2.907,0,5.815,0,8.724c0.831,0,1.662,0,2.492,0c0-2.908,0-5.816,0-8.724
		c0.472-0.38,2.684-0.611,3.115,0c0.206,2.806-0.412,6.436,0.313,8.724c0.727,0,1.453,0,2.18,0c0.725-2.392,0.105-6.126,0.313-9.035
		c0.622,0,1.245,0,1.869,0c0.187,2.928-0.389,6.619,0.311,9.035c-0.265-0.058-0.293,0.121-0.311,0.311
		C146.83,117.362,146.83,120.242,147.348,120.982z M92.517,129.083c0,1.143,0,2.284,0,3.427c2.804,0,5.607,0,8.412,0
		c-0.153-1.399,0.158-2.334,0.312-3.427C99.887,129.057,93.937,128.836,92.517,129.083z"/>
	<path fill-rule="evenodd" clip-rule="evenodd" fill="#C79B13" d="M176.943,126.591c-0.171,1.116-0.696,3.049,0,4.05
		c0,0.104,0,0.208,0,0.312c0,12.565,0,25.131,0,37.696c0.336,0.91,2.779-0.287,3.115,0.623c-0.79,5.18,1.055,13.887,0,18.381
		c-0.332,1.414-1.944,1.796-1.246,2.492c14.538,0,29.077,0,43.615,0c0.104,0,0.208,0,0.312,0c0,0.104,0,0.208,0,0.312
		c-22.534,0-45.069,0-67.604,0c0-0.104,0-0.208,0-0.312c0.104,0,0.208,0,0.312,0c5.919,0,11.838,0,17.758,0
		c0-7.062,0-14.123,0-21.185c-0.947-0.195-2.684,0.398-3.115-0.312c0-3.323,0-6.646,0-9.969c0-1.454,0-2.908,0-4.362
		c0-0.104,0-0.208,0-0.312c0-10.8,0-21.6,0-32.399c0-1.766,0-3.531,0-5.296c-4.984,0-9.97,0-14.954,0c0-0.104,0-0.209,0-0.313
		c4.984,0,9.97,0,14.954,0c0-5.504,0-11.008,0-16.511c0-0.104,0-0.208,0-0.312c2.214,0.174,5.146-0.37,6.854,0.312
		c0,2.492,0,4.984,0,7.477c0,4.776,0,9.554,0,14.331c15.266,0,30.531,0,45.796,0c0,0.104,0,0.207,0,0.312
		c-15.265,0-30.53,0-45.796,0c0,1.454,0,2.907,0,4.361c15.266,0,30.531,0,45.796,0c0,0.104,0,0.207,0,0.312
		C207.578,126.486,191.586,125.864,176.943,126.591z"/>
	<path fill-rule="evenodd" clip-rule="evenodd" fill="#FFFFFF" d="M176.943,130.641c-0.696-1.001-0.171-2.934,0-4.05
		c15.369,0,30.738,0,46.107,0c0,1.35,0,2.7,0,4.05C207.682,130.641,192.313,130.641,176.943,130.641z"/>
	<path fill-rule="evenodd" clip-rule="evenodd" fill="#FFFFFF" d="M76.317,158.68c-4.673,0-9.346,0-14.02,0
		c-2.596,0-5.192,0-7.789,0c0.201-1.357-0.406-3.522,0.312-4.362c7.374,0,14.747,0,22.119,0
		C76.744,155.783,77.458,158.16,76.317,158.68z"/>
	<path fill-rule="evenodd" clip-rule="evenodd" fill="#FFFFFF" d="M170.09,154.317c0,1.454,0,2.908,0,4.362
		c-4.984,0-9.97,0-14.954,0c-2.492,0-4.984,0-7.478,0c0.201-1.357-0.406-3.522,0.313-4.362
		C155.344,154.317,162.717,154.317,170.09,154.317z"/>
	<path fill-rule="evenodd" clip-rule="evenodd" fill="#F4D474" d="M157.628,42.787c0.858-1.009,1.635-1.009,2.492,0
		c-0.055,1.094,1.053,1.024,1.246,1.869c-1.942,2.107-3.783,4.316-4.05,8.1c2.723-0.185,6.199,0.384,8.412-0.312
		c0,0.208,0,0.416,0,0.623c-4.896,0.222-9.016-0.331-13.708-0.312c0-0.312,0-0.623,0-0.935c0.492-2,1.244-3.74,2.181-5.296
		C155.378,45.313,156.678,44.226,157.628,42.787z"/>
</g>
</svg>
