<?xml version="1.0" encoding="utf-8"?>
<!-- Generator: Adobe Illustrator 14.0.0, SVG Export Plug-In . SVG Version: 6.00 Build 43363)  -->
<!DOCTYPE svg PUBLIC "-//W3C//DTD SVG 1.1//EN" "http://www.w3.org/Graphics/SVG/1.1/DTD/svg11.dtd">
<svg version="1.1" id="Layer_1" xmlns="http://www.w3.org/2000/svg" xmlns:xlink="http://www.w3.org/1999/xlink" x="0px" y="0px"
	 width="183.507px" height="183.506px" viewBox="0 0 183.507 183.506" enable-background="new 0 0 183.507 183.506"
	 xml:space="preserve">
<g>
	<path fill-rule="evenodd" clip-rule="evenodd" fill="#919890" d="M71.548,162.688c3.66,0,7.323,0,10.985,0
		C81.134,164.342,72.946,164.342,71.548,162.688z"/>
	<path fill-rule="evenodd" clip-rule="evenodd" fill="#919890" d="M95.514,162.688c3.329,0,6.657,0,9.985,0
		C104.423,164.342,96.591,164.342,95.514,162.688z"/>
	<path fill-rule="evenodd" clip-rule="evenodd" fill="#919890" d="M62.561,169.681c0-0.334,0-0.67,0-1
		c17.311,0.663,37.278-1.331,52.925,1C97.845,169.681,80.201,169.681,62.561,169.681z"/>
	<path fill-rule="evenodd" clip-rule="evenodd" fill="#D4DBDB" d="M115.485,169.681c0.333,0,0.665,0,0.998,0
		c-0.632,3.36,1.287,9.272-0.998,10.981c0-0.333,0-0.666,0-0.997C115.485,176.337,115.485,173.007,115.485,169.681z"/>
	<path fill-rule="evenodd" clip-rule="evenodd" fill="#1F0B05" d="M66.556,7.91c-0.045-3.041,2.107-3.882,2.995-5.99
		c0.893,2.226,4.255,4.611,1.997,6.989c-1.567,0.43-0.854,3.141-3.994,1.998C67.64,9.488,67.719,8.077,66.556,7.91z"/>
	<path fill-rule="evenodd" clip-rule="evenodd" fill="#35332B" d="M63.56,15.899c1.963,0.298,1.98-1.352,2.996-1.998
		c0.185,1.479,2.413,0.916,3.993,0.998c-3.685,1.539-1.059,3.606-3.993,4.994c-1.066-0.932-0.312-3.684-2.996-2.997
		C63.56,16.563,63.56,16.23,63.56,15.899z"/>
	<path fill-rule="evenodd" clip-rule="evenodd" fill="#9ECBBA" d="M71.548,8.909c-1.028,4.69,4.663,2.66,3.994,6.99
		c-0.889,0.774-2.255,1.072-3.994,0.997c-0.784,4.113,1.532,5.125,0.999,8.987c-0.972-0.027-0.774-1.223-0.999-1.997
		c-3.091,1.804-0.533,3.06-0.999,6.992c-2.385,5.608,3.043,9.636,1.998,16.975c2.525-2.917,0.337-9.613,0-12.981
		c2.948,2.375,3.167,7.485,3.993,11.983c1.997,0,3.995,0,5.993,0c-2.212,1.437,1.256,2.437-1,2.995
		c-2.552-0.045-1.216,0.741-0.998,1.997c-3.354-1.024-1.554,3.106-1.998,4.992c-0.809,0.191-0.994,1-1.997,1
		c-0.333,0-0.663,0-0.998,0c-1.873-1.906,0.593-1.809,0-4.994c-1.34,0.659-1.858,2.136-1.997,3.994c-1.334-1.26-1.96-3-3.994-0.997
		c2.766-11.694-1.314-24.448-3.994-33.95c0.972-0.029,0.774-1.224,0.999-1.999c2.935-1.388,0.309-3.455,3.993-4.994
		c-1.58-0.082-3.809,0.48-3.993-0.998c3.095,0.482,4.122-3.064,0-1.997c0-1.331,0-2.664,0-3.994
		c1.163,0.167,1.084,1.578,0.998,2.997C70.694,12.049,69.98,9.338,71.548,8.909z"/>
	<path fill-rule="evenodd" clip-rule="evenodd" fill="#1F0B05" d="M87.525,43.858c1.17-0.16,0.843-1.82,0.998-2.995
		c0.839-3.173,1.316,1.772,0.999,2.995c3.051,0.722,3.639-1.02,5.991-0.997c-4.465,3.743,4.367,5.132,1.997,7.989
		c-2.979-0.017-3.396-2.597-5.99-2.997c-1.948-2.523-7.545-0.288-7.99,1.997c-0.889,0.614-1.786,1.209-1.997,0
		c2.256-0.559-1.212-1.559,1-2.995c0.333,0,0.664,0,0.997,0C84.159,45.151,86.548,45.211,87.525,43.858z"/>
	<path fill-rule="evenodd" clip-rule="evenodd" fill="#35332B" d="M83.53,46.855c0.17-2.501-1.533-3.128-2.995-3.994
		c1.007-2.214,3.437,2.458,6.99,0.997C86.548,45.211,84.159,45.151,83.53,46.855z"/>
	<path fill-rule="evenodd" clip-rule="evenodd" fill="#1F0B05" d="M84.53,50.85c0.803-0.528,1.62-1.042,2.995-1
		c0.307,2.301-2.886,1.11-2.995,2.995c0.162,1.171,1.82,0.845,2.995,1c-0.015,1.982-2.725,1.269-1.998,3.994
		c0.443,0.891,0.877,1.784,1.998,1.997c3.411-0.41,1.269-2.698,4.993-0.999c0.829-4.541-4.286-5.263,0-7.987
		c1.311,0.351,1.57,1.757,2.995,1.995c1.071,3.922,0.216,9.77,1.997,12.981c0,0.333,0,0.667,0,1.001
		c-2.566-0.099-1.428-3.899-3.993-3.996c-1.565,0.354,0.873,1.757-0.999,1.998c-2.221-0.776-5.415-0.578-5.993-2.997
		c-0.976-1.354-3.364-1.293-3.992-2.995c0-0.667,0-1.331,0-1.998C84.775,56.421,82.561,51.542,84.53,50.85z"/>
	<path fill-rule="evenodd" clip-rule="evenodd" fill="#919890" d="M91.521,47.853c2.594,0.4,3.011,2.98,5.99,2.997
		c-0.246,1.083-1.985,0.677-1.997,1.995c-1.425-0.238-1.685-1.645-2.995-1.995c-0.406-3.374-3.872,2.654-2.996-1.997
		C90.683,49.013,91.299,48.632,91.521,47.853z"/>
	<path fill-rule="evenodd" clip-rule="evenodd" fill="#3F5751" d="M83.53,49.85c-0.183,0.85,0.391,0.943,1,1
		c-1.97,0.691,0.245,5.571-1.997,5.989c-0.444-1.886,1.356-6.017-1.998-4.992c-0.218-1.256-1.554-2.042,0.998-1.997
		C81.744,51.059,82.642,50.464,83.53,49.85z"/>
	<path fill-rule="evenodd" clip-rule="evenodd" fill="#9ECBBA" d="M92.519,50.85c-4.286,2.725,0.829,3.446,0,7.987
		c-3.725-1.699-1.582,0.589-4.993,0.999c-1.121-0.213-1.555-1.106-1.998-1.997c-0.727-2.726,1.983-2.012,1.998-3.994
		c-1.175-0.155-2.833,0.171-2.995-1c0.109-1.885,3.302-0.694,2.995-2.995c-1.375-0.042-2.192,0.472-2.995,1
		c-0.609-0.057-1.183-0.15-1-1c0.445-2.285,6.042-4.521,7.99-1.997c-0.222,0.779-0.838,1.16-1.998,1
		C88.646,53.504,92.112,47.476,92.519,50.85z"/>
	<path fill-rule="evenodd" clip-rule="evenodd" fill="#1F0B05" d="M79.536,57.839c-0.854,3.925-0.418,7.459-2.996,10.985
		c-1.438,0.556-2.436,1.556-2.995,2.995c-1.407-4.148,0.503-4.63-2.996-3.996c0-0.666,0-1.33,0-1.997
		c1.009-0.01,1.257-1.752,0-1.997c1.738-2.256,5.341-2.646,5.991-5.99c1.003,0,1.188-0.809,1.997-1
		C79.388,56.658,79.48,57.228,79.536,57.839z"/>
	<path fill-rule="evenodd" clip-rule="evenodd" fill="#3F5751" d="M92.519,64.83c1.872-0.241-0.566-1.645,0.999-1.998
		c2.565,0.097,1.427,3.897,3.993,3.996c-0.102,1.901-3.72-0.797-4.992-1.001C92.519,65.494,92.519,65.161,92.519,64.83z"/>
	<path fill-rule="evenodd" clip-rule="evenodd" fill="#9ECBBA" d="M82.533,58.837c0,2.995,0,5.992,0,8.986
		c2.554-0.773,0.221-6.435,3.992-5.991c0.578,2.419,3.772,2.221,5.993,2.997c0,0.331,0,0.664,0,0.997
		c1.272,0.204,4.891,2.902,4.992,1.001c0-0.334,0-0.668,0-1.001c5.794,3.193,5.652,12.323,10.984,15.978
		c3.136,0.474,2.64-2.687,4.993-2.995c3.522,0.138,4.466,2.857,7.988,2.995c0.158,3.277-4.467,4.403-1.997,6.99
		c-0.849-0.184-0.941,0.388-0.998,0.999c-1.313-0.353-1.57-1.759-2.996-1.997c-0.692,0.805-1.554,2.734,0,2.995
		c-2.082,2.975-4.067-2.511-6.99-1.997c-1.966,1.074,2.969,3.61,4.993,3.994c0,0.333,0,0.667,0,1
		c-2.202,2.456-1.665,7.653-5.991,7.987c0.573,1.757-1.207,5.867,0.998,5.992c2.064,15.828-2.601,33.282-1.997,51.925
		c0.682,2.98,3.976,3.349,7.988,2.995c-1.474,4.472,2.923,3.067,1.997,6.993c-0.333,0-0.665,0-0.998,0
		c-15.646-2.331-35.614-0.337-52.925-1c-1.436-1.757-0.917-2.275,1.998-1.997c19.387-0.688,34.829-0.933,48.93,0
		c0.38-5.651-7.002-2.003-7.989-3.996c-3.328,0-6.656,0-9.985,0c-5.255,1.146-9.182,0.617-12.98,0c-3.662,0-7.325,0-10.985,0
		c-0.333,0-0.665,0-0.999,0c9.703-12.969-1.173-45.891,4.993-59.913c-0.296-2.034-2-2.661-2.995-3.994
		c3.225,0.892,1.403-3.258,2.995-3.995c0.933-0.731,1.514-1.814,1.997-2.994c0.734-2.928,3.028-4.296,4.994-5.992
		c1.721-3.273,5.268-4.718,6.989-7.987c-1.701-2.595-2.332,4.245-4.992,3.992c-3.199,2.794-7.075,4.909-7.99,9.987
		c-1.168-0.163-0.842-1.822-0.998-2.997c-1.229,0.436-2.051,1.277-1.997,2.997c-0.442,0.89-0.876,1.784-1.997,1.997
		c-0.396-4.805,4.367-8.376,1.997-11.984c2.033-0.963,2.157-3.834,1.997-6.989c1.566-0.785,4.778-8.955,0.998-5.99
		c2.578-3.526,2.143-7.061,2.996-10.985c1.613,0.282,1.72-0.944,2.997-1C82.533,57.506,82.533,58.17,82.533,58.837z
		 M104.501,100.778c0.476,6.246-2.471,10.902,0.998,14.98C104.408,109.364,108.261,104.226,104.501,100.778z M101.506,147.711
		c0.666-6.611-2.372-18.979,3.993-16.977c-2.979,0.223-3.395-3.687-5.99-0.998c-1.459,0.87-3.867,0.792-2.996,3.995
		c0.856,9.842-9.352,8.621-13.979,12.979c1.792-0.128,2.335,0.992,1.997,2.997c-1.848,0.15-0.613,3.381-1.997,3.992
		c-2.905,0.467,0.887,7.547,1.997,3.995c0.545-3.781,2.415-6.238,1.995-10.984c0.212-1.12,1.108-1.554,1.998-1.997
		c0.937,5.626-1.18,13.428-0.998,14.979c0.483-1.779,1.065,0.435,1.997,1.001c0.334-2.331,1.023-4.304,2.996-4.995
		c1.374-0.043,2.191,0.471,2.995,1c3.838,2.859,1.237-7.621,1.997-10.985c0.17-1.493-0.357-3.687,0.999-3.994
		c0.778,0.221,1.16,0.837,0.999,1.997c1.524,5.819-2.355,15.874,0,15.977C103.246,158.771,100.809,151.674,101.506,147.711z
		 M77.539,155.699c1.342-5.546,1.903,0.544,2.996-0.998c-1.395-2.871,2.722-5.072,0-5.992
		C79.487,150.391,75.513,154.248,77.539,155.699z M77.539,107.768c1.354-5.32,5.814-12.804,4.994-16.977
		C80.231,95.165,76.172,103.048,77.539,107.768z M82.533,81.804c0.637-3.396,6.455-6.807,4.992-8.988
		C86.497,75.822,80.474,79.03,82.533,81.804z M99.509,75.815c0.027,3.071-2.923,7.067,1.997,6.989
		C101.334,79.977,102.364,75.952,99.509,75.815z M87.525,101.776c0.967-4.053,4.83-10.445,2.996-13.979
		C89.3,91.012,85.565,105.064,87.525,101.776z M85.527,104.773c0.093,3.144-3.709,7.528-0.997,9.984
		C83.787,110.963,88.616,107.605,85.527,104.773z M92.519,108.765c-0.612,4.126-1.953,15.785,0,23.967
		C94.074,126.95,94.258,114.52,92.519,108.765z M81.533,131.735c1.95-4.727,7.792-10.827,5.992-15.977
		c-2.052,5.946-10.369,10.913-9.986,15.977c0.313-1.609,1.423,0.074,0.998,1.997c-1.638-0.166-1.638,6.155,0,5.99
		c0.553-4.933,0.514,1.037,1.998,0.999C80.001,136.858,82.318,135.845,81.533,131.735z"/>
	<path fill-rule="evenodd" clip-rule="evenodd" fill="#919890" d="M113.488,93.789c0-0.333,0-0.667,0-1
		c-2.024-0.384-6.959-2.92-4.993-3.994c2.923-0.514,4.908,4.972,6.99,1.997c-1.554-0.261-0.692-2.19,0-2.995
		c1.426,0.238,1.684,1.645,2.996,1.997c0.057-0.611,0.149-1.183,0.998-0.999c0.086,1.415,0.165,2.829-0.998,2.997
		C116.576,92.215,116.675,94.644,113.488,93.789z"/>
	<path fill-rule="evenodd" clip-rule="evenodd" fill="#3F5751" d="M80.535,148.708c2.722,0.92-1.395,3.121,0,5.992
		c-1.093,1.542-1.654-4.548-2.996,0.998C75.513,154.248,79.487,150.391,80.535,148.708z"/>
	<path fill-rule="evenodd" clip-rule="evenodd" fill="#919890" d="M84.53,157.696c-1.11,3.552-4.902-3.528-1.997-3.995
		C87.041,150.747,81.419,156.816,84.53,157.696z"/>
	<path fill-rule="evenodd" clip-rule="evenodd" fill="#3F5751" d="M76.54,91.792c0.915-5.078,4.791-7.193,7.99-9.987
		c0.285,1.759-4.703,3.092-1.997,3.995c-1.966,1.696-4.26,3.064-4.994,5.992C77.206,91.792,76.874,91.792,76.54,91.792z"/>
	<path fill-rule="evenodd" clip-rule="evenodd" fill="#919890" d="M70.549,65.827c-0.027-0.969-1.223-0.774-1.997-0.997
		c0.268-3.978-2.515-7.032,0.999-8.987c2.034-2.003,2.66-0.263,3.994,0.997c0.139-1.858,0.657-3.335,1.997-3.994
		c0.593,3.186-1.873,3.088,0,4.994c0.335,0,0.665,0,0.998,0c-0.65,3.344-4.253,3.734-5.991,5.99
		C71.806,64.075,71.558,65.817,70.549,65.827z"/>
	<path fill-rule="evenodd" clip-rule="evenodd" fill="#666A62" d="M73.545,75.815c-0.333,0-0.665,0-0.998,0
		c0.01-2.742-3.59-6.974-1.998-7.991c3.499-0.634,1.589-0.152,2.996,3.996c0.56-1.439,1.558-2.439,2.995-2.995
		c3.78-2.965,0.568,5.205-0.998,5.99C74.733,75.004,74.548,75.815,73.545,75.815z"/>
	<path fill-rule="evenodd" clip-rule="evenodd" fill="#111224" d="M87.525,72.816c1.463,2.182-4.355,5.592-4.992,8.988
		C80.474,79.03,86.497,75.822,87.525,72.816z"/>
	<path fill-rule="evenodd" clip-rule="evenodd" fill="#35332B" d="M84.53,81.804c2.66,0.253,3.291-6.587,4.992-3.992
		c-1.722,3.27-5.269,4.714-6.989,7.987C79.827,84.896,84.815,83.563,84.53,81.804z"/>
	<path fill-rule="evenodd" clip-rule="evenodd" fill="#35332B" d="M73.545,91.792c-0.054-1.72,0.769-2.562,1.997-2.997
		c0.156,1.175-0.17,2.834,0.998,2.997c0.334,0,0.666,0,0.999,0c-0.483,1.18-1.064,2.263-1.997,2.994
		C75.06,93.606,74.478,92.523,73.545,91.792z"/>
	<path fill-rule="evenodd" clip-rule="evenodd" fill="#1F0B05" d="M113.488,93.789c3.187,0.855,3.088-1.573,4.993-1.997
		c-0.796,2.197-2.005,3.984-4.993,3.994c0.772,6.429-1.545,9.77-4.993,11.982c-2.205-0.125-0.425-4.235-0.998-5.992
		C111.823,101.442,111.286,96.245,113.488,93.789z"/>
	<path fill-rule="evenodd" clip-rule="evenodd" fill="#1F0B05" d="M82.533,90.792c0.82,4.173-3.64,11.656-4.994,16.977
		C76.172,103.048,80.231,95.165,82.533,90.792z"/>
	<path fill-rule="evenodd" clip-rule="evenodd" fill="#1F0B05" d="M105.499,115.758c-3.469-4.078-0.522-8.734-0.998-14.98
		C108.261,104.226,104.408,109.364,105.499,115.758z"/>
	<path fill-rule="evenodd" clip-rule="evenodd" fill="#1F0B05" d="M78.537,133.732c0.425-1.923-0.685-3.606-0.998-1.997
		c-0.383-5.063,7.935-10.03,9.986-15.977c1.8,5.149-4.042,11.25-5.992,15.977c-2.13-0.469-1.901,1.426-1.997,2.995
		C79.008,136.266,78.495,134.792,78.537,133.732z"/>
	<path fill-rule="evenodd" clip-rule="evenodd" fill="#35332B" d="M78.537,133.732c-0.042,1.06,0.471,2.534,0.999,0.998
		c0.096-1.569-0.133-3.464,1.997-2.995c0.785,4.11-1.532,5.123-0.998,8.986c-1.484,0.038-1.445-5.932-1.998-0.999
		C76.899,139.887,76.899,133.566,78.537,133.732z"/>
	<path fill-rule="evenodd" clip-rule="evenodd" fill="#1F0B05" d="M96.513,133.732c1.119-0.213,1.555-1.107,1.997-1.997
		c2.775,2.197-0.141,7.115,0,9.984c-1.356,0.308-0.829,2.501-0.999,3.994c-2.66,1.668,0.554,9.209-1.997,10.985
		c-0.804-0.529-1.621-1.043-2.995-1c-1.973,0.691-2.662,2.664-2.996,4.995c-0.932-0.566-1.514-2.78-1.997-1.001
		c-0.182-1.551,1.935-9.353,0.998-14.979c-0.89,0.443-1.786,0.877-1.998,1.997c-1.436,0.228-0.347,2.98-1.995,2.997
		c0.338-2.005-0.205-3.125-1.997-2.997C87.161,142.353,97.369,143.574,96.513,133.732z"/>
	<path fill-rule="evenodd" clip-rule="evenodd" fill="#919890" d="M99.509,129.737c2.009,2.982,0.564,9.421,0.998,13.979
		c-0.333,0-0.665,0-0.998,0c0.161-1.16-0.221-1.776-0.999-1.997c-0.141-2.869,2.775-7.787,0-9.984
		c-0.442,0.89-0.878,1.784-1.997,1.997C95.642,130.529,98.05,130.607,99.509,129.737z"/>
	<path fill-rule="evenodd" clip-rule="evenodd" fill="#1F0B05" d="M63.56,15.899c1.593-0.736-0.228-4.887,2.996-3.995
		c4.122-1.067,3.095,2.479,0,1.997C65.54,14.547,65.522,16.197,63.56,15.899z"/>
	<path fill-rule="evenodd" clip-rule="evenodd" fill="#35332B" d="M72.547,25.883c0,2.665,0,5.325,0,7.99
		c-1.649-0.016-0.56-2.77-1.998-2.995c0.466-3.933-2.092-5.188,0.999-6.992C71.772,24.661,71.575,25.856,72.547,25.883z"/>
	<path fill-rule="evenodd" clip-rule="evenodd" fill="#1F0B05" d="M72.547,34.872c0.337,3.368,2.525,10.064,0,12.981
		c1.045-7.339-4.383-11.366-1.998-16.975c1.438,0.226,0.349,2.979,1.998,2.995C72.547,34.204,72.547,34.537,72.547,34.872z"/>
	<path fill-rule="evenodd" clip-rule="evenodd" fill="#FFFFFF" d="M80.535,51.847c3.354-1.024,1.554,3.106,1.998,4.992
		c-1.277,0.056-1.384,1.282-2.997,1c-0.056-0.611-0.148-1.182-0.999-1C78.981,54.954,77.181,50.823,80.535,51.847z"/>
	<path fill-rule="evenodd" clip-rule="evenodd" fill="#666A62" d="M82.533,58.837c0.628,1.702,3.017,1.642,3.992,2.995
		c-3.771-0.443-1.438,5.218-3.992,5.991C82.533,64.83,82.533,61.833,82.533,58.837z"/>
	<path fill-rule="evenodd" clip-rule="evenodd" fill="#919890" d="M101.506,82.804c-4.92,0.078-1.97-3.918-1.997-6.989
		C102.364,75.952,101.334,79.977,101.506,82.804z"/>
	<path fill-rule="evenodd" clip-rule="evenodd" fill="#1F0B05" d="M75.542,74.815c0.16,3.155,0.036,6.026-1.997,6.989
		c0.366-1.696-0.778-1.882-1.997-1.997c0.014-1.985,2.724-1.269,1.997-3.992C74.548,75.815,74.733,75.004,75.542,74.815z"/>
	<path fill-rule="evenodd" clip-rule="evenodd" fill="#1F0B05" d="M72.547,98.781c-0.839-1.158-1.317-2.679-0.999-4.992
		c1.121-0.213,1.555-1.107,1.997-1.997c0.933,0.731,1.515,1.814,1.997,2.994C73.95,95.523,75.771,99.672,72.547,98.781z"/>
	<path fill-rule="evenodd" clip-rule="evenodd" fill="#3F5751" d="M90.521,87.796c1.834,3.534-2.029,9.927-2.996,13.979
		C85.565,105.064,89.3,91.012,90.521,87.796z"/>
	<path fill-rule="evenodd" clip-rule="evenodd" fill="#919890" d="M84.53,114.757c-2.712-2.456,1.09-6.841,0.997-9.984
		C88.616,107.605,83.787,110.963,84.53,114.757z"/>
	<path fill-rule="evenodd" clip-rule="evenodd" fill="#919890" d="M92.519,132.732c-1.953-8.182-0.612-19.841,0-23.967
		C94.258,114.52,94.074,126.95,92.519,132.732z"/>
	<path fill-rule="evenodd" clip-rule="evenodd" fill="#35332B" d="M99.509,129.737c2.596-2.688,3.011,1.221,5.99,0.998
		c-6.365-2.003-3.327,10.365-3.993,16.977c-1.356-0.311-0.83-2.501-0.999-3.995C100.073,139.158,101.518,132.719,99.509,129.737z"/>
	<path fill-rule="evenodd" clip-rule="evenodd" fill="#666A62" d="M84.53,149.708c1.648-0.017,0.56-2.77,1.995-2.997
		c0.42,4.746-1.45,7.203-1.995,10.984c-3.111-0.88,2.511-6.949-1.997-3.995C83.917,153.089,82.683,149.859,84.53,149.708z"/>
	<path fill-rule="evenodd" clip-rule="evenodd" fill="#3F5751" d="M97.511,145.713c-0.76,3.364,1.841,13.845-1.997,10.985
		C98.064,154.922,94.851,147.381,97.511,145.713z"/>
	<path fill-rule="evenodd" clip-rule="evenodd" fill="#666A62" d="M62.561,179.666c0-3.328,0-6.658,0-9.984
		c17.641,0,35.284,0,52.925,0c0,3.326,0,6.656,0,9.984C97.845,179.666,80.201,179.666,62.561,179.666z"/>
	<path fill-rule="evenodd" clip-rule="evenodd" fill="#919890" d="M62.561,179.666c17.641,0,35.284,0,52.925,0
		c0,0.331,0,0.664,0,0.997C98.175,179.999,78.207,181.991,62.561,179.666z"/>
	<path fill-rule="evenodd" clip-rule="evenodd" fill="#3F5751" d="M100.507,143.716c0.169,1.494-0.357,3.685,0.999,3.995
		c-0.697,3.963,1.74,11.06-1.997,11.981c-2.355-0.103,1.524-10.157,0-15.977C99.842,143.716,100.174,143.716,100.507,143.716z"/>
	<path fill-rule="evenodd" clip-rule="evenodd" fill="#666A62" d="M70.549,162.688c0.334,0,0.666,0,0.999,0
		c1.398,1.654,9.586,1.654,10.985,0c3.799,0.617,7.726,1.146,12.98,0c1.077,1.654,8.909,1.654,9.985,0
		c0.987,1.993,8.369-1.655,7.989,3.996c-14.101-0.933-29.543-0.688-48.93,0C63.066,161.865,67.048,162.515,70.549,162.688z"/>
</g>
</svg>
