<?xml version="1.0" encoding="utf-8"?>
<!-- Generator: Adobe Illustrator 14.0.0, SVG Export Plug-In . SVG Version: 6.00 Build 43363)  -->
<!DOCTYPE svg PUBLIC "-//W3C//DTD SVG 1.1//EN" "http://www.w3.org/Graphics/SVG/1.1/DTD/svg11.dtd">
<svg version="1.1" id="Layer_1" xmlns="http://www.w3.org/2000/svg" xmlns:xlink="http://www.w3.org/1999/xlink" x="0px" y="0px"
	 width="183.507px" height="183.506px" viewBox="0 0 183.507 183.506" enable-background="new 0 0 183.507 183.506"
	 xml:space="preserve">
<g>
	<path fill-rule="evenodd" clip-rule="evenodd" fill="#0F6BA2" d="M87.294,19.818c2.432,2,4.497-0.541,6.775,0.847
		c0,0.564,0,1.13,0,1.694c-2.257,0-4.517,0-6.775,0C87.294,21.513,87.294,20.666,87.294,19.818z"/>
	<path fill-rule="evenodd" clip-rule="evenodd" fill="#0C94CA" d="M86.447,24.053c-1.187-0.299-0.072-1.491,0.847-1.693
		c2.259,0,4.519,0,6.775,0c1.809-0.396,1.614,1.21,1.694,2.541C92.652,24.625,88.266,25.624,86.447,24.053z"/>
	<path fill-rule="evenodd" clip-rule="evenodd" fill="#0C94CA" d="M91.529,38.453c-0.92,0.209-0.573,1.684-1.694,1.694
		c-0.663-3.769,1.128-5.083,0.848-8.47C92.594,32.307,91.013,36.427,91.529,38.453z"/>
	<path fill-rule="evenodd" clip-rule="evenodd" fill="#919890" d="M91.529,38.453c0,1.129,0,2.258,0,3.388
		c-2.427,0.115,0.732,5.814-1.694,5.929c0-2.541,0-5.082,0-7.623C90.956,40.136,90.609,38.662,91.529,38.453z"/>
	<path fill-rule="evenodd" clip-rule="evenodd" fill="#9ECBBA" d="M91.529,41.84c0,4.518,0,9.035,0,13.552
		c-2.427,0.115,0.732,5.814-1.694,5.929c0-4.518,0-9.035,0-13.552C92.262,47.654,89.103,41.955,91.529,41.84z"/>
	<path fill-rule="evenodd" clip-rule="evenodd" fill="#0F6BA2" d="M78.824,122.304c1.959-0.671,2.806-0.71,6.775-0.847
		c1.462,1.404,8.704,1.404,10.164,0c3.82,0.611,4.229-0.274,6.776,0.847c0,0.564,0,1.13,0,1.694c-2.258,0-4.518,0-6.776,0
		c-0.282,0-0.564,0-0.847,0c-3.104,0-6.211,0-9.317,0c-2.439,0.101-5.545-0.463-6.775,0.847
		C78.824,123.999,78.824,123.151,78.824,122.304z"/>
	<path fill-rule="evenodd" clip-rule="evenodd" fill="#919890" d="M85.6,121.458c3.389,0,6.777,0,10.164,0
		C94.304,122.862,87.062,122.862,85.6,121.458z"/>
	<path fill-rule="evenodd" clip-rule="evenodd" fill="#9ECBBA" d="M85.6,124.845c0-0.282,0-0.565,0-0.847c3.106,0,6.213,0,9.317,0
		C93.468,125.936,88.452,124.309,85.6,124.845z"/>
	<path fill-rule="evenodd" clip-rule="evenodd" fill="#919890" d="M85.6,126.54c0-0.283,0-0.564,0-0.848c3.389,0,6.777,0,10.164,0
		c0,0.283,0,0.564,0,0.848C92.377,126.54,88.988,126.54,85.6,126.54z"/>
	<path fill-rule="evenodd" clip-rule="evenodd" fill="#0F6BA2" d="M85.6,126.54c3.389,0,6.777,0,10.164,0
		c1.255,0.156,0.776,2.046,0.848,3.387c-3.952,0-7.905,0-11.857,0C84.69,128.452,84.942,127.292,85.6,126.54z"/>
	<path fill-rule="evenodd" clip-rule="evenodd" fill="#D4DBDB" d="M84.754,130.774c0-0.283,0-0.564,0-0.848
		c3.952,0,7.905,0,11.857,0c0,0.283,0,0.564,0,0.848C92.659,130.774,88.706,130.774,84.754,130.774z"/>
	<path fill-rule="evenodd" clip-rule="evenodd" fill="#0F6BA2" d="M112.704,151.102c0,1.411,0,2.823,0,4.234
		c-1.543-1.293-6.927-1.293-8.47,0c-7.067-1.41-20.036-1.41-27.104,0c-1.008-2.381-8.019,1.242-7.623-2.541
		C77.201,148.915,105.293,152.672,112.704,151.102z"/>
	<path fill-rule="evenodd" clip-rule="evenodd" fill="#9ECBBA" d="M89.835,13.042c-0.261-3.085,0.136-5.512,0.848-7.623
		c1.87,0.105,0.359,3.593,0.847,5.082C90.31,10.693,91.234,13.029,89.835,13.042z"/>
	<path fill-rule="evenodd" clip-rule="evenodd" fill="#0F6BA2" d="M86.447,24.053c1.818,1.57,6.205,0.572,9.316,0.847
		c-1.664,2.571-2.036,6.433-1.694,11.011c0.541,3.13-1.096,8.438,0.848,10.165c0.336,24.227,2.05,47.075,5.93,67.759
		c-1.093-1.168-3.68-0.838-5.93-0.847c-0.516-2.025,1.063-6.146-0.848-6.776c0.023-9.34-1.017-17.617-1.692-26.257
		c-0.552-4.249,1.109-10.709-0.848-13.552c0-3.67,0-7.34,0-11.011c0-4.517,0-9.034,0-13.552c0-1.13,0-2.258,0-3.388
		c-0.517-2.025,1.064-6.146-0.847-6.776c0.28,3.387-1.511,4.702-0.848,8.47c0,2.541,0,5.082,0,7.623c0,4.518,0,9.035,0,13.552
		c0,3.388,0,6.776,0,10.164c-1.952,2.284-0.301,8.169-0.847,11.858c-0.676,8.64-1.718,16.917-1.694,26.257
		c-1.148,0.262-0.702,2.12-0.847,3.388c0,0.282,0,0.563,0,0.847c-1.13-1.209-4.799-1.209-5.929,0
		c4.15-19.565,5.689-41.743,5.929-65.218c1.931-1.174,0.316-5.895,0.847-8.47C88.252,33.91,86.039,26.99,86.447,24.053z"/>
	<path fill-rule="evenodd" clip-rule="evenodd" fill="#0C94CA" d="M78.824,122.304c0.712-0.983,1.117-2.271,0.847-4.235
		c1.978,0,3.953,0,5.929,0c0,1.13,0,2.259,0,3.389C81.63,121.594,80.783,121.633,78.824,122.304z"/>
	<path fill-rule="evenodd" clip-rule="evenodd" fill="#0C94CA" d="M95.764,118.069c1.978,0,3.953,0,5.929,0
		c-0.269,1.965,0.137,3.252,0.848,4.235c-2.547-1.121-2.956-0.235-6.776-0.847C95.764,120.328,95.764,119.199,95.764,118.069z"/>
	<path fill-rule="evenodd" clip-rule="evenodd" fill="#0F6BA2" d="M74.59,163.807c3.47-2.178,6.722-4.572,11.857-5.082
		c2.823,0,5.646,0,8.47,0c5.616,0.313,8.268,3.59,12.705,5.082c0.676,1.582,1.415,3.102,1.694,5.081
		c-8.359-10.362-28.76-10.071-37.269,0C73.223,167.522,72.765,164.522,74.59,163.807z"/>
	<path fill-rule="evenodd" clip-rule="evenodd" fill="#9ECBBA" d="M61.038,176.511c2.875-0.229,6.866,0.656,8.47-0.847
		C69.448,178.195,62.238,177.928,61.038,176.511z"/>
	<path fill-rule="evenodd" clip-rule="evenodd" fill="#0C94CA" d="M85.6,123.999c0,0.281,0,0.564,0,0.847s0,0.564,0,0.847
		c0,0.283,0,0.564,0,0.848c-0.657,0.753-0.909,1.912-0.846,3.387c0,0.283,0,0.564,0,0.848c-1.032,3.768-2.186,7.414-2.541,11.857
		c-0.824,0.023-0.657,1.037-0.848,1.695c3.403,1.96,10.436,0.293,15.246,0.846c1.13,0,2.259,0,3.388,0
		c-0.604-5.324-1.887-9.971-3.388-14.398c0-0.283,0-0.564,0-0.848c-0.071-1.341,0.407-3.23-0.848-3.387c0-0.283,0-0.564,0-0.848
		c1.231-0.375-0.086-0.743,0-1.693c2.259,0,4.519,0,6.776,0c2.797,9.342,3.659,20.621,11.011,25.409
		c0.138,0.985-0.187,1.507-0.847,1.694c-7.411,1.57-35.503-2.188-43.196,1.693c-0.396,3.783,6.615,0.16,7.623,2.541
		c-0.452,3.219-2.646,4.696-2.541,8.471c-1.825,0.715-1.367,3.715-2.542,5.081c-0.742,2.363-2.027,4.185-2.54,6.776
		c-1.604,1.503-5.595,0.617-8.47,0.847c-1.13,0-2.259,0-3.389,0c2.605-10.382,11.231-14.743,11.012-27.95
		c5.88-2.925,7.471-15.047,10.163-23.716C80.055,123.536,83.16,124.099,85.6,123.999z"/>
	<path fill-rule="evenodd" clip-rule="evenodd" fill="#0C94CA" d="M112.704,155.336c4.784,5.943,6.901,14.557,11.858,20.328
		c-2.283,1.951-8.169,0.301-11.858,0.847c-1.429-2.241-1.96-5.381-3.388-7.623c-0.279-1.979-1.019-3.499-1.694-5.081
		c-1.583-2.37-2.083-5.823-3.388-8.471C105.777,154.043,111.161,154.043,112.704,155.336z"/>
	<path fill-rule="evenodd" clip-rule="evenodd" fill="#FFFFFF" d="M77.131,155.336c9.033,0,18.068,0,27.104,0
		c1.305,2.647,1.805,6.101,3.388,8.471c-4.438-1.492-7.089-4.77-12.705-5.082c-0.913-1.402-7.556-1.402-8.47,0
		c-5.136,0.51-8.388,2.904-11.857,5.082C74.485,160.033,76.679,158.555,77.131,155.336z"/>
	<path fill-rule="evenodd" clip-rule="evenodd" fill="#0C94CA" d="M91.529,10.502c-1.254,5.488,3.795,4.675,2.54,10.164
		c-2.278-1.388-4.344,1.152-6.775-0.847c-1.374-4.48,3.561-2.652,2.541-6.776C91.234,13.029,90.31,10.693,91.529,10.502z"/>
	<path fill-rule="evenodd" clip-rule="evenodd" fill="#9ECBBA" d="M94.069,35.911c1.944,1.727,0.307,7.034,0.848,10.165
		C92.974,44.349,94.61,39.042,94.069,35.911z"/>
	<path fill-rule="evenodd" clip-rule="evenodd" fill="#9ECBBA" d="M87.294,40.146c-0.53,2.575,1.084,7.295-0.847,8.47
		C86.979,46.042,85.362,41.321,87.294,40.146z"/>
	<path fill-rule="evenodd" clip-rule="evenodd" fill="#D4DBDB" d="M92.377,79.955c0.676,8.64,1.716,16.917,1.692,26.257
		c0,1.977,0,3.953,0,5.93c-2.257,0-4.517,0-6.775,0c0-0.848,0-1.695,0-2.541c-0.023-9.34,1.019-17.617,1.694-26.257
		c1.952-2.283,0.301-8.169,0.847-11.858c0-3.388,0-6.776,0-10.164c2.427-0.115-0.732-5.814,1.694-5.929c0,3.67,0,7.341,0,11.011
		C92.08,70.653,90.419,77.112,92.377,79.955z"/>
	<path fill-rule="evenodd" clip-rule="evenodd" fill="#0C94CA" d="M86.447,112.988c2.823,0,5.646,0,8.47,0
		c2.25,0.009,4.837-0.321,5.93,0.847c0.72-0.155,0.798,0.33,0.846,0.847c-5.042-0.49-13.74,0.317-21.174,0c0-0.282,0-0.564,0-0.847
		c1.13-1.209,4.799-1.209,5.929,0C86.447,113.551,86.447,113.27,86.447,112.988z"/>
	<path fill-rule="evenodd" clip-rule="evenodd" fill="#0F6BA2" d="M79.671,118.069c-1.041-0.369-1.738-1.084-1.694-2.541
		c1.369,0.239,1.459-0.801,2.542-0.847c7.434,0.317,16.132-0.49,21.174,0c1.426,0.81,2.647,2.812,0,3.388c-1.976,0-3.951,0-5.929,0
		c-3.387,0-6.775,0-10.164,0C83.624,118.069,81.648,118.069,79.671,118.069z"/>
	<path fill-rule="evenodd" clip-rule="evenodd" fill="#FFFFFF" d="M85.6,118.069c3.389,0,6.777,0,10.164,0c0,1.13,0,2.259,0,3.389
		c-3.387,0-6.775,0-10.164,0C85.6,120.328,85.6,119.199,85.6,118.069z"/>
	<path fill-rule="evenodd" clip-rule="evenodd" fill="#D4DBDB" d="M95.764,123.999c-0.086,0.95,1.231,1.318,0,1.693
		c-3.387,0-6.775,0-10.164,0c0-0.282,0-0.564,0-0.847c2.853-0.536,7.868,1.091,9.317-0.847
		C95.199,123.999,95.481,123.999,95.764,123.999z"/>
	<path fill-rule="evenodd" clip-rule="evenodd" fill="#FFFFFF" d="M96.611,130.774c1.501,4.428,2.783,9.074,3.388,14.398
		c-1.129,0-2.258,0-3.388,0c-2.683-2.963-13.084,1.792-14.398-2.541c0.355-4.443,1.509-8.09,2.541-11.857
		C88.706,130.774,92.659,130.774,96.611,130.774z"/>
	<path fill-rule="evenodd" clip-rule="evenodd" fill="#919890" d="M86.447,158.725c0.914-1.402,7.557-1.402,8.47,0
		C92.094,158.725,89.271,158.725,86.447,158.725z"/>
	<path fill-rule="evenodd" clip-rule="evenodd" fill="#F1EFEA" d="M82.213,142.631c1.314,4.333,11.716-0.422,14.398,2.541
		c-4.811-0.553-11.843,1.114-15.246-0.846C81.556,143.668,81.389,142.655,82.213,142.631z"/>
	<path fill-rule="evenodd" clip-rule="evenodd" fill="#9ECBBA" d="M91.529,66.403c1.957,2.843,0.296,9.303,0.848,13.552
		C90.419,77.112,92.08,70.653,91.529,66.403z"/>
	<path fill-rule="evenodd" clip-rule="evenodd" fill="#9ECBBA" d="M89.835,71.485c-0.546,3.688,1.105,9.575-0.847,11.858
		C89.534,79.654,87.883,73.769,89.835,71.485z"/>
	<path fill-rule="evenodd" clip-rule="evenodd" fill="#9ECBBA" d="M94.069,106.211c1.911,0.631,0.332,4.751,0.848,6.776
		c-2.823,0-5.646,0-8.47,0c0.145-1.268-0.302-3.126,0.847-3.388c0,0.846,0,1.693,0,2.541c2.259,0,4.519,0,6.775,0
		C94.069,110.165,94.069,108.188,94.069,106.211z"/>
	<path fill-rule="evenodd" clip-rule="evenodd" fill="#9ECBBA" d="M77.131,155.336c7.067-1.41,20.036-1.41,27.104,0
		C95.199,155.336,86.164,155.336,77.131,155.336z"/>
</g>
</svg>
