<?xml version="1.0" encoding="utf-8"?>
<!-- Generator: Adobe Illustrator 14.0.0, SVG Export Plug-In . SVG Version: 6.00 Build 43363)  -->
<!DOCTYPE svg PUBLIC "-//W3C//DTD SVG 1.1//EN" "http://www.w3.org/Graphics/SVG/1.1/DTD/svg11.dtd">
<svg version="1.1" id="Layer_1" xmlns="http://www.w3.org/2000/svg" xmlns:xlink="http://www.w3.org/1999/xlink" x="0px" y="0px"
	 width="183.507px" height="183.506px" viewBox="0 0 183.507 183.506" enable-background="new 0 0 183.507 183.506"
	 xml:space="preserve">
<g>
	<path fill-rule="evenodd" clip-rule="evenodd" fill="#35332B" d="M101.545,26.034c-1.174,0-2.347,0-3.521,0
		c0.186-0.987,0.977-1.37,1.76-1.76c0.294,0,0.587,0,0.881,0c0.229,1.369,1.93,0.61,2.641,0c0.293,0,0.585,0,0.879,0
		c0,0.586,0,1.173,0,1.76C103.306,26.034,102.425,26.034,101.545,26.034z"/>
	<path fill-rule="evenodd" clip-rule="evenodd" fill="#35332B" d="M114.744,46.273c0.294,0,0.587,0,0.88,0
		c-1.087,2.848,2.849,0.673,1.761,3.52c-1.174,0-2.347,0-3.521,0C113.667,48.13,114.855,47.852,114.744,46.273z"/>
	<path fill-rule="evenodd" clip-rule="evenodd" fill="#35332B" d="M120.024,48.033c-1.088,2.848,2.848,0.672,1.76,3.52
		c-2.12,0.36-1.913-1.607-4.399-0.88c2.189-1.55,1.283-1.454,0-3.52C118.596,47.116,119.316,47.568,120.024,48.033z"/>
	<path fill-rule="evenodd" clip-rule="evenodd" fill="#35332B" d="M89.225,74.433c1.497-0.324,1.661,0.687,1.76,1.76
		c1.25,0.076,2.493,0.146,2.641-0.879C97.571,77.241,86.734,78.933,89.225,74.433z"/>
	<path fill-rule="evenodd" clip-rule="evenodd" fill="#6D3720" d="M105.064,75.313c0.88,0,1.76,0,2.64,0c0.587,0,1.174,0,1.761,0
		c0.884-0.003,1.047,0.712,1.76,0.879c-1.271,2.873-1.966,2.214-5.28,1.76c0.148-1.025,1.391-0.956,2.641-0.88
		c-1.468-2.529-4.235,0.962-5.279,1.76c-1.318-0.15-3.248,0.314-3.521-0.88C102.468,77.996,104.266,77.153,105.064,75.313z"/>
	<path fill-rule="evenodd" clip-rule="evenodd" fill="#6D3720" d="M112.984,76.193c0.294,0,0.586,0,0.88,0
		c0.194,0.686,0.737,1.023,1.76,0.88c0,0.294,0,0.586,0,0.88c-2.052,0.293-3.791,0.902-4.399,2.64
		c-0.682-0.197-1.735-0.024-1.76-0.879C109.786,77.688,113.316,78.873,112.984,76.193z"/>
	<path fill-rule="evenodd" clip-rule="evenodd" fill="#35332B" d="M90.984,123.712c1.433-2.673,11.286-0.718,13.2,1.76
		c-2.065-0.28-3.304-1.39-6.16-0.88C95.918,124.059,94.01,123.328,90.984,123.712z"/>
	<path fill-rule="evenodd" clip-rule="evenodd" fill="#35332B" d="M113.864,124.592c0.586,0,1.174,0,1.76,0
		c0.755,2.807-1.385,2.722-1.76,4.4c-0.294,0-0.586,0-0.88,0c-1.124-0.049-1.218-1.128-2.64-0.881
		C111.339,126.533,116.69,127.403,113.864,124.592z"/>
	<path fill-rule="evenodd" clip-rule="evenodd" fill="#F1EFEA" d="M78.665,177.391c0.586,0,1.174,0,1.76,0c1.467,0,2.934,0,4.4,0
		c1.174,0,2.346,0,3.52,0s2.347,0,3.521,0C89.483,178.854,81.048,178.854,78.665,177.391z"/>
	<path fill-rule="evenodd" clip-rule="evenodd" fill="#F1EFEA" d="M92.745,177.391c0.294,0,0.586,0,0.88,0c1.174,0,2.346,0,3.52,0
		c1.76,0,3.521,0,5.28,0C101.192,178.85,93.978,178.85,92.745,177.391z"/>
	<path fill-rule="evenodd" clip-rule="evenodd" fill="#F1EFEA" d="M60.186,176.512c1.22,2.006,6.125,0.328,8.8,0.879
		C67.932,179.235,57.326,178.579,60.186,176.512z"/>
	<path fill-rule="evenodd" clip-rule="evenodd" fill="#F1EFEA" d="M106.824,177.391c3.754,0.233,7.519,0.478,7.92-2.64
		c1.46,5.592-9.164,3.707-11.438,2.64c0.879,0,1.759,0,2.639,0C106.238,177.391,106.53,177.391,106.824,177.391z"/>
	<path fill-rule="evenodd" clip-rule="evenodd" fill="#C46936" d="M113.864,20.754c-0.354-4.167,1.571-6.056,0.88-10.56
		c-3.762,2.104-2.456,9.276-3.52,14.08c-0.218,1.107-1.75,0.888-1.76,0c0-1.467,0-2.934,0-4.4c1.353-2.753,1.4-6.812,1.76-10.56
		c-2.67-0.028-2.192,3.087-2.64,5.28c-0.714-0.167-0.877-0.883-1.761-0.88c-0.359-2.121,1.606-1.914,0.88-4.4
		c-4.944,1.509-2.446,10.459-4.398,14.96c-0.711,0.61-2.411,1.369-2.641,0c1.909-3.664,2.392-8.754,2.641-14.08
		c-3.593,1.687-2.388,8.172-3.521,12.32c-0.955,0.217-0.596,1.749-1.76,1.76c0.495-6.251,1.627-11.867,2.641-17.6
		c7.29-3.656,18.333-0.843,23.76,2.64c-0.412,6.042-0.939,11.968-2.641,16.72c-0.074-1.394,0.423-3.356-0.88-3.52
		c0.823-2.99,1.178-6.45,1.76-9.68c-5.178,0.688-1.995,9.738-4.399,13.2c-0.855-0.024-0.683-1.077-0.88-1.76
		c-0.65-4.17,0.989-6.05,0.88-9.68c-0.111-1.579,1.078-1.856,0.88-3.521c-3.878-1.237-2.384,2.896-2.64,5.28
		c-2.491-0.144,0.73,5.424-1.761,5.28C114.905,20.885,114.401,20.804,113.864,20.754z"/>
	<path fill-rule="evenodd" clip-rule="evenodd" fill="#541407" d="M103.306,24.274c1.952-4.501-0.546-13.451,4.398-14.96
		c0.727,2.487-1.239,2.28-0.88,4.4c-1.044,3.354,0.284,9.083-2.64,10.56C103.891,24.274,103.599,24.274,103.306,24.274z"/>
	<path fill-rule="evenodd" clip-rule="evenodd" fill="#1F0B05" d="M116.505,16.354c0.256-2.384-1.238-6.518,2.64-5.28
		c0.198,1.664-0.991,1.941-0.88,3.521C117.309,14.811,117.669,16.343,116.505,16.354z"/>
	<path fill-rule="evenodd" clip-rule="evenodd" fill="#541407" d="M111.225,24.274c1.063-4.803-0.242-11.976,3.52-14.08
		c0.691,4.503-1.233,6.392-0.88,10.56c-0.738,1.021-1.159,2.359-0.88,4.4c-0.294,0-0.586,0-0.879,0
		C112.267,24.405,111.761,24.324,111.225,24.274z"/>
	<path fill-rule="evenodd" clip-rule="evenodd" fill="#541407" d="M99.784,22.514c1.134-4.147-0.071-10.633,3.521-12.32
		c-0.249,5.326-0.731,10.416-2.641,14.08c-0.294,0-0.587,0-0.881,0C99.784,23.688,99.784,23.101,99.784,22.514z"/>
	<path fill-rule="evenodd" clip-rule="evenodd" fill="#541407" d="M114.744,21.634c2.491,0.144-0.73-5.424,1.761-5.28
		c1.164-0.011,0.804-1.543,1.76-1.76c0.109,3.63-1.53,5.51-0.88,9.68c-0.686,0.194-1.022,0.737-0.88,1.76
		C114.581,25.904,114.615,23.816,114.744,21.634z"/>
	<path fill-rule="evenodd" clip-rule="evenodd" fill="#6D3720" d="M98.024,24.274c1.164-0.011,0.805-1.542,1.76-1.76
		c0,0.586,0,1.173,0,1.76c-0.783,0.39-1.574,0.772-1.76,1.76c1.174,0,2.347,0,3.521,0c-0.119,1.449-6.04,1.449-6.159,0
		C95.584,24.766,98.011,25.727,98.024,24.274z"/>
	<path fill-rule="evenodd" clip-rule="evenodd" fill="#6D3720" d="M117.385,24.274c0.197,0.683,0.024,1.736,0.88,1.76
		c0.749-0.162,0.83,0.344,0.88,0.88c1.923-0.13,1.889-2.217,1.76-4.4c1.303,0.163,0.806,2.126,0.88,3.52
		c-0.36,2.12,1.607,1.913,0.88,4.4c-4.005-0.688-7.164-2.222-10.559-3.52c0-0.587,0-1.174,0-1.76c0.293,0,0.585,0,0.879,0
		c-0.279-2.041,0.142-3.378,0.88-4.4c0.537,0.05,1.041,0.131,0.88,0.88c-0.129,2.183-0.163,4.271,1.761,4.4
		C116.362,25.011,116.699,24.468,117.385,24.274z"/>
	<path fill-rule="evenodd" clip-rule="evenodd" fill="#541407" d="M107.704,44.513c2.215-3.945,0.47-11.85,3.521-14.959
		c4.001,2.761-1.371,9.196,0,14.959C109.673,45.123,108.5,45.486,107.704,44.513z"/>
	<path fill-rule="evenodd" clip-rule="evenodd" fill="#541407" d="M112.984,43.633c0.673-4.314,0.72-9.253,2.64-12.319
		c4.118,2.396-1.229,9.675,0,14.959c-0.293,0-0.586,0-0.88,0C113.165,46.387,112.686,45.399,112.984,43.633z"/>
	<path fill-rule="evenodd" clip-rule="evenodd" fill="#541407" d="M98.904,43.633c1.28-5.173-0.523-13.43,4.401-14.959
		c0.162,6.029-1.738,9.996-1.761,15.839C100.333,44.551,99.612,44.099,98.904,43.633z"/>
	<path fill-rule="evenodd" clip-rule="evenodd" fill="#541407" d="M117.385,47.154c0.604-4.968,0.572-10.575,2.64-14.08
		c4.118,2.396-1.229,9.675,0,14.959C119.316,47.568,118.596,47.116,117.385,47.154z"/>
	<path fill-rule="evenodd" clip-rule="evenodd" fill="#541407" d="M93.625,44.513c2.518-3.935-0.434-13.339,4.399-14.959
		c1.699,3.534-1.758,8.534-0.88,14.08C95.35,45.169,95.42,42.979,93.625,44.513z"/>
	<path fill-rule="evenodd" clip-rule="evenodd" fill="#6D3720" d="M107.704,44.513c0.796,0.973,1.969,0.61,3.521,0
		c0.427,1.567,0.938-0.381,1.76-0.88c-0.299,1.766,0.181,2.753,1.76,2.64c0.111,1.578-1.077,1.856-0.88,3.52
		c-7.323-2.724-16.826-1.438-23.76-2.64c-0.247-1.422,0.832-1.515,0.88-2.641c0.294,0,0.587,0,0.881,0c0.586,0,1.174,0,1.76,0
		c1.795-1.535,1.725,0.656,3.52-0.88c0.586,0,1.174,0,1.76,0c0.708,0.466,1.429,0.918,2.641,0.88c0.587,0,1.174,0,1.761,0
		c0.879,0,1.759,0,2.639,0c-0.075-1.249-0.145-2.492,0.88-2.64C106.963,42.909,106.673,44.372,107.704,44.513z"/>
	<path fill-rule="evenodd" clip-rule="evenodd" fill="#541407" d="M85.705,71.793c1.779-6.728-0.126-17.138,5.279-20.24
		c2.211,6.777-2.041,14.262-1.76,22C87.666,73.353,84.818,74.44,85.705,71.793z"/>
	<path fill-rule="evenodd" clip-rule="evenodd" fill="#541407" d="M98.024,71.793c1.76-6.454,0.479-15.949,4.4-20.24
		c4.326,5.364-1.598,15.3-0.88,22.88C99.862,74.063,97.756,74.114,98.024,71.793z"/>
	<path fill-rule="evenodd" clip-rule="evenodd" fill="#541407" d="M104.185,72.673c1.457-6.756,0.493-15.932,4.4-20.24
		c4.449,5.487-1.95,14.947-0.881,22.88c-0.88,0-1.76,0-2.64,0c0.162-0.749-0.344-0.831-0.88-0.88
		C104.185,73.847,104.185,73.26,104.185,72.673z"/>
	<path fill-rule="evenodd" clip-rule="evenodd" fill="#541407" d="M109.465,75.313c3.008-6.378,0.033-18.74,6.159-22
		c2.067,6.916-2.454,14.444-1.76,22.879c-0.294,0-0.586,0-0.88,0c-0.586,0-1.174,0-1.76,0
		C110.512,76.026,110.349,75.31,109.465,75.313z"/>
	<path fill-rule="evenodd" clip-rule="evenodd" fill="#541407" d="M115.624,77.073c1.882-6.625,1.054-15.959,4.4-21.12
		c5.252,3.754-1.104,15.687-0.88,22.88c-0.586,0-1.174,0-1.76,0c-0.024-0.855-1.078-0.683-1.761-0.88
		C115.624,77.659,115.624,77.367,115.624,77.073z"/>
	<path fill-rule="evenodd" clip-rule="evenodd" fill="#6D3720" d="M85.705,71.793c-0.887,2.646,1.961,1.559,3.52,1.76
		c1.73,0.263,1.745-1.188,2.641-1.76c-0.411,1.877,1.258,1.676,2.64,1.76c0.739,1.021,1.16,2.359,0.881,4.4
		c-5.306-0.024-10.834-0.274-14.961,0.88c1.063-1.284,3.847-0.846,2.641-4.4c0-0.294,0-0.586,0-0.88
		c1.074-0.1,2.082-0.263,1.76-1.76C85.119,71.793,85.411,71.793,85.705,71.793z M93.625,75.313
		c-0.147,1.025-1.391,0.955-2.641,0.879c-0.099-1.073-0.263-2.083-1.76-1.76C86.734,78.933,97.571,77.241,93.625,75.313z"/>
	<path fill-rule="evenodd" clip-rule="evenodd" fill="#35332B" d="M94.505,73.553c0.294,0,0.586,0,0.881,0
		c0.254,1.027,4.991,2.542,0.879,2.64c2.831,1.264,6.602,1.408,7.92-1.76c0.536,0.05,1.042,0.131,0.88,0.88
		c-0.799,1.84-2.597,2.683-5.28,2.64c-1.466,0-2.934,0-4.398,0C95.665,75.912,95.244,74.575,94.505,73.553z"/>
	<path fill-rule="evenodd" clip-rule="evenodd" fill="#35332B" d="M111.225,76.193c0.586,0,1.174,0,1.76,0
		c0.332,2.68-3.198,1.495-3.52,3.521c-2.066-0.281-3.304-1.391-6.159-0.88c1.044-0.798,3.812-4.289,5.279-1.76
		c-1.25-0.076-2.492-0.145-2.641,0.88C109.259,78.407,109.953,79.065,111.225,76.193z"/>
	<path fill-rule="evenodd" clip-rule="evenodd" fill="#35332B" d="M111.225,80.593c0.608-1.738,2.348-2.346,4.399-2.64
		c0.683,0.197,1.736,0.024,1.761,0.88c-7.716-1.818,1.737,5.806,1.76,0.88c2.635,0.579-0.843,1.881,0,3.52
		C116.496,82.361,115.217,80.12,111.225,80.593z"/>
	<path fill-rule="evenodd" clip-rule="evenodd" fill="#6D3720" d="M119.145,83.233c-0.843-1.639,2.635-2.941,0-3.52
		c-0.022,4.925-9.476-2.698-1.76-0.88c0.586,0,1.174,0,1.76,0c1.256,0.21,1.484,1.449,2.64,1.76c1.894,0.747,3.113,2.167,2.641,5.28
		c-1.84-0.506-2.512-2.182-5.28-1.76C119.145,83.819,119.145,83.526,119.145,83.233z"/>
	<path fill-rule="evenodd" clip-rule="evenodd" fill="#541407" d="M83.065,118.432c0.367-10.489,1.948-27.38,6.159-36.959
		c4.731,3.371,1.771,11.752,0.88,17.6c-1.047,6.887-2.663,13.826-3.52,19.359c-0.88,0-1.76,0-2.64,0
		C83.651,118.432,83.358,118.432,83.065,118.432z"/>
	<path fill-rule="evenodd" clip-rule="evenodd" fill="#541407" d="M74.265,119.313c3.975-11.279,0.85-29.657,8.801-36.96
		c2.201,4.56-0.305,11.207-0.881,15.84c-2.627,1.506-3.104,9.767-1.76,12.319c0.472,3.404-1.57,4.297-0.881,7.92
		c-0.681,0.197-1.735,0.024-1.759,0.881C76.611,119.313,75.438,119.313,74.265,119.313z"/>
	<path fill-rule="evenodd" clip-rule="evenodd" fill="#541407" d="M90.104,117.552c2.395-11.685,1.367-26.793,7.04-35.199
		c5.204,2.615-0.425,14.748-0.88,20.239c-0.961,1.445-3.016,6.292-0.879,7.92c-0.447,3.072-0.396,6.645-1.761,8.801
		c-0.294,0-0.586,0-0.88,0C91.231,119.36,90.489,118.635,90.104,117.552z"/>
	<path fill-rule="evenodd" clip-rule="evenodd" fill="#1F0B05" d="M96.265,102.592c0.271,3.205-0.14,5.727-0.879,7.92
		C93.249,108.884,95.304,104.038,96.265,102.592z"/>
	<path fill-rule="evenodd" clip-rule="evenodd" fill="#541407" d="M97.145,120.192c2.535-12.131,1.94-27.393,7.04-36.959
		c4.434,3.186,1.819,11.496,0.88,17.6c-1.026,6.672-3.057,13.69-3.52,19.359c0,0.294,0,0.587,0,0.881
		C100.523,120.334,99.185,119.913,97.145,120.192z"/>
	<path fill-rule="evenodd" clip-rule="evenodd" fill="#1F0B05" d="M82.185,98.193c0.052,4.745-1.369,8.017-1.76,12.319
		C79.081,107.959,79.558,99.699,82.185,98.193z"/>
	<path fill-rule="evenodd" clip-rule="evenodd" fill="#541407" d="M107.704,99.954c1.592-4.863-0.501-13.409,4.401-14.961
		c4.081,5.975-1.06,17.617-1.761,24.64c-1.162,0.96-3.023,5.683-0.88,7.04c0,1.467,0,2.934,0,4.4
		c-0.855,0.023-0.683,1.076-0.88,1.76c-0.708-0.467-1.43-0.918-2.641-0.881c-0.024-0.855-1.078-0.682-1.76-0.879
		c1.454-3.826,0.916-9.645,2.64-13.2C107.479,109.597,110.044,101.22,107.704,99.954z"/>
	<path fill-rule="evenodd" clip-rule="evenodd" fill="#35332B" d="M92.745,119.313c0.294,0,0.586,0,0.88,0
		c0.163,1.303,2.126,0.807,3.52,0.879c2.04-0.279,3.379,0.143,4.4,0.881c1.124,0.048,1.218,1.127,2.64,0.879
		c-3.43,2.117-6.698-0.92-11.439-1.76C92.745,119.899,92.745,119.606,92.745,119.313z"/>
	<path fill-rule="evenodd" clip-rule="evenodd" fill="#6D3720" d="M83.945,118.432c1.986,4.341,5.695,0.467,6.159-0.88
		c0.385,1.083,1.127,1.808,2.641,1.761c0,0.293,0,0.586,0,0.879c4.741,0.84,8.01,3.877,11.439,1.76
		c-1.422,0.248-1.516-0.831-2.64-0.879c0-0.294,0-0.587,0-0.881c1.124,0.049,1.218,1.128,2.64,0.881
		c1.062,1.367,2.813,3.429,0.88,5.279c-2.352-0.582-5.498-0.369-7.04-1.76c2.856-0.51,4.095,0.6,6.16,0.88
		c-1.914-2.478-11.768-4.433-13.2-1.76c-4.694,0-9.386,0-14.079,0c9.477-0.329,2.433-5.276-0.88,0c-0.294,0-0.587,0-0.88,0
		c0.458-1.302,1.302-2.218,1.76-3.521c-2.035,1.192-2.915,3.538-7.04,2.641c0.167-0.713,0.884-0.877,0.88-1.76
		c-0.162-0.748,0.344-0.83,0.88-0.881c1.125-0.048,1.219-1.127,2.64-0.879c1.174,0,2.347,0,3.521,0
		c0.639,0.719,6.091,2.359,5.28-0.881C83.358,118.432,83.651,118.432,83.945,118.432z M83.945,122.833c2.345,0,4.694,0,7.039,0
		c-0.347-1.514,1.307-2.256,0-2.641C89.7,122.133,85.229,120.891,83.945,122.833z"/>
	<path fill-rule="evenodd" clip-rule="evenodd" fill="#35332B" d="M90.984,120.192c1.307,0.385-0.347,1.127,0,2.641
		c-2.345,0-4.694,0-7.039,0C85.229,120.891,89.7,122.133,90.984,120.192z"/>
	<path fill-rule="evenodd" clip-rule="evenodd" fill="#35332B" d="M76.025,123.712c3.313-5.276,10.356-0.329,0.88,0
		C76.611,123.712,76.319,123.712,76.025,123.712z"/>
	<path fill-rule="evenodd" clip-rule="evenodd" fill="#35332B" d="M70.745,121.073c0.004,0.883-0.713,1.047-0.88,1.76
		c4.125,0.897,5.005-1.448,7.04-2.641c-0.458,1.303-1.302,2.219-1.76,3.521c-3.801,0.467-4.934,0.255-7.04,0.88
		c-0.642-2.4,1.748-1.771,1.76-3.52C70.159,121.073,70.451,121.073,70.745,121.073z"/>
	<path fill-rule="evenodd" clip-rule="evenodd" fill="#35332B" d="M105.064,126.352c1.933-1.851,0.182-3.912-0.88-5.279
		c0.682,0.197,1.735,0.023,1.76,0.879c0.897,1.156,0.863,3.244,1.76,4.4c2.203,0.149,2.756-1.352,3.521-2.64
		c1.022-0.144,1.565,0.194,1.76,0.88c-0.999,0.167-0.488,0.883,0,0.88c-1.131,0.444-1.82,0.93-4.399,1.761
		C107.396,126.956,106.904,125.979,105.064,126.352z"/>
	<path fill-rule="evenodd" clip-rule="evenodd" fill="#6D3720" d="M105.944,121.952c1.211-0.037,1.933,0.414,2.641,0.881
		c0.197-0.684,0.024-1.736,0.88-1.76c-0.048,1.514,0.677,2.256,1.76,2.64c-0.765,1.288-1.317,2.789-3.521,2.64
		C106.808,125.196,106.842,123.108,105.944,121.952z"/>
	<path fill-rule="evenodd" clip-rule="evenodd" fill="#6D3720" d="M108.585,127.233c2.579-0.831,3.269-1.316,4.399-1.761
		c-0.488,0.003-0.999-0.713,0-0.88c0.294,0,0.586,0,0.88,0c2.826,2.811-2.525,1.94-3.52,3.52
		C109.662,127.915,108.609,128.088,108.585,127.233z"/>
	<path fill-rule="evenodd" clip-rule="evenodd" fill="#6D3720" d="M115.624,124.592c0.294,0,0.587,0,0.881,0
		c0.099,1.074,0.263,2.084,1.76,1.76c0,0.294,0,0.586,0,0.881c-0.686,0.193-1.022,0.736-0.88,1.76
		c-1.212,0.037-1.933-0.415-2.641-0.881c-0.263,1.73,1.188,1.746,1.761,2.641c-1.639-0.121-2.941-0.579-3.521-1.76
		c0.294,0,0.586,0,0.88,0C114.239,127.314,116.379,127.399,115.624,124.592z"/>
	<path fill-rule="evenodd" clip-rule="evenodd" fill="#1F0B05" d="M83.065,136.032c-1.588-2.842-1.926-5.517-1.761-7.92
		c0.294,0,0.587,0,0.88,0C85.685,128.998,83.028,133.415,83.065,136.032z"/>
	<path fill-rule="evenodd" clip-rule="evenodd" fill="#541407" d="M71.625,177.391c2.995-11.039,4.164-49.927,10.56-49.279
		c-0.293,0-0.586,0-0.88,0c-0.165,2.403,0.173,5.078,1.761,7.92c-1.975,13.572-4.108,26.986-6.16,40.48
		c-1.279,0.48-4.547-1.029-4.4,0.879C72.211,177.391,71.919,177.391,71.625,177.391z"/>
	<path fill-rule="evenodd" clip-rule="evenodd" fill="#35332B" d="M118.265,127.233c0.783,0.39,1.574,0.771,1.76,1.76
		c-2.768-1.008-2.139,1.381-3.52,1.76c-0.572-0.895-2.023-0.91-1.761-2.641c0.708,0.466,1.429,0.918,2.641,0.881
		C117.242,127.969,117.579,127.426,118.265,127.233z"/>
	<path fill-rule="evenodd" clip-rule="evenodd" fill="#541407" d="M80.425,177.391c2.659-16.701,2.838-35.882,8.8-49.279
		c5.065,5.42,1.172,16.061,0,23.76c-1.379,9.068-2.503,18.197-4.399,25.52C83.358,177.391,81.892,177.391,80.425,177.391z"/>
	<path fill-rule="evenodd" clip-rule="evenodd" fill="#541407" d="M75.146,129.872c-1.73,16.164-4.156,31.632-7.04,46.641
		c-1.174,0-2.347,0-3.521,0c-1.108-11.096,3.67-32.445,6.16-45.76c-0.143-1.023,0.193-1.566,0.88-1.76
		C73.464,128.62,73.956,129.596,75.146,129.872z"/>
	<path fill-rule="evenodd" clip-rule="evenodd" fill="#541407" d="M88.345,177.391c1.945-8.029,2.217-16.85,3.521-25.52
		c1.201-7.99,1.612-17.148,6.159-22c5.551,5.516-1.443,19.863-1.76,28.16c-0.591-1.381-3.137,7.334-0.879,8.8
		c-0.472,3.636-1.29,6.925-1.761,10.56c-0.294,0-0.586,0-0.88,0s-0.587,0-0.88,0C90.691,177.391,89.519,177.391,88.345,177.391z"/>
	<path fill-rule="evenodd" clip-rule="evenodd" fill="#1F0B05" d="M96.265,158.032c0.689,3.916-1.172,5.281-0.879,8.8
		C93.128,165.366,95.674,156.651,96.265,158.032z"/>
	<path fill-rule="evenodd" clip-rule="evenodd" fill="#541407" d="M97.145,177.391c0.889-7.996,2.173-16.734,3.521-25.52
		c1.218-7.938,1.189-17.342,5.279-20.239c4.642,5.052,1.154,14.375,0,21.999c-1.198,7.92-3.063,16.531-3.52,23.76
		C100.665,177.391,98.904,177.391,97.145,177.391z"/>
	<path fill-rule="evenodd" clip-rule="evenodd" fill="#541407" d="M105.944,177.391c1.563-11.68,1.986-32.008,7.92-42.238
		c5.359,4.081,0.96,13,0,19.359c-1.129,7.486-1.996,15.183-2.64,22c-1.278,0.48-4.548-1.029-4.4,0.879
		C106.53,177.391,106.238,177.391,105.944,177.391z"/>
	<path fill-rule="evenodd" clip-rule="evenodd" fill="#541407" d="M108.585,14.594c0.447-2.193-0.03-5.309,2.64-5.28
		c-0.359,3.748-0.407,7.807-1.76,10.56c-0.714,0.167-0.877,0.884-1.761,0.88C106.998,17.702,109.016,17.372,108.585,14.594z"/>
	<path fill-rule="evenodd" clip-rule="evenodd" fill="#541407" d="M118.265,26.034c2.404-3.462-0.778-12.512,4.399-13.2
		c-0.582,3.23-0.937,6.69-1.76,9.68c0.129,2.183,0.163,4.27-1.76,4.4C119.095,26.377,119.014,25.872,118.265,26.034z"/>
	<path fill-rule="evenodd" clip-rule="evenodd" fill="#934B23" d="M108.585,14.594c0.431,2.777-1.587,3.107-0.881,6.16
		c0.374,1.839-0.603,2.33-0.88,3.52c-0.012,2.469-2.4-2.096-1.76,1.76c-0.294,0-0.585,0-0.88,0c0-0.587,0-1.174,0-1.76
		c2.924-1.477,1.596-7.206,2.64-10.56C107.708,13.711,107.871,14.427,108.585,14.594z"/>
	<path fill-rule="evenodd" clip-rule="evenodd" fill="#1F0B05" d="M106.824,24.274c0.277-1.19,1.254-1.681,0.88-3.52
		c0.884,0.003,1.047-0.713,1.761-0.88c0,1.467,0,2.934,0,4.4C108.585,24.274,107.704,24.274,106.824,24.274z"/>
	<path fill-rule="evenodd" clip-rule="evenodd" fill="#35332B" d="M106.824,24.274c0.88,0,1.761,0,2.641,0
		c0.01,0.888,1.542,1.107,1.76,0c0.536,0.05,1.042,0.131,0.881,0.88c0,0.586,0,1.173,0,1.76c-1.279-1.361-4.506-0.775-7.041-0.88
		C104.424,22.178,106.813,26.743,106.824,24.274z"/>
	<path fill-rule="evenodd" clip-rule="evenodd" fill="#541407" d="M103.306,44.513c1.952-4.501-0.546-13.451,4.398-14.959
		c1.413,2.745-1.525,7.534-0.88,12.32c-1.024,0.148-0.955,1.391-0.88,2.64C105.064,44.513,104.185,44.513,103.306,44.513z"/>
	<path fill-rule="evenodd" clip-rule="evenodd" fill="#35332B" d="M90.104,47.154c-3.271-0.927-1.726,2.968-3.52,3.52
		c-0.379-3.897,1.468-5.572,4.399-6.16C90.937,45.639,89.857,45.732,90.104,47.154z"/>
	<path fill-rule="evenodd" clip-rule="evenodd" fill="#541407" d="M91.865,71.793c1.381-7.125,0.78-16.232,4.399-21.12
		c4.792,4.427-1.574,12.342,0,19.36c-1.194,0.272-0.73,2.204-0.879,3.52c-0.295,0-0.587,0-0.881,0
		C93.123,73.469,91.454,73.67,91.865,71.793z"/>
	<path fill-rule="evenodd" clip-rule="evenodd" fill="#6D3720" d="M96.265,70.033c0,0.88,0,1.76,0,2.64
		c0.883,0.003,1.047-0.713,1.76-0.879c-0.269,2.32,1.838,2.269,3.521,2.64c1.729,0.264,1.745-1.188,2.64-1.76
		c0,0.587,0,1.174,0,1.76c-1.318,3.168-5.089,3.024-7.92,1.76c4.112-0.098-0.625-1.613-0.879-2.64
		C95.534,72.237,95.07,70.305,96.265,70.033z"/>
	<path fill-rule="evenodd" clip-rule="evenodd" fill="#35332B" d="M77.785,79.713c0.043-3.477,1.804-5.237,5.28-5.28
		c1.206,3.554-1.578,3.116-2.641,4.4C78.395,77.086,79.447,79.054,77.785,79.713z"/>
	<path fill-rule="evenodd" clip-rule="evenodd" fill="#541407" d="M111.225,123.712c3.695-10.678,1.416-27.33,7.92-35.2
		c4.206,10.142-3.32,23.615-2.64,36.08c-0.294,0-0.587,0-0.881,0c-0.586,0-1.174,0-1.76,0c-0.294,0-0.586,0-0.88,0
		C112.79,123.907,112.247,123.569,111.225,123.712z"/>
	<path fill-rule="evenodd" clip-rule="evenodd" fill="#1F0B05" d="M106.824,107.873c-0.271-3.206,0.14-5.727,0.88-7.919
		C110.044,101.22,107.479,109.597,106.824,107.873z"/>
	<path fill-rule="evenodd" clip-rule="evenodd" fill="#1F0B05" d="M110.345,109.632c-0.104,2.536,0.481,5.761-0.88,7.04
		C107.321,115.315,109.183,110.592,110.345,109.632z"/>
	<path fill-rule="evenodd" clip-rule="evenodd" fill="#C46936" d="M90.104,47.154c6.934,1.202,16.437-0.084,23.76,2.64
		c1.174,0,2.347,0,3.521,0c1.088-2.847-2.848-0.672-1.761-3.52c-1.229-5.284,4.118-12.563,0-14.959
		c-1.92,3.066-1.967,8.005-2.64,12.319c-0.822,0.499-1.333,2.447-1.76,0.88c-1.371-5.764,4.001-12.198,0-14.959
		c-3.051,3.109-1.306,11.015-3.521,14.959c-1.031-0.142-0.741-1.604-0.88-2.64c-0.646-4.786,2.293-9.575,0.88-12.32
		c-4.944,1.508-2.446,10.458-4.398,14.959c-0.587,0-1.174,0-1.761,0c0.022-5.844,1.923-9.811,1.761-15.839
		c-4.925,1.53-3.121,9.786-4.401,14.959c-0.586,0-1.174,0-1.76,0c-0.878-5.546,2.579-10.545,0.88-14.08
		c-4.833,1.621-1.882,11.024-4.399,14.959c-0.586,0-1.174,0-1.76,0c1.554-5.779,1.402-13.263,3.521-18.479
		c0.119,1.449,6.04,1.449,6.159,0c0.88,0,1.761,0,2.64,0c0.295,0,0.586,0,0.88,0c2.535,0.105,5.762-0.48,7.041,0.88
		c3.395,1.298,6.554,2.833,10.559,3.52c0.294,0,0.587,0,0.88,0c1.034,8.762-4.868,17.779,1.761,21.999
		c-0.514,10.046-3.122,17.998-3.521,28.16c-1.155-0.311-1.384-1.549-2.64-1.76c-0.225-7.193,6.132-19.126,0.88-22.88
		c-3.347,5.161-2.519,14.495-4.4,21.12c-1.022,0.143-1.565-0.194-1.76-0.88c-0.694-8.435,3.827-15.963,1.76-22.879
		c-6.126,3.26-3.151,15.622-6.159,22c-0.587,0-1.174,0-1.761,0c-1.069-7.933,5.33-17.393,0.881-22.88
		c-3.907,4.308-2.943,13.484-4.4,20.24c-0.895,0.572-0.91,2.024-2.64,1.76c-0.718-7.58,5.206-17.516,0.88-22.88
		c-3.922,4.292-2.641,13.787-4.4,20.24c-0.713,0.167-0.877,0.883-1.76,0.879c0-0.879,0-1.76,0-2.64
		c-1.574-7.018,4.792-14.933,0-19.36c-3.619,4.888-3.019,13.995-4.399,21.12c-0.896,0.571-0.91,2.023-2.641,1.76
		c-0.281-7.738,3.971-15.223,1.76-22c-5.405,3.102-3.5,13.513-5.279,20.24c-0.294,0-0.586,0-0.88,0
		c0.322,1.497-0.686,1.66-1.76,1.76c0.985-7.813,2.135-15.464,3.52-22.88C88.379,50.122,86.833,46.227,90.104,47.154z
		 M117.385,47.154c1.283,2.065,2.189,1.969,0,3.52c2.486-0.727,2.279,1.24,4.399,0.88c1.088-2.848-2.848-0.672-1.76-3.52
		c-1.229-5.285,4.118-12.564,0-14.959C117.957,36.579,117.989,42.186,117.385,47.154z"/>
	<path fill-rule="evenodd" clip-rule="evenodd" fill="#C46936" d="M80.425,78.833c4.127-1.154,9.655-0.904,14.961-0.88
		c1.465,0,2.933,0,4.398,0c0.273,1.194,2.203,0.73,3.521,0.88c2.855-0.51,4.093,0.599,6.159,0.88
		c0.024,0.855,1.078,0.682,1.76,0.879c3.992-0.473,5.271,1.769,7.92,2.64c0,0.293,0,0.586,0,0.88c2.769-0.421,3.44,1.254,5.28,1.76
		c-1.235,14.313-3.67,27.424-6.16,40.479c-1.497,0.324-1.661-0.686-1.76-1.76c-0.681-12.465,6.846-25.938,2.64-36.08
		c-6.504,7.87-4.225,24.522-7.92,35.2c-1.083-0.384-1.808-1.126-1.76-2.64c0-1.467,0-2.934,0-4.4c1.361-1.279,0.775-4.504,0.88-7.04
		c0.701-7.022,5.842-18.665,1.761-24.64c-4.902,1.552-2.81,10.098-4.401,14.961c-0.74,2.192-1.151,4.713-0.88,7.919
		c-1.724,3.556-1.186,9.374-2.64,13.2c-1.422,0.247-1.516-0.832-2.64-0.881c0.463-5.669,2.493-12.688,3.52-19.359
		c0.939-6.104,3.554-14.414-0.88-17.6c-5.1,9.566-4.505,24.828-7.04,36.959c-1.394-0.072-3.356,0.424-3.52-0.879
		c1.365-2.156,1.313-5.729,1.761-8.801c0.739-2.193,1.15-4.715,0.879-7.92c0.455-5.491,6.084-17.625,0.88-20.239
		c-5.673,8.406-4.646,23.515-7.04,35.199c-0.464,1.347-4.173,5.221-6.159,0.88c0.88,0,1.76,0,2.64,0
		c0.856-5.533,2.473-12.473,3.52-19.359c0.891-5.848,3.852-14.229-0.88-17.6c-4.211,9.579-5.792,26.47-6.159,36.959
		c0.811,3.24-4.642,1.6-5.28,0.881c0.023-0.856,1.078-0.684,1.759-0.881c-0.689-3.623,1.353-4.516,0.881-7.92
		c0.391-4.303,1.812-7.574,1.76-12.319c0.576-4.633,3.082-11.28,0.881-15.84c-7.951,7.303-4.826,25.681-8.801,36.96
		c-1.421-0.248-1.515,0.831-2.64,0.879c2.009-13.537,4.075-27.018,6.16-40.479C79.447,79.054,78.395,77.086,80.425,78.833z"/>
	<path fill-rule="evenodd" clip-rule="evenodd" fill="#C46936" d="M76.905,123.712c4.693,0,9.385,0,14.079,0
		c3.025-0.385,4.934,0.347,7.04,0.88c1.542,1.391,4.688,1.178,7.04,1.76c1.84-0.373,2.331,0.604,3.521,0.881
		c0.024,0.855,1.077,0.682,1.76,0.879c1.422-0.247,1.516,0.832,2.64,0.881c0.579,1.181,1.882,1.639,3.521,1.76
		c1.381-0.379,0.752-2.768,3.52-1.76c0.953,14.486-4.71,29.872-5.28,45.759c-0.401,3.117-4.166,2.873-7.92,2.64
		c-0.147-1.908,3.122-0.398,4.4-0.879c0.644-6.817,1.511-14.514,2.64-22c0.96-6.359,5.359-15.278,0-19.359
		c-5.934,10.23-6.357,30.559-7.92,42.238c-0.88,0-1.76,0-2.639,0c-0.295,0-0.587,0-0.881,0c0.457-7.229,2.321-15.84,3.52-23.76
		c1.154-7.624,4.642-16.947,0-21.999c-4.09,2.897-4.062,12.302-5.279,20.239c-1.348,8.785-2.632,17.523-3.521,25.52
		c-1.174,0-2.346,0-3.52,0c0.471-3.635,1.289-6.924,1.761-10.56c-0.293-3.519,1.568-4.884,0.879-8.8
		c0.316-8.297,7.311-22.645,1.76-28.16c-4.547,4.852-4.958,14.01-6.159,22c-1.304,8.67-1.575,17.49-3.521,25.52
		c-1.174,0-2.346,0-3.52,0c1.896-7.322,3.021-16.451,4.399-25.52c1.172-7.699,5.065-18.34,0-23.76
		c-5.962,13.397-6.141,32.578-8.8,49.279c-0.586,0-1.174,0-1.76,0c-2.054,0-4.106,0-6.16,0c-0.146-1.908,3.121-0.398,4.4-0.879
		c2.052-13.494,4.186-26.908,6.16-40.48c-0.037-2.617,2.619-7.034-0.881-7.92c-6.396-0.647-7.564,38.24-10.56,49.279
		c-0.88,0-1.76,0-2.64,0c-2.675-0.551-7.58,1.127-8.8-0.879c2.808-17.138,5.178-34.715,7.92-51.92
		c2.106-0.625,3.239-0.413,7.04-0.88c0.293,0,0.586,0,0.88,0S76.611,123.712,76.905,123.712z M71.625,128.993
		c-0.687,0.193-1.022,0.736-0.88,1.76c-2.49,13.314-7.269,34.664-6.16,45.76c1.174,0,2.347,0,3.521,0
		c2.884-15.009,5.31-30.477,7.04-46.641C73.956,129.596,73.464,128.62,71.625,128.993z"/>
</g>
</svg>
