<?xml version="1.0" encoding="utf-8"?>
<!-- Generator: Adobe Illustrator 14.0.0, SVG Export Plug-In . SVG Version: 6.00 Build 43363)  -->
<!DOCTYPE svg PUBLIC "-//W3C//DTD SVG 1.1//EN" "http://www.w3.org/Graphics/SVG/1.1/DTD/svg11.dtd">
<svg version="1.1" id="Layer_1" xmlns="http://www.w3.org/2000/svg" xmlns:xlink="http://www.w3.org/1999/xlink" x="0px" y="0px"
	 width="183.507px" height="183.506px" viewBox="0 0 183.507 183.506" enable-background="new 0 0 183.507 183.506"
	 xml:space="preserve">
<g>
	<path fill-rule="evenodd" clip-rule="evenodd" fill="#92704C" d="M100.934,45.128c-2.013,1.223-0.329,6.141-0.882,8.823
		C98,48.061,99.75,38.37,99.169,31.01C101.122,35.658,100.747,38.054,100.934,45.128z"/>
	<path fill-rule="evenodd" clip-rule="evenodd" fill="#92704C" d="M87.699,98.069c2.038,2.96,0.308,9.689,0.882,14.116
		C86.54,109.225,88.271,102.495,87.699,98.069z"/>
	<path fill-rule="evenodd" clip-rule="evenodd" fill="#92704C" d="M84.169,109.539c-0.295,0-0.589,0-0.882,0
		c0-3.235,0-6.471,0-9.706C85.305,101.342,83.609,106.568,84.169,109.539z"/>
	<path fill-rule="evenodd" clip-rule="evenodd" fill="#92704C" d="M86.816,109.539c-0.295,0-0.589,0-0.882,0
		c0.558-2.971-1.138-8.196,0.882-9.706C86.816,103.068,86.816,106.303,86.816,109.539z"/>
	<path fill-rule="evenodd" clip-rule="evenodd" fill="#92704C" d="M90.346,121.891c0.581-7.064-1.169-16.461,0.882-22.059
		c0,7.354,0,14.705,0,22.059C90.934,121.891,90.639,121.891,90.346,121.891z"/>
	<path fill-rule="evenodd" clip-rule="evenodd" fill="#AF875F" d="M91.228,99.833c0.293,0,0.588,0,0.883,0
		c0.565,3.551-1.147,9.383,0.882,11.471c0,2.353,0,4.705,0,7.059c0,4.117,0,8.234,0,12.354c-0.467,3.74,0.677,10.449,0,11.47
		c-0.882,0-1.765,0-2.646,0c1.938-5.119,0.381-13.735,0.882-20.294C91.228,114.538,91.228,107.186,91.228,99.833z"/>
	<path fill-rule="evenodd" clip-rule="evenodd" fill="#92704C" d="M98.286,110.421c0.293,0,0.588,0,0.883,0c0,2.059,0,4.116,0,6.176
		c-1.308,0.163-0.81,2.133-0.883,3.529c-0.294,0-0.589,0-0.883,0c0-1.765,0-3.529,0-5.294
		C99.317,114.981,97.805,111.704,98.286,110.421z"/>
	<path fill-rule="evenodd" clip-rule="evenodd" fill="#6D3720" d="M80.64,122.774c2.019,1.51,0.323,6.734,0.883,9.705
		c-0.295,0-0.59,0-0.883,0C80.64,129.245,80.64,126.008,80.64,122.774z"/>
	<path fill-rule="evenodd" clip-rule="evenodd" fill="#35332B" d="M83.287,130.715c0.15-1.321-0.314-3.257,0.882-3.529
		c0,4.705,0,9.41,0,14.116c-0.539-0.05-1.046-0.132-0.882-0.882C83.287,137.186,83.287,133.95,83.287,130.715z"/>
	<path fill-rule="evenodd" clip-rule="evenodd" fill="#111224" d="M89.463,127.186c0.293,0,0.588,0,0.883,0
		c0,2.941-0.001,5.882,0,8.822C88.334,134.786,90.017,129.868,89.463,127.186z"/>
	<path fill-rule="evenodd" clip-rule="evenodd" fill="#35332B" d="M80.64,132.479c0.293,0,0.588,0,0.883,0
		c-0.556,2.682,1.128,7.6-0.883,8.823C80.64,138.362,80.638,135.42,80.64,132.479z"/>
	<path fill-rule="evenodd" clip-rule="evenodd" fill="#919890" d="M65.64,177.478c-1.47-7.948-1.47-22.05,0-29.999
		c0,0.883,0,1.765,0,2.647c0,7.94,0,15.882,0,23.822C65.64,175.125,65.64,176.301,65.64,177.478z"/>
	<path fill-rule="evenodd" clip-rule="evenodd" fill="#919890" d="M120.345,150.126c0-0.883,0-1.765,0-2.647
		c1.469,7.949,1.469,22.051,0,29.999C120.345,168.361,120.345,159.243,120.345,150.126z"/>
	<path fill-rule="evenodd" clip-rule="evenodd" fill="#35332B" d="M65.64,150.126c1.469,5.895,1.469,17.929,0,23.822
		C65.64,166.008,65.64,158.067,65.64,150.126z"/>
	<path fill-rule="evenodd" clip-rule="evenodd" fill="#35332B" d="M120.345,150.126c0,9.116,0,18.234,0,27.352
		c-0.294,0-0.589,0-0.882,0C120.045,168.651,118.291,157.485,120.345,150.126z"/>
	<path fill-rule="evenodd" clip-rule="evenodd" fill="#111224" d="M73.581,177.478c10.886-1.47,27.935-1.47,38.824,0
		C99.462,177.478,86.521,177.478,73.581,177.478z"/>
	<path fill-rule="evenodd" clip-rule="evenodd" fill="#B0B1B1" d="M116.816,177.478c-13.241,1.47-32.645,1.47-45.882,0
		c0.882,0,1.766,0,2.646,0c12.94,0,25.881,0,38.824,0C113.874,177.478,115.344,177.478,116.816,177.478z"/>
	<path fill-rule="evenodd" clip-rule="evenodd" fill="#B0B1B1" d="M85.052,20.422c-0.029,4.089,1.164,9.399-4.412,7.941
		C85.187,28.793,83.416,22.903,85.052,20.422z"/>
	<path fill-rule="evenodd" clip-rule="evenodd" fill="#3F5751" d="M116.816,177.478c-0.149-1.027-1.396-0.957-2.647-0.882
		c1.503-7.577,0.93-25.466,0-33.529c1.196,0.273,0.73,2.21,0.882,3.529c0.108,1.949,3.741,0.375,5.294,0.883
		c0,0.883,0,1.765,0,2.647c-2.054,7.358-0.3,18.524-0.882,27.352C118.581,177.478,117.698,177.478,116.816,177.478z"/>
	<path fill-rule="evenodd" clip-rule="evenodd" fill="#AF875F" d="M97.403,16.011c-2.512,1.898-1.18,7.643-2.646,10.587
		c3.12-0.701,1.691-5.954,2.646-8.823c2.02,1.51,0.324,6.735,0.883,9.706c20.028,1.833,37.453,8.424,53.823-1.765
		c3.218,1.579,5.503,0.738,9.706,1.765c-2.103,7.016-14.082,4.154-19.412,7.94c-2.713-0.612-5.228,5.704-6.176,9.707
		c0,0.293,0,0.588,0,0.882c-6.652,0.407-12.376,1.742-18.529,2.647c3.946-3.405,10.438-4.267,13.234-8.823
		c-3.801,3.269-13.331,5.477-14.116,8.823c-1.471,2.06-4.793,2.266-7.06,3.529c0,0.588,0,1.177,0,1.765
		c0.554,2.682-1.131,7.6,0.883,8.823c-0.607,10.474,2.166,20.917,1.766,30c-0.254,5.706,0.021,12.663-0.883,16.765
		c-0.332,1.495-0.632,2.016-2.647,2.646c-1.882,4.552-0.875,13.8,0,18.53c0.378,2.375-1.162,8.996,1.765,6.176
		c1.947,0.109,0.374,3.742,0.883,5.294c-2.814,0.754-3.351-0.769-4.413-1.765c-0.025-8.797,0.354-18.002-0.881-25.588
		c-2.598,7.9,0.396,17.828,0,26.47c0,0.295,0,0.589,0,0.883c-3.824,0-7.649,0-11.471,0c0.167-0.715,0.884-0.88,0.883-1.765
		c0-1.765,0-3.529,0-5.294c0-3.529,0-7.059,0-10.589c0.546-2.394-1.121-7.002,0.882-7.94c0,3.529,0,7.059,0,10.589
		c1.066,4.48,2.388-4.165,1.764-7.06c0.073-1.396-0.425-3.366,0.883-3.529c0,3.235,0,6.471,0,9.706
		c-0.076,1.252-0.146,2.499,0.883,2.646c0,3.824,0,7.646,0,11.471c2.038-2.961,0.309-9.69,0.882-14.117
		c-0.525-1.828,1.09-5.797-0.882-6.177c0-3.529,0-7.059,0-10.588c-0.181-2.761,0.595-6.478-0.883-7.941
		c-1.689,2.847,0.018,4.516-0.883,8.824c-0.481,1.282,1.031,4.56-0.883,4.411c0-4.411,0-8.823,0-13.235
		c-2.062-1.791-7.055-5.257-9.704-3.528c0.571,4.426-1.159,11.156,0.882,14.116c0,3.53,0,7.06,0,10.589
		c0.255,5.332-0.708,11.883,0.882,15.882c0,1.177,0,2.353,0,3.529c-1.553-0.508-5.185,1.065-5.294-0.883c0-4.706,0-9.411,0-14.116
		c0-2.06,0-4.118,0-6.178c0-3.822,0-7.646,0-11.47c-0.56-2.971,1.136-8.196-0.882-9.706c0,3.235,0,6.471,0,9.706
		c-0.001,1.47,0,2.941,0,4.411c-1.71-3.289-0.558-9.441-1.765-13.234c-2.051,5.597-0.302,14.993-0.883,22.059
		c0,3.234,0,6.471,0,9.705c-0.002,2.941,0,5.883,0,8.823c0.162,0.751-0.345,0.833-0.882,0.883c0-1.765,0-3.529,0-5.294
		c0-0.295,0-0.588,0-0.883c0-5.293,0-10.588,0-15.882c-1.914-0.148-0.399,3.13-0.882,4.411c-2.641-8.535,0.874-23.227-1.765-31.764
		c-1.952-7.46-2.943-15.88-5.295-22.94c2.011-1.223,0.327-6.142,0.884-8.823c0.104-2.542-0.483-5.776,0.881-7.059
		c-5.99-4.78-13.858-5.431-23.823-4.412c-0.846-4.331-7.392-11.781-8.821-9.706c-0.717-0.167-0.883-0.885-1.766-0.882
		c-1.8-2.025-7.328-0.319-10.588-0.883c-2.122-1.114-5.338-1.134-7.06-2.647c4.451-4.873,10.767-2.811,15.883-1.764
		c14.795,3.028,29.251-5.244,43.233-5.294c5.576,1.458,4.383-3.853,4.412-7.941c0.089-7.308,2.027-16.324,10.589-12.353
		C96.911,10.032,97.854,12.325,97.403,16.011z M109.757,48.657c5.318-2.631,13.195-7.38,14.117-11.47
		C120.439,42.282,113.3,43.671,109.757,48.657z M100.934,92.774c1.483,2.251,6.741,0.834,10.589,2.646
		c-3.264-3.795-2.697-11.422-2.647-18.528c-0.743-3.375-1.153-7.082-0.883-11.47c0.642-8.877-1.446-15.024-0.883-23.823
		c-2.013,1.224-0.329,6.141-0.881,8.824c0.577,5.599-1.164,13.516,0.881,17.646c0.572,4.134-1.153,10.565,0.883,13.235
		c-0.563,3.261,1.143,8.79-0.883,10.588c-1.802,1.884-3.492-0.249-5.293-0.882c0.771-0.877,2.453-7.641-0.883-7.06
		c0-0.587,0-1.176,0-1.764c2.034-2.67,0.311-9.101,0.883-13.235c-0.878-7.359-1.075-15.396-0.883-23.823
		c-0.187-7.074,0.188-9.471-1.765-14.118C99.75,38.37,98,48.061,100.052,53.952c0,6.176,0,12.353,0,18.529
		c-0.199,1.668,0.994,1.946,0.882,3.529C99.466,79.562,99.466,89.222,100.934,92.774z M102.698,105.127
		c3.408-0.786,2.003-2.948,0-3.53c-2.063,0.637-2.693,7.239-0.882,8.824c-0.515,9.043,1.548,15.51,0.882,24.705
		c1.654,1.683-0.523,1.597,0,4.411c3.238-0.034,1.961-9.162,0.883-10.588C103.163,121.133,104.522,111.539,102.698,105.127z
		 M106.229,113.95c0-2.646,0-5.293,0-7.94C103.399,105.229,103.399,114.731,106.229,113.95z M98.286,139.538
		c-0.564-3.26,1.143-8.789-0.883-10.588C96.154,131.895,95.979,137.639,98.286,139.538z M78.876,100.715
		c-0.295,3.142,0.21,16.9,0.882,9.706C80.214,105.547,79.499,94.026,78.876,100.715z M70.052,48.657
		c-4.341-2.437-11.718-6.501-15.882-6.176C59.4,44.026,64.843,50.026,70.052,48.657z M81.522,36.305
		c-0.187,2.598,5.713,3.619,7.059,1.764C85.856,37.852,83.593,37.175,81.522,36.305z M76.228,42.481
		c-2.467-0.229-4.977-4.955-7.058-2.647C71.103,40.598,74.389,44.544,76.228,42.481z M109.757,41.599
		c0.421-1.707,6.211-2.519,3.53-4.412C112.864,38.895,107.075,39.706,109.757,41.599z M64.759,43.363
		c-0.443-2.254-4.66-5.275-6.178-3.529C60.284,41.365,63.053,41.833,64.759,43.363z M96.522,37.187
		c-4.203,2.269-9.483,3.458-14.118,5.294c3.257,1.605,10.404,3.011,13.236,0c-1.282-0.482-4.563,1.031-4.413-0.882
		C93.501,40.637,95.467,39.369,96.522,37.187z M87.699,47.775c0.205,2.735,3.128,2.753,5.293,3.529
		C92.785,48.568,89.863,48.551,87.699,47.775z M96.522,87.48c1.254-3.27-3.628-7.558,1.764-7.059
		c-4.303-6.58-10.228-11.537-14.117-18.529C86.444,72.263,91.018,80.337,96.522,87.48z M85.935,109.539c0,5.589,0,11.177,0,16.765
		c0.101,3.349-0.475,18.764,0.882,12.353c1.466-4.138,1.466-14.392,0-18.529c0-3.529,0-7.059,0-10.588c0-3.235,0-6.471,0-9.706
		C84.797,101.342,86.492,106.568,85.935,109.539z"/>
	<path fill-rule="evenodd" clip-rule="evenodd" fill="#92704C" d="M95.641,107.774c2.011,1.224,0.326,6.141,0.882,8.823
		c-2.003,0.938-0.336,5.547-0.882,7.94c-0.295,0-0.591,0-0.883,0c0-2.646,0-5.293,0-7.94
		C96.769,115.374,95.086,110.456,95.641,107.774z"/>
	<path fill-rule="evenodd" clip-rule="evenodd" fill="#35332B" d="M116.816,48.657c0.785-3.346,10.315-5.555,14.116-8.823
		c-2.797,4.557-9.288,5.418-13.234,8.823C117.403,48.657,117.108,48.657,116.816,48.657z"/>
	<path fill-rule="evenodd" clip-rule="evenodd" fill="#35332B" d="M58.581,39.834c1.518-1.746,5.734,1.275,6.178,3.529
		C63.053,41.833,60.284,41.365,58.581,39.834z"/>
	<path fill-rule="evenodd" clip-rule="evenodd" fill="#35332B" d="M113.287,37.187c2.681,1.893-3.109,2.705-3.53,4.412
		C107.075,39.706,112.864,38.895,113.287,37.187z"/>
	<path fill-rule="evenodd" clip-rule="evenodd" fill="#35332B" d="M123.874,37.187c-0.922,4.09-8.799,8.839-14.117,11.47
		C113.3,43.671,120.439,42.282,123.874,37.187z"/>
	<path fill-rule="evenodd" clip-rule="evenodd" fill="#35332B" d="M69.17,39.834c2.081-2.308,4.591,2.417,7.058,2.647
		C74.389,44.544,71.103,40.598,69.17,39.834z"/>
	<path fill-rule="evenodd" clip-rule="evenodd" fill="#35332B" d="M54.17,42.481c4.164-0.325,11.541,3.739,15.882,6.176
		C64.843,50.026,59.4,44.026,54.17,42.481z"/>
	<path fill-rule="evenodd" clip-rule="evenodd" fill="#3F5751" d="M92.992,51.304c-2.165-0.776-5.088-0.794-5.293-3.529
		C89.863,48.551,92.785,48.568,92.992,51.304z"/>
	<path fill-rule="evenodd" clip-rule="evenodd" fill="#35332B" d="M84.169,61.893c3.89,6.992,9.814,11.949,14.117,18.529
		c-5.392-0.5-0.51,3.789-1.764,7.059C91.018,80.337,86.444,72.263,84.169,61.893z"/>
	<path fill-rule="evenodd" clip-rule="evenodd" fill="#35332B" d="M87.699,98.069c2.649-1.729,7.643,1.737,9.704,3.528
		c0,4.412,0,8.824,0,13.235c0,1.765,0,3.529,0,5.294c-0.536,2.11,1.107,6.401-0.881,7.06c0-3.53,0-7.06,0-10.589
		c-0.556-2.683,1.129-7.6-0.882-8.823c1.212-2.672-0.421-3.152,0-7.059c-2.044,3.545-0.308,10.87-0.883,15.882
		c0,2.647,0,5.294,0,7.94c0.561,3.262-1.143,8.79,0.883,10.589c0,1.765,0,3.529,0,5.294c-3.393,2.527-1.096-6.732-1.765-9.705
		c-0.571-3.844,1.148-9.975-0.884-12.354c0-2.354,0-4.706,0-7.059c-0.566-3.551,1.146-9.383-0.882-11.471c-0.295,0-0.59,0-0.883,0
		c-2.051,5.598-0.301,14.994-0.882,22.059c0,1.765,0,3.529,0,5.295c-0.295,0-0.59,0-0.883,0c-0.481-1.283,1.03-4.561-0.882-4.412
		c0-3.529,0-7.059,0-10.589C88.007,107.758,89.737,101.029,87.699,98.069z"/>
	<path fill-rule="evenodd" clip-rule="evenodd" fill="#666A62" d="M91.228,121.891c-0.501,6.559,1.057,15.175-0.882,20.294
		c-0.295,0-0.59,0-0.883,0c0-1.177,0-2.353,0-3.529c1.033-0.144,0.743-1.608,0.883-2.647c-0.001-2.94,0-5.881,0-8.822
		c0-1.766,0-3.53,0-5.295C90.639,121.891,90.934,121.891,91.228,121.891z"/>
	<path fill-rule="evenodd" clip-rule="evenodd" fill="#3F5751" d="M98.286,110.421c0.9-4.309-0.807-5.978,0.883-8.824
		c1.478,1.464,0.702,5.181,0.883,7.941c-0.752-0.163-0.832,0.345-0.883,0.883C98.874,110.421,98.579,110.421,98.286,110.421z"/>
	<path fill-rule="evenodd" clip-rule="evenodd" fill="#666A62" d="M98.286,120.126c0.624,2.895-0.697,11.54-1.764,7.06
		c1.988-0.658,0.345-4.949,0.881-7.06C97.697,120.126,97.992,120.126,98.286,120.126z"/>
	<path fill-rule="evenodd" clip-rule="evenodd" fill="#3F5751" d="M100.052,120.126c1.972,0.38,0.356,4.349,0.882,6.177
		c-1.033,0.143-0.744,1.609-0.882,2.646c-1.029-0.147-0.959-1.395-0.883-2.646C101.141,125.922,99.524,121.954,100.052,120.126z"/>
	<path fill-rule="evenodd" clip-rule="evenodd" fill="#3F5751" d="M97.403,128.95c2.025,1.799,0.318,7.328,0.883,10.588
		C95.979,137.639,96.154,131.895,97.403,128.95z"/>
	<path fill-rule="evenodd" clip-rule="evenodd" fill="#3F5751" d="M71.816,143.067c-1.129,9.902-1.501,26.445,0,33.529
		c-1.282,0.482-4.562-1.031-4.412,0.882c-0.588,0-1.177,0-1.765,0c0-1.177,0-2.353,0-3.529c1.469-5.894,1.469-17.928,0-23.822
		c0-0.883,0-1.765,0-2.647c1.765,0,3.53,0,5.295,0C71.418,146.197,69.902,142.918,71.816,143.067z"/>
	<path fill-rule="evenodd" clip-rule="evenodd" fill="#35332B" d="M97.403,17.776c-0.954,2.869,0.475,8.122-2.646,8.823
		c1.466-2.945,0.134-8.689,2.646-10.587C97.403,16.599,97.403,17.187,97.403,17.776z"/>
	<path fill-rule="evenodd" clip-rule="evenodd" fill="#F1EFEA" d="M28.583,38.069c3.26,0.563,8.788-1.142,10.588,0.883
		C35.91,38.388,30.379,40.094,28.583,38.069z"/>
	<path fill-rule="evenodd" clip-rule="evenodd" fill="#35332B" d="M88.581,38.069c-1.346,1.855-7.245,0.834-7.059-1.764
		C83.593,37.175,85.856,37.852,88.581,38.069z"/>
	<path fill-rule="evenodd" clip-rule="evenodd" fill="#35332B" d="M91.228,41.599c-0.149,1.914,3.131,0.4,4.413,0.882
		c-2.832,3.011-9.979,1.605-13.236,0c4.635-1.836,9.915-3.025,14.118-5.294C95.467,39.369,93.501,40.637,91.228,41.599z"/>
	<path fill-rule="evenodd" clip-rule="evenodd" fill="#35332B" d="M49.758,49.54c-4.501-1.676-7.304-5.05-8.821-9.706
		C42.366,37.759,48.912,45.209,49.758,49.54z"/>
	<path fill-rule="evenodd" clip-rule="evenodd" fill="#B0B1B1" d="M109.757,53.952c2.011,1.224,0.328,6.141,0.883,8.823
		C108.626,61.551,110.311,56.633,109.757,53.952z"/>
	<path fill-rule="evenodd" clip-rule="evenodd" fill="#92704C" d="M107.109,68.069c-2.045-4.131-0.304-12.048-0.881-17.646
		c0.552-2.683-1.132-7.6,0.881-8.824c-0.563,8.799,1.524,14.946,0.883,23.823C106.964,65.57,107.034,66.817,107.109,68.069z"/>
	<path fill-rule="evenodd" clip-rule="evenodd" fill="#3F5751" d="M100.934,45.128c-0.192,8.427,0.005,16.464,0.883,23.823
		c-1.308,0.164-0.81,2.132-0.883,3.529c-0.295,0-0.589,0-0.882,0c0-6.176,0-12.353,0-18.529
		C100.604,51.27,98.921,46.352,100.934,45.128z"/>
	<path fill-rule="evenodd" clip-rule="evenodd" fill="#B0B1B1" d="M71.816,69.833c0.554-2.682-1.129-7.6,0.884-8.823
		C72.144,63.692,73.827,68.61,71.816,69.833z"/>
	<path fill-rule="evenodd" clip-rule="evenodd" fill="#3F5751" d="M107.992,65.422c-0.271,4.388,0.14,8.095,0.883,11.47
		c-1.915-0.149-0.4,3.129-0.883,4.412c-2.036-2.669-0.311-9.101-0.883-13.235C107.034,66.817,106.964,65.57,107.992,65.422z"/>
	<path fill-rule="evenodd" clip-rule="evenodd" fill="#35332B" d="M108.875,76.892c-0.05,7.106-0.616,14.733,2.647,18.528
		c-3.848-1.813-9.105-0.396-10.589-2.646c-0.002-2.941,0-5.882,0-8.824c3.336-0.581,1.654,6.182,0.883,7.06
		c1.801,0.633,3.491,2.766,5.293,0.882c2.025-1.798,0.319-7.327,0.883-10.588C108.475,80.021,106.96,76.743,108.875,76.892z"/>
	<path fill-rule="evenodd" clip-rule="evenodd" fill="#92704C" d="M100.934,83.95c0,2.942-0.002,5.883,0,8.824
		c-1.468-3.552-1.468-13.212,0-16.764c0,2.059,0,4.118,0,6.177C100.934,82.774,100.934,83.363,100.934,83.95z"/>
	<path fill-rule="evenodd" clip-rule="evenodd" fill="#92704C" d="M76.228,128.95c-0.647-10.19,0.252-27.102,0.884-36.176
		c2.639,8.537-0.876,23.229,1.765,31.764c0.564,3.552-1.148,9.383,0.882,11.471c0,0.295,0,0.588,0,0.883
		c-1.034,0.143-0.745,1.608-0.882,2.646c-2.552-0.392,0.784-6.666-1.765-7.059C77.037,131.083,77.534,129.114,76.228,128.95z"/>
	<path fill-rule="evenodd" clip-rule="evenodd" fill="#35332B" d="M102.698,105.127c1.824,6.411,0.465,16.006,0.883,23.822
		c-0.526,1.828,1.089,5.797-0.883,6.177c0.666-9.195-1.396-15.662-0.882-24.705c0-2.06,0-4.118,0-6.177
		C102.354,104.294,102.86,104.375,102.698,105.127z"/>
	<path fill-rule="evenodd" clip-rule="evenodd" fill="#92704C" d="M79.758,110.421c-0.672,7.194-1.177-6.564-0.882-9.706
		C79.499,94.026,80.214,105.547,79.758,110.421z"/>
	<path fill-rule="evenodd" clip-rule="evenodd" fill="#35332B" d="M106.229,106.009c0,2.647,0,5.294,0,7.94
		C103.399,114.731,103.399,105.229,106.229,106.009z"/>
	<path fill-rule="evenodd" clip-rule="evenodd" fill="#92704C" d="M108.875,112.185c1.412,5.199,1.377,11.964,0.882,16.765
		c-0.197,0.686-0.025,1.74-0.882,1.766C108,125.985,106.993,116.737,108.875,112.185z"/>
	<path fill-rule="evenodd" clip-rule="evenodd" fill="#666A62" d="M84.169,109.539c0,3.823,0,7.647,0,11.47
		c-1.989-0.656-0.346-4.948-0.882-7.059c0-1.47-0.001-2.941,0-4.411C83.58,109.539,83.874,109.539,84.169,109.539z"/>
	<path fill-rule="evenodd" clip-rule="evenodd" fill="#35332B" d="M100.052,120.126c-0.527,1.827,1.089,5.796-0.883,6.177
		c0-3.235,0-6.471,0-9.706c0-2.06,0-4.117,0-6.176c0.051-0.538,0.131-1.046,0.883-0.883
		C100.052,113.068,100.052,116.597,100.052,120.126z"/>
	<path fill-rule="evenodd" clip-rule="evenodd" fill="#3F5751" d="M92.992,118.362c2.032,2.379,0.313,8.51,0.884,12.354
		c-0.295,0-0.59,0-0.884,0C92.992,126.596,92.992,122.479,92.992,118.362z"/>
	<path fill-rule="evenodd" clip-rule="evenodd" fill="#6D3720" d="M78.876,124.538c0.482-1.281-1.032-4.56,0.882-4.411
		c0,5.294,0,10.589,0,15.882C77.728,133.92,79.44,128.089,78.876,124.538z"/>
	<path fill-rule="evenodd" clip-rule="evenodd" fill="#92704C" d="M83.287,130.715c-1.463,1.235-1.463,8.469,0,9.705
		c-0.164,0.75,0.343,0.832,0.882,0.882c0.109,1.948,3.741,0.375,5.294,0.883c0.293,0,0.588,0,0.883,0c0.882,0,1.765,0,2.646,0
		c0.677-1.021-0.467-7.729,0-11.47c0.294,0,0.589,0,0.884,0c0.669,2.973-1.628,12.232,1.765,9.705
		c0.001,0.885-0.716,1.05-0.883,1.765c3.821,0,7.646,0,11.471,0c0-0.294,0-0.588,0-0.883c0.749,0.163,0.83-0.345,0.881-0.882
		c1.063,0.996,1.599,2.519,4.413,1.765c0,0.295,0,0.588,0,0.882c-10.299-0.584-22.938,1.173-31.765-0.882
		c0.537-0.05,1.044-0.132,0.882-0.883c2.011-1.224,0.327-6.142,0.883-8.823c-0.56-2.971,1.136-8.195-0.883-9.705
		c0.581-7.065-1.168-16.462,0.883-22.059c1.207,3.793,0.055,9.945,1.765,13.234c0.536,2.11-1.107,6.402,0.882,7.059
		c0,2.06,0,4.118,0,6.178C82.973,127.458,83.438,129.394,83.287,130.715z"/>
	<path fill-rule="evenodd" clip-rule="evenodd" fill="#35332B" d="M106.229,141.302c0.396-8.642-2.598-18.569,0-26.47
		c1.234,7.586,0.855,16.791,0.881,25.588C107.059,140.958,106.978,141.465,106.229,141.302z"/>
	<path fill-rule="evenodd" clip-rule="evenodd" fill="#3F5751" d="M89.463,127.186c0.554,2.682-1.129,7.6,0.883,8.822
		c-0.14,1.039,0.15,2.504-0.883,2.647c-1.59-3.999-0.627-10.55-0.882-15.882C90.493,122.625,88.981,125.903,89.463,127.186z"/>
	<path fill-rule="evenodd" clip-rule="evenodd" fill="#3F5751" d="M95.641,124.538c0,3.53,0,7.06,0,10.589
		c-2.025-1.799-0.322-7.327-0.883-10.589C95.05,124.538,95.346,124.538,95.641,124.538z"/>
	<path fill-rule="evenodd" clip-rule="evenodd" fill="#666A62" d="M109.757,128.95c2.001,0.939,0.334,5.547,0.883,7.941
		c-2.927,2.82-1.387-3.801-1.765-6.176C109.731,130.69,109.56,129.635,109.757,128.95z"/>
	<path fill-rule="evenodd" clip-rule="evenodd" fill="#3F5751" d="M103.581,128.95c1.078,1.426,2.355,10.554-0.883,10.588
		c-0.523-2.814,1.654-2.729,0-4.411C104.67,134.747,103.055,130.778,103.581,128.95z"/>
	<path fill-rule="evenodd" clip-rule="evenodd" fill="#666A62" d="M77.111,132.479c0.263,11.455-1.563,3.465-0.884-3.529
		C77.534,129.114,77.037,131.083,77.111,132.479z"/>
	<path fill-rule="evenodd" clip-rule="evenodd" fill="#92704C" d="M86.816,120.126c1.466,4.138,1.466,14.392,0,18.529
		c0-4.118,0-8.235,0-12.353C86.816,124.244,86.816,122.186,86.816,120.126z"/>
	<path fill-rule="evenodd" clip-rule="evenodd" fill="#AF875F" d="M77.111,132.479c2.549,0.393-0.787,6.667,1.765,7.059
		c-0.687,0.785-0.951,1.993-0.883,3.529c-1.817-1.749-0.831-1.749-2.647,0c0.573-4.426-1.157-11.156,0.882-14.117
		C75.548,135.944,77.374,143.934,77.111,132.479z"/>
	<path fill-rule="evenodd" clip-rule="evenodd" fill="#666A62" d="M83.287,140.42c-1.463-1.236-1.463-8.47,0-9.705
		C83.287,133.95,83.287,137.186,83.287,140.42z"/>
	<path fill-rule="evenodd" clip-rule="evenodd" fill="#35332B" d="M86.816,138.656c-1.356,6.411-0.781-9.004-0.882-12.353
		c0.293,0,0.587,0,0.882,0C86.816,130.42,86.816,134.538,86.816,138.656z"/>
	<path fill-rule="evenodd" clip-rule="evenodd" fill="#35332B" d="M75.346,143.067c1.816-1.749,0.83-1.749,2.647,0
		c-0.068-1.536,0.196-2.744,0.883-3.529c0.137-1.038-0.152-2.504,0.882-2.646c0,1.765,0,3.529,0,5.294
		c8.827,2.055,21.466,0.298,31.765,0.882c0.883,0,1.765,0,2.646,0c0.93,8.063,1.503,25.952,0,33.529
		c1.252-0.075,2.498-0.146,2.647,0.882c-1.473,0-2.942,0-4.411,0c-10.89-1.47-27.938-1.47-38.824,0c-0.881,0-1.765,0-2.646,0
		c-1.178,0-2.354,0-3.53,0c-0.149-1.913,3.13-0.399,4.412-0.882c-1.501-7.084-1.129-23.627,0-33.529
		C72.991,143.067,74.169,143.067,75.346,143.067z"/>
	<path fill-rule="evenodd" clip-rule="evenodd" fill="#AF875F" d="M94.758,116.597c0.575-5.012-1.161-12.337,0.883-15.882
		c-0.421,3.906,1.212,4.387,0,7.059C95.086,110.456,96.769,115.374,94.758,116.597z"/>
	<path fill-rule="evenodd" clip-rule="evenodd" fill="#3F5751" d="M86.816,109.539c0,3.529,0,7.059,0,10.588c0,2.06,0,4.117,0,6.177
		c-0.295,0-0.589,0-0.882,0c0-5.588,0-11.176,0-16.765C86.228,109.539,86.521,109.539,86.816,109.539z"/>
	<path fill-rule="evenodd" clip-rule="evenodd" fill="#35332B" d="M136.228,45.128c0.948-4.002,3.463-10.319,6.176-9.707
		C141.74,40.054,140.583,44.192,136.228,45.128z"/>
	<path fill-rule="evenodd" clip-rule="evenodd" fill="#92704C" d="M92.11,99.833c2.028,2.088,0.315,7.92,0.882,11.471
		C90.963,109.215,92.676,103.383,92.11,99.833z"/>
	<path fill-rule="evenodd" clip-rule="evenodd" fill="#92704C" d="M102.698,105.127c0.162-0.752-0.345-0.833-0.882-0.883
		c0,2.059,0,4.117,0,6.177c-1.812-1.585-1.181-8.188,0.882-8.824C104.701,102.179,106.106,104.341,102.698,105.127z"/>
	<path fill-rule="evenodd" clip-rule="evenodd" fill="#35332B" d="M101.816,68.951c-0.572,4.134,1.151,10.565-0.883,13.235
		c0-2.059,0-4.118,0-6.177c0.112-1.583-1.081-1.861-0.882-3.529c0.293,0,0.587,0,0.882,0
		C101.007,71.083,100.509,69.115,101.816,68.951z"/>
	<path fill-rule="evenodd" clip-rule="evenodd" fill="#35332B" d="M100.934,126.303c-0.573,4.427,1.156,11.156-0.882,14.117
		c0-3.824,0-7.646,0-11.471C100.189,127.913,99.9,126.446,100.934,126.303z"/>
</g>
</svg>
