<?xml version="1.0" encoding="utf-8"?>
<!-- Generator: Adobe Illustrator 14.0.0, SVG Export Plug-In . SVG Version: 6.00 Build 43363)  -->
<!DOCTYPE svg PUBLIC "-//W3C//DTD SVG 1.1//EN" "http://www.w3.org/Graphics/SVG/1.1/DTD/svg11.dtd">
<svg version="1.1" id="Layer_1" xmlns="http://www.w3.org/2000/svg" xmlns:xlink="http://www.w3.org/1999/xlink" x="0px" y="0px"
	 width="183.507px" height="183.506px" viewBox="0 0 183.507 183.506" enable-background="new 0 0 183.507 183.506"
	 xml:space="preserve">
<g>
	<path fill-rule="evenodd" clip-rule="evenodd" fill="#C88E40" d="M66.266,51.695c0,0.876,0,1.752,0,2.626c0,1.459,0,2.918,0,4.379
		C64.495,57.807,64.228,51.68,66.266,51.695z"/>
	<path fill-rule="evenodd" clip-rule="evenodd" fill="#F1EFEA" d="M106.548,79.717c3.526-1.458,13.113-1.458,16.639,0
		C117.64,79.717,112.095,79.717,106.548,79.717z"/>
	<path fill-rule="evenodd" clip-rule="evenodd" fill="#111224" d="M133.695,90.225c1.831-1.912,2.67,1.041,2.627,3.503
		c-1.722,0.262-1.736-1.183-2.627-1.752C133.695,91.392,133.695,90.809,133.695,90.225z"/>
	<path fill-rule="evenodd" clip-rule="evenodd" fill="#D9A762" d="M85.531,112.117c4.978-1.457,16.04-1.457,21.017,0
		C99.542,112.117,92.537,112.117,85.531,112.117z"/>
	<path fill-rule="evenodd" clip-rule="evenodd" fill="#D9A762" d="M61.888,112.994c1.498-2.004,6.684-0.32,9.633-0.877
		c0,0.293,0,0.585,0,0.877C68.31,112.994,65.098,112.994,61.888,112.994z"/>
	<path fill-rule="evenodd" clip-rule="evenodd" fill="#C88E40" d="M71.521,112.994c0-0.292,0-0.584,0-0.877c4.67,0,9.34,0,14.011,0
		c7.006,0,14.011,0,21.017,0c4.104,0.567,10.486-1.145,13.137,0.877C103.628,112.994,87.575,112.994,71.521,112.994z"/>
	<path fill-rule="evenodd" clip-rule="evenodd" fill="#C88E40" d="M127.565,112.994c2.661,0.55,7.543-1.123,8.757,0.875
		C133.661,113.322,128.779,114.99,127.565,112.994z"/>
	<path fill-rule="evenodd" clip-rule="evenodd" fill="#1F0B05" d="M40.87,128.756c0-2.336,0-4.67,0-7.007
		C43.025,122.297,41.273,136.086,40.87,128.756z"/>
	<path fill-rule="evenodd" clip-rule="evenodd" fill="#92704C" d="M88.159,132.259c-1.453-1.51-1.453-8.997,0-10.51
		C88.159,125.253,88.159,128.756,88.159,132.259z"/>
	<path fill-rule="evenodd" clip-rule="evenodd" fill="#92704C" d="M98.667,123.501c1.456,2.659,1.456,11.354,0,14.011
		c0-0.584,0-1.167,0-1.752C98.667,131.675,98.667,127.587,98.667,123.501z"/>
	<path fill-rule="evenodd" clip-rule="evenodd" fill="#C88E40" d="M27.735,124.378c2.024,0.895,1.811,4.026,1.752,7.004
		C26.033,131.917,28.457,126.577,27.735,124.378z"/>
	<path fill-rule="evenodd" clip-rule="evenodd" fill="#C88E40" d="M130.191,132.259c0.039-12.149,1.044-1.472,1.752,1.752
		c-0.024,0.851-1.072,0.679-1.752,0.875C130.191,134.011,130.191,133.134,130.191,132.259z"/>
	<path fill-rule="evenodd" clip-rule="evenodd" fill="#1F0B05" d="M104.796,136.637c0-0.292,0-0.584,0-0.877
		c2.949,0.557,8.136-1.127,9.633,0.877C111.22,136.637,108.007,136.637,104.796,136.637z"/>
	<path fill-rule="evenodd" clip-rule="evenodd" fill="#C88E40" d="M86.407,140.141c1.498-2.005,6.684-0.323,9.633-0.877
		c0,0.292,0,0.584,0,0.877C92.829,140.141,89.617,140.141,86.407,140.141z"/>
	<path fill-rule="evenodd" clip-rule="evenodd" fill="#C88E40" d="M25.107,75.339c0.359-1.101,1.13-1.792,2.628-1.752
		c-1.387-2.911-5.103-2.576-7.006-1.751c-0.488-0.517,1.786-7.31,4.378-10.508c2.455,0.858-1.271,2.336,0.876,3.502
		c1.911,0.159,2.787-0.717,2.628-2.626c-0.534,0.049-1.036,0.13-0.876,0.875c-2.813-2.187,4.934-0.582,2.627-2.626
		c2.464-2.794,0.465,6.243,4.379,2.626c-1.459,1.74,0.078,1.115,0,3.503c-2.735-2.062-4.625-0.411-7.006-1.751
		c-0.688,3.897,4.696,1.724,4.378,5.255c-1.036-1.3-3.308-1.364-4.378-2.627c-2.02-0.268-0.974,2.53-2.628,2.627
		c1.908,2.614,4.063,2.675,7.006,0.875C30.876,73.516,27.303,73.738,25.107,75.339z M26.859,67.458
		c-0.932-6.575-6.624-0.882-2.627,2.627C25.167,69.267,24.505,66.853,26.859,67.458z"/>
	<path fill-rule="evenodd" clip-rule="evenodd" fill="#B98339" d="M16.351,80.592c3.447-25.454,26.307-36.16,48.164-40.282
		c0.278,2.056,1.384,3.288,0.875,6.129c-0.634,2.679,1.512,2.576,0.876,5.255c-2.038-0.015-1.771,6.112,0,7.005
		c0-1.46,0-2.919,0-4.379c1.936,0.11,0.373,3.715,0.876,5.255c0,0.29,0,0.583,0,0.876c-14.245,0.934-24.001,6.355-35.028,10.507
		c-2.942,1.8-5.098,1.74-7.006-0.875c1.654-0.098,0.608-2.896,2.628-2.627c1.07,1.264,3.342,1.327,4.378,2.627
		c0.318-3.531-5.065-1.357-4.378-5.255c2.381,1.34,4.271-0.31,7.006,1.751c0.078-2.389-1.459-1.764,0-3.503
		c-3.914,3.617-1.915-5.42-4.379-2.626c2.307,2.044-5.44,0.439-2.627,2.626c-0.16-0.745,0.342-0.825,0.876-0.875
		c0.159,1.91-0.717,2.786-2.628,2.626c-2.146-1.166,1.579-2.644-0.876-3.502c-2.592,3.198-4.866,9.991-4.378,10.508
		c1.903-0.824,5.619-1.159,7.006,1.751c-1.498-0.04-2.269,0.651-2.628,1.752C22.264,77.164,19.401,78.972,16.351,80.592z
		 M46.125,54.321c0.253-1.224,5.168-4.075,2.627-2.626c-2.67-0.725-4.458-0.104-5.254-0.876c0.896-0.854,1.771-1.73,2.627-2.627
		c-1.631,0.12-2.926,0.577-3.503,1.751c1.087,1.509,1.586,4.62,3.503,6.129c0.086,4.075,3.969,0.19,2.627-2.626
		C47.546,53.408,46.83,53.859,46.125,54.321z"/>
	<path fill-rule="evenodd" clip-rule="evenodd" fill="#111224" d="M65.39,46.44c0.509-2.842-0.597-4.074-0.875-6.129
		c2.432,3.698,6.596,5.664,6.13,12.26c-1.74,0.01-1.114,2.389-3.503,1.75C66.765,51.488,68.294,46.747,65.39,46.44z"/>
	<path fill-rule="evenodd" clip-rule="evenodd" fill="#C88E40" d="M46.125,56.073c-1.917-1.51-2.416-4.621-3.503-6.129
		c0.577-1.175,1.872-1.632,3.503-1.751c-0.855,0.896-1.73,1.772-2.627,2.627c0.796,0.771,2.584,0.151,5.254,0.876
		c2.541-1.448-2.374,1.402-2.627,2.626C46.125,54.905,46.125,55.488,46.125,56.073z"/>
	<path fill-rule="evenodd" clip-rule="evenodd" fill="#D9A762" d="M71.521,58.7c0.293,0,0.582,0,0.876,0
		c1.498-0.04,2.267,0.649,2.626,1.752c0.521,2.792-1.644,2.708,0,4.378c-2.004,1.499-0.32,6.685-0.875,9.633c0,2.627,0,5.254,0,7.88
		c0.875,0,1.751,0,2.627,0c-15.968,3.882-32.16,7.539-48.163,11.385c4.432,2.642-3.103,0.896-3.504,0.877
		c0.845,0.78,2.22,8.626-2.626,4.378c0.309-1.229,1.542-0.074,1.751,0.875c0.951-0.218,0.593-1.741,1.751-1.752
		c-2.65-4.728-10.527,1.134-14.887,2.629c0.966-7.501,3.053-13.879,5.254-20.143c3.051-1.621,5.913-3.428,8.757-5.253
		c2.195-1.601,5.769-1.823,7.006-4.379c11.027-4.152,20.783-9.573,35.028-10.507c0-0.292,0-0.586,0-0.876
		C69.251,59.933,69.045,57.977,71.521,58.7z M24.232,84.095c-3.915-0.121-3.364,4.225-4.378,7.007
		C23.592,91.042,24.896,88.552,24.232,84.095z M27.735,83.22c-1.967,0.367-0.024,4.645-1.752,5.253
		c1.947-0.679,4.748-0.506,5.255-2.626c-0.703-3.038,1.304-3.365,0.875-6.13C29.26,79.489,27.899,80.756,27.735,83.22z
		 M33.865,84.972c1.459,0,2.919,0,4.379,0c0.701-2.677,2.755-7.114,0.876-9.633C34.953,76.134,33.783,79.926,33.865,84.972z
		 M67.142,65.706c-1.12,0.049-1.212,1.122-2.627,0.876c-1.863,2.516-0.023,8.733-1.751,11.385c1.168,0,2.334,0,3.502,0
		C71.979,78.985,72.601,65.459,67.142,65.706z M59.261,70.959c-0.463-5.313-8.154-1.655-7.006,2.627
		c-0.104,2.523,0.479,5.732-0.876,7.005c2.679,0.635,2.576-1.512,5.254-0.875c3.797,0.584,2.358-4.064,2.628-7.006
		C59.261,72.126,59.261,71.543,59.261,70.959z M48.752,78.841c0-1.75,0-3.502,0-5.254c-3.269-0.351-5.138,0.7-5.254,3.503
		c0,1.75,0,3.502,0,5.253c1.751,0,3.503,0,5.254,0C48.752,81.176,48.752,80.007,48.752,78.841z"/>
	<path fill-rule="evenodd" clip-rule="evenodd" fill="#EAB654" d="M11.097,100.735c4.359-1.495,12.236-7.356,14.887-2.629
		c-1.158,0.011-0.8,1.534-1.751,1.752c-0.209-0.949-1.442-2.104-1.751-0.875c4.846,4.248,3.471-3.598,2.626-4.378
		c0.401,0.02,7.936,1.765,3.504-0.877c16.003-3.846,32.195-7.503,48.163-11.385c3.35-0.736,7.029-1.143,11.385-0.874
		c5.634-1.08,11.948-1.479,18.389-1.752c5.547,0,11.092,0,16.639,0c28.869,0.798,50.873,9.844,50.791,37.654
		c-0.876,0-1.752,0-2.628,0c-5.598-0.241-9.406-2.27-15.763-1.751c-0.377-1.959-4.315-0.356-6.13-0.875c-1.168,0-2.335,0-3.503,0
		c-0.377-1.958-4.314-0.356-6.13-0.877c-1.168,0-2.334,0-3.502,0c-1.214-1.998-6.096-0.325-8.757-0.875c-2.628,0-5.255,0-7.881,0
		c-2.65-2.021-9.033-0.31-13.137-0.877c-4.977-1.457-16.039-1.457-21.017,0c-4.671,0-9.341,0-14.011,0
		c-2.949,0.557-8.135-1.127-9.633,0.877c-7.948,0.517-15.808,1.121-23.644,1.752c-1.54,0.503-5.146-1.06-5.255,0.875
		c-3.218,0.283-7.753-0.748-9.632,0.877c-0.294,0-0.584,0-0.876,0c-5.388-0.427-8.367,1.558-14.012,0.874
		c2.413-2.023,0.543-2.903,0.876-7.004C9.552,106.779,9.775,103.205,11.097,100.735z M140.7,84.095c0,1.459,0,2.919,0,4.378
		c0.876,0,1.752,0,2.628,0C143.5,85.967,143.437,83.693,140.7,84.095z M11.097,109.491c-0.292,0-0.583,0-0.875,0
		c0,1.459,0,2.919,0,4.378c1.459,0,2.919,0,4.379,0c0-0.875,0-1.752,0-2.626c-0.531-1.807,1.412-6.084-1.752-5.255
		C11.229,106.12,12.312,108.955,11.097,109.491z M16.351,112.994c2.063,0.018,2.579-1.51,5.255-0.877
		c-0.494-3.995,1.551-5.452,0.876-9.631c-1.12-0.048-1.213-1.125-2.627-0.876C16.375,103.093,16.636,108.315,16.351,112.994z
		 M25.983,112.117c0.377-1.958,4.315-0.354,6.13-0.874c-1.027-5.147,2.427-9.387,0-13.137
		C24.198,96.334,25.639,108.543,25.983,112.117z M124.938,84.095c0.388,1.655-1.189,5.277,1.752,4.378
		C128.41,88.076,128.263,82.331,124.938,84.095z M140.7,104.236c0.431-4.519-1.204-6.967-5.254-7.005
		c0.02,2.062-1.509,2.578-0.876,5.255c0,0.583,0,1.165,0,1.75c0.521,1.813-1.082,5.754,0.876,6.132c1.752,0,3.502,0,5.254,0
		C140.7,108.324,140.7,106.28,140.7,104.236z M133.695,91.976c-0.88,2.924,1.215,2.873,3.503,2.629
		c1.56-3.594-2.289-9.176-3.503-4.38C133.695,90.809,133.695,91.392,133.695,91.976z M73.271,91.102
		c-2.99,1.679-1.317,8.021-1.751,12.259c0,1.46,0,2.919,0,4.378c4.378,0,8.757,0,13.135,0C87.212,96.84,82.641,81.619,73.271,91.102
		z M92.537,93.728c-2.01,1.784-0.316,7.272-0.876,10.508c3.21,0,6.423,0,9.633,0c-0.162-5.675,1.271-12.947-3.503-14.011
		C94.522,89.875,92.653,90.926,92.537,93.728z M112.678,100.735c-0.183-4.195,0.871-9.629-1.751-11.385
		c-2.664-0.037-5.764-0.51-5.255,2.626c-2.009,1.785-0.316,7.272-0.876,10.51C107.221,101.7,113.017,104.284,112.678,100.735z
		 M61.888,92.853c-3.111,0.1-3.523,2.897-3.503,6.13c0.172,3.383,0.03,6.453-0.876,8.756c3.606,0.688,4.494-1.343,7.881-0.875
		c4.986,0.583,3.954-9.443,2.628-12.259C67.969,92.54,63.41,90.548,61.888,92.853z M50.503,106.864c0.876,0,1.752,0,2.628,0
		c0.209-4.085,3.144-12.061-2.628-12.259c-1.119,0.046-1.212,1.121-2.627,0.875c-0.736,2.183-1.146,4.692-0.875,7.881
		c-1.898-0.149-0.397,3.105-0.876,4.378C47.397,107.26,50.65,108.763,50.503,106.864z M130.191,105.988
		c3.003,0.888,2.086-6.578,0.876-7.005c-0.742-1.886-2.156-3.099-5.254-2.629c-1.048,2.455-0.963,6.044-0.876,9.634
		C126.689,105.988,128.441,105.988,130.191,105.988z M38.244,98.983c2.407,5.295-2.532,3.521-1.752,0.875
		c-1.155,3.916,0.711,3.101,0,8.758c2.334,0,4.672,0,7.006,0c0-3.795,0-7.591,0-11.385C40.743,96.809,40.075,98.477,38.244,98.983z
		 M154.711,108.616c-0.101-3.109,0.634-7.055-2.626-7.006c-1.976,0.652-0.343,4.911-0.876,7.006
		C152.377,108.616,153.543,108.616,154.711,108.616z M159.091,102.486c0.722,2.198-1.703,7.539,1.751,7.005
		C164.598,109.124,162.444,101.385,159.091,102.486z M144.204,100.735c-0.249,4.36-0.856,13.661,4.378,9.633
		C145.833,108.445,150.509,99.097,144.204,100.735z"/>
	<path fill-rule="evenodd" clip-rule="evenodd" fill="#1F0B05" d="M75.022,60.452c2.229,0.089,2.069,3.262,0.876,4.378
		c0.377,1.375,2.755,0.747,1.752,3.503c-2.548,1.255-0.985,0.67-0.876-1.752c-0.879-0.003-1.042,0.708-1.752,0.876
		c0-0.876,0-1.752,0-2.627C73.379,63.16,75.543,63.244,75.022,60.452z"/>
	<path fill-rule="evenodd" clip-rule="evenodd" fill="#111224" d="M66.266,77.966c-1.168,0-2.334,0-3.502,0
		c1.728-2.652-0.112-8.869,1.751-11.385c1.415,0.246,1.507-0.827,2.627-0.876C70.421,69.475,70.688,74.229,66.266,77.966z"/>
	<path fill-rule="evenodd" clip-rule="evenodd" fill="#1F0B05" d="M52.255,73.587c-1.148-4.282,6.543-7.94,7.006-2.627
		c-0.705,0.464-1.421,0.915-2.628,0.876c-0.246-1.414,0.829-1.508,0.876-2.626C53.31,68.22,54.428,72.547,52.255,73.587z"/>
	<path fill-rule="evenodd" clip-rule="evenodd" fill="#35332B" d="M56.633,79.717c0.603-2.003,0.989-4.158,2.628-7.006
		C58.991,75.653,60.43,80.302,56.633,79.717z"/>
	<path fill-rule="evenodd" clip-rule="evenodd" fill="#1F0B05" d="M43.498,77.09c0.116-2.803,1.985-3.854,5.254-3.503
		c0,1.752,0,3.503,0,5.254c-2.303-2.276-0.689,1.415-3.503,0.876c0.488-2.14,3.389-1.867,2.627-5.254
		C45.128,74.048,45.563,76.82,43.498,77.09z"/>
	<path fill-rule="evenodd" clip-rule="evenodd" fill="#111224" d="M48.752,78.841c0,1.167,0,2.335,0,3.502c-1.751,0-3.503,0-5.254,0
		c0-1.751,0-3.502,0-5.253c2.064-0.271,1.63-3.042,4.378-2.627c0.762,3.388-2.139,3.114-2.627,5.254
		C48.063,80.256,46.449,76.565,48.752,78.841z"/>
	<path fill-rule="evenodd" clip-rule="evenodd" fill="#111224" d="M39.12,75.339c1.879,2.52-0.175,6.957-0.876,9.633
		c-1.46,0-2.92,0-4.379,0C33.783,79.926,34.953,76.134,39.12,75.339z"/>
	<path fill-rule="evenodd" clip-rule="evenodd" fill="#D9A762" d="M9.346,110.368c-0.333,4.101,1.537,4.98-0.876,7.004
		c0.161,0.745-0.342,0.826-0.875,0.877C8.39,115.832,7.866,112.097,9.346,110.368z"/>
	<path fill-rule="evenodd" clip-rule="evenodd" fill="#35332B" d="M126.689,88.473c-2.941,0.899-1.364-2.723-1.752-4.378
		C128.263,82.331,128.41,88.076,126.689,88.473z"/>
	<path fill-rule="evenodd" clip-rule="evenodd" fill="#1F0B05" d="M133.695,90.225c1.214-4.796,5.063,0.786,3.503,4.38
		c-2.288,0.244-4.383,0.295-3.503-2.629c0.891,0.569,0.905,2.014,2.627,1.752C136.365,91.266,135.526,88.313,133.695,90.225z"/>
	<path fill-rule="evenodd" clip-rule="evenodd" fill="#1F0B05" d="M61.888,92.853c-0.9,2.018-3.014,2.822-2.627,6.13
		c-0.293,0-0.584,0-0.876,0C58.364,95.75,58.776,92.953,61.888,92.853z"/>
	<path fill-rule="evenodd" clip-rule="evenodd" fill="#111224" d="M47.001,103.361c-0.271-3.188,0.139-5.698,0.875-7.881
		c1.415,0.246,1.508-0.829,2.627-0.875c5.771,0.198,2.837,8.174,2.628,12.259c-0.876,0-1.752,0-2.628,0c-1.168,0-2.334,0-3.502,0
		C45.798,104.869,49.258,103.572,47.001,103.361z"/>
	<path fill-rule="evenodd" clip-rule="evenodd" fill="#111224" d="M130.191,105.988c-1.75,0-3.502,0-5.254,0
		c-0.087-3.59-0.172-7.179,0.876-9.634c3.098-0.47,4.512,0.743,5.254,2.629C129.522,100.157,132.501,104.051,130.191,105.988z"/>
	<path fill-rule="evenodd" clip-rule="evenodd" fill="#1F0B05" d="M134.57,102.486c-0.633-2.677,0.896-3.193,0.876-5.255
		c4.05,0.038,5.685,2.486,5.254,7.005c-1.659-1.719-1.916-7.952-5.254-5.253C137.801,100.196,136.734,101.464,134.57,102.486z"/>
	<path fill-rule="evenodd" clip-rule="evenodd" fill="#111224" d="M140.7,104.236c0,2.044,0,4.088,0,6.132c-1.752,0-3.502,0-5.254,0
		c1.526-1.515,0.97-5.415-0.876-6.132c0-0.585,0-1.167,0-1.75c2.164-1.021,3.23-2.29,0.876-3.503
		C138.784,96.284,139.041,102.517,140.7,104.236z"/>
	<path fill-rule="evenodd" clip-rule="evenodd" fill="#111224" d="M148.582,110.368c-5.234,4.028-4.627-5.272-4.378-9.633
		C150.509,99.097,145.833,108.445,148.582,110.368z"/>
	<path fill-rule="evenodd" clip-rule="evenodd" fill="#111224" d="M19.854,101.61c1.414-0.249,1.507,0.828,2.627,0.876
		c0.675,4.179-1.37,5.636-0.876,9.631c-2.676-0.633-3.192,0.895-5.255,0.877C16.636,108.315,16.375,103.093,19.854,101.61z"/>
	<path fill-rule="evenodd" clip-rule="evenodd" fill="#111224" d="M160.842,109.491c-3.454,0.534-1.029-4.807-1.751-7.005
		C162.444,101.385,164.598,109.124,160.842,109.491z"/>
	<path fill-rule="evenodd" clip-rule="evenodd" fill="#111224" d="M11.097,109.491c1.215-0.536,0.132-3.371,1.752-3.503
		c3.164-0.829,1.221,3.448,1.752,5.255c-1.035,0.424-1.986,0.934-2.628,1.751C10.676,112.832,11.169,110.875,11.097,109.491z"/>
	<path fill-rule="evenodd" clip-rule="evenodd" fill="#92704C" d="M14.601,111.243c0,0.874,0,1.751,0,2.626c-1.46,0-2.92,0-4.379,0
		c0-1.459,0-2.919,0-4.378c0.292,0,0.583,0,0.875,0c0.072,1.385-0.421,3.341,0.876,3.503
		C12.614,112.176,13.565,111.667,14.601,111.243z"/>
	<path fill-rule="evenodd" clip-rule="evenodd" fill="#C88E40" d="M139.824,113.869c1.815,0.521,5.753-1.081,6.13,0.877
		c-2.412-0.853-2.559,4.893-1.75,4.378c-0.492,2.536-1.367-1.345-2.628-0.875c0.185-1.059,0.972-0.54,1.752,0
		c0-0.877,0-1.751,0-2.628C143.953,113.243,139.198,116.247,139.824,113.869z"/>
	<path fill-rule="evenodd" clip-rule="evenodd" fill="#C88E40" d="M149.457,114.746c1.814,0.519,5.753-1.084,6.13,0.875
		c-3.028-0.713-3.696,1.635-5.254,0c-2.065,2.566,1.683,3.252,0,4.378c-5.468-0.798-4.328,5.013-4.379,9.633
		c0,1.167,0,2.336,0,3.503c-1.62,0.132-0.536,2.967-1.75,3.503c-1.184-0.274-1.674-1.246-3.504-0.877c0-0.292,0-0.584,0-0.874
		c5.127,0.747,1.58-7.178,2.628-10.508c1.545-4.095,2.669-4.22,2.626-8.758C147.442,115.623,148.812,120.06,149.457,114.746z"/>
	<path fill-rule="evenodd" clip-rule="evenodd" fill="#B98339" d="M61.888,112.994c3.21,0,6.422,0,9.633,0
		c16.055,0,32.107,0,48.164,0c2.626,0,5.253,0,7.881,0c1.214,1.996,6.096,0.328,8.757,0.875c1.168,0,2.334,0,3.502,0
		c-0.626,2.378,4.129-0.626,3.504,1.752c0,0.877,0,1.751,0,2.628c-0.78-0.54-1.567-1.059-1.752,0
		c1.261-0.47,2.136,3.411,2.628,0.875c-0.809,0.515-0.662-5.23,1.75-4.378c1.168,0,2.335,0,3.503,0
		c-0.646,5.314-2.015,0.877-3.503,0.875c0.043,4.538-1.081,4.663-2.626,8.758c0.018-4.606-9.372-6.851-8.758,0
		c0,1.165,0,2.334,0,3.501c-2.755,0.246-0.75,9.024,0.876,7.007c1.752,0,3.502,0,5.254,0c0,0.29,0,0.582,0,0.874
		c1.83-0.369,2.32,0.603,3.504,0.877c1.214-0.536,0.13-3.371,1.75-3.503c2.628,0,5.255,0,7.881,0
		c3.151-5.573-2.02-13.496,1.752-15.763c-1.021-2.345-2.288,2.279-3.502,2.627c0.768,0.988,2.775-0.209,0.876,2.628
		c-1.262-0.492-2.137-1.366-2.628-2.628c1.683-1.126-2.065-1.812,0-4.378c1.558,1.635,2.226-0.713,5.254,0
		c6.356-0.519,10.165,1.51,15.763,1.751c-0.028,4.523,1.702,4.047,2.628,8.759c-1.541-0.214-1.996-1.508-1.752-3.504
		c-1.189,0.271-0.727,2.191-0.876,3.504c-0.292,0-0.583,0-0.876,0c-0.068-4.694-4.958-5.196,0-6.132
		c-1.648-3.871-4.866,2.865-7.006-1.75c-2.05,0.994,2.243,2.928,3.504,3.501c0,0.293,0,0.585,0,0.877
		c-2.275-0.525-3.151,0.35-2.628,2.627c-1.225,1.707-2.619,5.879-0.876,7.881c1.018,0.143,1.559-0.193,1.752-0.875
		c1.552-0.199,4.386,0.882,3.504-1.751c1.025,0.141,0.738,1.596,0.874,2.626c1.936-0.109,0.373-3.714,0.876-5.255
		c1.189,0.271,0.728,2.193,0.876,3.503c1.758,0.3,2.74-0.178,2.628-1.751c1.15,0.31,1.376,1.543,2.627,1.751c0,1.46,0,2.919,0,4.378
		c-21.184,0.71-39.815,3.972-62.176,3.504c-6.129,0-12.259,0-18.389,0c-2.949,0.554-8.135-1.128-9.633,0.877
		c-0.583,0-1.168,0-1.752,0c-3.229-2.026-10.203-0.308-14.887-0.877c-2.919,0-5.837,0-8.757,0c0.154-1.406,6.521-0.932,3.503-2.627
		c0-0.584,0-1.169,0-1.751c0-2.627,0-5.255,0-7.882c1.785,13.938,3.235-6.577,0-9.633c-1.018-0.141-1.558,0.193-1.751,0.877
		c-2.612-1.218-5.36-1.035-6.131,1.75c-0.292,0-0.582,0-0.875,0c1.917-1.822-0.768-2.829,0.875-4.378
		c-1.273,1.703-5.086,7.505-2.626,12.259c0,2.919,0,5.84,0,8.758c0.27,1.189,2.192,0.726,3.502,0.875
		c-0.377,1.958-4.315,0.354-6.13,0.877c-13.763,0.042-25.474-1.965-37.654-3.503c2.373-2.601,6.461,0.494,9.633,0
		c-1.077-1.842-5.272-0.567-6.131-2.627c3.343-0.454,1.151-6.439,2.628-8.758c1.414,0.246,1.507-0.826,2.627-0.875
		c-0.249,3.545-1.503,6.086-1.752,9.633c6.674,5.436,8.645-10.185,3.503-11.384c0.914-1.207,5.126-2.594,2.627,0
		c3.47-0.271-0.979-3.042,2.628-2.627c-1.314-2.895-2.143,1.82-4.38,0.875c0.482-1.94-1.672-1.246-1.75-2.626
		c1.879-1.625,6.414-0.594,9.632-0.877c-1.728,2.767-1.139,4.608-5.254,6.129c0.791,0.968,1.958,0.606,3.503,0
		c0.635,2.68-1.511,2.576-0.876,5.255c-0.193,2.82,1.549,3.706,0.876,7.007c2.044,0,4.086,0,6.13,0c0-4.088,0-8.176,0-12.262
		c0.264-2.305-1.213-2.874-3.503-2.626c3.563-2.271,2.035-2.958-0.876-1.752c-1.91-0.103,3.159-1.443,5.255-2.626
		C46.08,114.115,53.939,113.51,61.888,112.994z M161.717,127.004c3.394-2.756,1.782-10.299-1.751-6.129
		c-1.526-0.066-2.723,0.195-3.503,0.874c0.257-1.035,3.526-3.308,0.876-4.378c0.75,4.06-1.378,0.917-1.752,2.627
		c-0.119,1.015,0.381,16.173,0.876,4.38c1.912,1.589,0.178,6.826,2.628,7.881c0.184-1.059,0.971-0.538,1.751,0
		C161.85,131.224,161.833,129.163,161.717,127.004z M157.339,134.886c-0.534-0.051-1.036-0.132-0.876-0.875
		c4.176-0.49,5.77,1.521,7.005,0C160.776,130.732,152.405,135.653,157.339,134.886z M43.498,135.76c2.044,0,4.085,0,6.13,0
		c0-3.211,0-6.422,0-9.63c0.148-1.313-0.313-3.233,0.875-3.504c-0.589,20.917,3.311-5.426-0.875-3.503
		c-2.426-4.589-7.242-1.613-8.758,1.752c-1.589-2.444-4.9,11.958-0.876,9.633c0,1.751,0,3.503,0,5.252
		C41.164,135.76,42.33,135.76,43.498,135.76z M75.898,118.249c-6.826,0.471-3.672,10.921-4.378,17.512
		c0.089,0.982-1.272,1.365,0,1.752c2.072,2.014,7.858,0.314,11.384,0.877c0.888-0.875,0.331-4.775-0.876-6.13
		c0-3.213,0-6.424,0-9.633c2.268-1.127,2.753-1.811,1.752-4.378c-1.206-0.039-1.922,0.411-2.628,0.875c0,0.29,0,0.582,0,0.875
		C79.591,119.726,77.722,115.368,75.898,118.249z M70.645,123.501c-2.433-0.94,0.727,11.211-1.751,13.136
		c-0.197-0.679-0.024-1.727-0.876-1.751c-0.414,1.707,2.356,4.477,2.627,2.626C70.15,135.816,70.992,127.96,70.645,123.501z
		 M89.034,119.999c-1.08-1.594-2.424,2.468-3.503,1.751c2.028,3.81,0.303,11.374,0.876,16.64c4.67,0,9.34,0,14.011,0
		c0.892-5.822-2.254-15.684,2.628-17.514c0.347,5.804-0.507,14.393,0,17.514c4.058-0.854,15.572,1.893,14.011-1.752
		c1.851-2.143-0.92,1.306-2.628,0.875c0-0.292,0-0.584,0-0.875c0.534-0.05,1.038-0.132,0.876-0.877
		c2.212-1.431,1.239-14.566-0.876-14.011c-1.184-0.859-1.749-2.336-2.626-3.501c-0.292,0-0.583,0-0.876,0
		c-0.346-1.508,1.3-2.246,0-2.628c-0.885,1.45-3.72,0.951-5.255,1.751c-0.089-0.982,1.272-1.362,0-1.751
		c-0.01,1.158-1.534,0.8-1.75,1.751c1.654-0.195,1.932,0.987,3.502,0.877c-0.05,0.532-0.131,1.035-0.876,0.875
		c-1.157,0.011-0.8,1.534-1.752,1.752c-0.119-3.638-0.575-0.179-1.75,0c-1.094-2.288,0.522-6.684-2.628-4.378
		c2.843,1.158-1.394,2.851,1.752,4.378c-4.104,2.237-2.947-4.713-5.255-5.255c-0.355,2.958-3.395-2.33-2.627,1.751
		c-0.875,0-1.751,0-2.627,0C91.17,118.633,90.295,119.508,89.034,119.999z M124.938,118.249c1.807-2.932,0.767-0.765,1.752,0
		c-0.15-1.188,5.068-1.136,1.752-2.628c-1.808,1.454-7.588,1.524-7.007,0.877c0.094,0.591-2.024,2.907-0.875,3.501
		c-0.196,0.679-0.023,1.728-0.875,1.751c-3.636-0.303-0.297,14.521-0.876,0.877c0.292,0,0.583,0,0.876,0c0,0.29,0,0.583,0,0.875
		c0,2.334,0,4.67,0,7.007c-0.293,0-0.584,0-0.876,0c-0.157,3.949-1.073,4.371,0.876,7.004c3.252-0.413,15.356,1.239,10.507-1.752
		c0-0.292,0-0.584,0-0.874c0.68-0.196,1.728-0.024,1.752-0.875c-0.708-3.224-1.713-13.901-1.752-1.752
		c-2.004-1.501-0.32-6.686-0.876-9.633c1.035,0.126,1.986,1.559,2.628,0c-3.051-0.259,0.073-2.371-1.752-2.628
		c-1.308,2.89-1.03-2.93-3.502-1.75c0,0.583,0,1.165,0,1.75C126.678,122.057,124.3,119.679,124.938,118.249z M29.487,131.382
		c0.059-2.978,0.272-6.109-1.752-7.004C28.457,126.577,26.033,131.917,29.487,131.382z"/>
	<path fill-rule="evenodd" clip-rule="evenodd" fill="#C88E40" d="M134.57,127.879c-0.142,1.02,0.194,1.559,0.876,1.752
		c0,1.751,0,3.503,0,5.255C133.82,136.904,131.815,128.125,134.57,127.879z"/>
	<path fill-rule="evenodd" clip-rule="evenodd" fill="#C88E40" d="M152.961,122.626c1.899-2.837-0.108-1.64-0.876-2.628
		c1.214-0.348,2.481-4.972,3.502-2.627c-3.771,2.267,1.399,10.189-1.752,15.763c0-0.585,0-1.167,0-1.752
		C153.589,128.417,152.443,126.354,152.961,122.626z"/>
	<path fill-rule="evenodd" clip-rule="evenodd" fill="#C88E40" d="M171.35,117.372c0.876,0,1.752,0,2.628,0c0.292,0,0.583,0,0.875,0
		c0.068,5.188,1.488,9.02,1.752,14.011c-1.251-0.208-1.477-1.441-2.627-1.751c0-1.167,0-2.337,0-3.501
		C173.052,121.418,171.321,121.895,171.35,117.372z"/>
	<path fill-rule="evenodd" clip-rule="evenodd" fill="#C88E40" d="M166.972,122.626c0-0.292,0-0.584,0-0.877
		c-1.261-0.573-5.554-2.507-3.504-3.501c2.14,4.615,5.357-2.121,7.006,1.75c-4.958,0.936-0.068,1.438,0,6.132
		c0,0.582,0,1.164,0,1.749c-0.503,1.541,1.06,5.146-0.876,5.255c-0.136-1.03,0.151-2.485-0.874-2.626
		C168.788,127.233,168.355,124.454,166.972,122.626z"/>
	<path fill-rule="evenodd" clip-rule="evenodd" fill="#C88E40" d="M159.966,120.875c3.533-4.17,5.145,3.373,1.751,6.129
		C160.259,125.835,161.425,122.042,159.966,120.875z"/>
	<path fill-rule="evenodd" clip-rule="evenodd" fill="#C88E40" d="M156.463,124.378c-0.495,11.793-0.995-3.365-0.876-4.38
		c0.374-1.71,2.502,1.433,1.752-2.627c2.65,1.07-0.619,3.343-0.876,4.378C156.463,122.626,156.463,123.501,156.463,124.378z"/>
	<path fill-rule="evenodd" clip-rule="evenodd" fill="#C88E40" d="M163.468,134.011c-1.235,1.521-2.829-0.49-7.005,0
		c-0.16,0.743,0.342,0.824,0.876,0.875C152.405,135.653,160.776,130.732,163.468,134.011z"/>
	<path fill-rule="evenodd" clip-rule="evenodd" fill="#C88E40" d="M164.344,125.253c0.531,2.097,1.26,3.995,0.876,7.006
		c-0.193,0.682-0.734,1.018-1.752,0.875C161.725,131.132,163.119,126.96,164.344,125.253z"/>
	<path fill-rule="evenodd" clip-rule="evenodd" fill="#C88E40" d="M62.764,118.249c0.193-0.684,0.733-1.018,1.751-0.877
		c3.235,3.056,1.785,23.571,0,9.633C64.66,123.356,64.817,119.697,62.764,118.249z"/>
	<path fill-rule="evenodd" clip-rule="evenodd" fill="#C88E40" d="M54.007,127.879c-2.46-4.754,1.353-10.556,2.626-12.259
		c-1.643,1.549,1.042,2.556-0.875,4.378C53.967,121.418,55.797,126.461,54.007,127.879z"/>
	<path fill-rule="evenodd" clip-rule="evenodd" fill="#C88E40" d="M49.628,119.124c4.186-1.923,0.286,24.42,0.875,3.503
		C50.7,120.969,49.517,120.693,49.628,119.124z"/>
	<path fill-rule="evenodd" clip-rule="evenodd" fill="#C88E40" d="M39.994,130.508c-4.024,2.325-0.713-12.077,0.876-9.633
		c0,0.29,0,0.582,0,0.874c0,2.337,0,4.671,0,7.007C40.188,128.95,39.853,129.491,39.994,130.508z"/>
	<path fill-rule="evenodd" clip-rule="evenodd" fill="#C88E40" d="M32.989,115.621c0.109-1.935,3.715-0.372,5.255-0.875
		c-2.096,1.183-7.165,2.523-5.255,2.626c2.911-1.206,4.439-0.519,0.876,1.752c-1.261,0.49-2.137,1.365-2.627,2.626
		c-1.545,0.606-2.712,0.968-3.503,0C31.851,120.229,31.262,118.387,32.989,115.621z"/>
	<path fill-rule="evenodd" clip-rule="evenodd" fill="#C88E40" d="M23.357,116.498c0.078,1.38,2.232,0.686,1.75,2.626
		c2.237,0.945,3.065-3.77,4.38-0.875c-3.607-0.415,0.842,2.356-2.628,2.627c2.499-2.594-1.713-1.207-2.627,0
		c-0.779,0.389-1.566,0.767-1.751,1.751c-1.12,0.049-1.213,1.121-2.627,0.875c0-0.292,0-0.585,0-0.875
		c4.769-1.675-0.793-3.719,2.627-6.129C22.773,116.498,23.063,116.498,23.357,116.498z"/>
	<path fill-rule="evenodd" clip-rule="evenodd" fill="#C88E40" d="M70.645,137.512c-0.271,1.851-3.041-0.919-2.627-2.626
		c0.852,0.024,0.679,1.072,0.876,1.751c2.478-1.925-0.682-14.076,1.751-13.136C70.992,127.96,70.15,135.816,70.645,137.512z"/>
	<path fill-rule="evenodd" clip-rule="evenodd" fill="#C88E40" d="M82.028,132.259c1.207,1.354,1.764,5.255,0.876,6.13
		c-3.525-0.563-9.312,1.137-11.384-0.877c3.235-0.558,8.722,1.134,10.508-0.875C82.028,135.176,82.028,133.719,82.028,132.259z"/>
	<path fill-rule="evenodd" clip-rule="evenodd" fill="#C88E40" d="M81.152,119.999c0-0.293,0-0.585,0-0.875
		c0.706-0.464,1.422-0.914,2.628-0.875c1.001,2.567,0.516,3.251-1.752,4.378c-0.197-0.679-0.023-1.728-0.876-1.751
		C81.152,120.583,81.152,120.291,81.152,119.999z"/>
	<path fill-rule="evenodd" clip-rule="evenodd" fill="#C88E40" d="M114.429,137.512c1.708,0.431,4.479-3.018,2.628-0.875
		c1.562,3.645-9.953,0.897-14.011,1.752c-0.507-3.121,0.347-11.71,0-17.514c-4.882,1.83-1.736,11.691-2.628,17.514
		c-4.671,0-9.341,0-14.011,0c-0.573-5.266,1.152-12.83-0.876-16.64c1.079,0.717,2.423-3.345,3.503-1.751c0,0.292,0,0.584,0,0.877
		c-0.744-0.161-0.826,0.34-0.875,0.874c-1.453,1.513-1.453,9,0,10.51c0,0.875,0,1.752,0,2.627c0,0.874,0,1.751,0,2.626
		c3.502,0,7.005,0,10.508,0c1.456-2.657,1.456-11.352,0-14.011c0.246-1.413-0.828-1.508-0.876-2.626
		c-0.79-1.545-1.958-2.713-3.503-3.504c-0.768-4.081,2.271,1.207,2.627-1.751c2.308,0.542,1.151,7.492,5.255,5.255
		c-3.146-1.527,1.091-3.22-1.752-4.378c3.15-2.306,1.534,2.09,2.628,4.378c1.175-0.179,1.631-3.638,1.75,0
		c-1.303,3.389-1.565,12.415,0,15.762C106.295,138.64,111.48,136.958,114.429,137.512z"/>
	<path fill-rule="evenodd" clip-rule="evenodd" fill="#C88E40" d="M114.429,121.75c2.115-0.556,3.088,12.58,0.876,14.011
		C114.677,131.426,114.103,127.04,114.429,121.75z"/>
	<path fill-rule="evenodd" clip-rule="evenodd" fill="#C88E40" d="M107.424,118.249c-1.57,0.11-1.848-1.072-3.502-0.877
		c0.216-0.951,1.74-0.593,1.75-1.751c1.272,0.389-0.089,0.769,0,1.751c1.535-0.8,4.37-0.301,5.255-1.751
		c1.3,0.382-0.346,1.12,0,2.628C109.759,118.249,108.592,118.249,107.424,118.249z"/>
	<path fill-rule="evenodd" clip-rule="evenodd" fill="#C88E40" d="M120.56,119.999c-1.149-0.594,0.969-2.91,0.875-3.501
		c-0.581,0.647,5.199,0.577,7.007-0.877c3.316,1.492-1.902,1.439-1.752,2.628c-0.985-0.765,0.055-2.932-1.752,0
		C123.787,119.141,121.71,119.106,120.56,119.999z"/>
	<path fill-rule="evenodd" clip-rule="evenodd" fill="#C88E40" d="M119.685,122.626c-0.293,0-0.584,0-0.876,0
		c0.579,13.645-2.76-1.18,0.876-0.877C119.685,122.042,119.685,122.334,119.685,122.626z"/>
	<path fill-rule="evenodd" clip-rule="evenodd" fill="#C88E40" d="M119.685,130.508c0.007,2.325-0.332,5,0.875,6.129
		c3.218-0.285,7.753,0.748,9.632-0.877c4.85,2.991-7.255,1.339-10.507,1.752c-1.949-2.633-1.033-3.055-0.876-7.004
		C119.101,130.508,119.392,130.508,119.685,130.508z"/>
	<path fill-rule="evenodd" clip-rule="evenodd" fill="#C88E40" d="M126.689,119.999c0-0.585,0-1.167,0-1.75
		c2.472-1.18,2.194,4.64,3.502,1.75c1.825,0.257-1.299,2.369,1.752,2.628c-0.642,1.559-1.593,0.126-2.628,0
		C127.662,122.528,128.709,119.73,126.689,119.999z"/>
	<path fill-rule="evenodd" clip-rule="evenodd" fill="#92704C" d="M9.346,125.253c2.457-1.657,8.093-4.715,7.881-6.13
		c0.245-2.07,2.34,1.004,3.503,0.875c-0.209,3.659-3.257-0.994-4.379,1.751c-1.212,2.875-2.063,6.108-1.75,10.51
		c-2.378,0.627,0.625-4.132-1.752-3.503c0-0.585,0-1.169,0-1.752c-1.57-0.111-1.848,1.073-3.503,0.875
		C9.346,127.004,9.346,126.13,9.346,125.253z"/>
	<path fill-rule="evenodd" clip-rule="evenodd" fill="#B98339" d="M8.47,117.372c5.645,0.684,8.624-1.301,14.012-0.874
		c-3.42,2.41,2.142,4.454-2.627,6.129c-0.78-0.681-1.978-0.942-3.504-0.877c1.122-2.745,4.17,1.908,4.379-1.751
		c-1.163,0.129-3.258-2.945-3.503-0.875c0.212,1.415-5.424,4.473-7.881,6.13c0.161-0.745-0.342-0.826-0.876-0.875
		c-0.036,2.881-1.479,4.358-0.875,7.881c0.95-0.217,0.594-1.742,1.751-1.751c0.132,2.176,2.966,0.255,3.503,0
		c-0.076,1.241-0.146,2.479,0.876,2.626c0.147,1.899-3.106,0.397-4.379,0.877c-1.169,0-2.335,0-3.503,0
		c-0.292-6.132,1.146-10.529,1.752-15.763C8.128,118.198,8.631,118.117,8.47,117.372z"/>
	<path fill-rule="evenodd" clip-rule="evenodd" fill="#1F0B05" d="M89.034,119.999c1.261-0.49,2.136-1.365,2.627-2.627
		c0.876,0,1.752,0,2.627,0c1.545,0.791,2.713,1.959,3.503,3.504c-1.975-3.77-5.85,2.081-3.503-2.627
		c-2.952,1.486-2.54,0.901-5.254,2.627C89.034,120.583,89.034,120.291,89.034,119.999z"/>
	<path fill-rule="evenodd" clip-rule="evenodd" fill="#111224" d="M55.758,119.999c0.293,0,0.583,0,0.875,0
		c0.771-2.785,3.519-2.968,6.131-1.75c2.054,1.448,1.896,5.107,1.751,8.756c0,2.627,0,5.255,0,7.882
		c-0.853,0.024-0.679,1.072-0.875,1.751c-3.211,0-6.423,0-9.633,0c0-2.918,0-5.839,0-8.758
		C55.797,126.461,53.967,121.418,55.758,119.999z"/>
	<path fill-rule="evenodd" clip-rule="evenodd" fill="#1F0B05" d="M81.152,129.631c-2.368-1.719,0.535-8.708-1.75-10.508
		c-2.699-0.655-1.068,3.02-4.38,1.752c0.253-1.022,4.969-2.53,0.876-2.627c1.823-2.881,3.692,1.478,5.254,1.75
		c0,0.292,0,0.584,0,0.877C81.152,123.793,81.152,126.712,81.152,129.631z"/>
	<path fill-rule="evenodd" clip-rule="evenodd" fill="#111224" d="M107.424,118.249c1.168,0,2.335,0,3.503,0
		c0.293,0,0.584,0,0.876,0c0.877,1.165,1.442,2.642,2.626,3.501c-0.326,5.29,0.248,9.677,0.876,14.011
		c0.162,0.745-0.342,0.827-0.876,0.877c-1.497-2.004-6.684-0.32-9.633-0.877c0.225-5.03-0.654-11.164,0.876-14.885
		c0.706,0.463,1.422,0.912,2.628,0.874c-0.569-0.89-2.014-0.905-1.752-2.626C107.293,119.284,107.374,118.781,107.424,118.249z"/>
	<path fill-rule="evenodd" clip-rule="evenodd" fill="#6D3720" d="M104.796,120.875c0.952-0.218,0.595-1.741,1.752-1.752
		c-0.262,1.721,1.183,1.736,1.752,2.626c-1.206,0.038-1.922-0.411-2.628-0.874c-1.53,3.721-0.651,9.854-0.876,14.885
		c0,0.293,0,0.585,0,0.877C103.23,133.291,103.493,124.264,104.796,120.875z"/>
	<path fill-rule="evenodd" clip-rule="evenodd" fill="#1F0B05" d="M31.238,121.75c0.49-1.261,1.366-2.136,2.627-2.626
		c2.29-0.248,3.767,0.321,3.503,2.626c-0.979-0.283-5.91-4.538-6.13,5.255c-0.293,0-0.583,0-0.876,0
		C29.728,124.326,31.873,124.429,31.238,121.75z"/>
	<path fill-rule="evenodd" clip-rule="evenodd" fill="#111224" d="M120.56,119.999c1.15-0.893,3.228-0.857,4.378-1.75
		c-0.638,1.431,1.74,3.809,1.752,1.75c2.02-0.269,0.973,2.529,2.626,2.628c0.556,2.947-1.128,8.132,0.876,9.633
		c0,0.875,0,1.752,0,2.627c-2.965,0.246-5.028,1.391-8.757,0.874c-1.279-2.19,0.301-7.318-1.75-12.259c0-0.292,0-0.585,0-0.875
		c0-0.292,0-0.584,0-0.877C120.536,121.726,120.363,120.677,120.56,119.999z"/>
	<path fill-rule="evenodd" clip-rule="evenodd" fill="#C88E40" d="M12.849,130.508c0-0.585,0-1.17,0-1.752
		c2.377-0.629-0.626,4.13,1.752,3.503c0.875,0,1.75,0,2.626,0c0.858,2.06,5.054,0.785,6.131,2.627c-3.172,0.494-7.26-2.601-9.633,0
		c-1.272-0.479-4.526,1.021-4.379-0.875c1.272-0.479,4.526,1.022,4.379-0.877C12.703,132.987,12.772,131.75,12.849,130.508z"/>
	<path fill-rule="evenodd" clip-rule="evenodd" fill="#6D3720" d="M119.685,123.501c2.051,4.94,0.471,10.068,1.75,12.259
		c3.729,0.517,5.792-0.628,8.757-0.874c0,0.29,0,0.582,0,0.874c-1.879,1.625-6.414,0.592-9.632,0.877
		c-1.207-1.129-0.868-3.804-0.875-6.129C119.685,128.171,119.685,125.835,119.685,123.501z"/>
	<path fill-rule="evenodd" clip-rule="evenodd" fill="#1F0B05" d="M65.39,46.44c2.904,0.307,1.375,5.048,1.752,7.881
		c2.389,0.638,1.763-1.741,3.503-1.75c-1.383,3.425,2.272,1.813,2.627,3.502c-2.679,0.635-2.576-1.512-5.254-0.875
		c-1.63,3.965,3.148,1.523,3.503,3.503c-2.476-0.723-2.27,1.233-4.379,0.876c-0.503-1.54,1.06-5.145-0.876-5.255
		c0-0.875,0-1.75,0-2.626C66.901,49.016,64.756,49.119,65.39,46.44z"/>
	<path fill-rule="evenodd" clip-rule="evenodd" fill="#35332B" d="M46.125,56.073c0-0.584,0-1.168,0-1.751
		c0.705-0.462,1.421-0.913,2.627-0.875C50.094,56.263,46.211,60.147,46.125,56.073z"/>
	<path fill-rule="evenodd" clip-rule="evenodd" fill="#111224" d="M71.521,58.7c-0.354-1.98-5.133,0.462-3.503-3.503
		c2.678-0.636,2.575,1.511,5.254,0.875c-0.463,0.706-0.913,1.422-0.875,2.627C72.103,58.7,71.813,58.7,71.521,58.7z"/>
	<path fill-rule="evenodd" clip-rule="evenodd" fill="#35332B" d="M75.022,64.83c0,0.875,0,1.751,0,2.627
		c-0.532,2.093,1.101,6.352-0.875,7.005C74.702,71.515,73.019,66.329,75.022,64.83z"/>
	<path fill-rule="evenodd" clip-rule="evenodd" fill="#B98339" d="M24.232,70.085c-3.997-3.51,1.695-9.202,2.627-2.627
		C24.505,66.853,25.167,69.267,24.232,70.085z"/>
	<path fill-rule="evenodd" clip-rule="evenodd" fill="#1F0B05" d="M66.266,77.966c4.422-3.737,4.155-8.491,0.876-12.261
		C72.601,65.459,71.979,78.985,66.266,77.966z"/>
	<path fill-rule="evenodd" clip-rule="evenodd" fill="#111224" d="M77.65,68.333c0.271,1.188,2.192,0.725,3.502,0.875
		c-0.446,2.472-2.118,3.718-2.626,6.13c1.828,2.61,4.605-1.163,7.881,0c-0.144,2.77,2.328,2.926,1.752,6.13
		c-4.355-0.269-8.035,0.138-11.385,0.874c-0.876,0-1.752,0-2.627,0c0-2.626,0-5.253,0-7.88c1.976-0.654,0.343-4.912,0.875-7.005
		c0.71-0.168,0.873-0.879,1.752-0.876C76.665,69.003,75.103,69.588,77.65,68.333z"/>
	<path fill-rule="evenodd" clip-rule="evenodd" fill="#111224" d="M56.633,79.717c-2.678-0.637-2.575,1.51-5.254,0.875
		c1.355-1.273,0.771-4.482,0.876-7.005c2.173-1.04,1.055-5.367,5.254-4.378c-0.047,1.119-1.122,1.212-0.876,2.626
		c1.207,0.039,1.923-0.412,2.628-0.876c0,0.583,0,1.167,0,1.752C57.622,75.56,57.235,77.714,56.633,79.717z"/>
	<path fill-rule="evenodd" clip-rule="evenodd" fill="#1F0B05" d="M31.238,85.847c-1.119,0.048-1.213,1.123-2.627,0.877
		c0-0.877,0-1.752,0-2.629c0.683,0.193,1.018,0.734,0.876,1.752c1.967-0.367,0.023-4.646,1.751-5.255
		c-2.811-0.768-1.816,2.272-3.503,2.628c0.164-2.464,1.524-3.731,4.378-3.503C32.542,82.482,30.535,82.809,31.238,85.847z"/>
	<path fill-rule="evenodd" clip-rule="evenodd" fill="#111224" d="M31.238,85.847c-0.507,2.12-3.308,1.947-5.255,2.626
		c1.728-0.608-0.215-4.886,1.752-5.253c1.687-0.355,0.692-3.396,3.503-2.628c-1.728,0.608,0.216,4.888-1.751,5.255
		c0.142-1.018-0.193-1.559-0.876-1.752c0,0.877,0,1.752,0,2.629C30.025,86.97,30.119,85.895,31.238,85.847z"/>
	<path fill-rule="evenodd" clip-rule="evenodd" fill="#6D3720" d="M143.328,88.473c-0.876,0-1.752,0-2.628,0
		c0-1.459,0-2.919,0-4.378C143.437,83.693,143.5,85.967,143.328,88.473z"/>
	<path fill-rule="evenodd" clip-rule="evenodd" fill="#35332B" d="M19.854,91.102c1.014-2.782,0.463-7.128,4.378-7.007
		C24.896,88.552,23.592,91.042,19.854,91.102z"/>
	<path fill-rule="evenodd" clip-rule="evenodd" fill="#111224" d="M92.537,93.728c0.116-2.802,1.985-3.853,5.254-3.503
		c2.825,3.728,2.236,6.322,2.627,13.136c-2.334,0-4.671,0-7.005,0C92.072,102.088,94.883,96.005,92.537,93.728z"/>
	<path fill-rule="evenodd" clip-rule="evenodd" fill="#111224" d="M105.672,91.976c-0.509-3.136,2.591-2.663,5.255-2.626
		c2.622,1.756,1.568,7.189,1.751,11.385c-2.183,0.631-4.296,0.439-7.006,0C105.672,97.814,105.672,94.895,105.672,91.976z"/>
	<path fill-rule="evenodd" clip-rule="evenodd" fill="#6D3720" d="M71.521,103.361c0.434-4.237-1.239-10.58,1.751-12.259
		c0.267,6.055-1.393,8.839,0,14.011C72.32,104.895,72.678,103.372,71.521,103.361z"/>
	<path fill-rule="evenodd" clip-rule="evenodd" fill="#6D3720" d="M92.537,93.728c2.346,2.277-0.465,8.36,0.876,9.633
		c2.334,0,4.671,0,7.005,0c-0.391-6.813,0.198-9.408-2.627-13.136c4.773,1.063,3.341,8.336,3.503,14.011c-3.21,0-6.423,0-9.633,0
		C92.221,101,90.527,95.512,92.537,93.728z"/>
	<path fill-rule="evenodd" clip-rule="evenodd" fill="#6D3720" d="M68.018,94.605c1.326,2.815,2.358,12.842-2.628,12.259
		C68.54,105.053,68.061,99.61,68.018,94.605z"/>
	<path fill-rule="evenodd" clip-rule="evenodd" fill="#111224" d="M43.498,97.231c0,3.794,0,7.59,0,11.385c-2.334,0-4.672,0-7.006,0
		c0.711-5.657-1.155-4.842,0-8.758c-0.78,2.646,4.159,4.42,1.752-0.875C40.075,98.477,40.743,96.809,43.498,97.231z"/>
	<path fill-rule="evenodd" clip-rule="evenodd" fill="#6D3720" d="M131.067,98.983c1.21,0.427,2.127,7.893-0.876,7.005
		C132.501,104.051,129.522,100.157,131.067,98.983z"/>
	<path fill-rule="evenodd" clip-rule="evenodd" fill="#111224" d="M32.113,98.106c2.427,3.75-1.027,7.989,0,13.137
		c-1.814,0.521-5.753-1.084-6.13,0.874C25.639,108.543,24.198,96.334,32.113,98.106z"/>
	<path fill-rule="evenodd" clip-rule="evenodd" fill="#6D3720" d="M112.678,100.735c0.339,3.549-5.457,0.965-7.882,1.751
		c0.56-3.237-1.133-8.725,0.876-10.51c0,2.919,0,5.838,0,8.759C108.382,101.174,110.495,101.366,112.678,100.735z"/>
	<path fill-rule="evenodd" clip-rule="evenodd" fill="#35332B" d="M47.001,103.361c2.257,0.211-1.203,1.508,0,3.503
		c1.168,0,2.334,0,3.502,0c0.147,1.899-3.105,0.396-4.378,0.875C46.604,106.466,45.103,103.211,47.001,103.361z"/>
	<path fill-rule="evenodd" clip-rule="evenodd" fill="#111224" d="M65.39,106.864c-3.387-0.468-4.274,1.563-7.881,0.875
		c0.906-2.303,1.048-5.373,0.876-8.756c0.292,0,0.583,0,0.876,0c-0.387-3.308,1.727-4.112,2.627-6.13
		c1.522-2.305,6.081-0.313,6.13,1.752C68.061,99.61,68.54,105.053,65.39,106.864z"/>
	<path fill-rule="evenodd" clip-rule="evenodd" fill="#111224" d="M73.271,91.102c9.369-9.483,13.94,5.738,11.384,16.637
		c-4.378,0-8.757,0-13.135,0c0-1.459,0-2.918,0-4.378c1.157,0.011,0.8,1.534,1.751,1.752C71.879,99.941,73.538,97.157,73.271,91.102
		z"/>
	<path fill-rule="evenodd" clip-rule="evenodd" fill="#111224" d="M151.209,108.616c0.533-2.095-1.1-6.354,0.876-7.006
		c3.26-0.049,2.525,3.896,2.626,7.006C153.543,108.616,152.377,108.616,151.209,108.616z"/>
	<path fill-rule="evenodd" clip-rule="evenodd" fill="#6D3720" d="M135.446,110.368c-1.958-0.378-0.354-4.318-0.876-6.132
		C136.416,104.953,136.973,108.853,135.446,110.368z"/>
	<path fill-rule="evenodd" clip-rule="evenodd" fill="#111224" d="M88.159,121.75c0.049-0.534,0.131-1.035,0.875-0.874
		c2.714-1.726,2.302-1.141,5.254-2.627c-2.347,4.708,1.528-1.143,3.503,2.627c0.048,1.118,1.122,1.213,0.876,2.626
		c0,4.086,0,8.174,0,12.259c-2.933,1.81-4.741-1.158-8.758,0.877c-0.95-0.217-0.593-1.74-1.75-1.751c0-0.875,0-1.752,0-2.627
		C88.159,128.756,88.159,125.253,88.159,121.75z"/>
	<path fill-rule="evenodd" clip-rule="evenodd" fill="#111224" d="M71.521,135.76c0.706-6.591-2.448-17.041,4.378-17.512
		c4.093,0.097-0.623,1.604-0.876,2.627c3.312,1.268,1.681-2.407,4.38-1.752c2.285,1.8-0.618,8.789,1.75,10.508
		c0,2.044,0,4.088,0,6.129C77.318,136.176,75.508,136.795,71.521,135.76z"/>
	<path fill-rule="evenodd" clip-rule="evenodd" fill="#111224" d="M16.351,121.75c1.526-0.065,2.724,0.196,3.504,0.877
		c0,0.29,0,0.583,0,0.875c-1.477,2.318,0.715,8.304-2.628,8.758c-0.876,0-1.751,0-2.626,0
		C14.287,127.858,15.139,124.625,16.351,121.75z"/>
	<path fill-rule="evenodd" clip-rule="evenodd" fill="#111224" d="M150.333,119.999c0.491,1.262,1.366,2.136,2.628,2.628
		c-0.518,3.728,0.628,5.791,0.874,8.756c-1.272,1.354-4.482,0.771-7.005,0.877c0.075-1.243,0.145-2.48-0.876-2.628
		C146.005,125.011,144.865,119.201,150.333,119.999z"/>
	<path fill-rule="evenodd" clip-rule="evenodd" fill="#111224" d="M134.57,124.378c-0.614-6.851,8.775-4.606,8.758,0
		c-1.048,3.33,2.499,11.255-2.628,10.508c-1.752,0-3.502,0-5.254,0c0-1.752,0-3.504,0-5.255
		C137.271,129.13,136.542,123.967,134.57,124.378z"/>
	<path fill-rule="evenodd" clip-rule="evenodd" fill="#1F0B05" d="M135.446,129.631c-0.682-0.193-1.018-0.732-0.876-1.752
		c0-1.167,0-2.336,0-3.501C136.542,123.967,137.271,129.13,135.446,129.631z"/>
	<path fill-rule="evenodd" clip-rule="evenodd" fill="#111224" d="M159.966,120.875c1.459,1.167,0.293,4.96,1.751,6.129
		c0.116,2.158,0.133,4.22-0.875,5.255c-0.78-0.538-1.567-1.059-1.751,0c-2.45-1.055-0.716-6.292-2.628-7.881
		c0-0.877,0-1.752,0-2.629C157.243,121.071,158.439,120.809,159.966,120.875z"/>
	<path fill-rule="evenodd" clip-rule="evenodd" fill="#111224" d="M166.972,122.626c1.384,1.827,1.816,4.606,1.752,7.882
		c0.882,2.633-1.952,1.552-3.504,1.751c0.384-3.011-0.345-4.909-0.876-7.006C163.82,122.976,164.696,122.101,166.972,122.626z"/>
	<path fill-rule="evenodd" clip-rule="evenodd" fill="#C88E40" d="M9.346,127.879c0,0.877,0,1.752,0,2.629
		c-1.157,0.009-0.801,1.534-1.751,1.751c-0.604-3.522,0.839-5,0.875-7.881c0.534,0.049,1.037,0.13,0.876,0.875
		C9.346,126.13,9.346,127.004,9.346,127.879z"/>
	<path fill-rule="evenodd" clip-rule="evenodd" fill="#111224" d="M9.346,127.879c1.655,0.198,1.933-0.986,3.503-0.875
		c0,0.583,0,1.167,0,1.752c0,0.582,0,1.167,0,1.752c-0.537,0.255-3.371,2.176-3.503,0C9.346,129.631,9.346,128.756,9.346,127.879z"
		/>
	<path fill-rule="evenodd" clip-rule="evenodd" fill="#111224" d="M24.232,120.875c5.142,1.199,3.171,16.819-3.503,11.384
		c0.249-3.547,1.503-6.088,1.752-9.633C22.666,121.642,23.453,121.264,24.232,120.875z"/>
	<path fill-rule="evenodd" clip-rule="evenodd" fill="#111224" d="M173.978,129.631c0.112,1.573-0.87,2.051-2.628,1.751
		c-0.148-1.31,0.313-3.232-0.876-3.503c0-0.585,0-1.167,0-1.749c0.293,0,0.584,0,0.876,0c0.149-1.313-0.313-3.233,0.876-3.504
		c-0.244,1.996,0.211,3.29,1.752,3.504C173.978,127.294,173.978,128.464,173.978,129.631z"/>
	<path fill-rule="evenodd" clip-rule="evenodd" fill="#111224" d="M37.368,121.75c0,4.086,0,8.174,0,12.262c-2.044,0-4.086,0-6.13,0
		c0.673-3.301-1.069-4.187-0.876-7.007c0.293,0,0.583,0,0.876,0C31.458,117.211,36.39,121.466,37.368,121.75z"/>
	<path fill-rule="evenodd" clip-rule="evenodd" fill="#1F0B05" d="M145.954,133.134c0-1.167,0-2.336,0-3.503
		c1.021,0.147,0.951,1.385,0.876,2.628c2.522-0.105,5.732,0.478,7.005-0.877c0,0.585,0,1.167,0,1.752
		C151.209,133.134,148.582,133.134,145.954,133.134z"/>
	<path fill-rule="evenodd" clip-rule="evenodd" fill="#1F0B05" d="M49.628,126.13c0,3.208,0,6.419,0,9.63c-2.045,0-4.086,0-6.13,0
		c0.885-1.448,3.719-0.949,5.254-1.749C49.294,131.633,47.641,127.06,49.628,126.13z"/>
	<path fill-rule="evenodd" clip-rule="evenodd" fill="#6D3720" d="M88.159,134.886c1.157,0.011,0.8,1.534,1.75,1.751
		c4.017-2.035,5.825,0.933,8.758-0.877c0,0.585,0,1.168,0,1.752c-3.503,0-7.006,0-10.508,0
		C88.159,136.637,88.159,135.76,88.159,134.886z"/>
	<path fill-rule="evenodd" clip-rule="evenodd" fill="#934B23" d="M104.796,136.637c3.211,0,6.424,0,9.633,0
		c0,0.291,0,0.583,0,0.875C111.48,136.958,106.295,138.64,104.796,136.637z"/>
	<path fill-rule="evenodd" clip-rule="evenodd" fill="#C88E40" d="M51.379,138.389c1.814-0.522,5.753,1.081,6.13-0.877
		c2.094-0.531,6.354,1.102,7.006-0.875c3.018,1.695-3.349,1.221-3.503,2.627C58.063,138.71,52.878,140.391,51.379,138.389z"/>
	<path fill-rule="evenodd" clip-rule="evenodd" fill="#D9A762" d="M96.04,139.264c6.13,0,12.26,0,18.389,0
		c-4.39,2.03-12.542,0.301-18.389,0.877C96.04,139.848,96.04,139.556,96.04,139.264z"/>
	<path fill-rule="evenodd" clip-rule="evenodd" fill="#D9A762" d="M69.769,139.264c4.684,0.569,11.657-1.149,14.887,0.877
		C79.973,139.57,72.997,141.291,69.769,139.264z"/>
	<path fill-rule="evenodd" clip-rule="evenodd" fill="#6D3720" d="M71.521,135.76c3.987,1.035,5.798,0.416,9.632,0
		c-0.16,0.745,0.343,0.827,0.876,0.877c-1.786,2.009-7.272,0.317-10.508,0.875C70.248,137.125,71.609,136.743,71.521,135.76z"/>
	<path fill-rule="evenodd" clip-rule="evenodd" fill="#35332B" d="M81.152,120.875c0.853,0.023,0.679,1.072,0.876,1.751
		c0,3.209,0,6.42,0,9.633c0,1.46,0,2.917,0,4.378c-0.533-0.05-1.036-0.132-0.876-0.877c0-2.041,0-4.085,0-6.129
		C81.152,126.712,81.152,123.793,81.152,120.875z"/>
	<path fill-rule="evenodd" clip-rule="evenodd" fill="#92704C" d="M54.007,136.637c3.21,0,6.422,0,9.633,0
		c0.196-0.679,0.022-1.727,0.875-1.751c0,0.582,0,1.167,0,1.751c-0.652,1.977-4.912,0.344-7.006,0.875
		C56.199,137.363,54.276,137.827,54.007,136.637z"/>
	<path fill-rule="evenodd" clip-rule="evenodd" fill="#111224" d="M40.87,120.875c1.516-3.365,6.332-6.341,8.758-1.752
		c-0.111,1.569,1.072,1.846,0.875,3.503c-1.188,0.271-0.727,2.191-0.875,3.504c-1.987,0.93-0.334,5.503-0.876,7.881
		c-1.535,0.8-4.369,0.301-5.254,1.749c-1.168,0-2.334,0-3.504,0c0-1.749,0-3.501,0-5.252c-0.142-1.018,0.194-1.559,0.876-1.752
		c0.403,7.33,2.155-6.459,0-7.007C40.87,121.458,40.87,121.166,40.87,120.875z"/>
</g>
</svg>
