<?xml version="1.0" encoding="utf-8"?>
<!-- Generator: Adobe Illustrator 14.0.0, SVG Export Plug-In . SVG Version: 6.00 Build 43363)  -->
<!DOCTYPE svg PUBLIC "-//W3C//DTD SVG 1.1//EN" "http://www.w3.org/Graphics/SVG/1.1/DTD/svg11.dtd">
<svg version="1.1" id="Layer_1" xmlns="http://www.w3.org/2000/svg" xmlns:xlink="http://www.w3.org/1999/xlink" x="0px" y="0px"
	 width="183.507px" height="183.506px" viewBox="0 0 183.507 183.506" enable-background="new 0 0 183.507 183.506"
	 xml:space="preserve">
<g>
	<path fill-rule="evenodd" clip-rule="evenodd" fill="#AF875F" d="M109.049,89.004c0,2.592,0,5.188,0,7.781
		C107.761,95.948,107.761,89.842,109.049,89.004z"/>
	<path fill-rule="evenodd" clip-rule="evenodd" fill="#F1EFEA" d="M63.912,146.592c14.268,0,28.534,0,42.802,0
		C94.26,147.889,76.366,147.889,63.912,146.592z"/>
	<path fill-rule="evenodd" clip-rule="evenodd" fill="#1F0B05" d="M91.928,43.089c3.813,1.997-1.193,5.859-2.335,7.782
		c1.195,4.771,4.253,7.679,5.448,12.451c-2.54-2.129-4.066-5.273-6.226-7.781c-6.716,0.749-10.589-1.346-14.786-3.113
		C76.88,46.2,87.208,47.448,91.928,43.089z"/>
	<path fill-rule="evenodd" clip-rule="evenodd" fill="#1F0B05" d="M98.932,50.093c-2.307-1.611,1.109-4.017,2.335-4.669
		C101.254,47.746,99.243,48.07,98.932,50.093z"/>
	<path fill-rule="evenodd" clip-rule="evenodd" fill="#D9A762" d="M28.893,101.456c1.09-3.176,2.29-12.471-2.335-12.451
		c3.475-10.339-4.275-23.047,3.113-28.794c6.393-1.205,15.417-3.105,19.455,1.557c-2.212,11.487,9.87,14.184,11.673,24.125
		c-2.442,0.863-2.056,0.363-3.891-0.779c0.667,2.482-1.225,2.406-1.557,3.893c1.937,0.119,2.409-1.225,3.892-1.557
		c1.383,3.506,3.391,7.082,1.556,11.674c-0.5,3.131,1.013,8.273-0.777,10.115c-2.446-0.148-3.742-1.447-3.892-3.891
		C47.515,111.846,38.402,101.536,28.893,101.456z M45.235,64.879c-4.036,1.412-8.128,2.769-9.339,7.004
		c3.371,1.867,8.185-1.615,10.117,2.335C44.577,71.857,41.97,67.43,45.235,64.879z"/>
	<path fill-rule="evenodd" clip-rule="evenodd" fill="#92704C" d="M62.355,123.245c0.537-7.244,4.029-11.535,6.226-17.119
		c4.766,3.016,10.021,5.541,14.008,9.338c6.591-0.367,11.696,0.756,13.23,5.447c1.771-0.564,3.976-0.695,5.447-1.557
		c2.407,9.264,5.672,17.672,7.782,27.238c-0.778,0-1.557,0-2.335,0c-14.268,0-28.534,0-42.802,0
		c0.582-5.252-1.252-8.086-0.778-13.23C62.634,130.229,64.146,125.086,62.355,123.245z"/>
	<path fill-rule="evenodd" clip-rule="evenodd" fill="#1F0B05" d="M138.621,71.883c-0.533-3.386,1.398-4.308,3.113-5.447
		c-2.95,1.854-2.926,6.75,0.778,7.782C141.541,76.125,139.459,72.675,138.621,71.883z"/>
	<path fill-rule="evenodd" clip-rule="evenodd" fill="#6D3720" d="M59.243,87.448c-1.482,0.332-1.955,1.676-3.892,1.557
		c0.332-1.486,2.224-1.41,1.557-3.893c1.835,1.143,1.448,1.643,3.891,0.779C60.454,86.584,60.115,87.282,59.243,87.448z"/>
	<path fill-rule="evenodd" clip-rule="evenodd" fill="#1F0B05" d="M147.182,120.133c2.335,0,4.67,0,7.004,0
		c-0.746,1.59-1.59,3.078-2.334,4.668c-2.63-0.316,2.069-3.018-1.557-2.334c0.131-0.908,1.229-0.846,2.334-0.779
		C152.523,119.459,147.287,122.36,147.182,120.133z"/>
	<path fill-rule="evenodd" clip-rule="evenodd" fill="#1F0B05" d="M145.625,133.362c0.259,0,0.519,0,0.778,0
		c-0.175-0.604-0.022-1.535-0.778-1.557c0.436-2.254,1.213,1.193,2.335,0.779c-0.172,0.605-0.652,0.904-1.557,0.777
		c0.229,1.588,2.105,1.525,2.335,3.113C147.582,135.555,145.261,135.801,145.625,133.362z"/>
	<path fill-rule="evenodd" clip-rule="evenodd" fill="#1F0B05" d="M135.508,127.137c-0.079-0.875,1.131-1.213,0-1.557
		c4.942,1.203,9.625,4.002,1.557,0.777c-0.394-0.158-0.983,0.271-0.778,0.779C136.026,127.137,135.768,127.137,135.508,127.137z"/>
	<path fill-rule="evenodd" clip-rule="evenodd" fill="#1F0B05" d="M128.504,123.245c1.224-1.172,5.274,1.432,6.226,3.113
		C131.789,126.186,130.951,123.911,128.504,123.245z"/>
	<path fill-rule="evenodd" clip-rule="evenodd" fill="#1F0B05" d="M126.169,111.573c0.193,1.443-0.176,6.922-1.556,7.781
		C123.935,115.561,125.677,114.192,126.169,111.573z"/>
	<path fill-rule="evenodd" clip-rule="evenodd" fill="#1F0B05" d="M28.893,101.456c9.51,0.08,18.622,10.391,27.237,3.891
		c0.149,2.443,1.445,3.742,3.892,3.891c0.146,0.629,0.781,0.775,0.777,1.557c-5.611,0.355-7.309,4.625-9.338,8.561
		c-11.006-0.668-13.739-9.607-24.903-10.117C28.265,107.571,29.523,105.459,28.893,101.456z"/>
	<path fill-rule="evenodd" clip-rule="evenodd" fill="#D9A762" d="M26.558,109.237c11.164,0.51,13.897,9.449,24.903,10.117
		c1.467,9.947,7.861,14.965,7.004,27.238c-13.748,0-27.498,0-41.246,0C19.81,133.618,19.193,117.438,26.558,109.237z"/>
	<path fill-rule="evenodd" clip-rule="evenodd" fill="#1F0B05" d="M70.138,79.665c0-1.038,0-2.076,0-3.112
		c2.604,3.622,2.521,9.93,9.339,9.338c1.608-7.325-2.89-15.263-3.892-22.569c6.897,7.735,11.283,22.278,5.448,34.243
		c5.309,7.586,19.496,8.027,28.794,9.338c0,0.258,0,0.518,0,0.777c0.507,3.037-2.96-0.396-5.448,0.779
		c-1.686,2.68-4.891,7.266-3.112,10.895c-1.472,0.861-3.677,0.992-5.447,1.557c-1.534-4.691-6.64-5.814-13.23-5.447
		c-3.986-3.797-9.242-6.322-14.008-9.338c-0.203-2.279,1.761-2.393,1.557-4.67c1.295-3.65,1.295-12.695,0-16.344
		C70.138,83.297,70.138,81.48,70.138,79.665z"/>
	<path fill-rule="evenodd" clip-rule="evenodd" fill="#1F0B05" d="M46.014,74.218c-1.933-3.95-6.746-0.468-10.117-2.335
		c1.211-4.235,5.303-5.592,9.339-7.004C41.97,67.43,44.577,71.857,46.014,74.218z"/>
	<path fill-rule="evenodd" clip-rule="evenodd" fill="#666A62" d="M70.138,85.112c1.295,3.648,1.295,12.693,0,16.344
		C70.138,96.008,70.138,90.561,70.138,85.112z"/>
	<path fill-rule="evenodd" clip-rule="evenodd" fill="#111224" d="M157.299,99.122c-1.764-2.131-5.858-1.926-8.561-3.113
		c1.568-5.434,8.277-5.73,14.786-6.227C164.923,92.909,154.36,94.403,157.299,99.122z"/>
	<path fill-rule="evenodd" clip-rule="evenodd" fill="#111224" d="M124.613,96.008c0.907-0.131,0.845-1.232,0.777-2.336
		c2.438,0.934,3.591,3.154,5.448,4.67c-0.145,1.152-1.881,0.713-3.113,0.779c2.651,10.838,9.24,17.736,19.456,21.012
		c0.105,2.227,5.342-0.674,5.447,1.555c-1.104-0.066-2.203-0.129-2.334,0.779c3.626-0.684-1.073,2.018,1.557,2.334
		c-3.452,3.014-0.123,8.322,0.777,11.674c0,0.518,0,1.037,0,1.557c-1.933,0.117-3.229-0.402-3.891-1.557
		c-0.229-1.588-2.106-1.525-2.335-3.113c0.904,0.127,1.385-0.172,1.557-0.777c-1.122,0.414-1.899-3.033-2.335-0.779
		c0.756,0.021,0.604,0.953,0.778,1.557c-0.26,0-0.52,0-0.778,0c-2.714-2.475-6.499-3.879-9.339-6.225
		c-0.205-0.508,0.385-0.938,0.778-0.779c8.068,3.225,3.386,0.426-1.557-0.777c1.131,0.344-0.079,0.682,0,1.557
		c-0.663,0.143-0.734-0.305-0.778-0.779c-0.951-1.682-5.002-4.285-6.226-3.113c-1.115-1.219-4.057-0.611-3.891-3.111
		c0-0.262,0-0.521,0-0.779c1.38-0.859,1.749-6.338,1.556-7.781C126.471,105.565,124.466,101.862,124.613,96.008z"/>
	<path fill-rule="evenodd" clip-rule="evenodd" fill="#1F0B05" d="M158.077,102.233c-0.108,1.449-0.513,2.602-1.557,3.113
		c-1.167-0.908-1.903-2.248-3.892-2.334C152.964,101.272,156.464,102.696,158.077,102.233z"/>
	<path fill-rule="evenodd" clip-rule="evenodd" fill="#EAD3B9" d="M60.799,110.793c0.004-0.781-0.631-0.928-0.777-1.557
		c1.79-1.842,0.277-6.984,0.777-10.115C62.091,101.225,62.091,108.688,60.799,110.793z"/>
	<path fill-rule="evenodd" clip-rule="evenodd" fill="#D9A762" d="M152.629,136.475c1.182,3.486,3.067,6.271,3.892,10.117
		c-13.489,0-26.979,0-40.468,0c-3.144-12.002,1.214-22.436,8.561-26.459c-0.166,2.5,2.775,1.893,3.891,3.111
		c2.447,0.666,3.285,2.941,6.226,3.113c0.044,0.475,0.115,0.922,0.778,0.779c0.26,0,0.519,0,0.778,0
		c2.84,2.346,6.625,3.75,9.339,6.225c-0.364,2.439,1.957,2.193,3.113,3.113c0.661,1.154,1.958,1.674,3.891,1.557
		C152.629,137.512,152.629,136.993,152.629,136.475z"/>
	<path fill-rule="evenodd" clip-rule="evenodd" fill="#B0B1B1" d="M62.355,123.245c1.791,1.842,0.278,6.984,0.778,10.117
		C61.344,131.52,62.855,126.375,62.355,123.245z"/>
	<path fill-rule="evenodd" clip-rule="evenodd" fill="#92704C" d="M70.138,79.665c-0.48-14.122-8.41-27.087-4.669-42.023
		c9.384-1.511,20.156-1.634,30.351-2.335c1.867,3.32,4.193,6.182,5.447,10.117c-1.226,0.652-4.642,3.058-2.335,4.669
		c-0.08,13.601,14.552,16.536,13.229,28.794c-0.631,0.147-0.774,0.78-1.556,0.778c-0.56-2.047-4.604-2.95-2.335-5.447
		c-4.214,1.459-6.189,2.911-11.673,1.557c3.439,1.748,6.914,3.461,10.116,5.447c0.55,2.822,3.414,3.33,2.335,7.783
		c-1.288,0.838-1.288,6.943,0,7.781c-0.593,4.225,0.96,6.303,0.778,10.117c-9.298-1.311-23.485-1.752-28.794-9.338
		c5.835-11.965,1.449-26.507-5.448-34.243c1.002,7.306,5.5,15.244,3.892,22.569c-6.818,0.592-6.735-5.716-9.339-9.338
		C70.138,77.589,70.138,78.627,70.138,79.665z M74.029,52.428c4.197,1.768,8.07,3.862,14.786,3.113
		c2.159,2.508,3.686,5.652,6.226,7.781c-1.195-4.772-4.253-7.68-5.448-12.451c1.142-1.923,6.148-5.785,2.335-7.782
		C87.208,47.448,76.88,46.2,74.029,52.428z"/>
	<path fill-rule="evenodd" clip-rule="evenodd" fill="#D9A762" d="M124.613,96.008c-1.452-12.559-2.897-25.12-3.892-38.133
		c10.268-4.988,33.237-2.896,25.682,11.674c2.881,9.569,10.313,14.588,17.121,20.233c-6.509,0.496-13.218,0.793-14.786,6.227
		c2.702,1.188,6.797,0.982,8.561,3.113c0.604,0.691,0.836,1.756,0.778,3.111c-1.613,0.463-5.113-0.961-5.448,0.779
		c1.988,0.086,2.725,1.426,3.892,2.334c-0.686,6.131,1.465,9.428,2.335,14.008c-1.37,0.447-4.574-0.941-4.67,0.779
		c-2.334,0-4.669,0-7.004,0c-10.216-3.275-16.805-10.174-19.456-21.012c1.232-0.066,2.969,0.373,3.113-0.779
		c-1.857-1.516-3.01-3.736-5.448-4.67C125.458,94.776,125.521,95.877,124.613,96.008z M141.734,66.436
		c0.978-0.319,1.59-1.005,1.557-2.335c-6.677-0.191-8.824,4.146-12.452,7.004c1.364,2.032,5.425,1.835,7.782,0.778
		c0.838,0.792,2.92,4.242,3.892,2.335C138.809,73.186,138.784,68.29,141.734,66.436z"/>
	<path fill-rule="evenodd" clip-rule="evenodd" fill="#1F0B05" d="M106.714,81.222c-3.202-1.986-6.677-3.699-10.116-5.447
		c5.483,1.354,7.459-0.098,11.673-1.557c-2.27,2.497,1.775,3.4,2.335,5.447c0,0.259,0,0.519,0,0.778
		C108.405,79.801,108.59,81.539,106.714,81.222z"/>
	<path fill-rule="evenodd" clip-rule="evenodd" fill="#111224" d="M138.621,71.883c-2.357,1.057-6.418,1.254-7.782-0.778
		c3.628-2.857,5.775-7.195,12.452-7.004c0.033,1.33-0.579,2.016-1.557,2.335C140.02,67.575,138.088,68.497,138.621,71.883z"/>
</g>
</svg>
