<?xml version="1.0" encoding="utf-8"?>
<!-- Generator: Adobe Illustrator 14.0.0, SVG Export Plug-In . SVG Version: 6.00 Build 43363)  -->
<!DOCTYPE svg PUBLIC "-//W3C//DTD SVG 1.1//EN" "http://www.w3.org/Graphics/SVG/1.1/DTD/svg11.dtd">
<svg version="1.1" id="Layer_1" xmlns="http://www.w3.org/2000/svg" xmlns:xlink="http://www.w3.org/1999/xlink" x="0px" y="0px"
	 width="333px" height="333px" viewBox="0 0 333 333" enable-background="new 0 0 333 333" xml:space="preserve">
<g>
	<path fill-rule="evenodd" clip-rule="evenodd" fill="#DE0E0E" d="M212.487,92.641c17.159-10.938,36.344-19.851,54.338-29.955
		c-0.92,75.709-1.151,152.109-1.395,228.494c-0.928,0-1.857,0-2.786,0c-2.8-1.613-8.582-0.242-12.539-0.697
		c-2.786,0-5.573,0-8.359,0c-2.338-1.609-7.651-0.244-11.146-0.697c-0.232,0-0.465,0-0.696,0
		c-0.463-13.932,0.928-29.721-0.696-42.492c-0.117-6.938,1.916-20.586,0-29.26c1.623-10.914,0.233-24.845,0.696-36.921
		c1.158-2.573,1.158-9.965,0-12.539c0-0.232,0-0.464,0-0.696c1.16-13.471,1.16-31.811,0-45.281c-0.925-6.602,1.311-11.323,0-15.326
		C227.438,99.743,215.371,99.428,212.487,92.641z"/>
	<path fill-rule="evenodd" clip-rule="evenodd" fill="#F16B6B" d="M266.825,62.686c0.915,0.247,1.095,1.227,2.09,1.394
		c2.029,2.614,4.353,4.936,6.966,6.966c4.639,15.063,0.862,46.377,2.09,67.573c0,0.232,0,0.464,0,0.696
		c-0.728,5.038-0.572,8.053,0,12.54c-0.843,0.147-0.429,0.772,0,1.394c0,12.074,0,24.148,0,36.225c0,0.232,0,0.464,0,0.695
		c0.03,13.27-0.042,30.143,0,41.102c0.375,6.951-0.985,10.049,0,13.236c-0.455,15.334,0.916,32.496-0.697,46.674
		c-3.947,0-7.895,0-11.843,0C265.674,214.795,265.905,138.396,266.825,62.686z"/>
	<path fill-rule="evenodd" clip-rule="evenodd" fill="#2A2424" d="M203.432,87.068c3.128,1.748,4.955,4.797,9.056,5.573
		c2.884,6.787,14.951,7.102,17.416,14.629c1.311,4.002-0.925,8.724,0,15.326c-0.231,0-0.465,0-0.696,0
		c-1.806-0.75-2.59-2.519-4.877-2.787c-2.257-1.459-3.444-3.986-6.966-4.18c-1.03-1.757-2.694-2.879-4.877-3.483
		c-0.549-1.541-2.436-1.744-3.483-2.787c-1.811-0.278-2.1-2.079-4.18-2.089c-0.285-0.876-0.897-1.424-2.09-1.394
		C202.988,99.856,202.114,89.793,203.432,87.068z"/>
	<path fill-rule="evenodd" clip-rule="evenodd" fill="#BEE7EE" d="M195.071,158.124c-0.464,0-0.928,0-1.393,0
		c0-15.79,0-31.58,0-47.371c3.103-1.077,4.834-3.525,8.359-4.18c0,16.255,0,32.509,0,48.765
		C199.861,156.411,197.021,156.822,195.071,158.124z"/>
	<path fill-rule="evenodd" clip-rule="evenodd" fill="#BEE7EE" d="M222.24,118.416c-0.918,14.872,1.845,33.425-1.394,45.978
		c-4.84-4.313-2.786-14.239-2.786-22.292c0-8.479,0-17.133,0-24.382c0-0.464,0-0.929,0-1.394
		C220.14,116.337,220.429,118.138,222.24,118.416z"/>
	<path fill-rule="evenodd" clip-rule="evenodd" fill="#BEE7EE" d="M170.69,166.483c0-14.629,0-29.258,0-43.887
		c2.901-0.35,4.064-2.437,6.966-2.787c0,14.862,0,29.723,0,44.584C175.068,164.823,173.278,166.053,170.69,166.483z"/>
	<path fill-rule="evenodd" clip-rule="evenodd" fill="#F16B6B" d="M229.207,122.596c0.231,0,0.465,0,0.696,0
		c1.16,13.47,1.16,31.81,0,45.281C229.448,153.006,230.818,136.31,229.207,122.596z"/>
	<path fill-rule="evenodd" clip-rule="evenodd" fill="#DE0E0E" d="M277.971,138.619c16.052-4.615,31.203-10.13,46.674-15.326
		c0.699,21.145,1.086,51.511,1.394,80.809c0.304,29.025,0.324,62.5-0.697,84.291c-1.393,0-2.786,0-4.18,0
		c-1.877-1.605-6.718-0.246-9.753-0.697c-1.857,0-3.715,0-5.572,0c-1.42-1.598-5.786-0.252-8.36-0.695
		c-1.615,0.223-2.675-0.113-3.482-0.697c0-1.393,0-2.785,0-4.18c1.624-11.611,0.233-26.238,0.696-39.01c0-2.787,0-5.574,0-8.361
		c-0.057-12.158,0.077-27.75,0-37.617c0-0.231,0-0.464,0-0.695c0.435-2.303-0.296-8.817,0-13.237c1.16-4.886,1.16-14.62,0-19.505
		c0-0.232,0-0.465,0-0.697c0-3.715,0-7.43,0-11.146c-4.727-5.027-11.271-8.233-16.719-12.54
		C277.971,139.083,277.971,138.851,277.971,138.619z"/>
	<path fill-rule="evenodd" clip-rule="evenodd" fill="#BEE7EE" d="M151.184,173.449c0-13.468,0-26.936,0-40.404
		c1.525-1.03,3.751-1.359,4.876-2.787c1.625,12.541,0.233,28.097,0.697,41.798C154.249,171.871,153.4,173.344,151.184,173.449z"/>
	<path fill-rule="evenodd" clip-rule="evenodd" fill="#BEE7EE" d="M150.488,174.146c-2.773-0.451-2.801,1.844-5.573,1.393
		c0-13.235,0-26.471,0-39.707c2.458-0.097,3.115-1.994,5.573-2.09C150.488,147.21,150.488,160.678,150.488,174.146z"/>
	<path fill-rule="evenodd" clip-rule="evenodd" fill="#BEE7EE" d="M330.914,137.922c1.621,6.273,0.235,15.555,0.697,22.988
		C329.99,154.637,331.376,145.355,330.914,137.922z"/>
	<path fill-rule="evenodd" clip-rule="evenodd" fill="#BEE7EE" d="M133.769,179.72c0-6.077,0-14.47,0-22.292
		c0-6.894-2.451-16.819,4.877-17.416c0,12.075,0,24.15,0,36.225C139.116,179.492,135.661,178.825,133.769,179.72z"/>
	<path fill-rule="evenodd" clip-rule="evenodd" fill="#BEE7EE" d="M102.42,191.563c-2.01-8.091-3.028-27.146,0.697-34.135
		C103.871,167.008,105.129,183.121,102.42,191.563z"/>
	<path fill-rule="evenodd" clip-rule="evenodd" fill="#BEE7EE" d="M98.241,192.955c-2.476-3.342-1.393-11.6-1.393-18.111
		c0-5.985-1.97-14.709,3.483-15.326C99.011,165.313,102.538,184.409,98.241,192.955z"/>
	<path fill-rule="evenodd" clip-rule="evenodd" fill="#BEE7EE" d="M192.981,213.156c-2.785,0.002-4.181,1.393-6.966,1.395
		c0-17.647,0-35.296,0-52.943c2.517-0.271,4.648-0.925,6.271-2.09C193.91,176.005,192.518,195.509,192.981,213.156z"/>
	<path fill-rule="evenodd" clip-rule="evenodd" fill="#BEE7EE" d="M291.206,195.045c-3.692-2.871-2.09-9.439-2.09-15.325
		c0-5.831,0-12.318,0-17.416c0-0.464,0-0.929,0-1.394c1.191-0.03,1.805,0.518,2.09,1.394
		C291.206,173.217,291.206,184.131,291.206,195.045z"/>
	<path fill-rule="evenodd" clip-rule="evenodd" fill="#BEE7EE" d="M92.668,194.348c0-5.047,0-11.848,0-18.111
		c0-5.688-2.077-13.638,3.483-14.629c0,10.682,0,21.363,0,32.045C94.182,193.076,94.346,194.634,92.668,194.348z"/>
	<path fill-rule="evenodd" clip-rule="evenodd" fill="#F16B6B" d="M294.689,183.202c0-6.501,0-13.003,0-19.505
		C295.85,168.582,295.85,178.316,294.689,183.202z"/>
	<path fill-rule="evenodd" clip-rule="evenodd" fill="#BEE7EE" d="M83.612,197.832c-2.364-7.062-2.25-23.573,0-30.652
		C85.958,174.225,85.884,190.775,83.612,197.832z"/>
	<path fill-rule="evenodd" clip-rule="evenodd" fill="#BEE7EE" d="M169.993,167.877c-0.461,10.441,0.601,28.979,0,41.797
		c-0.177,3.766,1.486,9.889-4.18,9.057c-3.239-13.48-0.473-32.965-1.393-48.764C166.107,169.1,167.805,168.242,169.993,167.877z"/>
	<path fill-rule="evenodd" clip-rule="evenodd" fill="#F16B6B" d="M229.903,168.573c1.158,2.574,1.158,9.966,0,12.539
		C229.903,176.934,229.903,172.754,229.903,168.573z"/>
	<path fill-rule="evenodd" clip-rule="evenodd" fill="#BEE7EE" d="M73.163,202.012c-2.046-6.744-2.974-24.298,0.696-29.955
		C74.627,180.26,75.85,194.943,73.163,202.012z"/>
	<path fill-rule="evenodd" clip-rule="evenodd" fill="#BEE7EE" d="M156.758,172.754c-0.464,15.79,0.927,33.436-0.697,48.066
		c-2.198-0.342-2.46,1.256-4.876,0.697c0-15.791,0-31.58,0-47.371C153.693,174.332,154.542,172.859,156.758,172.754z"/>
	<path fill-rule="evenodd" clip-rule="evenodd" fill="#BEE7EE" d="M135.162,225c-3.237-12.088-0.476-30.176-1.394-44.584
		c1.784-0.073,3.321-0.395,4.18-1.393c0.592-0.129,0.657,0.271,0.697,0.696c0,7.107,0,15.996,0,24.382
		C138.646,211.969,141.155,222.041,135.162,225z"/>
	<path fill-rule="evenodd" clip-rule="evenodd" fill="#BEE7EE" d="M115.656,228.484c-2.771-10.701-1.404-29.246-0.696-41.102
		c0.81,0.112,1.24-0.154,1.393-0.697c1.185-0.256,1.314,0.543,1.393,1.393c0,6.428,0,14.095,0,21.596
		C117.746,216.391,119.451,224.494,115.656,228.484z"/>
	<path fill-rule="evenodd" clip-rule="evenodd" fill="#BEE7EE" d="M38.331,213.854c-0.62,0.43-1.246,0.842-1.393,0
		c0-7.662,0-15.324,0-22.988C40.139,195.792,37.439,206.619,38.331,213.854z"/>
	<path fill-rule="evenodd" clip-rule="evenodd" fill="#BEE7EE" d="M36.241,215.248c-2.772-4.951-1.385-17.574-0.696-23.686
		C37.166,198.068,35.779,207.582,36.241,215.248z"/>
	<path fill-rule="evenodd" clip-rule="evenodd" fill="#BEE7EE" d="M96.151,194.348c0,4.885,0,13.756,0,20.9
		c0,6.27,1.664,14.172-2.09,17.414c-2.781-9.551-1.39-26.903-0.697-37.617C94.614,195.134,94.834,194.193,96.151,194.348z"/>
	<path fill-rule="evenodd" clip-rule="evenodd" fill="#BEE7EE" d="M27.881,218.033c-0.729-5.613-2.043-17.827,0.697-22.291
		C28.152,202.979,29.456,211.945,27.881,218.033z"/>
	<path fill-rule="evenodd" clip-rule="evenodd" fill="#BEE7EE" d="M87.095,197.135c2.34,9.113,2.286,27.801,0,36.922
		C84.743,224.932,84.825,206.271,87.095,197.135z"/>
	<path fill-rule="evenodd" clip-rule="evenodd" fill="#BEE7EE" d="M23.702,208.979c0-3.716,0-7.432,0-11.146
		c1.078,3.457,0.914,11.449,0.697,16.021C24.002,222.203,23.611,217.158,23.702,208.979z"/>
	<path fill-rule="evenodd" clip-rule="evenodd" fill="#BEE7EE" d="M23.005,219.428c-1.608-2.109-0.246-7.186-0.697-10.449
		c0-3.484,0-6.967,0-10.449C23.929,204.105,22.544,212.689,23.005,219.428z"/>
	<path fill-rule="evenodd" clip-rule="evenodd" fill="#BEE7EE" d="M83.612,198.529c2.353,8.894,2.268,27.316,0,36.223
		C81.271,225.871,81.327,207.419,83.612,198.529z"/>
	<path fill-rule="evenodd" clip-rule="evenodd" fill="#BEE7EE" d="M21.612,220.123c-2.308-3.807-2.308-17.092,0-20.898
		C21.612,206.191,21.612,213.156,21.612,220.123z"/>
	<path fill-rule="evenodd" clip-rule="evenodd" fill="#BEE7EE" d="M19.522,220.82c-1.607-2.107-0.246-7.186-0.697-10.449
		c0-3.483,0-6.966,0-10.449C20.446,205.5,19.061,214.082,19.522,220.82z"/>
	<path fill-rule="evenodd" clip-rule="evenodd" fill="#FFFFFF" d="M29.274,199.922c1.158,2.113,1.158,9.031,0,11.145
		C29.274,207.353,29.274,203.637,29.274,199.922z"/>
	<path fill-rule="evenodd" clip-rule="evenodd" fill="#BEE7EE" d="M15.342,202.012c-0.702,1.599,3.105,17.793,0.697,20.203
		C17.832,220.42,13.267,205.756,15.342,202.012z"/>
	<path fill-rule="evenodd" clip-rule="evenodd" fill="#BEE7EE" d="M14.646,222.91c-1.62-5.346-0.236-13.697-0.697-20.202
		C15.569,208.055,14.185,216.404,14.646,222.91z"/>
	<path fill-rule="evenodd" clip-rule="evenodd" fill="#BEE7EE" d="M13.252,222.91c-1.605-1.877-0.248-6.719-0.697-9.754
		c0-3.25,0-6.501,0-9.751C14.175,208.519,12.792,216.637,13.252,222.91z"/>
	<path fill-rule="evenodd" clip-rule="evenodd" fill="#BEE7EE" d="M71.072,203.405c-0.463,10.915,0.927,23.683-0.696,33.437
		c-3.226-8.152-0.484-22.271-1.394-32.74C69.542,203.732,70.113,203.375,71.072,203.405z"/>
	<path fill-rule="evenodd" clip-rule="evenodd" fill="#BEE7EE" d="M11.163,213.854c0-3.25,0-6.501,0-9.752
		c1.071,3.226,0.928,10.559,0.696,14.629C11.421,226.43,11.07,221.125,11.163,213.854z"/>
	<path fill-rule="evenodd" clip-rule="evenodd" fill="#BEE7EE" d="M10.466,224.305c-1.605-1.879-0.247-6.721-0.697-9.754
		c0-3.252,0-6.502,0-9.753C11.389,209.912,10.005,218.029,10.466,224.305z"/>
	<path fill-rule="evenodd" clip-rule="evenodd" fill="#BEE7EE" d="M63.41,205.494c0.696,0,1.393,0,2.09,0c0,5.057,0,11.568,0,17.416
		c0,5.814,1.666,12.555-2.09,15.326C63.41,227.322,63.41,216.408,63.41,205.494z"/>
	<path fill-rule="evenodd" clip-rule="evenodd" fill="#BEE7EE" d="M331.611,205.494c1.609,2.339,0.244,7.652,0.695,11.146
		C330.697,214.303,332.063,208.99,331.611,205.494z"/>
	<path fill-rule="evenodd" clip-rule="evenodd" fill="#BEE7EE" d="M8.376,224.305c-0.172,0.875-1.385,0.701-1.394,0
		c0-5.807,0-11.611,0-17.417C8.814,208.309,6.621,222.725,8.376,224.305z"/>
	<path fill-rule="evenodd" clip-rule="evenodd" fill="#BEE7EE" d="M4.893,216.641c0-3.018,0-6.037,0-9.057
		c1.063,2.951,0.937,10.428,0.697,13.934C5.109,228.518,4.793,223.035,4.893,216.641z"/>
	<path fill-rule="evenodd" clip-rule="evenodd" fill="#BEE7EE" d="M4.196,226.395c-1.603-1.648-0.25-6.254-0.697-9.057
		c0-3.02,0-6.039,0-9.057C5.119,212.932,3.737,220.584,4.196,226.395z"/>
	<path fill-rule="evenodd" clip-rule="evenodd" fill="#BEE7EE" d="M50.173,210.371c2.315,6.783,2.315,23.172,0,29.955
		C50.173,230.342,50.173,220.355,50.173,210.371z"/>
	<path fill-rule="evenodd" clip-rule="evenodd" fill="#BEE7EE" d="M36.938,215.248c2.776,6.324,1.387,20.379,0.696,27.865
		C36.011,235.215,37.4,224.305,36.938,215.248z"/>
	<path fill-rule="evenodd" clip-rule="evenodd" fill="#BEE7EE" d="M34.848,215.943c2.313,5.863,2.313,21.307,0,27.17
		C34.848,234.057,34.848,225,34.848,215.943z"/>
	<path fill-rule="evenodd" clip-rule="evenodd" fill="#BEE7EE" d="M27.185,218.73c3.21,5.846,0.494,17.619,1.393,25.775
		C25.367,238.66,28.084,226.887,27.185,218.73z"/>
	<path fill-rule="evenodd" clip-rule="evenodd" fill="#BEE7EE" d="M25.095,219.428c3.21,5.846,0.494,17.617,1.393,25.775
		C23.341,239.293,25.948,227.631,25.095,219.428z"/>
	<path fill-rule="evenodd" clip-rule="evenodd" fill="#BEE7EE" d="M23.702,220.123c1.613,2.801,0.242,8.582,0.697,12.539
		c0,4.18,0,8.359,0,12.541C22.776,238.232,24.164,228.254,23.702,220.123z"/>
	<path fill-rule="evenodd" clip-rule="evenodd" fill="#BEE7EE" d="M18.825,222.215c1.611,2.566,0.243,8.115,0.697,11.842
		c0,3.947,0,7.895,0,11.842C17.9,239.393,19.287,229.879,18.825,222.215z"/>
	<path fill-rule="evenodd" clip-rule="evenodd" fill="#FFFFFF" d="M29.274,222.215c1.16,3.959,1.16,12.758,0,16.717
		C29.274,233.359,29.274,227.787,29.274,222.215z"/>
	<path fill-rule="evenodd" clip-rule="evenodd" fill="#BEE7EE" d="M15.342,223.607c1.58,3.305,0.266,15.518,0.697,22.291
		C14.459,242.594,15.773,230.381,15.342,223.607z"/>
	<path fill-rule="evenodd" clip-rule="evenodd" fill="#BEE7EE" d="M14.646,246.596c1.057-1.719-3.544-20.141-0.697-22.988
		C11.723,225.834,17.057,242.424,14.646,246.596z"/>
	<path fill-rule="evenodd" clip-rule="evenodd" fill="#BEE7EE" d="M11.163,225c1.577,3.074,0.268,15.053,0.696,21.596
		C10.282,243.52,11.591,231.543,11.163,225z"/>
	<path fill-rule="evenodd" clip-rule="evenodd" fill="#BEE7EE" d="M13.252,235.449c0,3.947,0,7.895,0,11.844
		c-1.067-3.74-0.915-12.826-0.697-17.416C12.982,220.893,13.369,227.592,13.252,235.449z"/>
	<path fill-rule="evenodd" clip-rule="evenodd" fill="#BEE7EE" d="M10.466,247.988c1.057-1.719-3.544-20.141-0.697-22.988
		C7.543,227.227,12.877,243.818,10.466,247.988z"/>
	<path fill-rule="evenodd" clip-rule="evenodd" fill="#BEE7EE" d="M6.982,226.395c1.825,3.096,0.091,14.404,0.697,20.898
		C6.105,244.445,7.41,232.707,6.982,226.395z"/>
	<path fill-rule="evenodd" clip-rule="evenodd" fill="#BEE7EE" d="M3.5,227.787c1.571,2.617,0.272,14.117,0.697,20.201
		C2.625,245.371,3.924,233.871,3.5,227.787z"/>
	<path fill-rule="evenodd" clip-rule="evenodd" fill="#BEE7EE" d="M4.893,227.09c1.621,5.811,0.236,14.627,0.697,21.596
		C3.969,242.875,5.354,234.061,4.893,227.09z"/>
	<path fill-rule="evenodd" clip-rule="evenodd" fill="#F16B6B" d="M293.993,282.123c0-13.004,0-26.008,0-39.01
		c0.231,0,0.465,0,0.696,0C294.227,255.885,295.617,270.512,293.993,282.123z"/>
	<path fill-rule="evenodd" clip-rule="evenodd" fill="#F16B6B" d="M229.903,289.785c-1.625-12.771-0.233-28.559-0.696-42.492
		C230.831,260.064,229.44,275.854,229.903,289.785z"/>
	<path fill-rule="evenodd" clip-rule="evenodd" fill="#F16B6B" d="M14.646,252.168c0.232,0,0.464,0,0.697,0
		c0.431,7.697-0.883,17.139,0.697,23.686C12.835,270.699,15.54,259.635,14.646,252.168z"/>
	<path fill-rule="evenodd" clip-rule="evenodd" fill="#DE0E0E" d="M15.342,252.168c5.437-0.328,9.421,0.797,13.932,1.395
		c0.156,0.539,0.019,1.373,0.697,1.393c0,5.805,0,11.611,0,17.416c-1.241,0.51-0.101,1.266,0,2.09
		c-0.817,0.111-0.588,1.27-0.697,2.09c-2.089,0-4.179,0-6.269,0c-3.043,0.488-3.924-1.186-6.966-0.697
		C14.459,269.307,15.773,259.865,15.342,252.168z"/>
	<path fill-rule="evenodd" clip-rule="evenodd" fill="#F16B6B" d="M30.668,252.865c-0.46,6.273,0.923,14.393-0.696,19.506
		c0-5.805,0-11.611,0-17.416C30.081,254.135,29.852,252.977,30.668,252.865z"/>
	<path fill-rule="evenodd" clip-rule="evenodd" fill="#637579" d="M42.511,253.563c-2.118-0.438-6,0.891-6.966-0.697
		C37.662,253.303,41.545,251.973,42.511,253.563z"/>
	<path fill-rule="evenodd" clip-rule="evenodd" fill="#DE0E0E" d="M66.893,254.955c2.465-0.127,10.611,0.059,13.236,2.09
		c-0.395,6.803,1.088,15.484-1.394,20.203c-4.65-0.227-6.708-0.684-11.843-1.395C65.746,270.42,65.746,260.391,66.893,254.955z"/>
	<path fill-rule="evenodd" clip-rule="evenodd" fill="#BEE7EE" d="M332.307,272.371c1.16,3.727,1.16,12.295,0,16.021
		C332.307,283.053,332.307,277.711,332.307,272.371z"/>
	<path fill-rule="evenodd" clip-rule="evenodd" fill="#2A2424" d="M29.972,274.461c0,0.697,0,1.393,0,2.09
		c-0.966,1.588-4.849,0.26-6.966,0.697c0-0.232,0-0.465,0-0.697c2.09,0,4.18,0,6.269,0C29.384,275.73,29.155,274.572,29.972,274.461
		z"/>
	<path fill-rule="evenodd" clip-rule="evenodd" fill="#F16B6B" d="M305.836,287.695c-2.574-0.443-6.94,0.902-8.36-0.695
		C300.05,287.443,304.416,286.098,305.836,287.695z"/>
	<path fill-rule="evenodd" clip-rule="evenodd" fill="#F16B6B" d="M321.161,288.393c-3.034-0.447-7.875,0.908-9.753-0.697
		C314.443,288.146,319.284,286.787,321.161,288.393z"/>
	<path fill-rule="evenodd" clip-rule="evenodd" fill="#F16B6B" d="M241.746,290.482c-3.495-0.451-8.809,0.914-11.146-0.697
		C234.095,290.238,239.408,288.873,241.746,290.482z"/>
	<path fill-rule="evenodd" clip-rule="evenodd" fill="#F16B6B" d="M262.645,291.18c-3.957-0.455-9.739,0.916-12.539-0.697
		C254.063,290.938,259.845,289.566,262.645,291.18z"/>
	<path fill-rule="evenodd" clip-rule="evenodd" fill="#637579" d="M2.106,208.979c0-2.787,0-5.573,0-8.36
		c69.639-34.854,134.682-78.024,201.325-113.55c-1.317,2.725-0.443,12.788-0.697,18.809c1.192-0.031,1.805,0.518,2.09,1.394
		c-1.949-1.119-1.646-0.804-2.09,0.696c-3.593,12.163,2.669,33.526,0,47.371c1.185,2.066,4.524,1.978,6.27,3.482
		c1.169-14.87,1.151-34.587,0-49.46c1.048,1.043,2.935,1.247,3.483,2.787c-2.645,0.823-1.375,6.456-1.394,9.752
		c-0.061,11.257,0.046,26.198,0,37.618c1.567,1.219,3.917,1.654,5.573,2.786c1.625-14.166,0.233-31.348,0.697-46.674
		c3.521,0.193,4.709,2.721,6.966,4.18c-1.624,13.469-0.233,29.955-0.696,44.584c1.055,2.196,4.181,2.321,6.27,3.483
		c0,0.232,0,0.464,0,0.696c-2.415-0.372-3.71-1.863-6.27-2.09c0.034,16.304-0.046,36.157,0,50.157
		c-0.989,0.059-1.973,0.115-2.09-0.697c0.976-11.352,1.056-28.013,0.696-41.797c-0.105-4.057,1.454-9.618-3.483-10.449
		c-1.624,15.791-0.232,34.598-0.696,51.551c-0.988,0.059-1.973,0.115-2.09-0.697c3.24-14.176,0.473-34.359,1.394-50.854
		c-1.137-1.65-4.09-1.484-5.573-2.787c-0.722,15.817-2.055,38.279,0.696,52.943c-0.988,0.061-1.973,0.115-2.09-0.697
		c-1.103-0.057-2.657,0.336-2.786-0.695c3.792,2.131,2.09-6.957,2.09-12.539c0-11.822,0-28.906,0-39.708
		c-1.928-1.092-3.874-2.164-6.27-2.786c-0.722,16.279-2.057,39.209,0.696,54.336c-1.125,0.197-1.199-0.658-2.09-0.697
		c0-18.111,0-36.223,0-54.336c-3.351,0.365-5.843,1.589-8.359,2.787c0,17.416,0,34.83,0,52.246c2.017,1.971,5.334-0.668,7.663-0.697
		c3.933,6.723-6.389,7.643-17.416,9.754c-57.969,11.105-127.794,22.35-181.123,30.652c-1.544,0.383-0.992-1.33-2.09-1.395
		c-0.128-0.592,0.272-0.656,0.697-0.695C4.163,237.389,2.723,221.797,2.106,208.979z M202.038,155.338c0-16.255,0-32.509,0-48.765
		c-3.525,0.655-5.257,3.103-8.359,4.18c0,15.791,0,31.581,0,47.371c0.465,0,0.929,0,1.393,0
		C197.021,156.822,199.861,156.411,202.038,155.338z M192.286,158.82c1.624-14.397,0.231-31.812,0.695-47.371
		c-2.657,0.826-4.415,2.551-6.966,3.483c0,15.326,0,30.652,0,45.977C188.279,160.389,190.327,159.649,192.286,158.82z
		 M192.286,159.518c-1.622,1.165-3.754,1.819-6.271,2.09c0,17.647,0,35.296,0,52.943c2.785-0.002,4.181-1.393,6.966-1.395
		C192.518,195.509,193.91,176.005,192.286,159.518z M185.319,161.607c0-15.326,0-30.652,0-45.978
		c-2.853,0.166-3.671,2.366-6.271,2.786c0.464,14.863-0.927,31.58,0.697,45.281C181.08,162.477,183.378,162.221,185.319,161.607z
		 M179.049,164.394c0,17.184,0,34.366,0,51.55c2.243,0.154,2.948-1.232,5.574-0.695c1.158-15.344,1.158-39.227,0-52.248
		C182.114,162.814,181.266,164.287,179.049,164.394z M4.196,247.988c-0.425-6.084,0.875-17.584-0.697-20.201
		C3.924,233.871,2.625,245.371,4.196,247.988z M5.589,248.686c-0.461-6.969,0.924-15.785-0.697-21.596
		C5.354,234.061,3.969,242.875,5.589,248.686z M3.5,208.281c0,3.018,0,6.037,0,9.057c0.447,2.803-0.906,7.408,0.697,9.057
		C3.737,220.584,5.119,212.932,3.5,208.281z M164.421,126.079c0,14.165,0,28.329,0,42.494c2.548,0.458,2.671-1.507,4.876-1.394
		c1.16-13.005,1.16-30.881,0-43.887C168.17,124.72,165.944,125.049,164.421,126.079z M164.421,169.967
		c0.919,15.799-1.847,35.283,1.393,48.764c5.666,0.832,4.003-5.291,4.18-9.057c0.601-12.818-0.461-31.355,0-41.797
		C167.805,168.242,166.107,169.1,164.421,169.967z M163.724,167.877c0-13.7,0-27.401,0-41.101c-2.599,0.42-3.417,2.62-6.269,2.787
		c0.136,32.715,0.044,57.354,0,90.561c2.868,0.547,3.575-1.068,6.269-0.695c0-16.255,0-32.51,0-48.765
		c-0.353-1.849-3.979,2.394-4.876,0C160.6,169.861,163.625,170.333,163.724,167.877z M156.758,172.057
		c-0.464-13.701,0.927-29.257-0.697-41.798c-1.125,1.428-3.352,1.756-4.876,2.787c0,13.468,0,26.936,0,40.404
		C153.4,173.344,154.249,171.871,156.758,172.057z M170.69,168.573c0,16.255,0,32.51,0,48.765c3.099,0.545,4.181-0.928,6.966-0.697
		c0.457-16.959-0.919-35.75,0.697-51.551C175.502,165.955,171.952,166.12,170.69,168.573z M177.656,164.394
		c0-14.861,0-29.722,0-44.584c-2.901,0.35-4.064,2.437-6.966,2.787c0,14.629,0,29.258,0,43.887
		C173.278,166.053,175.068,164.823,177.656,164.394z M144.915,176.934c0,15.324,0,30.65,0,45.977
		c2.243,0.152,2.947-1.232,5.573-0.695c0-15.791,0-31.582,0-47.371C148.355,175.266,146.859,176.322,144.915,176.934z
		 M144.218,174.844c0-12.54,0-25.08,0-37.619c-7.539,0.305-4.876,10.657-4.876,17.416c0,7.939,0,16.777,0,22.988
		C141.094,176.827,144.121,177.299,144.218,174.844z M143.522,222.91c1.161-13.701,1.161-32.275,0-45.977
		c-6.712,1.875-4.181,12.736-4.181,20.898c0,8.932,0,19.762,0,25.775C141.06,223.699,142.698,223.713,143.522,222.91z
		 M138.646,176.236c0-12.074,0-24.149,0-36.225c-7.328,0.597-4.877,10.522-4.877,17.416c0,7.822,0,16.215,0,22.292
		C135.661,178.825,139.116,179.492,138.646,176.236z M133.072,165.09c0-7.098,0-14.966,0-20.898c0-0.464,0-0.929,0-1.394
		c-2.04-0.181-2.14,1.575-4.18,1.394c0.46,9.297-0.97,29.46,0.696,37.618C135.089,179.756,133.072,171.645,133.072,165.09z
		 M131.679,225.697c3.213-12.113,0.493-30.16,1.394-44.585c-6.646,0.819-4.18,11.346-4.18,18.81c0,8.691,0,19.756,0,25.775
		C129.821,225.697,130.75,225.697,131.679,225.697z M138.646,204.102c0-8.386,0-17.274,0-24.382
		c-0.04-0.425-0.104-0.825-0.697-0.696c-0.859,0.998-2.396,1.319-4.18,1.393c0.918,14.408-1.843,32.496,1.394,44.584
		C141.155,222.041,138.646,211.969,138.646,204.102z M151.184,174.146c0,15.791,0,31.58,0,47.371
		c2.417,0.559,2.678-1.039,4.876-0.697c1.625-14.631,0.233-32.276,0.697-48.066C154.542,172.859,153.693,174.332,151.184,174.146z
		 M150.488,133.742c-2.458,0.096-3.116,1.993-5.573,2.09c0,13.236,0,26.472,0,39.707c2.772,0.451,2.8-1.844,5.573-1.393
		C150.488,160.678,150.488,147.21,150.488,133.742z M127.499,182.506c0-12.307,0-24.614,0-36.921
		c-6.254,0.42-4.18,9.356-4.18,16.022c0,7.243,0,16.742,0,21.595C125.45,183.707,125.369,182,127.499,182.506z M114.263,186.686
		c5.703-1.381,3.483-9.841,3.483-16.022c0-6.725,0-14.009,0-19.505c-0.154-0.542-0.583-0.81-1.393-0.696
		C111.707,158.586,115.488,175.14,114.263,186.686z M117.746,209.674c0-7.501,0-15.168,0-21.596
		c-0.079-0.85-0.208-1.648-1.393-1.393c-0.153,0.543-0.583,0.81-1.393,0.697c-0.708,11.855-2.075,30.4,0.696,41.102
		C119.451,224.494,117.746,216.391,117.746,209.674z M118.443,193.652c-0.744,11.02-0.522,26.459,1.393,34.135
		c4.201-0.373,2.565-5.064,2.787-8.359c0.743-11.02,0.521-26.46-1.393-34.136C117.029,185.666,118.665,190.355,118.443,193.652z
		 M119.14,149.068c-1.604,10.702-0.248,24.366-0.696,36.224c6.453-0.87,4.179-9.463,4.179-16.022c0-6.856,0-14.646,0-20.202
		c-0.154-0.543-0.583-0.81-1.393-0.697C120.339,148.41,120.265,149.264,119.14,149.068z M124.016,183.899
		c-0.694,12.563-2.085,31.788,0.696,43.19c4.241-0.527,2.56-5.258,2.787-8.359c0.81-11.07-0.62-26.408,0-35.528
		C125.821,182.918,125.985,184.475,124.016,183.899z M112.87,185.292c-0.462-10.683,0.927-23.218-0.696-32.741
		c-4.65,1.409-2.787,9.5-2.787,16.022c0,7.27-0.537,15.192,0.697,20.202C110.894,187.495,113.781,188.293,112.87,185.292z
		 M112.87,228.484c-0.463-13.238,0.928-28.33-0.696-40.406c-4.611,2.827-2.787,12.487-2.787,20.203c0,3.705-0.039,8.139,0,11.842
		c0.037,3.438-1.263,8.688,1.393,9.057C111.6,229.07,112.757,229.301,112.87,228.484z M107.994,174.844c0-6.043,0-12.761,0-18.113
		c0-0.464,0-0.929,0-1.393c-0.959-0.031-1.53,0.328-2.09,0.696c-2.262,8.22-2.356,25.929,0,34.134
		C109.546,187.229,107.994,180.717,107.994,174.844z M101.027,231.27c0.697,0,1.393,0,2.09,0c1.114-8.238,0.872-21.654,0.697-30.651
		c-0.061-3.149,1.291-8.179-1.394-8.36C99.188,202.494,101.942,218.717,101.027,231.27z M107.994,212.461c0-6.938,0-14.721,0-20.898
		c0-0.465,0-0.93,0-1.395c-1.317-0.156-1.537,0.786-2.787,0.697c-0.708,11.393-2.074,29.473,0.696,39.707
		C109.648,226.77,107.994,219.266,107.994,212.461z M103.117,157.428c-3.725,6.988-2.707,26.044-0.697,34.135
		C105.129,183.121,103.871,167.008,103.117,157.428z M96.151,193.652c0-10.682,0-21.363,0-32.045
		c-5.56,0.991-3.483,8.941-3.483,14.629c0,6.264,0,13.064,0,18.111C94.346,194.634,94.182,193.076,96.151,193.652z M93.364,195.045
		c-0.693,10.714-2.084,28.066,0.697,37.617c3.754-3.242,2.09-11.145,2.09-17.414c0-7.145,0-16.016,0-20.9
		C94.834,194.193,94.614,195.134,93.364,195.045z M91.971,195.045c-0.908-10.006,1.83-23.657-1.393-31.348
		c-3.159,7.987-0.533,21.759-1.394,32.045C90.501,195.898,90.722,194.957,91.971,195.045z M85.702,166.483
		c0,5.353,0,11.522,0,17.416c0,5.307-1.169,11.354,1.393,12.54c2.762-7.46,1.411-22.735,0.697-31.35
		C87.61,166.07,86.263,165.885,85.702,166.483z M83.612,167.18c-2.25,7.079-2.364,23.591,0,30.652
		C85.884,190.775,85.958,174.225,83.612,167.18z M87.095,234.057c2.286-9.121,2.34-27.809,0-36.922
		C84.825,206.271,84.743,224.932,87.095,234.057z M91.971,197.832c0.194-2.033-0.168-2.396-1.393-1.393
		c-2.317,9.089-2.317,27.832,0,36.92C93.771,224.246,91.084,209.252,91.971,197.832z M99.634,229.877
		c-0.155-8.859,0.205-21.031,0-29.259c-0.058-2.315,1.348-6.886-1.394-6.966c-2.317,9.551-2.317,28.762,0,38.314
		C99.116,231.682,99.665,231.068,99.634,229.877z M100.331,159.518c-5.453,0.617-3.483,9.341-3.483,15.326
		c0,6.512-1.083,14.77,1.393,18.111C102.538,184.409,99.011,165.313,100.331,159.518z M80.825,168.573
		c-2.988,2.124-2.93,8.304-2.787,13.933c0.15,5.866-0.279,13.804,2.09,16.719C82.844,191.952,81.573,176.988,80.825,168.573z
		 M83.612,234.752c2.268-8.906,2.353-27.329,0-36.223C81.327,207.419,81.271,225.871,83.612,234.752z M76.646,200.618
		c1.16-8.364,1.16-21.591,0-29.955C74.462,177.578,74.235,193.74,76.646,200.618z M78.735,234.752c0.147,0.844,0.773,0.43,1.394,0
		c2.316-8.396,2.316-26.434,0-34.83C76.321,203.176,80.004,224.611,78.735,234.752z M71.769,235.449
		c0.117,0.813,1.101,0.756,2.09,0.697c1.624-9.986,0.233-22.988,0.696-34.135C68.528,208.06,73.287,224.895,71.769,235.449z
		 M75.252,203.405c-1.837,8.251,0.322,25.319,1.393,32.044c1.623-9.986,0.233-22.988,0.696-34.134
		C75.085,201.107,75.442,202.553,75.252,203.405z M73.859,172.057c-3.67,5.657-2.743,23.211-0.696,29.955
		C75.85,194.943,74.627,180.26,73.859,172.057z M71.072,174.146c-0.959-0.03-1.53,0.328-2.09,0.697
		c0.903,8.85-1.823,21.328,1.394,27.864C71.999,194.578,70.609,183.436,71.072,174.146z M66.196,204.102
		c4.686-5.299,0.835-19.135,2.09-27.865c-0.04-0.425-0.104-0.824-0.697-0.697C64.453,182.389,67.041,194.961,66.196,204.102z
		 M65.5,176.934c-4.686,5.299-0.835,19.135-2.09,27.864C68.095,199.498,64.245,185.663,65.5,176.934z M67.589,204.102
		c-2.432,3.473-1.393,10.6-1.393,16.719c0,5.699-1.622,14.99,2.09,16.719c0-0.465,0-0.928,0-1.393
		C67.823,225.695,69.212,213.393,67.589,204.102z M68.982,204.102c0.91,10.469-1.832,24.588,1.394,32.74
		c1.624-9.754,0.233-22.521,0.696-33.437C70.113,203.375,69.542,203.732,68.982,204.102z M61.32,206.191
		c2.236-6.171,2.371-21.716,0-27.865C60.189,186.023,60.137,198.502,61.32,206.191z M62.016,206.191
		c-2.702,7.982-1.455,23.619-0.696,32.74C64.022,230.951,62.774,215.313,62.016,206.191z M63.41,238.236
		c3.755-2.771,2.09-9.512,2.09-15.326c0-5.848,0-12.359,0-17.416c-0.697,0-1.394,0-2.09,0
		C63.41,216.408,63.41,227.322,63.41,238.236z M59.23,206.888c-0.463-8.826,0.925-19.503-0.697-27.168
		C57.843,186.977,56.454,200.792,59.23,206.888z M55.747,208.281c3.12-6.168,0.561-18.016,1.393-26.472
		c-0.147-0.843-0.773-0.429-1.393,0C54.586,189.013,54.586,201.078,55.747,208.281z M52.264,208.979
		c4.214-4.614,1.767-19.591,1.393-26.473C51.096,186.354,52.883,201.593,52.264,208.979z M53.657,240.326
		c0.691-8.406,2.081-23.406-0.697-30.652C52.113,218.051,51.101,235.254,53.657,240.326z M55.05,239.629
		c3.707-2.205,2.09-9.217,2.09-14.629c0-6.023,0.54-12.449-0.696-16.719c-0.154,0.543-0.583,0.811-1.394,0.697
		C55.05,219.195,55.05,229.412,55.05,239.629z M59.23,207.584c-2.316,7.244-2.316,24.105,0,31.348
		C59.23,228.484,59.23,218.033,59.23,207.584z M51.567,209.674c-0.462-8.361,0.925-18.572-0.697-25.774
		C50.181,190.697,48.792,204.037,51.567,209.674z M49.477,185.292c-3.766,3.95-2.669,20.015-0.697,25.079
		C50.402,203.4,49.015,193.422,49.477,185.292z M47.387,227.787c0,5.426-1.484,12.127,2.09,13.234c0-9.984,0-19.969,0-29.955
		C45.837,212.781,47.387,221.275,47.387,227.787z M46.69,186.686c-2.583,2.768-1.54,18.885-0.697,25.078
		C47.578,204.758,46.256,194.844,46.69,186.686z M42.511,212.461c4.196-4.168,1.781-18.648,1.393-25.078
		C40.89,193.191,43.269,204.395,42.511,212.461z M46.69,212.461c-2.758,6.766-1.414,21.338-0.697,29.258
		C47.588,233.328,46.249,222.004,46.69,212.461z M50.173,240.326c2.315-6.783,2.315-23.172,0-29.955
		C50.173,220.355,50.173,230.342,50.173,240.326z M41.117,212.461c1.582-3.533,0.265-15.984,0.697-22.988
		C40.232,193.006,41.55,205.457,41.117,212.461z M41.117,241.719c1.593-4.914,0.256-18.781,0.697-27.168
		C40.221,219.465,41.558,233.332,41.117,241.719z M42.511,213.854c0.903,8.85-1.823,21.328,1.393,27.865
		c1.623-8.129,0.234-19.271,0.697-28.563C43.642,213.127,43.071,213.486,42.511,213.854z M39.027,213.156
		c1.58-3.303,0.266-15.518,0.697-22.291C38.145,194.17,39.458,206.384,39.027,213.156z M36.938,190.865c0,7.664,0,15.326,0,22.988
		c0.147,0.842,0.773,0.43,1.393,0C37.439,206.619,40.139,195.792,36.938,190.865z M35.544,191.563
		c-0.688,6.111-2.076,18.734,0.696,23.686C35.779,207.582,37.166,198.068,35.544,191.563z M33.455,193.652
		c0.661,7.441-1.229,18.018,0.696,22.291C33.721,209.17,35.034,196.957,33.455,193.652z M33.455,220.123c0,3.975,0,8.338,0,12.539
		c0,3.043,0.241,12.066,0.696,9.754c1.521-7.717-0.507-16.475-0.696-25.775C33.868,218.863,32.147,218.795,33.455,220.123z
		 M34.848,243.113c2.313-5.863,2.313-21.307,0-27.17C34.848,225,34.848,234.057,34.848,243.113z M37.634,243.113
		c0.69-7.486,2.08-21.541-0.696-27.865C37.4,224.305,36.011,235.215,37.634,243.113z M39.724,222.215c0-2.557,0-5.109,0-7.664
		c-1.594,1.193-0.255,5.316-0.697,7.664c0,6.732,0,13.467,0,20.201C40.648,237.07,39.264,228.719,39.724,222.215z M31.365,206.888
		c0.036,3.438-0.565,10.233,0.697,8.36c-0.036-2.732,0.044-7.643,0-11.843c-0.037-3.438,0.564-10.235-0.697-8.36
		C31.4,197.776,31.32,202.688,31.365,206.888z M29.274,211.066c0.432,1.893-0.884,5.529,0.697,6.271
		c0.687-5.656,2.074-17.797-0.697-22.293c0,1.626,0,3.252,0,4.877C29.274,203.637,29.274,207.353,29.274,211.066z M28.578,195.742
		c-2.74,4.464-1.426,16.678-0.697,22.291C29.456,211.945,28.152,202.979,28.578,195.742z M25.095,218.73
		c2.74-4.465,1.426-16.679,0.696-22.291C24.217,202.527,25.521,211.494,25.095,218.73z M28.578,244.506
		c-0.899-8.156,1.817-19.93-1.393-25.775C28.084,226.887,25.367,238.66,28.578,244.506z M29.274,238.932
		c0.424,1.666-0.874,5.055,0.697,5.574c1.588-7.467,0.259-17.852,0.696-26.473c-2.518-0.658-0.972,2.744-1.394,4.182
		C29.274,227.787,29.274,233.359,29.274,238.932z M31.365,243.113c1.588-4.225,0.259-17.385,0.697-25.08
		C30.473,222.256,31.802,235.418,31.365,243.113z M22.309,198.529c0,3.482,0,6.965,0,10.449c0.451,3.264-0.911,8.34,0.697,10.449
		C22.544,212.689,23.929,204.105,22.309,198.529z M24.398,245.203c0-4.182,0-8.361,0-12.541c-0.455-3.957,0.916-9.738-0.697-12.539
		C24.164,228.254,22.776,238.232,24.398,245.203z M26.488,245.203c-0.899-8.158,1.817-19.93-1.393-25.775
		C25.948,227.631,23.341,239.293,26.488,245.203z M24.398,213.854c0.217-4.572,0.381-12.564-0.697-16.021c0,3.715,0,7.431,0,11.146
		C23.611,217.158,24.002,222.203,24.398,213.854z M20.219,245.898c2.749-5.383,1.42-18.543,0.696-25.078
		C19.331,227.828,20.653,237.742,20.219,245.898z M18.825,199.922c0,3.483,0,6.966,0,10.449c0.451,3.264-0.911,8.342,0.697,10.449
		C19.061,214.082,20.446,205.5,18.825,199.922z M22.309,244.506c1.582-3.533,0.264-15.984,0.697-22.988
		C21.423,225.051,22.741,237.502,22.309,244.506z M21.612,199.225c-2.308,3.807-2.308,17.092,0,20.898
		C21.612,213.156,21.612,206.191,21.612,199.225z M17.432,222.215c-0.737,6.387-2.01,19.135,0.697,24.381
		C17.667,238.697,19.054,228.951,17.432,222.215z M16.039,222.215c2.408-2.41-1.399-18.604-0.697-20.203
		C13.267,205.756,17.832,220.42,16.039,222.215z M16.039,245.898c-0.431-6.773,0.883-18.986-0.697-22.291
		C15.773,230.381,14.459,242.594,16.039,245.898z M13.949,202.708c0.46,6.505-0.923,14.856,0.697,20.202
		C14.185,216.404,15.569,208.055,13.949,202.708z M12.556,203.405c0,3.25,0,6.501,0,9.751c0.449,3.035-0.908,7.877,0.697,9.754
		C12.792,216.637,14.175,208.519,12.556,203.405z M13.949,223.607c-2.847,2.848,1.754,21.27,0.697,22.988
		C17.057,242.424,11.723,225.834,13.949,223.607z M19.522,245.898c0-3.947,0-7.895,0-11.842c-0.454-3.727,0.915-9.275-0.697-11.842
		C19.287,229.879,17.9,239.393,19.522,245.898z M17.432,200.618c-0.687,5.2-2.072,16.858,0.697,20.899
		C17.668,214.779,19.053,206.195,17.432,200.618z M11.859,246.596c-0.428-6.543,0.88-18.521-0.696-21.596
		C11.591,231.543,10.282,243.52,11.859,246.596z M9.769,204.798c0,3.251,0,6.501,0,9.753c0.45,3.033-0.908,7.875,0.697,9.754
		C10.005,218.029,11.389,209.912,9.769,204.798z M6.982,206.888c0,5.806,0,11.61,0,17.417c0.008,0.701,1.221,0.875,1.394,0
		C6.621,222.725,8.814,208.309,6.982,206.888z M9.769,225c-2.847,2.848,1.754,21.27,0.697,22.988
		C12.877,243.818,7.543,227.227,9.769,225z M12.556,229.877c-0.218,4.59-0.371,13.676,0.697,17.416c0-3.949,0-7.896,0-11.844
		C13.369,227.592,12.982,220.893,12.556,229.877z M11.859,218.73c0.231-4.07,0.375-11.403-0.696-14.629c0,3.251,0,6.502,0,9.752
		C11.07,221.125,11.421,226.43,11.859,218.73z M7.679,247.293c-0.605-6.494,1.128-17.803-0.697-20.898
		C7.41,232.707,6.105,244.445,7.679,247.293z M5.589,221.518c0.24-3.506,0.366-10.982-0.697-13.934c0,3.02,0,6.039,0,9.057
		C4.793,223.035,5.109,228.518,5.589,221.518z M218.061,116.326c0,0.464,0,0.929,0,1.394c0,7.249,0,15.902,0,24.382
		c0,8.053-2.054,17.979,2.786,22.292c3.238-12.553,0.476-31.106,1.394-45.978C220.429,118.138,220.14,116.337,218.061,116.326z"/>
	<path fill-rule="evenodd" clip-rule="evenodd" fill="#BEE7EE" d="M2.106,208.979c0.616,12.818,2.057,28.41-0.697,40.404
		C3.002,235.764,1.558,223.412,2.106,208.979z"/>
	<path fill-rule="evenodd" clip-rule="evenodd" fill="#BEE7EE" d="M0.713,250.078c1.098,0.064,0.545,1.777,2.09,1.395
		c3.034,0.447,7.875-0.91,9.753,0.695C8.786,251.293,1.226,254.211,0.713,250.078z"/>
	<path fill-rule="evenodd" clip-rule="evenodd" fill="#BEE7EE" d="M23.005,277.248c2.117-0.438,6,0.891,6.966-0.697
		C32.234,278.188,23.838,278.705,23.005,277.248z"/>
	<path fill-rule="evenodd" clip-rule="evenodd" fill="#F16B6B" d="M66.893,275.854c-3.627-4.268,0.377-16.166-2.09-21.596
		c0.56,0.369,1.131,0.727,2.09,0.697C65.746,260.391,65.746,270.42,66.893,275.854z"/>
	<path fill-rule="evenodd" clip-rule="evenodd" fill="#BEE7EE" d="M268.915,64.08c2.612,2.03,4.936,4.352,6.966,6.966
		C273.268,69.015,270.944,66.693,268.915,64.08z"/>
	<path fill-rule="evenodd" clip-rule="evenodd" fill="#BEE7EE" d="M179.746,163.697c-1.624-13.702-0.233-30.418-0.697-45.281
		c2.6-0.42,3.418-2.62,6.271-2.786c0,15.326,0,30.651,0,45.978C183.378,162.221,181.08,162.477,179.746,163.697z"/>
	<path fill-rule="evenodd" clip-rule="evenodd" fill="#BEE7EE" d="M209.004,109.36c1.151,14.874,1.169,34.59,0,49.46
		c-1.745-1.505-5.085-1.416-6.27-3.482c2.669-13.845-3.593-35.208,0-47.371c0.443-1.5,0.141-1.815,2.09-0.696
		C206.904,107.281,207.193,109.082,209.004,109.36z"/>
	<path fill-rule="evenodd" clip-rule="evenodd" fill="#BEE7EE" d="M204.128,211.764c-2.753-15.127-1.418-38.057-0.696-54.336
		c2.396,0.622,4.342,1.694,6.27,2.786c0,10.802,0,27.886,0,39.708c0,5.582,1.702,14.67-2.09,12.539
		C205.995,212.684,204.938,212.348,204.128,211.764z"/>
	<path fill-rule="evenodd" clip-rule="evenodd" fill="#BEE7EE" d="M217.364,115.63c-0.464,15.326,0.928,32.508-0.697,46.674
		c-1.656-1.132-4.006-1.567-5.573-2.786c0.046-11.42-0.061-26.361,0-37.618c0.019-3.297-1.251-8.929,1.394-9.752
		C214.67,112.751,216.334,113.873,217.364,115.63z"/>
	<path fill-rule="evenodd" clip-rule="evenodd" fill="#BEE7EE" d="M169.297,123.292c1.16,13.006,1.16,30.882,0,43.887
		c-2.205-0.113-2.328,1.852-4.876,1.394c0-14.165,0-28.329,0-42.494C165.944,125.049,168.17,124.72,169.297,123.292z"/>
	<path fill-rule="evenodd" clip-rule="evenodd" fill="#BEE7EE" d="M158.847,170.663c0.897,2.394,4.524-1.849,4.876,0
		c0,16.255,0,32.51,0,48.765c-2.694-0.373-3.401,1.242-6.269,0.695c0.044-33.207,0.136-57.846,0-90.561
		c2.853-0.167,3.67-2.367,6.269-2.787c0,13.7,0,27.401,0,41.101C163.625,170.333,160.6,169.861,158.847,170.663z"/>
	<path fill-rule="evenodd" clip-rule="evenodd" fill="#BEE7EE" d="M229.903,167.877c-2.089-1.162-5.215-1.287-6.27-3.483
		c0.463-14.629-0.928-31.115,0.696-44.584c2.287,0.268,3.071,2.037,4.877,2.787C230.818,136.31,229.448,153.006,229.903,167.877z"/>
	<path fill-rule="evenodd" clip-rule="evenodd" fill="#F16B6B" d="M324.645,123.292c5.291,1.675,7.235,6.697,6.27,14.629
		c0.462,7.434-0.924,16.715,0.697,22.988c0,14.861,0,29.723,0,44.584c0.451,3.496-0.914,8.809,0.695,11.146
		c0,18.576,0,37.154,0,55.73c0,5.34,0,10.682,0,16.021c-2.414-0.51-6.606,0.762-6.966,0c1.021-21.791,1.001-55.266,0.697-84.291
		C325.73,174.804,325.344,144.438,324.645,123.292z"/>
	<path fill-rule="evenodd" clip-rule="evenodd" fill="#BEE7EE" d="M129.589,181.81c-1.667-8.158-0.236-28.321-0.696-37.618
		c2.04,0.182,2.14-1.575,4.18-1.394c0,0.465,0,0.929,0,1.394c0,5.933,0,13.801,0,20.898
		C133.072,171.645,135.089,179.756,129.589,181.81z"/>
	<path fill-rule="evenodd" clip-rule="evenodd" fill="#BEE7EE" d="M292.6,162.304c1.125-0.196,1.199,0.659,2.09,0.696
		c0,0.232,0,0.465,0,0.697c0,6.502,0,13.004,0,19.505c-0.296,4.42,0.435,10.935,0,13.237c-4.488-1.529-2.786-9.115-2.786-15.327
		C291.903,174.43,291.349,166.372,292.6,162.304z"/>
	<path fill-rule="evenodd" clip-rule="evenodd" fill="#637579" d="M287.723,158.82c1.592,1.195,3.521,2.055,4.877,3.483
		c-1.251,4.068-0.696,12.126-0.696,18.809c0,6.212-1.702,13.798,2.786,15.327c0,0.231,0,0.464,0,0.695
		c-1.25,0.089-1.47-0.852-2.786-0.695c0.45,12.32-0.91,26.451,0.696,37.617c-0.564-0.133-0.694-0.699-1.394-0.697
		c-0.892-12.344,1.808-28.279-1.393-38.314c-1.173,11.16-1.145,27.148,0,38.314c-0.564-0.133-0.695-0.699-1.394-0.697
		c0-6.178,0-13.961,0-20.898c0-6.803,1.655-14.308-2.09-18.111c-2.434,10.572,0.69,30.475-1.393,38.314
		c-1.104-0.059-2.658,0.334-2.787-0.697c0.697,0,1.393,0,2.09,0c0-6.207,0-14.158,0-21.596c0-7.068,1.838-15.613-2.09-18.111
		c-1.624,11.844-0.233,26.703-0.697,39.707c-0.81,0.113-1.239-0.152-1.393-0.697c-1.418-9.533,4.229-29.996,0.697-39.01
		c-0.354-0.9-1.461-1.346-2.787-1.395c0-0.231,0-0.463,0-0.695c1.249-0.089,1.469,0.852,2.787,0.695
		c-1.513-10.807,3.212-32.211-2.787-36.92c-0.429-0.621-0.843-1.246,0-1.394c1.941,3.399,6.862,3.818,9.056,6.966
		c-2.434,0.336-1.394,11.433-1.394,19.506c0,5.979-1.412,13.362,2.09,15.326C288.897,183.649,288.864,168.828,287.723,158.82z
		 M291.206,162.304c-0.285-0.876-0.898-1.424-2.09-1.394c0,0.465,0,0.93,0,1.394c0,5.098,0,11.585,0,17.416
		c0,5.886-1.603,12.454,2.09,15.325C291.206,184.131,291.206,173.217,291.206,162.304z M284.24,156.73
		c-1.317,0.156-1.536-0.785-2.787-0.696c0,0.464,0,0.929,0,1.394c0,5.148,0,11.693,0,18.111c0,5.783-2.063,14.106,2.787,16.023
		C284.297,182.678,284.199,167.921,284.24,156.73z"/>
	<path fill-rule="evenodd" clip-rule="evenodd" fill="#BEE7EE" d="M116.353,150.461c0.81-0.114,1.239,0.154,1.393,0.696
		c0,5.497,0,12.781,0,19.505c0,6.182,2.22,14.642-3.483,16.022C115.488,175.14,111.707,158.586,116.353,150.461z"/>
	<path fill-rule="evenodd" clip-rule="evenodd" fill="#BEE7EE" d="M110.083,188.775c-1.234-5.01-0.697-12.933-0.697-20.202
		c0-6.522-1.863-14.613,2.787-16.022c1.624,9.523,0.234,22.059,0.696,32.741C113.781,188.293,110.894,187.495,110.083,188.775z"/>
	<path fill-rule="evenodd" clip-rule="evenodd" fill="#BEE7EE" d="M277.971,189.473c0-12.076,0-24.15,0-36.225
		c5.999,4.709,1.274,26.113,2.787,36.92C279.439,190.324,279.22,189.384,277.971,189.473z"/>
	<path fill-rule="evenodd" clip-rule="evenodd" fill="#BEE7EE" d="M284.24,191.563c-4.851-1.917-2.787-10.24-2.787-16.023
		c0-6.418,0-12.963,0-18.111c0-0.465,0-0.93,0-1.394c1.251-0.089,1.47,0.853,2.787,0.696
		C284.199,167.921,284.297,182.678,284.24,191.563z"/>
	<path fill-rule="evenodd" clip-rule="evenodd" fill="#BEE7EE" d="M287.723,158.82c1.142,10.008,1.175,24.829,0,34.832
		c-3.502-1.964-2.09-9.348-2.09-15.326c0-8.073-1.04-19.17,1.394-19.506C287.258,158.82,287.491,158.82,287.723,158.82z"/>
	<path fill-rule="evenodd" clip-rule="evenodd" fill="#BEE7EE" d="M80.129,199.225c-2.37-2.915-1.94-10.853-2.09-16.719
		c-0.144-5.629-0.202-11.809,2.787-13.933C81.573,176.988,82.844,191.952,80.129,199.225z"/>
	<path fill-rule="evenodd" clip-rule="evenodd" fill="#BEE7EE" d="M76.646,170.663c1.16,8.364,1.16,21.591,0,29.955
		C74.235,193.74,74.462,177.578,76.646,170.663z"/>
	<path fill-rule="evenodd" clip-rule="evenodd" fill="#BEE7EE" d="M80.129,199.922c2.316,8.396,2.316,26.434,0,34.83
		c-0.621,0.43-1.247,0.844-1.394,0C80.004,224.611,76.321,203.176,80.129,199.922z"/>
	<path fill-rule="evenodd" clip-rule="evenodd" fill="#BEE7EE" d="M67.589,175.539c0.593-0.127,0.657,0.272,0.697,0.697
		c-1.255,8.73,2.596,22.566-2.09,27.865C67.041,194.961,64.453,182.389,67.589,175.539z"/>
	<path fill-rule="evenodd" clip-rule="evenodd" fill="#BEE7EE" d="M61.32,238.932c-0.758-9.121-2.006-24.758,0.696-32.74
		C62.774,215.313,64.022,230.951,61.32,238.932z"/>
	<path fill-rule="evenodd" clip-rule="evenodd" fill="#BEE7EE" d="M61.32,178.326c2.371,6.149,2.236,21.694,0,27.865
		C60.137,198.502,60.189,186.023,61.32,178.326z"/>
	<path fill-rule="evenodd" clip-rule="evenodd" fill="#BEE7EE" d="M58.533,179.72c1.622,7.665,0.234,18.342,0.697,27.168
		C56.454,200.792,57.843,186.977,58.533,179.72z"/>
	<path fill-rule="evenodd" clip-rule="evenodd" fill="#BEE7EE" d="M53.657,182.506c0.374,6.882,2.821,21.858-1.393,26.473
		C52.883,201.593,51.096,186.354,53.657,182.506z"/>
	<path fill-rule="evenodd" clip-rule="evenodd" fill="#BEE7EE" d="M52.96,209.674c2.778,7.246,1.388,22.246,0.697,30.652
		C51.101,235.254,52.113,218.051,52.96,209.674z"/>
	<path fill-rule="evenodd" clip-rule="evenodd" fill="#BEE7EE" d="M55.747,181.81c0.62-0.429,1.246-0.843,1.393,0
		c-0.833,8.456,1.727,20.304-1.393,26.472C54.586,201.078,54.586,189.013,55.747,181.81z"/>
	<path fill-rule="evenodd" clip-rule="evenodd" fill="#BEE7EE" d="M50.87,183.899c1.622,7.202,0.235,17.413,0.697,25.774
		C48.792,204.037,50.181,190.697,50.87,183.899z"/>
	<path fill-rule="evenodd" clip-rule="evenodd" fill="#BEE7EE" d="M43.904,187.383c0.388,6.43,2.803,20.91-1.393,25.078
		C43.269,204.395,40.89,193.191,43.904,187.383z"/>
	<path fill-rule="evenodd" clip-rule="evenodd" fill="#BEE7EE" d="M49.477,211.066c0,9.986,0,19.971,0,29.955
		c-3.574-1.107-2.09-7.809-2.09-13.234C47.387,221.275,45.837,212.781,49.477,211.066z"/>
	<path fill-rule="evenodd" clip-rule="evenodd" fill="#FFFFFF" d="M34.151,215.943c-1.926-4.273-0.036-14.85-0.696-22.291
		C35.034,196.957,33.721,209.17,34.151,215.943z"/>
	<path fill-rule="evenodd" clip-rule="evenodd" fill="#FFFFFF" d="M33.455,216.641c0.189,9.301,2.217,18.059,0.696,25.775
		c-0.455,2.313-0.696-6.711-0.696-9.754c0-4.201,0-8.564,0-12.539C32.147,218.795,33.868,218.863,33.455,216.641z"/>
	<path fill-rule="evenodd" clip-rule="evenodd" fill="#BEE7EE" d="M277.971,190.168c1.326,0.049,2.434,0.494,2.787,1.395
		c3.532,9.014-2.115,29.477-0.697,39.01c-0.988-0.059-1.974-0.113-2.09,0.697C277.929,220.311,278.001,203.438,277.971,190.168z"/>
	<path fill-rule="evenodd" clip-rule="evenodd" fill="#BEE7EE" d="M284.938,231.967c2.083-7.84-1.041-27.742,1.393-38.314
		c3.745,3.804,2.09,11.309,2.09,18.111c0,6.938,0,14.721,0,20.898C286.804,232.887,285.745,232.551,284.938,231.967z"/>
	<path fill-rule="evenodd" clip-rule="evenodd" fill="#BEE7EE" d="M25.792,196.439c0.729,5.612,2.043,17.826-0.696,22.291
		C25.521,211.494,24.217,202.527,25.792,196.439z"/>
	<path fill-rule="evenodd" clip-rule="evenodd" fill="#BEE7EE" d="M29.274,199.922c0-1.625,0-3.251,0-4.877
		c2.771,4.496,1.384,16.637,0.697,22.293c-1.582-0.742-0.266-4.379-0.697-6.271C30.432,208.953,30.432,202.035,29.274,199.922z"/>
	<path fill-rule="evenodd" clip-rule="evenodd" fill="#BEE7EE" d="M289.813,233.359c-1.145-11.166-1.173-27.154,0-38.314
		c3.2,10.035,0.501,25.971,1.393,38.314C290.742,233.359,290.278,233.359,289.813,233.359z"/>
	<path fill-rule="evenodd" clip-rule="evenodd" fill="#BEE7EE" d="M20.915,220.82c0.724,6.535,2.052,19.695-0.696,25.078
		C20.653,237.742,19.331,227.828,20.915,220.82z"/>
	<path fill-rule="evenodd" clip-rule="evenodd" fill="#BEE7EE" d="M18.129,246.596c-2.707-5.246-1.434-17.994-0.697-24.381
		C19.054,228.951,17.667,238.697,18.129,246.596z"/>
	<path fill-rule="evenodd" clip-rule="evenodd" fill="#2A2424" d="M277.971,151.854c-0.572-4.487-0.728-7.502,0-12.54
		c5.447,4.306,11.992,7.513,16.719,12.54c0,3.716,0,7.431,0,11.146c-0.891-0.037-0.965-0.893-2.09-0.696
		c-1.356-1.429-3.285-2.288-4.877-3.483c-0.231,0-0.465,0-0.696,0C284.833,155.673,279.912,155.254,277.971,151.854z"/>
	<path fill-rule="evenodd" clip-rule="evenodd" fill="#BEE7EE" d="M121.229,148.371c0.81-0.113,1.239,0.154,1.393,0.697
		c0,5.555,0,13.345,0,20.202c0,6.56,2.274,15.152-4.179,16.022c0.449-11.858-0.908-25.522,0.696-36.224
		C120.265,149.264,120.339,148.41,121.229,148.371z"/>
	<path fill-rule="evenodd" clip-rule="evenodd" fill="#BEE7EE" d="M105.903,190.168c-2.356-8.205-2.262-25.914,0-34.134
		c0.561-0.368,1.131-0.728,2.09-0.696c0,0.464,0,0.929,0,1.393c0,5.353,0,12.07,0,18.113
		C107.994,180.717,109.546,187.229,105.903,190.168z"/>
	<path fill-rule="evenodd" clip-rule="evenodd" fill="#BEE7EE" d="M201.342,211.066c-2.329,0.029-5.646,2.668-7.663,0.697
		c0-17.416,0-34.83,0-52.246c2.517-1.198,5.009-2.422,8.359-2.787c0,18.113,0,36.225,0,54.336
		C201.807,211.066,201.573,211.066,201.342,211.066z"/>
	<path fill-rule="evenodd" clip-rule="evenodd" fill="#BEE7EE" d="M186.016,160.91c0-15.325,0-30.651,0-45.977
		c2.551-0.933,4.309-2.658,6.966-3.483c-0.464,15.559,0.929,32.973-0.695,47.371C190.327,159.649,188.279,160.389,186.016,160.91z"
		/>
	<path fill-rule="evenodd" clip-rule="evenodd" fill="#BEE7EE" d="M184.623,163c1.158,13.021,1.158,36.904,0,52.248
		c-2.626-0.537-3.331,0.85-5.574,0.695c0-17.184,0-34.366,0-51.55C181.266,164.287,182.114,162.814,184.623,163z"/>
	<path fill-rule="evenodd" clip-rule="evenodd" fill="#BEE7EE" d="M218.061,215.248c0.464-16.953-0.928-35.76,0.696-51.551
		c4.938,0.831,3.378,6.393,3.483,10.449c0.359,13.784,0.279,30.445-0.696,41.797C219.928,216.166,218.87,215.832,218.061,215.248z"
		/>
	<path fill-rule="evenodd" clip-rule="evenodd" fill="#BEE7EE" d="M87.792,165.09c0.714,8.614,2.065,23.89-0.697,31.35
		c-2.563-1.186-1.393-7.233-1.393-12.54c0-5.894,0-12.063,0-17.416C86.263,165.885,87.61,166.07,87.792,165.09z"/>
	<path fill-rule="evenodd" clip-rule="evenodd" fill="#BEE7EE" d="M178.354,165.09c-1.616,15.801-0.24,34.592-0.697,51.551
		c-2.785-0.23-3.867,1.242-6.966,0.697c0-16.255,0-32.51,0-48.765C171.952,166.12,175.502,165.955,178.354,165.09z"/>
	<path fill-rule="evenodd" clip-rule="evenodd" fill="#BEE7EE" d="M70.376,202.708c-3.216-6.536-0.491-19.015-1.394-27.864
		c0.56-0.369,1.131-0.728,2.09-0.697C70.609,183.436,71.999,194.578,70.376,202.708z"/>
	<path fill-rule="evenodd" clip-rule="evenodd" fill="#BEE7EE" d="M139.341,177.629c0-6.211,0-15.049,0-22.988
		c0-6.758-2.662-17.111,4.876-17.416c0,12.539,0,25.079,0,37.619C144.121,177.299,141.094,176.827,139.341,177.629z"/>
	<path fill-rule="evenodd" clip-rule="evenodd" fill="#BEE7EE" d="M150.488,174.844c0,15.789,0,31.58,0,47.371
		c-2.626-0.537-3.331,0.848-5.573,0.695c0-15.326,0-30.652,0-45.977C146.859,176.322,148.355,175.266,150.488,174.844z"/>
	<path fill-rule="evenodd" clip-rule="evenodd" fill="#BEE7EE" d="M123.319,183.202c0-4.853,0-14.352,0-21.595
		c0-6.666-2.075-15.603,4.18-16.022c0,12.307,0,24.614,0,36.921C125.369,182,125.45,183.707,123.319,183.202z"/>
	<path fill-rule="evenodd" clip-rule="evenodd" fill="#BEE7EE" d="M127.499,183.202c-0.62,9.12,0.81,24.458,0,35.528
		c-0.227,3.102,1.454,7.832-2.787,8.359c-2.781-11.402-1.391-30.627-0.696-43.19C125.985,184.475,125.821,182.918,127.499,183.202z"
		/>
	<path fill-rule="evenodd" clip-rule="evenodd" fill="#BEE7EE" d="M121.229,185.292c1.915,7.676,2.136,23.116,1.393,34.136
		c-0.222,3.295,1.415,7.986-2.787,8.359c-1.915-7.676-2.136-23.115-1.393-34.135C118.665,190.355,117.029,185.666,121.229,185.292z"
		/>
	<path fill-rule="evenodd" clip-rule="evenodd" fill="#BEE7EE" d="M45.994,211.764c-0.843-6.193-1.886-22.311,0.697-25.078
		C46.256,194.844,47.578,204.758,45.994,211.764z"/>
	<path fill-rule="evenodd" clip-rule="evenodd" fill="#FFFFFF" d="M41.814,189.473c-0.432,7.004,0.885,19.455-0.697,22.988
		C41.55,205.457,40.232,193.006,41.814,189.473z"/>
	<path fill-rule="evenodd" clip-rule="evenodd" fill="#FFFFFF" d="M39.724,190.865c-0.431,6.773,0.883,18.988-0.697,22.291
		C39.458,206.384,38.145,194.17,39.724,190.865z"/>
	<path fill-rule="evenodd" clip-rule="evenodd" fill="#BEE7EE" d="M105.903,230.572c-2.77-10.234-1.405-28.314-0.696-39.707
		c1.25,0.089,1.47-0.854,2.787-0.697c0,0.465,0,0.93,0,1.395c0,6.178,0,13.961,0,20.898
		C107.994,219.266,109.648,226.77,105.903,230.572z"/>
	<path fill-rule="evenodd" clip-rule="evenodd" fill="#FFFFFF" d="M31.365,195.045c1.261-1.875,0.66,4.922,0.697,8.36
		c0.044,4.2-0.036,9.11,0,11.843c-1.262,1.873-0.661-4.922-0.697-8.36C31.32,202.688,31.4,197.776,31.365,195.045z"/>
	<path fill-rule="evenodd" clip-rule="evenodd" fill="#BEE7EE" d="M89.185,195.742c0.861-10.286-1.765-24.058,1.394-32.045
		c3.223,7.69,0.485,21.342,1.393,31.348C90.722,194.957,90.501,195.898,89.185,195.742z"/>
	<path fill-rule="evenodd" clip-rule="evenodd" fill="#BEE7EE" d="M90.578,233.359c-2.317-9.088-2.317-27.831,0-36.92
		c1.225-1.003,1.587-0.641,1.393,1.393C91.084,209.252,93.771,224.246,90.578,233.359z"/>
	<path fill-rule="evenodd" clip-rule="evenodd" fill="#BEE7EE" d="M77.342,201.315c-0.463,11.146,0.927,24.147-0.696,34.134
		c-1.071-6.725-3.23-23.793-1.393-32.044C75.442,202.553,75.085,201.107,77.342,201.315z"/>
	<path fill-rule="evenodd" clip-rule="evenodd" fill="#BEE7EE" d="M63.41,204.798c1.254-8.729-2.596-22.565,2.09-27.864
		C64.245,185.663,68.095,199.498,63.41,204.798z"/>
	<path fill-rule="evenodd" clip-rule="evenodd" fill="#BEE7EE" d="M59.23,238.932c-2.316-7.242-2.316-24.104,0-31.348
		C59.23,218.033,59.23,228.484,59.23,238.932z"/>
	<path fill-rule="evenodd" clip-rule="evenodd" fill="#BEE7EE" d="M55.05,208.979c0.81,0.113,1.24-0.154,1.394-0.697
		c1.236,4.27,0.696,10.695,0.696,16.719c0,5.412,1.617,12.424-2.09,14.629C55.05,229.412,55.05,219.195,55.05,208.979z"/>
	<path fill-rule="evenodd" clip-rule="evenodd" fill="#BEE7EE" d="M48.78,210.371c-1.973-5.064-3.069-21.129,0.697-25.079
		C49.015,193.422,50.402,203.4,48.78,210.371z"/>
	<path fill-rule="evenodd" clip-rule="evenodd" fill="#BEE7EE" d="M212.487,213.854c-2.751-14.664-1.418-37.126-0.696-52.943
		c1.483,1.303,4.437,1.137,5.573,2.787c-0.921,16.494,1.847,36.678-1.394,50.854C214.354,214.773,213.296,214.438,212.487,213.854z"
		/>
	<path fill-rule="evenodd" clip-rule="evenodd" fill="#BEE7EE" d="M45.994,241.719c-0.717-7.92-2.061-22.492,0.697-29.258
		C46.249,222.004,47.588,233.328,45.994,241.719z"/>
	<path fill-rule="evenodd" clip-rule="evenodd" fill="#FFFFFF" d="M41.814,214.551c-0.44,8.387,0.896,22.254-0.697,27.168
		C41.558,233.332,40.221,219.465,41.814,214.551z"/>
	<path fill-rule="evenodd" clip-rule="evenodd" fill="#FFFFFF" d="M32.062,218.033c-0.438,7.695,0.891,20.855-0.697,25.08
		C31.802,235.418,30.473,222.256,32.062,218.033z"/>
	<path fill-rule="evenodd" clip-rule="evenodd" fill="#BEE7EE" d="M18.129,221.518c-2.769-4.041-1.383-15.699-0.697-20.899
		C19.053,206.195,17.668,214.779,18.129,221.518z"/>
	<path fill-rule="evenodd" clip-rule="evenodd" fill="#BEE7EE" d="M39.027,222.215c0.441-2.348-0.897-6.471,0.697-7.664
		c0,2.555,0,5.107,0,7.664C39.492,222.215,39.26,222.215,39.027,222.215z"/>
	<path fill-rule="evenodd" clip-rule="evenodd" fill="#BEE7EE" d="M29.274,222.215c0.422-1.438-1.124-4.84,1.394-4.182
		c-0.437,8.621,0.892,19.006-0.696,26.473c-1.571-0.52-0.273-3.908-0.697-5.574C30.434,234.973,30.434,226.174,29.274,222.215z"/>
	<path fill-rule="evenodd" clip-rule="evenodd" fill="#BEE7EE" d="M139.341,223.607c0-6.014,0-16.844,0-25.775
		c0-8.162-2.532-19.023,4.181-20.898c1.161,13.701,1.161,32.275,0,45.977C142.698,223.713,141.06,223.699,139.341,223.607z"/>
	<path fill-rule="evenodd" clip-rule="evenodd" fill="#BEE7EE" d="M128.893,225.697c0-6.02,0-17.084,0-25.775
		c0-7.464-2.466-17.99,4.18-18.81c-0.901,14.425,1.82,32.472-1.394,44.585C130.75,225.697,129.821,225.697,128.893,225.697z"/>
	<path fill-rule="evenodd" clip-rule="evenodd" fill="#BEE7EE" d="M110.78,229.18c-2.656-0.369-1.356-5.619-1.393-9.057
		c-0.039-3.703,0-8.137,0-11.842c0-7.716-1.824-17.376,2.787-20.203c1.624,12.076,0.233,27.168,0.696,40.406
		C112.757,229.301,111.6,229.07,110.78,229.18z"/>
	<path fill-rule="evenodd" clip-rule="evenodd" fill="#BEE7EE" d="M98.241,231.967c-2.317-9.553-2.317-28.764,0-38.314
		c2.742,0.08,1.335,4.65,1.394,6.966c0.205,8.228-0.155,20.399,0,29.259C99.665,231.068,99.116,231.682,98.241,231.967z"/>
	<path fill-rule="evenodd" clip-rule="evenodd" fill="#BEE7EE" d="M102.42,192.258c2.684,0.182,1.333,5.211,1.394,8.36
		c0.175,8.997,0.417,22.413-0.697,30.651c-0.697,0-1.393,0-2.09,0C101.942,218.717,99.188,202.494,102.42,192.258z"/>
	<path fill-rule="evenodd" clip-rule="evenodd" fill="#BEE7EE" d="M281.453,231.27c0.464-13.004-0.927-27.863,0.697-39.707
		c3.928,2.498,2.09,11.043,2.09,18.111c0,7.438,0,15.389,0,21.596c-0.697,0-1.393,0-2.09,0
		C281.918,231.27,281.686,231.27,281.453,231.27z"/>
	<path fill-rule="evenodd" clip-rule="evenodd" fill="#BEE7EE" d="M294.689,197.135c0.077,9.867-0.057,25.459,0,37.617
		c-0.959,0.031-1.529-0.326-2.09-0.695c-1.606-11.166-0.246-25.297-0.696-37.617C293.22,196.283,293.439,197.224,294.689,197.135z"
		/>
	<path fill-rule="evenodd" clip-rule="evenodd" fill="#BEE7EE" d="M68.286,236.146c0,0.465,0,0.928,0,1.393
		c-3.711-1.729-2.09-11.02-2.09-16.719c0-6.119-1.039-13.246,1.393-16.719C69.212,213.393,67.823,225.695,68.286,236.146z"/>
	<path fill-rule="evenodd" clip-rule="evenodd" fill="#BEE7EE" d="M74.555,202.012c-0.463,11.146,0.927,24.148-0.696,34.135
		c-0.989,0.059-1.973,0.115-2.09-0.697C73.287,224.895,68.528,208.06,74.555,202.012z"/>
	<path fill-rule="evenodd" clip-rule="evenodd" fill="#FFFFFF" d="M39.724,222.215c-0.46,6.504,0.924,14.855-0.697,20.201
		c0-6.734,0-13.469,0-20.201C39.26,222.215,39.492,222.215,39.724,222.215z"/>
	<path fill-rule="evenodd" clip-rule="evenodd" fill="#2A2424" d="M277.971,244.506c-0.985-3.188,0.375-6.285,0-13.236
		c0.116-0.811,1.102-0.756,2.09-0.697c0.153,0.545,0.583,0.811,1.393,0.697c0.232,0,0.465,0,0.697,0
		c0.129,1.031,1.683,0.639,2.787,0.697c0.808,0.584,1.866,0.92,3.482,0.695c0.698-0.002,0.829,0.564,1.394,0.697
		c0.465,0,0.929,0,1.393,0c0.699-0.002,0.829,0.564,1.394,0.697c0.561,0.369,1.131,0.727,2.09,0.695c0,2.787,0,5.574,0,8.361
		c-0.231,0-0.465,0-0.696,0C289.116,244.041,282.481,243.211,277.971,244.506z"/>
	<path fill-rule="evenodd" clip-rule="evenodd" fill="#2A2424" d="M66.893,254.955c-0.959,0.029-1.53-0.328-2.09-0.697
		c-7.762,0.1-14.116-1.209-22.292-0.695c-0.966-1.59-4.849-0.26-6.966-0.697c-1.625,0-3.251,0-4.876,0
		c-0.816,0.111-0.587,1.27-0.696,2.09c-0.678-0.02-0.541-0.854-0.697-1.393c-4.511-0.598-8.496-1.723-13.932-1.395
		c-0.232,0-0.464,0-0.697,0c-0.51-1.24-1.267-0.1-2.09,0c-1.878-1.605-6.719-0.248-9.753-0.695
		c53.329-8.303,123.154-19.547,181.123-30.652c11.027-2.111,21.349-3.031,17.416-9.754c0.231,0,0.465,0,0.696,0
		c0.891,0.039,0.965,0.895,2.09,0.697c0.81,0.584,1.867,0.92,3.483,0.697c0.129,1.031,1.684,0.639,2.786,0.695
		c0.117,0.813,1.102,0.758,2.09,0.697c0.809,0.584,1.867,0.92,3.483,0.697c0.117,0.813,1.102,0.756,2.09,0.697
		c0.81,0.584,1.867,0.918,3.483,0.695c0.117,0.813,1.101,0.756,2.09,0.697c1.635,0.688,3.422,1.223,5.573,1.393
		c1.916,8.674-0.117,22.322,0,29.26c-45.904,0.156-95.332,8.344-139.326,8.359c-3.068,0-8.919-2.764-9.752,1.393
		C77.504,255.014,69.358,254.828,66.893,254.955z"/>
	<path fill-rule="evenodd" clip-rule="evenodd" fill="#BEE7EE" d="M223.634,216.641c-0.046-14,0.034-33.854,0-50.157
		c2.56,0.227,3.854,1.718,6.27,2.09c0,4.181,0,8.36,0,12.539c-0.463,12.076,0.927,26.007-0.696,36.921
		C227.056,217.863,225.269,217.328,223.634,216.641z"/>
	<path fill-rule="evenodd" clip-rule="evenodd" fill="#BEE7EE" d="M23.005,221.518c-0.433,7.004,0.885,19.455-0.697,22.988
		C22.741,237.502,21.423,225.051,23.005,221.518z"/>
	<path fill-rule="evenodd" clip-rule="evenodd" fill="#BEE7EE" d="M44.601,213.156c-0.463,9.291,0.926,20.434-0.697,28.563
		c-3.216-6.537-0.49-19.016-1.393-27.865C43.071,213.486,43.642,213.127,44.601,213.156z"/>
</g>
</svg>
