<?xml version="1.0" encoding="utf-8"?>
<!-- Generator: Adobe Illustrator 14.0.0, SVG Export Plug-In . SVG Version: 6.00 Build 43363)  -->
<!DOCTYPE svg PUBLIC "-//W3C//DTD SVG 1.1//EN" "http://www.w3.org/Graphics/SVG/1.1/DTD/svg11.dtd">
<svg version="1.1" id="Layer_1" xmlns="http://www.w3.org/2000/svg" xmlns:xlink="http://www.w3.org/1999/xlink" x="0px" y="0px"
	 width="183.507px" height="183.506px" viewBox="0 0 183.507 183.506" enable-background="new 0 0 183.507 183.506"
	 xml:space="preserve">
<g>
	<path fill-rule="evenodd" clip-rule="evenodd" fill="#A21103" d="M104.007,61.43c0,0.628,0,1.259,0,1.891
		c-0.002,3.148,0,6.298,0,9.446c0,1.259,0,2.521,0,3.78C102.436,73.68,102.436,64.297,104.007,61.43z"/>
	<path fill-rule="evenodd" clip-rule="evenodd" fill="#A21103" d="M76.606,63.321c0-0.316,0-0.632,0-0.944
		c1.566,1.938,1.566,10.344,0,12.281C76.606,70.879,76.606,67.1,76.606,63.321z"/>
	<path fill-rule="evenodd" clip-rule="evenodd" fill="#EAB886" d="M76.606,79.383c-1.571-3.18-1.571-12.883,0-16.063
		c0,3.779,0,7.559,0,11.337c0,1.26,0,2.521,0,3.779C76.606,78.75,76.606,79.066,76.606,79.383z"/>
	<path fill-rule="evenodd" clip-rule="evenodd" fill="#EAB886" d="M104.007,63.321c1.563,1.019,1.563,8.43,0,9.446
		C104.007,69.619,104.005,66.469,104.007,63.321z"/>
	<path fill-rule="evenodd" clip-rule="evenodd" fill="#934B23" d="M79.44,84.108c0,3.463,0,6.926,0,10.393
		C77.874,93.177,77.874,85.43,79.44,84.108z"/>
	<path fill-rule="evenodd" clip-rule="evenodd" fill="#934B23" d="M101.172,94.5c0-3.467,0-6.93,0-10.393
		C102.737,85.43,102.737,93.177,101.172,94.5z"/>
	<path fill-rule="evenodd" clip-rule="evenodd" fill="#F1EFEA" d="M104.007,84.108c1.566,1.629,1.566,9.707,0,11.336
		C104.007,91.665,104.007,87.887,104.007,84.108z"/>
	<path fill-rule="evenodd" clip-rule="evenodd" fill="#A21103" d="M73.771,97.334c2.835,0,5.669,0,8.504,0
		c-7.384,9.814-2.101,20.952,8.503,20.787c10.246-0.164,15.58-14.373,7.56-20.787c2.834,0,5.669,0,8.503,0
		c0,9.446,0,18.896,0,28.344c-11.024,0-22.046,0-33.069,0C73.771,116.231,73.771,106.781,73.771,97.334z"/>
	<path fill-rule="evenodd" clip-rule="evenodd" fill="#6D3720" d="M67.157,162.529c15.432,0,30.864,0,46.298,0
		c0,4.093,0,8.188,0,12.283c-15.117,0-30.237,0-45.353,0C66.903,174.029,67.188,167.214,67.157,162.529z"/>
	<path fill-rule="evenodd" clip-rule="evenodd" fill="#541407" d="M68.103,175.755c0-0.314,0-0.63,0-0.943
		c15.115,0,30.235,0,45.353,0c0,0.313,0,0.629,0,0.943C98.338,175.755,83.22,175.755,68.103,175.755z"/>
	<path fill-rule="evenodd" clip-rule="evenodd" fill="#92704C" d="M66.213,176.7c0-0.315,0-0.631,0-0.944c0.63,0,1.26,0,1.89,0
		c15.117,0,30.235,0,45.353,0c0.313,0,0.629,0,0.945,0c0,0.313,0,0.629,0,0.944C98.338,176.7,82.275,176.7,66.213,176.7z"/>
	<path fill-rule="evenodd" clip-rule="evenodd" fill="#F1EFEA" d="M56.765,149.301c0.917,0.024,0.732,1.157,0.945,1.888
		c2.5-0.386-0.838-11.472,2.834-7.558c-2.145,1.004-0.36,5.938-0.944,8.504c-0.945,0-1.89,0-2.835,0
		C56.765,151.189,56.765,150.245,56.765,149.301z"/>
	<path fill-rule="evenodd" clip-rule="evenodd" fill="#F1EFEA" d="M44.483,143.631c-2.146,1.004-0.362,5.938-0.946,8.504
		c-0.945,0-1.89,0-2.835,0c0-0.315,0-0.631,0-0.946C45.167,152.459,40.269,139.482,44.483,143.631z"/>
	<path fill-rule="evenodd" clip-rule="evenodd" fill="#F1EFEA" d="M122.904,152.135c0.253-3.209-0.732-7.659,0.943-9.449
		c2.563-1.992,2.352,2.144,5.67,0c-0.002,3.148,0,6.298,0,9.449c-0.315,0-0.631,0-0.945,0c0-2.205,0-4.411,0-6.613
		c-0.244-1.963-4.151-0.259-4.725-1.891c0,2.834,0,5.67,0,8.504C123.532,152.135,123.217,152.135,122.904,152.135z"/>
	<path fill-rule="evenodd" clip-rule="evenodd" fill="#F1EFEA" d="M120.069,143.631c2.45-2.696,1.913,5.589,1.89,8.504
		c-0.316,0-0.632,0-0.944,0C120.427,149.57,122.213,144.635,120.069,143.631z"/>
	<path fill-rule="evenodd" clip-rule="evenodd" fill="#D81E07" d="M88.889,9.465c-1.947-0.258-0.227-4.186-2.834-3.78
		c5.406-3.191,2.347-2.747,8.503-0.946c-0.403,1.803-2.698,1.71-1.89,4.727c-0.314,0-0.63,0-0.944,0
		C91.51,8.261,88.901,8.225,88.889,9.465z"/>
	<path fill-rule="evenodd" clip-rule="evenodd" fill="#C13A39" d="M89.833,57.65c0.315,0,0.63,0,0.945,0
		c4.851,3.088,2.463,16.082,2.836,20.787c-0.688,2.148-6.541-0.87-5.671,2.834c-0.943,0-1.889,0-2.834,0
		c1.925,2.17,7.848,0.341,11.337,0.945c-0.026-0.919-1.154-0.731-1.889-0.945c0.292-1.28,2.364-0.783,3.78-0.944
		c-1.344-7.64-2.342-19.157,1.89-22.677c0.944,0,1.89,0,2.835,0c0.053,0.577,0.139,1.119,0.944,0.947c0,0.943,0,1.89,0,2.833
		c-1.571,2.867-1.571,12.25,0,15.117c0,0.945,0,1.89,0,2.836c-2.195-0.832-2.529-0.832-4.725,0c2.145,1.516,3.916,1.005,3.78,2.833
		c-0.837,2.591-4.193-1.845-1.891,1.892c-0.631,0-1.261,0-1.89,0c-0.177-1.399-2.285-0.869-3.779-0.947
		c-1.031,0.486,0.691,6.173,0,9.45c-3.086,0.248-2.005-3.668-4.725-3.78c-3.309-0.161-2.974,3.325-4.724,4.724
		c-1.564-1.018-1.564-8.43,0-9.446c-0.178-1.399-2.284-0.869-3.779-0.947c0.418-4.217,1.99-1.406,4.725-2.834
		C88.483,73.175,84.133,62.158,89.833,57.65z"/>
	<path fill-rule="evenodd" clip-rule="evenodd" fill="#C46936" d="M101.172,84.108c-2.303-3.736,1.054,0.699,1.891-1.892
		c0.136-1.828-1.636-1.317-3.78-2.833c2.195-0.832,2.529-0.832,4.725,0c-0.002,1.572,0,3.147,0,4.725c0,3.779,0,7.557,0,11.336
		c0.15,1.107,1.722,0.797,2.834,0.946c0,0.313,0,0.629,0,0.944c-2.834,0-5.669,0-8.503,0c-0.738-1.484-7.855-5.14-5.67-0.944
		c-1.695,0.118-1.992-1.157-3.779-0.946c-1.347-2.191-5.126,1.098-6.613,1.891c-2.835,0-5.669,0-8.504,0c0-0.315,0-0.632,0-0.944
		c0.629,0,1.259,0,1.891,0c2.186-3.798,0.326-11.641,0.944-17.007c0-0.317,0-0.633,0-0.946c1.928,2.243,3.738-1.3,5.669,0.946
		c1.429-5.542,2.468-18.832-1.891-21.733c2.208-1.199,4.013-0.351,9.448,0c-5.7,4.508-1.35,15.525-2.833,22.677
		c-2.734,1.428-4.307-1.383-4.725,2.834c1.495,0.078,3.602-0.452,3.779,0.947c-1.564,1.017-1.564,8.429,0,9.446
		c1.75-1.398,1.415-4.885,4.724-4.724c2.72,0.112,1.639,4.028,4.725,3.78c0.691-3.277-1.031-8.964,0-9.45
		c1.494,0.078,3.603-0.452,3.779,0.947c-0.026,2.868-2.896,8.729,1.89,10.393C102.737,93.177,102.737,85.43,101.172,84.108z
		 M79.44,94.5c5.126-0.083,2.904-11.461,0.944-13.229c0.041,1.302-0.446,2.075-0.944,2.837C77.874,85.43,77.874,93.177,79.44,94.5z"
		/>
	<path fill-rule="evenodd" clip-rule="evenodd" fill="#6D3720" d="M92.668,96.39c-2.186-4.195,4.932-0.54,5.67,0.944
		c8.021,6.414,2.687,20.623-7.56,20.787c-10.604,0.165-15.887-10.973-8.503-20.787c1.487-0.793,5.267-4.082,6.613-1.891
		c-7.712,0.887-11.515,12.854-5.669,18.897c1.694,0.121,1.991-1.157,3.78-0.943c-2.599,2.513,0.758,2.409,1.889,3.777
		c1.261-3.46,6.041-0.563,9.449-3.777C102.601,109.372,103.284,98.992,92.668,96.39z"/>
	<path fill-rule="evenodd" clip-rule="evenodd" fill="#35332B" d="M92.668,96.39c10.616,2.602,9.933,12.981,5.67,17.008
		c-3.408,3.215-8.188,0.317-9.449,3.777c-1.131-1.368-4.487-1.265-1.889-3.777c-1.789-0.214-2.086,1.064-3.78,0.943
		c-5.846-6.044-2.043-18.011,5.669-18.897C90.676,95.233,90.973,96.508,92.668,96.39z M87.943,106.781
		c1.696-0.12,2.212,0.939,1.89,2.837c8.068-5.805,2.106,0.375,1.891-9.45C87.821,99.731,91.447,106.822,87.943,106.781z"/>
	<path fill-rule="evenodd" clip-rule="evenodd" fill="#919890" d="M67.157,125.678c0.578-4.775,1.741-8.965,1.891-14.171
		c3.052,1.042,1.605,6.583,2.834,9.447c-0.783,2.67,1.331,2.447,0.945,4.724C70.937,125.678,69.048,125.678,67.157,125.678z"/>
	<path fill-rule="evenodd" clip-rule="evenodd" fill="#919890" d="M108.73,120.955c0.772-3.007,0.603-6.957,1.89-9.447
		c1.87,3.797,2.09,9.246,2.835,14.171c-1.89,0-3.779,0-5.669,0C107.397,123.402,109.511,123.625,108.73,120.955z"/>
	<path fill-rule="evenodd" clip-rule="evenodd" fill="#C13A39" d="M27.475,152.135c0-2.834,0-5.67,0-8.504
		c1.664,0.826,2.924,3.161,3.779,0c2.13,0.702,0.368,5.301,0.945,7.558C31.101,151.981,29.665,152.436,27.475,152.135z"/>
	<path fill-rule="evenodd" clip-rule="evenodd" fill="#C13A39" d="M36.923,144.576c1.339,0.083,2.674,0.156,2.835-0.944
		c2.129,0.702,0.368,5.301,0.944,7.558c0,0.315,0,0.631,0,0.946c-1.576,0-3.149,0-4.724,0
		C36.553,149.875,34.792,145.28,36.923,144.576z"/>
	<path fill-rule="evenodd" clip-rule="evenodd" fill="#C13A39" d="M132.352,152.135c0-2.834,0-5.67,0-8.504
		c1.664,0.826,2.925,3.161,3.779,0c2.143,1.004,0.358,5.938,0.945,8.504C135.501,152.135,133.926,152.135,132.352,152.135z"/>
	<path fill-rule="evenodd" clip-rule="evenodd" fill="#C13A39" d="M148.415,152.135c0-2.834,0-5.67,0-8.504
		c1.664,0.826,2.923,3.161,3.778,0c2.142,1.004,0.358,5.938,0.944,8.504C151.563,152.135,149.987,152.135,148.415,152.135z"/>
	<path fill-rule="evenodd" clip-rule="evenodd" fill="#C46936" d="M66.213,176.7c-13.227,0-26.455,0-39.684,0
		c0.622-7.878-1.251-18.257,0.945-24.564c0,7.558,0,15.117,0,22.677c11.026,2.201,26.136,0.315,38.738,0.943
		C66.213,176.069,66.213,176.384,66.213,176.7z"/>
	<path fill-rule="evenodd" clip-rule="evenodd" fill="#C46936" d="M153.138,152.135c-1.021,1.504,4.338,21.171,0.945,24.564
		c-4.561,4.56-33.426-3.5-39.683,0c0-0.315,0-0.631,0-0.944c12.911,0,25.824,0,38.737,0
		C153.138,167.881,153.138,160.008,153.138,152.135z"/>
	<path fill-rule="evenodd" clip-rule="evenodd" fill="#919890" d="M76.606,59.541c-0.244-4.569,4.189-7.138,6.613-3.78
		C84.154,40,90.965,25.087,88.889,9.465c0.013-1.24,2.621-1.204,2.835,0c-1.761,14.988,4.313,30.326,5.668,45.351
		c1.217-0.208,6.404-1.501,6.615,3.781c-0.806,0.172-0.892-0.37-0.944-0.947c-0.945,0-1.891,0-2.835,0
		c-3.777-0.93-5.673-0.93-9.449,0c-0.315,0-0.63,0-0.945,0c-5.436-0.351-7.24-1.199-9.448,0c-1.897-0.319-2.956,0.194-2.833,1.891
		C77.234,59.541,76.92,59.541,76.606,59.541z"/>
	<path fill-rule="evenodd" clip-rule="evenodd" fill="#C13A39" d="M76.606,62.376c0-0.946,0-1.89,0-2.836c0.313,0,0.628,0,0.945,0
		c-0.123-1.696,0.936-2.21,2.833-1.891c4.358,2.901,3.319,16.191,1.891,21.733c-1.931-2.246-3.741,1.297-5.669-0.946
		c0-1.259,0-2.52,0-3.779C78.173,72.72,78.173,64.314,76.606,62.376z"/>
	<path fill-rule="evenodd" clip-rule="evenodd" fill="#C46936" d="M100.228,57.65c-4.231,3.52-3.233,15.037-1.89,22.677
		c-1.416,0.161-3.488-0.336-3.78,0.944c-1.787-1.874-4.464-0.458-6.614,0c-0.87-3.704,4.983-0.686,5.671-2.834
		c-0.373-4.705,2.015-17.699-2.836-20.787C94.555,56.72,96.45,56.72,100.228,57.65z"/>
	<path fill-rule="evenodd" clip-rule="evenodd" fill="#6D3720" d="M99.282,84.108c0.629,0,1.259,0,1.89,0c0,3.463,0,6.926,0,10.393
		C96.386,92.836,99.256,86.976,99.282,84.108z"/>
	<path fill-rule="evenodd" clip-rule="evenodd" fill="#EAB886" d="M91.724,100.167c0.216,9.825,6.178,3.646-1.891,9.45
		c0.322-1.897-0.193-2.957-1.89-2.837C91.447,106.822,87.821,99.731,91.724,100.167z"/>
	<path fill-rule="evenodd" clip-rule="evenodd" fill="#F1EFEA" d="M72.827,125.678c0.386-2.276-1.729-2.054-0.945-4.724
		c2.82-5.996-0.933-18.566,1.89-24.564c0,0.313,0,0.629,0,0.944c0,9.446,0,18.896,0,28.344
		C73.456,125.678,73.141,125.678,72.827,125.678z"/>
	<path fill-rule="evenodd" clip-rule="evenodd" fill="#F1EFEA" d="M108.73,120.955c0.78,2.67-1.333,2.447-0.944,4.724
		c-0.315,0-0.632,0-0.945,0c0-9.447,0-18.897,0-28.344c0-0.315,0-0.632,0-0.944C109.661,102.388,105.909,114.958,108.73,120.955z"/>
	<path fill-rule="evenodd" clip-rule="evenodd" fill="#EAD3B9" d="M67.157,141.742c-1.57-3.18-1.57-12.883,0-16.063
		C67.157,131.033,67.157,136.387,67.157,141.742z"/>
	<path fill-rule="evenodd" clip-rule="evenodd" fill="#AF875F" d="M35.033,152.135c0.213-2.369-0.993-10.986,1.89-7.56
		c-2.131,0.704-0.37,5.3-0.944,7.56C35.663,152.135,35.347,152.135,35.033,152.135z"/>
	<path fill-rule="evenodd" clip-rule="evenodd" fill="#AF875F" d="M63.378,144.576c2.881-3.427,1.676,5.19,1.89,7.56
		c-0.577-0.055-1.12-0.142-0.944-0.946C63.762,149.233,65.49,144.983,63.378,144.576z"/>
	<path fill-rule="evenodd" clip-rule="evenodd" fill="#AF875F" d="M115.344,152.135c0.212-2.369-0.992-10.986,1.89-7.56
		c-2.086,0.118-0.4,4.01-0.944,5.669C116.076,150.978,116.262,152.109,115.344,152.135z"/>
	<path fill-rule="evenodd" clip-rule="evenodd" fill="#C13A39" d="M139.91,152.135c0-2.834,0-5.67,0-8.504
		c1.693-0.12,1.992,1.157,3.78,0.944c2.129,0.704,0.368,5.3,0.943,7.56C143.059,152.135,141.484,152.135,139.91,152.135z"/>
	<path fill-rule="evenodd" clip-rule="evenodd" fill="#C13A39" d="M44.483,143.631c0.149,1.107,1.721,0.797,2.832,0.944
		c2.112,0.407,0.383,4.657,0.946,6.613c-1.099,0.792-2.534,1.247-4.725,0.946C44.121,149.57,42.338,144.635,44.483,143.631z"/>
	<path fill-rule="evenodd" clip-rule="evenodd" fill="#C13A39" d="M52.986,144.576c1.339,0.083,2.673,0.156,2.833-0.944
		c2.086,0.118,0.4,4.008,0.945,5.67c0,0.943,0,1.888,0,2.834c-1.576,0-3.15,0-4.724,0C52.615,149.875,50.854,145.28,52.986,144.576z
		"/>
	<path fill-rule="evenodd" clip-rule="evenodd" fill="#C13A39" d="M59.6,152.135c0.584-2.565-1.2-7.5,0.944-8.504
		c0.15,1.107,1.723,0.797,2.834,0.944c2.112,0.407,0.384,4.657,0.945,6.613c-0.577,0.055-1.119,0.143-0.945,0.946
		C62.118,152.135,60.857,152.135,59.6,152.135z"/>
	<path fill-rule="evenodd" clip-rule="evenodd" fill="#EAD3B9" d="M113.455,125.678c1.57,5.059,1.57,16.676,0,21.733
		C113.455,140.165,113.455,132.922,113.455,125.678z"/>
	<path fill-rule="evenodd" clip-rule="evenodd" fill="#C13A39" d="M123.848,152.135c0-2.834,0-5.67,0-8.504
		c0.573,1.632,4.48-0.072,4.725,1.891c0,2.202,0,4.408,0,6.613C126.997,152.135,125.422,152.135,123.848,152.135z"/>
	<path fill-rule="evenodd" clip-rule="evenodd" fill="#D9A762" d="M51.097,152.135c0.212-2.369-0.994-10.986,1.89-7.56
		c-2.132,0.704-0.371,5.3-0.945,7.56C51.724,152.135,51.409,152.135,51.097,152.135z"/>
	<path fill-rule="evenodd" clip-rule="evenodd" fill="#C13A39" d="M116.289,150.245c0.544-1.659-1.142-5.551,0.944-5.669
		c1.36,1.058,2.306,1.02,2.836-0.944c2.144,1.004,0.357,5.938,0.945,8.504C118.001,152.942,117.426,151.313,116.289,150.245z"/>
	<path fill-rule="evenodd" clip-rule="evenodd" fill="#AF875F" d="M143.69,144.576c2.881-3.427,1.674,5.19,1.89,7.56
		c-0.316,0-0.631,0-0.946,0C144.059,149.875,145.819,145.28,143.69,144.576z"/>
	<path fill-rule="evenodd" clip-rule="evenodd" fill="#A21103" d="M43.537,152.135c2.19,0.301,3.626-0.154,4.725-0.946
		c-0.176,0.805,0.366,0.892,0.944,0.946c0.629,0,1.258,0,1.891,0c0.313,0,0.627,0,0.944,0c1.573,0,3.147,0,4.724,0
		c0.945,0,1.89,0,2.835,0c1.258,0,2.519,0,3.778,0c-0.174-0.804,0.368-0.892,0.945-0.946c-0.176,0.805,0.367,0.892,0.944,0.946
		c0.315,0,0.63,0,0.945,0c2.413,1.893-0.248,9.903,0.944,10.394c0.03,4.686-0.254,11.5,0.945,12.283c0,0.313,0,0.629,0,0.943
		c-0.63,0-1.26,0-1.89,0c-12.603-0.628-27.712,1.258-38.738-0.943c0-7.56,0-15.119,0-22.677c2.19,0.301,3.626-0.154,4.725-0.946
		c0.151,1.107,1.722,0.799,2.834,0.946c0.313,0,0.63,0,0.945,0c1.574,0,3.147,0,4.724,0
		C41.647,152.135,42.592,152.135,43.537,152.135z"/>
	<path fill-rule="evenodd" clip-rule="evenodd" fill="#EAB886" d="M49.206,152.135c-0.578-0.055-1.12-0.142-0.944-0.946
		c-0.563-1.956,1.166-6.206-0.946-6.613C50.196,141.149,48.991,149.766,49.206,152.135z"/>
	<path fill-rule="evenodd" clip-rule="evenodd" fill="#A21103" d="M114.4,152.135c0.313,0,0.629,0,0.943,0
		c0.918-0.026,0.732-1.157,0.945-1.891c1.137,1.068,1.712,2.697,4.726,1.891c0.313,0,0.628,0,0.944,0c0.313,0,0.628,0,0.945,0
		c0.313,0,0.628,0,0.943,0c1.574,0,3.149,0,4.725,0c0.314,0,0.63,0,0.945,0c0.945,0,1.89,0,2.834,0c1.574,0,3.149,0,4.725,0
		c0.944,0,1.89,0,2.834,0c1.574,0,3.148,0,4.724,0c0.315,0,0.63,0,0.946,0c0.944,0,1.89,0,2.835,0c1.572,0,3.147,0,4.723,0
		c0,7.873,0,15.746,0,23.62c-12.913,0-25.826,0-38.737,0c-0.316,0-0.632,0-0.945,0c0-0.314,0-0.63,0-0.943c0-4.095,0-8.19,0-12.283
		C114.645,162.039,111.984,154.028,114.4,152.135z"/>
	<path fill-rule="evenodd" clip-rule="evenodd" fill="#6D3720" d="M79.44,84.108c0.498-0.762,0.985-1.535,0.944-2.837
		c1.96,1.769,4.182,13.146-0.944,13.229C79.44,91.034,79.44,87.571,79.44,84.108z"/>
	<path fill-rule="evenodd" clip-rule="evenodd" fill="#934B23" d="M94.558,81.271c0.734,0.214,1.862,0.026,1.889,0.945
		c-3.489-0.604-9.412,1.225-11.337-0.945c0.945,0,1.891,0,2.834,0C90.094,80.813,92.771,79.397,94.558,81.271z"/>
	<path fill-rule="evenodd" clip-rule="evenodd" fill="#C13A39" d="M67.157,125.678c1.891,0,3.779,0,5.67,0c0.313,0,0.629,0,0.944,0
		c11.023,0,22.045,0,33.069,0c0.313,0,0.63,0,0.945,0c1.89,0,3.779,0,5.669,0c0,7.244,0,14.486,0,21.733
		c0.517,1.373-1.106,4.882,0.945,4.724c-2.416,1.893,0.244,9.903-0.945,10.394c-15.434,0-30.866,0-46.298,0
		c-1.192-0.49,1.469-8.501-0.944-10.394c2.161-1.619,0.345-7.212,0.944-10.394C67.157,136.387,67.157,131.033,67.157,125.678z"/>
</g>
</svg>
