<?xml version="1.0" encoding="utf-8"?>
<!-- Generator: Adobe Illustrator 14.0.0, SVG Export Plug-In . SVG Version: 6.00 Build 43363)  -->
<!DOCTYPE svg PUBLIC "-//W3C//DTD SVG 1.1//EN" "http://www.w3.org/Graphics/SVG/1.1/DTD/svg11.dtd">
<svg version="1.1" id="Layer_1" xmlns="http://www.w3.org/2000/svg" xmlns:xlink="http://www.w3.org/1999/xlink" x="0px" y="0px"
	 width="183.507px" height="183.506px" viewBox="0 0 183.507 183.506" enable-background="new 0 0 183.507 183.506"
	 xml:space="preserve">
<g>
	<path fill-rule="evenodd" clip-rule="evenodd" fill="#1F0B05" d="M173.041,39.35c-2.355,0-4.71,0-7.065,0
		c0.4-3.721,4.177-4.066,5.299-7.066C173.459,33.043,171.015,38.432,173.041,39.35z"/>
	<path fill-rule="evenodd" clip-rule="evenodd" fill="#D4DBDB" d="M71.47,36.7c0-0.295,0-0.588,0-0.883c5.594,0,11.187,0,16.781,0
		c0,0.294,0,0.588,0,0.883c-4.416,0-8.832,0-13.249,0C73.823,36.7,72.648,36.7,71.47,36.7z"/>
	<path fill-rule="evenodd" clip-rule="evenodd" fill="#3F5751" d="M61.754,36.7c3.238,0,6.478,0,9.716,0c1.179,0,2.354,0,3.532,0
		C72.611,38.167,64.145,38.167,61.754,36.7z"/>
	<path fill-rule="evenodd" clip-rule="evenodd" fill="#3F5751" d="M51.154,41.116c3.556,0.567,9.392-1.148,11.483,0.884
		C59.082,41.432,53.246,43.147,51.154,41.116z"/>
	<path fill-rule="evenodd" clip-rule="evenodd" fill="#3F5751" d="M89.135,42c1.51-2.022,6.74-0.325,9.714-0.884
		C97.338,43.137,92.107,41.439,89.135,42z"/>
	<path fill-rule="evenodd" clip-rule="evenodd" fill="#B0B1B1" d="M80.302,56.13c0.295,0,0.588,0,0.883,0c0,3.828,0,7.655,0,11.482
		c-0.295,0-0.588,0-0.883,0C80.302,63.786,80.302,59.958,80.302,56.13z"/>
	<path fill-rule="evenodd" clip-rule="evenodd" fill="#1F0B05" d="M81.185,56.13c1.467,1.812,1.467,9.671,0,11.482
		C81.185,63.786,81.185,59.958,81.185,56.13z"/>
	<path fill-rule="evenodd" clip-rule="evenodd" fill="#1F0B05" d="M88.251,56.13c0,3.828,0,7.655,0,11.482
		C86.784,65.801,86.784,57.942,88.251,56.13z"/>
	<path fill-rule="evenodd" clip-rule="evenodd" fill="#666A62" d="M88.251,56.13c0.295,0,0.587,0,0.884,0c0,3.828,0,7.655,0,11.482
		c-0.297,0-0.589,0-0.884,0C88.251,63.786,88.251,59.958,88.251,56.13z"/>
	<path fill-rule="evenodd" clip-rule="evenodd" fill="#6D3720" d="M53.806,77.328c0-0.294,0-0.588,0-0.883
		c3.556,0.567,9.391-1.148,11.48,0.883c-1.471,0-2.943,0-4.416,0C58.517,77.328,56.159,77.328,53.806,77.328z"/>
	<path fill-rule="evenodd" clip-rule="evenodd" fill="#F1EFEA" d="M60.87,77.328c1.473,0,2.945,0,4.416,0
		c11.188,0,22.377,0,33.563,0c1.179,0,2.356,0,3.533,0C90.602,78.799,72.651,78.799,60.87,77.328z"/>
	<path fill-rule="evenodd" clip-rule="evenodd" fill="#A21103" d="M17.593,96.759c1.979-2.962,10.027-1.163,12.365,0
		c-0.884,0-1.767,0-2.649,0c-2.354,0-4.712,0-7.066,0c-0.295,0-0.588,0-0.884,0C18.771,96.759,18.181,96.759,17.593,96.759z"/>
	<path fill-rule="evenodd" clip-rule="evenodd" fill="#A21103" d="M97.967,96.759c1.602-3.269,12.597-2.17,12.365,0
		c-0.589,0-1.179,0-1.768,0c-0.295,0-0.588,0-0.883,0c-2.649,0-5.3,0-7.949,0c-0.295,0-0.589,0-0.884,0S98.262,96.759,97.967,96.759
		z"/>
	<path fill-rule="evenodd" clip-rule="evenodd" fill="#A21103" d="M59.987,101.175c-0.114-1.585,0.877-2.067,2.65-1.767
		c1.511,2.021,6.741,0.324,9.715,0.883c0.631,2.398-4.164-0.631-3.532,1.768c-3.984-0.639-4.409,0.285-7.066-0.884
		C61.166,101.175,60.576,101.175,59.987,101.175z"/>
	<path fill-rule="evenodd" clip-rule="evenodd" fill="#541407" d="M62.638,99.409c3.237,0,6.477,0,9.715,0c0,0.295,0,0.589,0,0.883
		C69.379,99.733,64.148,101.43,62.638,99.409z"/>
	<path fill-rule="evenodd" clip-rule="evenodd" fill="#A21103" d="M135.062,101.175c0-0.589,0-1.178,0-1.767
		c1.179,0,2.354,0,3.532,0c1.513,2.021,6.743,0.324,9.717,0.883c-0.149,1.029-1.397,0.96-2.649,0.884
		c-2.81,1.351-3.887,0.31-7.067,0C137.416,101.175,136.24,101.175,135.062,101.175z"/>
	<path fill-rule="evenodd" clip-rule="evenodd" fill="#541407" d="M138.594,99.409c3.239,0,6.478,0,9.717,0c0,0.295,0,0.589,0,0.883
		C145.337,99.733,140.106,101.43,138.594,99.409z"/>
	<path fill-rule="evenodd" clip-rule="evenodd" fill="#B0B1B1" d="M32.607,55.247c4.121,0,8.245,0,12.365,0
		c0.534,1.821-1.426,6.137,1.767,5.3c0,0.295,0,0.588,0,0.883c-3.164,0.514-2.687-2.614-2.649-5.3
		C40.533,55.564,34.698,57.28,32.607,55.247z"/>
	<path fill-rule="evenodd" clip-rule="evenodd" fill="#F1EFEA" d="M26.425,154.168c0.752,0.163,0.833-0.345,0.884-0.883
		c2.724,2.215-8.459,2.65-9.716,0.883c0.294,0,0.588,0,0.883,0C21.126,154.168,23.775,154.168,26.425,154.168z"/>
	<path fill-rule="evenodd" clip-rule="evenodd" fill="#AF875F" d="M27.309,144.454c2.38-2.035,8.519-0.314,12.365-0.884
		c-0.526,1.83,1.092,5.802-0.884,6.183c0-1.766,0-3.533,0-5.299C34.962,144.454,31.137,144.454,27.309,144.454z"/>
	<path fill-rule="evenodd" clip-rule="evenodd" fill="#F1EFEA" d="M67.053,154.168c1.255,0.076,2.502,0.146,2.65-0.883
		c2.724,2.215-8.458,2.65-9.716,0.883c0.295,0,0.589,0,0.883,0C62.933,154.168,64.992,154.168,67.053,154.168z"/>
	<path fill-rule="evenodd" clip-rule="evenodd" fill="#F1EFEA" d="M69.703,107.358c0-0.295,0-0.59,0-0.883
		c3.696-1.242,4.433,10.241,0,8.832c0-0.295,0-0.589,0-0.883c3.026,0.896,2.103-6.636,0.883-7.066
		C70.292,107.358,69.998,107.358,69.703,107.358z"/>
	<path fill-rule="evenodd" clip-rule="evenodd" fill="#F1EFEA" d="M97.967,140.038c-0.195,0.688-0.741,1.026-1.767,0.883
		c-1.459,0.393-1.459,6.674,0,7.066c-2.293,2.52-1.789-5.227-1.767-7.949C95.611,140.038,96.787,140.038,97.967,140.038z"/>
	<path fill-rule="evenodd" clip-rule="evenodd" fill="#F1EFEA" d="M97.083,153.286c-1.667,5.787,5.414,2.83,8.833,3.533
		c0.294,0,0.587,0,0.882,0C104.342,158.924,92.375,158.344,97.083,153.286z"/>
	<path fill-rule="evenodd" clip-rule="evenodd" fill="#F1EFEA" d="M145.661,147.987c0.293,0,0.588,0,0.884,0
		c2.659,8.271-3.467,12.411-9.716,8.832C144.382,158.483,147.325,155.54,145.661,147.987z"/>
	<path fill-rule="evenodd" clip-rule="evenodd" fill="#C13A39" d="M53.806,97.642c-1.263,6.856,0.48,10.706,7.948,8.833
		c-0.94,2.004-5.552,0.336-7.948,0.883C52.675,105.788,52.104,99.118,53.806,97.642z"/>
	<path fill-rule="evenodd" clip-rule="evenodd" fill="#D81E07" d="M128.879,140.038c0.296,0,0.588,0,0.884,0
		c0.656,1.991,4.954,0.346,7.066,0.883c1.636-1.896,0.594-6.47,0.883-9.715c0-3.828,0-7.655,0-11.482c0-1.178,0-2.355,0-3.533
		c-1.512-2.021-6.742-0.324-9.716-0.883c0-2.355,0-4.711,0-7.066c3.237,0,6.478,0,9.716,0c1.991-0.657,0.344-4.953,0.882-7.065
		c3.181,0.31,4.258,1.351,7.067,0c0,12.954,0,25.907,0,38.862c1.326,1.432,1.326,6.517,0,7.949
		c1.664,7.553-1.279,10.496-8.832,8.832c0-2.945,0-5.889,0-8.832c-0.658-1.992-4.955-0.346-7.066-0.884
		C129.658,144.559,130.245,141.321,128.879,140.038z"/>
	<path fill-rule="evenodd" clip-rule="evenodd" fill="#92704C" d="M29.958,67.613c5.397-0.785,14.172,1.807,16.781-1.767
		c-0.139,1.039,0.152,2.507-0.884,2.649c-5.299,0-10.599,0-15.897,0C29.958,68.202,29.958,67.907,29.958,67.613z"/>
	<path fill-rule="evenodd" clip-rule="evenodd" fill="#E85052" d="M18.476,104.708c2.005-0.939,0.337-5.551,0.883-7.948
		c0.296,0,0.589,0,0.884,0C20.265,99.483,20.77,107.227,18.476,104.708z"/>
	<path fill-rule="evenodd" clip-rule="evenodd" fill="#C13A39" d="M105.916,156.819c1.158-5.024-0.132-12.496,8.831-9.716
		c0,0.295,0,0.589,0,0.884c-2.354,0-4.711,0-7.065,0c-0.554,2.684,1.131,7.607-0.884,8.832
		C106.503,156.819,106.21,156.819,105.916,156.819z"/>
	<path fill-rule="evenodd" clip-rule="evenodd" fill="#F1EFEA" d="M145.661,101.175c1.252,0.076,2.5,0.146,2.649-0.884
		c0-0.294,0-0.588,0-0.883c0.294,0,0.589,0,0.884,0c-4.953,8.637-2.512,29.229-1.767,40.629c-0.59,0-1.179,0-1.767,0
		C145.661,127.083,145.661,114.129,145.661,101.175z"/>
	<path fill-rule="evenodd" clip-rule="evenodd" fill="#E85052" d="M147.428,140.038c-0.181,2.764,0.595,6.483-0.883,7.949
		c-0.296,0-0.591,0-0.884,0c1.326-1.433,1.326-6.518,0-7.949C146.249,140.038,146.838,140.038,147.428,140.038z"/>
	<path fill-rule="evenodd" clip-rule="evenodd" fill="#D9A762" d="M17.593,154.168c1.258-6.283-2.519-12.176,0-16.781
		c-0.105,5.994,1.53,10.246,0.883,16.781C18.181,154.168,17.887,154.168,17.593,154.168z"/>
	<path fill-rule="evenodd" clip-rule="evenodd" fill="#666A62" d="M98.849,35.817c30.249-1.548,56.242-7.351,81.258-14.132
		c0.041,2.693-0.803,4.497-2.649,5.299c-23.702,7.212-48.636,13.193-78.608,14.132c-2.974,0.559-8.204-1.138-9.714,0.884
		c-8.833,0-17.665,0-26.497,0c-2.092-2.032-7.928-0.316-11.483-0.884c-16.276,1.069-33.617-5.57-45.043-3.533
		c3.313-2.471-0.576-4.309-0.884-7.949c17.808,2.506,35.212,5.417,54.76,6.183c0.024,0.859,1.081,0.685,1.767,0.883
		c2.391,1.467,10.857,1.467,13.248,0c4.417,0,8.833,0,13.249,0C91.514,36.136,97.048,37.844,98.849,35.817z"/>
	<path fill-rule="evenodd" clip-rule="evenodd" fill="#35332B" d="M177.457,26.984c-0.467,0.711-0.923,1.435-0.883,2.65
		c-2.015,1.224-0.33,6.147-0.883,8.832c-0.143,1.035-1.611,0.745-2.65,0.883c-2.026-0.918,0.418-6.307-1.767-7.066
		c-1.122,3-4.898,3.345-5.299,7.066c-0.59,0-1.178,0-1.767,0c-44.277,7.167-103.547,10.307-151.032,3.533
		c-2.489-1.633-8.263,0.02-10.6-1.767c0.799-1.557,1.976-2.735,3.534-3.533c11.426-2.038,28.767,4.602,45.043,3.533
		c2.092,2.032,7.928,0.316,11.483,0.884c8.832,0,17.664,0,26.497,0c2.973-0.56,8.203,1.138,9.714-0.884
		C128.821,40.177,153.755,34.196,177.457,26.984z"/>
	<path fill-rule="evenodd" clip-rule="evenodd" fill="#919890" d="M175.691,38.466c0.553-2.685-1.132-7.608,0.883-8.832
		C176.018,32.318,177.704,37.241,175.691,38.466z"/>
	<path fill-rule="evenodd" clip-rule="evenodd" fill="#B0B1B1" d="M59.987,35.817c3.828,0,7.654,0,11.482,0c0,0.294,0,0.588,0,0.883
		c-3.238,0-6.478,0-9.716,0C61.068,36.502,60.012,36.676,59.987,35.817z"/>
	<path fill-rule="evenodd" clip-rule="evenodd" fill="#919890" d="M88.251,35.817c3.532,0,7.065,0,10.598,0
		c-1.801,2.027-7.335,0.319-10.598,0.883C88.251,36.405,88.251,36.111,88.251,35.817z"/>
	<path fill-rule="evenodd" clip-rule="evenodd" fill="#B0B1B1" d="M125.347,61.43c0.194-0.688,0.739-1.027,1.767-0.883
		c1.992-0.658,0.344-4.954,0.883-7.066c2.649,0,5.299,0,7.949,0c-0.657,1.992-4.954,0.345-7.066,0.884
		C128.772,57.791,129.95,62.502,125.347,61.43z"/>
	<path fill-rule="evenodd" clip-rule="evenodd" fill="#92704C" d="M70.586,55.247c3.264,0.564,8.798-1.143,10.599,0.883
		c-0.295,0-0.588,0-0.883,0c-3.238,0-6.479,0-9.716,0C70.586,55.836,70.586,55.542,70.586,55.247z"/>
	<path fill-rule="evenodd" clip-rule="evenodd" fill="#919890" d="M89.135,56.13c2.67-2.038,9.108-0.311,13.247-0.883
		C99.711,57.286,93.272,55.559,89.135,56.13z"/>
	<path fill-rule="evenodd" clip-rule="evenodd" fill="#541407" d="M135.945,53.481c-2.65,0-5.3,0-7.949,0
		c-0.539,2.112,1.109,6.408-0.883,7.066c-1.027-0.144-1.572,0.195-1.767,0.883c0,0.588,0,1.177,0,1.766
		c-2.122-4.29-7.525-4.964-7.949,0.883c0.607-4.141-3.101-3.965-1.767-8.833c-4.416,0-8.833,0-13.249,0
		c-4.139,0.572-10.577-1.155-13.247,0.883c-0.297,0-0.589,0-0.884,0c-1.467,1.812-1.467,9.671,0,11.482c0.295,0,0.587,0,0.884,0
		c3.263,1.468,12.633,1.468,15.897,0c4.121,0,8.244,0,12.365,0c0.081,3.9-1.542,5.299,0,8.832c-0.589,0-1.179,0-1.767,0
		c-5.31,0.578-12.94-1.163-16.782,0.883c-11.186,0-22.375,0-33.563,0c-2.09-2.031-7.925-0.316-11.48-0.883
		c1.095-2.658,0.053-3.941,0.883-7.949c8.542-0.584,19.424,1.172,26.496-0.883c1.467-1.812,1.467-9.671,0-11.482
		c-1.801-2.026-7.335-0.319-10.599-0.883c-4.139,0.572-10.576-1.155-13.249,0.883c0,1.472,0,2.945,0,4.417c-0.882,0-1.766,0-2.648,0
		c-0.295,0-0.589,0-0.883,0c-3.236,0.653-4.909-2.172-7.066,0c-3.192,0.837-1.232-3.479-1.767-5.3c-4.12,0-8.244,0-12.365,0
		c-3.533,0-7.065,0-10.599,0c0.236-3.179-1.633-4.256-1.767-7.065c-2.638-1.484-7.737-0.506-7.065-5.299
		c47.485,6.774,106.755,3.634,151.032-3.533c1.165,5.582-3.065,5.769-7.948,5.299c-1.324,1.916-1.507,4.972-1.768,7.949
		C148.118,52.7,142.999,54.059,135.945,53.481z"/>
	<path fill-rule="evenodd" clip-rule="evenodd" fill="#FFFFFF" d="M57.337,56.13c4.417,0,8.832,0,13.249,0c3.237,0,6.478,0,9.716,0
		c0,3.828,0,7.655,0,11.482c-8.537,0-17.076,0-25.613,0c0-2.355,0-4.711,0-7.066c0.883,0,1.767,0,2.648,0
		C57.337,59.075,57.337,57.603,57.337,56.13z"/>
	<path fill-rule="evenodd" clip-rule="evenodd" fill="#92704C" d="M144.778,66.729c1.223-2.014,6.146-0.33,8.831-0.883
		C152.385,67.86,147.462,66.175,144.778,66.729z"/>
	<path fill-rule="evenodd" clip-rule="evenodd" fill="#934B23" d="M125.347,66.729c3.238,0,6.478,0,9.715,0
		c-1.511,2.021-6.742,0.324-9.715,0.883C125.347,67.318,125.347,67.024,125.347,66.729z"/>
	<path fill-rule="evenodd" clip-rule="evenodd" fill="#934B23" d="M21.126,68.496c1.225-2.014,6.147-0.329,8.832-0.883
		c0,0.294,0,0.589,0,0.883C27.013,68.496,24.071,68.496,21.126,68.496z"/>
	<path fill-rule="evenodd" clip-rule="evenodd" fill="#AF875F" d="M54.688,60.547c0,2.355,0,4.711,0,7.066
		c8.537,0,17.076,0,25.613,0c0.295,0,0.588,0,0.883,0c-7.072,2.055-17.954,0.299-26.496,0.883c-2.005-0.939-0.338-5.552-0.883-7.949
		C54.1,60.547,54.394,60.547,54.688,60.547z"/>
	<path fill-rule="evenodd" clip-rule="evenodd" fill="#6D3720" d="M89.135,67.613c5.299,0,10.598,0,15.897,0
		C101.768,69.081,92.397,69.081,89.135,67.613z"/>
	<path fill-rule="evenodd" clip-rule="evenodd" fill="#541407" d="M25.542,76.445c-5.115,0.994-4.23-4.014-4.416-7.949
		c2.945,0,5.887,0,8.832,0c5.299,0,10.599,0,15.897,0c0,2.65,0,5.3,0,7.949c-2.944,0-5.888,0-8.831,0
		C33.195,76.445,29.37,76.445,25.542,76.445z"/>
	<path fill-rule="evenodd" clip-rule="evenodd" fill="#6D3720" d="M139.477,76.445c2.382-2.035,8.521-0.313,12.368-0.883
		C149.462,77.597,143.325,75.875,139.477,76.445z"/>
	<path fill-rule="evenodd" clip-rule="evenodd" fill="#B0B1B1" d="M25.542,76.445c3.828,0,7.653,0,11.482,0c0,0.295,0,0.589,0,0.883
		C33.468,76.761,27.633,78.477,25.542,76.445z"/>
	<path fill-rule="evenodd" clip-rule="evenodd" fill="#6D3720" d="M98.849,77.328c3.842-2.046,11.473-0.305,16.782-0.883
		c0,0.295,0,0.589,0,0.883c-4.416,0-8.833,0-13.249,0C101.205,77.328,100.027,77.328,98.849,77.328z"/>
	<path fill-rule="evenodd" clip-rule="evenodd" fill="#541407" d="M139.477,76.445c-4.307,0.992-13.006-2.408-13.247,2.65
		c-1.675-2.01,1.513-8.38-0.883-11.482c2.973-0.56,8.204,1.138,9.715-0.883c3.238,0,6.478,0,9.717,0
		c2.684-0.554,7.606,1.13,8.831-0.883c0.589,0,1.178,0,1.767,0c-1.361,3.054,0.455,9.289-3.531,9.716
		C147.997,76.132,141.858,74.41,139.477,76.445z"/>
	<path fill-rule="evenodd" clip-rule="evenodd" fill="#92704C" d="M45.855,76.445c-0.483,1.284,1.033,4.565-0.883,4.417
		c1.668-5.495-4.647-3.007-7.948-3.533c0-0.294,0-0.588,0-0.883C39.968,76.445,42.911,76.445,45.855,76.445z"/>
	<path fill-rule="evenodd" clip-rule="evenodd" fill="#C46936" d="M117.397,76.445c-0.573,4.139,1.156,10.576-0.884,13.249
		c-0.569-3.846,1.153-9.984-0.883-12.365c0-0.294,0-0.588,0-0.883C116.219,76.445,116.809,76.445,117.397,76.445z"/>
	<path fill-rule="evenodd" clip-rule="evenodd" fill="#1F0B05" d="M29.958,96.759c-2.338-1.163-10.386-2.962-12.365,0
		c-2.116,0.35,0.489-4.022-2.649-2.649c5.191-4.168,11.808-1.746,17.664,0c-0.575,0.898-2.029,0.913-1.767,2.649
		C30.547,96.759,30.253,96.759,29.958,96.759z"/>
	<path fill-rule="evenodd" clip-rule="evenodd" fill="#1F0B05" d="M110.332,96.759c0.231-2.17-10.764-3.269-12.365,0
		c-2.117,0.35,0.49-4.022-2.65-2.649c5.772-3.747,12.174-1.871,18.548,0c0.352,2.116-4.022-0.49-2.649,2.649
		C110.921,96.759,110.626,96.759,110.332,96.759z"/>
	<path fill-rule="evenodd" clip-rule="evenodd" fill="#D81E07" d="M20.242,96.759c2.354,0,4.712,0,7.066,0c0,2.944,0,5.888,0,8.832
		c5.299,0,10.599,0,15.897,0c-0.534,2.115-1.27,4.03-0.883,7.065c-1.179,0-2.355,0-3.533,0c-3.828,0-7.653,0-11.481,0
		c-2.053,6.19-0.301,16.188-0.884,23.848c2.903,1.809,8.944,0.477,13.249,0.883c0,2.061,0,4.122,0,6.183
		c-3.847,0.569-9.985-1.151-12.365,0.884c-2.022,1.512-0.324,6.741-0.884,9.715c-2.649,0-5.299,0-7.949,0
		c0.647-6.535-0.988-10.787-0.883-16.781c0.467-0.71,0.921-1.434,0.883-2.649c2.052-5.31,0.303-14.419,0.883-21.198
		c0-0.293,0-0.588,0-0.883c-2.482-0.756-1.701-4.775-1.766-7.949c0.294,0,0.588,0,0.883,0
		C20.77,107.227,20.265,99.483,20.242,96.759z"/>
	<path fill-rule="evenodd" clip-rule="evenodd" fill="#C46936" d="M97.083,106.475c2.869-0.96,1.456-6.199,1.766-9.716
		c0.295,0,0.589,0,0.884,0C98.759,99.909,102.127,107.397,97.083,106.475z"/>
	<path fill-rule="evenodd" clip-rule="evenodd" fill="#EAB886" d="M108.564,96.759c-0.553,2.685,1.131,7.607-0.883,8.832
		c0-2.944,0-5.888,0-8.832C107.977,96.759,108.27,96.759,108.564,96.759z"/>
	<path fill-rule="evenodd" clip-rule="evenodd" fill="#1F0B05" d="M59.987,101.175c-2.117,0.351,0.49-4.022-2.65-2.649
		c6.033-3.683,11.148-1.546,17.665,0c-0.024,0.859-1.081,0.685-1.767,0.883c-0.295,0-0.587,0-0.883,0c-3.238,0-6.478,0-9.715,0
		C60.864,99.108,59.873,99.59,59.987,101.175z"/>
	<path fill-rule="evenodd" clip-rule="evenodd" fill="#E85052" d="M73.235,99.409c0,0.883,0,1.767,0,2.65
		c-3.697-1.049-3.954,1.344-3.532,4.416c0,0.293,0,0.588,0,0.883c-1.95-0.109-0.374-3.747-0.883-5.299
		c-0.632-2.398,4.163,0.631,3.532-1.768c0-0.294,0-0.588,0-0.883C72.648,99.409,72.94,99.409,73.235,99.409z"/>
	<path fill-rule="evenodd" clip-rule="evenodd" fill="#D81E07" d="M68.82,102.059c0.509,1.552-1.067,5.189,0.883,5.299
		c0.295,0,0.589,0,0.883,0c1.22,0.431,2.144,7.962-0.883,7.066c-0.295,0-0.589,0-0.883,0c0.582,7.072-1.17,16.478,0.883,22.08
		c2.812-0.972,2.812,8.037,0,7.065c-0.295,0-0.589,0-0.883,0c0,3.238,0,6.478,0,9.716c-1.027-0.143-1.572,0.195-1.768,0.883
		c-2.061,0-4.12,0-6.183,0c0-3.238,0-6.477,0-9.715c-0.939-2.004-5.551-0.336-7.948-0.884c0-2.354,0-4.711,0-7.065
		c2.354,0,4.711,0,7.065,0c1.916,0.148,0.4-3.133,0.883-4.416c2.049-4.135,0.304-12.061,0.884-17.664
		c-1.464-1.479-5.186-0.703-7.948-0.885c0-2.061,0-4.121,0-6.182c2.396-0.547,7.008,1.121,7.948-0.883c0-1.768,0-3.533,0-5.3
		C64.411,102.344,64.836,101.42,68.82,102.059z"/>
	<path fill-rule="evenodd" clip-rule="evenodd" fill="#D9A762" d="M107.682,106.475c2.944,0,5.887,0,8.832,0
		c-0.05,0.538-0.131,1.045-0.883,0.883C113.232,106.811,108.622,108.479,107.682,106.475z"/>
	<path fill-rule="evenodd" clip-rule="evenodd" fill="#E85052" d="M137.712,108.241c-0.456-2.489,1.576-7.465-2.65-6.182
		c0-0.295,0-0.59,0-0.884c1.179,0,2.354,0,3.532,0C138.056,103.288,139.703,107.583,137.712,108.241z"/>
	<path fill-rule="evenodd" clip-rule="evenodd" fill="#C46936" d="M19.358,112.657c-0.883,0-1.766,0-2.649,0
		c0.547-2.396-1.12-7.009,0.884-7.949C17.657,107.881,16.876,111.901,19.358,112.657z"/>
	<path fill-rule="evenodd" clip-rule="evenodd" fill="#F1EFEA" d="M27.309,112.657c3.828,0,7.653,0,11.481,0c0,0.295,0,0.59,0,0.883
		c-3.533,0-7.065,0-10.599,0c-0.582,6.779,1.168,15.889-0.883,21.198C27.309,127.377,27.309,120.017,27.309,112.657z"/>
	<path fill-rule="evenodd" clip-rule="evenodd" fill="#C46936" d="M53.806,113.54c2.763,0.182,6.484-0.595,7.948,0.885
		c-0.58,5.604,1.165,13.529-0.884,17.664c0-5.594,0-11.188,0-16.781c-3.914-3.28-8.348,0.451-7.948,4.416c0-2.061,0-4.121,0-6.184
		C53.217,113.54,53.511,113.54,53.806,113.54z"/>
	<path fill-rule="evenodd" clip-rule="evenodd" fill="#EAD3B9" d="M107.682,130.322c1.651-5.415-4.034-18.164,4.416-16.782
		c0,0.295,0,0.59,0,0.885c-0.883,0-1.766,0-2.649,0c-2.044,3.549-0.307,10.881-0.884,15.897
		C108.27,130.322,107.977,130.322,107.682,130.322z"/>
	<path fill-rule="evenodd" clip-rule="evenodd" fill="#E85052" d="M41.438,120.606c-0.617-2.618,1.848-8.322-2.648-7.066
		c0-0.293,0-0.588,0-0.883c1.178,0,2.354,0,3.533,0C41.776,115.054,43.444,119.667,41.438,120.606z"/>
	<path fill-rule="evenodd" clip-rule="evenodd" fill="#FFFFFF" d="M52.922,119.723c-0.399-3.965,4.034-7.696,7.948-4.416
		c0,5.594,0,11.188,0,16.781c-0.482,1.283,1.033,4.564-0.883,4.416c-2.354,0-4.711,0-7.065,0
		C52.922,130.911,52.922,125.317,52.922,119.723z"/>
	<path fill-rule="evenodd" clip-rule="evenodd" fill="#FFFFFF" d="M108.564,130.322c0.577-5.017-1.16-12.349,0.884-15.897
		c0.884,0,1.767,0,2.649,0c1.179,0,2.354,0,3.533,0c0,4.121,0,8.243,0,12.364c-2.035,2.382-0.314,8.519-0.884,12.365
		c0,0.294,0,0.589,0,0.884c-2.062,0-4.121,0-6.183,0C108.564,136.799,108.564,133.56,108.564,130.322z"/>
	<path fill-rule="evenodd" clip-rule="evenodd" fill="#E85052" d="M69.703,115.307c0,7.066,0,14.131,0,21.197
		c-2.053-5.603-0.301-15.008-0.883-22.08c0.294,0,0.588,0,0.883,0C69.703,114.718,69.703,115.012,69.703,115.307z"/>
	<path fill-rule="evenodd" clip-rule="evenodd" fill="#A21103" d="M115.631,126.789c0-4.121,0-8.243,0-12.364
		c-0.788-3.372,1.441-5.639,0-7.066c0.752,0.162,0.833-0.345,0.883-0.883c0-5.594,0-11.188,0-16.782
		c2.04-2.672,0.311-9.11,0.884-13.249c-1.542-3.533,0.081-4.932,0-8.832c0-1.178,0-2.355,0-3.533
		c0.424-5.848,5.827-5.173,7.949-0.883c0,1.178,0,2.355,0,3.533c0,0.294,0,0.589,0,0.883c2.396,3.102-0.792,9.472,0.883,11.482
		c0.114,10.19,0.446,20.161,1.767,29.146c0,2.355,0,4.711,0,7.066c-0.03,8.566,1.507,15.57,0.883,24.73
		c1.366,1.283,0.779,4.521,0.884,7.065c0,0.295,0,0.589,0,0.884c0,2.355,0,4.71,0,7.064c0,0.295,0,0.59,0,0.885
		c-5.005,0-10.011,0-15.016,0c0-2.65,0-5.3,0-7.949c0-0.295,0-0.589,0-0.884c0-2.062,0-4.122,0-6.183c0-0.295,0-0.588,0-0.883
		s0-0.59,0-0.884C116.782,136.773,115.062,130.635,115.631,126.789z"/>
	<path fill-rule="evenodd" clip-rule="evenodd" fill="#FFFFFF" d="M38.79,113.54c4.496-1.256,2.031,4.448,2.648,7.066
		c0.692,5.107-1.28,7.551-0.882,12.365c-1.035,0.143-0.745,1.61-0.883,2.65c-2.976,0.559-8.205-1.139-9.716,0.883
		c-1.773,0.301-2.765-0.182-2.649-1.767c2.051-5.31,0.301-14.419,0.883-21.198C31.725,113.54,35.257,113.54,38.79,113.54z"/>
	<path fill-rule="evenodd" clip-rule="evenodd" fill="#E85052" d="M98.849,115.307c-0.577,5.311,1.163,12.939-0.882,16.781
		C98.544,126.778,96.803,119.149,98.849,115.307z"/>
	<path fill-rule="evenodd" clip-rule="evenodd" fill="#C46936" d="M19.358,113.54c-0.58,6.779,1.169,15.889-0.883,21.198
		C19.058,127.959,17.309,118.85,19.358,113.54z"/>
	<path fill-rule="evenodd" clip-rule="evenodd" fill="#A21103" d="M40.557,132.971c-0.398-4.814,1.574-7.258,0.882-12.365
		c2.006-0.939,0.338-5.552,0.885-7.949c-0.387-3.035,0.349-4.95,0.883-7.065c0.337-8.496,2.042-15.623,1.767-24.73
		c1.916,0.149,0.399-3.133,0.883-4.417c0-2.649,0-5.299,0-7.949c1.036-0.142,0.745-1.61,0.884-2.649c0-1.472,0-2.944,0-4.416
		c0-0.295,0-0.588,0-0.883c2.157-2.172,3.83,0.653,7.066,0c0.545,2.397-1.122,7.01,0.883,7.949c-0.83,4.008,0.212,5.291-0.883,7.949
		c0,0.295,0,0.589,0,0.883c0,0.295,0,0.588,0,0.883c0,4.416,0,8.833,0,13.249c0,2.061,0,4.122,0,6.182
		c-1.702,1.476-1.131,8.146,0,9.716c0,2.061,0,4.121,0,6.182c-0.295,0-0.589,0-0.884,0c0,2.063,0,4.123,0,6.184
		c0,5.594,0,11.188,0,16.781c0,2.354,0,4.711,0,7.065c-2.036,2.382-0.314,8.519-0.884,12.366c-1.767,0-3.532,0-5.299,0
		c-2.907-0.038-4.397-1.492-7.949-0.885c0-1.766,0-3.533,0-5.299c1.976-0.381,0.357-4.353,0.884-6.183c0-2.061,0-4.122,0-6.183
		c0-0.294,0-0.588,0-0.883C40.872,136.231,40.406,134.293,40.557,132.971z"/>
	<path fill-rule="evenodd" clip-rule="evenodd" fill="#C46936" d="M115.631,126.789c-0.569,3.847,1.151,9.984-0.884,12.365
		C115.316,135.307,113.596,129.17,115.631,126.789z"/>
	<path fill-rule="evenodd" clip-rule="evenodd" fill="#D9A762" d="M137.712,119.723c0,3.827,0,7.654,0,11.482
		c-0.296,0-0.589,0-0.883,0C137.396,127.65,135.679,121.813,137.712,119.723z"/>
	<path fill-rule="evenodd" clip-rule="evenodd" fill="#C13A39" d="M129.763,140.038c2.354,0,4.711,0,7.066,0
		c0-2.944,0-5.889,0-8.832c0.294,0,0.587,0,0.883,0c-0.289,3.245,0.753,7.818-0.883,9.715
		C134.717,140.383,130.419,142.029,129.763,140.038z"/>
	<path fill-rule="evenodd" clip-rule="evenodd" fill="#F1EFEA" d="M29.958,136.504c1.511-2.021,6.74-0.324,9.716-0.883
		c0.138-1.04-0.152-2.508,0.883-2.65c-0.15,1.322,0.315,3.26-0.883,3.533C36.436,136.504,33.195,136.504,29.958,136.504z"/>
	<path fill-rule="evenodd" clip-rule="evenodd" fill="#FFFFFF" d="M136.829,131.206c0,2.943,0,5.888,0,8.832
		c-2.355,0-4.712,0-7.066,0c-0.296,0-0.588,0-0.884,0c0.624-9.16-0.913-16.164-0.883-24.73c2.974,0.559,8.204-1.139,9.716,0.883
		c0,1.178,0,2.355,0,3.533C135.679,121.813,137.396,127.65,136.829,131.206z"/>
	<path fill-rule="evenodd" clip-rule="evenodd" fill="#D81E07" d="M97.967,140.038c0-2.65,0-5.3,0-7.949
		c2.045-3.842,0.305-11.471,0.882-16.781c-1.492-2.041-2.286-4.777-1.766-8.832c5.044,0.922,1.676-6.566,2.649-9.716
		c2.649,0,5.3,0,7.949,0c0,2.944,0,5.888,0,8.832c0,0.295,0,0.589,0,0.884c0.94,2.004,5.551,0.336,7.949,0.883
		c1.441,1.428-0.788,3.694,0,7.066c-1.179,0-2.354,0-3.533,0c0-0.295,0-0.59,0-0.885c-8.45-1.382-2.765,11.367-4.416,16.782
		c0,3.238,0,6.478,0,9.716c0.656,1.991,4.954,0.346,7.065,0.883c0,2.061,0,4.121,0,6.183c-8.963-2.78-7.673,4.691-8.831,9.716
		c-3.419-0.703-10.5,2.254-8.833-3.533c-0.51-1.553,1.067-5.189-0.883-5.299c-1.459-0.393-1.459-6.674,0-7.066
		C97.226,141.064,97.771,140.725,97.967,140.038z"/>
	<path fill-rule="evenodd" clip-rule="evenodd" fill="#F1EFEA" d="M108.564,130.322c0,3.238,0,6.478,0,9.716
		c2.062,0,4.121,0,6.183,0c0,0.295,0,0.588,0,0.883c-2.111-0.537-6.409,1.108-7.065-0.883c0-3.238,0-6.478,0-9.716
		C107.977,130.322,108.27,130.322,108.564,130.322z"/>
	<path fill-rule="evenodd" clip-rule="evenodd" fill="#D9A762" d="M129.763,147.103c2.111,0.538,6.408-1.108,7.066,0.884
		c0,2.943,0,5.887,0,8.832c-2.006-0.939-0.338-5.553-0.884-7.949c-0.381-1.975-4.353-0.357-6.183-0.883
		C129.763,147.692,129.763,147.398,129.763,147.103z"/>
	<path fill-rule="evenodd" clip-rule="evenodd" fill="#C46936" d="M52.922,143.57c0.178,5.788,1.605,17.483-6.183,12.366
		c1.767,0,3.532,0,5.299,0C52.607,152.088,50.886,145.952,52.922,143.57z"/>
	<path fill-rule="evenodd" clip-rule="evenodd" fill="#C46936" d="M60.87,144.454c0,3.238,0,6.477,0,9.715c-0.294,0-0.588,0-0.883,0
		C60.546,151.195,58.85,145.965,60.87,144.454z"/>
	<path fill-rule="evenodd" clip-rule="evenodd" fill="#C13A39" d="M26.425,154.168c0.56-2.974-1.139-8.203,0.884-9.715
		c0,2.944,0,5.889,0,8.832C27.258,153.824,27.177,154.332,26.425,154.168z"/>
	<path fill-rule="evenodd" clip-rule="evenodd" fill="#E85052" d="M69.703,153.286c-0.148,1.029-1.396,0.959-2.65,0.883
		c0.195-0.688,0.74-1.025,1.768-0.883c0-3.238,0-6.478,0-9.716c0.294,0,0.588,0,0.883,0
		C69.703,146.808,69.703,150.047,69.703,153.286z"/>
	<path fill-rule="evenodd" clip-rule="evenodd" fill="#C46936" d="M129.763,155.051c1.818,3.039-12.562,2.116-15.016,0.885
		c5.005,0,10.011,0,15.016,0C129.763,155.641,129.763,155.346,129.763,155.051z"/>
	<path fill-rule="evenodd" clip-rule="evenodd" fill="#FFFFFF" d="M102.382,55.247c4.416,0,8.833,0,13.249,0
		c-1.334,4.868,2.374,4.692,1.767,8.833c0,1.178,0,2.355,0,3.533c-4.121,0-8.244,0-12.365,0c-5.3,0-10.599,0-15.897,0
		c0-3.827,0-7.655,0-11.482C93.272,55.559,99.711,57.286,102.382,55.247z"/>
	<path fill-rule="evenodd" clip-rule="evenodd" fill="#C13A39" d="M27.309,134.738c-0.115,1.585,0.876,2.067,2.649,1.767
		c3.237,0,6.478,0,9.716,0c0,0.295,0,0.589,0,0.883c-4.305-0.406-10.346,0.926-13.249-0.883c0.583-7.66-1.169-17.657,0.884-23.848
		C27.309,120.017,27.309,127.377,27.309,134.738z"/>
	<path fill-rule="evenodd" clip-rule="evenodd" fill="#EAD3B9" d="M53.806,78.211c1.466,2.39,1.466,10.858,0,13.249
		C53.806,87.044,53.806,82.627,53.806,78.211z"/>
	<path fill-rule="evenodd" clip-rule="evenodd" fill="#934B23" d="M57.337,56.13c2.673-2.038,9.11-0.311,13.249-0.883
		c0,0.295,0,0.589,0,0.883C66.169,56.13,61.754,56.13,57.337,56.13z"/>
	<path fill-rule="evenodd" clip-rule="evenodd" fill="#1F0B05" d="M135.062,99.409c-0.143-1.035-1.609-0.744-2.649-0.883
		c4.938-3.139,15.63-2.686,16.782,0.883c-0.295,0-0.59,0-0.884,0c-3.239,0-6.478,0-9.717,0
		C137.416,99.409,136.24,99.409,135.062,99.409z"/>
</g>
</svg>
