<svg width="800" height="132.028" xmlns="http://www.w3.org/2000/svg">

 <g>
  <title>background</title>
  <rect fill="none" id="canvas_background" height="402" width="582" y="-1" x="-1"/>
 </g>
 <g>
  <title>Layer 1</title>
  <rect stroke="null" y="0" id="svg_1" height="128.634" width="799.999994" fill="#92D5E6" x="0.119339"/>
  <path id="svg_2" d="m306.298333,28.605c-7.758,0.001 -12.928,4.913 -12.928,4.913s-7.318,-3.034 -10.135,-2.753c-10.542,1.05 -14.19,7.829 -14.19,7.829l52.99,0c0.001,0.001 -2.179,-9.99 -15.737,-9.989z" fill="#FFFFFF"/>
  <path id="svg_3" d="m77.878333,73.929c-7.758,0.001 -12.928,4.913 -12.928,4.913s-7.318,-3.033 -10.135,-2.753c-10.542,1.05 -14.19,7.829 -14.19,7.829l52.99,0c0,0 -2.179,-9.991 -15.737,-9.989z" fill="#FFFFFF"/>
  <path id="svg_4" d="m27.354333,20.741c0,0 -2.703,-2.479 -7.752,-1.419c-4.601,0.965 -6.334,4.183 -6.334,4.183l35.988,0c0,0 -4.154,-4.016 -11.321,-5.516c-5.533,-1.158 -10.581,2.752 -10.581,2.752z" fill="#FFFFFF"/>
  <path id="svg_5" d="m265.734333,90.968c0,0 -2.291,-2.101 -6.568,-1.202c-3.897,0.818 -5.366,3.544 -5.366,3.544l30.491,0c0,0 -3.521,-3.403 -9.592,-4.674c-4.687,-0.982 -8.965,2.332 -8.965,2.332z" fill="#FFFFFF"/>
  <path id="svg_6" d="m63.809333,31.259c0,0 -2.29,-2.1 -6.568,-1.202c-3.897,0.818 -5.365,3.543 -5.365,3.543l30.49,0c0,0 -3.52,-3.402 -9.592,-4.673c-4.688,-0.981 -8.965,2.332 -8.965,2.332z" fill="#FFFFFF"/>
  <path id="svg_7" d="m208.355333,57.169c-3.334,-0.667 -6.334,1.833 -6.334,1.833s-2.95,-2.5 -6.833,-1.946c-3.939,0.562 -6.5,2.946 -6.5,2.946s-4.328,-2 -7.334,-2c-5.832,0 -12.5,3.667 -12.5,3.667l44.861,0c0.001,0 -2.027,-3.833 -5.36,-4.5z" fill="#FFFFFF"/>
  <path id="svg_8" d="m417.574333,20.833c-3.334,-0.667 -6.334,1.833 -6.334,1.833s-2.95,-2.5 -6.833,-1.946c-3.94,0.562 -6.5,2.946 -6.5,2.946s-4.329,-2 -7.333,-2c-5.834,0 -12.5,3.667 -12.5,3.667l44.86,0c0.001,0 -2.027,-3.833 -5.36,-4.5z" fill="#FFFFFF"/>
  <path id="svg_9" d="m385.489333,80.645c-4.966,-0.607 -6.398,1.5 -6.398,1.5s-3.521,-3.295 -9.009,-2.373c-6.718,1.131 -6.66,4.492 -6.66,4.492l29.306,0c-0.001,0 -2.422,-3.032 -7.239,-3.619z" fill="#FFFFFF"/>
  <path id="svg_10" d="m648.488333,80.645c-4.965,-0.607 -6.398,1.5 -6.398,1.5s-3.52,-3.295 -9.008,-2.373c-6.719,1.131 -6.66,4.492 -6.66,4.492l29.305,0c0,0 -2.42,-3.032 -7.239,-3.619z" fill="#FFFFFF"/>
  <path id="svg_11" d="m476.453333,57.169c-3.334,-0.667 -6.334,1.833 -6.334,1.833s-2.95,-2.5 -6.833,-1.946c-3.939,0.562 -6.5,2.946 -6.5,2.946s-4.328,-2 -7.334,-2c-5.832,0 -12.5,3.667 -12.5,3.667l44.861,0c0,0 -2.027,-3.833 -5.36,-4.5z" fill="#FFFFFF"/>
  <path id="svg_12" d="m545.299333,74.614c-7.758,0.001 -12.928,4.913 -12.928,4.913s-7.318,-3.033 -10.135,-2.753c-10.543,1.05 -14.191,7.829 -14.191,7.829l52.99,0c0,0.001 -2.18,-9.991 -15.736,-9.989z" fill="#FFFFFF"/>
  <path id="svg_13" d="m592.784333,40.342c0,0 -2.703,-2.479 -7.752,-1.419c-4.601,0.965 -6.334,4.183 -6.334,4.183l35.988,0c0,0 -4.154,-4.016 -11.321,-5.516c-5.532,-1.158 -10.581,2.752 -10.581,2.752z" fill="#FFFFFF"/>
  <path id="svg_14" d="m773.786333,76.77c-3.334,-0.666 -6.334,1.834 -6.334,1.834s-2.95,-2.5 -6.833,-1.947c-3.939,0.563 -6.5,2.947 -6.5,2.947s-4.328,-2 -7.334,-2c-5.832,0 -12.5,3.666 -12.5,3.666l44.861,0c0,0 -2.027,-3.833 -5.36,-4.5z" fill="#FFFFFF"/>
  <rect stroke="null" id="svg_15" height="20.044" width="800" fill="#83B200" y="108.59" x="0.119333"/>
  <rect stroke="null" id="svg_16" height="8.608" width="800" fill="#A4D100" y="108.59" x="0.119333"/>
  <rect stroke="null" id="svg_17" height="3.395" width="801.500034" fill="#6B5D53" y="128.634" x="-1.380701"/>
  <rect id="svg_18" height="10.437" width="1.637" fill="#AF6001" y="120.305" x="731.904333"/>
  <rect id="svg_19" height="10.437" width="1.638" fill="#9B5100" y="120.305" x="733.541333"/>
  <path id="svg_20" d="m733.541333,121.496l0,-49.609c-2.295,4.02 -9.95,18.514 -9.95,33.016c0,12.979 6.73,15.925 9.95,16.593z" fill="#659E01"/>
  <path id="svg_21" d="m733.541333,121.496c3.221,-0.668 9.951,-3.614 9.951,-16.594c0,-14.502 -7.655,-28.996 -9.951,-33.016l0,49.61z" fill="#5B8400"/>
  <circle id="svg_22" r="1.143" cy="89.965" cx="729.707333" fill="#83B200"/>
  <circle id="svg_23" r="1.143" cy="115.317" cx="737.374333" fill="#659E01"/>
  <circle id="svg_24" r="1.533" cy="104.994" cx="726.732333" fill="#83B200"/>
  <circle id="svg_25" r="1.534" cy="106.806" cx="737.374333" fill="#659E01"/>
  <circle id="svg_26" r="1.534" cy="98.485" cx="730.851333" fill="#83B200"/>
  <circle id="svg_27" r="1.143" cy="115.317" cx="729.707333" fill="#83B200"/>
  <circle id="svg_28" r="1.143" cy="94.292" cx="738.517333" fill="#659E01"/>
  <rect id="svg_29" height="6.706" width="1.053" fill="#AF6001" y="124.035" x="720.771333"/>
  <rect id="svg_30" height="6.706" width="1.051" fill="#9B5100" y="124.035" x="721.823333"/>
  <path id="svg_31" d="m721.823333,124.801l0,-31.875c-1.476,2.584 -6.394,11.896 -6.394,21.213c0.001,8.34 4.325,10.232 6.394,10.662z" fill="#659E01"/>
  <path id="svg_32" d="m721.823333,124.801c2.068,-0.43 6.393,-2.322 6.393,-10.662c0,-9.317 -4.919,-18.629 -6.393,-21.213l0,31.875z" fill="#5B8400"/>
  <circle id="svg_33" r="0.735" cy="104.542" cx="719.359333" fill="#83B200"/>
  <circle id="svg_34" r="0.734" cy="120.831" cx="724.285333" fill="#659E01"/>
  <circle id="svg_35" r="0.985" cy="114.198" cx="717.448333" fill="#83B200"/>
  <circle id="svg_36" r="0.985" cy="115.362" cx="724.285333" fill="#659E01"/>
  <circle id="svg_37" r="0.985" cy="110.017" cx="720.094333" fill="#83B200"/>
  <circle id="svg_38" r="0.734" cy="120.831" cx="719.359333" fill="#83B200"/>
  <circle id="svg_39" r="0.735" cy="107.322" cx="725.019333" fill="#659E01"/>
  <rect id="svg_40" height="6.706" width="1.052" fill="#AF6001" y="124.035" x="663.641333"/>
  <rect id="svg_41" height="6.706" width="1.052" fill="#9B5100" y="124.035" x="664.692333"/>
  <path id="svg_42" d="m664.692333,124.801l0,-31.875c-1.476,2.584 -6.394,11.896 -6.394,21.213c0.001,8.34 4.325,10.232 6.394,10.662z" fill="#659E01"/>
  <path id="svg_43" d="m664.692333,124.801c2.068,-0.43 6.393,-2.322 6.393,-10.662c0,-9.317 -4.918,-18.629 -6.393,-21.213l0,31.875z" fill="#5B8400"/>
  <circle id="svg_44" r="0.735" cy="104.542" cx="662.229333" fill="#83B200"/>
  <circle id="svg_45" r="0.734" cy="120.831" cx="667.154333" fill="#659E01"/>
  <circle id="svg_46" r="0.985" cy="114.198" cx="660.317333" fill="#83B200"/>
  <circle id="svg_47" r="0.985" cy="115.362" cx="667.154333" fill="#659E01"/>
  <circle id="svg_48" r="0.985" cy="110.017" cx="662.964333" fill="#83B200"/>
  <circle id="svg_49" r="0.734" cy="120.831" cx="662.229333" fill="#83B200"/>
  <circle id="svg_50" r="0.735" cy="107.322" cx="667.889333" fill="#659E01"/>
  <rect id="svg_51" height="11.271" width="1.769" fill="#AF6001" y="119.471" x="747.302333"/>
  <rect id="svg_52" height="11.271" width="1.768" fill="#9B5100" y="119.471" x="749.070333"/>
  <path id="svg_53" d="m749.070333,120.758l0,-53.572c-2.479,4.342 -10.746,19.992 -10.746,35.652c0,14.017 7.269,17.198 10.746,17.92z" fill="#659E01"/>
  <path id="svg_54" d="m749.070333,120.758c3.477,-0.722 10.745,-3.902 10.745,-17.92c0,-15.66 -8.267,-31.311 -10.745,-35.652l0,53.572z" fill="#5B8400"/>
  <circle id="svg_55" r="1.235" cy="86.708" cx="744.930333" fill="#83B200"/>
  <circle id="svg_56" r="1.234" cy="114.086" cx="753.208333" fill="#659E01"/>
  <circle id="svg_57" r="1.656" cy="102.938" cx="741.718333" fill="#83B200"/>
  <circle id="svg_58" r="1.657" cy="104.894" cx="753.208333" fill="#659E01"/>
  <circle id="svg_59" r="1.656" cy="95.908" cx="746.164333" fill="#83B200"/>
  <circle id="svg_60" r="1.234" cy="114.086" cx="744.930333" fill="#83B200"/>
  <circle id="svg_61" r="1.235" cy="91.38" cx="754.441333" fill="#659E01"/>
  <rect id="svg_62" height="5.563" width="0.873" fill="#AF6001" y="125.178" x="760.982333"/>
  <rect id="svg_63" height="5.563" width="0.873" fill="#9B5100" y="125.178" x="761.855333"/>
  <path id="svg_64" d="m761.855333,125.813l0,-26.447c-1.224,2.144 -5.304,9.869 -5.304,17.601c0.001,6.92 3.589,8.489 5.304,8.846z" fill="#659E01"/>
  <path id="svg_65" d="m761.855333,125.813c1.717,-0.356 5.305,-1.926 5.305,-8.846c0,-7.731 -4.08,-15.457 -5.305,-17.601l0,26.447z" fill="#5B8400"/>
  <circle id="svg_66" r="0.609" cy="109.004" cx="759.812333" fill="#83B200"/>
  <circle id="svg_67" r="0.609" cy="122.519" cx="763.898333" fill="#659E01"/>
  <circle id="svg_68" r="0.818" cy="117.015" cx="758.226333" fill="#83B200"/>
  <circle id="svg_69" r="0.817" cy="117.981" cx="763.898333" fill="#659E01"/>
  <circle id="svg_70" r="0.818" cy="113.545" cx="760.422333" fill="#83B200"/>
  <circle id="svg_71" r="0.609" cy="122.519" cx="759.812333" fill="#83B200"/>
  <circle id="svg_72" r="0.609" cy="111.311" cx="764.508333" fill="#659E01"/>
  <rect id="svg_73" height="5.563" width="0.873" fill="#AF6001" y="125.178" x="793.629333"/>
  <rect id="svg_74" height="5.563" width="0.872" fill="#9B5100" y="125.178" x="794.502333"/>
  <path id="svg_75" d="m794.502333,125.813l0,-26.447c-1.224,2.144 -5.305,9.869 -5.305,17.601c0,6.92 3.588,8.489 5.305,8.846z" fill="#659E01"/>
  <path id="svg_76" d="m794.502333,125.813c1.717,-0.356 5.305,-1.926 5.305,-8.846c0,-7.731 -4.081,-15.457 -5.305,-17.601l0,26.447z" fill="#5B8400"/>
  <circle id="svg_77" r="0.609" cy="109.004" cx="792.458333" fill="#83B200"/>
  <circle id="svg_78" r="0.609" cy="122.519" cx="796.545333" fill="#659E01"/>
  <circle id="svg_79" r="0.818" cy="117.015" cx="790.872333" fill="#83B200"/>
  <circle id="svg_80" r="0.817" cy="117.981" cx="796.545333" fill="#659E01"/>
  <circle id="svg_81" r="0.818" cy="113.545" cx="793.067333" fill="#83B200"/>
  <circle id="svg_82" r="0.609" cy="122.519" cx="792.458333" fill="#83B200"/>
  <circle id="svg_83" r="0.609" cy="111.311" cx="797.154333" fill="#659E01"/>
  <rect id="svg_84" height="9.914" width="1.556" fill="#AF6001" y="120.827" x="772.296333"/>
  <rect id="svg_85" height="9.914" width="1.555" fill="#9B5100" y="120.827" x="773.852333"/>
  <path id="svg_86" d="m773.852333,121.958l0,-47.128c-2.181,3.819 -9.453,17.588 -9.453,31.364c-0.001,12.331 6.394,15.13 9.453,15.764z" fill="#659E01"/>
  <path id="svg_87" d="m773.852333,121.958c3.059,-0.634 9.453,-3.433 9.453,-15.764c0,-13.776 -7.273,-27.545 -9.453,-31.364l0,47.128z" fill="#5B8400"/>
  <circle id="svg_88" r="1.086" cy="92.005" cx="770.208333" fill="#83B200"/>
  <circle id="svg_89" r="1.086" cy="116.089" cx="777.491333" fill="#659E01"/>
  <circle id="svg_90" r="1.457" cy="106.282" cx="767.383333" fill="#83B200"/>
  <circle id="svg_91" r="1.458" cy="108.003" cx="777.491333" fill="#659E01"/>
  <circle id="svg_92" r="1.458" cy="100.098" cx="771.295333" fill="#83B200"/>
  <circle id="svg_93" r="1.086" cy="116.089" cx="770.208333" fill="#83B200"/>
  <circle id="svg_94" r="1.086" cy="96.115" cx="778.577333" fill="#659E01"/>
  <rect id="svg_95" height="8.219" width="1.289" fill="#AF6001" y="122.522" x="697.492333"/>
  <rect id="svg_96" height="8.219" width="1.289" fill="#9B5100" y="122.522" x="698.781333"/>
  <path id="svg_97" d="m698.781333,123.46l0,-39.068c-1.808,3.166 -7.837,14.58 -7.837,26.001c0,10.221 5.302,12.541 7.837,13.067z" fill="#659E01"/>
  <path id="svg_98" d="m698.781333,123.46c2.536,-0.526 7.836,-2.846 7.836,-13.067c0,-11.421 -6.028,-22.835 -7.836,-26.001l0,39.068z" fill="#5B8400"/>
  <circle id="svg_99" r="0.9" cy="98.629" cx="695.761333" fill="#83B200"/>
  <circle id="svg_100" r="0.9" cy="118.594" cx="701.799333" fill="#659E01"/>
  <circle id="svg_101" r="1.208" cy="110.464" cx="693.419333" fill="#83B200"/>
  <circle id="svg_102" r="1.208" cy="111.892" cx="701.799333" fill="#659E01"/>
  <circle id="svg_103" r="1.208" cy="105.339" cx="696.662333" fill="#83B200"/>
  <circle id="svg_104" r="0.9" cy="118.594" cx="695.761333" fill="#83B200"/>
  <circle id="svg_105" r="0.9" cy="102.036" cx="702.699333" fill="#659E01"/>
  <rect id="svg_106" height="10.437" width="1.637" fill="#AF6001" y="120.305" x="225.892333"/>
  <rect id="svg_107" height="10.437" width="1.637" fill="#9B5100" y="120.305" x="227.529333"/>
  <path id="svg_108" d="m227.529333,121.496l0,-49.609c-2.295,4.02 -9.951,18.514 -9.951,33.016c0,12.979 6.731,15.925 9.951,16.593z" fill="#659E01"/>
  <path id="svg_109" d="m227.529333,121.496c3.22,-0.668 9.951,-3.614 9.951,-16.594c0,-14.502 -7.655,-28.996 -9.951,-33.016l0,49.61z" fill="#5B8400"/>
  <circle id="svg_110" r="1.143" cy="89.965" cx="223.694333" fill="#83B200"/>
  <circle id="svg_111" r="1.143" cy="115.317" cx="231.361333" fill="#659E01"/>
  <circle id="svg_112" r="1.533" cy="104.994" cx="220.720333" fill="#83B200"/>
  <circle id="svg_113" r="1.534" cy="106.806" cx="231.361333" fill="#659E01"/>
  <circle id="svg_114" r="1.534" cy="98.485" cx="224.838333" fill="#83B200"/>
  <circle id="svg_115" r="1.143" cy="115.317" cx="223.694333" fill="#83B200"/>
  <circle id="svg_116" r="1.143" cy="94.292" cx="232.504333" fill="#659E01"/>
  <rect id="svg_117" height="6.706" width="1.052" fill="#AF6001" y="124.035" x="214.758333"/>
  <rect id="svg_118" height="6.706" width="1.051" fill="#9B5100" y="124.035" x="215.810333"/>
  <path id="svg_119" d="m215.810333,124.801l0,-31.875c-1.475,2.584 -6.394,11.896 -6.394,21.213c0,8.34 4.325,10.232 6.394,10.662z" fill="#659E01"/>
  <path id="svg_120" d="m215.810333,124.801c2.068,-0.43 6.393,-2.322 6.393,-10.662c0,-9.317 -4.918,-18.629 -6.393,-21.213l0,31.875z" fill="#5B8400"/>
  <circle id="svg_121" r="0.735" cy="104.542" cx="213.347333" fill="#83B200"/>
  <circle id="svg_122" r="0.734" cy="120.831" cx="218.272333" fill="#659E01"/>
  <circle id="svg_123" r="0.985" cy="114.198" cx="211.435333" fill="#83B200"/>
  <circle id="svg_124" r="0.985" cy="115.362" cx="218.272333" fill="#659E01"/>
  <circle id="svg_125" r="0.985" cy="110.017" cx="214.082333" fill="#83B200"/>
  <circle id="svg_126" r="0.734" cy="120.831" cx="213.347333" fill="#83B200"/>
  <circle id="svg_127" r="0.735" cy="107.322" cx="219.006333" fill="#659E01"/>
  <rect id="svg_128" height="6.706" width="1.052" fill="#AF6001" y="124.035" x="157.627333"/>
  <rect id="svg_129" height="6.706" width="1.051" fill="#9B5100" y="124.035" x="158.680333"/>
  <path id="svg_130" d="m158.680333,124.801l0,-31.875c-1.476,2.584 -6.394,11.896 -6.394,21.213c0,8.34 4.324,10.232 6.394,10.662z" fill="#659E01"/>
  <path id="svg_131" d="m158.680333,124.801c2.068,-0.43 6.393,-2.322 6.393,-10.662c0,-9.317 -4.918,-18.629 -6.393,-21.213l0,31.875z" fill="#5B8400"/>
  <circle id="svg_132" r="0.735" cy="104.542" cx="156.216333" fill="#83B200"/>
  <circle id="svg_133" r="0.734" cy="120.831" cx="161.142333" fill="#659E01"/>
  <circle id="svg_134" r="0.985" cy="114.198" cx="154.305333" fill="#83B200"/>
  <circle id="svg_135" r="0.985" cy="115.362" cx="161.142333" fill="#659E01"/>
  <circle id="svg_136" r="0.985" cy="110.017" cx="156.951333" fill="#83B200"/>
  <circle id="svg_137" r="0.734" cy="120.831" cx="156.216333" fill="#83B200"/>
  <circle id="svg_138" r="0.735" cy="107.322" cx="161.875333" fill="#659E01"/>
  <rect id="svg_139" height="11.271" width="1.768" fill="#AF6001" y="119.471" x="40.239333"/>
  <rect id="svg_140" height="11.271" width="1.768" fill="#9B5100" y="119.471" x="42.007333"/>
  <path id="svg_141" d="m42.007333,120.758l0,-53.572c-2.479,4.342 -10.746,19.992 -10.746,35.652c0.001,14.017 7.269,17.198 10.746,17.92z" fill="#659E01"/>
  <path id="svg_142" d="m42.007333,120.758c3.478,-0.722 10.745,-3.902 10.745,-17.92c0,-15.66 -8.267,-31.311 -10.745,-35.652l0,53.572z" fill="#5B8400"/>
  <circle id="svg_143" r="1.235" cy="86.708" cx="37.867333" fill="#83B200"/>
  <circle id="svg_144" r="1.234" cy="114.086" cx="46.146333" fill="#659E01"/>
  <circle id="svg_145" r="1.656" cy="102.938" cx="34.655333" fill="#83B200"/>
  <circle id="svg_146" r="1.657" cy="104.894" cx="46.146333" fill="#659E01"/>
  <circle id="svg_147" r="1.656" cy="95.908" cx="39.101333" fill="#83B200"/>
  <circle id="svg_148" r="1.234" cy="114.086" cx="37.867333" fill="#83B200"/>
  <circle id="svg_149" r="1.235" cy="91.38" cx="47.379333" fill="#659E01"/>
  <rect id="svg_150" height="5.563" width="0.873" fill="#AF6001" y="125.178" x="254.970333"/>
  <rect id="svg_151" height="5.563" width="0.873" fill="#9B5100" y="125.178" x="255.843333"/>
  <path id="svg_152" d="m255.843333,125.813l0,-26.447c-1.223,2.144 -5.304,9.869 -5.304,17.601c0,6.92 3.588,8.489 5.304,8.846z" fill="#659E01"/>
  <path id="svg_153" d="m255.843333,125.813c1.717,-0.356 5.305,-1.926 5.305,-8.846c0,-7.731 -4.081,-15.457 -5.305,-17.601l0,26.447z" fill="#5B8400"/>
  <circle id="svg_154" r="0.609" cy="109.004" cx="253.799333" fill="#83B200"/>
  <circle id="svg_155" r="0.609" cy="122.519" cx="257.886333" fill="#659E01"/>
  <circle id="svg_156" r="0.818" cy="117.015" cx="252.213333" fill="#83B200"/>
  <circle id="svg_157" r="0.817" cy="117.981" cx="257.886333" fill="#659E01"/>
  <circle id="svg_158" r="0.818" cy="113.545" cx="254.409333" fill="#83B200"/>
  <circle id="svg_159" r="0.609" cy="122.519" cx="253.799333" fill="#83B200"/>
  <circle id="svg_160" r="0.609" cy="111.311" cx="258.495333" fill="#659E01"/>
  <rect id="svg_161" height="8.219" width="1.289" fill="#AF6001" y="122.522" x="191.479333"/>
  <rect id="svg_162" height="8.219" width="1.29" fill="#9B5100" y="122.522" x="192.768333"/>
  <path id="svg_163" d="m192.768333,123.46l0,-39.068c-1.808,3.166 -7.836,14.58 -7.836,26.001c0,10.221 5.301,12.541 7.836,13.067z" fill="#659E01"/>
  <path id="svg_164" d="m192.768333,123.46c2.536,-0.526 7.836,-2.846 7.836,-13.067c0,-11.421 -6.029,-22.835 -7.836,-26.001l0,39.068z" fill="#5B8400"/>
  <circle id="svg_165" r="0.9" cy="98.629" cx="189.748333" fill="#83B200"/>
  <circle id="svg_166" r="0.9" cy="118.594" cx="195.787333" fill="#659E01"/>
  <circle id="svg_167" r="1.208" cy="110.464" cx="187.406333" fill="#83B200"/>
  <circle id="svg_168" r="1.208" cy="111.892" cx="195.787333" fill="#659E01"/>
  <circle id="svg_169" r="1.208" cy="105.339" cx="190.649333" fill="#83B200"/>
  <circle id="svg_170" r="0.9" cy="118.594" cx="189.748333" fill="#83B200"/>
  <circle id="svg_171" r="0.9" cy="102.036" cx="196.687333" fill="#659E01"/>
  <rect id="svg_172" height="6.706" width="1.053" fill="#AF6001" y="124.035" x="565.702333"/>
  <rect id="svg_173" height="6.706" width="1.051" fill="#9B5100" y="124.035" x="566.755333"/>
  <path id="svg_174" d="m566.755333,124.801l0,-31.875c-1.476,2.584 -6.395,11.896 -6.395,21.213c0,8.34 4.326,10.232 6.395,10.662z" fill="#659E01"/>
  <path id="svg_175" d="m566.755333,124.801c2.067,-0.43 6.393,-2.322 6.393,-10.662c0,-9.317 -4.919,-18.629 -6.393,-21.213l0,31.875z" fill="#5B8400"/>
  <circle id="svg_176" r="0.735" cy="104.542" cx="564.291333" fill="#83B200"/>
  <circle id="svg_177" r="0.734" cy="120.831" cx="569.217333" fill="#659E01"/>
  <circle id="svg_178" r="0.985" cy="114.198" cx="562.380333" fill="#83B200"/>
  <circle id="svg_179" r="0.985" cy="115.362" cx="569.217333" fill="#659E01"/>
  <circle id="svg_180" r="0.985" cy="110.017" cx="565.025333" fill="#83B200"/>
  <circle id="svg_181" r="0.734" cy="120.831" cx="564.291333" fill="#83B200"/>
  <circle id="svg_182" r="0.735" cy="107.322" cx="569.950333" fill="#659E01"/>
  <rect id="svg_183" height="6.706" width="1.052" fill="#AF6001" y="124.035" x="508.572333"/>
  <rect id="svg_184" height="6.706" width="1.051" fill="#9B5100" y="124.035" x="509.624333"/>
  <path id="svg_185" d="m509.624333,124.801l0,-31.875c-1.476,2.584 -6.394,11.896 -6.394,21.213c0,8.34 4.325,10.232 6.394,10.662z" fill="#659E01"/>
  <path id="svg_186" d="m509.624333,124.801c2.068,-0.43 6.393,-2.322 6.393,-10.662c0,-9.317 -4.918,-18.629 -6.393,-21.213l0,31.875z" fill="#5B8400"/>
  <circle id="svg_187" r="0.735" cy="104.542" cx="507.160333" fill="#83B200"/>
  <circle id="svg_188" r="0.734" cy="120.831" cx="512.086333" fill="#659E01"/>
  <circle id="svg_189" r="0.985" cy="114.198" cx="505.249333" fill="#83B200"/>
  <circle id="svg_190" r="0.985" cy="115.362" cx="512.086333" fill="#659E01"/>
  <circle id="svg_191" r="0.985" cy="110.017" cx="507.896333" fill="#83B200"/>
  <circle id="svg_192" r="0.734" cy="120.831" cx="507.160333" fill="#83B200"/>
  <circle id="svg_193" r="0.735" cy="107.322" cx="512.820333" fill="#659E01"/>
  <rect id="svg_194" height="11.271" width="1.768" fill="#AF6001" y="119.471" x="592.233333"/>
  <rect id="svg_195" height="11.271" width="1.769" fill="#9B5100" y="119.471" x="594.001333"/>
  <path id="svg_196" d="m594.001333,120.758l0,-53.572c-2.479,4.342 -10.745,19.992 -10.745,35.652c0,14.017 7.268,17.198 10.745,17.92z" fill="#659E01"/>
  <path id="svg_197" d="m594.001333,120.758c3.478,-0.722 10.746,-3.902 10.746,-17.92c0,-15.66 -8.267,-31.311 -10.746,-35.652l0,53.572z" fill="#5B8400"/>
  <circle id="svg_198" r="1.235" cy="86.708" cx="589.861333" fill="#83B200"/>
  <circle id="svg_199" r="1.234" cy="114.086" cx="598.140333" fill="#659E01"/>
  <circle id="svg_200" r="1.656" cy="102.938" cx="586.648333" fill="#83B200"/>
  <circle id="svg_201" r="1.657" cy="104.894" cx="598.140333" fill="#659E01"/>
  <circle id="svg_202" r="1.656" cy="95.908" cx="591.096333" fill="#83B200"/>
  <circle id="svg_203" r="1.234" cy="114.086" cx="589.861333" fill="#83B200"/>
  <circle id="svg_204" r="1.235" cy="91.38" cx="599.373333" fill="#659E01"/>
  <rect id="svg_205" height="5.563" width="0.872" fill="#AF6001" y="125.178" x="524.300333"/>
  <rect id="svg_206" height="5.563" width="0.873" fill="#9B5100" y="125.178" x="525.172333"/>
  <path id="svg_207" d="m525.172333,125.813l0,-26.447c-1.223,2.144 -5.304,9.869 -5.304,17.601c0,6.92 3.588,8.489 5.304,8.846z" fill="#659E01"/>
  <path id="svg_208" d="m525.172333,125.813c1.717,-0.356 5.306,-1.926 5.306,-8.846c0,-7.731 -4.081,-15.457 -5.306,-17.601l0,26.447z" fill="#5B8400"/>
  <circle id="svg_209" r="0.609" cy="109.004" cx="523.129333" fill="#83B200"/>
  <circle id="svg_210" r="0.609" cy="122.519" cx="527.215333" fill="#659E01"/>
  <circle id="svg_211" r="0.818" cy="117.015" cx="521.543333" fill="#83B200"/>
  <circle id="svg_212" r="0.817" cy="117.981" cx="527.215333" fill="#659E01"/>
  <circle id="svg_213" r="0.818" cy="113.545" cx="523.738333" fill="#83B200"/>
  <circle id="svg_214" r="0.609" cy="122.519" cx="523.129333" fill="#83B200"/>
  <circle id="svg_215" r="0.609" cy="111.311" cx="527.825333" fill="#659E01"/>
  <rect id="svg_216" height="8.219" width="1.289" fill="#AF6001" y="122.522" x="542.424333"/>
  <rect id="svg_217" height="8.219" width="1.289" fill="#9B5100" y="122.522" x="543.713333"/>
  <path id="svg_218" d="m543.713333,123.46l0,-39.068c-1.808,3.166 -7.837,14.58 -7.837,26.001c0,10.221 5.302,12.541 7.837,13.067z" fill="#659E01"/>
  <path id="svg_219" d="m543.713333,123.46c2.536,-0.526 7.836,-2.846 7.836,-13.067c0,-11.421 -6.028,-22.835 -7.836,-26.001l0,39.068z" fill="#5B8400"/>
  <circle id="svg_220" r="0.9" cy="98.629" cx="540.692333" fill="#83B200"/>
  <circle id="svg_221" r="0.9" cy="118.594" cx="546.730333" fill="#659E01"/>
  <circle id="svg_222" r="1.208" cy="110.464" cx="538.351333" fill="#83B200"/>
  <circle id="svg_223" r="1.208" cy="111.892" cx="546.730333" fill="#659E01"/>
  <circle id="svg_224" r="1.208" cy="105.339" cx="541.594333" fill="#83B200"/>
  <circle id="svg_225" r="0.9" cy="118.594" cx="540.692333" fill="#83B200"/>
  <circle id="svg_226" r="0.9" cy="102.036" cx="547.631333" fill="#659E01"/>
  <rect id="svg_227" height="8.448" width="1.326" fill="#AF6001" y="122.293" x="437.507333"/>
  <rect id="svg_228" height="8.448" width="1.324" fill="#9B5100" y="122.293" x="438.833333"/>
  <path id="svg_229" d="m438.833333,123.258l0,-40.158c-1.858,3.255 -8.056,14.986 -8.056,26.726c0,10.506 5.449,12.891 8.056,13.432z" fill="#659E01"/>
  <path id="svg_230" d="m438.833333,123.258c2.605,-0.541 8.055,-2.926 8.055,-13.433c0,-11.739 -6.197,-23.471 -8.055,-26.726l0,40.159z" fill="#5B8400"/>
  <circle id="svg_231" r="0.926" cy="97.734" cx="435.729333" fill="#83B200"/>
  <circle id="svg_232" r="0.925" cy="118.256" cx="441.935333" fill="#659E01"/>
  <circle id="svg_233" r="1.241" cy="109.899" cx="433.320333" fill="#83B200"/>
  <circle id="svg_234" r="1.242" cy="111.366" cx="441.935333" fill="#659E01"/>
  <circle id="svg_235" r="1.242" cy="104.63" cx="436.654333" fill="#83B200"/>
  <circle id="svg_236" r="0.925" cy="118.256" cx="435.729333" fill="#83B200"/>
  <circle id="svg_237" r="0.926" cy="101.236" cx="442.859333" fill="#659E01"/>
  <rect id="svg_238" height="6.706" width="1.052" fill="#AF6001" y="124.035" x="369.827333"/>
  <rect id="svg_239" height="6.706" width="1.051" fill="#9B5100" y="124.035" x="370.878333"/>
  <path id="svg_240" d="m370.878333,124.801l0,-31.875c-1.475,2.584 -6.394,11.896 -6.394,21.213c0.001,8.34 4.326,10.232 6.394,10.662z" fill="#659E01"/>
  <path id="svg_241" d="m370.878333,124.801c2.068,-0.43 6.393,-2.322 6.393,-10.662c0,-9.317 -4.918,-18.629 -6.393,-21.213l0,31.875z" fill="#5B8400"/>
  <circle id="svg_242" r="0.735" cy="104.542" cx="368.415333" fill="#83B200"/>
  <circle id="svg_243" r="0.734" cy="120.831" cx="373.340333" fill="#659E01"/>
  <circle id="svg_244" r="0.985" cy="114.198" cx="366.504333" fill="#83B200"/>
  <circle id="svg_245" r="0.985" cy="115.362" cx="373.340333" fill="#659E01"/>
  <circle id="svg_246" r="0.985" cy="110.017" cx="369.150333" fill="#83B200"/>
  <circle id="svg_247" r="0.734" cy="120.831" cx="368.415333" fill="#83B200"/>
  <circle id="svg_248" r="0.735" cy="107.322" cx="374.075333" fill="#659E01"/>
  <rect id="svg_249" height="6.706" width="1.052" fill="#AF6001" y="124.035" x="312.696333"/>
  <rect id="svg_250" height="6.706" width="1.051" fill="#9B5100" y="124.035" x="313.748333"/>
  <path id="svg_251" d="m313.748333,124.801l0,-31.875c-1.475,2.584 -6.394,11.896 -6.394,21.213c0,8.34 4.325,10.232 6.394,10.662z" fill="#659E01"/>
  <path id="svg_252" d="m313.748333,124.801c2.068,-0.43 6.393,-2.322 6.393,-10.662c0,-9.317 -4.918,-18.629 -6.393,-21.213l0,31.875z" fill="#5B8400"/>
  <circle id="svg_253" r="0.735" cy="104.542" cx="311.284333" fill="#83B200"/>
  <circle id="svg_254" r="0.734" cy="120.831" cx="316.210333" fill="#659E01"/>
  <circle id="svg_255" r="0.985" cy="114.198" cx="309.373333" fill="#83B200"/>
  <circle id="svg_256" r="0.985" cy="115.362" cx="316.210333" fill="#659E01"/>
  <circle id="svg_257" r="0.985" cy="110.017" cx="312.020333" fill="#83B200"/>
  <circle id="svg_258" r="0.734" cy="120.831" cx="311.284333" fill="#83B200"/>
  <circle id="svg_259" r="0.735" cy="107.322" cx="316.944333" fill="#659E01"/>
  <rect id="svg_260" height="11.271" width="1.768" fill="#AF6001" y="119.471" x="330.446333"/>
  <rect id="svg_261" height="11.271" width="1.768" fill="#9B5100" y="119.471" x="332.214333"/>
  <path id="svg_262" d="m332.214333,120.758l0,-53.572c-2.479,4.342 -10.746,19.992 -10.746,35.652c0.001,14.017 7.269,17.198 10.746,17.92z" fill="#659E01"/>
  <path id="svg_263" d="m332.214333,120.758c3.477,-0.722 10.745,-3.902 10.745,-17.92c0,-15.66 -8.267,-31.311 -10.745,-35.652l0,53.572z" fill="#5B8400"/>
  <circle id="svg_264" r="1.235" cy="86.708" cx="328.074333" fill="#83B200"/>
  <circle id="svg_265" r="1.234" cy="114.086" cx="336.353333" fill="#659E01"/>
  <circle id="svg_266" r="1.656" cy="102.938" cx="324.862333" fill="#83B200"/>
  <circle id="svg_267" r="1.657" cy="104.894" cx="336.353333" fill="#659E01"/>
  <circle id="svg_268" r="1.656" cy="95.908" cx="329.308333" fill="#83B200"/>
  <circle id="svg_269" r="1.234" cy="114.086" cx="328.074333" fill="#83B200"/>
  <circle id="svg_270" r="1.235" cy="91.38" cx="337.586333" fill="#659E01"/>
  <rect id="svg_271" height="5.563" width="0.873" fill="#AF6001" y="125.178" x="410.038333"/>
  <rect id="svg_272" height="5.563" width="0.873" fill="#9B5100" y="125.178" x="410.911333"/>
  <path id="svg_273" d="m410.911333,125.813l0,-26.447c-1.224,2.144 -5.304,9.869 -5.304,17.601c0,6.92 3.588,8.489 5.304,8.846z" fill="#659E01"/>
  <path id="svg_274" d="m410.911333,125.813c1.717,-0.356 5.305,-1.926 5.305,-8.846c0,-7.731 -4.08,-15.457 -5.305,-17.601l0,26.447z" fill="#5B8400"/>
  <circle id="svg_275" r="0.609" cy="109.004" cx="408.868333" fill="#83B200"/>
  <circle id="svg_276" r="0.609" cy="122.519" cx="412.954333" fill="#659E01"/>
  <circle id="svg_277" r="0.818" cy="117.015" cx="407.281333" fill="#83B200"/>
  <circle id="svg_278" r="0.817" cy="117.981" cx="412.954333" fill="#659E01"/>
  <circle id="svg_279" r="0.818" cy="113.545" cx="409.478333" fill="#83B200"/>
  <circle id="svg_280" r="0.609" cy="122.519" cx="408.868333" fill="#83B200"/>
  <circle id="svg_281" r="0.609" cy="111.311" cx="413.563333" fill="#659E01"/>
  <rect id="svg_282" height="6.706" width="1.052" fill="#AF6001" y="124.035" x="14.758333"/>
  <rect id="svg_283" height="6.706" width="1.051" fill="#9B5100" y="124.035" x="15.810333"/>
  <path id="svg_284" d="m15.810333,124.801l0,-31.875c-1.475,2.584 -6.394,11.896 -6.394,21.213c0,8.34 4.325,10.232 6.394,10.662z" fill="#659E01"/>
  <path id="svg_285" d="m15.810333,124.801c2.068,-0.43 6.393,-2.322 6.393,-10.662c0,-9.317 -4.918,-18.629 -6.393,-21.213l0,31.875z" fill="#5B8400"/>
  <circle id="svg_286" r="0.735" cy="104.542" cx="13.347333" fill="#83B200"/>
  <circle id="svg_287" r="0.734" cy="120.831" cx="18.272333" fill="#659E01"/>
  <circle id="svg_288" r="0.985" cy="114.198" cx="11.435333" fill="#83B200"/>
  <circle id="svg_289" r="0.985" cy="115.362" cx="18.272333" fill="#659E01"/>
  <circle id="svg_290" r="0.985" cy="110.017" cx="14.082333" fill="#83B200"/>
  <circle id="svg_291" r="0.734" cy="120.831" cx="13.347333" fill="#83B200"/>
  <circle id="svg_292" r="0.735" cy="107.322" cx="19.006333" fill="#659E01"/>
  <rect id="svg_293" height="6.706" width="1.052" fill="#AF6001" y="124.035" x="59.675333"/>
  <rect id="svg_294" height="6.706" width="1.051" fill="#9B5100" y="124.035" x="60.727333"/>
  <path id="svg_295" d="m60.727333,124.801l0,-31.875c-1.475,2.584 -6.394,11.895 -6.394,21.213c0,8.34 4.325,10.232 6.394,10.662z" fill="#659E01"/>
  <path id="svg_296" d="m60.727333,124.801c2.068,-0.43 6.393,-2.322 6.393,-10.662c0,-9.317 -4.918,-18.629 -6.393,-21.213l0,31.875z" fill="#5B8400"/>
  <circle id="svg_297" r="0.735" cy="104.542" cx="58.264333" fill="#83B200"/>
  <circle id="svg_298" r="0.734" cy="120.831" cx="63.189333" fill="#659E01"/>
  <circle id="svg_299" r="0.985" cy="114.198" cx="56.353333" fill="#83B200"/>
  <circle id="svg_300" r="0.985" cy="115.362" cx="63.189333" fill="#659E01"/>
  <circle id="svg_301" r="0.985" cy="110.017" cx="58.999333" fill="#83B200"/>
  <circle id="svg_302" r="0.734" cy="120.831" cx="58.264333" fill="#83B200"/>
  <circle id="svg_303" r="0.735" cy="107.322" cx="63.923333" fill="#659E01"/>
  <rect id="svg_304" height="11.271" width="1.768" fill="#AF6001" y="119.471" x="130.446333"/>
  <rect id="svg_305" height="11.271" width="1.768" fill="#9B5100" y="119.471" x="132.214333"/>
  <path id="svg_306" d="m132.214333,120.758l0,-53.572c-2.479,4.342 -10.746,19.992 -10.746,35.652c0.001,14.017 7.269,17.198 10.746,17.92z" fill="#659E01"/>
  <path id="svg_307" d="m132.214333,120.758c3.477,-0.722 10.745,-3.902 10.745,-17.92c0,-15.66 -8.267,-31.311 -10.745,-35.652l0,53.572z" fill="#5B8400"/>
  <circle id="svg_308" r="1.235" cy="86.708" cx="128.074333" fill="#83B200"/>
  <circle id="svg_309" r="1.234" cy="114.086" cx="136.353333" fill="#659E01"/>
  <circle id="svg_310" r="1.656" cy="102.938" cx="124.862333" fill="#83B200"/>
  <circle id="svg_311" r="1.657" cy="104.894" cx="136.353333" fill="#659E01"/>
  <circle id="svg_312" r="1.656" cy="95.908" cx="129.308333" fill="#83B200"/>
  <circle id="svg_313" r="1.234" cy="114.086" cx="128.074333" fill="#83B200"/>
  <circle id="svg_314" r="1.235" cy="91.38" cx="137.586333" fill="#659E01"/>
  <rect id="svg_315" height="5.563" width="0.873" fill="#AF6001" y="125.178" x="92.742333"/>
  <rect id="svg_316" height="5.563" width="0.873" fill="#9B5100" y="125.178" x="93.615333"/>
  <path id="svg_317" d="m93.615333,125.813l0,-26.447c-1.224,2.144 -5.304,9.869 -5.304,17.601c0,6.92 3.588,8.489 5.304,8.846z" fill="#659E01"/>
  <path id="svg_318" d="m93.615333,125.813c1.717,-0.356 5.305,-1.926 5.305,-8.846c0,-7.731 -4.08,-15.457 -5.305,-17.601l0,26.447z" fill="#5B8400"/>
  <circle id="svg_319" r="0.609" cy="109.004" cx="91.572333" fill="#83B200"/>
  <circle id="svg_320" r="0.609" cy="122.519" cx="95.658333" fill="#659E01"/>
  <circle id="svg_321" r="0.818" cy="117.015" cx="89.985333" fill="#83B200"/>
  <circle id="svg_322" r="0.817" cy="117.981" cx="95.658333" fill="#659E01"/>
  <circle id="svg_323" r="0.818" cy="113.545" cx="92.181333" fill="#83B200"/>
  <circle id="svg_324" r="0.609" cy="122.519" cx="91.572333" fill="#83B200"/>
  <circle id="svg_325" r="0.609" cy="111.311" cx="96.267333" fill="#659E01"/>
  <rect id="svg_326" height="8.219" width="1.289" fill="#AF6001" y="122.522" x="394.797333"/>
  <rect id="svg_327" height="8.219" width="1.29" fill="#9B5100" y="122.522" x="396.086333"/>
  <path id="svg_328" d="m396.086333,123.46l0,-39.068c-1.808,3.166 -7.836,14.58 -7.836,26.001c0,10.221 5.301,12.541 7.836,13.067z" fill="#659E01"/>
  <path id="svg_329" d="m396.086333,123.46c2.536,-0.526 7.836,-2.846 7.836,-13.067c0,-11.421 -6.029,-22.835 -7.836,-26.001l0,39.068z" fill="#5B8400"/>
  <circle id="svg_330" r="0.9" cy="98.629" cx="393.066333" fill="#83B200"/>
  <circle id="svg_331" r="0.9" cy="118.594" cx="399.104333" fill="#659E01"/>
  <circle id="svg_332" r="1.208" cy="110.464" cx="390.724333" fill="#83B200"/>
  <circle id="svg_333" r="1.208" cy="111.892" cx="399.104333" fill="#659E01"/>
  <circle id="svg_334" r="1.208" cy="105.339" cx="393.967333" fill="#83B200"/>
  <circle id="svg_335" r="0.9" cy="118.594" cx="393.066333" fill="#83B200"/>
  <circle id="svg_336" r="0.9" cy="102.036" cx="400.004333" fill="#659E01"/>
 </g>
</svg>