<?xml version="1.0" encoding="utf-8"?>
<!-- Generator: Adobe Illustrator 14.0.0, SVG Export Plug-In . SVG Version: 6.00 Build 43363)  -->
<!DOCTYPE svg PUBLIC "-//W3C//DTD SVG 1.1//EN" "http://www.w3.org/Graphics/SVG/1.1/DTD/svg11.dtd">
<svg version="1.1" id="Layer_1" xmlns="http://www.w3.org/2000/svg" xmlns:xlink="http://www.w3.org/1999/xlink" x="0px" y="0px"
	 width="800px" height="132.028px" viewBox="0 0 800 132.028" enable-background="new 0 0 800 132.028" xml:space="preserve">
<rect x="0.786" fill="#92D5E6" width="800" height="128.634"/>
<path fill="#FFFFFF" d="M306.965,28.605c-7.758,0.001-12.928,4.913-12.928,4.913s-7.318-3.034-10.135-2.753
	c-10.542,1.05-14.19,7.829-14.19,7.829h52.99C322.703,38.595,320.523,28.604,306.965,28.605z"/>
<path fill="#FFFFFF" d="M78.545,73.929c-7.758,0.001-12.928,4.913-12.928,4.913s-7.318-3.033-10.135-2.753
	c-10.542,1.05-14.19,7.829-14.19,7.829h52.99C94.282,83.918,92.103,73.927,78.545,73.929z"/>
<path fill="#FFFFFF" d="M28.021,20.741c0,0-2.703-2.479-7.752-1.419c-4.601,0.965-6.334,4.183-6.334,4.183h35.988
	c0,0-4.154-4.016-11.321-5.516C33.069,16.831,28.021,20.741,28.021,20.741z"/>
<path fill="#FFFFFF" d="M266.401,90.968c0,0-2.291-2.101-6.568-1.202c-3.897,0.818-5.366,3.544-5.366,3.544h30.491
	c0,0-3.521-3.403-9.592-4.674C270.679,87.654,266.401,90.968,266.401,90.968z"/>
<path fill="#FFFFFF" d="M64.476,31.259c0,0-2.29-2.1-6.568-1.202c-3.897,0.818-5.365,3.543-5.365,3.543h30.49
	c0,0-3.52-3.402-9.592-4.673C68.753,27.946,64.476,31.259,64.476,31.259z"/>
<path fill="#FFFFFF" d="M209.022,57.169c-3.334-0.667-6.334,1.833-6.334,1.833s-2.95-2.5-6.833-1.946
	c-3.939,0.562-6.5,2.946-6.5,2.946s-4.328-2-7.334-2c-5.832,0-12.5,3.667-12.5,3.667h44.861
	C214.383,61.669,212.355,57.836,209.022,57.169z"/>
<path fill="#FFFFFF" d="M418.241,20.833c-3.334-0.667-6.334,1.833-6.334,1.833s-2.95-2.5-6.833-1.946
	c-3.94,0.562-6.5,2.946-6.5,2.946s-4.329-2-7.333-2c-5.834,0-12.5,3.667-12.5,3.667h44.86
	C423.602,25.333,421.574,21.5,418.241,20.833z"/>
<path fill="#FFFFFF" d="M386.156,80.645c-4.966-0.607-6.398,1.5-6.398,1.5s-3.521-3.295-9.009-2.373
	c-6.718,1.131-6.66,4.492-6.66,4.492h29.306C393.394,84.264,390.973,81.232,386.156,80.645z"/>
<path fill="#FFFFFF" d="M649.155,80.645c-4.965-0.607-6.398,1.5-6.398,1.5s-3.52-3.295-9.008-2.373
	c-6.719,1.131-6.66,4.492-6.66,4.492h29.305C656.394,84.264,653.974,81.232,649.155,80.645z"/>
<path fill="#FFFFFF" d="M477.12,57.169c-3.334-0.667-6.334,1.833-6.334,1.833s-2.95-2.5-6.833-1.946
	c-3.939,0.562-6.5,2.946-6.5,2.946s-4.328-2-7.334-2c-5.832,0-12.5,3.667-12.5,3.667h44.861
	C482.48,61.669,480.453,57.836,477.12,57.169z"/>
<path fill="#FFFFFF" d="M545.966,74.614c-7.758,0.001-12.928,4.913-12.928,4.913s-7.318-3.033-10.135-2.753
	c-10.543,1.05-14.191,7.829-14.191,7.829h52.99C561.702,84.604,559.522,74.612,545.966,74.614z"/>
<path fill="#FFFFFF" d="M593.451,40.342c0,0-2.703-2.479-7.752-1.419c-4.601,0.965-6.334,4.183-6.334,4.183h35.988
	c0,0-4.154-4.016-11.321-5.516C598.5,36.432,593.451,40.342,593.451,40.342z"/>
<path fill="#FFFFFF" d="M774.453,76.77c-3.334-0.666-6.334,1.834-6.334,1.834s-2.95-2.5-6.833-1.947
	c-3.939,0.563-6.5,2.947-6.5,2.947s-4.328-2-7.334-2c-5.832,0-12.5,3.666-12.5,3.666h44.861
	C779.813,81.27,777.786,77.437,774.453,76.77z"/>
<rect x="0.786" y="108.59" fill="#83B200" width="800" height="20.044"/>
<rect x="0.786" y="108.59" fill="#A4D100" width="800" height="8.608"/>
<rect x="0.786" y="128.634" fill="#6B5D53" width="800" height="3.395"/>
<rect x="732.571" y="120.305" fill="#AF6001" width="1.637" height="10.437"/>
<rect x="734.208" y="120.305" fill="#9B5100" width="1.638" height="10.437"/>
<path fill="#659E01" d="M734.208,121.496V71.887c-2.295,4.02-9.95,18.514-9.95,33.016
	C724.258,117.882,730.988,120.828,734.208,121.496z"/>
<path fill="#5B8400" d="M734.208,121.496c3.221-0.668,9.951-3.614,9.951-16.594c0-14.502-7.655-28.996-9.951-33.016V121.496z"/>
<circle fill="#83B200" cx="730.374" cy="89.965" r="1.143"/>
<circle fill="#659E01" cx="738.041" cy="115.317" r="1.143"/>
<circle fill="#83B200" cx="727.399" cy="104.994" r="1.533"/>
<circle fill="#659E01" cx="738.041" cy="106.806" r="1.534"/>
<circle fill="#83B200" cx="731.518" cy="98.485" r="1.534"/>
<circle fill="#83B200" cx="730.374" cy="115.317" r="1.143"/>
<circle fill="#659E01" cx="739.184" cy="94.292" r="1.143"/>
<rect x="721.438" y="124.035" fill="#AF6001" width="1.053" height="6.706"/>
<rect x="722.49" y="124.035" fill="#9B5100" width="1.051" height="6.706"/>
<path fill="#659E01" d="M722.49,124.801V92.926c-1.476,2.584-6.394,11.896-6.394,21.213
	C716.097,122.479,720.421,124.371,722.49,124.801z"/>
<path fill="#5B8400" d="M722.49,124.801c2.068-0.43,6.393-2.322,6.393-10.662c0-9.317-4.919-18.629-6.393-21.213V124.801z"/>
<circle fill="#83B200" cx="720.026" cy="104.542" r="0.735"/>
<circle fill="#659E01" cx="724.952" cy="120.831" r="0.734"/>
<circle fill="#83B200" cx="718.115" cy="114.198" r="0.985"/>
<circle fill="#659E01" cx="724.952" cy="115.362" r="0.985"/>
<circle fill="#83B200" cx="720.761" cy="110.017" r="0.985"/>
<circle fill="#83B200" cx="720.026" cy="120.831" r="0.734"/>
<circle fill="#659E01" cx="725.686" cy="107.322" r="0.735"/>
<rect x="664.308" y="124.035" fill="#AF6001" width="1.052" height="6.706"/>
<rect x="665.359" y="124.035" fill="#9B5100" width="1.052" height="6.706"/>
<path fill="#659E01" d="M665.359,124.801V92.926c-1.476,2.584-6.394,11.896-6.394,21.213
	C658.966,122.479,663.29,124.371,665.359,124.801z"/>
<path fill="#5B8400" d="M665.359,124.801c2.068-0.43,6.393-2.322,6.393-10.662c0-9.317-4.918-18.629-6.393-21.213V124.801z"/>
<circle fill="#83B200" cx="662.896" cy="104.542" r="0.735"/>
<circle fill="#659E01" cx="667.821" cy="120.831" r="0.734"/>
<circle fill="#83B200" cx="660.984" cy="114.198" r="0.985"/>
<circle fill="#659E01" cx="667.821" cy="115.362" r="0.985"/>
<circle fill="#83B200" cx="663.631" cy="110.017" r="0.985"/>
<circle fill="#83B200" cx="662.896" cy="120.831" r="0.734"/>
<circle fill="#659E01" cx="668.556" cy="107.322" r="0.735"/>
<rect x="747.969" y="119.471" fill="#AF6001" width="1.769" height="11.271"/>
<rect x="749.737" y="119.471" fill="#9B5100" width="1.768" height="11.271"/>
<path fill="#659E01" d="M749.737,120.758V67.186c-2.479,4.342-10.746,19.992-10.746,35.652
	C738.991,116.855,746.26,120.036,749.737,120.758z"/>
<path fill="#5B8400" d="M749.737,120.758c3.477-0.722,10.745-3.902,10.745-17.92c0-15.66-8.267-31.311-10.745-35.652V120.758z"/>
<circle fill="#83B200" cx="745.597" cy="86.708" r="1.235"/>
<circle fill="#659E01" cx="753.875" cy="114.086" r="1.234"/>
<circle fill="#83B200" cx="742.385" cy="102.938" r="1.656"/>
<circle fill="#659E01" cx="753.875" cy="104.894" r="1.657"/>
<circle fill="#83B200" cx="746.831" cy="95.908" r="1.656"/>
<circle fill="#83B200" cx="745.597" cy="114.086" r="1.234"/>
<circle fill="#659E01" cx="755.108" cy="91.38" r="1.235"/>
<rect x="761.649" y="125.178" fill="#AF6001" width="0.873" height="5.563"/>
<rect x="762.522" y="125.178" fill="#9B5100" width="0.873" height="5.563"/>
<path fill="#659E01" d="M762.522,125.813V99.366c-1.224,2.144-5.304,9.869-5.304,17.601
	C757.219,123.887,760.807,125.456,762.522,125.813z"/>
<path fill="#5B8400" d="M762.522,125.813c1.717-0.356,5.305-1.926,5.305-8.846c0-7.731-4.08-15.457-5.305-17.601V125.813z"/>
<circle fill="#83B200" cx="760.479" cy="109.004" r="0.609"/>
<circle fill="#659E01" cx="764.565" cy="122.519" r="0.609"/>
<circle fill="#83B200" cx="758.893" cy="117.015" r="0.818"/>
<circle fill="#659E01" cx="764.565" cy="117.981" r="0.817"/>
<circle fill="#83B200" cx="761.089" cy="113.545" r="0.818"/>
<circle fill="#83B200" cx="760.479" cy="122.519" r="0.609"/>
<circle fill="#659E01" cx="765.175" cy="111.311" r="0.609"/>
<rect x="794.296" y="125.178" fill="#AF6001" width="0.873" height="5.563"/>
<rect x="795.169" y="125.178" fill="#9B5100" width="0.872" height="5.563"/>
<path fill="#659E01" d="M795.169,125.813V99.366c-1.224,2.144-5.305,9.869-5.305,17.601
	C789.864,123.887,793.452,125.456,795.169,125.813z"/>
<path fill="#5B8400" d="M795.169,125.813c1.717-0.356,5.305-1.926,5.305-8.846c0-7.731-4.081-15.457-5.305-17.601V125.813z"/>
<circle fill="#83B200" cx="793.125" cy="109.004" r="0.609"/>
<circle fill="#659E01" cx="797.212" cy="122.519" r="0.609"/>
<circle fill="#83B200" cx="791.539" cy="117.015" r="0.818"/>
<circle fill="#659E01" cx="797.212" cy="117.981" r="0.817"/>
<circle fill="#83B200" cx="793.734" cy="113.545" r="0.818"/>
<circle fill="#83B200" cx="793.125" cy="122.519" r="0.609"/>
<circle fill="#659E01" cx="797.821" cy="111.311" r="0.609"/>
<rect x="772.963" y="120.827" fill="#AF6001" width="1.556" height="9.914"/>
<rect x="774.519" y="120.827" fill="#9B5100" width="1.555" height="9.914"/>
<path fill="#659E01" d="M774.519,121.958V74.83c-2.181,3.819-9.453,17.588-9.453,31.364
	C765.065,118.525,771.46,121.324,774.519,121.958z"/>
<path fill="#5B8400" d="M774.519,121.958c3.059-0.634,9.453-3.433,9.453-15.764c0-13.776-7.273-27.545-9.453-31.364V121.958z"/>
<circle fill="#83B200" cx="770.875" cy="92.005" r="1.086"/>
<circle fill="#659E01" cx="778.158" cy="116.089" r="1.086"/>
<circle fill="#83B200" cx="768.05" cy="106.282" r="1.457"/>
<circle fill="#659E01" cx="778.158" cy="108.003" r="1.458"/>
<circle fill="#83B200" cx="771.962" cy="100.098" r="1.458"/>
<circle fill="#83B200" cx="770.875" cy="116.089" r="1.086"/>
<circle fill="#659E01" cx="779.244" cy="96.115" r="1.086"/>
<rect x="698.159" y="122.522" fill="#AF6001" width="1.289" height="8.219"/>
<rect x="699.448" y="122.522" fill="#9B5100" width="1.289" height="8.219"/>
<path fill="#659E01" d="M699.448,123.46V84.392c-1.808,3.166-7.837,14.58-7.837,26.001
	C691.611,120.614,696.913,122.934,699.448,123.46z"/>
<path fill="#5B8400" d="M699.448,123.46c2.536-0.526,7.836-2.846,7.836-13.067c0-11.421-6.028-22.835-7.836-26.001V123.46z"/>
<circle fill="#83B200" cx="696.428" cy="98.629" r="0.9"/>
<circle fill="#659E01" cx="702.466" cy="118.594" r="0.9"/>
<circle fill="#83B200" cx="694.086" cy="110.464" r="1.208"/>
<circle fill="#659E01" cx="702.466" cy="111.892" r="1.208"/>
<circle fill="#83B200" cx="697.329" cy="105.339" r="1.208"/>
<circle fill="#83B200" cx="696.428" cy="118.594" r="0.9"/>
<circle fill="#659E01" cx="703.366" cy="102.036" r="0.9"/>
<rect x="226.559" y="120.305" fill="#AF6001" width="1.637" height="10.437"/>
<rect x="228.196" y="120.305" fill="#9B5100" width="1.637" height="10.437"/>
<path fill="#659E01" d="M228.196,121.496V71.887c-2.295,4.02-9.951,18.514-9.951,33.016
	C218.245,117.882,224.976,120.828,228.196,121.496z"/>
<path fill="#5B8400" d="M228.196,121.496c3.22-0.668,9.951-3.614,9.951-16.594c0-14.502-7.655-28.996-9.951-33.016V121.496z"/>
<circle fill="#83B200" cx="224.361" cy="89.965" r="1.143"/>
<circle fill="#659E01" cx="232.028" cy="115.317" r="1.143"/>
<circle fill="#83B200" cx="221.387" cy="104.994" r="1.533"/>
<circle fill="#659E01" cx="232.028" cy="106.806" r="1.534"/>
<circle fill="#83B200" cx="225.505" cy="98.485" r="1.534"/>
<circle fill="#83B200" cx="224.361" cy="115.317" r="1.143"/>
<circle fill="#659E01" cx="233.171" cy="94.292" r="1.143"/>
<rect x="215.425" y="124.035" fill="#AF6001" width="1.052" height="6.706"/>
<rect x="216.477" y="124.035" fill="#9B5100" width="1.051" height="6.706"/>
<path fill="#659E01" d="M216.477,124.801V92.926c-1.475,2.584-6.394,11.896-6.394,21.213
	C210.083,122.479,214.408,124.371,216.477,124.801z"/>
<path fill="#5B8400" d="M216.477,124.801c2.068-0.43,6.393-2.322,6.393-10.662c0-9.317-4.918-18.629-6.393-21.213V124.801z"/>
<circle fill="#83B200" cx="214.014" cy="104.542" r="0.735"/>
<circle fill="#659E01" cx="218.939" cy="120.831" r="0.734"/>
<circle fill="#83B200" cx="212.102" cy="114.198" r="0.985"/>
<circle fill="#659E01" cx="218.939" cy="115.362" r="0.985"/>
<circle fill="#83B200" cx="214.749" cy="110.017" r="0.985"/>
<circle fill="#83B200" cx="214.014" cy="120.831" r="0.734"/>
<circle fill="#659E01" cx="219.673" cy="107.322" r="0.735"/>
<rect x="158.294" y="124.035" fill="#AF6001" width="1.052" height="6.706"/>
<rect x="159.347" y="124.035" fill="#9B5100" width="1.051" height="6.706"/>
<path fill="#659E01" d="M159.347,124.801V92.926c-1.476,2.584-6.394,11.896-6.394,21.213
	C152.953,122.479,157.277,124.371,159.347,124.801z"/>
<path fill="#5B8400" d="M159.347,124.801c2.068-0.43,6.393-2.322,6.393-10.662c0-9.317-4.918-18.629-6.393-21.213V124.801z"/>
<circle fill="#83B200" cx="156.883" cy="104.542" r="0.735"/>
<circle fill="#659E01" cx="161.809" cy="120.831" r="0.734"/>
<circle fill="#83B200" cx="154.972" cy="114.198" r="0.985"/>
<circle fill="#659E01" cx="161.809" cy="115.362" r="0.985"/>
<circle fill="#83B200" cx="157.618" cy="110.017" r="0.985"/>
<circle fill="#83B200" cx="156.883" cy="120.831" r="0.734"/>
<circle fill="#659E01" cx="162.542" cy="107.322" r="0.735"/>
<rect x="40.906" y="119.471" fill="#AF6001" width="1.768" height="11.271"/>
<rect x="42.674" y="119.471" fill="#9B5100" width="1.768" height="11.271"/>
<path fill="#659E01" d="M42.674,120.758V67.186c-2.479,4.342-10.746,19.992-10.746,35.652
	C31.929,116.855,39.197,120.036,42.674,120.758z"/>
<path fill="#5B8400" d="M42.674,120.758c3.478-0.722,10.745-3.902,10.745-17.92c0-15.66-8.267-31.311-10.745-35.652V120.758z"/>
<circle fill="#83B200" cx="38.534" cy="86.708" r="1.235"/>
<circle fill="#659E01" cx="46.813" cy="114.086" r="1.234"/>
<circle fill="#83B200" cx="35.322" cy="102.938" r="1.656"/>
<circle fill="#659E01" cx="46.813" cy="104.894" r="1.657"/>
<circle fill="#83B200" cx="39.768" cy="95.908" r="1.656"/>
<circle fill="#83B200" cx="38.534" cy="114.086" r="1.234"/>
<circle fill="#659E01" cx="48.046" cy="91.38" r="1.235"/>
<rect x="255.637" y="125.178" fill="#AF6001" width="0.873" height="5.563"/>
<rect x="256.51" y="125.178" fill="#9B5100" width="0.873" height="5.563"/>
<path fill="#659E01" d="M256.51,125.813V99.366c-1.223,2.144-5.304,9.869-5.304,17.601
	C251.206,123.887,254.794,125.456,256.51,125.813z"/>
<path fill="#5B8400" d="M256.51,125.813c1.717-0.356,5.305-1.926,5.305-8.846c0-7.731-4.081-15.457-5.305-17.601V125.813z"/>
<circle fill="#83B200" cx="254.466" cy="109.004" r="0.609"/>
<circle fill="#659E01" cx="258.553" cy="122.519" r="0.609"/>
<circle fill="#83B200" cx="252.88" cy="117.015" r="0.818"/>
<circle fill="#659E01" cx="258.553" cy="117.981" r="0.817"/>
<circle fill="#83B200" cx="255.076" cy="113.545" r="0.818"/>
<circle fill="#83B200" cx="254.466" cy="122.519" r="0.609"/>
<circle fill="#659E01" cx="259.162" cy="111.311" r="0.609"/>
<rect x="192.146" y="122.522" fill="#AF6001" width="1.289" height="8.219"/>
<rect x="193.435" y="122.522" fill="#9B5100" width="1.29" height="8.219"/>
<path fill="#659E01" d="M193.435,123.46V84.392c-1.808,3.166-7.836,14.58-7.836,26.001
	C185.599,120.614,190.9,122.934,193.435,123.46z"/>
<path fill="#5B8400" d="M193.435,123.46c2.536-0.526,7.836-2.846,7.836-13.067c0-11.421-6.029-22.835-7.836-26.001V123.46z"/>
<circle fill="#83B200" cx="190.415" cy="98.629" r="0.9"/>
<circle fill="#659E01" cx="196.454" cy="118.594" r="0.9"/>
<circle fill="#83B200" cx="188.073" cy="110.464" r="1.208"/>
<circle fill="#659E01" cx="196.454" cy="111.892" r="1.208"/>
<circle fill="#83B200" cx="191.316" cy="105.339" r="1.208"/>
<circle fill="#83B200" cx="190.415" cy="118.594" r="0.9"/>
<circle fill="#659E01" cx="197.354" cy="102.036" r="0.9"/>
<rect x="566.369" y="124.035" fill="#AF6001" width="1.053" height="6.706"/>
<rect x="567.422" y="124.035" fill="#9B5100" width="1.051" height="6.706"/>
<path fill="#659E01" d="M567.422,124.801V92.926c-1.476,2.584-6.395,11.896-6.395,21.213
	C561.027,122.479,565.353,124.371,567.422,124.801z"/>
<path fill="#5B8400" d="M567.422,124.801c2.067-0.43,6.393-2.322,6.393-10.662c0-9.317-4.919-18.629-6.393-21.213V124.801z"/>
<circle fill="#83B200" cx="564.958" cy="104.542" r="0.735"/>
<circle fill="#659E01" cx="569.884" cy="120.831" r="0.734"/>
<circle fill="#83B200" cx="563.047" cy="114.198" r="0.985"/>
<circle fill="#659E01" cx="569.884" cy="115.362" r="0.985"/>
<circle fill="#83B200" cx="565.692" cy="110.017" r="0.985"/>
<circle fill="#83B200" cx="564.958" cy="120.831" r="0.734"/>
<circle fill="#659E01" cx="570.617" cy="107.322" r="0.735"/>
<rect x="509.239" y="124.035" fill="#AF6001" width="1.052" height="6.706"/>
<rect x="510.291" y="124.035" fill="#9B5100" width="1.051" height="6.706"/>
<path fill="#659E01" d="M510.291,124.801V92.926c-1.476,2.584-6.394,11.896-6.394,21.213
	C503.897,122.479,508.222,124.371,510.291,124.801z"/>
<path fill="#5B8400" d="M510.291,124.801c2.068-0.43,6.393-2.322,6.393-10.662c0-9.317-4.918-18.629-6.393-21.213V124.801z"/>
<circle fill="#83B200" cx="507.827" cy="104.542" r="0.735"/>
<circle fill="#659E01" cx="512.753" cy="120.831" r="0.734"/>
<circle fill="#83B200" cx="505.916" cy="114.198" r="0.985"/>
<circle fill="#659E01" cx="512.753" cy="115.362" r="0.985"/>
<circle fill="#83B200" cx="508.563" cy="110.017" r="0.985"/>
<circle fill="#83B200" cx="507.827" cy="120.831" r="0.734"/>
<circle fill="#659E01" cx="513.487" cy="107.322" r="0.735"/>
<rect x="592.9" y="119.471" fill="#AF6001" width="1.768" height="11.271"/>
<rect x="594.668" y="119.471" fill="#9B5100" width="1.769" height="11.271"/>
<path fill="#659E01" d="M594.668,120.758V67.186c-2.479,4.342-10.745,19.992-10.745,35.652
	C583.923,116.855,591.191,120.036,594.668,120.758z"/>
<path fill="#5B8400" d="M594.668,120.758c3.478-0.722,10.746-3.902,10.746-17.92c0-15.66-8.267-31.311-10.746-35.652V120.758z"/>
<circle fill="#83B200" cx="590.528" cy="86.708" r="1.235"/>
<circle fill="#659E01" cx="598.807" cy="114.086" r="1.234"/>
<circle fill="#83B200" cx="587.315" cy="102.938" r="1.656"/>
<circle fill="#659E01" cx="598.807" cy="104.894" r="1.657"/>
<circle fill="#83B200" cx="591.763" cy="95.908" r="1.656"/>
<circle fill="#83B200" cx="590.528" cy="114.086" r="1.234"/>
<circle fill="#659E01" cx="600.04" cy="91.38" r="1.235"/>
<rect x="524.967" y="125.178" fill="#AF6001" width="0.872" height="5.563"/>
<rect x="525.839" y="125.178" fill="#9B5100" width="0.873" height="5.563"/>
<path fill="#659E01" d="M525.839,125.813V99.366c-1.223,2.144-5.304,9.869-5.304,17.601
	C520.535,123.887,524.123,125.456,525.839,125.813z"/>
<path fill="#5B8400" d="M525.839,125.813c1.717-0.356,5.306-1.926,5.306-8.846c0-7.731-4.081-15.457-5.306-17.601V125.813z"/>
<circle fill="#83B200" cx="523.796" cy="109.004" r="0.609"/>
<circle fill="#659E01" cx="527.882" cy="122.519" r="0.609"/>
<circle fill="#83B200" cx="522.21" cy="117.015" r="0.818"/>
<circle fill="#659E01" cx="527.882" cy="117.981" r="0.817"/>
<circle fill="#83B200" cx="524.405" cy="113.545" r="0.818"/>
<circle fill="#83B200" cx="523.796" cy="122.519" r="0.609"/>
<circle fill="#659E01" cx="528.492" cy="111.311" r="0.609"/>
<rect x="543.091" y="122.522" fill="#AF6001" width="1.289" height="8.219"/>
<rect x="544.38" y="122.522" fill="#9B5100" width="1.289" height="8.219"/>
<path fill="#659E01" d="M544.38,123.46V84.392c-1.808,3.166-7.837,14.58-7.837,26.001
	C536.543,120.614,541.845,122.934,544.38,123.46z"/>
<path fill="#5B8400" d="M544.38,123.46c2.536-0.526,7.836-2.846,7.836-13.067c0-11.421-6.028-22.835-7.836-26.001V123.46z"/>
<circle fill="#83B200" cx="541.359" cy="98.629" r="0.9"/>
<circle fill="#659E01" cx="547.397" cy="118.594" r="0.9"/>
<circle fill="#83B200" cx="539.018" cy="110.464" r="1.208"/>
<circle fill="#659E01" cx="547.397" cy="111.892" r="1.208"/>
<circle fill="#83B200" cx="542.261" cy="105.339" r="1.208"/>
<circle fill="#83B200" cx="541.359" cy="118.594" r="0.9"/>
<circle fill="#659E01" cx="548.298" cy="102.036" r="0.9"/>
<rect x="438.174" y="122.293" fill="#AF6001" width="1.326" height="8.448"/>
<rect x="439.5" y="122.293" fill="#9B5100" width="1.324" height="8.448"/>
<path fill="#659E01" d="M439.5,123.258V83.1c-1.858,3.255-8.056,14.986-8.056,26.726C431.444,120.332,436.893,122.717,439.5,123.258
	z"/>
<path fill="#5B8400" d="M439.5,123.258c2.605-0.541,8.055-2.926,8.055-13.433c0-11.739-6.197-23.471-8.055-26.726V123.258z"/>
<circle fill="#83B200" cx="436.396" cy="97.734" r="0.926"/>
<circle fill="#659E01" cx="442.602" cy="118.256" r="0.925"/>
<circle fill="#83B200" cx="433.987" cy="109.899" r="1.241"/>
<circle fill="#659E01" cx="442.602" cy="111.366" r="1.242"/>
<circle fill="#83B200" cx="437.321" cy="104.63" r="1.242"/>
<circle fill="#83B200" cx="436.396" cy="118.256" r="0.925"/>
<circle fill="#659E01" cx="443.526" cy="101.236" r="0.926"/>
<rect x="370.494" y="124.035" fill="#AF6001" width="1.052" height="6.706"/>
<rect x="371.545" y="124.035" fill="#9B5100" width="1.051" height="6.706"/>
<path fill="#659E01" d="M371.545,124.801V92.926c-1.475,2.584-6.394,11.896-6.394,21.213
	C365.152,122.479,369.477,124.371,371.545,124.801z"/>
<path fill="#5B8400" d="M371.545,124.801c2.068-0.43,6.393-2.322,6.393-10.662c0-9.317-4.918-18.629-6.393-21.213V124.801z"/>
<circle fill="#83B200" cx="369.082" cy="104.542" r="0.735"/>
<circle fill="#659E01" cx="374.007" cy="120.831" r="0.734"/>
<circle fill="#83B200" cx="367.171" cy="114.198" r="0.985"/>
<circle fill="#659E01" cx="374.007" cy="115.362" r="0.985"/>
<circle fill="#83B200" cx="369.817" cy="110.017" r="0.985"/>
<circle fill="#83B200" cx="369.082" cy="120.831" r="0.734"/>
<circle fill="#659E01" cx="374.742" cy="107.322" r="0.735"/>
<rect x="313.363" y="124.035" fill="#AF6001" width="1.052" height="6.706"/>
<rect x="314.415" y="124.035" fill="#9B5100" width="1.051" height="6.706"/>
<path fill="#659E01" d="M314.415,124.801V92.926c-1.475,2.584-6.394,11.896-6.394,21.213
	C308.021,122.479,312.346,124.371,314.415,124.801z"/>
<path fill="#5B8400" d="M314.415,124.801c2.068-0.43,6.393-2.322,6.393-10.662c0-9.317-4.918-18.629-6.393-21.213V124.801z"/>
<circle fill="#83B200" cx="311.951" cy="104.542" r="0.735"/>
<circle fill="#659E01" cx="316.877" cy="120.831" r="0.734"/>
<circle fill="#83B200" cx="310.04" cy="114.198" r="0.985"/>
<circle fill="#659E01" cx="316.877" cy="115.362" r="0.985"/>
<circle fill="#83B200" cx="312.687" cy="110.017" r="0.985"/>
<circle fill="#83B200" cx="311.951" cy="120.831" r="0.734"/>
<circle fill="#659E01" cx="317.611" cy="107.322" r="0.735"/>
<rect x="331.113" y="119.471" fill="#AF6001" width="1.768" height="11.271"/>
<rect x="332.881" y="119.471" fill="#9B5100" width="1.768" height="11.271"/>
<path fill="#659E01" d="M332.881,120.758V67.186c-2.479,4.342-10.746,19.992-10.746,35.652
	C322.136,116.855,329.404,120.036,332.881,120.758z"/>
<path fill="#5B8400" d="M332.881,120.758c3.477-0.722,10.745-3.902,10.745-17.92c0-15.66-8.267-31.311-10.745-35.652V120.758z"/>
<circle fill="#83B200" cx="328.741" cy="86.708" r="1.235"/>
<circle fill="#659E01" cx="337.02" cy="114.086" r="1.234"/>
<circle fill="#83B200" cx="325.529" cy="102.938" r="1.656"/>
<circle fill="#659E01" cx="337.02" cy="104.894" r="1.657"/>
<circle fill="#83B200" cx="329.975" cy="95.908" r="1.656"/>
<circle fill="#83B200" cx="328.741" cy="114.086" r="1.234"/>
<circle fill="#659E01" cx="338.253" cy="91.38" r="1.235"/>
<rect x="410.705" y="125.178" fill="#AF6001" width="0.873" height="5.563"/>
<rect x="411.578" y="125.178" fill="#9B5100" width="0.873" height="5.563"/>
<path fill="#659E01" d="M411.578,125.813V99.366c-1.224,2.144-5.304,9.869-5.304,17.601
	C406.274,123.887,409.862,125.456,411.578,125.813z"/>
<path fill="#5B8400" d="M411.578,125.813c1.717-0.356,5.305-1.926,5.305-8.846c0-7.731-4.08-15.457-5.305-17.601V125.813z"/>
<circle fill="#83B200" cx="409.535" cy="109.004" r="0.609"/>
<circle fill="#659E01" cx="413.621" cy="122.519" r="0.609"/>
<circle fill="#83B200" cx="407.948" cy="117.015" r="0.818"/>
<circle fill="#659E01" cx="413.621" cy="117.981" r="0.817"/>
<circle fill="#83B200" cx="410.145" cy="113.545" r="0.818"/>
<circle fill="#83B200" cx="409.535" cy="122.519" r="0.609"/>
<circle fill="#659E01" cx="414.23" cy="111.311" r="0.609"/>
<rect x="15.425" y="124.035" fill="#AF6001" width="1.052" height="6.706"/>
<rect x="16.477" y="124.035" fill="#9B5100" width="1.051" height="6.706"/>
<path fill="#659E01" d="M16.477,124.801V92.926c-1.475,2.584-6.394,11.896-6.394,21.213
	C10.083,122.479,14.408,124.371,16.477,124.801z"/>
<path fill="#5B8400" d="M16.477,124.801c2.068-0.43,6.393-2.322,6.393-10.662c0-9.317-4.918-18.629-6.393-21.213V124.801z"/>
<circle fill="#83B200" cx="14.014" cy="104.542" r="0.735"/>
<circle fill="#659E01" cx="18.939" cy="120.831" r="0.734"/>
<circle fill="#83B200" cx="12.102" cy="114.198" r="0.985"/>
<circle fill="#659E01" cx="18.939" cy="115.362" r="0.985"/>
<circle fill="#83B200" cx="14.749" cy="110.017" r="0.985"/>
<circle fill="#83B200" cx="14.014" cy="120.831" r="0.734"/>
<circle fill="#659E01" cx="19.673" cy="107.322" r="0.735"/>
<rect x="60.342" y="124.035" fill="#AF6001" width="1.052" height="6.706"/>
<rect x="61.394" y="124.035" fill="#9B5100" width="1.051" height="6.706"/>
<path fill="#659E01" d="M61.394,124.801V92.926C59.919,95.51,55,104.821,55,114.139C55,122.479,59.325,124.371,61.394,124.801z"/>
<path fill="#5B8400" d="M61.394,124.801c2.068-0.43,6.393-2.322,6.393-10.662c0-9.317-4.918-18.629-6.393-21.213V124.801z"/>
<circle fill="#83B200" cx="58.931" cy="104.542" r="0.735"/>
<circle fill="#659E01" cx="63.856" cy="120.831" r="0.734"/>
<circle fill="#83B200" cx="57.02" cy="114.198" r="0.985"/>
<circle fill="#659E01" cx="63.856" cy="115.362" r="0.985"/>
<circle fill="#83B200" cx="59.666" cy="110.017" r="0.985"/>
<circle fill="#83B200" cx="58.931" cy="120.831" r="0.734"/>
<circle fill="#659E01" cx="64.59" cy="107.322" r="0.735"/>
<rect x="131.113" y="119.471" fill="#AF6001" width="1.768" height="11.271"/>
<rect x="132.881" y="119.471" fill="#9B5100" width="1.768" height="11.271"/>
<path fill="#659E01" d="M132.881,120.758V67.186c-2.479,4.342-10.746,19.992-10.746,35.652
	C122.136,116.855,129.404,120.036,132.881,120.758z"/>
<path fill="#5B8400" d="M132.881,120.758c3.477-0.722,10.745-3.902,10.745-17.92c0-15.66-8.267-31.311-10.745-35.652V120.758z"/>
<circle fill="#83B200" cx="128.741" cy="86.708" r="1.235"/>
<circle fill="#659E01" cx="137.02" cy="114.086" r="1.234"/>
<circle fill="#83B200" cx="125.529" cy="102.938" r="1.656"/>
<circle fill="#659E01" cx="137.02" cy="104.894" r="1.657"/>
<circle fill="#83B200" cx="129.975" cy="95.908" r="1.656"/>
<circle fill="#83B200" cx="128.741" cy="114.086" r="1.234"/>
<circle fill="#659E01" cx="138.253" cy="91.38" r="1.235"/>
<rect x="93.409" y="125.178" fill="#AF6001" width="0.873" height="5.563"/>
<rect x="94.282" y="125.178" fill="#9B5100" width="0.873" height="5.563"/>
<path fill="#659E01" d="M94.282,125.813V99.366c-1.224,2.144-5.304,9.869-5.304,17.601
	C88.978,123.887,92.566,125.456,94.282,125.813z"/>
<path fill="#5B8400" d="M94.282,125.813c1.717-0.356,5.305-1.926,5.305-8.846c0-7.731-4.08-15.457-5.305-17.601V125.813z"/>
<circle fill="#83B200" cx="92.239" cy="109.004" r="0.609"/>
<circle fill="#659E01" cx="96.325" cy="122.519" r="0.609"/>
<circle fill="#83B200" cx="90.652" cy="117.015" r="0.818"/>
<circle fill="#659E01" cx="96.325" cy="117.981" r="0.817"/>
<circle fill="#83B200" cx="92.848" cy="113.545" r="0.818"/>
<circle fill="#83B200" cx="92.239" cy="122.519" r="0.609"/>
<circle fill="#659E01" cx="96.934" cy="111.311" r="0.609"/>
<rect x="395.464" y="122.522" fill="#AF6001" width="1.289" height="8.219"/>
<rect x="396.753" y="122.522" fill="#9B5100" width="1.29" height="8.219"/>
<path fill="#659E01" d="M396.753,123.46V84.392c-1.808,3.166-7.836,14.58-7.836,26.001
	C388.917,120.614,394.218,122.934,396.753,123.46z"/>
<path fill="#5B8400" d="M396.753,123.46c2.536-0.526,7.836-2.846,7.836-13.067c0-11.421-6.029-22.835-7.836-26.001V123.46z"/>
<circle fill="#83B200" cx="393.733" cy="98.629" r="0.9"/>
<circle fill="#659E01" cx="399.771" cy="118.594" r="0.9"/>
<circle fill="#83B200" cx="391.391" cy="110.464" r="1.208"/>
<circle fill="#659E01" cx="399.771" cy="111.892" r="1.208"/>
<circle fill="#83B200" cx="394.634" cy="105.339" r="1.208"/>
<circle fill="#83B200" cx="393.733" cy="118.594" r="0.9"/>
<circle fill="#659E01" cx="400.671" cy="102.036" r="0.9"/>
</svg>
