<?xml version="1.0" encoding="utf-8"?>
<!-- Generator: Adobe Illustrator 14.0.0, SVG Export Plug-In . SVG Version: 6.00 Build 43363)  -->
<!DOCTYPE svg PUBLIC "-//W3C//DTD SVG 1.1//EN" "http://www.w3.org/Graphics/SVG/1.1/DTD/svg11.dtd">
<svg version="1.1" id="Layer_1" xmlns="http://www.w3.org/2000/svg" xmlns:xlink="http://www.w3.org/1999/xlink" x="0px" y="0px"
	 width="183.507px" height="183.506px" viewBox="0 0 183.507 183.506" enable-background="new 0 0 183.507 183.506"
	 xml:space="preserve">
<g>
	<path fill-rule="evenodd" clip-rule="evenodd" fill="#35332B" d="M48.809,79.004c0.26,0,0.519,0,0.778,0c0,2.594,0,5.188,0,7.783
		C47.813,85.708,49.297,81.37,48.809,79.004z"/>
	<path fill-rule="evenodd" clip-rule="evenodd" fill="#1F0B05" d="M100.949,80.561c0,2.074,0,4.15,0,6.227c0,1.037,0,2.074,0,3.113
		c1.225,3.734-0.455,9.426-1.557,13.229c-1.443-5.32-0.363-15.479-0.778-19.455C102.738,84.268,97.253,79.542,100.949,80.561z"/>
	<path fill-rule="evenodd" clip-rule="evenodd" fill="#1F0B05" d="M133.634,83.674c0.631-0.148,0.775-0.781,1.557-0.777
		c-0.696,5.947-2.8,12.66,0,17.898c-0.954,3.586,2.384,6.902,0,9.338c-1.038,0-2.074,0-3.112,0c0-7.523,0-15.045,0-22.568
		C131.958,85.629,133.3,85.157,133.634,83.674z"/>
	<path fill-rule="evenodd" clip-rule="evenodd" fill="#1F0B05" d="M102.506,83.674c2.767,0.086,6.773-1.066,5.447,3.113
		c-0.907-0.131-0.846-1.232-0.778-2.336c-3.822-1.227-3.649,1.539-4.669,3.113C102.506,86.268,102.506,84.971,102.506,83.674z"/>
	<path fill-rule="evenodd" clip-rule="evenodd" fill="#1F0B05" d="M151.533,110.133c0.447-6.037-0.941-13.91,0.778-18.678
		c1.208,2.941,1.519,6.783,1.556,10.896c1.891-7.969-0.301-20.018,10.896-18.678c0.671,3.102-1.163,5.75,0,7.004
		c-1.79,1.84-0.278,6.984-0.778,10.117c0,2.074,0,4.148,0,6.225c-1.533,4.646,5.562,0.664,6.226,3.113
		C163.984,110.133,157.759,110.133,151.533,110.133z"/>
	<path fill-rule="evenodd" clip-rule="evenodd" fill="#35332B" d="M131.3,110.133c0.514-7.268-1.032-16.596,0.778-22.568
		c0,7.523,0,15.045,0,22.568C131.817,110.133,131.56,110.133,131.3,110.133z"/>
	<path fill-rule="evenodd" clip-rule="evenodd" fill="#111224" d="M164.763,90.678c0,3.371,0,6.744,0,10.117
		c-0.26,0-0.519,0-0.778,0C164.484,97.663,162.973,92.518,164.763,90.678z"/>
	<path fill-rule="evenodd" clip-rule="evenodd" fill="#1F0B05" d="M174.102,107.02c-1.289-1.09-1.289-7.471,0-8.561
		C174.102,101.313,174.102,104.167,174.102,107.02z"/>
	<path fill-rule="evenodd" clip-rule="evenodd" fill="#35332B" d="M163.984,100.795c0.26,0,0.519,0,0.778,0
		c0.132,1.164-0.278,2.871,0.778,3.113c0,1.035,0,2.074,0,3.111c-0.519,0-1.038,0-1.557,0
		C163.984,104.944,163.984,102.87,163.984,100.795z"/>
	<path fill-rule="evenodd" clip-rule="evenodd" fill="#1F0B05" d="M14.567,109.356c0-0.779,0-1.557,0-2.336
		c1.131,0.426,4.021-0.91,3.891,0.779c0,0.518,0,1.037,0,1.557c-0.26,0-0.519,0-0.778,0
		C16.642,109.356,15.605,109.356,14.567,109.356z"/>
	<path fill-rule="evenodd" clip-rule="evenodd" fill="#B0B1B1" d="M93.945,112.467c0-0.26,0-0.52,0-0.777c2.074,0,4.15,0,6.226,0
		c0.519,0,1.038,0,1.557,0C100.648,113.463,96.311,111.981,93.945,112.467z"/>
	<path fill-rule="evenodd" clip-rule="evenodd" fill="#919890" d="M137.525,80.561c2.383-1.934-6.133,0.479-6.226-1.557
		c2.948-0.242,10.979-0.328,6.226,2.336C137.525,81.081,137.525,80.821,137.525,80.561z"/>
	<path fill-rule="evenodd" clip-rule="evenodd" fill="#111224" d="M113.4,79.004c1.21-1.281,3.032,0.268,4.669,0.779
		c0.401-1.787,0.548-1.264,3.113,0c-0.187,1.109-1.281,1.311-1.557,2.334c-2.745-0.107-3.479-2.227-6.226-2.334
		C113.4,79.524,113.4,79.264,113.4,79.004z"/>
	<path fill-rule="evenodd" clip-rule="evenodd" fill="#3F5751" d="M70.599,78.227c-0.98,1.031,4.288,2.418,4.669,4.67
		c-0.121,6.363-2.879,10.09-4.669,14.785c0.098,1.719,3.302,0.33,4.669,0.777c-0.795,4.395-2.199,8.176-2.334,13.23
		c-5.876-0.352-13.181,0.729-15.564-3.113c3.999-8.451,2.511-22.391,6.226-31.129C66.833,79.114,67.431,75.389,70.599,78.227z"/>
	<path fill-rule="evenodd" clip-rule="evenodd" fill="#666A62" d="M110.287,79.004c0-0.26,0-0.52,0-0.777
		c1.396-0.1,1.642,0.953,3.113,0.777c0,0.26,0,0.52,0,0.779c2.746,0.107,3.48,2.227,6.226,2.334c0.275-1.023,1.37-1.225,1.557-2.334
		c-0.143-0.664,0.304-0.734,0.778-0.779c2.27,9.924,3.386,20.998,5.447,31.129c-5.662,3.158-16.784,0.855-24.902,1.557
		c5.772-0.635,4.574-1.422,4.669-6.227c0.094-4.719,2.136-14.166,1.557-17.119C109.914,86.383,110.922,80.196,110.287,79.004z"/>
	<path fill-rule="evenodd" clip-rule="evenodd" fill="#666A62" d="M151.533,110.133c-1.106-8.117-1.869-22.617,0.778-29.572
		c7.382-2.865,12.954,1.826,19.455,2.336c-4.01,9.738-5.303,10.189-6.226,21.012c-1.057-0.242-0.646-1.949-0.778-3.113
		c0-3.373,0-6.746,0-10.117c-1.163-1.254,0.671-3.902,0-7.004c-11.196-1.34-9.005,10.709-10.896,18.678
		c-0.037-4.113-0.348-7.955-1.556-10.896C150.592,96.223,151.98,104.096,151.533,110.133z"/>
	<path fill-rule="evenodd" clip-rule="evenodd" fill="#666A62" d="M29.354,82.897c1.899,1.33,2.911-3.428,4.669-4.67
		c-0.993,3.053,2.13,2.607,3.113,1.557c0.192,0.844,1.547,0.527,1.556,1.557c-2.404,0.564-3.838,28.123-3.891,28.016
		c0.991,2.035,4.885-0.02,4.669,0.777c-2.097,1.793-7.505,0.277-10.895,0.779c0-1.039,0-2.076,0-3.113c0-3.633,0-7.264,0-10.895
		C28.508,92.231,31.673,87.301,29.354,82.897z"/>
	<path fill-rule="evenodd" clip-rule="evenodd" fill="#919890" d="M17.68,106.243c1.779-8.078,2.639-17.076,4.67-24.902
		c1.626-0.33,2.061,0.533,3.112,0.777c1.72-0.098,0.331-3.301,0.778-4.67c2.963-0.668,5.156-2.107,9.339-1.555
		c-0.07,1.227-1.985,0.607-1.557,2.334c-1.758,1.242-2.77,6-4.669,4.67c-0.346-0.693-0.684-1.393-1.557-1.557
		c-1.922,1.355-0.751,4.742-1.557,10.895c-0.81,6.184-4.401,15.828-3.891,17.121c1.025,2.59,4.893-1.172,4.669,1.557
		c-3.598-0.035-7.697,0.434-9.339-1.557c0.26,0,0.519,0,0.778,0C20.291,109.145,18.934,105.911,17.68,106.243z"/>
	<path fill-rule="evenodd" clip-rule="evenodd" fill="#111224" d="M165.541,103.909c0.923-10.822,2.216-11.273,6.226-21.012
		c3.854,4.859-2.295,10.902,2.335,15.563c-1.289,1.09-1.289,7.471,0,8.561c0,1.037,0,2.076,0,3.113c-1.297,0-2.595,0-3.892,0
		c-0.664-2.449-7.759,1.533-6.226-3.113c0.519,0,1.038,0,1.557,0C165.541,105.983,165.541,104.944,165.541,103.909z"/>
	<path fill-rule="evenodd" clip-rule="evenodd" fill="#111224" d="M107.953,86.788c-0.143,0.66,0.304,0.734,0.778,0.777
		c0,0.26,0,0.52,0,0.779c0.579,2.953-1.463,12.4-1.557,17.119c-0.095,4.805,1.104,5.592-4.669,6.227c-0.261,0-0.519,0-0.778,0
		c-0.519,0-1.038,0-1.557,0c1.67-2.238-0.155-6.184-0.778-8.561c1.102-3.803,2.781-9.494,1.557-13.229
		c0.727-0.572,1.18-1.416,1.557-2.336c1.02-1.574,0.847-4.34,4.669-3.113C107.107,85.555,107.046,86.657,107.953,86.788z"/>
	<path fill-rule="evenodd" clip-rule="evenodd" fill="#3F5751" d="M102.506,83.674c0,1.297,0,2.594,0,3.891
		c-0.377,0.92-0.83,1.764-1.557,2.336c0-1.039,0-2.076,0-3.113C103.062,87.344,100.393,83.116,102.506,83.674z"/>
	<path fill-rule="evenodd" clip-rule="evenodd" fill="#B0B1B1" d="M131.3,110.133c-0.529-0.184-0.908,0.355-0.778,0.779
		c-1.775-5.816-6.588-23.744,2.334-27.238c0.261,0,0.519,0,0.778,0c-0.334,1.482-1.676,1.955-1.556,3.891
		C130.268,93.538,131.813,102.866,131.3,110.133z"/>
	<path fill-rule="evenodd" clip-rule="evenodd" fill="#3F5751" d="M14.567,109.356c-2.075,0-4.151,0-6.226,0
		c-0.95-5.102,5.835-2.467,9.338-3.113c1.254-0.332,2.611,2.902,0.778,3.113c0-0.52,0-1.039,0-1.557
		c0.131-1.689-2.76-0.354-3.891-0.779C14.567,107.799,14.567,108.577,14.567,109.356z"/>
	<path fill-rule="evenodd" clip-rule="evenodd" fill="#919890" d="M82.271,71.223c3.127-1.803,9.588-0.271,14.008-0.779
		C93.153,72.247,86.691,70.713,82.271,71.223z"/>
	<path fill-rule="evenodd" clip-rule="evenodd" fill="#1F0B05" d="M35.579,75.893c1.257-0.221,1.34,0.734,2.335,0.777
		c0.329,1.627-0.534,2.061-0.778,3.113c-0.983,1.051-4.106,1.496-3.113-1.557C33.594,76.5,35.509,77.12,35.579,75.893z"/>
	<path fill-rule="evenodd" clip-rule="evenodd" fill="#666A62" d="M129.743,72c-0.691,1.645-2.37,2.301-2.335,4.67
		c-3.126,0.764-6.828,0.953-10.895,0.777c-11.417-1.814-26.198-0.26-38.911-0.777c-0.351,2.166,4.242-0.611,3.892,1.557
		c-2.075,0-4.151,0-6.227,0c-1.819-0.24-3.215-1.525-4.669,0c-3.168-2.838-3.766,0.887-7.004-0.779
		c-3.715,8.738-2.227,22.678-6.226,31.129c0-3.113,0-6.225,0-9.338c1.082-7.479,0.062-17.061,1.557-24.125
		c3.102-0.25,5.75-0.043,7.004,1.557c0-1.299,0-2.594,0-3.891c4.951-1.016,9.92-2.014,16.342-1.557
		c4.42-0.51,10.882,1.023,14.008-0.779C108.18,70.217,118.947,71.124,129.743,72z"/>
	<path fill-rule="evenodd" clip-rule="evenodd" fill="#3F5751" d="M87.72,78.227c-1.297,0-2.595,0-3.892,0c-0.778,0-1.557,0-2.334,0
		c0.351-2.168-4.242,0.609-3.892-1.557c12.713,0.518,27.494-1.037,38.911,0.777C107.172,77.963,95.765,76.413,87.72,78.227z"/>
	<path fill-rule="evenodd" clip-rule="evenodd" fill="#666A62" d="M87.72,78.227c0.778,0,1.556,0,2.334,0
		c1.978,2.691,7.089,2.25,8.561,5.447c0.415,3.977-0.665,14.135,0.778,19.455c0.623,2.377,2.448,6.322,0.778,8.561
		c-2.075,0-4.151,0-6.226,0c-3.113,0-6.226,0-9.339,0c-0.26,0-0.519,0-0.778,0c-0.316-11.283-3.329-23.039,0-33.463
		C85.125,78.227,86.423,78.227,87.72,78.227z"/>
	<path fill-rule="evenodd" clip-rule="evenodd" fill="#B0B1B1" d="M102.506,78.227c2.594,0,5.188,0,7.781,0c0,0.258,0,0.518,0,0.777
		C107.923,78.518,103.585,80,102.506,78.227z"/>
	<path fill-rule="evenodd" clip-rule="evenodd" fill="#1F0B05" d="M129.743,72c3.431,0.201,6.02,1.244,10.116,0.779
		c0.938,2.953,0.055,7.727,5.448,6.225c-0.157,11.783,3.03,20.002,1.556,31.129c-2.62-0.492-7.229,1.002-8.56-0.777
		c0.574-5.504-0.682-9.178-2.335-12.451c-1.043-4.186,1.298-10.242,1.557-15.564c4.753-2.664-3.277-2.578-6.226-2.336
		c-3.113,0-6.227,0-9.339,0c-0.475,0.045-0.921,0.115-0.778,0.779c-2.565-1.264-2.712-1.787-3.113,0
		c-1.637-0.512-3.459-2.061-4.669-0.779c-1.472,0.176-1.718-0.877-3.113-0.777c-2.594,0-5.188,0-7.781,0
		c-1.324-0.287-1.469,0.605-1.557,1.557c-2.485-1.666-6.586-1.717-10.896-1.557c-0.778,0-1.556,0-2.334,0
		c8.045-1.814,19.452-0.264,28.794-0.779c4.066,0.176,7.769-0.014,10.895-0.777C127.373,74.301,129.052,73.645,129.743,72z"/>
	<path fill-rule="evenodd" clip-rule="evenodd" fill="#1F0B05" d="M75.268,78.227c0.762,2.869,3.408,3.854,4.67,6.225
		c-1.022,8.836-2.09,17.625-2.335,27.238c-1.557,0-3.112,0-4.669,0c0.135-5.055,1.539-8.836,2.334-13.23
		c-1.367-0.447-4.571,0.941-4.669-0.777c1.79-4.695,4.548-8.422,4.669-14.785c-0.381-2.252-5.649-3.639-4.669-4.67
		C72.053,76.702,73.448,77.987,75.268,78.227z"/>
	<path fill-rule="evenodd" clip-rule="evenodd" fill="#1F0B05" d="M49.587,79.004c2.847-0.512,2.985,1.686,5.447,1.557
		c-0.097,3.211,1.353,4.873,0.778,8.561c0,3.631,0,7.262,0,10.895c0.593,4.225-1.232,6.031-0.778,10.117c-1.038,0-2.074,0-3.112,0
		c-0.513-5.713,1.028-13.48-0.778-17.898c0.458-2.793-0.904-3.766-1.557-5.447C49.587,84.192,49.587,81.598,49.587,79.004z"/>
	<path fill-rule="evenodd" clip-rule="evenodd" fill="#111224" d="M98.614,83.674c-1.472-3.197-6.583-2.756-8.561-5.447
		c4.31-0.16,8.41-0.109,10.896,1.557c0,0.258,0,0.518,0,0.777C97.253,79.542,102.738,84.268,98.614,83.674z"/>
	<path fill-rule="evenodd" clip-rule="evenodd" fill="#1F0B05" d="M38.691,81.34c1.674,3.256,0.07,9.787,1.557,13.229
		c1.33,3.652-0.818,9.895,0,15.564c-0.26,0-0.518,0-0.778,0c0.216-0.797-3.678,1.258-4.669-0.777
		C34.854,109.463,36.287,81.905,38.691,81.34z"/>
	<path fill-rule="evenodd" clip-rule="evenodd" fill="#919890" d="M107.953,86.788c1.326-4.18-2.681-3.027-5.447-3.113
		c0.579-1.756,4.365-0.305,6.226-0.777c0,1.555,0,3.111,0,4.668C108.257,87.522,107.811,87.448,107.953,86.788z"/>
	<path fill-rule="evenodd" clip-rule="evenodd" fill="#1F0B05" d="M27.019,110.913c0.224-2.729-3.644,1.033-4.669-1.557
		c-0.511-1.293,3.081-10.938,3.891-17.121c0.806-6.152-0.365-9.539,1.557-10.895c0.873,0.164,1.211,0.863,1.557,1.557
		c2.319,4.404-0.846,9.334-0.778,14.008c-1.292,1.85-1.292,9.043,0,10.895c0,1.037,0,2.074,0,3.113
		C28.057,110.913,27.537,110.913,27.019,110.913z"/>
	<path fill-rule="evenodd" clip-rule="evenodd" fill="#666A62" d="M137.525,81.34c-0.259,5.322-2.6,11.379-1.557,15.564
		c-1.688-0.133-0.353,2.76-0.778,3.891c-2.8-5.238-0.696-11.951,0-17.898c0.437-1.123,1.215-1.9,2.335-2.336
		C137.525,80.821,137.525,81.081,137.525,81.34z"/>
	<path fill-rule="evenodd" clip-rule="evenodd" fill="#B0B1B1" d="M55.813,89.122c2.295,1.596-0.738,8.521,1.557,10.117
		c0,3.113,0,6.225,0,9.338c-2.283-1.09,0.727-7.471-1.557-8.561C55.813,96.383,55.813,92.752,55.813,89.122z"/>
	<path fill-rule="evenodd" clip-rule="evenodd" fill="#35332B" d="M28.575,96.905c0,3.631,0,7.262,0,10.895
		C27.283,105.948,27.283,98.754,28.575,96.905z"/>
	<path fill-rule="evenodd" clip-rule="evenodd" fill="#919890" d="M138.304,109.356c-0.757,0.021-0.604,0.953-0.778,1.557
		c-1.86-0.475-5.646,0.977-6.226-0.779c0.26,0,0.518,0,0.778,0c1.038,0,2.074,0,3.112,0c2.384-2.436-0.954-5.752,0-9.338
		c0.426-1.131-0.909-4.023,0.778-3.891C137.622,100.178,138.878,103.852,138.304,109.356z"/>
	<path fill-rule="evenodd" clip-rule="evenodd" fill="#666A62" d="M138.304,109.356c1.331,1.779,5.939,0.285,8.56,0.777
		c-1.586,1.787-6.463,0.281-9.338,0.779C137.7,110.309,137.547,109.377,138.304,109.356z"/>
	<path fill-rule="evenodd" clip-rule="evenodd" fill="#3F5751" d="M151.533,110.133c6.226,0,12.451,0,18.677,0
		c1.297,0,2.595,0,3.892,0C168.385,111.428,157.25,111.428,151.533,110.133z"/>
	<path fill-rule="evenodd" clip-rule="evenodd" fill="#F1EFEA" d="M84.606,111.69c3.113,0,6.226,0,9.339,0c0,0.258,0,0.518,0,0.777
		C91.069,111.971,86.193,113.475,84.606,111.69z"/>
	<path fill-rule="evenodd" clip-rule="evenodd" fill="#FFFFFF" d="M102.506,78.227c1.079,1.773,5.417,0.291,7.781,0.777
		c0.635,1.191-0.373,7.379-1.556,9.34c0-0.26,0-0.52,0-0.779c0-1.557,0-3.113,0-4.668c-1.86,0.473-5.646-0.979-6.226,0.777
		c-2.113-0.559,0.556,3.67-1.557,3.113c0-2.076,0-4.152,0-6.227c0-0.26,0-0.52,0-0.777C101.037,78.833,101.182,77.94,102.506,78.227
		z"/>
	<path fill-rule="evenodd" clip-rule="evenodd" fill="#3F5751" d="M40.248,94.569c3.043-3.441,3.13-9.842,3.892-15.564
		c1.556,0,3.112,0,4.669,0c0.488,2.365-0.996,6.703,0.778,7.783c0.652,1.682,2.015,2.654,1.557,5.447
		c-0.955,5.271,1.961,14.412-1.557,17.121c0.126,0.912,1.419,0.656,2.335,0.777c1.038,0,2.074,0,3.112,0
		c-3.133,1.293-11.652,1.293-14.786,0C39.43,104.463,41.578,98.221,40.248,94.569z"/>
	<path fill-rule="evenodd" clip-rule="evenodd" fill="#35332B" d="M51.144,92.235c1.807,4.418,0.266,12.186,0.778,17.898
		c-0.916-0.121-2.209,0.135-2.335-0.777C53.104,106.647,50.188,97.506,51.144,92.235z"/>
</g>
</svg>
